<svg version="1.2" xmlns="http://www.w3.org/2000/svg" viewBox="0 0 3000 2000" width="3000" height="2000"><style>.a{fill:#074530}.b{fill:#a8d29f}.c{fill:#82b378}.d{fill:#ed7d2b}.e{fill:#ffb93e}.f{fill:#ffa412}.g{fill:#d1f2c9}.h{fill:#95c38b}.i{fill:#2b478b}.j{fill:#699dee}.k{fill:#92beff}.l{fill:#fcecdb}.m{fill:#efcbab}.n{fill:#ffb583}.o{fill:#ea6c2d}.p{fill:#233862}.q{fill:#ffb07b}.r{fill:#2a4e96}.s{fill:#1e3d70}.t{fill:#ea8e50}.u{fill:#2c3a64}.v{fill:#ffb27d}.w{fill:#2a468a}.x{fill:#ed985f}.y{fill:#f46c0f}.z{fill:#ff9045}.A{fill:#8cdec1}.B{fill:#ffda9f}.C{fill:#2a4d95}.D{fill:#2b3a64}.E{fill:#2e3552}</style><path class="a" d="m310.3 1774.8c0 0-315.5-338.6-53.4-705.3 232.5-325.3 503.6-303 702.5-171 84.8 56.2 329 6.9 536.9-324.1 283.5-451.4 1266.2-177.6 1087 516.9-86.7 336.1 263.9 348.3 85.2 684.2z"/><path class="b" d="m1598.7 736.8c-0.1 1.8-0.2 2.7-0.2 2.7 0 0-0.3-0.9-0.8-2.6-4.6-14.2-27.1-84.2-47.5-162.1-28.3-107.8-52.7-230.8-20.6-242.1 60.8-21.6 72 150.6 72.2 277.7 0.1 62.7-2.5 114.3-3.1 126.4z"/><path class="b" d="m1658.2 596.8c-22 48.8-41.1 89.8-52 114.4-4.8 10.7-8 18.3-9.2 22 1-6 3.9-22.3 8-45.5 6.1-34.8 15.1-84.9 24.9-139.4 23.7-132.4 52.7-290.2 59.4-312.7 11.9-39.8 66.8-124.5 103.8-50.8 24 47.9-68.6 265-134.9 412z"/><path class="b" d="m1662.6 666.4c-22.7 24-41.8 43.4-52.5 54.2-5.8 5.9-9.1 9.2-9.1 9.2 0 0 5.8-12.4 15.7-32.2 9.4-18.8 22.4-44.1 37.6-71.8 49.8-90.8 123.2-207.2 168.7-200.4 51.9 7.6-78 154.1-160.4 241z"/><path class="c" d="m1598.7 736.8q-0.5 0-1 0.1c-4.6-14.2-27.1-84.2-47.5-162.1 9.5 14.3 26.7 33.5 51.6 35.6 0.1 62.7-2.5 114.3-3.1 126.4z"/><path class="c" d="m1658.2 596.8c-22 48.8-41.1 89.8-52 114.4-0.8-6.8-1.2-14.8-1.2-23.5 6.1-34.8 15.1-84.9 24.9-139.4 3.8 19 11.8 40.1 28.3 48.5z"/><path class="c" d="m1662.6 666.4c-22.7 24-41.8 43.4-52.5 54.2 1.1-6.2 3.5-14.2 6.6-23 9.4-18.8 22.4-44.1 37.6-71.8 0.4 11.6 2 28.9 8.3 40.6z"/><path class="b" d="m1596.9 733.3c-0.3 1.7-0.4 2.6-0.4 2.6q-0.3-0.2 0.4-2.6z"/><path class="d" d="m1627.5 908.3c-38.2 108-85.6 225.8-85.6 225.8l-107.2-32.2c0 0 12.5-79.9 30.9-168.9 21.5-103.8 33.8-208.5 77.9-235.7 12.1-7.5 25.2-11 38-12q9.8-0.6 19.2 0.6 2.3 0.3 4.5 0.7 5.6 1 10.9 2.6 2.1 0.6 4.2 1.3c4.7 1.6 9.3 3.6 13.7 5.8 18.6 9.4 33.5 23.6 39.4 39 17.6 46.1-17.1 91.5-45.9 173z"/><path class="e" d="m1575.1 1040.6c-28.2 85.5-36.6 179.2-25 279.3 1.9 16.7 11.2 31.2 24.7 40.1 6 3.9 12.8 6.8 20.2 8.2 16.5 0 49.2-30.1 67.9-68.5 5.1-10.6 9.2-21.8 11.6-33.1 18.7-88.8 53.3-195.8 96.3-250.4 44-55.9 103.3-122.7 184.7-168.6q0-0.1 0-0.1c7.9-4.5 192.7-139 192.7-139 18.3-19.5-3.4-41.2-3.4-41.2 0 0-17.6 15.4-71.1 46.2-53.6 30.8-147.6-5.3-147.6-5.3-26.3-11.9-57.6-10.7-83.5 5-39.9 24.2-93.1 62.5-143.5 117.5-56.8 61.9-98.5 132.6-124 209.9z"/><path class="f" d="m1674.5 1266.6c18.7-88.8 53.3-195.8 96.3-250.4 44-55.9 103.3-122.7 184.7-168.6q0-0.1 0-0.1c1.4-1 56.5-41.6-4.5-78.4-59.8-36-303.7 232.2-288.1 530.6 5.1-10.6 9.2-21.8 11.6-33.1z"/><path class="b" d="m1450.8 919.3c-7.7 12.1-17.2 23.8-28.4 34.8-42.3 41.8-108.8 72.7-194.4 71.9 0 0-35.9-34.3-53.3-77.8-12.1-30.3-20.9-74.8 0-107.8 13.4-21.3 30.8-31.4 48.3-36.7 29.8-9.1 60.3-4.4 73.6-17.7 13.1-13.1 31.8-24.4 52.4-30.9q5-1.6 10.2-2.8 2.1-0.5 4.3-0.9 0 0 0.1 0c31.6-6.2 65.4-0.1 88.9 28.1 5.4 6.5 10.4 14.4 14.6 23.9 15.1 33.9 8.6 76.8-16.3 115.9z"/><path class="g" d="m1201.9 835.5c0 0-28.2 22.1-19.6 46.7 8.7 24.5 31 13.2 38-3.8 7-17 0.2-51.2-18.4-42.9z"/><path class="h" d="m1452.5 779.5c5.4 6.5 10.4 14.4 14.6 23.9 15.1 33.9 35.7 123.6 10.9 162.7l-33.4 30.6c-42.4 41.7-131 30.1-216.6 29.3 0 0-35.9-34.3-53.3-77.8 0 0 105.9 41.8 205.6-45.6 45.2-39.7 64.6-85.3 72.2-123.1z"/><path class="b" d="m1291 734.8c-17.4-10.4-35.1 4.2-55.6 12.3-20.6 8-60.1 7.8-60.1 7.8 0 0 16.3-23.4 42.9-46.6 26.6-23.2 72.8 26.5 72.8 26.5z"/><path class="c" d="m1291 734.8c-16.4-13.5-46.8-21.2-61.6-15.1-14.8 6-54.1 35.2-54.1 35.2 0 0 16.3-23.4 42.9-46.6 26.6-23.2 72.8 26.5 72.8 26.5z"/><path class="h" d="m1296.6 786c13.1-13.1 31.8-24.4 52.4-30.9-34.9 13.1-54.2 57.4-67.4 52.2-14.2-5.5-57-3.7-58.6-3.6 29.8-9.1 60.3-4.4 73.6-17.7z"/><path class="h" d="m1363.5 751.4q-1.7 0.5-4.3 0.9 2.1-0.5 4.3-0.9z"/><path class="c" d="m1284 806.4c-11.2-24.7-5.1-55.4 1.9-76.7 5.6-17.1 16.4-40 21.7-50.9 1.1-2.4 4.4-2.1 5.2 0.3l2.2 6.5c2.1 6.4 1.3 13.5-2.2 19.3-10.8 17.9-32.5 59.7-22.7 94.1 1.1 3.9-4.1 11.9-6.1 7.4z"/><path class="i" d="m1514.4 917.9l-3.5-1.4c15.5-22.9 39.4-38.6 58.2-45.9 16.5-6.4 29.7-8.5 34.4-9.1 1.2-0.1 2.3 0.3 3 1.2l3 3.4c1.4 1.7 0.4 4.3-1.8 4.7-16.8 2.4-70 12.5-93.3 47.1z"/><path class="j" d="m1448.8 924.5c17.7-44.2 42.6-34.2 73.3-21.9 30.7 12.2 55.6 22.2 37.9 66.4-12.7 31.6-47.8 47.3-78.5 35-30.7-12.3-45.3-47.9-32.7-79.5z"/><path class="k" d="m1467.5 915.3c1.1-7.9 13.8-16.2 21.7-15.1 7.9 1.1 11.6 10 10.5 17.9-1.1 7.9-12 14.7-19.9 13.6-7.9-1.1-13.4-8.4-12.3-16.4z"/><path class="l" d="m1874.9 935.6l94.8 675.2c11.8 83.8-53.2 158.6-137.8 158.6h-142.8c-72.2 0-128.3-62.6-120.5-134.3l80.3-628.2z"/><path class="l" d="m1377.1 935.6c0 0 229.8 78.3 497.8 0l-79 835.9h-500.2z"/><path class="m" d="m1377.1 935.6l94.8 677c11.8 83.9-53.3 158.9-137.8 158.9h-142.9c-72.1 0-128.2-62.8-120.4-134.6l67.9-701.3c0 0 33.5 6.5 114.8 6.5 80.6 0 123.6-6.5 123.6-6.5z"/><path class="d" d="m1802.3 1010.9c0-9.9-8-17.8-17.8-17.8-9.9 0-17.8 7.9-17.8 17.8 0 6.5 3.5 12.3 8.8 15.4 7.6 59.9-4.3 108.8-34 138.8-27 27.3-68 37.4-118.5 29.2-44.4-7.1-73.6-56.2-90.3-96.2-12-28.7-19.4-57-23.2-73.8 3.8-3.3 6.1-8.1 6.1-13.4 0-9.9-7.9-17.8-17.8-17.8-9.8 0-17.7 7.9-17.7 17.8 0 6.6 3.6 12.4 9 15.4 9.5 43.9 45 174.3 130.7 188.1q18.7 3 35.9 3c41.1 0 75.3-12.8 100.2-38 34.1-34.4 48-89 39.9-154.8 3.9-3.3 6.5-8.2 6.5-13.7z"/><path class="d" d="m2104.7 1190.4c12.1 4 25.1 6.8 38.9 8.1 52.2 4.9 114.9-11 173-59.2 0 0 5.5-43.5-6.8-83h-0.1c-8.5-27.4-27.3-62.8-60-73.8-21.1-7-38.6-4.3-53.5 1.9-25.5 10.4-43.7 30.6-60.2 28.9-16.3-1.6-35.4 1.1-53.1 8.1q-4.3 1.7-8.5 3.7v0.1q-1.8 0.8-3.5 1.7c-25.1 13.5-44.9 36.4-45.2 68.8-0.1 7.5 0.9 15.7 3.3 24.6 8.6 31.5 36.9 57.3 75.7 70.1z"/><path class="n" d="m2228.3 994.4c0 0 31.7-0.6 39.5 21 7.7 21.6-13.9 26.3-28.1 18.6-14.3-7.8-28.7-34.9-11.4-39.6z"/><path class="o" d="m2025.7 1095.7c-0.1 7.5 0.9 15.7 3.3 24.6 8.6 31.5 44.5 104.5 83.3 117.3 0 0 77 35.4 121 18.9 49.1-18.3 79.4-57.2 83.3-117.2 0 0 5.5-43.5-6.8-83h-0.1c0 0-49 87.7-166 83.4-53.1-1.9-91.7-22.3-118-44z"/><path class="b" d="m2111.2 975.2c6.2-16.9 26.4-16.7 45-22.7 18.5-5.9 45.4-28.1 45.4-28.1 0 0-24.1-6.9-55.3-8-31.2-1-35.1 58.8-35.1 58.8z"/><path class="c" d="m2111.2 975.2c3.8-18.4 20.2-40.6 33.7-44.7 13.6-4.1 56.7-6.1 56.7-6.1 0 0-24.1-6.9-55.3-8-31.2-1-35.1 58.8-35.1 58.8z"/><path class="o" d="m2136 1013.3c-16.3-1.6-35.4 1.1-53.1 8.1 31.2-10.5 69 9 75.2-1.9 6.7-11.7 36.9-34.3 38.1-35.1-25.5 10.4-43.7 30.6-60.2 28.9z"/><path class="h" d="m2070.9 1026.9q1.4-0.6 3.5-1.7-1.8 0.8-3.5 1.7z"/><path class="c" d="m2156 1020.3c-6.2-23.2-27.4-40.8-44.2-51.5-13.3-8.5-33.4-18.2-43.1-22.8-2.1-0.9-4.2 1.1-3.4 3.2l2.1 5.6c2.1 5.6 6.6 10 12.3 12 17.3 6.3 55.5 22.7 68 51.7 1.4 3.3 9.4 5.9 8.3 1.8z"/><path class="p" d="m2023.4 1710.8c0 0-23.3 17.5-58.9 8.3 0 0-28.8-6.6-35.1 7.8 0 0 44.1 22.4 55.3 28.5 8.4 4.6 17.2 11.9 23.4 17.5 4.9 4.5 12.5 3.9 16.7-1.3 2-2.3 4.2-5.2 6.6-8.5 6.8-9.2 22.7-39 22.7-39z"/><path class="i" d="m2009.8 1702c0 0 14.1 32.7 46.9 26.7 0 0 66.8-55.2 112.6-112.5 14.8-18.6 27.5-37.4 35-54.7 30.3-70.3 112.3-175.2 164.5-228.4l-130.5-47.2c0 0-41.8 84.1-97.3 187.3-40.1 74.4-87.3 158.7-131.2 228.8z"/><path class="p" d="m2141 1473.2l28.3 143c14.8-18.6 27.5-37.4 35-54.7 30.3-70.3 112.3-175.2 164.5-228.4l-130.5-47.2c0 0-41.8 84.1-97.3 187.3z"/><path class="p" d="m2247.6 1729.8c0 0 1.4 26.1-30.2 29.6 0 0-18.1 0.1-18.1 16.7l91.9 0.3c0 0 2.6-6.7 3.3-21.1 0.5-11-10.7-39.8-10.7-39.8z"/><path class="i" d="m2281.1 1285.9c0 0-58.1 63.9-95 178.9-20 62.6 36.8 219.9 47.9 274.6 0 0 38.1 3.2 64.2-6.8 0 0 2-112.9-13.3-200-8.5-48.7 76.5-104.1 113.7-192.1 25.3-59.9-5.5-58.9-43.3-60.3z"/><path class="q" d="m2348.2 1001.1c32.3 18.3 98.5 1.4 98.5 1.4 0 0-26.9-30.7-14.7-80.2l-25.4 12.9-27.2 13.9c0 0-1.8 8.7-3 24.4-0.3 4-0.6 8.5-0.8 13.5-16.6 5-27.4 14.1-27.4 14.1z"/><path class="r" d="m2229.6 1282.6c0 5.7 6.6 8.5 8 8.7 13 2.4 49.4 16.6 82.2 19.8 27.6 2.9 53.3 0.2 81.4-5.5 3.8-0.7 12.5-3.1 13.1-6.7 0.8-3.9 108.7-219.9 24.8-312.7-1.9-2.1-18.5 1.8-33.6 5.4-14 3.3-26.8 1.4-38.3-3.1l-14.2 7.4c-17.4 9.7-50.4 44.2-54.3 71.3-1.9 13.8-9.8 24-12.1 36.1q-1.2 6.7-2.6 13.1-2.5 12.6-5.3 23.9c-4.9 20.5-10.1 38.2-15.2 53.4-5.5 16.2-10.8 29.6-15.6 40.9-6.1 14.6-11.4 25.5-14.6 33.8-2.3 5.9-3.7 10.5-3.7 14.2z"/><path class="s" d="m2233.3 1268.4c152.2-71.7 205-209.5 205-209.5 0 0-123.7 45.7-154.3 57.5q-2.5 12.6-5.3 23.9c-4.9 20.5-10.1 38.2-15.2 53.4-5.5 16.2-10.8 29.6-15.6 40.9-6.1 14.6-11.4 25.5-14.6 33.8z"/><path class="q" d="m2130 1230.5c0 0-21.2-8.7-26-8-4.9 0.7-18.4-2.7-17.6 1.8 0.5 3 17.9 6.2 17.9 6.2 0 0-19.4-4.4-17.9 0.2 1 3.1 5.2 15.5 11.6 19.6 7.7 4.8 21.6 2.5 37.8 0.1 29.9-4.3-5.8-19.9-5.8-19.9z"/><path class="r" d="m2133.3 1245.5c-4.8-12.7-7-18.5-7-18.5 0 0 99.4-81 109.5-88 6.9-4.7 75.6-56.1 109.2-96.1 16.6-19.9 42.8-29 68.1-23.7l20.9 4.4c25.2 5.3 33.4 37.2 13.8 54-55 47.2-147.9 101.9-165.2 113.3-43 28.3-138.1 67.9-138.1 67.9 0 0-7.3-3.4-11.2-13.3z"/><path class="t" d="m2376.4 973.5c31.8 1.8 52.4-24.5 52.4-24.5 0 0-14.3-7.9-22.2-13.8l-27.2 13.9c0 0-1.8 8.7-3 24.4z"/><path class="q" d="m2362.8 940.9c0 0 48.2 34.5 69.3 4.2 21-30.3 41.4-46.3 11.6-69.7-29.9-23.3-44-15.9-53.5-7.5-9.4 8.4-39.3 63.2-27.4 73z"/><path class="p" d="m2385.2 840.5c1.7-11.7 5.6-19.9 5.6-19.9 0 0 3 12.6 25.9 10.8 22.9-1.7 59.1 2.3 71.2 28.4q1.2 2.4 2.1 5.1c2.2-5.8 2.7-14.5 2.7-14.5 4.3 11.3 0 25.3 0 25.3q0.1 0.6 0.2 1.2c5 4.3 9.3 17.6 9.3 17.6-1.6-3.7-5.3-6.2-8.6-7.6 0.1 20.3-8.1 40.1-22.6 46-21.1 8.6-20.9 2-42.2 16.1 0 0-5.6-7-1.8-11.8 3.9-4.7 18.6-11.6 10.4-18.6-8.2-6.9-11.2 0.9-14.2-3.8-3.1-4.8 12-18.6-7.4-31.6-19.4-12.9-32.4-31-30.6-42.7z"/><path class="u" d="m964.3 270c-0.1-2.3-1.9-26.9-39.4-28.2 0 0 18.5 2.2 21.7 10.3 0 0-12.6-10-22.8-6.8-10.3 3.2-16.3 21.2-16.3 27.1-0.1 5.8 5.6 24.8 12.1 26.5 2.5 0.6 5.3 0.4 7.9 0-1.8 2.7-3.5 5.6-5.1 9-15 30.7 0.5 60.7 13.2 57.4 8.1-2.1 10.4 11.7 10.4 11.7l78.9-63.9c0 0-29-60-60.6-43.1z"/><path class="i" d="m991.8 1175.2l-16.8 6.3c0 0-72.8-101.1-81.8-190-1.6-15.8-1.1-31.2 2.4-45.4 0 0-0.7-4.1-2-11.3-0.5-3.3-1.3-7.4-2.1-12-2.3-13.6-5.6-32.1-9.3-53.3-8.6-48.6-19.7-110.8-28.3-156.5l4.5-1.5 48.9-15.7 10.1-32.1 36.4-9.6c0 0 8.1 15.9 15.4 91 1.4 9.9 2.6 20.8 3.5 32.6 2.8 35.9 3 80.6-3.5 131.6-1.6 13.1-3.7 26.6-6.4 40.4-1.9 10.2-2.2 24-1.4 39.9 3.7 72.7 30.4 185.6 30.4 185.6z"/><path class="p" d="m972.7 777.7l-79.1 157.1c-0.5-3.3-1.3-7.4-2.1-12-2.3-13.6-5.6-32.1-9.3-53.3-8.6-48.6-19.7-110.8-28.3-156.5l4.5-1.5 48.9-15.7 10.1-32.1 36.4-9.6c0 0 8.1 15.9 15.4 91 1.4 9.9 2.6 20.8 3.5 32.6z"/><path class="i" d="m937.9 674.2l-1.8-15.7c-30.7 8.2-112.6-22.7-112.6-22.7 0 0-29.7 26.1-25.8 88.7 1.9 30.5 5.4 160.4 9 198.8 1.3 13.9 2.5 23.8 2.9 27.8 0.2 1.2-0.2 2.3-0.8 3.4-5.4 9.1-9.8 18.5-13.5 28.2-35.6 95 5.5 212 5.5 212l10.7-4.3c0 0 23.4-130.2 42.4-187.7 3.3-9.8 6.4-17.5 9.2-22 8.3-13.4 15.9-35.2 22.9-61.1 13.2-49.1 23.8-112.9 30.8-162.1 1 0 21.1-83.3 21.1-83.3z"/><path class="v" d="m1179.5 654.2c-6.6 5.8-24.1-14.2-26.5-16.9-0.2-0.2-0.3-0.4-0.3-0.4l5.3-14.8c0 0 23-0.9 26.8 2.9 3.8 3.8 1.9 23-5.3 29.2z"/><path class="v" d="m1158 622.1l-2.2 15.3c0 0-1.1 0-2.8-0.1-5.6-0.4-19.2-1.1-34.6-2.8-23.1-2.3-50.5-6.3-61.4-13.1-16.6-10.1-43.9-41.2-61.7-72.3-0.5-0.8-0.9-1.5-1.2-2.3-9.3-16.5-15.8-32.9-16.3-45.9-0.4-8 0.5-14.9 2.2-20.8 2.1-7.9 5.7-14.1 9.4-18.8 0.5-0.8 1-1.5 1.7-2.2 6.1-7.2 12.1-10.3 12.1-10.3 3-1.2 6.3 0.3 9.8 4v0.1c2.8 2.9 5.8 7.4 8.7 12.9 0.1 0.2 0.3 0.3 0.3 0.4 0.6 1.2 1.2 2.4 2 3.8 0.3 0.3 0.4 0.7 0.5 0.9q2.1 4.4 4.2 9.2c15.6 34 32.2 85.5 46.1 100.9 5.9 6.6 33.2 19.5 54.9 29.2 15.6 6.8 28.3 11.9 28.3 11.9z"/><path class="v" d="m996.5 483.9c-9.6 4.4-21.3 7.5-35.3 8.2-52.7 2.9-64.7-43.3-66.9-73.9 7.6-2.8 14.3-2.5 18.1-2.3 3.7 0.2 7.6 0.6 10.9 1 6.4-3.4 18-19.8 24.7-47.2l2.3 1.1 38 17.9c0 0-4 12.4-7 24.2-2.3 9.3-4 18.2-2.6 20.7 3 1.3 4.8 2 4.8 2q0 0 0 0.1c0.4 0.9 8.6 22 13 48.2z"/><path class="w" d="m1009.7 518.5q-0.6 1.5-1.3 3.1c-13.4 28.8-38.1 147.9-38.1 147.9 3.5 21.4-160.9-4.2-161.4-23.7-5.8-20.7 20.6-53.9 35.4-70.6q2.8-3.1 5-6.7c3.7-5.9 6-12.7 6.8-19.7 2.9-27.6 1.8-53.5 2-69.3 2.9-2.1 5.7-4.1 8.3-6 4-2.9 7.6-5.6 10.2-8.4 2.8-3 4.6-6.1 4.8-9.6 0.2-2.6 0.1-5.3-0.2-8q-0.2-1.9-0.4-3.8c-2.1-13.4-7.7-25.5-7.7-25.5 14.2-5.7 39.3-2.3 39.3-2.3 0 0 0 1.4 0 3.6-0.1 9.2 0 32.8 2.9 37.3 3.7 5.6 71.1 29.9 74.6 22.4 3.5-7.5-6.1-42.2-6.4-43.5q0-0.1 0-0.1c22.5 8.9 30.6 16.3 30.6 16.3-13.6 8.8 6.1 38.7-4.4 66.6z"/><path class="x" d="m988.3 388.7c0 0-4 12.4-7 24.2-22.2-6.2-29-29.6-31-42.1z"/><path class="v" d="m993 401.8c0 0-53.2-12.3-45-45.3 8.1-33 6.8-56.9 41.1-50.4 34.3 6.5 37.8 20.7 37.7 32.4 0 11.7-19.8 65.6-33.8 63.3z"/><path class="u" d="m1029.8 319.7c-5.7-11.9-12.4-11.3-16.7-9.2-25-23.1-49.5-4.2-49.5-4.2-9.4 22.8-29.9 32.1-29.9 32.1 0 0 8.2 8.4 31.9 8.2 7.2-0.1 14.5-3.4 21.1-8-12.7 12.9-27.7 20.7-27.7 20.7 29.6-5.7 49.5-40 51.6-43.6 2.5 3.7 7.3 11.6 7.7 18.2 0.5 9.1-2.6 26.7 2.6 27.4 0 0 17.5-23.6 8.9-41.6z"/><path class="w" d="m1014.1 451.9c0 0 12.8 22.4 14.7 28.1 0 0-16.6-0.6-23.3 12.1 0 0-1.6-37.2 8.6-40.2z"/><path class="p" d="m926 629.4c-32.4-0.3-59.9-34-76.7-60.9 3.7-5.9 6-12.7 6.8-19.7 2.9-27.6 1.8-53.5 2-69.3 2.9-2.1 5.7-4.1 8.3-6 4-2.9 7.6-5.6 10.2-8.4 26.5 44.9 93.4 164.8 49.4 164.3z"/><path class="p" d="m862.9 1203.4h-84.5c0 0-2-12.9 2.4-22.7 4.2-9.3 10.9-13.6 9.3-24.9 5.3 5.5 14.1 11.7 26.3 10 1.5 2.5 9.7 15.4 14.7 19 5.5 4 30.1 2.6 31.8 18.6z"/><path class="p" d="m1044.3 1203.4h-84.5c0 0-3.2-13.5 2.4-22.7 4.9-8.1 3-12.7-0.6-19.4 3.8 1.6 8.8 3 14.2 2.7 4.2-0.3 8.7-2.2 12.6-4.4 3.6 4.1 19.2 21.7 24 25.2 5.6 4 30.2 2.6 31.9 18.6z"/><path class="i" d="m1128.7 600.2l-4.1-1.1c13.7-28.2 38.1-49.6 58.2-60.8 17.5-9.7 32-14.2 37.2-15.6 1.3-0.3 2.6 0 3.6 0.9l3.8 3.3c1.9 1.7 1.2 4.9-1.2 5.6-18.6 5.3-76.8 25.1-97.5 67.7z"/><path class="y" d="m1056 617.9c12.9-52.5 42.5-45.2 78.9-36.2 36.5 9 66 16.3 53.1 68.7-9.3 37.6-46.4 60.8-82.8 51.8-36.4-9-58.5-46.8-49.2-84.3z"/><path class="z" d="m1075.5 604.7c0-9.1 13-20.5 22.1-20.5 9.1 0 14.6 9.4 14.6 18.5 0 9-11.2 18.4-20.3 18.4-9 0-16.4-7.4-16.4-16.4z"/><path class="v" d="m1048.6 647.1l-4.4 16.2c0 0-5.6-1-14.5-2.6-2.6-0.5-4.2-0.9-4.2-0.9-7.1-1.4-15.6-3.3-24.8-5.4h-0.2c-15.8-3.8-33.6-8.3-48.6-13.4-10.5-3.7-19.7-7.6-25.9-11.6-0.6-0.3-1.1-0.7-1.8-1.2-14.8-10.8-32.4-42.5-46.2-76.6-1.9-4.7-3.6-9.4-5.4-13.9-6.4-17-11.4-33.8-14.5-48.2-1.9-8.7-3.2-16.6-3.4-23-0.1-2.3-0.3-4.5-0.1-6.5 0.2-36.8 18.5-41.9 18.5-41.9 0.4-0.1 0.8-0.2 1.3-0.4 3.1-0.5 6.4 1.7 9.9 5.9 4.3 5.2 8.9 13.7 13.5 24 7.3 16.3 14.9 37.5 22 58.6 3.9 11.6 7.7 23.1 11.6 33.8 2.1 6.4 4.3 12.5 6.3 18.1 3.9 10.7 7.5 19.3 10.7 24.8 2 3.5 7.8 8.5 15.6 14.1 13.4 9.7 33.1 21.5 50.2 31.2 7.1 4 13.9 7.7 19.5 10.8 9 4.9 14.9 8.1 14.9 8.1z"/><path class="w" d="m897.8 447.6c-24.4-6.7-43.3 12.4-43.3 12.4 0.3-36.8 18.6-41.8 18.6-41.8 7.4-3.1 15.9 9.7 24.7 29.4z"/><path class="v" d="m1048.6 647.1c0 0 8 0.2 12.5-2.6 4.5-2.7 17.3-6.5 23-5.9 0 0 2.2 0.9 1.4 2.9-0.7 2-10.1 3.6-10.1 7.4 0 0 11.8-0.4 15.3-1.9 3.5-1.5 17 2 19.6 3.5 2.6 1.6-17.1 13.5-25.9 18.3-8.8 4.8-40.2-5.5-40.2-5.5z"/><path class="l" d="m1042.7 1772.4c-2.9 0-5.4-2.3-5.9-5.5l-28.5-188-41.2-270.3-11.5-75.5 29.3-1 5.1 43.9 35.7 308.3 21.1 182.7c0.4 2.9-1.6 5.4-4.1 5.4z"/><path class="l" d="m743 1233.1l-13 85.6-36 236.6-32.2 211.6c-0.5 3.2-2.9 5.5-5.8 5.5-2.5 0-4.5-2.5-4.2-5.4l27.8-239.7 29.7-256.5 4.4-38.7z"/><path class="m" d="m730 1318.7c1.7-36.8-20.7-47.9-20.7-47.9l4.4-38.7 29.3 1z"/><path class="m" d="m990 1276c-19 9.7-22.9 32.6-22.9 32.6l-11.5-75.5 29.3-1z"/><path class="l" d="m1072.3 1233.1h-445.9c-6.8 0-12.4-5.6-12.4-12.4v-4.9c0-6.9 5.6-12.4 12.4-12.4h445.9c6.8 0 12.4 5.5 12.4 12.4v4.9c0 6.8-5.6 12.4-12.4 12.4z"/><path class="A" d="m2523.3 1771.8h-108.2c-5.8-4.9 4-16.1 14.3-16.8 4.4-0.4 10.1 0.6 16.5 1.9 1.5-19.8 10-108.7 42-105.1 36.1 4 0 39.2-10.2 60-7.5 15.4-15.5 37.5-19.1 47.9q4.4 1 9 1.9c4.8-14.7 22.6-64 45.2-61.2 26.5 3.4 15.9 23.2-2.9 34.9-13.8 8.7-30.8 20.9-38.8 26.9 6.8 1.1 13.9 1.8 21.1 1.7 18.6-0.5 27.6 5 31.1 7.9z"/><path class="A" d="m438.8 1771.8h108.2c5.8-4.9-4-16.1-14.2-16.8-4.5-0.4-10.1 0.6-16.6 1.9-1.4-19.8-10-108.7-42-105.1-36 4 0 39.2 10.2 60 7.5 15.4 15.5 37.5 19.1 47.9q-4.4 1-9 1.9c-4.8-14.7-22.6-64-45.2-61.2-26.5 3.4-15.8 23.2 3 34.9 13.8 8.7 30.7 20.9 38.8 26.9-6.9 1.1-14 1.8-21.2 1.7-18.5-0.5-27.6 5-31.1 7.9z"/><path class="e" d="m1437.1 1607.2c4.6 23.3 10.3 43.4 16.9 60.8 51.3 135.1 158.1 105.9 262.4 105.9 117.7 0 117.4-78.8 117.4-185.4 0-106.6-65.2-191.3-182.9-191.3-117.7 0-234.6 105.5-213.8 210z"/><path class="f" d="m1905.5 1623.2c0.7-108-77.8-194.8-182.6-223.6-107-29.4-195.9 42.5-195.7 147.2 0.2 105.3 90.9 209.5 199.4 223.5 104.9 13.5 178.2-42.1 178.9-147.1z"/><path class="B" d="m1896.1 1620.6c0.7-102.6-73.9-185.1-173.6-212.4-101.6-28-186 40.3-185.9 139.8 0.2 100 86.4 199 189.5 212.3 99.7 12.9 169.3-40 170-139.7z"/><path class="e" d="m1714.6 1560.5l29.2-109.8c2.2-8.1-4.2-17.7-13-19.7-10.8-2.3-25.7-4.8-41.5-5.4-18.3-0.6-33.6 0.9-44.2 2.6-8.3 1.3-11.6 10.5-6.7 18.7l67.3 113.4c2.4 4 7.9 4.1 8.9 0.2z"/><path class="e" d="m1739.9 1594.1l109.3 68.4c8.1 5 17.4 1.9 19-6.5 2-10.2 4-24.6 4-40.6 0-18.5-2.1-34.8-4-46.2-1.6-8.9-10.8-15.5-18.7-13.4l-109.7 29.2c-3.9 1-3.9 6.7 0.1 9.1z"/><path class="e" d="m1733.2 1573.8l108.1-28.7c8-2.2 10.5-11.9 5.1-20-6.6-9.8-16.2-23-28.1-36-13.7-15.1-26.9-26.7-36.4-34.5-7.4-6.1-17.2-4.3-19.8 3.5l-35.8 108.4c-1.3 3.9 2.9 8.4 6.9 7.3z"/><path class="e" d="m1722.8 1604.3l33.4 120.7c2.5 9 12.2 14.9 19.9 12.1 9.5-3.5 22.1-8.9 34.4-16.7 14.3-9 25.2-18.6 32.5-25.7 5.6-5.6 3.4-16.2-4.4-21.5l-108.9-73.5c-3.9-2.6-8.2 0.2-6.9 4.6z"/><path class="e" d="m1696.2 1563.8l-73-108.2c-5.5-8.1-16-10.2-21.6-4.5-6.8 7.1-15.7 17.3-23.4 29.8-8.9 14.5-14.8 28.2-18.4 38.2-2.8 7.7 2.9 17.5 11.6 19.8l120.5 32.1c4.3 1.1 7-3.3 4.3-7.2z"/><path class="e" d="m1691.9 1580.9l-119-20.7c-8.9-1.6-15.3 5.5-13.1 14.5 2.6 11 6.9 26.1 13.5 41.9 7.7 18.4 16.1 33.6 22.5 44.1 4.9 8.2 15.3 10.7 21 5.3l79-76.1c2.8-2.7 0.4-8.3-3.9-9z"/><path class="e" d="m1702.6 1599.3l-64.2 87.8c-4.8 6.5-1.4 17.1 6.9 21.7 10.2 5.7 24.4 12.8 40.2 18.4 18.3 6.6 34.3 10.3 45.5 12.3 8.7 1.6 15-5.5 12.7-14.4l-32.1-122.7c-1.2-4.4-6.7-6.3-9-3.1z"/><path class="u" d="m1440.4 1049.9c0.5-1.9-42.6 19.5-44.7 21.9-20.2 22.4-14.5 51.6-2.9 51.9 7.4 0.2 5.9 12.5 5.9 12.5l82.6-34.9c0 0-10-57.9-40.9-51.4z"/><path class="u" d="m1450.5 1054.5c0 0 3-32.2-32.9-32.2 0 0 10.9 3 16.5 8.9 0 0-22.9-13.5-47.8 7.2-25 20.7-9.5 72.5-17.1 82.3-7.5 9.9-37.1 11.8-33.5 43.7 3.6 31.8 93.7 71.6 87.9 98 0 0 35.4-51.9 10.1-75.6 0 0 12.3 11.6 13.6 25.3 0 0 3.3-26.9-13.8-35.5-15.2-7.6-27.6-35.4-26.3-40.4 1.4-5 43.3-81.7 43.3-81.7z"/><path class="x" d="m1417.9 1205.7c-5.5-26.7-40.1-34.9-56.4-13.2-3 4-5.1 8.6-5.7 14.1-3.8 30.2 44.6 153.5 51.6 164.7 12.6 20.3 86.9 90 86.9 90l13.7-8.3c0 0-52.7-89.2-60.9-97.6-9.4-9.6-18.7-99.1-29.2-149.7z"/><path class="x" d="m1489.1 1453c0 0 20-13.1 27.5-12.2 7.6 0.8 29.5 7.1 29.8 10.3 0.2 3.3-24.4 5.3-26.1 7-1.6 1.8-18.4 13-24.5 9.5-6-3.6-6.7-14.6-6.7-14.6z"/><path class="w" d="m1349.7 1749.6l-17.9-2.7c0 0-60-47.7-69-136.7-0.9-9.1-1.1-18.3-0.4-27.5 0.1-1.1 0-2.2-0.6-3.1q0 0-0.1 0c-1.9-3-6.7-10.3-13.1-20.8-6.4-10.4-17.3-29.9-29.4-51.9-21.6-39.5-46.8-86.7-55.5-101.8-27.5-47.9-14.2-80.2-14.2-80.2 0 0 76.8-7.6 97.9-26l7.6 11.7c0 0 16.6 73.7 15.8 74q1.3 3.8 2.5 7.7c13.2 40.6 28.3 91.3 36.5 132.5 4.7 23.3 7.1 43.5 5.8 57.3-0.5 4.7 0.1 12 1.3 21 7.5 52.9 32.8 146.5 32.8 146.5z"/><path class="p" d="m1387.1 1772.1h-74.5c0 0-1.8-11.3 2.1-19.9 3.8-8.3 9.1-8.5 0.7-21.5 4.7 4.9 20 6.9 30.7 5.4 1.3 2.2 8.5 16.5 12.9 19.7 4.9 3.5 26.6 2.2 28.1 16.3z"/><path class="p" d="m1273.3 1392.3c-6.5 35.9-21.9 95.6-54.1 114.6-21.6-39.5-46.8-86.7-55.5-101.8-27.5-47.9-14.2-80.2-14.2-80.2 0 0 76.8-7.6 97.9-26l7.6 11.7c0 0 16.6 73.7 15.8 74q1.3 3.8 2.5 7.7z"/><path class="C" d="m1410 1189.2c0 0 10.5 10.9 15.3 24 0 0-16.8 48.3-56.1 54.3 0 0 31.1-78.4 40.8-78.3z"/><path class="w" d="m1221.1 1330.5l0.2-14c-27.7 3.5-95.7-33.2-95.7-33.2 0 0-29 19.4-33 74.5-2 27-14.2 140.8-15.6 174.8-0.5 12.4-0.7 21.2-0.7 24.7 0 1.1-0.5 2-1.2 2.9-5.7 7.3-10.7 15-15 23-42.4 78.9-20.2 186-20.2 186l9.8-2.5c0 0 35.8-111.1 59.2-159.1 4-8.1 7.6-14.5 10.6-18.1 8.8-10.7 18.1-28.9 27.3-50.7 17.3-41.4 34.1-95.9 46-138.1 0.9 0.2 28.3-70.2 28.3-70.2z"/><path class="v" d="m1383.5 1237.5c-45.3-10.5-16.4-74.2-13.7-73.1 6.3-1.3 20.1-12.3 32.4-33.9l1.7 1.5 27.9 24.4c0 0-6.5 9.5-11.9 18.8-4.2 7.3-7.8 14.5-7.3 16.9 2.3 1.8-17 48.1-29.1 45.4z"/><path class="x" d="m1431.8 1156.4c0 0-6.5 9.5-11.9 18.8-17.3-10.7-17.3-32.1-16-43.2z"/><path class="v" d="m1432.5 1168.6c0 0-42-23.4-27-49.4 14.9-25.9 19.6-46.5 47.1-32.6 27.5 13.8 27 26.7 24.1 36.6-2.9 9.9-32.8 50.9-44.2 45.4z"/><path class="D" d="m1483.8 1108.1c-2-11.6-7.8-12.7-11.9-11.9-15.5-25.7-40.9-15.7-40.9-15.7-13.6 17.1-33.2 20-33.2 20 0 0 4.9 9.1 25 14.7 6.2 1.7 13.1 0.7 19.9-1.6-14 7.8-28.6 10.8-28.6 10.8 26.5 2.4 51.7-21.9 54.4-24.5 1.2 3.8 3.3 11.7 2 17.4-1.7 7.8-8.6 22-4.4 23.8 0 0 20.6-15.7 17.7-33z"/><path class="p" d="m1099.1 1772.1h-74.5c0 0-1.8-11.3 2.1-19.9 3.7-8.3 9.6-12 8.2-22 4.7 4.8 12.4 10.3 23.2 8.8 1.3 2.2 8.5 13.6 12.9 16.8 4.9 3.5 26.6 2.2 28.1 16.3z"/><path class="r" d="m1388.9 1288c-9.6 3.4-23.1 5.2-36.8 6.7-19.6 2.1-39.8 3.6-50.4 7.8-3.9 1.6-6.5 3.5-7.3 5.9-4.6 13.8-24.8 35.1-24.8 35.1-129.8-5.9-144-60.2-144-60.2 87.3-101.4 235.1-130.8 235.1-130.8 0 0 10.5-4.5 37.1 16.6 17.7 14.1 15.4 19.5 15.4 19.5 0 0 3.9 89.6-24.3 99.4z"/><path class="s" d="m1352.1 1294.7c-19.6 2.1-39.8 3.6-50.4 7.8-4.4-64.7 26.2-113.3 26.2-113.3 0 0 19.9 81 24.2 105.5z"/><path class="v" d="m1372.2 1176.6c0 0-49.1 4.9-53 36.8-3.9 31.9 47.1 161.8 54.4 173.6 13.3 21.4 91.6 94.8 91.6 94.8l14.4-8.7c0 0-55.5-94-64.1-102.8-13.5-13.9-26.6-182.6-43.3-193.7z"/><path class="r" d="m1320.6 1232.6c0.1 0.7 45.3 14.7 74.4 0 0 0 6.2-67.1-28.5-63.5-34.7 3.7-55.3 14.6-56.1 31.2-0.9 16.6 10.2 32.3 10.2 32.3z"/><path class="v" d="m1460.7 1472.5c0 0 17.6-16.2 25.2-16.5 7.6-0.4 30.3 2.3 31.1 5.4 0.7 3.1-23.3 9.1-24.6 11.1-1.4 2-16.1 15.7-22.7 13.3-6.5-2.5-9-13.3-9-13.3z"/><path class="E" d="m2849.9 1778.2h-2704.4c-1.7 0-3.1-1.4-3.1-3v-1.1c0-1.7 1.4-3.1 3.1-3.1h2704.4c1.7 0 3.1 1.4 3.1 3.1v1.1c0 1.6-1.4 3-3.1 3z"/></svg>