<svg version="1.2" xmlns="http://www.w3.org/2000/svg" viewBox="0 0 2279 1975" width="2279" height="1975">
	<title>60356</title>
	<style>
		.s0 { fill: #fefefe } 
		.s1 { fill: #074530 } 
		.s2 { fill: #188a63 } 
		.s3 { fill: #8cdec1 } 
		.s4 { fill: none;stroke: #15113e;stroke-linecap: round;stroke-linejoin: round;stroke-width: 7.7 } 
		.s5 { fill: none;stroke: #15113e;stroke-linecap: round;stroke-linejoin: round;stroke-width: 5.8 } 
		.s6 { fill: #425c88 } 
		.s7 { fill: #f6f2e1 } 
		.s8 { fill: #15113e } 
		.s9 { fill: #f8ae8a } 
		.s10 { fill: #233862 } 
		.s11 { fill: #84b3e0 } 
		.s12 { fill: #18294c } 
		.s13 { fill: #f1f2f1 } 
		.s14 { fill: #93d9f7 } 
		.s15 { fill: #fdbd0f } 
		.s16 { fill: #e4957c } 
	</style>
	<g id="_Artboards_">
	</g>
	<g id="Capa 1">
		<g id="&lt;Group&gt;">
			<path id="&lt;Path&gt;" class="s0" d="m2278.7 1974.8h-2278.7v-1974.8h2278.7z"/>
			<g id="&lt;Group&gt;">
				<path id="&lt;Path&gt;" class="s1" d="m585.3 1511.5c-49.7-15.6-72.1-137.2-110.3-176.7-15.1-15.7-68.3-43-54.6-66.8 18.8-32.8 102.7-28.8 134.2-40.3 92.8-33.7-59.3-75.8-94.1-83-35.3-7.4-141.7-50-113.9-107.5 14.7-30.4 99.2-43.8 126.4-53.8 45.7-16.8 92.1-30.2 134.8-54.2 28.9-16.3 69.2-40 73.5-77.4 4.4-38.8-31.7-50-59.8-70.5-42.4-31-111.1-79.3-63.1-133.6 45.4-51.5 116.8-74.6 179.2-97.7 67.4-24.8 148.7-39.9 197.6-97.3 18.6-21.7 29.7-49.4 50.5-69.2 45.1-42.7 120.2-53 179.6-52.3 34.8 0.4 165.9 8.9 131.5 74.9-17.4 33.4-87 68.7-41.9 98.2 27.1 17.8 75.2 13.1 105.8 15.9 73.3 6.9 146.6 8.3 220.1 12.7 62.2 3.8 173.2-6.1 131.8 84.7-24.5 53.8-101.2 67.8-117.1 120.9-24.1 81 63.5 95.1 117.8 114.8 39.9 14.5 99.4 39.5 83.4 94-14.4 48.5-83.6 80.6-103.8 131-21.4 53.3 5.5 85.2 48.8 113.4 26.6 17.4 82.5 31.5 84.8 70.3 2.3 38.6-45.5 53.4-63.1 80.3-21.9 33.7 27.4 23.2 28.9 54 11.8 255.1-988.1 184-1207 115.2z"/>
				<path id="&lt;Path&gt;" class="s2" d="m216.9 1468.9c-61 121.8 372.2 31.7 201.8 144.1-36.4 24-131 42.5-89.1 96.6 48.8 63 1338.5 85.8 1626-84.5 38.4-22.7 115.2-90.4 76-141.6-33.8-44.1-124.4-9.6-162.6-39.9 41.9-42.4 175.6-12.7 175.6-59 0-149.7-1781.6-7.5-1827.7 84.3z"/>
				<g id="&lt;Group&gt;">
					<g id="&lt;Group&gt;">
						<path id="&lt;Path&gt;" class="s3" d="m310 716.7c4.3-44.7 39-89.8 83.5-98.6 89.7-17.6 104.8 91.7 96.7 153.5-5.3 40.6-7.9 81.7 20.9 114.7 29.8 34.1 83.7 67.5 56.7 119-13.2 25.2-37.5 43.9-47.6 70.8-12.9 34.6 7 62.7 22 92.9 43.6 87.6-49.5 117.9-109.7 144.6-35.4 15.7-73.4-7.2-77.5-45.9-2.5-23.9 2.2-47.7-15.7-66.6-14.5-15.4-36.7-20.4-51.1-36.3-55.5-61.7 45.7-121 45.5-181.5-0.2-42.3-50.6-66.1-43.4-110.4 4.6-28.3 17.1-55.1 19.3-83.8 1.6-21.5-1.1-43.4-0.1-64.9q0.1-3.8 0.5-7.5z"/>
						<path id="&lt;Path&gt;" class="s4" d="m404.8 664.3c0 0 32.5 660.1 8.8 807.9"/>
						<path id="&lt;Path&gt;" class="s5" d="m413 905.5l-53.3-87.9"/>
						<path id="&lt;Path&gt;" class="s5" d="m418.3 1020.7l71-85.6"/>
						<path id="&lt;Path&gt;" class="s5" d="m408.7 782.6l43.5-52.5"/>
						<path id="&lt;Path&gt;" class="s5" d="m420.9 1133.8l-61.2-67.2"/>
						<path id="&lt;Path&gt;" class="s5" d="m423.4 1234.9l57.6-94.8"/>
					</g>
					<g id="&lt;Group&gt;">
						<path id="&lt;Path&gt;" class="s6" d="m497 1467.7c-26.4 32-123 32-149.5 0-14.5-17.6 0-99.7 0-99.7h149.5c0 0 14.5 82.1 0 99.7z"/>
						<path id="&lt;Path&gt;" class="s7" d="m342.4 1407.5c-0.7 7.3-1.1 15-1.3 22.3 42.4 16.2 119.2 16.4 162.3 0.6-0.1-7.4-0.6-15-1.2-22.4-42.9 15.3-117.6 15.1-159.8-0.5z"/>
						<path id="&lt;Path&gt;" class="s8" d="m503.4 1367.8c-28.7 24.4-133.5 24.4-162.2 0-4.3-3.6 0-20.6 0-20.6h162.2c0 0 4.2 17 0 20.6z"/>
					</g>
				</g>
				<g id="&lt;Group&gt;">
					<g id="&lt;Group&gt;">
						<path id="&lt;Path&gt;" class="s3" d="m1802.5 802.8c4.3-44.6 38.9-89.8 83.5-98.5 89.7-17.6 104.8 91.7 96.7 153.4-5.4 40.6-7.9 81.7 20.9 114.7 29.8 34.1 83.7 67.5 56.7 119.1-13.2 25.2-37.5 43.8-47.6 70.8-12.9 34.5 7 62.6 22 92.9 43.6 87.5-49.5 117.9-109.8 144.6-35.3 15.7-73.4-7.3-77.4-45.9-2.5-24 2.2-47.7-15.7-66.7-14.5-15.3-36.7-20.4-51.1-36.3-55.5-61.7 45.7-121 45.5-181.4-0.2-42.3-50.6-66.1-43.4-110.5 4.6-28.3 17.1-55 19.3-83.8 1.6-21.5-1.1-43.3-0.2-64.9q0.2-3.8 0.6-7.5z"/>
						<path id="&lt;Path&gt;" class="s4" d="m1897.3 750.4c0 0 32.5 660.1 8.8 807.9"/>
						<path id="&lt;Path&gt;" class="s5" d="m1905.5 991.7l-53.3-88"/>
						<path id="&lt;Path&gt;" class="s5" d="m1910.8 1106.8l71-85.6"/>
						<path id="&lt;Path&gt;" class="s5" d="m1901.2 868.7l43.5-52.4"/>
						<path id="&lt;Path&gt;" class="s5" d="m1913.4 1219.9l-61.2-67.2"/>
						<path id="&lt;Path&gt;" class="s5" d="m1915.9 1321l57.6-94.8"/>
					</g>
					<g id="&lt;Group&gt;">
						<path id="&lt;Path&gt;" class="s6" d="m1989.5 1553.8c-26.4 32.1-123.1 32.1-149.5 0-14.5-17.6 0-99.7 0-99.7h149.5c0 0 14.5 82.1 0 99.7z"/>
						<path id="&lt;Path&gt;" class="s7" d="m1834.9 1493.6c-0.7 7.4-1.2 15-1.3 22.4 42.3 16.2 119.2 16.4 162.3 0.5-0.1-7.3-0.6-15-1.2-22.3-42.9 15.2-117.6 15-159.8-0.6z"/>
						<path id="&lt;Path&gt;" class="s8" d="m1995.8 1453.9c-28.6 24.4-133.5 24.4-162.1 0-4.3-3.6 0-20.5 0-20.5h162.1c0 0 4.3 16.9 0 20.5z"/>
					</g>
				</g>
			</g>
		</g>
		<g id="&lt;Group&gt;">
			<path id="&lt;Path&gt;" class="s8" d="m1184.9 488.6c2.5 16 8.8 30.7 16.4 44.8 5 9.4 12.6 16.5 18.6 25 3 4.2 5.6 7.8 2.7 12.1-6.3 9.1-22.8 10.5-32.9 10.7-6.6 0.1-12.5-0.4-18.6-3.3-9.1-4.3-10.5-10.9-13.3-19.9-4.8-15.5-6-32.1-6.3-48.3-0.2-8.7-0.8-18.1-0.3-26.7 0.3-5.1 1.5-10.5 4.5-14.5 4.4-5.7 16.7-13.4 24.2-8.9 6.6 3.9 3.9 22.3 5 29z"/>
			<g id="&lt;Group&gt;">
				<g id="&lt;Group&gt;">
					<g id="&lt;Group&gt;">
						<path id="&lt;Path&gt;" class="s9" d="m1480.4 648.4c2.2 11 15.7 17.3 30.1 13.9q0.9-0.2 1.6-0.4c0 0 0.3-0.1 0.9-0.2q0-0.1 0.1-0.1c0.8-0.2 2.3-0.7 4.1-1.3 7.4-2.4 9.9-44.4 2-41.8-3.5 1.1-6.6 2.3-9.3 3.3 2.5-3.3 4.9-6.8 5.4-8.6 0.4-1.5-1.8-6.8-3.9-6.8-7.1-0.1-27.5 27.7-27.5 27.7-3.1 4.3-4.5 9.4-3.5 14.3z"/>
						<path id="&lt;Path&gt;" class="s10" d="m1341.8 687c8.7 10.6 16.6 18.5 2.6 30.1-14.1 11.5-32.5 12.3-41.3 1.7 0 0-145.9-126.1-156-146.8-10-20.7-2.1-27.2 16.8-42.7 10.4-6.3 54.8 7.3 65.5 20.3z"/>
						<path id="&lt;Path&gt;" class="s10" d="m1486.6 631.6l-174.9 48.7c-12.5 5.5-25.4 7.4-18.1 24.1 7.3 16.7 23.3 25.8 35.9 20.3l171.2-60.8z"/>
					</g>
					<path id="&lt;Path&gt;" class="s11" d="m1157.7 883.5h-35.5l-80.3 3.7c-5.1 25.4-14.3 53-7.2 73 9.6 27 28.3 40.6 50.3 40.6h37.2 35.5 37.1c22.3 0 41.1-17.6 50.6-45.1 6.9-19.9-2.9-42.6-10.8-72.2z"/>
					<g id="&lt;Group&gt;">
						<path id="&lt;Path&gt;" class="s12" d="m1273.2 1565.6c-12.7 14.5-6.8 37.4 10.9 37.6 17.7 0.3 99.4 6.8 97.5-9.4-0.4-3.7-39.5-20.5-66.5-29.5-22.5-7.6-32.8-9.1-41.9 1.3z"/>
					</g>
					<g id="&lt;Group&gt;">
						<g id="&lt;Group&gt;">
							<path id="&lt;Path&gt;" class="s9" d="m1315.5 1564.6c0 0-5.5-18.2-3.4-46.8l-33.9 0.8c0.8 29.2-1.3 44.1-1.3 44.1 0 0 11.5 15.3 36.7 12.9 25.3-2.4 1.9-11 1.9-11z"/>
						</g>
					</g>
					<g id="&lt;Group&gt;">
						<path id="&lt;Path&gt;" class="s10" d="m1244.9 920.4l85.5 307.6c6.5 19.8-1.4 47.2-20.2 53.4-18.9 6.3-41.5-11-50.6-38.5l-116.8-280z"/>
						<path id="&lt;Path&gt;" class="s10" d="m1276.8 1557.4l-18.1-321.9c0.2-29 16.5-52.4 36.3-52.2 19.8 0.1 35.8 23.8 35.5 52.8l-13.7 321.6z"/>
					</g>
					<g id="&lt;Group&gt;">
						<path id="&lt;Path&gt;" class="s12" d="m840.6 1520.6c-18.3 6.1-24.8 28.8-9.6 38 15.1 9.2 82.3 56.2 88.9 41.2 1.5-3.4-23.7-37.7-42.4-59.1-15.7-17.9-23.8-24.4-36.9-20.1z"/>
					</g>
					<g id="&lt;Group&gt;">
						<g id="&lt;Group&gt;">
							<path id="&lt;Path&gt;" class="s9" d="m877.6 1541.2c0 0 4.5-18.6 20.8-42.1l-29.7-16.5c-14.1 25.6-23.4 37.4-23.4 37.4 0 0 2.1 19 25.2 29.7 23 10.7 7.1-8.5 7.1-8.5z"/>
						</g>
					</g>
					<g id="&lt;Group&gt;">
						<path id="&lt;Path&gt;" class="s10" d="m1157.7 968.8l-96.8 289.6c-4.5 20.4-25.2 40-44.6 35.9-19.4-4.2-30.2-30.6-24.1-58.9l41-300.6z"/>
						<path id="&lt;Path&gt;" class="s10" d="m847.9 1515.4l147.3-286.8c14.9-24.9 40.7-36.8 57.7-26.7 17.1 10.2 18.8 38.6 4 63.5l-174.7 270.5z"/>
					</g>
					<path id="&lt;Path&gt;" class="s10" d="m1208.8 693.6c29-89.8 1.6-152.5 1.6-152.5l-49.3-24.6h-43l-49.3 24.6c0 0-44.5 64.8-15.5 154.6 24.1 74.7-24 202.6-24 202.6 0 0 49.7 19.8 110.3 22.1 60.6-2.3 116.6-22.1 116.6-22.1 0 0-71.5-130-47.4-204.7z"/>
					<path id="&lt;Path&gt;" class="s0" d="m1182.1 693.6c13.7-89.8-2.3-167.7-2.3-167.7l-21.3-10.9-40.4 1.5-8.9 4.5c0 0-1.3 82.8 12.4 172.6 11.5 74.7-22.9 223.2-22.9 223.2 0 0 20.8 6.6 50.6 3.6 28.7-2.3 70.7-11.7 70.7-11.7 0 0-49.3-140.4-37.9-215.1z"/>
					<g id="&lt;Group&gt;">
						<g id="&lt;Group&gt;">
							<g id="&lt;Group&gt;">
								<path id="&lt;Path&gt;" class="s6" d="m1080.1 1120.8l-227.3-245 299.5-277.9 227.3 244.9z"/>
							</g>
						</g>
						<g id="&lt;Group&gt;">
							<g id="&lt;Group&gt;">
								<g id="&lt;Group&gt;">
									<path id="&lt;Path&gt;" class="s13" d="m1282.4 886.4l-180.9-194.8 46.6-43.2 180.8 194.9z"/>
								</g>
							</g>
							<g id="&lt;Group&gt;">
								<g id="&lt;Group&gt;">
									<g id="&lt;Group&gt;">
										<path id="&lt;Path&gt;" class="s14" d="m1061.8 794.8l-29.6-31.9 36.4-33.8 29.6 31.9z"/>
									</g>
								</g>
								<g id="&lt;Group&gt;">
									<g id="&lt;Group&gt;">
										<path id="&lt;Path&gt;" class="s14" d="m1109.9 846.7l-29.6-31.9 36.4-33.8 29.6 31.9z"/>
									</g>
								</g>
								<g id="&lt;Group&gt;">
									<g id="&lt;Group&gt;">
										<path id="&lt;Path&gt;" class="s14" d="m1158 898.5l-29.6-31.9 36.4-33.8 29.6 31.9z"/>
									</g>
								</g>
							</g>
							<g id="&lt;Group&gt;">
								<g id="&lt;Group&gt;">
									<g id="&lt;Group&gt;">
										<path id="&lt;Path&gt;" class="s14" d="m999.2 852.9l-29.6-31.9 36.4-33.8 29.6 31.9z"/>
									</g>
								</g>
								<g id="&lt;Group&gt;">
									<g id="&lt;Group&gt;">
										<path id="&lt;Path&gt;" class="s14" d="m1047.3 904.8l-29.6-31.9 36.4-33.8 29.6 31.9z"/>
									</g>
								</g>
								<g id="&lt;Group&gt;">
									<g id="&lt;Group&gt;">
										<path id="&lt;Path&gt;" class="s14" d="m1095.4 956.6l-29.6-31.9 36.4-33.8 29.6 31.9z"/>
									</g>
								</g>
								<g id="&lt;Group&gt;">
									<g id="&lt;Group&gt;">
										<path id="&lt;Path&gt;" class="s15" d="m1080.9 1066.5l-29.6-31.9 71.9-66.8 29.6 31.9z"/>
									</g>
								</g>
								<g id="&lt;Group&gt;">
									<g id="&lt;Group&gt;">
										<path id="&lt;Path&gt;" class="s15" d="m1170.1 983.7l-29.6-31.9 71.9-66.8 29.6 31.9z"/>
									</g>
								</g>
							</g>
							<g id="&lt;Group&gt;">
								<g id="&lt;Group&gt;">
									<g id="&lt;Group&gt;">
										<path id="&lt;Path&gt;" class="s14" d="m936.6 911l-29.6-31.9 36.4-33.8 29.6 31.9z"/>
									</g>
								</g>
								<g id="&lt;Group&gt;">
									<g id="&lt;Group&gt;">
										<path id="&lt;Path&gt;" class="s14" d="m984.7 962.8l-29.6-31.8 36.4-33.8 29.6 31.8z"/>
									</g>
								</g>
								<g id="&lt;Group&gt;">
									<g id="&lt;Group&gt;">
										<path id="&lt;Path&gt;" class="s14" d="m1032.8 1014.7l-29.6-31.9 36.4-33.8 29.6 31.9z"/>
									</g>
								</g>
							</g>
						</g>
					</g>
					<g id="&lt;Group&gt;">
						<path id="&lt;Path&gt;" class="s9" d="m974 926.5c-11.1-1.9-21.8 8.4-23.9 23.1q-0.1 0.8-0.2 1.6c0 0 0 0.4-0.1 0.9q0 0.1 0 0.1c-0.3 4.5-1.5 24 0.8 36.3 0.6 3.6 1.6 6.6 2.9 8.4 2.1 2.8 8.4 4.3 14.2 4.3 0.5 0 2.5-0.1 2.9-0.1 2.7-0.3 13.3-0.1 13.9-2.4 2.8-10.4 3.6-25.6 3.7-35.1 2.1 3.6 4.5 7.1 6 8.2 1.2 0.9 7 0.7 7.7-1.2 2.7-6.6-15.8-35.6-15.8-35.6-3-4.5-7.2-7.6-12.1-8.5z"/>
						<path id="&lt;Path&gt;" class="s10" d="m1005.6 774.2c-6.7 11.9-11.3 22.1-27.1 13.2-15.8-9-23.2-25.9-16.4-37.9 0 0 65.3-181.5 81.1-198.3 15.7-16.8 24.6-11.7 45.8 0.4 9.7 7.4 12.9 53.7 4.6 68.4z"/>
						<path id="&lt;Path&gt;" class="s10" d="m987.4 938.4l17.7-180.7c-0.6-13.7 2.2-26.4-16-25.6-18.1 0.7-32.4 12.5-31.8 26.1l-5.1 181.7z"/>
					</g>
					<g id="&lt;Group&gt;">
						<path id="&lt;Path&gt;" class="s8" d="m1157.6 335.3c14.6-0.3 50.3 13.5 59.8 33.6 5.3 11.3-5.3 40.9-18.6 46-4.4 1.7-8.9-6-11.4-9.6-2.3-3.2-3.5-13.3-4.9-17.5-2.1-6.2-4.9-11.5-6.7-17.5-1.3-4.1-1.8-11.5-4.6-14.2z"/>
						<path id="&lt;Compound Path&gt;" class="s16" d="m1164.2 524.7l-6.6 65.8-43.5-65.8v-82.4h50.1z"/>
						<path id="&lt;Path&gt;" class="s9" d="m1118.1 483.7c0 0 30.7 29.8 53.1 30.6 13.6 0.4 38.2-44.6 38.1-50.2-1.1-44.8-19.1-95.2-19.1-95.2h-89.1z"/>
						<path id="&lt;Path&gt;" class="s8" d="m1114.1 480.1c1.5-5.4-0.7-16.1 1.3-27-9-4.4-2-7.9 10.7-16.8 8.8 0.6 63.6-32.8 66.9-65.4 0 0-32.4-74.7-96.1-22-63.7 52.6 17.2 131.2 17.2 131.2z"/>
						<path id="&lt;Path&gt;" class="s8" d="m1071.3 422.2q0.3 2.1 0.6 4.2c5.6 35.8-6.2 57.9-19.7 93.3-3.6 9.5-8.6 18.4-13.3 27.4-4.6 8.8-14 16.2-12.9 26.3 0.9 8 17.4 9.4 23.5 8.8 11.8-1.2 22.1-7.9 34.2-6.3 22.3 3.2 48.8 29.2 69.1 5.2 10.5-12.4 4.5-30.7-1.8-43.7-15-31.2-34.9-60-39.5-95.2-2.2-17.8-0.6-35.8-10.7-51.4-4.1-6.3-13.2-31.1-21.8-20.5-9.1 11.5-9.7 37.6-7.7 51.9z"/>
						<path id="&lt;Path&gt;" class="s9" d="m1101.7 441.6c0 8.7 5.2 15.8 11.7 15.8 6.4 0 11.7-7.1 11.7-15.8 0-8.8-5.3-15.8-11.7-15.8-6.5 0-11.7 7-11.7 15.8z"/>
					</g>
					<path id="&lt;Path&gt;" class="s0" d="m1188.1 464.9c0 0-19.9 4.1-33.6 0 0 0 5.4 20 16.3 20.2 11.7 0.2 17.3-20.2 17.3-20.2z"/>
					<g id="&lt;Group&gt;">
						<g id="&lt;Group&gt;">
							<path id="&lt;Path&gt;" class="s16" d="m1175.1 442.6c0 0 0.7 1.2 1.6 2.9 0.9 1.7 2.2 3.8 3.3 6.2 0.1 0.5 0.4 0.3 0.4 1.7 0 0.2-0.2 1-0.4 1.3-0.5 1-1.6 1.6-2.4 1.7-1.6 0.3-2.7-0.2-3.7-0.5-1.9-0.7-3-1.6-3-1.6 0 0 1.4 0 3.3 0 0.9 0.1 2-0.1 2.8-0.3 0.4-0.2 0.5-0.4 0.6-0.5 0-0.2 0-0.1 0.1-0.5 0 0.7-0.1 0-0.2-0.2-1.1-2.2-1.9-4.8-2.2-6.8-0.4-2-0.2-3.4-0.2-3.4z"/>
						</g>
					</g>
					<path id="&lt;Path&gt;" class="s8" d="m1192.9 434.6c-0.3 3.1-2 5.5-3.8 5.3-1.8-0.2-3-2.9-2.6-5.9 0.3-3.1 2-5.5 3.8-5.3 1.8 0.2 2.9 2.9 2.6 5.9z"/>
					<path id="&lt;Path&gt;" class="s8" d="m1155.1 437.5c-0.4 3.4-2.3 6-4.2 5.8-2-0.2-3.3-3.2-2.9-6.6 0.3-3.4 2.2-6 4.2-5.8 2 0.2 3.3 3.1 2.9 6.6z"/>
					<g id="&lt;Group&gt;">
						<g id="&lt;Group&gt;">
							<path id="&lt;Path&gt;" class="s8" d="m1185.7 415c0 0 0.1-0.2 0.4-0.6 0.3-0.2 0.5-0.9 1.2-1.2 0.7-0.3 1.6-1 2.5-1 0.5-0.1 1-0.3 1.6-0.2l1.6 0.2c0.5 0.2 1 0.5 1.5 0.7 0.5 0.2 0.8 0.7 1.2 1.1 0.9 0.7 1 1.8 1.2 2.5 0.2 0.3 0 0.7 0 1q-0.1 0.5-0.1 0.8c-0.1 0.5-0.2 0.7-0.2 0.7 0 0-0.2-0.3-0.4-0.6q-0.1-0.3-0.3-0.6c-0.2-0.3-0.2-0.6-0.5-0.8-0.4-0.4-0.7-0.9-1.4-1.2-0.4-0.4-1.2-0.6-1.8-0.9-0.7-0.1-1.4-0.3-2.2-0.3-0.7-0.1-1.3 0-2 0-0.6 0-1.2 0.2-1.6 0.3-0.4 0.1-0.7 0.1-0.7 0.1z"/>
						</g>
					</g>
					<g id="&lt;Group&gt;">
						<g id="&lt;Group&gt;">
							<path id="&lt;Path&gt;" class="s8" d="m1153.7 418.6c0 0-0.3 0-0.7 0-0.4 0-1.1-0.2-1.7-0.1-0.6 0-1.2 0.1-2 0.3-0.7 0-1.4 0.3-2.1 0.5-0.6 0.4-1.3 0.6-1.7 1.1-0.6 0.3-0.9 0.9-1.3 1.4-0.2 0.2-0.2 0.5-0.3 0.8q-0.2 0.4-0.3 0.6c-0.1 0.4-0.3 0.7-0.3 0.7 0 0-0.1-0.2-0.2-0.6q-0.1-0.4-0.3-0.8c0-0.3-0.2-0.7-0.1-1.1 0.2-0.7 0.1-1.8 0.9-2.6 0.3-0.4 0.6-1 1.1-1.2 0.5-0.3 0.9-0.6 1.4-0.9l1.6-0.4c0.5-0.1 1 0 1.5 0 1 0 1.9 0.5 2.6 0.7 0.8 0.3 1.1 0.9 1.4 1.1 0.3 0.3 0.5 0.5 0.5 0.5z"/>
						</g>
					</g>
					<path id="&lt;Path&gt;" class="s6" d="m1113.4 464h-4.2v-9.1h4.2z"/>
				</g>
			</g>
			<path id="&lt;Path&gt;" class="s8" d="m1521 674.4l-11-0.9 24.5-253.2 4.4 0.4z"/>
			<path id="&lt;Path&gt;" class="s9" d="m1510.7 625.8c-1.7 5.9-1.8 12.8-1.6 17.5 0.3 6.3 2.1 12.8 8.5 15.2 5.7 2.1 15.5 2.2 16.9-5.6 1.5-8.1-0.4-18.2-1.8-26.2-0.7-4.6-3.9-12.1-9.4-12.1-7.1 0.1-10.8 5.1-12.6 11.2z"/>
		</g>
	</g>
</svg>