<svg version="1.2" xmlns="http://www.w3.org/2000/svg" viewBox="0 0 3200 2000" width="3200" height="2000">
	<title>6569</title>
	<style>
		.s0 { fill: #ffffff } 
		.s1 { fill: #074530 } 
		.s2 { fill: #a8ffe2 } 
		.s3 { fill: #b81543 } 
		.s4 { fill: #2c3a64 } 
		.s5 { fill: #ffb27d } 
		.s6 { fill: #ed985f } 
		.s7 { fill: #05295c } 
		.s8 { fill: #020d1e } 
		.s9 { fill: #0d1c30 } 
		.s10 { fill: #3f3934 } 
		.s11 { fill: #78acea } 
		.s12 { fill: #0c7a55 } 
		.s13 { opacity: .5;fill: #afcdfb } 
		.s14 { fill: #afcdfb } 
		.s15 { fill: #0e6a4b } 
		.s16 { fill: #1d936b } 
		.s17 { fill: #95c38b } 
		.s18 { fill: #a8d29f } 
		.s19 { fill: #82b378 } 
		.s20 { fill: #558949 } 
		.s21 { fill: #d1f2c9 } 
		.s22 { fill: #2e3552 } 
		.s23 { fill: #08224a } 
	</style>
	<g id="Слой 1">
		<path id="&lt;Path&gt;" class="s0" d="m3200 0v2000h-3200v-2000z"/>
		<g id="&lt;Group&gt;">
			<g id="&lt;Group&gt;">
				<path id="&lt;Path&gt;" class="s1" d="m532.6 1789.5l798.8-4.1 212.9-0.1h70.6l213.3-0.1 974.7-0.3c0 0 222.9-285.6-15.2-556.9-246.9-281.3-372.3-41.1-554.6-515.1-400.2-1040.2-1968-349.6-1472.6 498.5 178.3 305.4-351.1 143.1-227.9 578.1z"/>
				<path id="&lt;Path&gt;" class="s2" d="m1525.8 825.9c0 0-27.4 87.8-43.5 81.7-16-6.1 37.6-95.7 37.6-95.7 0 0-55.2-75.1-85.8-87.8 0 0 4.5 102.5-9.5 92.6-14-9.9-23.7-116.3-23.7-116.3 0 0-68.6-54.5-104.8-15.9-36.2 38.6-28.5 71.6-18.7 80.4 9.8 8.9 82.6 46.4 75.7 54.8-6.8 8.4-63.7-2.6-86.4-25.5 0 0-9.4 90.2 32 107.4 41.5 17.2 66.7-0.7 92.1 10.4 25.4 11.1 39.8 27.2 24.1 27.3-15.7 0.1-54.7-26.3-83.4-20.1-28.6 6.3-50.1 8.2-17.4 35.2 32.6 27 100.9 57.2 129 36q1.9-1.3 3.5-2.6c-2 1.9-3.5 2.6-3.5 2.6 4.7 7.6 4.8 31.8 4.2 49.9-0.3 3-0.5 7.3-0.6 13.1-0.2 2.6-0.3 4.7-0.4 6.2-4.3 39.2-40.8 91.4-40.8 91.4l6.7 6.2c47.2-47 41.4-109.4 41.4-109.4-0.3-47.1 17.7-78.6 17.7-78.6 0 0 91.4-2 87-73 0 0-8.8-46.9-32.5-70.3z"/>
				<path id="&lt;Path&gt;" class="s2" d="m1256.4 1153.5c0 0 134.5 63.8 121.1 88.1-13.4 24.3-144.8-81.9-144.8-81.9 0 0-132.9 71.5-160.1 117.7 0 0 165.2 15.8 146.2 36.1-19 20.2-191.6 11.8-191.6 11.8 0 0-102.9 97.6-49.2 164.2 53.7 66.7 108.3 61.8 124.7 48.1 16.3-13.7 92.8-121.9 104.7-109 11.9 12.9-18.4 101.5-60.3 132.8 0 0 142.4 35.4 179.3-27.1 36.9-62.5 13.9-107 37.4-145.2 23.6-38.2 52.5-57.6 49.1-32.4-3.4 25.2-54.5 81.7-50.9 129 3.6 47.3 1.7 82.1 52.4 35.9 50.6-46.2 114.5-148.7 86.9-198.6q-1.8-3.2-3.5-6.2c2.6 3.7 3.5 6.2 3.5 6.2 13.1-5.7 51.9-0.5 80.8 4.6 4.7 1.2 11.5 2.5 20.9 4q0 0 0 0c4.1 0.8 7.4 1.5 9.8 2 61.8 15.7 137.1 86 137.1 86l11.5-9.4c-64.6-86.3-165.9-91-165.9-91-75.5-10.2-121.8-46-121.8-46 0 0 17.4-146.9-97.4-155.9 0 0-77 3.5-119.9 36.2z"/>
				<path id="&lt;Path&gt;" class="s2" d="m2283.1 974.7c2.5-78.3-126.3-92.9-126.3-92.9 0 0-121.5 101.2-146.5 96.8-25-4.3 86.9-106.8 86.9-106.8-45.3-18.7-181.7 2.1-181.7 2.1 0 0-37.5 149.9-60.7 139.5-23.2-10.3 40-131 40-131-49.3-0.2-107.6 39.6-107.6 39.6-78.9 69.7 14.7 167.5 14.7 167.5 0 0-14.1 51.6-63.7 100.7 0 0-10.4 8.6-23.3 24.9l12.3 3.7q3-4.5 6.3-8.5 0 0 0-0.1 0.1 0 0.1-0.1c1.4-1.6 3.5-4 6-6.8q0 0 0 0 0 0 0 0c6-6.2 10.2-10.9 13.1-14.3q0-0.1 0-0.1c18.3-19.6 43.8-44.8 56.5-47.8 0 0-0.8-2.4-0.9-6.5q0.4 3.1 0.9 6.5c7.3 51.6 110.4 91.3 172.8 97.2 62.4 5.9 41.9-18.5 18.5-55-23.5-36.6-91.9-49.7-108.2-66.2-16.4-16.6 15.5-18.4 53.7-3.4 38.2 15 45.8 60.1 107.2 85.5 61.4 25.3 145.9-78.9 145.9-78.9-47.8 0.2-118.7-47.8-117.1-63.8 1.6-16 117.1 20.9 136.5 21.9 19.5 1 62.1-25.4 64.6-103.7z"/>
				<g id="&lt;Group&gt;">
					<path id="&lt;Path&gt;" class="s3" d="m1864.4 658.7c10.4 27.5 99.9 99.8 99.9 99.8 0 0 29.2-23.7 56.2-49.2 20.2-18.9 39.1-38.8 43.6-50.6 10.6-27.3-0.7-66.4-39.8-73.1-38.9-6.6-60 34.2-60 34.2 0 0-21-40.8-60.1-34.2-6.8 1.2-12.8 3.3-17.9 6.3-24.4 13.6-30.5 44.3-21.9 66.8z"/>
				</g>
				<g id="&lt;Group&gt;">
					<path id="&lt;Path&gt;" class="s4" d="m1553.5 410.7c-1.9-5.6-24-65.6-118.3-41.8 0 0 47.5-7.8 61.3 10.1 0 0-38.5-15.9-61.6-0.6-23.2 15.4-25.2 64.3-21.1 79 4.1 14.8 31.9 58 49.2 57.3 6.6-0.2 13.5-2.7 19.6-5.6-2.4 7.9-4.5 16.5-6.1 26-15.1 87.2 44.9 150.8 74 133.5 18.7-11.2 34.4 21.7 34.4 21.7l150.5-215.9c0 0-115.3-128.5-181.9-63.7z"/>
					<path id="&lt;Path&gt;" class="s5" d="m1764.4 1249.1c-0.8 23.3 40.4 99 64.1 164.5q0 0 0 0c15.2 42.3 30.3 81.5 38.4 102.3 5 12.9 9 26.3 11.8 39.9 7 34.6 18.5 107 22.3 224.8q0.1 2.4 0.1 4.8l-212.9-0.1-0.9-4.7-4.6-25.5v-0.2l4.5-111.2-13.5-20.7-38.5 14.6-17 143-0.5 4.7-213.4-0.1q0-2.3 0-4.6c-0.1-37.3-0.1-69.1-0.1-96.2-0.1-92.5 16.5-184.2 49.1-270.8 24.7-65.8 61.4-134.7 53.7-167-1.8-7.5-27.6-73.1-39.9-135.3q-1.9-9.8-3.8-19.6-0.4 1.9-0.9 3.9c-19.7 82.4-45.4 189.3-50.3 207-8.1 29.4-82.5 255.7-82.5 255.7h-36.2c0 0 22.7-221.8 43-278.3 20.4-56.6 30.4-268 49.8-359.9 10.1-47.7 26-68.6 52.1-82.3q0 0 0 0c13.4-7 29.5-12.1 48.8-18.1 12.2-3.7 25.8-7.8 40.7-12.8 21.7-7.2 41.8-18.3 47.8-40.4 5.4-19.6 9.2-45.4 9.4-76.4q0.1-9.4-0.3-19.4 0 0 0 0l6.4 1 6.1 0.9 101.4 16.2q0 0 0 0c0 0 0 1.3-0.1 3.5q0 0.5 0 1.1v0.2q0 0.5 0 1.1-0.1 1.1-0.1 2.4 0 0.8 0 1.7-0.1 3.1-0.2 6.8 0 1 0 2 0 0.5 0 1 0 1.5 0 3.1v0.2q-0.1 2.9-0.1 6c0 4.3 0 9 0 13.9q0.1 3.1 0.1 6.3 0 0.7 0 1.5 0.1 3.1 0.2 6.2 0 4.2 0.2 8.3c0.6 18.2-2 31.6 2.9 40.8 5.4 10.2 33.9 17.4 65.2 30.5 15.9 6.7 32.6 15 47.3 26 18.5 13.8 33.9 31.9 40.7 56.7 24.9 90.6 41.3 315.3 61.7 371.9 20.3 56.5 43 278.3 43 278.3h-36.2c0 0-74.4-226.3-82.5-255.7-2.5-9.1-10.5-41.8-20.4-82.6-9-37.2-19.6-81.3-28.9-120.3q-1.3-5.6-2.7-11c-0.4 10.2-0.9 20.5-1.4 30.5-2.8 61.3-22.4 113.6-22.9 129.9z"/>
					<path id="&lt;Path&gt;" class="s6" d="m1698.6 688.8c0 0-1.1 33.7 0 65.3-59.8 0.6-93.4-52.7-107.5-82.4z"/>
					<path id="&lt;Path&gt;" class="s5" d="m1719.7 718c0 0-141.2 7.7-144.6-80.4-3.4-88-23.9-146.3 66.1-154.9 90-8.6 108.9 24.3 117.1 53.4 8.3 29.1-1.9 177.7-38.6 181.9z"/>
					<path id="&lt;Path&gt;" class="s4" d="m1752.3 487.3c-22.8-25.6-39.1-19.2-48.1-10.9-78.8-39.5-126.2 25.1-126.2 25.1-7.1 63.5-51.3 101.4-51.3 101.4 0 0 26.3 15 85.1-2.5 18-5.4 33.7-18.9 46.9-35-22.5 41.2-54.1 71.4-54.1 71.4 69.7-35.4 94.4-135.2 96.9-145.7 8.9 7.4 26.5 23.6 32.3 39.9 7.9 22.2 12.8 68.2 26.2 66.1 0 0 26.5-71.3-7.7-109.8z"/>
					<path id="&lt;Path&gt;" class="s5" d="m1294.2 1551c0 0-31 50.3-32.2 65.1-1.2 14.8 3.2 65.4 3.2 65.4 0 0 11.5-3.2 13.9-27 2.4-23.7 38.8-38 46.1-53.5 7.4-15.6 4.5-47.9 4.5-47.9z"/>
					<path id="&lt;Path&gt;" class="s5" d="m1330.2 1556.5c0 0 10 40.4 5.7 54-4.3 13.5-9 35.1-15.8 32.9-6.8-2.2-12.6-43-12.6-43z"/>
					<path id="&lt;Path&gt;" class="s5" d="m1269.6 1617.3c-0.3 2.1-20 58.3-20 58.3 0 0 16.3 0.1 17.3-7.7 1.1-7.8 2.7-50.6 2.7-50.6z"/>
					<path id="&lt;Path&gt;" class="s5" d="m1958.5 1556.5c0 0 31 50.3 32.2 65.1 1.2 14.8-3.2 65.3-3.2 65.3 0 0-11.5-3.2-13.9-26.9-2.4-23.8-38.8-38-46.1-53.6-7.4-15.5-4.9-49.9-4.9-49.9z"/>
					<path id="&lt;Path&gt;" class="s5" d="m1922.4 1562c0 0-10 40.3-5.6 53.9 4.3 13.6 9 35.1 15.8 33 6.7-2.2 12.6-43 12.6-43z"/>
					<path id="&lt;Path&gt;" class="s5" d="m1983 1622.7c0.4 2.1 20.1 58.4 20.1 58.4 0 0-16.3 0.1-17.3-7.7-1.1-7.8-2.8-50.7-2.8-50.7z"/>
				</g>
				<path id="&lt;Path&gt;" class="s7" d="m1453.3 1413.6c0 0 146.1 45 375.2 0 0 0 65.1 95.4 92 367h-233.6l-21.7-131-26.6 0.4-15.6 130.6h-239.5c0 0 6.7-244.2 69.8-367z"/>
				<path id="&lt;Path&gt;" class="s0" d="m1793.8 971.1c2.7 28.2 11.7 55-2.4 128.6q-1.8 9.2-4.1 19.5c0 0-140 45.7-317.6 0 0 0-1-2.9-2.6-7.9-1.2-4.1-2.9-9.5-4.7-15.7-7.2-25.3-16.9-65.2-14.5-90.4 3.8-39.2 30.2-117-9.6-167.4q0 0 0 0c13.4-7 29.5-12.1 48.8-18.1 0 0 35.4 108.4 83.6 114.1 48.2 5.7 90.7 2.4 90.7 2.4 0 0 57 1.9 78.5-37.3 16-29.1 25.9-69.8 26.8-73.5 15.9 6.7 32.6 15 47.3 26-6.1 14.7-24.6 72.3-20.2 119.7z"/>
				<path id="&lt;Path&gt;" class="s0" d="m1914.4 848.2q-0.1-0.2-0.1-0.3 0.1-0.1 0.1 0.3z"/>
				<path id="&lt;Path&gt;" class="s0" d="m1338.3 523.7c-1.8 0.4-20.9-42.9-68.6-25.1 0 0-7.5-47.6-63-44.9-45.1 2.3-49.7 51.7-49.7 51.7 0 0-39.7-8.4-55.6 18.3z"/>
				<path id="&lt;Path&gt;" class="s0" d="m1231.6 636.8c-3.4 0.7-38.3-78.4-125.4-45.8 0 0-13.7-87.1-115.2-82.1-82.4 4.2-90.7 94.4-90.7 94.4 0 0-72.6-15.3-101.8 33.5z"/>
				<g id="&lt;Group&gt;">
					<g id="&lt;Group&gt;">
						<path id="&lt;Compound Path&gt;" class="s0" d="m1545.9 1208.7c-36.2 40.5-37.5 99-4 133.2 2.1 2.2 5.8 1.9 8.1-0.6 2.2-2.5 2.3-6.1 0.2-8.3-29.1-30.2-27.9-81.5 3.8-117 33-37 86.8-43 119.9-13.4l8.2-9.2c-37.6-33.5-98.7-26.7-136.2 15.3z"/>
					</g>
					<path id="&lt;Path&gt;" class="s0" d="m1663.5 1209.7l25.9 1.7c2.1 0.1 3.9-2 3.4-4l-5.7-24.2c-0.5-2-3-2.4-4.4-0.8l-20.6 23c-1.5 1.7-0.7 4.2 1.4 4.3z"/>
				</g>
				<g id="&lt;Group&gt;">
					<g id="&lt;Group&gt;">
						<path id="&lt;Compound Path&gt;" class="s0" d="m1720.8 1357.1c36.1-40.4 37.4-98.9 4-133.2-2.2-2.1-5.8-1.9-8.1 0.6-2.2 2.5-2.4 6.2-0.3 8.4 29.2 30.2 28 81.4-3.7 116.9-33.1 37-86.9 43.1-120 13.5l-8.1 9.1c37.6 33.6 98.7 26.7 136.2-15.3z"/>
					</g>
					<path id="&lt;Path&gt;" class="s0" d="m1603.2 1356.2l-26-1.7c-2-0.2-3.8 1.9-3.3 3.9l5.7 24.3c0.5 1.9 2.9 2.4 4.4 0.7l20.5-23c1.5-1.6 0.7-4.1-1.3-4.2z"/>
				</g>
				<g id="&lt;Group&gt;">
					<g id="&lt;Group&gt;">
						<path id="&lt;Path&gt;" class="s8" d="m891.8 1687.9c0-34.2-18.9-64-46.9-79.5v-11.3h-43.9c-50.1 0-90.7 40.6-90.7 90.8 0 50.1 40.6 90.7 90.7 90.7h43.9v-11.3c28-15.5 46.9-45.2 46.9-79.4z"/>
						<path id="&lt;Path&gt;" class="s9" d="m754.2 1687.9c0-50.2 40.6-90.8 90.7-90.8 50.1 0 90.8 40.6 90.8 90.8 0 50.1-40.7 90.7-90.8 90.7-50.1 0-90.7-40.6-90.7-90.7z"/>
					</g>
					<path id="&lt;Path&gt;" class="s10" d="m1126.4 1724.8h-282.5c-20.4 0-37-16.5-37-36.9 0-20.5 16.6-37 37-37h282.5c20.4 0 37 16.5 37 37 0 20.4-16.6 36.9-37 36.9z"/>
					<g id="&lt;Group&gt;">
						<path id="&lt;Path&gt;" class="s8" d="m1127.7 1687.9c0-34.2-18.9-64-46.9-79.5v-11.3h-43.8c-50.2 0-90.8 40.6-90.8 90.8 0 50.1 40.6 90.7 90.8 90.7h43.8v-11.3c28-15.5 46.9-45.2 46.9-79.4z"/>
						<path id="&lt;Path&gt;" class="s9" d="m990.1 1687.9c0-50.2 40.6-90.8 90.7-90.8 50.2 0 90.8 40.6 90.8 90.8 0 50.1-40.6 90.7-90.8 90.7-50.1 0-90.7-40.6-90.7-90.7z"/>
						<path id="&lt;Path&gt;" class="s10" d="m1045.9 1687.9c0-21.7 17.5-39.2 39.2-39.2 21.6 0 39.1 17.5 39.1 39.2 0 21.6-17.5 39.1-39.1 39.1-21.7 0-39.2-17.5-39.2-39.1z"/>
					</g>
				</g>
				<g id="&lt;Group&gt;">
					<path id="&lt;Path&gt;" class="s0" d="m1900.3 692.3l-9.2-48.5-4 20.7h-54.4v-3.3h51.7l6.7-34.7 9.7 50.7 4.3-17.1h9.4l6.4-29.9 8.2 45.5 4.4-17.4h19.3l7.2-23.4 6.2 41 5.1-17.6h16l4.7-25.7 10.2 40.4 3.6-14.7h20.8l1.1 12.3 11.4-44.7 7.5 32.5h33.8v3.3h-36.4l-5.1-22-12.8 50.2-2.5-28.3h-15.2l-6.2 24.9-9.7-38.5-2.5 13.6h-16.3l-8.4 29.6-6.4-41.6-3.6 12h-19.3l-7.4 29.8-7.9-44.3-3.5 16.2h-9.5z"/>
				</g>
				<g id="&lt;Group&gt;">
					<g id="&lt;Group&gt;">
						<path id="&lt;Compound Path&gt;" fill-rule="evenodd" class="s11" d="m1097.2 1044.3h-77.4l-38.7-67.1 38.7-67h77.4l38.7 67zm-74.5-5h71.6l35.7-62-35.7-62h-71.6l-35.8 62z"/>
					</g>
					<g id="&lt;Group&gt;">
						<path id="&lt;Path&gt;" class="s11" d="m877 1172l-4.4-2.5 36.5-63.3-35.8-61.9h-73v-5.1h76l38.7 67z"/>
					</g>
					<g id="&lt;Group&gt;">
						<path id="&lt;Path&gt;" class="s11" d="m876.3 1044.3h-77.4l-38-65.8 4.4-2.5 36.5 63.2h71.5l35.8-62-35.8-61.9h-73v-5.1h76l38.7 67z"/>
					</g>
					<g id="&lt;Group&gt;">
						<path id="&lt;Path&gt;" class="s11" d="m1130 1107.5l-38-65.8 38.7-67h77.4l38 65.8-4.4 2.5-36.5-63.2h-71.5l-35.8 61.9 36.5 63.3z"/>
					</g>
					<g id="&lt;Group&gt;">
						<path id="&lt;Path&gt;" class="s11" d="m986.7 1108.8h-75.9v-5.1h73l35.8-62-35.8-61.9h-71.5l-36.5 63.2-4.4-2.5 37.9-65.8h77.4l38.7 67z"/>
					</g>
					<g id="&lt;Group&gt;">
						<path id="&lt;Path&gt;" class="s11" d="m1206.7 979.8h-76l-38.7-67.1 38.7-67h76v5.1h-73l-35.8 61.9 35.8 62h73z"/>
					</g>
					<path id="&lt;Path&gt;" class="s11" d="m978.3 975.8c0-3.6 3-6.6 6.6-6.6 3.6 0 6.5 3 6.5 6.6 0 3.6-2.9 6.5-6.5 6.5-3.6 0-6.6-2.9-6.6-6.5z"/>
					<path id="&lt;Path&gt;" class="s11" d="m904.5 975.8c0-3.6 2.9-6.6 6.5-6.6 3.6 0 6.6 3 6.6 6.6 0 3.6-3 6.5-6.6 6.5-3.6 0-6.5-2.9-6.5-6.5z"/>
					<path id="&lt;Path&gt;" class="s11" d="m904.5 1105.6c0-3.6 2.9-6.6 6.5-6.6 3.6 0 6.6 3 6.6 6.6 0 3.6-3 6.5-6.6 6.5-3.6 0-6.5-2.9-6.5-6.5z"/>
					<path id="&lt;Path&gt;" class="s11" d="m867.4 1169.5c0-3.6 2.9-6.6 6.5-6.6 3.6 0 6.5 3 6.5 6.6 0 3.6-2.9 6.5-6.5 6.5-3.6 0-6.5-2.9-6.5-6.5z"/>
					<path id="&lt;Path&gt;" class="s11" d="m978.3 1105.6c0-3.6 3-6.6 6.6-6.6 3.6 0 6.5 3 6.5 6.6 0 3.6-2.9 6.5-6.5 6.5-3.6 0-6.6-2.9-6.6-6.5z"/>
					<path id="&lt;Path&gt;" class="s11" d="m1015.1 1040.7c0-3.6 2.9-6.6 6.5-6.6 3.6 0 6.5 3 6.5 6.6 0 3.6-2.9 6.5-6.5 6.5-3.6 0-6.5-2.9-6.5-6.5z"/>
					<path id="&lt;Path&gt;" class="s11" d="m1088.3 1040.7c0-3.6 2.9-6.6 6.5-6.6 3.6 0 6.6 3 6.6 6.6 0 3.6-3 6.5-6.6 6.5-3.6 0-6.5-2.9-6.5-6.5z"/>
					<path id="&lt;Path&gt;" class="s11" d="m869.4 1040.7c0-3.6 2.9-6.6 6.5-6.6 3.7 0 6.6 3 6.6 6.6 0 3.6-2.9 6.5-6.6 6.5-3.6 0-6.5-2.9-6.5-6.5z"/>
					<path id="&lt;Path&gt;" class="s11" d="m793.8 1040.7c0-3.6 2.9-6.6 6.5-6.6 3.6 0 6.6 3 6.6 6.6 0 3.6-3 6.5-6.6 6.5-3.6 0-6.5-2.9-6.5-6.5z"/>
					<path id="&lt;Path&gt;" class="s11" d="m757.6 979.2c0-3.7 3-6.6 6.6-6.6 3.6 0 6.5 2.9 6.5 6.6 0 3.6-2.9 6.5-6.5 6.5-3.6 0-6.6-2.9-6.6-6.5z"/>
					<path id="&lt;Path&gt;" class="s11" d="m796 912.7c0-3.6 3-6.5 6.6-6.5 3.6 0 6.5 2.9 6.5 6.5 0 3.6-2.9 6.6-6.5 6.6-3.6 0-6.6-3-6.6-6.6z"/>
					<path id="&lt;Path&gt;" class="s11" d="m1088.3 912.7c0-3.6 2.9-6.5 6.5-6.5 3.6 0 6.6 2.9 6.6 6.5 0 3.6-3 6.6-6.6 6.6-3.6 0-6.5-3-6.5-6.6z"/>
					<path id="&lt;Path&gt;" class="s11" d="m1015.1 912.7c0-3.6 2.9-6.5 6.5-6.5 3.6 0 6.5 2.9 6.5 6.5 0 3.6-2.9 6.6-6.5 6.6-3.6 0-6.5-3-6.5-6.6z"/>
					<path id="&lt;Path&gt;" class="s11" d="m1125.2 977.2c0-3.6 2.9-6.5 6.5-6.5 3.7 0 6.6 2.9 6.6 6.5 0 3.6-2.9 6.6-6.6 6.6-3.6 0-6.5-3-6.5-6.6z"/>
					<path id="&lt;Path&gt;" class="s11" d="m1200.1 977.2c0-3.6 3-6.5 6.6-6.5 3.6 0 6.5 2.9 6.5 6.5 0 3.6-2.9 6.6-6.5 6.6-3.6 0-6.6-3-6.6-6.6z"/>
					<path id="&lt;Path&gt;" class="s11" d="m1237.5 1041.1c0-3.6 3-6.5 6.6-6.5 3.6 0 6.5 2.9 6.5 6.5 0 3.6-2.9 6.5-6.5 6.5-3.6 0-6.6-2.9-6.6-6.5z"/>
					<path id="&lt;Path&gt;" class="s11" d="m1200.1 848.1c0-3.6 3-6.5 6.6-6.5 3.6 0 6.5 2.9 6.5 6.5 0 3.6-2.9 6.6-6.5 6.6-3.6 0-6.6-3-6.6-6.6z"/>
					<path id="&lt;Path&gt;" class="s11" d="m1125.2 1105.6c0-3.6 2.9-6.6 6.5-6.6 3.7 0 6.6 3 6.6 6.6 0 3.6-2.9 6.5-6.6 6.5-3.6 0-6.5-2.9-6.5-6.5z"/>
				</g>
				<g id="&lt;Group&gt;">
					<path id="&lt;Compound Path&gt;" fill-rule="evenodd" class="s12" d="m2396.1 1183.6c-0.9-0.5-21.7-11.9-42.6-33.9-27.7-29.2-41.8-63.2-40.7-98.2 1.5-49.4 22.7-78.7 40.2-94.6 21.8-19.8 50.3-30.1 78-28.3 53.1 3.6 51.4 60.2 51.3 60.8l-3.2-0.1h0.1l-3.2-0.2c0.1-2.1 1.4-51-45.5-54.2-25.9-1.7-52.7 8-73.2 26.7-16.6 15.1-36.7 42.9-38.2 90.1-2.4 80.7 79.2 125.8 80 126.3zm79.9-194.4l3.2 0.1-3.2-0.1q0 0 0 0z"/>
				</g>
				<g id="&lt;Group&gt;">
					<path id="&lt;Path&gt;" class="s0" d="m2638.9 1205.5v530.4c0 24.7-20 44.7-44.7 44.7h-222c-29.1 0-52.8-23.6-52.8-52.8v-520.6c0-47.1 30.6-87.1 73-101.3 20.8-6.9 34.8-26.3 36-48.2l1-18.3h99.6l1.4 17.9c1.8 22.4 16.7 41.6 37.9 49 41.1 14.2 70.6 53.3 70.6 99.2z"/>
					<path id="&lt;Path&gt;" class="s13" d="m2638.9 1205.5v530.4c0 24.7-20 44.7-44.7 44.7h-158.4c-29.1 0-52.8-23.6-52.8-52.8v-520.6c0-47.1 30.6-87.1 73-101.3 20.8-6.9 34.9-26.3 36-48.2l1-18.3h36l1.4 17.9c1.8 22.4 16.7 41.6 37.9 49 41.1 14.2 70.6 53.3 70.6 99.2z"/>
					<path id="&lt;Path&gt;" class="s14" d="m2631.5 1268.7v456.5c0 23.6-19.1 42.6-42.6 42.6h-32.1c-26.9 0-41.3-6-56.2-18-14.9-11.9-47.8-9.9-58.8 4-10.9 14-42.3 14-42.3 14h-22.3c-27.8 0-50.3-22.5-50.3-50.3v-452.1c28-5.7 69.7-8.9 123.9 1.7 63.9 12.4 134.2 7.6 180.7 1.6z"/>
					<path id="&lt;Path&gt;" class="s15" d="m2535.9 1048.4h-113.5v-37.6c0-13.9 11.3-25.2 25.2-25.2h62.1c14.5 0 26.2 11.7 26.2 26.2z"/>
				</g>
				<path id="&lt;Path&gt;" class="s12" d="m2638.9 1672.4h-319.5v-476h319.5z"/>
				<path id="&lt;Path&gt;" class="s16" d="m2612.7 1672.4h-229.7v-476h229.7z"/>
				<path id="&lt;Path&gt;" class="s12" d="m2537.5 1055.9h-117.3c-7.2 0-13.1-5.9-13.1-13.1 0-7.2 5.9-13.1 13.1-13.1h117.3c7.2 0 13.1 5.9 13.1 13.1 0 7.2-5.9 13.1-13.1 13.1z"/>
				<g id="&lt;Group&gt;">
					<path id="&lt;Path&gt;" class="s17" d="m2349.3 1752.3c0 0-15.6 17.9-54.7 23.8q0 0 0 0c-16.4 2.5-37 2.9-62.3-1-85.6 13.3-117.1-22.8-117.1-22.8-87.7-70-88.7-216.7 0-250 26-9.7 48.7-8.1 67.3-2.1 32.4 10.5 67.2 10.5 99.6 0 18.5-6 41.2-7.6 67.2 2.1 12 4.6 22.4 11.2 31.2 19.4l1 1c54.5 52.8 43.1 169.5-32.2 229.6z"/>
					<path id="&lt;Path&gt;" class="s18" d="m2349.3 1752.3c0 0-15.6 17.9-54.7 23.8q0 0 0 0c-45.2 3.8-25.4-14.2-74.5-14.2-49.1 0-78.2-16.1-108.7-91.2-30.5-75.2-5.8-146 42.5-154.2 48.4-8.2 72.8 30 133.9-9.7 42.2-27.4 92.7 14.9 92.7 14.9l1 1c54.5 52.8 43.1 169.5-32.2 229.6z"/>
					<g id="&lt;Group&gt;">
						<g id="&lt;Group&gt;">
							<path id="&lt;Path&gt;" class="s18" d="m2238.1 1448c-17.9-10.7-36.1 4.3-57.1 12.6-21.1 8.2-61.7 8.1-61.7 8.1 0 0 16.7-24.1 44-47.9 27.4-23.9 74.8 27.2 74.8 27.2z"/>
							<path id="&lt;Path&gt;" class="s19" d="m2238.1 1448c-16.8-13.8-48-21.8-63.2-15.5-15.2 6.2-55.6 36.2-55.6 36.2 0 0 16.7-24.1 44-47.9 27.4-23.9 74.8 27.2 74.8 27.2z"/>
						</g>
						<g id="&lt;Group&gt;">
							<path id="&lt;Path&gt;" class="s20" d="m2230.9 1521.5c-11.5-25.4-5.3-56.9 2-78.8 5.7-17.5 16.8-41 22.2-52.3 1.1-2.3 4.6-2.1 5.4 0.4l2.2 6.6c2.2 6.7 1.4 13.9-2.2 19.9-11.1 18.3-33.4 61.3-23.4 96.6 1.1 4-4.1 12.2-6.2 7.6z"/>
						</g>
					</g>
					<path id="&lt;Path&gt;" class="s21" d="m2335.9 1522.9c0 0 35.3 10.6 36.2 37.3 0.9 26.7-24.7 24.2-37.7 10.6-13-13.7-19.3-48.8 1.5-47.9z"/>
				</g>
				<path id="&lt;Path&gt;" class="s22" d="m2926.5 1787.9h-2566.6c-1.6 0-3-1.3-3-3v-1.3c0-1.6 1.4-3 3-3h2566.6c1.7 0 3.1 1.4 3.1 3v1.3c0 1.7-1.4 3-3.1 3z"/>
				<path id="&lt;Path&gt;" class="s23" d="m1455.9 1406.8c0 0-21.1 42.4-18.5 43.2 2.5 0.9 262.4 55.7 400-14.3l-14.2-36.2c0 0-142 62-367.3 7.3z"/>
				<g id="&lt;Group&gt;">
					<g id="&lt;Group&gt;">
						<g id="&lt;Group&gt;">
							<path id="&lt;Compound Path&gt;" class="s17" d="m1689.6 1023.8c-127.4-28.6-252.9 40.6-286.7 155.5-2.2 7.3 2.6 15 10.6 16.8 7.9 1.8 15.8-2.4 17.9-9.6 30.2-100.6 140.4-161.1 252.2-136 116.6 26.2 191.6 135.6 167.3 243.9l28.7 6.4c27.6-123-57.6-247.2-190-277z"/>
						</g>
						<path id="&lt;Path&gt;" class="s17" d="m1823.7 1280.6l26.4 58.3c2.1 4.7 8.6 6 12.3 2.5l44.7-42.4c3.6-3.4 1.7-9.3-3.4-10.4l-72.6-16.3c-5.2-1.2-9.5 3.6-7.4 8.3z"/>
					</g>
					<g id="&lt;Group&gt;">
						<g id="&lt;Group&gt;">
							<path id="&lt;Compound Path&gt;" class="s18" d="m1585.1 1553.5c127.5 28.6 252.9-40.6 286.7-155.6 2.2-7.2-2.6-14.9-10.6-16.7-7.9-1.8-15.8 2.4-17.9 9.6-30.2 100.6-140.3 161.1-252.2 136-116.6-26.2-191.6-135.6-167.3-243.9l-28.7-6.4c-27.6 122.9 57.6 247.2 190 277z"/>
						</g>
						<path id="&lt;Path&gt;" class="s18" d="m1451 1296.7l-26.4-58.4c-2.1-4.6-8.6-5.9-12.3-2.4l-44.7 42.4c-3.6 3.4-1.7 9.2 3.4 10.4l72.6 16.3c5.2 1.2 9.5-3.6 7.4-8.3z"/>
					</g>
				</g>
				<path id="&lt;Path&gt;" class="s6" d="m1652 1327.1c0 5.1-2.3 9.2-5.2 9.2-2.8 0-5.2-4.1-5.2-9.2 0-5.1 2.4-9.2 5.2-9.2 2.9 0 5.2 4.1 5.2 9.2z"/>
			</g>
		</g>
	</g>
</svg>