<svg version="1.2" xmlns="http://www.w3.org/2000/svg" viewBox="0 0 1000 1000" width="1000" height="1000">
	<title>calculator_3</title>
	<style>
		.s0 { fill: #ffffff } 
		.s1 { fill: #074530 } 
		.s2 { fill: #e0e0e0 } 
		.s3 { fill: #e6e6e6 } 
		.s4 { fill: #0e6a4b } 
		.s5 { fill: #ba68c8 } 
		.s6 { fill: #a8ffe2 } 
		.s7 { fill: #b2eefb } 
		.s8 { opacity: .85;fill: #b2eefb } 
		.s9 { opacity: .7;fill: #ffffff } 
		.s10 { opacity: .75;fill: #8fe9fc } 
		.s11 { fill: #000000 } 
		.s12 { fill: #fafafa } 
		.s13 { opacity: .3;fill: #ba68c8 } 
		.s14 { fill: #188a63 } 
		.s15 { fill: #8cdec1 } 
		.s16 { opacity: .25;fill: #000000 } 
		.s17 { fill: #f5f5f5 } 
		.s18 { opacity: .6;fill: #074530 } 
		.s19 { fill: #37474f } 
		.s20 { fill: #455a64 } 
		.s21 { fill: #263238 } 
		.s22 { opacity: .3;fill: #8cdec1 } 
		.s23 { fill: #e5e7e6 } 
		.s24 { fill: none;stroke: #455a64;stroke-linecap: round;stroke-linejoin: round } 
		.s25 { fill: none;stroke: #455a64;stroke-linecap: round;stroke-linejoin: round;stroke-width: 2 } 
		.s26 { fill: #8d0d0d } 
		.s27 { opacity: .1;fill: #000000 } 
		.s28 { opacity: .2;fill: #000000 } 
		.s29 { opacity: .79;fill: #074530 } 
		.s30 { opacity: .1;fill: #ffffff } 
		.s31 { fill: #f0f0f0 } 
		.s32 { fill: #05295c } 
		.s33 { fill: #ffbda7 } 
		.s34 { fill: #162e50 } 
		.s35 { fill: #f0997a } 
		.s36 { fill: #b16668 } 
		.s37 { fill: #f28f8f } 
		.s38 { fill: #ebfff8 } 
		.s39 { fill: #ffa8a7 } 
	</style>
	<path id="&lt;Path&gt;" class="s0" d="m3200 0v2000h-3200v-2000z"/>
	<g id="Floor">
		<path id="Floor 00000080189290557549841290000000546047596614958750 " class="s1" d="m166 904.6c-184.5-106.5-184.5-279.2 0-385.7 184.4-106.5 483.6-106.5 668 0 184.5 106.5 184.5 279.2 0 385.7-184.4 106.5-483.6 106.5-668 0z"/>
	</g>
	<g id="Shadows">
		<path id="Shadow 00000034777595821867854320000008688726382151253665 " class="s2" d="m830.9 841.9l-23.9 5.3-5.1 2.9-42-24.3 5-2.9 9.2-13.8-28.8-16.6-23.9 5.3-26.5 15.3-10 14.3 28.8 16.6 24.7-5.8 6.2-3.6 42.1 24.3-6.2 3.6-10 14.3 28.8 16.6 24.7-5.8 26.5-15.3 9.2-13.8z"/>
		<path id="Shadow 40 " class="s2" d="m941.9 697c-40.8 23.6-106.8 23.6-147.6 0-40.7-23.5-40.7-61.6 0-85.1 40.8-23.6 106.8-23.6 147.6 0 40.7 23.5 40.7 61.6 0 85.1z"/>
		<path id="Shadow 00000107579018398189580550000008470813470848124554 " class="s3" d="m344.4 655.6l-323.6 186.8c-7.4 4.3-7.4 11.2 0 15.5l38.7 22.3c7.4 4.3 19.4 4.3 26.9 0l323.6-186.8c7.4-4.3 7.4-11.2 0-15.5l-38.7-22.3c-7.4-4.3-19.4-4.3-26.9 0z"/>
		<path id="Shadow" class="s3" d="m439.5 693.7l-208.5 120.4c-7.4 4.3-7.4 11.2 0 15.5l38.7 22.3c7.4 4.3 19.4 4.3 26.9 0l208.5-120.4c7.4-4.3 7.4-11.2 0-15.5l-38.7-22.3c-7.4-4.3-19.5-4.3-26.9 0z"/>
		<path id="Shadow 00000080206893885240083960000017371841521241505724 " class="s2" d="m635.3 792.4c51.4 29.6 51.4 77.8 0 107.5-51.4 29.6-134.8 29.6-186.2 0-51.4-29.7-51.4-77.9 0-107.5 51.4-29.7 134.8-29.7 186.2 0z"/>
		<path id="Shadow 00000021106921104296092640000000719569547276182944 " class="s2" d="m849 782.3l-36.8 21.2 13.5 29 50.2 7.7 36.7-21.2-13.4-28.9z"/>
		<path id="Shadow 37 " class="s2" d="m803.5 738c-47 27.1-123.2 27.1-170.2 0-47-27.1-47-71.1 0-98.3 47-27.1 123.2-27.1 170.2 0 47 27.2 47 71.2 0 98.3z"/>
	</g>
	<g id="Bottle">
		<g id="Bottle 00000089564634863418076420000016107659714375272358 ">
			<g id="Bottle of Water">
				<g id="Bottle">
					<g id="&lt;Group&gt;">
						<path id="&lt;Path&gt;" class="s4" d="m953 281.5c0-32.2-29.5-62.8-42.3-74.9-6.9-6.4-11.1-9.6-13-13.6-1.7-3.5-1.4-5.4-1.4-12.3h-28.6-28.7c0 6.9 0.3 8.8-1.4 12.3-1.9 4-6.1 7.2-12.9 13.6-12.9 12.1-42.4 42.7-42.4 74.9q0 4.3 1.3 8.7-1.3 4.3-1.3 8.7v13.8q0 4.1 1.2 8.2c-0.9 3-1.3 6.1-1.2 9.2v17.3c0 5.8 1.7 11.4 5 16.2l3.7 5.4c3.3 4.7 5 10.3 5 16.1 0 4.6-1.1 9.1-3.2 13.2l-7.3 13.8c-2.1 4.1-3.2 8.6-3.2 13.2v221.2c0 12.6 8.3 25.2 25 34.9 33.3 19.2 87.4 19.2 120.7 0 16.7-9.7 25-22.3 25-34.9v-221.2c0-4.6-1.1-9.1-3.2-13.2l-7.3-13.8c-2.1-4.1-3.2-8.6-3.2-13.2 0-5.8 1.7-11.4 5-16.1l3.7-5.4c3.3-4.8 5-10.4 5-16.2v-17.3q0.2-4.6-1.2-9.2 1.2-4.1 1.2-8.2v-13.8q0-4.4-1.3-8.7 1.3-4.4 1.3-8.7z"/>
					</g>
					<g id="&lt;Group&gt;">
						<g id="&lt;Group&gt;">
							<path id="&lt;Path&gt;" class="s5" d="m782.3 347.8c0 12.6 8.3 25.2 25 34.8 33.3 19.3 87.4 19.3 120.7 0 16.7-9.6 25-22.2 25-34.8v-18.8c0 12.6-8.3 25.2-25 34.9-33.3 19.2-87.4 19.2-120.7 0-16.7-9.7-25-22.3-25-34.9z"/>
							<path id="&lt;Path&gt;" class="s5" d="m953 281.5q0 2.2-0.3 4.4-0.1 0.5-0.2 1-0.3 1.6-0.8 3.3c-3 9.6-10.9 18.7-23.7 26.1-33.3 19.3-87.4 19.3-120.7 0-12.8-7.4-20.7-16.6-23.7-26.1q0-0.3-0.1-0.5-0.2-0.6-0.3-1.2-0.9-3.5-0.9-7c0-32.2 29.5-62.8 42.4-74.9 6.8-6.4 11-9.6 12.9-13.6 1.7-3.5 1.4-5.4 1.4-12.3h57.3c0 6.9-0.3 8.8 1.4 12.3 1.9 4 6.1 7.2 13 13.6 12.8 12.1 42.3 42.7 42.3 74.9z"/>
							<path id="&lt;Path&gt;" class="s5" d="m922.7 442.5c-30.4 17.5-79.7 17.5-110.1 0-20.8-12-27.4-29.1-19.8-44.3q0 0 0 0.1l-7.3 13.8c-2.1 4.1-3.2 8.6-3.2 13.2v221.2c0 12.6 8.3 25.2 25 34.9 33.3 19.2 87.4 19.2 120.7 0 16.7-9.7 25-22.3 25-34.9v-221.2c0-4.6-1.1-9.1-3.2-13.2l-7.3-13.8q0-0.1 0-0.1c7.6 15.2 1 32.3-19.8 44.3z"/>
						</g>
						<g id="&lt;Group&gt;" style="opacity: .7">
							<path id="&lt;Path&gt;" class="s4" d="m782.3 347.8c0 12.6 8.3 25.2 25 34.8 33.3 19.3 87.4 19.3 120.7 0 16.7-9.6 25-22.2 25-34.8v-18.8c0 12.6-8.3 25.2-25 34.9-33.3 19.2-87.4 19.2-120.7 0-16.7-9.7-25-22.3-25-34.9z"/>
							<path id="&lt;Path&gt;" class="s6" d="m953 281.5q0 2.2-0.3 4.4-0.1 0.5-0.2 1-0.3 1.6-0.8 3.3c-3 9.6-10.9 18.7-23.7 26.1-33.3 19.3-87.4 19.3-120.7 0-12.8-7.4-20.7-16.6-23.7-26.1q0-0.3-0.1-0.5-0.2-0.6-0.3-1.2-0.9-3.5-0.9-7c0-32.2 29.5-62.8 42.4-74.9 6.8-6.4 11-9.6 12.9-13.6 1.7-3.5 1.4-5.4 1.4-12.3h57.3c0 6.9-0.3 8.8 1.4 12.3 1.9 4 6.1 7.2 13 13.6 12.8 12.1 42.3 42.7 42.3 74.9z"/>
							<path id="&lt;Path&gt;" class="s4" d="m922.7 442.5c-30.4 17.5-79.7 17.5-110.1 0-20.8-12-27.4-29.1-19.8-44.3q0 0 0 0.1l-7.3 13.8c-2.1 4.1-3.2 8.6-3.2 13.2v221.2c0 12.6 8.3 25.2 25 34.9 33.3 19.2 87.4 19.2 120.7 0 16.7-9.7 25-22.3 25-34.9v-221.2c0-4.6-1.1-9.1-3.2-13.2l-7.3-13.8q0-0.1 0-0.1c7.6 15.2 1 32.3-19.8 44.3z"/>
						</g>
					</g>
				</g>
				<g id="Water">
					<path id="&lt;Path&gt;" class="s7" d="m942.8 292.9q0.9 3 0.9 6v13.8q0 2.8-0.8 5.6l-0.7 2.6 0.7 2.5c0.6 2.1 0.9 4.2 0.8 6.4l-0.4 9.6h0.4v8c0 3.9-1.1 7.7-3.3 10.9l-3.8 5.4c-4.3 6.3-6.6 13.7-6.6 21.4 0 6.1 1.5 12.1 4.3 17.5l7.2 13.8c1.5 2.8 2.2 5.9 2.2 9v221.1c0 9.7-7.2 19.3-20.3 26.8-14.8 8.5-34.5 13.2-55.8 13.2-21.1 0-40.9-4.7-55.7-13.2-13.1-7.5-20.3-17.1-20.3-26.8v-221.1c0-3.1 0.7-6.2 2.2-9l7.2-13.8c2.8-5.4 4.3-11.4 4.3-17.5 0-7.7-2.3-15.1-6.6-21.4l-3.7-5.4c-2.3-3.2-3.4-7-3.4-10.9v-8h0.3l-0.3-9.6c-0.1-2.2 0.2-4.3 0.8-6.4l0.7-2.5-0.7-2.6q-0.8-2.8-0.8-5.6v-13.8q0-3 0.9-6l0.9-2.7-0.9-2.8q-0.9-3-0.9-5.9c0-11.3 4.3-22.6 10.4-33q0-0.1 0.1-0.2 0.3-0.5 0.7-1.1 0.1-0.3 0.3-0.5c3.4-5.1 8.6-9.9 15.8-14.1 26.9-15.6 70.6-15.6 97.5 0 7.2 4.2 12.4 9 15.8 14.1q0.2 0.2 0.3 0.5 0.4 0.6 0.7 1.1 0.1 0.1 0.1 0.2c6.1 10.4 10.4 21.7 10.4 33 0 2-0.3 4-0.9 5.9l-0.8 2.8z"/>
					<path id="&lt;Path&gt;" class="s8" d="m942.8 292.9q0.9 3 0.9 6v13.8q0 2.8-0.8 5.6l-0.7 2.6 0.7 2.5c0.6 2.1 0.9 4.2 0.8 6.4l-0.4 9.6h0.4v8c0 3.9-1.1 7.7-3.3 10.9l-3.8 5.4c-4.3 6.3-6.6 13.7-6.6 21.4 0 6.1 1.5 12.1 4.3 17.5l7.2 13.8c1.5 2.8 2.2 5.9 2.2 9v221.1c0 9.7-7.2 19.3-20.3 26.8-14.8 8.5-34.5 13.2-55.8 13.2-21.1 0-40.9-4.7-55.7-13.2-13.1-7.5-20.3-17.1-20.3-26.8v-221.1c0-3.1 0.7-6.2 2.2-9l7.2-13.8c2.8-5.4 4.3-11.4 4.3-17.5 0-7.7-2.3-15.1-6.6-21.4l-3.7-5.4c-2.3-3.2-3.4-7-3.4-10.9v-8h0.3l-0.3-9.6c-0.1-2.2 0.2-4.3 0.8-6.4l0.7-2.5-0.7-2.6q-0.8-2.8-0.8-5.6v-13.8q0-3 0.9-6l0.9-2.7-0.9-2.8q-0.9-3-0.9-5.9c0-11.3 4.3-22.6 10.4-33q0-0.1 0.1-0.2 0.3-0.5 0.7-1.1 0.1-0.3 0.3-0.5c3.4-5.1 8.6-9.9 15.8-14.1 26.9-15.6 70.6-15.6 97.5 0 7.2 4.2 12.4 9 15.8 14.1q0.2 0.2 0.3 0.5 0.4 0.6 0.7 1.1 0.1 0.1 0.1 0.2c6.1 10.4 10.4 21.7 10.4 33 0 2-0.3 4-0.9 5.9l-0.8 2.8z"/>
					<path id="&lt;Path&gt;" class="s9" d="m916.4 288.9c-26.9 15.6-70.6 15.6-97.5 0-19-10.9-24.6-26.6-16.9-40.4q0-0.1 0.1-0.2 0.3-0.5 0.7-1.1 0.1-0.3 0.3-0.5c3.4-5.1 8.6-9.9 15.8-14.1 26.9-15.6 70.6-15.6 97.5 0 7.2 4.2 12.4 9 15.8 14.1q0.2 0.2 0.3 0.5 0.4 0.6 0.7 1.1 0.1 0.1 0.1 0.2c7.7 13.8 2.1 29.5-16.9 40.4z"/>
				</g>
				<g id="Shadows 00000112601493232519778460000002376797234021878681 ">
					<g id="&lt;Group&gt;">
						<path id="&lt;Compound Path&gt;" class="s4" d="m943.5 335.4c-4 4.4-9.1 8.5-15.5 12.2-33.3 19.2-87.4 19.2-120.7 0-6.4-3.7-11.5-7.8-15.5-12.2l0.1 4h-0.3v8q0 2.4 0.5 4.6c3.9 4.3 9 8.3 15.2 11.9 33.3 19.2 87.4 19.2 120.7 0 6.2-3.6 11.3-7.6 15.2-11.9q0.5-2.2 0.5-4.6v-8h-0.4zm-9.1 67.2c-2.9-5.3-4.3-11.4-4.3-17.5q0-1.9 0.2-3.8-1.1 0.7-2.2 1.4c-33.4 19.2-87.4 19.2-120.7 0q-1.2-0.7-2.3-1.4 0.2 1.9 0.2 3.8c0 6.1-1.4 12.2-4.3 17.5l-7.2 13.9c-0.8 1.6-1.4 3.2-1.7 5 3.2 7.7 10.1 15 20.5 21 30.4 17.6 79.8 17.6 110.2 0 10.4-6 17.3-13.3 20.5-21-0.3-1.8-0.9-3.5-1.7-5zm-6.3-86.3c-33.4 19.2-87.4 19.2-120.7 0-6.5-3.8-11.8-8-15.7-12.5v8.9q0 2.8 0.8 5.6l0.7 2.6-0.4 1.5c3.8 4 8.6 7.8 14.6 11.3 33.3 19.2 87.3 19.2 120.7 0 5.9-3.5 10.8-7.3 14.6-11.3l-0.5-1.5 0.8-2.6q0.8-2.8 0.8-5.6v-8.9c-4 4.5-9.2 8.7-15.7 12.5z"/>
					</g>
					<g id="&lt;Group&gt;">
						<path id="&lt;Path&gt;" class="s7" d="m917.2 613.5c-27.3-15.2-71.7-15.2-99.1 0-13.7 7.5-20.5 17.4-20.5 27.4v3.5c0 8.5 6.6 16.9 18.7 23.6 13.6 7.5 31.8 11.7 51.3 11.7 19.6 0 37.8-4.2 51.4-11.7 12.1-6.7 18.8-15.1 18.8-23.6v-3.5c0-9.9-6.9-19.8-20.6-27.4z"/>
						<path id="&lt;Path&gt;" class="s10" d="m921.2 610.5c-27.3-15.2-71.7-15.2-99.1 0-13.7 7.5-20.5 17.4-20.5 27.4v3.5c0 8.5 6.6 16.9 18.7 23.6 13.6 7.5 31.8 11.7 51.3 11.7 19.6 0 37.8-4.2 51.4-11.7 12.1-6.7 18.8-15.1 18.8-23.6v-3.5c0-9.9-6.9-19.8-20.6-27.4z"/>
					</g>
				</g>
				<g id="&lt;Group&gt;" style="opacity: .2">
				</g>
				<g id="Cap">
					<g id="&lt;Group&gt;">
						<path id="&lt;Path&gt;" class="s1" d="m894.9 158.8c-15.1-8.6-39.4-8.6-54.5 0-7.5 4.4-11.2 10-11.2 15.7 0 1.1 0 5.2 0 6.2 0 5.7 3.7 11.4 11.2 15.8 15.1 8.6 39.4 8.6 54.5 0 7.5-4.4 11.2-10.1 11.2-15.8 0-1 0-5.1 0-6.1 0-5.7-3.7-11.4-11.2-15.8z"/>
						<path id="&lt;Path&gt;" class="s4" d="m840.4 190.3c-15-8.7-15-22.8 0-31.5 15.1-8.6 39.4-8.6 54.5 0 15 8.7 15 22.8 0 31.5-15.1 8.7-39.4 8.7-54.5 0z"/>
					</g>
					<g id="&lt;Group&gt;">
						<path id="&lt;Path&gt;" class="s4" d="m894.1 150.8c-14.6-8.4-38.3-8.4-52.9 0-7.3 4.2-10.9 9.7-10.9 15.2 0 1 0 5.1 0 6.1 0 5.5 3.6 11 10.9 15.3 14.6 8.4 38.3 8.4 52.9 0 7.3-4.3 11-9.8 11-15.3-0.1-1-0.1-5 0-6 0-5.6-3.7-11.1-11-15.3z"/>
						<path id="&lt;Path&gt;" class="s1" d="m841.2 181.4c-14.6-8.5-14.6-22.2 0-30.6 14.6-8.4 38.3-8.4 52.9 0 14.6 8.4 14.6 22.1 0 30.6-14.6 8.4-38.3 8.4-52.9 0z"/>
					</g>
					<g id="&lt;Group&gt;">
						<path id="&lt;Path&gt;" class="s4" d="m894.9 119c-15.1-8.7-39.4-8.7-54.5 0-7.5 4.3-11.2 10-11.2 15.6 0 1.1 0 28.6 0 29.6 0 5.7 3.7 11.4 11.2 15.8 15.1 8.6 39.4 8.6 54.5 0 7.5-4.4 11.2-10.1 11.2-15.8 0-1 0-28.5 0-29.5 0-5.7-3.7-11.4-11.2-15.7z"/>
					</g>
					<g id="Lines 1 " style="opacity: .15">
						<path id="&lt;Path&gt;" class="s11" d="m868.9 162.3v18.7c0 0.5-0.4 1-0.9 1q-0.3 0-0.6 0c-0.5 0-0.9-0.5-0.9-1v-18.7c0-0.5 0.4-0.9 0.9-0.9q0.3 0 0.6 0c0.5 0 0.9 0.4 0.9 0.9z"/>
						<path id="&lt;Path&gt;" class="s11" d="m862.6 162.1v18.8c0 0.5-0.4 0.9-0.9 0.8q-0.3 0-0.5 0c-0.5-0.1-0.9-0.5-0.9-1.1v-18.7c0-0.5 0.4-0.9 0.9-0.8q0.2 0 0.5 0c0.5 0.1 0.9 0.5 0.9 1z"/>
						<path id="&lt;Path&gt;" class="s11" d="m856.2 161.3v18.7c0 0.6-0.4 0.9-0.9 0.8q-0.2 0-0.4-0.1c-0.5-0.1-0.9-0.6-0.9-1.1v-18.7c0-0.5 0.4-0.9 0.9-0.7q0.2 0 0.4 0c0.5 0.1 0.9 0.6 0.9 1.1z"/>
						<path id="&lt;Path&gt;" class="s11" d="m849.9 159.8v18.8c0 0.5-0.4 0.8-0.9 0.6q-0.1 0-0.3-0.1c-0.5-0.2-0.9-0.7-0.9-1.2v-18.7c0-0.6 0.4-0.8 0.9-0.7q0.2 0.1 0.3 0.1c0.5 0.2 0.9 0.7 0.9 1.2z"/>
						<path id="&lt;Path&gt;" class="s11" d="m843.9 157.6v18.7c0 0.5-0.4 0.8-0.9 0.6q-0.1-0.1-0.3-0.2c-0.4-0.2-0.8-0.8-0.8-1.4v-18.7c0-0.5 0.4-0.7 0.8-0.5q0.2 0.1 0.4 0.2c0.4 0.2 0.8 0.8 0.8 1.3z"/>
						<path id="&lt;Path&gt;" class="s11" d="m838.3 154.5v18.7c0 0.5-0.4 0.7-0.8 0.4q-0.2-0.2-0.4-0.3c-0.4-0.3-0.7-1-0.7-1.5v-18.7c0-0.5 0.3-0.7 0.7-0.4q0.2 0.2 0.4 0.3c0.4 0.3 0.8 0.9 0.8 1.5z"/>
						<path id="&lt;Path&gt;" class="s11" d="m833.2 150v18.7c0 0.6-0.3 0.7-0.6 0.3q-0.3-0.5-0.7-0.9c-0.2-0.5-0.5-1.2-0.5-1.7v-18.8c0-0.5 0.3-0.5 0.5-0.1q0.4 0.4 0.7 0.9c0.3 0.4 0.6 1.1 0.6 1.6z"/>
						<path id="&lt;Path&gt;" class="s11" d="m872.8 162.1v18.8c0 0.5 0.4 0.9 0.9 0.8q0.2 0 0.5 0c0.5-0.1 0.9-0.5 0.9-1.1v-18.7c0-0.5-0.4-0.9-0.9-0.8q-0.3 0-0.5 0c-0.5 0.1-0.9 0.5-0.9 1z"/>
						<path id="&lt;Path&gt;" class="s11" d="m879.1 161.3v18.7c0 0.6 0.5 0.9 1 0.8q0.2 0 0.3-0.1c0.6-0.1 1-0.6 1-1.1v-18.7c0-0.5-0.5-0.9-1-0.7q-0.1 0-0.3 0c-0.5 0.1-1 0.6-1 1.1z"/>
						<path id="&lt;Path&gt;" class="s11" d="m885.4 159.8v18.8c0 0.5 0.4 0.8 0.9 0.6q0.2 0 0.3-0.1c0.5-0.2 0.9-0.7 0.9-1.2v-18.7c0-0.6-0.4-0.8-0.9-0.7q-0.1 0.1-0.3 0.1c-0.5 0.2-0.9 0.7-0.9 1.2z"/>
						<path id="&lt;Path&gt;" class="s11" d="m891.5 157.6v18.7c0 0.5 0.3 0.8 0.8 0.6q0.2-0.1 0.3-0.2c0.5-0.2 0.8-0.8 0.8-1.4v-18.7c0-0.5-0.3-0.7-0.8-0.5q-0.1 0.1-0.3 0.2c-0.5 0.2-0.8 0.8-0.8 1.3z"/>
						<path id="&lt;Path&gt;" class="s11" d="m897.1 154.5v18.7c0 0.5 0.3 0.7 0.7 0.4q0.2-0.2 0.4-0.3c0.4-0.3 0.8-1 0.8-1.5v-18.7c0-0.5-0.4-0.7-0.8-0.4q-0.2 0.2-0.4 0.3c-0.4 0.3-0.7 0.9-0.7 1.5z"/>
						<path id="&lt;Path&gt;" class="s11" d="m902.2 150v18.7q0 0.9 0.6 0.3 0.3-0.5 0.6-0.9c0.3-0.5 0.5-1.2 0.5-1.7v-18.8c0-0.5-0.2-0.5-0.5-0.1q-0.3 0.4-0.7 0.9c-0.3 0.4-0.5 1.1-0.5 1.6z"/>
					</g>
				</g>
			</g>
			<g id="Label 00000076601192749827180640000003401787075963648169 ">
				<path id="&lt;Path&gt;" class="s4" d="m928 485.9c-33.3 19.2-87.4 19.2-120.7 0-16.7-9.6-25-22.3-25-34.9v124.1c0 12.6 8.3 25.2 25 34.8 33.3 19.3 87.4 19.3 120.7 0 16.7-9.6 25-22.2 25-34.8v-124.1c0 12.6-8.3 25.3-25 34.9z"/>
				<g id="&lt;Group&gt;" style="opacity: .2">
				</g>
				<g id="&lt;Group&gt;">
					<path id="&lt;Path&gt;" class="s12" d="m953 541.1v-5.2c-3.8 3.6-7.3 7.4-10.8 11.2-4.5 4.8-9.1 9.7-14 14.1-19 16.8-40.3 22.2-65 16.7-17.9-4.1-33.8-19.4-47-34-2.7-3-5.4-6.2-8-9.2-8.1-9.5-15.9-18.5-25.9-24.7v4.4c8.7 5.9 15.7 14.1 23.1 22.7q3.9 4.7 8.1 9.3c13.5 15 29.9 30.8 48.8 35.1q9.9 2.2 19 2.2c18.1 0 34.4-6.5 49.3-19.7 5.1-4.5 9.8-9.5 14.3-14.4 2.7-2.9 5.4-5.8 8.1-8.5z"/>
					<path id="&lt;Path&gt;" class="s12" d="m929.4 576.6c-21.6 18-44.7 19.4-65.9 14.7-18.8-4.3-36.1-18.2-48.7-32.1-10.9-12.1-20-24.9-32.5-33v42.7c0 12.6 8.3 25.2 25 34.8 33.3 19.3 87.4 19.3 120.7 0 16.7-9.6 25-22.2 25-34.8v-16.4c-7.9 7.7-14.9 16.9-23.6 24.1z"/>
				</g>
				<path id="&lt;Path&gt;" class="s13" d="m818.2 491.2c-3.8-1.6-7.5-3.3-10.9-5.3-16.7-9.6-25-22.3-25-34.9v124.1c0 12.6 8.3 25.2 25 34.8 3.4 2 7.1 3.8 10.9 5.3z"/>
			</g>
		</g>
	</g>
	<g id="Clipboard">
		<g id="Clipboard">
			<g id="Board">
				<g id="Window 16 ">
					<path id="&lt;Path&gt;" class="s5" d="m378.4 90.7l-310.3 178.9c-3.2 1.9-5.8 6.4-5.8 10.1v577.8c0 3.7 2.6 8.2 5.8 10.1l1.2 0.6c3.2 1.9 8.4 1.9 11.6 0l310.3-179.2c3.2-1.8 5.8-6.3 5.8-10v-577.6c0-3.7-2.6-8.2-5.8-10.1l-1.2-0.6c-3.2-1.9-8.4-1.9-11.6 0z"/>
					<path id="&lt;Path&gt;" class="s14" d="m378.4 90.7l-310.3 178.9c-3.2 1.9-5.8 6.4-5.8 10.1v577.8c0 3.7 2.6 8.2 5.8 10.1l1.2 0.6c3.2 1.9 8.4 1.9 11.6 0l310.3-179.2c3.2-1.8 5.8-6.3 5.8-10v-577.6c0-3.7-2.6-8.2-5.8-10.1l-1.2-0.6c-3.2-1.9-8.4-1.9-11.6 0z"/>
					<g id="&lt;Group&gt;">
						<path id="&lt;Path&gt;" class="s5" d="m397 679.4c0 5.1-3.5 8.3-8 10.9l-305.9 176.6c-4.4 2.5-8 0.5-8-4.6v-572.8c0-5.7 3-11 8-13.8l305.9-176.7c3.6-2 8 0.5 8 4.6z"/>
					</g>
					<path id="&lt;Path&gt;" class="s15" d="m397 679.4c0 5.1-3.5 8.3-8 10.9l-305.9 176.6c-4.4 2.5-8 0.5-8-4.6v-572.8c0-5.7 3-11 8-13.8l305.9-176.7c3.6-2 8 0.5 8 4.6z"/>
					<path id="&lt;Path&gt;" class="s5" d="m397 101.4v2.2c0-4.1-4.4-6.6-8-4.6l-305.9 176.7c-2.5 1.4-4.5 3.4-5.8 5.8q-0.1 0.1-0.1 0.2l-13.3-7.6c1.1-1.9 2.6-3.5 4.2-4.5l310.3-178.9c3.2-1.9 8.4-1.9 11.6 0l1.2 0.6c3.2 1.9 5.8 6.4 5.8 10.1z"/>
					<path id="&lt;Path&gt;" class="s14" d="m397 101.4v2.2c0-4.1-4.4-6.6-8-4.6l-305.9 176.7c-2.5 1.4-4.5 3.4-5.8 5.8q-0.1 0.1-0.1 0.2l-13.3-7.6c1.1-1.9 2.6-3.5 4.2-4.5l310.3-178.9c3.2-1.9 8.4-1.9 11.6 0l1.2 0.6c3.2 1.9 5.8 6.4 5.8 10.1z"/>
				</g>
			</g>
			<path id="Shadow 32 " class="s16" d="m389.5 655.9c0 5.2-3.7 8.6-8.3 11.2l-289.1 166.9c-4.5 2.7-8.3 0.5-8.3-4.7v-510.2c0-5.9 3.2-11.3 8.3-14.2l289.1-167c3.7-2.2 8.3 0.5 8.3 4.7v6.2z"/>
			<g id="Form">
				<g id="Paper">
					<path id="&lt;Path&gt;" class="s17" d="m91.2 311.1l288.1-166.3c1.4-0.8 3.6-0.8 4.9 0l2.8 1.6c1.4 0.8 2.5 2.7 2.5 4.3v512.5c0 1.5-1.1 3.4-2.5 4.2l-288 166.3c-1.4 0.8-3.6 0.8-5 0l-2.8-1.6c-1.3-0.8-2.4-2.7-2.4-4.2v-512.5c0-1.6 1.1-3.5 2.4-4.3z"/>
					<path id="&lt;Path&gt;" class="s2" d="m98.4 834q-0.5 0.2-0.9 0.3-0.3 0-0.5 0-0.8 0.1-1.5 0-0.5-0.1-0.9-0.3-0.3-0.1-0.6-0.3l-2.8-1.6c-1.3-0.7-2.4-2.6-2.4-4.2v-512.5c0-0.8 0.2-1.7 0.7-2.4l7.7 4.4c-0.4 0.8-0.7 1.7-0.7 2.4v512.5c0 1.4 0.8 2 1.9 1.7z"/>
					<g id="&lt;Group&gt;">
						<g id="&lt;Group&gt;">
							<path id="&lt;Path&gt;" class="s5" d="m387 146.4l-2.8-1.6c-1.3-0.8-3.5-0.8-4.9 0l-288.1 166.3c-1.3 0.8-2.4 2.7-2.4 4.3v31.1l7.7 4.5 293-169.2v-31.1c0-1.6-1.1-3.5-2.5-4.3z"/>
							<path id="&lt;Path&gt;" class="s4" d="m387 146.4l-2.8-1.6c-1.3-0.8-3.5-0.8-4.9 0l-288.1 166.3c-1.3 0.8-2.4 2.7-2.4 4.3v31.1l7.7 4.5 293-169.2v-31.1c0-1.6-1.1-3.5-2.5-4.3z"/>
						</g>
						<g id="&lt;Group&gt;">
							<path id="&lt;Path&gt;" class="s5" d="m389.4 149.9c-0.3-1-1.3-1.3-2.4-0.6l-288 166.3c-0.7 0.4-1.4 1-1.8 1.8l-7.7-4.4c0.4-0.8 1.1-1.5 1.7-1.9l288.1-166.3c1.4-0.8 3.6-0.8 4.9 0l2.8 1.6c1.2 0.7 2.1 2.1 2.4 3.5z"/>
							<path id="&lt;Path&gt;" class="s18" d="m389.4 149.9c-0.3-1-1.3-1.3-2.4-0.6l-288 166.3c-0.7 0.4-1.4 1-1.8 1.8l-7.7-4.4c0.4-0.8 1.1-1.5 1.7-1.9l288.1-166.3c1.4-0.8 3.6-0.8 4.9 0l2.8 1.6c1.2 0.7 2.1 2.1 2.4 3.5z"/>
						</g>
						<path id="&lt;Path&gt;" class="s14" d="m88.8 315.4v31.1l7.7 4.5v-31.2c0-0.7 0.3-1.6 0.7-2.4l-7.7-4.4c-0.5 0.7-0.7 1.6-0.7 2.4z"/>
					</g>
				</g>
			</g>
			<g id="Clip">
				<g id="Shadow 31 " style="opacity: .25">
					<path id="&lt;Path&gt;" class="s11" d="m322.8 165.6v24.8c0 6.3-4.2 13.7-9.7 16.8l-47.9 27.7c-2.4 1.3-3.7 4.1-5.2 6.9-1 2.2-2.1 4.3-3.7 6.1-3.7 4.2-11.8 8.6-17.5 10.5q-2.9 0.9-5.8 1.3c-0.7 0.1-1.5 0.2-2.3 0.3-5.3 0.7-11.8 1.6-15.6 3.8l-56.1 32.4c-1.7 1-3.3 1.4-4.9 1.4q-1.8 0-3.3-0.8c-2.2-1.3-3.5-4-3.5-7.4v-24.7c0-6.3 4.3-13.7 9.7-16.9l18.8-10.8q0.2-0.1 0.3-0.1c0.9-0.4 2-0.1 2.5 0.8 0.5 0.9 0.3 2-0.5 2.6q-0.1 0.1-0.3 0.1l-18.8 10.9c-4.2 2.4-7.7 8.5-7.7 13.4v24.7c0 1.9 0.6 3.3 1.6 3.9 0.9 0.6 2.5 0.3 4.1-0.6l56.1-32.4c4.5-2.6 11.5-3.5 17-4.3q1.3-0.1 2.4-0.3 2.4-0.3 5.1-1.2c5.1-1.6 12.6-5.7 15.7-9.3 1.3-1.3 2.2-3.2 3.1-5.1 1.7-3.3 3.4-6.7 6.8-8.7l47.9-27.7c4.2-2.4 7.7-8.5 7.7-13.3v-24.8c0-1.9-0.5-3.3-1.5-3.9-1-0.5-2.5-0.3-4.2 0.6l-16.3 9.5c-0.5-1.2-1.2-2.4-2-3.5l16.3-9.4c3-1.8 5.9-2 8.2-0.7 2.3 1.4 3.5 4 3.5 7.4z"/>
				</g>
				<g id="Clip 1 ">
					<g id="&lt;Group&gt;">
						<g id="&lt;Group&gt;">
							<path id="&lt;Path&gt;" class="s19" d="m287.9 166.1c1.3-0.8 3.1-0.7 5 0.5 4 2.2 7.2 7.8 7.2 12.3 0 2.3-0.8 3.9-2.2 4.6l-113.7 65.7-10.1-17.4z"/>
						</g>
						<path id="&lt;Path&gt;" class="s20" d="m179.2 240.5l118.8-68.6c-1.3-2.2-3.1-4.2-5.1-5.3-0.2-0.2-0.4-0.2-0.7-0.3l-116.9 67.5z"/>
						<path id="&lt;Path&gt;" class="s21" d="m179.2 232.2c-3.9-2.2-7.1-0.4-7.1 4.2 0 4.5 3.2 10 7.1 12.3 3.9 2.3 7.1 0.4 7.1-4.1 0-4.6-3.2-10.1-7.1-12.4z"/>
					</g>
					<g id="&lt;Group&gt;">
						<path id="&lt;Path&gt;" class="s20" d="m324.9 167.4v24.8c0 6.2-4.3 13.6-9.8 16.8l-47.9 27.6c-2.4 1.4-3.7 4.1-5.1 7-1.1 2.1-2.2 4.3-3.7 6.1-3.8 4.2-11.9 8.6-17.6 10.4q-2.9 0.9-5.8 1.3c-0.7 0.2-1.5 0.3-2.3 0.4-5.2 0.7-11.8 1.6-15.6 3.8l-56.1 32.3c-1.7 1-3.3 1.5-4.9 1.5q-1.7 0-3.2-0.8c-2.3-1.4-3.6-4-3.6-7.4v-24.8c0-6.3 4.3-13.7 9.7-16.8l18.9-10.9q0.1 0 0.2-0.1c0.9-0.4 2 0 2.5 0.9 0.5 0.8 0.3 2-0.5 2.5q-0.1 0.1-0.2 0.2l-18.9 10.9c-4.1 2.4-7.7 8.5-7.7 13.3v24.8c0 1.9 0.6 3.3 1.6 3.9 1 0.5 2.5 0.3 4.1-0.6l56.1-32.4c4.5-2.6 11.5-3.6 17-4.3q1.3-0.2 2.4-0.3c1.6-0.3 3.4-0.7 5.1-1.2 5.1-1.6 12.6-5.8 15.8-9.3 1.2-1.4 2.1-3.2 3.1-5.2 1.6-3.3 3.3-6.7 6.7-8.6l47.9-27.7c4.2-2.4 7.7-8.5 7.7-13.3v-24.8c0-1.9-0.5-3.3-1.5-3.9-1-0.6-2.5-0.3-4.2 0.6l-16.3 9.4c-0.5-1.2-1.2-2.4-2-3.4l16.3-9.5c3-1.7 5.9-1.9 8.2-0.6 2.3 1.3 3.6 4 3.6 7.4z"/>
					</g>
				</g>
			</g>
		</g>
		<g id="Clipboard 00000170279357717029538810000017408453382890609836 ">
			<g id="&lt;Group&gt;">
				<path id="&lt;Path&gt;" class="s4" d="m116.5 427.3l143.7-83.1c0.8-0.5 1.5-0.1 1.5 0.8v1.9c0 0.9-0.7 2.1-1.5 2.5l-143.7 83.2c-0.8 0.4-1.4 0-1.4-0.9v-1.9c0-0.9 0.6-2 1.4-2.5z"/>
				<path id="&lt;Path&gt;" class="s1" d="m116.5 441.1l143.7-83.1c0.8-0.5 1.5-0.1 1.5 0.8v1.9c0 0.9-0.7 2.1-1.5 2.5l-143.7 83.2c-0.8 0.4-1.4 0.1-1.4-0.9v-1.9c0-0.9 0.6-2 1.4-2.5z"/>
			</g>
			<g id="&lt;Group&gt;">
				<g id="&lt;Group&gt;">
					<path id="&lt;Path&gt;" class="s1" d="m290.5 270.7v78.2c0 4.2 3 5.9 6.6 3.8l60.4-34.9c3.6-2.1 6.6-7.2 6.6-11.3v-78.2c0-4.2-3-5.9-6.6-3.8l-60.4 34.9c-3.6 2.1-6.6 7.2-6.6 11.3z"/>
				</g>
				<g id="&lt;Group&gt;" style="opacity: .4">
					<path id="&lt;Path&gt;" class="s15" d="m290.5 270.7v78.2c0 4.2 3 5.9 6.6 3.8l60.4-34.9c3.6-2.1 6.6-7.2 6.6-11.3v-78.2c0-4.2-3-5.9-6.6-3.8l-60.4 34.9c-3.6 2.1-6.6 7.2-6.6 11.3z"/>
				</g>
				<path id="&lt;Path&gt;" class="s12" d="m336 272.9v-23.1l-17.4 10v23l-17.3 10v23.1l17.3-10v23.1l17.4-10v-23.1l17.3-10v-23z"/>
			</g>
			<g id="&lt;Group&gt;">
				<g id="&lt;Group&gt;">
					<g id="&lt;Group&gt;">
						<g id="&lt;Group&gt;">
							<g id="&lt;Group&gt;">
								<path id="&lt;Compound Path&gt;" fill-rule="evenodd" class="s20" d="m115.8 561q-0.2 0-0.3-0.1c-0.3-0.1-0.4-0.4-0.4-0.6v-24.3c0-0.3 0.1-0.5 0.4-0.7l20.8-12c0.3-0.2 0.6-0.2 0.8 0q0.3 0.1 0.3 0.6v24.3q0 0.4-0.3 0.6l-20.9 12.1q-0.2 0.1-0.4 0.1zm0.8-24.6v22.6l19.4-11.2v-22.6z"/>
							</g>
						</g>
						<g id="&lt;Group&gt;">
							<path id="&lt;Path&gt;" class="s2" d="m144.5 520.3v1.7c0 0.9 0.7 1.3 1.5 0.8l34.6-20c0.8-0.5 1.5-1.6 1.5-2.5v-1.7c0-0.9-0.7-1.3-1.5-0.8l-34.6 20c-0.8 0.5-1.5 1.6-1.5 2.5z"/>
							<path id="&lt;Path&gt;" class="s2" d="m144.5 530.9v1.7c0 0.9 0.7 1.2 1.5 0.8l89-51.4c0.8-0.5 1.4-1.6 1.4-2.5v-1.7c0-0.9-0.6-1.3-1.4-0.8l-89 51.4c-0.8 0.5-1.5 1.6-1.5 2.5z"/>
							<path id="&lt;Path&gt;" class="s2" d="m144.5 540.9v1.7c0 0.9 0.7 1.3 1.5 0.8l89-51.4c0.8-0.4 1.4-1.5 1.4-2.5v-1.6c0-0.9-0.6-1.3-1.4-0.9l-89 51.5c-0.8 0.4-1.5 1.5-1.5 2.4z"/>
						</g>
						<g id="&lt;Group&gt;">
							<path id="&lt;Path&gt;" class="s1" d="m126 549.6l-4.8-4.6 1.6-3.5 2.7 2.7 12-25.4 2.1 2z"/>
						</g>
					</g>
				</g>
				<g id="&lt;Group&gt;">
					<g id="&lt;Group&gt;">
						<g id="&lt;Group&gt;">
							<g id="&lt;Group&gt;">
								<path id="&lt;Compound Path&gt;" fill-rule="evenodd" class="s20" d="m115.8 604.3q-0.2 0-0.3-0.1c-0.3-0.2-0.4-0.4-0.4-0.7v-24.3c0-0.2 0.1-0.5 0.4-0.6l20.8-12.1c0.3-0.1 0.6-0.1 0.8 0 0.2 0.2 0.3 0.4 0.3 0.7v24.3c0 0.2-0.1 0.5-0.3 0.6l-20.9 12.1q-0.2 0.1-0.4 0.1zm0.8-24.7v22.6l19.4-11.2v-22.6z"/>
							</g>
						</g>
						<g id="&lt;Group&gt;">
							<path id="&lt;Path&gt;" class="s2" d="m144.5 563.6v1.6c0 0.9 0.7 1.3 1.5 0.9l34.6-20.1c0.8-0.4 1.5-1.5 1.5-2.4v-1.7c0-0.9-0.7-1.3-1.5-0.8l-34.6 20c-0.8 0.4-1.5 1.5-1.5 2.5z"/>
							<path id="&lt;Path&gt;" class="s2" d="m144.5 574.1v1.7c0 0.9 0.7 1.3 1.5 0.8l89-51.4c0.8-0.4 1.4-1.5 1.4-2.5v-1.6c0-1-0.6-1.3-1.4-0.9l-89 51.5c-0.8 0.4-1.5 1.5-1.5 2.4z"/>
							<path id="&lt;Path&gt;" class="s2" d="m144.5 584.2v1.7c0 0.9 0.7 1.3 1.5 0.8l89-51.4c0.8-0.5 1.4-1.6 1.4-2.5v-1.7c0-0.9-0.6-1.2-1.4-0.8l-89 51.4c-0.8 0.5-1.5 1.6-1.5 2.5z"/>
						</g>
						<g id="&lt;Group&gt;">
							<path id="&lt;Path&gt;" class="s1" d="m126 592.9l-4.8-4.7 1.6-3.4 2.7 2.6 12-25.3 2.1 2z"/>
						</g>
					</g>
				</g>
				<g id="&lt;Group&gt;">
					<g id="&lt;Group&gt;">
						<g id="&lt;Group&gt;">
							<g id="&lt;Group&gt;">
								<g id="&lt;Group&gt;">
									<path id="&lt;Compound Path&gt;" fill-rule="evenodd" class="s20" d="m115.8 647.5q-0.2 0-0.3-0.1c-0.3-0.1-0.4-0.4-0.4-0.6v-24.3c0-0.3 0.1-0.5 0.4-0.6l20.8-12.1c0.3-0.1 0.6-0.1 0.8 0 0.2 0.1 0.3 0.4 0.3 0.6v24.3c0 0.3-0.1 0.5-0.3 0.7l-20.9 12q-0.2 0.1-0.4 0.1zm0.8-24.6v22.6l19.4-11.2v-22.6z"/>
								</g>
							</g>
							<g id="&lt;Group&gt;">
								<path id="&lt;Path&gt;" class="s2" d="m144.5 606.8v1.7c0 0.9 0.7 1.3 1.5 0.8l34.6-20c0.8-0.5 1.5-1.6 1.5-2.5v-1.7c0-0.9-0.7-1.2-1.5-0.8l-34.6 20c-0.8 0.5-1.5 1.6-1.5 2.5z"/>
								<path id="&lt;Path&gt;" class="s2" d="m144.5 617.4v1.7c0 0.9 0.7 1.3 1.5 0.8l89-51.4c0.8-0.5 1.4-1.6 1.4-2.5v-1.7c0-0.9-0.6-1.3-1.4-0.8l-89 51.4c-0.8 0.5-1.5 1.6-1.5 2.5z"/>
								<path id="&lt;Path&gt;" class="s2" d="m144.5 627.5v1.6c0 1 0.7 1.3 1.5 0.9l89-51.5c0.8-0.4 1.4-1.5 1.4-2.4v-1.7c0-0.9-0.6-1.3-1.4-0.8l-89 51.4c-0.8 0.5-1.5 1.6-1.5 2.5z"/>
							</g>
							<g id="&lt;Group&gt;">
								<path id="&lt;Path&gt;" class="s1" d="m126 636.2l-4.8-4.7 1.6-3.5 2.7 2.7 12-25.3 2.1 2z"/>
							</g>
						</g>
					</g>
				</g>
			</g>
			<g id="&lt;Group&gt;">
				<g id="&lt;Group&gt;">
					<g id="&lt;Group&gt;">
						<g id="&lt;Group&gt;">
							<g id="&lt;Group&gt;">
								<path id="&lt;Compound Path&gt;" fill-rule="evenodd" class="s20" d="m254.5 482.6q-0.2 0-0.3-0.1c-0.3-0.2-0.4-0.4-0.4-0.7v-24.3c0-0.2 0.1-0.5 0.4-0.6l20.9-12.1c0.2-0.1 0.5-0.1 0.7 0 0.2 0.2 0.4 0.4 0.4 0.7v24.3c0 0.2-0.2 0.5-0.4 0.6l-20.9 12.1q-0.2 0.1-0.4 0.1zm0.8-24.6v22.6l19.4-11.3v-22.6z"/>
							</g>
						</g>
						<g id="&lt;Group&gt;">
							<path id="&lt;Path&gt;" class="s2" d="m283.3 441.9v1.6c0 1 0.6 1.3 1.4 0.9l34.6-20.1c0.8-0.4 1.5-1.5 1.5-2.4v-1.7c0-0.9-0.7-1.3-1.5-0.8l-34.6 20c-0.8 0.4-1.4 1.6-1.4 2.5z"/>
							<path id="&lt;Path&gt;" class="s2" d="m283.3 452.4v1.7c0 0.9 0.6 1.3 1.4 0.8l89-51.4c0.8-0.4 1.4-1.5 1.4-2.5v-1.6c0-0.9-0.6-1.3-1.4-0.9l-89 51.5c-0.8 0.4-1.4 1.5-1.4 2.4z"/>
							<path id="&lt;Path&gt;" class="s2" d="m283.3 462.5v1.7c0 0.9 0.6 1.3 1.4 0.8l89-51.4c0.8-0.5 1.4-1.6 1.4-2.5v-1.7c0-0.9-0.6-1.2-1.4-0.8l-89 51.4c-0.8 0.5-1.4 1.6-1.4 2.5z"/>
						</g>
						<g id="&lt;Group&gt;">
							<path id="&lt;Path&gt;" class="s1" d="m264.7 471.2l-4.8-4.7 1.6-3.4 2.8 2.6 11.9-25.3 2.1 2z"/>
						</g>
					</g>
				</g>
				<g id="&lt;Group&gt;">
					<g id="&lt;Group&gt;">
						<g id="&lt;Group&gt;">
							<g id="&lt;Group&gt;">
								<path id="&lt;Compound Path&gt;" fill-rule="evenodd" class="s20" d="m254.5 525.8q-0.2 0-0.3-0.1c-0.3-0.1-0.4-0.4-0.4-0.6v-24.3c0-0.3 0.1-0.5 0.4-0.6l20.9-12.1c0.2-0.1 0.5-0.1 0.7 0 0.2 0.1 0.4 0.4 0.4 0.6v24.3c0 0.3-0.2 0.5-0.4 0.7l-20.9 12q-0.2 0.1-0.4 0.1zm0.8-24.6v22.6l19.4-11.2v-22.6z"/>
							</g>
						</g>
						<g id="&lt;Group&gt;">
							<path id="&lt;Path&gt;" class="s2" d="m283.3 485.1v1.7c0 0.9 0.6 1.3 1.4 0.8l34.6-20c0.8-0.5 1.5-1.6 1.5-2.5v-1.7c0-0.9-0.7-1.2-1.5-0.8l-34.6 20.1c-0.8 0.4-1.4 1.5-1.4 2.4z"/>
							<path id="&lt;Path&gt;" class="s2" d="m283.3 495.7v1.7c0 0.9 0.6 1.3 1.4 0.8l89-51.4c0.8-0.5 1.4-1.6 1.4-2.5v-1.7c0-0.9-0.6-1.3-1.4-0.8l-89 51.4c-0.8 0.5-1.4 1.6-1.4 2.5z"/>
							<path id="&lt;Path&gt;" class="s2" d="m283.3 505.8v1.7c0 0.9 0.6 1.2 1.4 0.8l89-51.4c0.8-0.5 1.4-1.6 1.4-2.5v-1.7c0-0.9-0.6-1.3-1.4-0.8l-89 51.4c-0.8 0.5-1.4 1.6-1.4 2.5z"/>
						</g>
						<g id="&lt;Group&gt;">
							<path id="&lt;Path&gt;" class="s1" d="m264.7 514.5l-4.8-4.7 1.6-3.5 2.8 2.7 11.9-25.3 2.1 2z"/>
						</g>
					</g>
				</g>
				<g id="&lt;Group&gt;">
					<g id="&lt;Group&gt;">
						<g id="&lt;Group&gt;">
							<g id="&lt;Group&gt;">
								<g id="&lt;Group&gt;">
									<path id="&lt;Compound Path&gt;" fill-rule="evenodd" class="s20" d="m254.5 569.1q-0.2 0-0.3-0.1c-0.3-0.1-0.4-0.4-0.4-0.7v-24.2c0-0.3 0.1-0.5 0.4-0.7l20.9-12c0.2-0.2 0.5-0.2 0.7 0 0.2 0.1 0.4 0.3 0.4 0.6v24.3c0 0.2-0.2 0.5-0.4 0.6l-20.9 12.1q-0.2 0.1-0.4 0.1zm0.8-24.6v22.6l19.4-11.2v-22.6z"/>
								</g>
							</g>
							<g id="&lt;Group&gt;">
								<path id="&lt;Path&gt;" class="s2" d="m283.3 528.4v1.7c0 0.9 0.6 1.2 1.4 0.8l34.6-20c0.8-0.5 1.5-1.6 1.5-2.5v-1.7c0-0.9-0.7-1.3-1.5-0.8l-34.6 20c-0.8 0.5-1.4 1.6-1.4 2.5z"/>
								<path id="&lt;Path&gt;" class="s2" d="m283.3 539v1.6c0 1 0.6 1.3 1.4 0.9l89-51.5c0.8-0.4 1.4-1.5 1.4-2.4v-1.7c0-0.9-0.6-1.3-1.4-0.8l-89 51.4c-0.8 0.5-1.4 1.6-1.4 2.5z"/>
								<path id="&lt;Path&gt;" class="s2" d="m283.3 549v1.7c0 0.9 0.6 1.3 1.4 0.8l89-51.4c0.8-0.4 1.4-1.5 1.4-2.5v-1.6c0-1-0.6-1.3-1.4-0.9l-89 51.5c-0.8 0.4-1.4 1.5-1.4 2.4z"/>
							</g>
							<g id="&lt;Group&gt;">
								<path id="&lt;Path&gt;" class="s1" d="m264.7 557.7l-4.8-4.7 1.6-3.4 2.8 2.7 11.9-25.4 2.1 2z"/>
							</g>
						</g>
					</g>
				</g>
			</g>
			<g id="&lt;Group&gt;">
				<path id="&lt;Path&gt;" class="s2" d="m249.2 401.6v2.1c0 1.1 0.8 1.6 1.7 1l122.5-70.6c0.9-0.6 1.7-1.9 1.7-3.1v-2c0-1.2-0.8-1.6-1.7-1l-122.5 70.6c-0.9 0.5-1.7 1.9-1.7 3z"/>
				<path id="&lt;Path&gt;" class="s2" d="m249.2 414.8v2.1c0 1.1 0.8 1.6 1.7 1l122.5-70.6c0.9-0.6 1.7-1.9 1.7-3v-2.1c0-1.1-0.8-1.6-1.7-1l-122.5 70.6c-0.9 0.6-1.7 1.9-1.7 3z"/>
				<path id="&lt;Path&gt;" class="s2" d="m249.2 428.1v2c0 1.1 0.8 1.6 1.7 1l122.5-70.6c0.9-0.5 1.7-1.9 1.7-3v-2.1c0-1.1-0.8-1.6-1.7-1l-122.5 70.6c-0.9 0.6-1.7 1.9-1.7 3.1z"/>
			</g>
			<g id="&lt;Group&gt;">
				<path id="&lt;Compound Path&gt;" fill-rule="evenodd" class="s20" d="m124.8 367q2.7-1.5 4.7-1.6 2 0 3.3 1.2 1.3 1.3 2 3.7 0.7 2.5 0.9 5.9 0.1 4 0 8.3-0.2 3.6-0.9 6.8-0.7 3.3-2 6.1-1.3 2.7-3.2 4.9-2 2.3-4.6 3.8l-9.2 5.3q-0.3 0.2-0.6-0.1-0.3-0.3-0.3-0.9v-36.1q0-0.6 0.3-1.2 0.3-0.7 0.6-0.9zm6 12q-0.1-1.7-0.4-3.1-0.4-1.3-1.2-2-0.7-0.7-1.8-0.7-1.2 0-2.7 0.9l-4.9 2.8v25.2l5-2.9q1.5-0.9 2.6-2.2 1.1-1.2 1.8-2.8 0.8-1.5 1.2-3.3 0.3-1.8 0.4-3.6 0.2-4.2 0-8.3z"/>
				<path id="&lt;Compound Path&gt;" class="s20" d="m144 355.4q0.4-0.3 0.7 0 0.3 0.3 0.3 0.9v4.4q0 0.6-0.3 1.2-0.3 0.6-0.7 0.9l-3.1 1.8q-0.4 0.2-0.7-0.1-0.3-0.3-0.3-0.9v-4.3q0-0.7 0.3-1.3 0.3-0.6 0.7-0.8zm0.8 37.7q0 0.6-0.3 1.2-0.3 0.7-0.7 0.9l-2.7 1.6q-0.4 0.2-0.7-0.1-0.3-0.2-0.3-0.9v-26q0-0.6 0.3-1.3 0.3-0.6 0.7-0.8l2.7-1.6q0.4-0.2 0.7 0.1 0.3 0.2 0.3 0.9z"/>
				<path id="&lt;Compound Path&gt;" fill-rule="evenodd" class="s20" d="m148.9 377.7q0-3.1 0.6-6.2 0.6-3.1 1.8-5.9 1.2-2.7 2.8-4.8 1.7-2.1 3.7-3.3 2-1.2 3.7-1 1.6 0.2 2.8 1.5 1.2 1.2 1.8 3.5 0.6 2.2 0.6 5v2.6q0 0.6-0.3 1.2-0.2 0.6-0.6 0.8l-12.2 7q0 1.3 0.4 2.1 0.3 0.8 0.9 1.1 0.6 0.4 1.3 0.2 0.8-0.1 1.6-0.5 1.2-0.7 1.9-1.5 0.7-0.8 1.2-1.6 0.4-0.7 0.6-1 0.3-0.3 0.7-0.5l2.9-1.7q0.4-0.3 0.7 0 0.4 0.3 0.3 0.9 0 0.8-0.5 2.4-0.6 1.5-1.6 3.3-1.1 1.8-2.6 3.5-1.6 1.7-3.6 2.9-2 1.2-3.7 1-1.6-0.1-2.8-1.4-1.2-1.4-1.8-3.8-0.6-2.4-0.6-5.8zm8.9-13.5q-1.1 0.6-1.8 1.5-0.7 0.9-1.2 2-0.6 1-0.8 2.1-0.3 1.1-0.4 2l8.2-4.8q0-0.8-0.2-1.6-0.2-0.8-0.7-1.3-0.4-0.5-1.2-0.5-0.7-0.1-1.9 0.6z"/>
				<path id="&lt;Compound Path&gt;" class="s20" d="m177.1 365.5q0 1.7 0.6 2.4 0.6 0.7 2.2-0.2l2.2-1.3q0.4-0.2 0.7 0 0.3 0.3 0.3 0.9v3.7q0 0.6-0.3 1.3-0.3 0.6-0.7 0.8l-2.7 1.6q-3.4 1.9-5.2 0.4-1.9-1.4-1.9-6.7v-12l-2.4 1.4q-0.4 0.2-0.7-0.1-0.2-0.3-0.2-0.9v-3.7q0-0.6 0.2-1.2 0.3-0.6 0.7-0.9l2.4-1.3v-9.2q0-0.6 0.3-1.2 0.3-0.6 0.7-0.8l2.8-1.6q0.4-0.3 0.7 0 0.3 0.3 0.3 0.9v9.1l4.6-2.7q0.4-0.2 0.7 0.1 0.3 0.3 0.3 0.9v3.7q0 0.6-0.3 1.2-0.3 0.6-0.7 0.8l-4.6 2.8z"/>
				<path id="&lt;Compound Path&gt;" fill-rule="evenodd" class="s20" d="m206 320.2q4.4-2.6 6.8-0.8 2.4 1.8 2.4 8 0 6.1-2.4 10.8-2.4 4.6-6.8 7.1l-5.8 3.4v12.5q0 0.6-0.3 1.2-0.3 0.6-0.7 0.8l-3 1.7q-0.4 0.3-0.7 0-0.2-0.3-0.2-0.9v-36.1q0-0.6 0.2-1.3 0.3-0.6 0.7-0.8zm-5.8 21.5l5.7-3.2q2-1.2 3.3-3.2 1.2-2 1.2-5.1 0-3.1-1.2-3.6-1.3-0.5-3.3 0.7l-5.7 3.2z"/>
				<path id="&lt;Compound Path&gt;" class="s20" d="m223.6 347.6q0 0.7-0.3 1.3-0.3 0.6-0.7 0.8l-2.8 1.6q-0.4 0.2-0.6 0-0.3-0.3-0.3-0.9v-36.7q0-0.6 0.3-1.2 0.2-0.7 0.6-0.9l2.8-1.6q0.4-0.2 0.7 0.1 0.3 0.2 0.3 0.9z"/>
				<path id="&lt;Compound Path&gt;" fill-rule="evenodd" class="s20" d="m228.6 324.3q0.1-1.2 0.7-2.9 0.5-1.6 1.5-3.3 0.9-1.8 2.3-3.3 1.4-1.6 3.3-2.7 1.8-1 3.3-1.1 1.5-0.1 2.6 0.7 1 0.8 1.6 2.7 0.6 1.9 0.6 4.7v16.5q0 0.6-0.3 1.2-0.3 0.6-0.7 0.8l-2.7 1.6q-0.4 0.3-0.7 0-0.3-0.3-0.3-0.9v-1.9q-0.8 2.1-2.2 4.1-1.4 2-3.7 3.2-1.5 0.9-2.8 1-1.2 0.1-2-0.6-0.9-0.7-1.3-2-0.5-1.4-0.5-3.3 0-3.8 1.8-7 1.8-3.2 4.8-5.7l5.9-5q0-2.3-1-2.7-1-0.4-2.4 0.4-0.9 0.6-1.4 1.3-0.6 0.6-1 1.6-0.4 0.6-0.6 0.9-0.3 0.4-0.6 0.6l-3.4 1.9q-0.4 0.2-0.6 0-0.3-0.2-0.2-0.8zm6.1 12.3q1.2-0.7 2.2-1.8 0.9-1.1 1.6-2.4 0.6-1.2 1-2.5 0.3-1.3 0.3-2.5v-0.6l-5 4.2q-1.4 1.3-2.1 2.4-0.7 1.1-0.7 2.4 0 1.2 0.8 1.3 0.8 0.1 1.9-0.5z"/>
				<path id="&lt;Compound Path&gt;" class="s20" d="m267.1 322.5q0 0.7-0.3 1.3-0.3 0.6-0.7 0.8l-2.8 1.6q-0.4 0.2-0.7 0-0.3-0.3-0.3-0.9v-14.2q0-3.4-1-4.8-1-1.4-3.1-0.2-1.9 1.1-3 3.7-1.1 2.7-1.1 6v14.2q0 0.7-0.3 1.3-0.3 0.6-0.7 0.8l-2.8 1.6q-0.4 0.3-0.7 0-0.3-0.3-0.3-0.9v-26.1q0-0.6 0.3-1.2 0.3-0.6 0.7-0.9l2.8-1.6q0.4-0.2 0.7 0.1 0.3 0.3 0.3 0.9v1.3q0.9-2 2.2-3.7 1.2-1.7 3-2.7 2.2-1.3 3.7-1.1 1.5 0.2 2.4 1.5 0.9 1.3 1.3 3.4 0.4 2.2 0.4 4.8z"/>
			</g>
			<g id="&lt;Group&gt;">
				<path id="&lt;Compound Path&gt;" class="s20" d="m120.2 503.3q0 0.6-0.2 1.1-0.3 0.5-0.6 0.7l-1.2 0.7q-0.4 0.2-0.6-0.1-0.3-0.2-0.3-0.7v-25.5l-4.8 8.5q-0.3 0.5-0.6 0.6-0.4 0.1-0.6-0.1l-0.7-1.1q-0.2-0.3-0.2-0.8 0.1-0.5 0.4-1l6.4-11.3q0.2-0.4 0.5-0.6 0.2-0.2 0.5-0.3l1.2-0.8q0.3-0.1 0.6 0.1 0.2 0.2 0.2 0.7z"/>
				<path id="&lt;Compound Path&gt;" class="s20" d="m133.3 480q0.9-1.8 1.4-3.4 0.5-1.5 0.5-3.6-0.1-2.5-1-3.6-0.9-1.1-2.9 0.1-1.1 0.6-1.8 1.5-0.8 0.9-1.3 2-0.5 1.1-0.7 2.3-0.3 1.2-0.5 2.4-0.1 0.6-0.3 1-0.2 0.4-0.5 0.5l-1.4 0.8q-0.2 0.2-0.4 0-0.2-0.2-0.2-0.6 0-1.8 0.5-3.8 0.5-2 1.4-4 0.9-1.9 2.2-3.6 1.3-1.7 3-2.7 1.6-0.9 2.9-0.9 1.3 0.1 2.1 0.9 0.8 0.9 1.3 2.5 0.4 1.5 0.4 3.5 0 1.5-0.1 2.8-0.2 1.3-0.5 2.6-0.4 1.3-0.9 2.6-0.6 1.3-1.3 2.9l-6.8 13.5 9.2-5.3q0.4-0.2 0.6 0 0.3 0.2 0.3 0.7v1.7q0 0.5-0.3 1-0.2 0.5-0.6 0.7l-12.9 7.5q-0.3 0.2-0.6 0-0.2-0.3-0.2-0.8v-1.6q0-0.6 0.1-1 0.2-0.5 0.5-1.2z"/>
				<path id="&lt;Compound Path&gt;" fill-rule="evenodd" class="s20" d="m157.1 463.2q0.1 2 0.1 3.9 0 1.8-0.1 3.9 0 2.7-0.5 5.3-0.4 2.6-1.4 4.9-0.9 2.2-2.3 4-1.4 1.8-3.4 3-2 1.1-3.4 1-1.5-0.2-2.4-1.4-0.9-1.1-1.4-3.2-0.5-2.1-0.5-4.7 0-2.1 0-3.9 0-1.9 0-4 0-2.7 0.5-5.3 0.5-2.6 1.4-4.8 0.9-2.3 2.4-4.1 1.4-1.8 3.4-3 2-1.1 3.4-1 1.4 0.2 2.3 1.4 1 1.2 1.4 3.2 0.5 2.1 0.5 4.8zm-12.5 15q0.1 4.4 1.3 5.8 1.2 1.3 3.6 0 2.3-1.4 3.5-4.2 1.2-2.7 1.3-7.2 0-2.1 0-3.9 0-1.8 0-3.9-0.1-4.4-1.3-5.8-1.2-1.4-3.5 0-2.4 1.3-3.6 4.2-1.2 2.8-1.3 7.2 0 2.1 0 3.9 0 1.9 0 3.9z"/>
				<path id="&lt;Compound Path&gt;" fill-rule="evenodd" class="s20" d="m176.2 452.2q0 2 0 3.9 0 1.8 0 3.9 0 2.7-0.5 5.3-0.5 2.6-1.4 4.9-0.9 2.2-2.4 4-1.4 1.8-3.4 3-2 1.1-3.4 1-1.4-0.2-2.3-1.4-1-1.1-1.4-3.2-0.5-2.1-0.5-4.8-0.1-2-0.1-3.8 0-1.9 0.1-4 0-2.7 0.5-5.3 0.4-2.6 1.4-4.9 0.9-2.2 2.3-4 1.4-1.8 3.4-3 2-1.1 3.4-1 1.5 0.2 2.4 1.4 0.9 1.2 1.4 3.2 0.5 2.1 0.5 4.8zm-12.5 15q0.1 4.4 1.3 5.8 1.2 1.3 3.5 0 2.4-1.4 3.6-4.2 1.2-2.7 1.3-7.2 0-2.1 0-3.9 0-1.8 0-3.9-0.1-4.4-1.3-5.8-1.2-1.4-3.6 0-2.3 1.3-3.5 4.1-1.2 2.9-1.3 7.3 0 2.1 0 3.9 0 1.8 0 3.9z"/>
				<path id="&lt;Compound Path&gt;" class="s20" d="m190.4 453.9v8.9q0 0.5-0.2 1-0.3 0.5-0.6 0.7l-1.1 0.7q-0.4 0.2-0.6-0.1-0.2-0.2-0.2-0.7v-30.4q0-0.5 0.2-1 0.2-0.5 0.6-0.7l1.1-0.6q0.3-0.2 0.6 0 0.2 0.2 0.2 0.7v15.4l5.9-10.4q0.1-0.3 0.4-0.8 0.3-0.4 0.7-0.7l1.5-0.8q0.3-0.2 0.6 0 0.2 0.2 0.2 0.6 0 0.3-0.1 0.5 0 0.2-0.3 0.7l-7.2 12.9 8 6.7q0.2 0.2 0.2 0.3 0.1 0.2 0.1 0.4 0 0.5-0.2 0.9-0.2 0.4-0.5 0.6l-1.5 0.8q-0.4 0.3-0.7 0.2-0.3-0.1-0.5-0.2z"/>
				<path id="&lt;Compound Path&gt;" class="s20" d="m204.2 445.7q0.1 1.8 0.5 2.8 0.4 1.1 1 1.6 0.6 0.5 1.3 0.5 0.7-0.1 1.5-0.5 1.4-0.8 2.4-2.3 1.1-1.4 1.6-3.6 0.2-0.9 0.5-1.3 0.2-0.4 0.5-0.6l0.9-0.5q0.4-0.2 0.6 0 0.3 0.3 0.2 0.8 0 1.1-0.4 2.7-0.5 1.6-1.3 3.2-0.9 1.6-2.1 3.1-1.3 1.5-2.9 2.5-1.7 0.9-3 0.9-1.2-0.1-2.1-1.1-0.9-0.9-1.4-2.6-0.5-1.6-0.6-3.8 0-0.7 0-1.8 0-1.1 0-1.9 0.2-2.3 0.7-4.5 0.5-2.3 1.3-4.2 0.9-1.9 2.2-3.5 1.2-1.6 2.9-2.5 1.6-1 2.9-0.9 1.2 0.1 2.1 0.7 0.8 0.6 1.3 1.7 0.4 1.1 0.4 2.2 0.1 0.5-0.2 1-0.2 0.5-0.6 0.7l-0.9 0.5q-0.3 0.2-0.5 0.1-0.3-0.1-0.5-0.8-0.5-1.6-1.6-1.8-1-0.3-2.4 0.6-0.8 0.4-1.5 1.2-0.8 0.8-1.3 2-0.6 1.2-1 2.7-0.4 1.5-0.5 3.5-0.1 1.7 0 3.2z"/>
				<path id="&lt;Compound Path&gt;" fill-rule="evenodd" class="s20" d="m217.7 442.2q0-1.8 0.5-3.5 0.5-1.7 1.3-3.1 0.9-1.5 2-2.7 1.1-1.3 2.4-2.4l4.2-3.5v-0.6q0-2.3-1-2.9-1-0.6-2.5 0.2-1.3 0.8-2 1.9-0.6 1.2-1.1 2.5-0.2 0.4-0.4 0.7-0.2 0.3-0.6 0.5l-0.9 0.5q-0.3 0.2-0.6 0-0.2-0.3-0.2-0.8 0.1-1 0.5-2.4 0.5-1.3 1.3-2.6 0.8-1.3 1.8-2.4 1.1-1.2 2.2-1.8 1.4-0.8 2.5-0.9 1.2-0.1 2 0.6 0.9 0.7 1.3 2.2 0.5 1.4 0.5 3.6v14.1q0 0.6-0.3 1.1-0.2 0.5-0.5 0.7l-1.1 0.6q-0.4 0.2-0.6 0-0.3-0.3-0.3-0.8v-1.9q-0.2 1.1-0.8 2.1-0.6 1-1.3 1.8-0.7 0.9-1.5 1.6-0.8 0.7-1.5 1.1-1.2 0.7-2.2 0.8-1 0-1.6-0.5-0.7-0.4-1.1-1.4-0.4-1-0.4-2.4zm5.6-0.6q1.1-0.7 2-1.7 0.9-1 1.5-2.3 0.7-1.3 1-2.7 0.3-1.5 0.3-3v-1.2l-3.5 3q-1.9 1.5-3 3.2-1.1 1.6-1.1 3.3 0 0.5 0.1 0.9 0.2 0.4 0.5 0.7 0.3 0.3 0.9 0.2 0.5 0 1.3-0.4z"/>
				<path id="&lt;Compound Path&gt;" class="s20" d="m238 435.3q0 0.5-0.2 1-0.3 0.6-0.6 0.7l-1.1 0.7q-0.3 0.2-0.6-0.1-0.2-0.2-0.2-0.7v-30.4q0-0.5 0.2-1 0.3-0.5 0.6-0.7l1.1-0.6q0.3-0.2 0.6 0 0.2 0.2 0.2 0.7z"/>
			</g>
			<g id="&lt;Group&gt;">
				<g id="&lt;Group&gt;">
					<g id="&lt;Group&gt;">
						<path id="&lt;Compound Path&gt;" fill-rule="evenodd" class="s5" d="m375.1 522.9v128l-0.6 0.4-259 149.5v-128l0.6-0.3zm-2.3 4.1l-34.4 19.8-2.4 1.4-34.4 19.8-2.3 1.4-34.4 19.9-2.4 1.3-34.4 19.9-2.4 1.3-34.3 19.9-2.4 1.4-34.4 19.8-2.4 1.4-34.4 19.8v122.6l34.4-19.9 2.4-1.3 34.4-19.9 2.4-1.4 34.3-19.8 2.4-1.4 34.4-19.8 2.4-1.4 34.4-19.9 2.3-1.3 34.4-19.9 2.4-1.3 34.4-19.9z"/>
					</g>
					<g id="&lt;Group&gt;">
						<path id="&lt;Path&gt;" class="s5" d="m374.6 626.2l-1.8 1.1-34.4 19.8-2.4 1.4-34.4 19.8-2.3 1.4-34.4 19.8-2.4 1.4-34.4 19.8-2.3 1.4-34.4 19.9-2.4 1.3-34.4 19.9-2.3 1.3-34.4 19.9-0.6 0.3-1.2-2 1.8-1 34.4-19.9 2.3-1.3 34.4-19.9 2.4-1.4 34.4-19.8 2.3-1.4 34.4-19.8 2.4-1.4 34.4-19.9 2.3-1.3 34.4-19.9 2.4-1.3 34.4-19.9 0.6-0.3z"/>
					</g>
					<g id="&lt;Group&gt;">
						<path id="&lt;Path&gt;" class="s5" d="m374.5 601.2l-1.7 1-34.4 19.8-2.4 1.4-34.4 19.9-2.3 1.3-34.4 19.9-2.4 1.3-34.4 19.9-2.3 1.4-34.4 19.8-2.4 1.4-34.4 19.8-2.3 1.4-34.4 19.8-0.6 0.4-1.2-2.1 1.8-1 34.4-19.8 2.3-1.4 34.4-19.8 2.4-1.4 34.4-19.9 2.3-1.3 34.4-19.9 2.4-1.3 34.4-19.9 2.3-1.4 34.4-19.8 2.4-1.4 34.4-19.8 0.6-0.4z"/>
					</g>
					<g id="&lt;Group&gt;">
						<path id="&lt;Path&gt;" class="s5" d="m374.5 576.1l-1.7 1 2.3-1.4-2.3 1.4-34.4 19.9-2.4 1.3-34.4 19.9-2.3 1.3-34.4 19.9-2.4 1.4-34.4 19.8-2.3 1.4-34.4 19.8-2.4 1.4-34.4 19.9-2.3 1.3-34.4 19.9-0.6 0.3-1.2-2 1.8-1 34.4-19.9 2.3-1.4 34.4-19.8 2.4-1.4 34.4-19.8 2.3-1.4 34.4-19.9 2.4-1.3 34.4-19.9 2.3-1.3 34.4-19.9 2.4-1.4 34.4-19.8 2.3-1.4-2.3 1.4 0.6-0.3z"/>
					</g>
					<g id="&lt;Group&gt;">
						<path id="&lt;Path&gt;" class="s5" d="m374.5 551l-1.7 1.1 2.3-1.4-2.3 1.4-34.4 19.8-2.4 1.4-34.4 19.8-2.3 1.4-34.4 19.9-2.4 1.3-34.4 19.9-2.3 1.3-34.4 19.9-2.4 1.4-34.4 19.8-2.3 1.4-34.4 19.8-0.6 0.4-1.2-2.1 1.8-1 34.4-19.8 2.3-1.4 34.4-19.9 2.4-1.3 34.4-19.9 2.3-1.3 34.4-19.9 2.4-1.4 34.4-19.8 2.3-1.4 34.4-19.8 2.4-1.4 34.4-19.8 2.3-1.4-2.3 1.4 0.6-0.4z"/>
					</g>
					<g id="&lt;Group&gt;">
						<path id="&lt;Path&gt;" class="s5" d="m338.4 546.2v125.2h-2.4v-125.2z"/>
					</g>
					<g id="&lt;Group&gt;">
						<path id="&lt;Path&gt;" class="s5" d="m301.6 567.4v125.3h-2.3v-125.3z"/>
					</g>
					<g id="&lt;Group&gt;">
						<path id="&lt;Path&gt;" class="s5" d="m264.9 588.6v125.3h-2.4v-125.3z"/>
					</g>
					<g id="&lt;Group&gt;">
						<path id="&lt;Path&gt;" class="s5" d="m228.1 609.8v125.3h-2.3v-125.3z"/>
					</g>
					<g id="&lt;Group&gt;">
						<path id="&lt;Path&gt;" class="s5" d="m191.4 631.1v125.2h-2.4v-125.2z"/>
					</g>
					<g id="&lt;Group&gt;">
						<path id="&lt;Path&gt;" class="s5" d="m154.6 652.3v125.2h-2.3v-125.2z"/>
					</g>
				</g>
				<g id="&lt;Group&gt;" style="opacity: .6">
					<g id="&lt;Group&gt;">
						<path id="&lt;Compound Path&gt;" fill-rule="evenodd" class="s1" d="m375.1 522.9v128l-0.6 0.4-259 149.5v-128l0.6-0.3zm-2.3 4.1l-34.4 19.8-2.4 1.4-34.4 19.8-2.3 1.4-34.4 19.9-2.4 1.3-34.4 19.9-2.4 1.3-34.3 19.9-2.4 1.4-34.4 19.8-2.4 1.4-34.4 19.8v122.6l34.4-19.9 2.4-1.3 34.4-19.9 2.4-1.4 34.3-19.8 2.4-1.4 34.4-19.8 2.4-1.4 34.4-19.9 2.3-1.3 34.4-19.9 2.4-1.3 34.4-19.9z"/>
						<path id="&lt;Path&gt;" class="s2" d="m372.8 602.2v22.3l-34.4 19.9v-22.4z"/>
						<path id="&lt;Path&gt;" class="s2" d="m336 648.5v22.3l-34.4 19.8v-22.3z"/>
						<path id="&lt;Path&gt;" class="s2" d="m299.3 644.6v22.3l-34.4 19.9v-22.3z"/>
						<path id="&lt;Path&gt;" class="s2" d="m262.5 690.9v22.3l-34.4 19.9v-22.4z"/>
						<path id="&lt;Path&gt;" class="s2" d="m225.8 687.1v22.3l-34.4 19.8v-22.3z"/>
						<path id="&lt;Path&gt;" class="s2" d="m189 733.3v22.4l-34.4 19.8v-22.3z"/>
						<path id="&lt;Path&gt;" class="s2" d="m152.3 729.5v22.3l-34.4 19.9v-22.4z"/>
						<path id="&lt;Path&gt;" class="s2" d="m372.8 552.1v22.3l-34.4 19.8v-22.3z"/>
						<path id="&lt;Path&gt;" class="s2" d="m336 598.3v22.4l-34.4 19.8v-22.3z"/>
						<path id="&lt;Path&gt;" class="s2" d="m299.3 594.5v22.3l-34.4 19.9v-22.3z"/>
						<path id="&lt;Path&gt;" class="s2" d="m262.5 640.8v22.3l-34.4 19.9v-22.4z"/>
						<path id="&lt;Path&gt;" class="s2" d="m225.8 636.9v22.4l-34.4 19.8v-22.3z"/>
						<path id="&lt;Path&gt;" class="s2" d="m189 683.2v22.4l-34.4 19.8v-22.3z"/>
						<path id="&lt;Path&gt;" class="s2" d="m152.3 679.4v22.3l-34.4 19.9v-22.4z"/>
					</g>
					<g id="&lt;Group&gt;">
						<path id="&lt;Path&gt;" class="s1" d="m374.6 626.2l-1.8 1.1-34.4 19.8-2.4 1.4-34.4 19.8-2.3 1.4-34.4 19.8-2.4 1.4-34.4 19.8-2.3 1.4-34.4 19.9-2.4 1.3-34.4 19.9-2.3 1.3-34.4 19.9-0.6 0.3-1.2-2 1.8-1 34.4-19.9 2.3-1.3 34.4-19.9 2.4-1.4 34.4-19.8 2.3-1.4 34.4-19.8 2.4-1.4 34.4-19.9 2.3-1.3 34.4-19.9 2.4-1.3 34.4-19.9 0.6-0.3z"/>
					</g>
					<g id="&lt;Group&gt;">
						<path id="&lt;Path&gt;" class="s1" d="m374.5 601.2l-1.7 1-34.4 19.8-2.4 1.4-34.4 19.9-2.3 1.3-34.4 19.9-2.4 1.3-34.4 19.9-2.3 1.4-34.4 19.8-2.4 1.4-34.4 19.8-2.3 1.4-34.4 19.8-0.6 0.4-1.2-2.1 1.8-1 34.4-19.8 2.3-1.4 34.4-19.8 2.4-1.4 34.4-19.9 2.3-1.3 34.4-19.9 2.4-1.3 34.4-19.9 2.3-1.4 34.4-19.8 2.4-1.4 34.4-19.8 0.6-0.4z"/>
					</g>
					<g id="&lt;Group&gt;">
						<path id="&lt;Path&gt;" class="s1" d="m374.5 576.1l-1.7 1 2.3-1.4-2.3 1.4-34.4 19.9-2.4 1.3-34.4 19.9-2.3 1.3-34.4 19.9-2.4 1.4-34.4 19.8-2.3 1.4-34.4 19.8-2.4 1.4-34.4 19.9-2.3 1.3-34.4 19.9-0.6 0.3-1.2-2 1.8-1 34.4-19.9 2.3-1.4 34.4-19.8 2.4-1.4 34.4-19.8 2.3-1.4 34.4-19.9 2.4-1.3 34.4-19.9 2.3-1.3 34.4-19.9 2.4-1.4 34.4-19.8 2.3-1.4-2.3 1.4 0.6-0.3z"/>
					</g>
					<g id="&lt;Group&gt;">
						<path id="&lt;Path&gt;" class="s1" d="m374.5 551l-1.7 1.1 2.3-1.4-2.3 1.4-34.4 19.8-2.4 1.4-34.4 19.8-2.3 1.4-34.4 19.9-2.4 1.3-34.4 19.9-2.3 1.3-34.4 19.9-2.4 1.4-34.4 19.8-2.3 1.4-34.4 19.8-0.6 0.4-1.2-2.1 1.8-1 34.4-19.8 2.3-1.4 34.4-19.9 2.4-1.3 34.4-19.9 2.3-1.3 34.4-19.9 2.4-1.4 34.4-19.8 2.3-1.4 34.4-19.8 2.4-1.4 34.4-19.8 2.3-1.4-2.3 1.4 0.6-0.4z"/>
					</g>
					<g id="&lt;Group&gt;">
						<path id="&lt;Path&gt;" class="s0" d="m338.4 546.2v125.2h-2.4v-125.2z"/>
					</g>
					<g id="&lt;Group&gt;">
						<path id="&lt;Path&gt;" class="s0" d="m301.6 567.4v125.3h-2.3v-125.3z"/>
					</g>
					<g id="&lt;Group&gt;">
						<path id="&lt;Path&gt;" class="s0" d="m264.9 588.6v125.3h-2.4v-125.3z"/>
					</g>
					<g id="&lt;Group&gt;">
						<path id="&lt;Path&gt;" class="s1" d="m228.1 609.8v125.3h-2.3v-125.3z"/>
					</g>
					<g id="&lt;Group&gt;">
						<path id="&lt;Path&gt;" class="s1" d="m191.4 631.1v125.2h-2.4v-125.2z"/>
					</g>
					<g id="&lt;Group&gt;">
						<path id="&lt;Path&gt;" class="s1" d="m154.6 652.3v125.2h-2.3v-125.2z"/>
					</g>
				</g>
			</g>
		</g>
	</g>
	<g id="Scale">
		<g id="Weighing Machine">
			<g id="&lt;Group&gt;">
				<path id="&lt;Path&gt;" class="s4" d="m459.6 461.9l-200.8 115.8c-2.3 1.4-4.2 4.6-4.2 7.3v239.2c0 2.7 1.9 5.9 4.2 7.2l20.9 11.9c2.3 1.3 6.1 1.3 8.4-0.1l200.8-115.8c2.3-1.3 4.2-4.6 4.2-7.2v-239.3c0-2.6-1.9-5.9-4.2-7.2l-20.9-11.8c-2.3-1.3-6.1-1.3-8.4 0z"/>
				<path id="&lt;Path&gt;" class="s14" d="m288.1 843.2c-2.3 1.3-6.3 1.4-8.4 0.1l-20.9-11.9c-2.3-1.3-4.2-4.5-4.2-7.2v-239.2c0-1.4 0.5-2.9 1.3-4.3l29.2 16.8c-0.8 1.2-1.2 2.7-1.2 4.1v239.2c0 2.5 1.7 3.9 4.2 2.4z"/>
				<g id="&lt;Group&gt;" style="opacity: .2">
					<path id="&lt;Path&gt;" class="s14" d="m493 480.2c-0.3-2.1-2-2.9-4.1-1.7l-200.8 115.8c-1.2 0.7-2.2 1.8-3 3.2l-29.2-16.8c0.8-1.2 1.8-2.3 2.9-3l200.8-115.8c2.3-1.3 6.1-1.3 8.4 0l20.9 11.8c2.1 1.2 3.8 4 4.1 6.5z"/>
				</g>
				<g id="&lt;Group&gt;">
					<path id="&lt;Path&gt;" class="s0" d="m488.9 478.5l-200.8 115.8c-2.3 1.4-4.2 4.6-4.2 7.3v193.2 46c0 2.7 1.9 3.8 4.2 2.4l200.8-115.8c2.3-1.3 4.2-4.6 4.2-7.2v-239.3c0-2.6-1.9-3.7-4.2-2.4z"/>
					<path id="&lt;Path&gt;" class="s22" d="m472.5 516.3v192.2c0 2.2-1.5 4.8-3.3 5.9l-161.4 93c-1.8 1.1-3.4 0.2-3.4-1.9v-192.3c0-2.1 1.6-4.7 3.4-5.8l27.1-15.6c2.9-1.7 6.5 0.4 6.5 3.8v45c0 1.2 0.8 1.7 1.9 1.1l90.4-52.1c1-0.6 1.9-2.1 1.9-3.3v-50.1c0-1.5 0.8-3 2.2-3.7l31.4-18.2c1.8-1 3.3-0.1 3.3 2z"/>
					<path id="&lt;Compound Path&gt;" fill-rule="evenodd" class="s1" d="m493.1 481.9v239.3c0 2.6-1.9 5.9-4.2 7.2l-200.8 115.8q-1 0.6-1.9 0.6c-1.4 0-2.3-1.1-2.3-3v-239.2c0-2.7 1.9-5.9 4.2-7.3l200.8-115.8q1-0.6 1.9-0.6c1.3 0 2.3 1.1 2.3 3zm-203.4 116.3c-1.2 0.8-2.5 2.9-2.5 4.4v238.3l200-115.4c1.3-0.7 2.5-2.9 2.5-4.3v-238.3z"/>
				</g>
			</g>
			<g id="&lt;Group&gt;">
				<path id="&lt;Path&gt;" class="s5" d="m388.5 558.9c-20.5 11.8-37.1 41.2-37.1 65.6l74.2-42.8c0-24.5-16.6-34.7-37.1-22.8z"/>
				<path id="&lt;Path&gt;" class="s23" d="m388.5 558.9c-20.5 11.8-37.1 41.2-37.1 65.6l74.2-42.8c0-24.5-16.6-34.7-37.1-22.8z"/>
				<g id="&lt;Group&gt;">
					<g id="&lt;Group&gt;">
						<path id="&lt;Path&gt;" class="s24" d="m415.5 583.8l2.9-1.7"/>
						<path id="&lt;Path&gt;" class="s24" d="m415.1 578.6l2.9-2.2"/>
						<path id="&lt;Path&gt;" class="s24" d="m413.9 574.1l2.7-2.8"/>
						<path id="&lt;Path&gt;" class="s24" d="m411.9 570.3l2.5-3.1"/>
						<path id="&lt;Path&gt;" class="s24" d="m409.2 567.4l2.2-3.4"/>
						<path id="&lt;Path&gt;" class="s24" d="m405.8 565.5l1.9-3.6"/>
						<path id="&lt;Path&gt;" class="s24" d="m402 564.6l1.5-3.7"/>
						<path id="&lt;Path&gt;" class="s24" d="m397.7 564.8l1-3.7"/>
						<path id="&lt;Path&gt;" class="s24" d="m393.2 566l0.5-3.6"/>
						<path id="&lt;Path&gt;" class="s24" d="m388.5 568.3v-3.4"/>
						<path id="&lt;Path&gt;" class="s24" d="m383.8 571.5l-0.5-3.1"/>
						<path id="&lt;Path&gt;" class="s24" d="m379.3 575.5l-1.1-2.6"/>
						<path id="&lt;Path&gt;" class="s24" d="m375 580.2l-1.5-2"/>
						<path id="&lt;Path&gt;" class="s24" d="m371.1 585.6l-1.9-1.5"/>
						<path id="&lt;Path&gt;" class="s24" d="m367.8 591.3l-2.2-0.8"/>
						<path id="&lt;Path&gt;" class="s24" d="m365.1 597.3l-2.5-0.2"/>
						<path id="&lt;Path&gt;" class="s24" d="m363.1 603.4l-2.7 0.4"/>
						<path id="&lt;Path&gt;" class="s24" d="m361.9 609.3l-2.9 1.1"/>
						<path id="&lt;Path&gt;" class="s24" d="m361.5 615l-2.9 1.7"/>
					</g>
					<g id="&lt;Group&gt;">
						<path id="&lt;Path&gt;" class="s25" d="m415.5 583.8l5.8-3.4"/>
						<path id="&lt;Path&gt;" class="s25" d="m411.9 570.5l5-6.3"/>
						<path id="&lt;Path&gt;" class="s25" d="m402 565l2.9-7.5"/>
						<path id="&lt;Path&gt;" class="s25" d="m388.5 568.6v-6.6"/>
						<path id="&lt;Path&gt;" class="s25" d="m375 580.5l-2.9-4"/>
						<path id="&lt;Path&gt;" class="s25" d="m365.1 597.5l-5.1-0.4"/>
						<path id="&lt;Path&gt;" class="s25" d="m361.5 615l-5.9 3.3"/>
					</g>
				</g>
				<path id="&lt;Path&gt;" class="s1" d="m388.5 573l-2.7 29.2 2.7-1.5 2.7-1.6z"/>
			</g>
		</g>
	</g>
	<g id="Apple">
		<g id="Apple 1 ">
			<g id="&lt;Group&gt;">
				<path id="&lt;Path&gt;" class="s26" d="m743.3 500.6c21.2-2.3 58.3-5.8 89.1 37.2 35 49 20.4 119.9-14.7 154.7-44 43.7-122.1 59.1-175.5 24.9-59-37.8-77.7-125.4-49.5-169.9 28.3-44.5 83.8-42.7 98.8-39.2 22.6 5.4 35.3-5.8 51.8-7.7z"/>
				<path id="&lt;Path&gt;" class="s27" d="m669.3 701.7c59.6 20.5 132.3-1.5 171.5-43.7-5.9 13.3-13.7 25.2-23.1 34.5-44 43.7-122.1 59.1-175.5 24.9-44.7-28.7-66.3-85.9-61.8-131.3 0 12.5 23.4 93 88.9 115.6z"/>
				<g id="&lt;Group&gt;" style="opacity: .1">
					<path id="&lt;Path&gt;" class="s0" d="m768.3 515.6c13.4-3.5 35.1 5.2 48.6 21.9 16.7 20.8 23.8 52.9 23.8 77.1 0.1 48.9-41.6 81.6-46.7 78.4-5.2-3.3 22.9-40-3.5-84.2-26.8-44.8-44.1-87.5-22.2-93.2z"/>
				</g>
				<g id="&lt;Group&gt;" style="opacity: .1">
					<path id="&lt;Path&gt;" class="s0" d="m780.1 521.5c14.6 2.3 34.4 21.7 41.2 36.6 6.8 14.9 6.6 25.9 4.8 28.1-3.3 3.9-36-18.7-47.2-29.5-15.9-15.2-22.3-38.9 1.2-35.2z"/>
				</g>
				<path id="&lt;Path&gt;" class="s28" d="m728.4 545c6.4-7.1 12.8-11.3 18-3.1 5.2 8.3-12.1 25.5-35 22.8-22.8-2.6-32.7-15.5-33.5-22.8 0 0 12.5 13.9 27.4 13.2 10.3-0.5 19.8-6.4 23.1-10.1z"/>
			</g>
			<g id="&lt;Group&gt;">
				<path id="&lt;Path&gt;" class="s19" d="m709 556.6c0 0-5-29.1-0.3-56.4 4.8-27.2 17.7-48 21.7-50.7 4.1-2.7 11.1-5.4 21.5-7 10.3-1.7 23.7 3.2 21 7.7-2.7 4.5-17 10-32.1 29.9-15.2 19.9-26.8 55.6-23.5 75.1 0 0-3.2 3.2-8.3 1.4z"/>
				<path id="&lt;Path&gt;" class="s20" d="m731.1 449.1c0.4-0.2 0.6-0.4 1-0.6q0 0 0.1-0.1c4.2-2.3 10.7-4.5 19.7-5.9 7.6-1.2 16.9 1.1 20.2 4.2 0.9 1.4-1 3.8-10 6.6-9 2.9-18.7 3.7-27.5 2.1-4.3-0.8-6.4-4.1-3.5-6.3z"/>
				<path id="&lt;Path&gt;" class="s27" d="m716.9 521.9c4.2-24.6 25.5-48.1 40.8-59.5-5 4.2-10.9 9.8-16.9 17.7-15.2 19.9-26.8 55.6-23.5 75.1 0 0-3.2 3.2-8.3 1.4 0 0-1.2-7-1.9-17.3 2.2 9.3 6 5.3 9.8-17.4z"/>
			</g>
			<g id="&lt;Group&gt;">
				<path id="&lt;Path&gt;" class="s5" d="m707 516.7c-12.6 2.5-33.5-2.3-45.4-18.1-14.2-19.1-4.7-43.6-4.7-43.6 0 0 22.6-4.9 40 12.9 12.7 12.9 14.3 37.9 10.1 48.8z"/>
				<path id="&lt;Path&gt;" class="s29" d="m707 516.7c-12.6 2.5-33.5-2.3-45.4-18.1-14.2-19.1-4.7-43.6-4.7-43.6 0 0 22.6-4.9 40 12.9 12.7 12.9 14.3 37.9 10.1 48.8z"/>
				<path id="&lt;Path&gt;" class="s5" d="m656.9 455c0 0 22.6-4.9 40 12.9 12.7 12.9 14.3 37.9 10.1 48.8-11.4-36.5-50.1-61.7-50.1-61.7z"/>
				<path id="&lt;Path&gt;" class="s14" d="m656.9 455c0 0 22.6-4.9 40 12.9 12.7 12.9 14.3 37.9 10.1 48.8-11.4-36.5-50.1-61.7-50.1-61.7z"/>
			</g>
		</g>
	</g>
	<g id="Dumbbells">
		<g id="Dumbbell 00000178206737200193416440000006659153336504690854 ">
			<g id="&lt;Group&gt;">
				<g id="&lt;Group&gt;">
					<g id="&lt;Group&gt;">
						<g id="&lt;Group&gt;">
							<g id="&lt;Group&gt;">
								<path id="&lt;Path&gt;" class="s19" d="m890.2 763.5l-3.6-3.4 8.9 19.1 6.7 10.3z"/>
								<path id="&lt;Path&gt;" class="s20" d="m871.3 793.1l24.2-13.9 6.7 10.3-29.9 17.3z"/>
								<path id="&lt;Path&gt;" class="s19" d="m838.2 788l-3.6 12.9 37.7 5.9-1-13.7z"/>
								<path id="&lt;Path&gt;" class="s21" d="m829.3 768.9l-6.7 6.1 12 25.9 3.6-12.9z"/>
							</g>
							<path id="&lt;Path&gt;" class="s20" d="m853.5 755l-24.2 13.9 8.9 19.1 33.1 5.1 24.2-13.9-8.9-19.1z"/>
						</g>
						<g id="&lt;Group&gt;">
							<path id="&lt;Path&gt;" class="s20" d="m902.2 789.5v19.1l-29.9 17.3v-19.1z"/>
							<path id="&lt;Path&gt;" class="s19" d="m834.6 800.9l37.7 5.9v19.1l-37.7-5.8z"/>
							<path id="&lt;Path&gt;" class="s21" d="m822.6 775v19.1l12 26v-19.2z"/>
						</g>
						<path id="&lt;Compound Path&gt;" class="s28" d="m887.1 797.8c-5 2.8-10 5.5-14.9 8.4l-18.6-3-18.6-2.8c-4.1-8.5-8.2-17-12.4-25.4 3.7 8.7 7.6 17.5 11.5 26.2l0.2 0.2 0.3 0.1 18.8 3 18.8 2.8 0.2 0.1 0.2-0.1c5-2.9 9.9-5.9 14.9-8.8q7.3-4.5 14.7-9c-5 2.8-10.1 5.5-15.1 8.3z"/>
					</g>
					<path id="&lt;Path&gt;" class="s19" d="m834.6 820.1l4.7 5.3 31.3 4.8 1.7-4.3z"/>
					<path id="&lt;Path&gt;" class="s20" d="m895.6 815.8l6.6-7.2-29.9 17.3-1.7 4.3z"/>
					<g id="&lt;Group&gt;" style="opacity: .2">
						<path id="&lt;Path&gt;" class="s11" d="m902.2 808.6q-7.3 4.6-14.7 9.1c-4.9 2.9-9.9 5.8-14.9 8.7l-0.2 0.2-0.2-0.1q-9.4-1.4-18.8-3-9.4-1.6-18.8-3.4 9.5 1 18.9 2.4 9.5 1.3 18.9 2.7l-0.4 0.1c5-2.8 10-5.7 15-8.5q7.6-4.2 15.2-8.2z"/>
					</g>
					<path id="&lt;Path&gt;" class="s30" d="m829.3 768.9l9.8 18 31.9 4.7 23.2-13.1-7.6-18.4 8.9 19.1-24.2 13.9-33.1-5.1z"/>
				</g>
				<g id="&lt;Group&gt;">
					<path id="&lt;Compound Path&gt;" class="s21" d="m879.4 809.3q-0.1-0.1 0-0.4 0-0.2 0.1-0.4l2.9-5.1q0.1-0.2 0.3-0.5 0.1-0.2 0.3-0.4l1.7-0.9q0.1-0.1 0.2 0 0.1 0.1 0.1 0.3v13.5q0 0.2-0.1 0.4-0.1 0.2-0.2 0.3l-1.8 1q-0.1 0.1-0.2 0-0.2-0.1-0.2-0.3v-9.1l-1.6 2.8q-0.1 0.2-0.2 0.3-0.2 0-0.3-0.1z"/>
					<path id="&lt;Compound Path&gt;" fill-rule="evenodd" class="s21" d="m890.6 798q1-0.6 1.7-0.6 0.7 0.1 1.2 0.6 0.5 0.5 0.7 1.4 0.3 0.8 0.3 1.9 0 0.9 0 1.9 0 1 0 1.8 0 1.2-0.3 2.3-0.2 1.2-0.7 2.2-0.5 1.1-1.2 2-0.7 0.8-1.7 1.4-1 0.6-1.8 0.6-0.7-0.1-1.2-0.6-0.5-0.4-0.7-1.3-0.2-0.9-0.3-2 0-0.9 0-1.8 0-1 0-1.9 0.1-1.2 0.3-2.3 0.2-1.2 0.7-2.2 0.5-1.1 1.2-1.9 0.8-0.9 1.8-1.5zm1.4 8.4q0.1-1.8 0-3.5 0-0.5-0.1-0.9-0.1-0.4-0.2-0.6-0.2-0.3-0.5-0.3-0.2 0-0.6 0.2-0.4 0.2-0.7 0.6-0.3 0.3-0.4 0.7-0.2 0.5-0.3 0.9-0.1 0.5-0.1 1 0 1.8 0 3.5 0 0.5 0.1 0.9 0.1 0.4 0.3 0.7 0.1 0.2 0.4 0.2 0.3 0 0.7-0.2 0.4-0.2 0.6-0.6 0.3-0.3 0.5-0.7 0.1-0.4 0.2-0.9 0.1-0.5 0.1-1z"/>
				</g>
			</g>
			<g id="&lt;Group&gt;">
				<g id="&lt;Group&gt;">
					<path id="&lt;Path&gt;" class="s31" d="m872.2 706.1c0-1.4-1-2.9-2.9-4-3.8-2.2-10-2.2-13.8 0-1.9 1.1-2.9 2.5-2.9 4 0 0.9 0 66.9 0 67.8 0 1.4 1 2.9 2.9 4 3.8 2.2 10 2.2 13.8 0 1.9-1.1 2.9-2.6 2.9-4 0-0.9 0-66.9 0-67.8z"/>
					<path id="&lt;Path&gt;" class="s12" d="m855.5 702.1c-1.9 1.1-2.9 2.6-2.9 4 0 1.4 1 2.9 2.9 4 3.8 2.2 10 2.2 13.8 0 1.9-1.1 2.9-2.6 2.9-4 0-1.5-1-2.9-2.9-4-3.8-2.2-10-2.2-13.8 0z"/>
				</g>
				<g id="&lt;Group&gt;">
					<path id="&lt;Path&gt;" class="s2" d="m872.2 720.3v2.7c0 1.4-1 2.9-2.9 4-3.8 2.2-10 2.2-13.8 0-1.9-1.1-2.9-2.6-2.9-4v-2.7c0 1.4 1 2.9 2.9 4 3.8 2.2 10 2.2 13.8 0 1.9-1.1 2.9-2.6 2.9-4z"/>
				</g>
				<g id="&lt;Group&gt;">
					<path id="&lt;Path&gt;" class="s2" d="m872.2 757.4v2.7c0 1.4-1 2.9-2.9 4-3.8 2.2-10 2.2-13.8 0-1.9-1.1-2.9-2.6-2.9-4v-2.7c0 1.4 1 2.9 2.9 4 3.8 2.2 10 2.2 13.8 0 1.9-1.1 2.9-2.6 2.9-4z"/>
				</g>
				<g id="&lt;Group&gt;">
					<path id="&lt;Path&gt;" class="s2" d="m872.2 732.1v16.2c0 1.4-1 2.9-2.9 4-3.8 2.2-10 2.2-13.8 0-1.9-1.1-2.9-2.6-2.9-4v-16.2c0 1.4 1 2.9 2.9 4 3.8 2.2 10 2.2 13.8 0 1.9-1.1 2.9-2.6 2.9-4z"/>
				</g>
			</g>
			<g id="&lt;Group&gt;">
				<g id="&lt;Group&gt;">
					<g id="&lt;Group&gt;">
						<g id="&lt;Group&gt;">
							<g id="&lt;Group&gt;">
								<path id="&lt;Path&gt;" class="s19" d="m890.2 653.4l-3.6-3.5 8.9 19.1 6.7 10.3z"/>
								<path id="&lt;Path&gt;" class="s20" d="m871.3 683l24.2-14 6.7 10.3-29.9 17.3z"/>
								<path id="&lt;Path&gt;" class="s19" d="m838.2 677.9l-3.6 12.9 37.7 5.8-1-13.6z"/>
								<path id="&lt;Path&gt;" class="s21" d="m829.3 658.8l-6.7 6 12 26 3.6-12.9z"/>
							</g>
							<path id="&lt;Path&gt;" class="s20" d="m853.5 644.8l-24.2 14 8.9 19.1 33.1 5.1 24.2-14-8.9-19.1z"/>
						</g>
						<g id="&lt;Group&gt;">
							<path id="&lt;Path&gt;" class="s20" d="m902.2 679.3v19.1l-29.9 17.3v-19.1z"/>
							<path id="&lt;Path&gt;" class="s19" d="m834.6 690.8l37.7 5.8v19.1l-37.7-5.8z"/>
							<path id="&lt;Path&gt;" class="s21" d="m822.6 664.8v19.1l12 26v-19.1z"/>
						</g>
						<path id="&lt;Compound Path&gt;" class="s28" d="m887.1 687.6c-5 2.8-10 5.6-14.9 8.4l-18.6-2.9-18.6-2.8c-4.1-8.5-8.2-17-12.4-25.5 3.7 8.8 7.6 17.5 11.5 26.2l0.2 0.3h0.3l18.8 3 18.8 2.9h0.2l0.2-0.1c5-2.9 9.9-5.8 14.9-8.8 4.9-2.9 9.8-6 14.7-9-5 2.8-10.1 5.5-15.1 8.3z"/>
					</g>
					<path id="&lt;Path&gt;" class="s19" d="m834.6 709.9l4.7 5.3 31.3 4.9 1.7-4.4z"/>
					<path id="&lt;Path&gt;" class="s20" d="m895.6 705.7l6.6-7.3-29.9 17.3-1.7 4.4z"/>
					<g id="&lt;Group&gt;" style="opacity: .2">
						<path id="&lt;Path&gt;" class="s11" d="m902.2 698.4q-7.3 4.7-14.7 9.1c-4.9 3-9.9 5.9-14.9 8.8l-0.2 0.1h-0.2q-9.4-1.5-18.8-3.1-9.4-1.6-18.8-3.4 9.5 1.1 18.9 2.4 9.5 1.4 18.9 2.8l-0.4 0.1c5-2.9 10-5.8 15-8.5q7.6-4.2 15.2-8.3z"/>
					</g>
					<path id="&lt;Path&gt;" class="s30" d="m829.3 658.8l9.8 17.9 31.9 4.8 23.2-13.1-7.6-18.5 8.9 19.1-24.2 14-33.1-5.1z"/>
				</g>
				<g id="&lt;Group&gt;">
					<path id="&lt;Compound Path&gt;" class="s21" d="m879.4 699.1q-0.1-0.1 0-0.3 0-0.3 0.1-0.5l2.9-5.1q0.1-0.2 0.3-0.4 0.1-0.3 0.3-0.4l1.7-1q0.1 0 0.2 0.1 0.1 0.1 0.1 0.3v13.4q0 0.2-0.1 0.5-0.1 0.2-0.2 0.3l-1.8 1q-0.1 0.1-0.2 0-0.2-0.1-0.2-0.4v-9l-1.6 2.8q-0.1 0.2-0.2 0.2-0.2 0.1-0.3 0z"/>
					<path id="&lt;Compound Path&gt;" fill-rule="evenodd" class="s21" d="m890.6 687.8q1-0.5 1.7-0.5 0.7 0 1.2 0.5 0.5 0.5 0.7 1.4 0.3 0.9 0.3 2 0 0.9 0 1.8 0 1 0 1.9 0 1.1-0.3 2.3-0.2 1.2-0.7 2.2-0.5 1-1.2 1.9-0.7 0.9-1.7 1.5-1 0.6-1.8 0.5-0.7 0-1.2-0.5-0.5-0.5-0.7-1.4-0.2-0.9-0.3-2 0-0.8 0-1.8 0-1 0-1.9 0.1-1.1 0.3-2.3 0.2-1.1 0.7-2.2 0.5-1 1.2-1.9 0.8-0.9 1.8-1.5zm1.4 8.4q0.1-1.8 0-3.5 0-0.5-0.1-0.9-0.1-0.4-0.2-0.6-0.2-0.2-0.5-0.2-0.2-0.1-0.6 0.2-0.4 0.2-0.7 0.5-0.3 0.4-0.4 0.8-0.2 0.4-0.3 0.9-0.1 0.5-0.1 1 0 1.8 0 3.5 0 0.5 0.1 0.9 0.1 0.4 0.3 0.6 0.1 0.2 0.4 0.3 0.3 0 0.7-0.2 0.4-0.3 0.6-0.6 0.3-0.4 0.5-0.8 0.1-0.4 0.2-0.9 0.1-0.5 0.1-1z"/>
				</g>
			</g>
		</g>
		<g id="Dumbbell 00000005977997548851523500000013811433313470864516 ">
			<g id="&lt;Group&gt;">
				<g id="&lt;Group&gt;">
					<g id="&lt;Group&gt;">
						<g id="&lt;Group&gt;">
							<g id="&lt;Group&gt;">
								<path id="&lt;Path&gt;" class="s19" d="m738 826l4.5-1.3-19.8-1.8-11.7 0.7z"/>
								<path id="&lt;Path&gt;" class="s20" d="m722.7 796.4v26.5l-11.7 0.7v-32.8z"/>
								<path id="&lt;Path&gt;" class="s19" d="m742.5 771.8l-8.9-9.1-22.6 28.1 11.7 5.6z"/>
								<path id="&lt;Path&gt;" class="s21" d="m762.4 773.5l-1.8-8.4-27-2.4 8.9 9.1z"/>
							</g>
							<path id="&lt;Path&gt;" class="s20" d="m762.4 800v-26.5l-19.9-1.7-19.8 24.6v26.5l19.8 1.8z"/>
						</g>
						<g id="&lt;Group&gt;">
							<path id="&lt;Path&gt;" class="s20" d="m711 823.6l-15.6-9.1v-32.7l15.6 9z"/>
							<path id="&lt;Path&gt;" class="s19" d="m733.6 762.7l-22.6 28.1-15.6-9 22.6-28.1z"/>
							<path id="&lt;Path&gt;" class="s21" d="m760.6 765.1l-15.6-9-27-2.4 15.6 9z"/>
						</g>
						<path id="&lt;Compound Path&gt;" class="s28" d="m711.4 807.2c0.1-5.4 0.2-10.8 0.2-16.2l11.2-13.8 11.1-13.9c8.9 0.6 17.8 1.3 26.7 1.8-9-1-17.9-2-26.9-2.9h-0.3l-0.2 0.2-11.3 14-11.3 14.1-0.1 0.1v0.2c0 5.5 0.1 10.9 0.2 16.4 0 5.4 0.2 10.9 0.3 16.4 0.2-5.5 0.4-11 0.4-16.4z"/>
					</g>
					<path id="&lt;Path&gt;" class="s19" d="m718 753.7l-6.6 1.3-18.8 23.4 2.8 3.4z"/>
					<path id="&lt;Path&gt;" class="s20" d="m692.6 805.6l2.8 8.9v-32.7l-2.8-3.4z"/>
					<g id="&lt;Group&gt;" style="opacity: .2">
						<path id="&lt;Path&gt;" class="s11" d="m695.4 814.5q-0.4-8.2-0.5-16.4c-0.1-5.4-0.1-10.9-0.1-16.3v-0.2l0.1-0.2q5.7-7 11.4-14 5.7-6.9 11.7-13.7-5.4 7.2-10.9 14.3-5.6 7.1-11.3 14.2l0.2-0.4c-0.1 5.4 0 10.9-0.2 16.3q-0.1 8.2-0.4 16.4z"/>
					</g>
					<path id="&lt;Path&gt;" class="s30" d="m762.4 773.5l-19.4-0.4-18.9 23.8-0.3 25.2 18.7 2.6-19.8-1.8v-26.5l19.8-24.6z"/>
				</g>
				<g id="&lt;Group&gt;">
					<path id="&lt;Compound Path&gt;" class="s21" d="m705.6 795.5q0.1 0 0.3 0.1 0.2 0.1 0.3 0.4l2.8 4.7q0.1 0.2 0.3 0.5 0.1 0.2 0.1 0.4v1.8q0 0.2-0.1 0.2-0.2 0.1-0.3 0l-11-6.4q-0.2-0.1-0.4-0.3-0.1-0.2-0.1-0.3v-2q0-0.1 0.1-0.2 0.2 0 0.4 0.1l7.4 4.3-1.5-2.7q-0.1-0.2-0.1-0.3 0-0.1 0.2-0.2z"/>
					<path id="&lt;Compound Path&gt;" fill-rule="evenodd" class="s21" d="m709.6 810q0 1.1-0.4 1.6-0.4 0.6-1 0.8-0.6 0.1-1.5-0.1-0.8-0.2-1.7-0.7-0.8-0.4-1.6-0.9-0.8-0.4-1.5-0.8-0.9-0.6-1.7-1.4-0.9-0.7-1.5-1.6-0.6-0.9-1-1.9-0.4-1-0.4-2.1 0-1.1 0.4-1.7 0.4-0.6 1-0.7 0.6-0.2 1.5 0 0.8 0.3 1.7 0.8 0.7 0.3 1.5 0.8 0.8 0.4 1.6 0.9 0.9 0.6 1.7 1.3 0.9 0.8 1.5 1.6 0.6 0.9 1 1.9 0.4 1.1 0.4 2.2zm-7.6-2.8q1.5 0.9 2.9 1.6 0.4 0.2 0.8 0.4 0.3 0.1 0.6 0.1 0.3-0.1 0.4-0.3 0.2-0.2 0.2-0.6 0-0.5-0.2-0.8-0.1-0.4-0.4-0.7-0.3-0.4-0.6-0.7-0.4-0.3-0.8-0.5-1.4-0.9-2.9-1.7-0.4-0.2-0.8-0.3-0.3-0.2-0.6-0.1-0.2 0-0.4 0.2-0.1 0.2-0.1 0.7 0 0.4 0.1 0.8 0.2 0.4 0.4 0.7 0.3 0.3 0.6 0.6 0.4 0.3 0.8 0.6z"/>
				</g>
			</g>
			<g id="&lt;Group&gt;">
				<g id="&lt;Group&gt;">
					<path id="&lt;Path&gt;" class="s31" d="m793.6 838.4c1.2 0.7 2.8 0.6 4.6-0.5 3.6-2.1 6.6-7.1 6.6-11.3 0-2.1-0.8-3.6-1.9-4.2-0.8-0.5-54.9-31.7-55.6-32.1-1.2-0.7-2.8-0.6-4.6 0.4-3.7 2.1-6.6 7.2-6.6 11.4 0 2.1 0.7 3.5 1.9 4.2 0.7 0.4 54.9 31.7 55.6 32.1z"/>
					<path id="&lt;Path&gt;" class="s12" d="m804.8 826.6c0-2.1-0.8-3.6-1.9-4.2-1.2-0.7-2.9-0.6-4.7 0.4-3.6 2.1-6.5 7.2-6.5 11.3 0 2.1 0.7 3.6 1.9 4.3 1.2 0.7 2.8 0.6 4.6-0.5 3.6-2.1 6.6-7.1 6.6-11.3z"/>
				</g>
				<g id="&lt;Group&gt;">
					<path id="&lt;Path&gt;" class="s2" d="m782 831.7l-2.2-1.3c-1.2-0.7-2-2.2-2-4.2 0-4.2 3-9.3 6.6-11.4 1.8-1 3.4-1.1 4.6-0.4l2.2 1.2c-1.2-0.6-2.8-0.5-4.6 0.5-3.6 2.1-6.6 7.2-6.5 11.3-0.1 2.1 0.7 3.6 1.9 4.3z"/>
				</g>
				<g id="&lt;Group&gt;">
					<path id="&lt;Path&gt;" class="s2" d="m751.5 814.1l-2.2-1.3c-1.1-0.7-1.9-2.1-1.9-4.2 0-4.2 2.9-9.3 6.6-11.3 1.8-1.1 3.4-1.2 4.6-0.5l2.2 1.3c-1.2-0.7-2.8-0.6-4.6 0.4-3.7 2.1-6.6 7.2-6.6 11.4 0 2 0.8 3.5 1.9 4.2z"/>
				</g>
				<g id="&lt;Group&gt;">
					<path id="&lt;Path&gt;" class="s2" d="m772.3 826.1l-13.3-7.7c-1.2-0.7-1.9-2.1-1.9-4.2 0-4.2 2.9-9.3 6.5-11.4 1.8-1 3.5-1.1 4.7-0.4l13.2 7.7c-1.1-0.7-2.8-0.6-4.6 0.4-3.6 2.1-6.5 7.2-6.5 11.3 0 2.1 0.7 3.6 1.9 4.3z"/>
				</g>
			</g>
			<g id="&lt;Group&gt;">
				<g id="&lt;Group&gt;">
					<g id="&lt;Group&gt;">
						<g id="&lt;Group&gt;">
							<g id="&lt;Group&gt;">
								<path id="&lt;Path&gt;" class="s19" d="m828.3 878.1l4.5-1.3-19.8-1.8-11.7 0.7z"/>
								<path id="&lt;Path&gt;" class="s20" d="m813 848.6v26.4l-11.7 0.7v-32.8z"/>
								<path id="&lt;Path&gt;" class="s19" d="m832.8 823.9l-8.9-9.1-22.6 28.1 11.7 5.7z"/>
								<path id="&lt;Path&gt;" class="s21" d="m852.6 825.6l-1.7-8.3-27-2.5 8.9 9.1z"/>
							</g>
							<path id="&lt;Path&gt;" class="s20" d="m852.6 852.1v-26.5l-19.8-1.7-19.8 24.7v26.4l19.8 1.8z"/>
						</g>
						<g id="&lt;Group&gt;">
							<path id="&lt;Path&gt;" class="s20" d="m801.3 875.7l-15.7-9.1v-32.7l15.7 9z"/>
							<path id="&lt;Path&gt;" class="s19" d="m823.9 814.8l-22.6 28.1-15.7-9 22.6-28.1z"/>
							<path id="&lt;Path&gt;" class="s21" d="m850.9 817.3l-15.7-9.1-27-2.4 15.7 9z"/>
						</g>
						<path id="&lt;Compound Path&gt;" class="s28" d="m801.7 859.3c0-5.4 0.1-10.8 0.2-16.2l11.2-13.8 11-13.9c8.9 0.7 17.9 1.3 26.8 1.9q-13.5-1.6-27-3h-0.2l-0.2 0.2-11.4 14-11.2 14.1-0.1 0.2v0.1c0 5.5 0.1 11 0.1 16.4 0.1 5.5 0.3 10.9 0.4 16.4 0.1-5.5 0.3-10.9 0.4-16.4z"/>
					</g>
					<path id="&lt;Path&gt;" class="s19" d="m808.2 805.8l-6.5 1.3-18.8 23.4 2.7 3.4z"/>
					<path id="&lt;Path&gt;" class="s20" d="m782.9 857.7l2.7 8.9v-32.7l-2.7-3.4z"/>
					<g id="&lt;Group&gt;" style="opacity: .2">
						<path id="&lt;Path&gt;" class="s11" d="m785.6 866.6q-0.3-8.2-0.4-16.3c-0.1-5.5-0.1-10.9-0.2-16.4v-0.2l0.2-0.2q5.6-7 11.4-14 5.7-6.9 11.6-13.7-5.3 7.3-10.9 14.4-5.5 7.1-11.2 14.1l0.2-0.4c-0.1 5.5-0.1 10.9-0.2 16.4q-0.1 8.1-0.5 16.3z"/>
					</g>
					<path id="&lt;Path&gt;" class="s30" d="m852.6 825.6l-19.3-0.4-19 23.9-0.2 25.2 18.7 2.5-19.8-1.8v-26.4l19.8-24.7z"/>
				</g>
				<g id="&lt;Group&gt;">
					<path id="&lt;Compound Path&gt;" class="s21" d="m795.9 847.6q0.1 0 0.3 0.1 0.2 0.2 0.3 0.4l2.8 4.8q0.1 0.1 0.3 0.4 0.1 0.2 0.1 0.5v1.8q0 0.1-0.1 0.2-0.2 0-0.4-0.1l-11-6.4q-0.1-0.1-0.3-0.3-0.1-0.2-0.1-0.3v-2q0-0.1 0.1-0.2 0.2 0 0.3 0.1l7.5 4.3-1.6-2.6q-0.1-0.2 0-0.4 0-0.1 0.1-0.1z"/>
					<path id="&lt;Compound Path&gt;" fill-rule="evenodd" class="s21" d="m799.9 862.1q0 1.1-0.4 1.7-0.4 0.5-1 0.7-0.6 0.2-1.5-0.1-0.8-0.2-1.7-0.7-0.8-0.4-1.6-0.8-0.8-0.5-1.5-0.9-0.9-0.6-1.7-1.3-0.9-0.8-1.5-1.7-0.6-0.9-1-1.9-0.4-1-0.4-2.1 0-1.1 0.4-1.7 0.4-0.5 1-0.7 0.6-0.2 1.5 0.1 0.8 0.2 1.7 0.7 0.7 0.3 1.5 0.8 0.8 0.5 1.6 0.9 0.9 0.6 1.7 1.3 0.9 0.8 1.5 1.7 0.6 0.9 1 1.9 0.4 1 0.4 2.1zm-7.6-2.8q1.5 0.9 2.9 1.7 0.4 0.2 0.8 0.3 0.3 0.1 0.6 0.1 0.2 0 0.4-0.2 0.1-0.2 0.1-0.7 0-0.4-0.1-0.8-0.2-0.4-0.4-0.7-0.3-0.4-0.6-0.6-0.4-0.3-0.8-0.6-1.4-0.9-2.9-1.7-0.4-0.2-0.8-0.3-0.3-0.1-0.6-0.1-0.3 0-0.4 0.2-0.2 0.2-0.2 0.7 0 0.4 0.2 0.8 0.1 0.4 0.4 0.7 0.3 0.4 0.6 0.7 0.4 0.2 0.8 0.5z"/>
				</g>
			</g>
		</g>
	</g>
	<g id="Speech Bubble">
		<g id="Speech Bubble 00000011023981585606412140000000776991534380049080 ">
			<path id="&lt;Path&gt;" class="s5" d="m612.2 162.6c13.9-16.7 39.2-26.3 72.3-26.6 30-0.3 66.6 8.5 75.8 37.4 7.8 24.7-16.7 46.8-41.2 53.7-15.4 4.3-35.5 5.5-60.7 3-6.7 7.4-22.1 11.4-34.1 8.2 5.8-1.4 11.5-6.4 13.6-14.1-33.9-11.7-41.6-42.5-25.7-61.6z"/>
			<path id="&lt;Path&gt;" class="s1" d="m612.2 162.6c13.9-16.7 39.2-26.3 72.3-26.6 30-0.3 66.6 8.5 75.8 37.4 7.8 24.7-16.7 46.8-41.2 53.7-15.4 4.3-35.5 5.5-60.7 3-6.7 7.4-22.1 11.4-34.1 8.2 5.8-1.4 11.5-6.4 13.6-14.1-33.9-11.7-41.6-42.5-25.7-61.6z"/>
			<path id="&lt;Compound Path&gt;" class="s0" d="m642.7 176.7c-4.8 0-8.6 3.8-8.6 8.6 0 4.7 3.8 8.6 8.6 8.6 4.7 0 8.6-3.9 8.6-8.6 0-4.8-3.9-8.6-8.6-8.6zm40.2 0c-4.7 0-8.6 3.8-8.6 8.6 0 4.7 3.9 8.6 8.6 8.6 4.8 0 8.6-3.9 8.6-8.6 0-4.8-3.8-8.6-8.6-8.6zm40.3 0c-4.7 0-8.6 3.8-8.6 8.6 0 4.7 3.9 8.6 8.6 8.6 4.8 0 8.6-3.9 8.6-8.6 0-4.8-3.8-8.6-8.6-8.6z"/>
		</g>
	</g>
	<g id="Character">
		<g id="Character 00000031175447864836096880000001721887387949424549 ">
			<path id="Coat" class="s32" d="m614.3 394.9c2.9 37.9 4.3 61.8 8.3 145.7 2.6 57 3.2 84.3 3.2 84.3 0 0-22.9-14.8-87.1-12.1-56.3 2.3-96.9 23.1-96.9 23.1l56.3-255.7 110.5-8.3c1.5 6.3 5.4 16.9 5.7 23z"/>
			<g id="Bottom 00000075147925097787715830000000077663426944274058 ">
				<g id="Bottom 00000137110720058078110160000016713364806020198035 ">
					<g id="&lt;Group&gt;">
						<path id="&lt;Path&gt;" class="s21" d="m573 830.1l7.4-3.9-7.6-1.8z"/>
						<path id="&lt;Path&gt;" class="s21" d="m649.2 841.1c0 0-91.6-36.4-92.5-30.4-0.2 1.3-0.1 2.4 0.2 3.5q-0.1-0.1-0.3-0.3l2.1 11c0 0 6.7 5.1 14.3 5.2-0.1-0.5-0.1-3.8-0.2-5.7 2.5 0.9 5.1 2 8.1 3.8 5.9 3.5 9.9 9.9 16.3 17.3 4.7 5.3 12.8 7.6 24.6 8.8 12.8 1.3 23.9-1.5 26.9-4.9 2.4-2.7 1-7.6 0.5-8.3z"/>
						<path id="&lt;Path&gt;" class="s33" d="m646.6 839.1c-0.9-0.8-4.2-4.2-8.7-7.8-4-3.1-8.5-7.1-13.4-10.3-2-1.3-5-3.3-6.7-4.9q-2.4-2.4-4.7-5c-4-4.8-7.4-10.1-10.4-15.6-2.6-4.7-3.3-8.1-3.3-13.4 0.1-13.1 0.7-26.2 2.5-39.1l-43.4 0.7c1.5 6.6 2.4 17.9 3.3 25.5 1.5 11.5 1.9 14.1-2.3 25.7-1.2 3.5-3.2 6.8-3.2 10.5-0.1 5.9 4.9 10.8 10.3 13.5 4.5 2.2 9.7 3.1 14 5.5 4.6 2.5 8.3 6.4 11.7 10.3 3.1 3.7 5.7 8.1 10.1 10.6 4.8 2.7 9.3 3.5 14.9 4.4 6.3 1 14.3 0.9 19.7 0.3 9.3-1.1 16.2-4.7 9.6-10.9z"/>
						<g id="&lt;Group&gt;">
							<g id="&lt;Group&gt;">
								<path id="&lt;Compound Path&gt;" class="s19" d="m641.2 832.9c-4-3.1-9.7-7.4-16.5-12.3-1.5-0.7-7.5-1.9-13.9 1.7-13.2 7.3-15.1 17.1-15.1 17.1 0 0 3.2 6.5 11.3 9 15.7 6 43.3 2.9 43.3-4 0-4.5-4.2-7.8-9.1-11.5zm-81-40.5c0 0-0.8 2.3-3 6.9-2.2 4.5-2.4 9 0.7 13.3 4.1 5.8 8.9 7.4 13.9 8.5 3.8-13.3-6.1-26-11.6-28.7z"/>
							</g>
						</g>
					</g>
					<g id="&lt;Group&gt;">
						<path id="&lt;Path&gt;" class="s21" d="m490.3 808.1c2.6 4-0.8 19-0.2 29.7 0.6 9.6 3.2 26.5 0.2 36.1-3.7 11.3-11.1 24.5-24.9 13.9-8.5-6.6-13.4-15.1-14.5-29.1-0.8-9.7 3.1-23.1 6.6-35 4-13.8 5.5-21.3 5.5-21.3z"/>
						<path id="&lt;Path&gt;" class="s33" d="m462.1 736.7c-1 22.6 1.7 38.4 1.8 52.9-0.1 6.8-0.6 12.4-2.1 19.6-1.9 9.2-5.3 22-6.7 28-1.9 8.4-3.4 13.6-0.4 23 0.2 0.7 0.6 1.4 1 2.1 4.1 7.8 14.7 13.6 18.1 12.7 1 1.5 3.4 2.4 6 2q0.5-0.1 1.1-0.3 0.6-0.2 1.1-0.4c2.3-1.1 4.4-3.3 5.7-7.1q0.3-1 0.5-2.1c2.5-11.6 0.7-19.1 0.5-23.7-0.3-5.2 0-11.9 0.5-20.4 0.5-8.5 2.5-35.1 5.6-47.8 2.2-8.9 5.1-20.1 8-31.9z"/>
						<path id="&lt;Path&gt;" class="s19" d="m453.1 848.1c8.3-3.6 32.5-4.1 36.4 7.3 0.1 10.8 0.2 18.1-6.8 27.4-9.4 12.5-21.5-0.7-26.2-9.1-4.6-8.3-4.6-19.8-3.4-25.6z"/>
					</g>
					<path id="&lt;Path&gt;" class="s34" d="m477.6 451.9c-7.5 17.6-9.6 31.5-11.9 80.3-2.8 61.1 0.6 85.6 0.3 92.9-0.3 7.4-5.2 20.9-9.4 57.2-4.1 36.3 0.2 124.3 0.2 124.3 0 0 3 5.9 17.3 7.3 13.2 1.2 21-3.3 21-3.3 0 0 25.5-110.1 30.6-131.9 7.1-31 15.7-81 15.7-81l8.4 40.3c0 0-4.2 20-0.4 51.9 3.8 31.9 10.8 92.8 10.8 92.8 0 0 8.3 5.7 19.6 6.9 12.8 1.4 21.4-4.4 21.4-4.4 0 0 12.8-126.4 13.1-162.5 0.2-36.1-2.9-146-11.3-170.8z"/>
					<path id="&lt;Compound Path&gt;" class="s21" d="m553.9 510.2l-12.5 87.5 8.4 40.3-1.2-41.2 9-74.9c9-2 29.5-12.3 35.2-27.2-13.9 14-38.9 15.5-38.9 15.5zm-41.7-40.9c1.7-5.8 3.4-11.6 5.3-17.4-3.4 5.2-6 10.8-8.2 16.5-2.2 5.8-4 11.6-5.5 17.6-1.5 5.9-2.7 11.9-3.6 17.9-0.9 6.1-1.5 12.2-1.4 18.3 1.6-5.9 3-11.8 4.5-17.7 1.4-5.9 2.8-11.8 4.3-17.6 1.5-5.9 3-11.7 4.6-17.6zm-9-4.4c2.1-3.5 4.2-7.1 6-10.8-3.2 2.7-6 5.9-8.6 9.2-2.6 3.2-4.9 6.7-7 10.3-2 3.7-3.9 7.4-5.3 11.3-1.5 3.9-2.6 8-3 12.2l5.8-10.9c2-3.6 4-7.2 6-10.7 2-3.5 4.1-7 6.1-10.6zm-9.2 231.8q-5.5 28.1-10.1 56.4 6.9-27.8 13.1-55.8c4.2-18.7 8.2-37.3 12.1-56.1 3.7-18.9 6.3-37.9 8.3-56.9 2.1-19 3.7-38 5-57.1-2.9 18.9-5.5 37.9-8.1 56.8-2.6 18.9-5.3 37.8-9.1 56.4-3.8 18.7-7.6 37.5-11.2 56.3zm102.6-94.3c0.4 8.3 0.8 16.6 0.6 24.8-0.2 8.2-0.8 16.6-1.3 24.9l-1.5 24.9q-1.5 24.9-2.4 49.8 3.2-24.8 5.5-49.6c1.5-16.6 3-33.1 3.7-49.9 0-16.8-1.3-33.4-2.7-50-1.5-16.6-3.4-33.1-5.9-49.6l2.8 49.8c0.4 8.3 0.9 16.6 1.2 24.9z"/>
				</g>
			</g>
			<g id="Top 00000072268055292168343460000012640085193374887296 ">
				<g id="&lt;Group&gt;">
					<path id="&lt;Path&gt;" class="s21" d="m585.9 244.8c-3.4 12.2-5 29.9 1.3 42.8-16.1 13.5-49.7 15-84.8 10q-1.9-6.3-3.7-12.5c-1.9 7-2.1 12.3-2.1 12.3 0 0-7.3-0.6-12.7-1.9-0.4-12.9-0.9-29.9-0.7-50.6 0.2-16.4 3.7-27.3 12.9-37.6 32.5-30.3 99.1-13.5 89.8 37.5z"/>
				</g>
				<g id="Arm 15 ">
					<path id="&lt;Path&gt;" class="s33" d="m690.2 372c-7.6 15.8-23.6 39.6-35.6 45.6-7.2 3.6-21.7-5.5-34.9-13.9-20.4-13-32-20.8-32-20.8l-14.8-68.6c15.8 1.1 33.2 21.8 52.1 38.7 11.1 9.9 22.7 20.9 22.7 20.9 0 0 9.3-9.7 15.2-16.7 8.8-10.4 13.5-15.2 15.3-21.7 1.9-6.4 2.9-11.5 4.1-16.1 1.1-4 3-7.7 4.7-11.4 1.8-3.9 3.8-7.8 5.5-11.7 0.5-0.9 1.5-0.8 2.4-0.3 1.5 0.9 2.5 2.7 2.8 4.5 0.3 1.8 0.1 3.7-0.3 5.5q-0.5 2.4-1.2 4.7c-0.6 1.6-1.9 5.4 0.6 6 1.7 0.4 4.5-1.6 6.1-2.4 8.3-4.4 16.1-15.7 19.3-19.9 3.2-4.3 5.1-3.8 6.2-1.4 0.3 0.7 0.1 2.3-0.5 4.1 1.7-2.5 3.4-4.3 5.3-4.2 2.3 0.2 1.5 3.8 1.1 5.3-0.6 1.9-1.2 4-1.2 4 1 0 2 1.4 2.3 2 0.3 0.6 0.3 1.6 0.3 2.2-0.4 4.4-3 8.7-4.9 11.6 2.1-1.9 2.7-3.1 4-3.6 0.9-0.4 1.8-0.3 2.4 0.5 0.7 0.9-1.4 5.4-1.9 6.5-4.3 8.4-4.6 8.1-8.2 12.3-2.8 3.1-4.9 6.3-8.5 9.4-3.2 2.8-5.5 4.9-10.4 7.5-7.3 3.9-10.4 5.6-18 21.4z"/>
					<path id="&lt;Path&gt;" class="s35" d="m730.8 318c-1.7 2-3.4 3.9-5.3 5.6-1.9 1.8-4 3.3-5.9 5.1 2.4-1.1 4.5-2.6 6.5-4.3 1.9-1.8 3.7-3.9 4.7-6.4z"/>
					<g id="&lt;Group&gt;">
						<path id="&lt;Path&gt;" class="s35" d="m691.2 341q-0.2-0.8-0.3-1.6c-0.1-1 0-2 0.2-3 0.5-2 1.3-3.8 2.6-5.3 2.6-3.3 7.1-5.2 11.2-4.3 0.1 0 0.4 0.3 0.2 0.4-3.9 0.8-7.6 1.7-10.3 5-2.1 2.7-2.6 6.6-2.3 10.1 0 0.3-0.3 0.3-0.5 0.1-0.3-0.5-0.6-0.8-0.8-1.4z"/>
						<path id="&lt;Path&gt;" class="s35" d="m711.1 317c3.2-2.8 6-6.2 8.7-9.4 2.7-3.1 5.1-6.5 7.5-9.7 0.1-0.1 0.2 0 0.1 0.1-1.9 4-4.5 7.6-7.4 10.9-2.7 3.1-5.7 5.6-8.8 8.1-0.1 0.1-0.1 0-0.1 0z"/>
						<path id="&lt;Path&gt;" class="s35" d="m714.1 323.8c3.1-2.7 6-6.1 8.7-9.4q1.6-1.8 3.1-3.8c1-1.2 2-2.5 2.8-3.9q0.4-0.6 0.8-1.2c0.4-0.6 0.6-1.1 1.1-1.6q0.6-0.8 1.5-1.2c0 0 0.1 0 0.1 0.1-0.6 0.4-1.2 1.1-1.6 1.8q-0.4 0.7-0.8 1.5c-0.2 0.4-0.5 0.8-0.7 1.2q-1.2 2.1-2.5 4-1.7 2.3-3.6 4.5c-2.7 3.1-5.8 5.5-8.9 8.1 0 0-0.1 0 0-0.1z"/>
					</g>
					<g id="&lt;Group&gt;">
						<path id="&lt;Path&gt;" class="s34" d="m571.1 312.6c15.5 1.9 23.6 9.3 35.4 20.2 10.8 10 41.9 39 41.9 39l16.2-16.8c0 0-0.5 9.8 7.4 16.3 7.9 6.6 17.5 3.7 17.5 3.7 0 0-5.3 10.1-15.2 24.6-9.8 14.5-15.7 18.8-22.1 19.5-6.5 0.8-13.2-3.2-26.1-10.6-14.7-8.4-40.8-24.5-40.8-24.5z"/>
						<path id="&lt;Path&gt;" class="s27" d="m648.4 371.8c-3.6 3.6-9.4 11.9-8.5 21.3-3.4-10.5 2-21 5-24.5z"/>
					</g>
				</g>
				<g id="Head 9 ">
					<path id="&lt;Path&gt;" class="s33" d="m553.5 313.4c-2.6 0.2-3.2-3.3-3.4-7.2l-0.3-4.4c6.8-0.1 12.8-1.4 16.6-4.3 6.4-4.9 11.7-11.6 10.9-32.5-0.4-9.1-2.3-13.1-2.2-15.2 0.2-3.3 0.5-5.7 0-9.1-0.6-3.1-1.4-5.8-2.5-7-4.6-0.1-10.3-1.4-14.8-2.5-4.6-1.1-10.6-4.3-13.5-7.9-0.2 3.3 2.1 7.9 4.5 10.2-10.2 1.1-22.9-2.9-28.3-11.5 1.1 3.3 1.6 7.8 0.4 13.1-1.2 5.2-3.7 8.3-6.9 10.8 1.4 2.7 2.2 5.7 2.5 8.7 0.1 1.4 0.1 2.9-0.5 4.2-0.5 1.4-1.5 2.5-2.9 2.9-3.2 0.8-4.4-3.1-5.8-5.1-1.9-2.6-3.2-3.4-5.5-4.1-3.9-1.1-8.7 0.5-11 4.1-3.8 5.7-3.6 14.4 3.9 22.3 7.2 7.7 15.2 2.7 15.3 1.1 0 0 1.7 25 1.9 29.1 0.2 4.2-0.2 6-5.3 8 0 0 7.1 28.3 59.2 35.7 12.5-21.8-12.3-39.4-12.3-39.4z"/>
					<g id="&lt;Group&gt;">
						<g id="&lt;Group&gt;">
							<path id="&lt;Path&gt;" class="s21" d="m570.2 240.5l-8.8-3.5c0.8-2.5 3.5-3.7 6-2.8 2.4 1 3.6 3.8 2.8 6.3z"/>
							<path id="&lt;Path&gt;" class="s21" d="m527.2 243.2l8.4-4.5c-1.2-2.4-4-3.4-6.3-2.1-2.4 1.3-3.3 4.2-2.1 6.6z"/>
							<g id="&lt;Group&gt;">
								<path id="&lt;Path&gt;" class="s36" d="m553.2 275.5l-13.8-2.7c-0.9 3.8 1.5 7.5 5.3 8.2 3.8 0.8 7.6-1.7 8.5-5.5z"/>
								<path id="&lt;Path&gt;" class="s37" d="m548.2 280.8c-1.1 0.4-2.3 0.5-3.5 0.2-2.9-0.5-5-2.8-5.4-5.5 3.9-0.5 7.5 1.8 8.9 5.3z"/>
							</g>
						</g>
						<g id="&lt;Group&gt;">
							<path id="&lt;Path&gt;" class="s35" d="m549.8 301.8c-11.1 0.2-25.8-1.7-35.7-16.1 0 0 1.3 9.7 11.1 15.5 12.2 7.1 24.9 5 24.9 5z"/>
						</g>
						<path id="&lt;Path&gt;" class="s21" d="m539.5 251.5c0 2.2-1.7 4-3.8 4.1-2.2 0-4-1.7-4.1-3.8 0-2.2 1.7-4 3.8-4.1 2.2 0 4 1.7 4.1 3.8z"/>
						<path id="&lt;Path&gt;" class="s21" d="m569.1 249.4c0.1 2.2-1.7 4-3.8 4-2.2 0.1-4-1.6-4.1-3.8 0-2.1 1.7-4 3.9-4 2.1-0.1 3.9 1.6 4 3.8z"/>
					</g>
					<g id="&lt;Group&gt;">
						<path id="&lt;Path&gt;" class="s19" d="m519.1 244.2l-16.1 8.7c1.4 0.5 2.8 1.8 3.9 3.2l13.1-6.8z"/>
						<g id="&lt;Group&gt;">
							<path id="&lt;Compound Path&gt;" fill-rule="evenodd" class="s20" d="m581.3 241.8c0.1 1.6-0.7 3.1-1.1 3.8-0.2 0.3-0.4 0.7-0.4 1.3-0.3 2.6 0 7.4-0.8 10.2-0.8 2.8-2.7 7.3-9.8 7.9q-2 0.1-3.7-0.1-0.1 0-0.3-0.1-1.8-0.3-3.1-1c-0.9-0.4-1.8-1-2.6-1.7-1.2-1.1-2.1-2.4-2.9-3.7-2-3.5-2.2-8.4-4.8-8.8q-0.1 0-0.3 0-0.2 0-0.3 0c-3.5 0.2-2.4 5.5-3.9 9.5-1.5 4-4.3 8-11.9 8.6-3.3 0.3-6.8-0.4-9.3-2.7-1.2-1.2-2-2.4-2.6-3.5-1.5-2.6-2.2-7.4-3-9.9-0.2-0.6-0.5-1.1-0.7-1.4-0.6-0.7-1.8-1.8-2-3.4-0.2-1.6 0.8-3 1.7-3.2q0.9-0.2 1.8-0.4c5.8-1.1 13.4-1.8 18.1-0.9 5.9 1.2 8.1 3 11.3 2.7 3-0.2 4.7-2.3 9.9-4.4 4.1-1.6 11.2-2 16.7-1.8q0.9 0 1.7 0c0.9 0.1 2.1 1.4 2.3 3zm-37.3 5.9c-0.3-0.4-0.9-0.9-1.8-1.2-2.7-1.3-5.8-1.9-8.8-1.9-5.5-0.1-8.8 1.4-10 2.6-1.2 1.3-0.1 6.4 0.7 9 0.6 1.9 1.3 3.9 2.6 5.4 1.6 2 4.2 3.6 8.3 3.3 4-0.2 6.5-1.8 7.9-3.7 1.4-1.9 1.9-4 2.1-5.5 0.3-3 0.3-6.5-1-8zm32.2-4.7q-0.5-0.4-1.5-0.8c-2.8-0.9-5.8-0.7-8.8-0.1-3.8 0.8-7.7 2.8-8.6 4.5-0.8 1.7-0.1 5.1 0.8 8 0.4 1.4 1.2 3.1 2.2 4.2 1.6 2.1 4.4 3.8 8.8 3.4 1.7-0.2 3-0.6 4.1-1.3 3.6-2.3 4-6.9 4.1-9 0.2-2.6 0.2-7.8-1.1-8.9z"/>
						</g>
					</g>
					<g id="&lt;Group&gt;">
						<path id="&lt;Path&gt;" class="s35" d="m563 263.2l-1.1 0.6-10.8 5-2.5-16.4c0.3-1.3 0.8-2.3 1.9-2.7l4.6 5z"/>
					</g>
				</g>
				<g id="Chest 00000093159266061518114280000018130522826485748108 ">
					<path id="&lt;Path&gt;" class="s38" d="m608 466.9c-9.3 11.6-24.1 16.4-46.7 20.1-29.1 4.9-71.9 1.4-90.2-17.5 3.7-14.2 9.5-22.8 10.9-36.9 2-20.2-4.7-32.7-7-57.8-1.7-19.5 2.2-43.1 10-52.2l22.7-6.4c6.9 9.2 36.5 25.9 54.6 34.2 1.3-12.6-1.9-25.4-7.8-37l16 0.3c11 8.8 28.2 25.5 35.5 43.5 6.5 16.2 8.4 31.1-6.2 48.9l-0.2 20.5c0 0 6.4 24.1 8.4 40.3z"/>
					<g id="&lt;Group&gt;">
						<path id="&lt;Path&gt;" class="s12" d="m613.1 384.7c-6.4-22.6-28.9-56.7-59.4-71.8l-0.1-0.1h-0.2c-0.8 0-1.4-0.5-1.7-1l19.1 1.3q2.2 2.1 4.4 4.1c20.4 19.2 34.5 32.4 37.9 67.5z"/>
						<g id="&lt;Group&gt;">
							<path id="&lt;Compound Path&gt;" fill-rule="evenodd" class="s2" d="m571.1 312.6c24.4 23.1 41.6 36.3 43.2 82.3-0.8-19.4-24.6-63.5-60.8-81.5q-0.1 0-0.2 0c-1.4 0-2.2-1.2-2.4-2.2zm40.8 66.5c-4.3-30.7-17.9-43.5-37.1-61.5q-2.1-1.9-4.2-4l-16.3-1.1c28.1 14.1 49.4 44.2 57.6 66.6z"/>
						</g>
					</g>
					<path id="&lt;Path&gt;" class="s5" d="m556.2 401.8c0 0-10.6 12.4-31 9.5-21.1-3-24.7-20.6-24.7-20.6 0 0-1.6 22.9 23.6 26.5 23.2 3.3 32.1-15.4 32.1-15.4z"/>
				</g>
				<g id="&lt;Group&gt;">
					<g id="&lt;Group&gt;">
						<path id="&lt;Path&gt;" class="s32" d="m511.8 652.9c-5.3 0-46.3-0.6-69.4-17.2 0.5-4.3 5.8-48.8 13.9-115.5 3.6-29.1 8.7-52.8 12.5-70.1 2.5-11.5 4.5-20.7 4.9-26.8 0.4-4.2-0.6-9.5-1.7-16.3-3.1-17.9-7.7-45 4.6-84l34.5-9.7c-1.4 16.5 0.5 27.8 2.7 40.8 2.3 13.7 4.9 29.2 4.8 55.1 0 51.1-6.4 232.4-6.8 243.7z"/>
						<path id="&lt;Compound Path&gt;" fill-rule="evenodd" class="s32" d="m519.2 409.2c0 53.1-6.9 244.3-6.9 244.3q0 0-0.4 0c-4.7 0-46.7-0.5-70.1-17.6 0 0 5.4-45.1 14-115.8 5.9-48.8 16.2-81.8 17.4-96.8 1.1-15.1-14.2-46.7 2.9-100.8l35.7-9.9c-3.2 33.6 7.4 44.6 7.4 96.6zm-42.2-85.7c-12.1 38.7-7.5 65.6-4.5 83.4 1.2 6.8 2.1 12.2 1.8 16.4-0.5 6.2-2.5 15.4-5 27-3.7 17.2-8.9 40.9-12.4 70-8 65.2-13.2 109.3-13.9 115.1 22.4 15.9 61.2 16.9 68.2 17 0.6-15.7 6.9-192.8 6.9-243.2 0-25.9-2.6-41.3-4.9-55-2.2-12.8-4-24-2.7-40.1z"/>
					</g>
				</g>
				<g id="&lt;Group&gt;">
					<g id="Arm 00000036929847691889129050000004385884370635998100 ">
						<path id="&lt;Path&gt;" class="s39" d="m470.7 325.4c-17.1 6.5-21.6 13.2-26.7 31.6-5.1 18.4-15.7 67.2-16.8 91.6 6.6 9 42.1-20.2 42.1-20.2 0 0 10.4-39.8 13.5-53.2 3.1-13.4 3.9-45.5-12.1-49.8z"/>
						<path id="&lt;Path&gt;" class="s37" d="m474.8 407.2c-9.7 3.9-26.7 7.1-32.9 17.7l30.1-6.8c1.3-4.9 1.3-4.8 2.8-10.9z"/>
						<path id="&lt;Path&gt;" class="s35" d="m533.7 416.7c3.9-1 16-14.9 17.8-18.4 1.7-3.6 4.6-7.7 7.4-10.9 2.7-3.1 3.9-7.1 2.8-8.7-1.1-1.7-2.5-2.5-4.6-0.6-2.2 1.9-4.4 4.1-10.2 6.7-5.8 2.5-11.9 5.1-14.2 12.5-2.4 7.5 1 19.4 1 19.4z"/>
						<g id="&lt;Group&gt;">
							<g id="&lt;Group&gt;">
								<path id="&lt;Path&gt;" class="s33" d="m540.4 391.8c4.3-0.1 7.1-0.1 10.6 0.1 3 0.2 6 0.2 9 0.5 3.3 0.4 7.1 1.3 10.5 0.8 0.9-0.2 1.9-0.4 2.8-0.8 0.7-0.4 1.5-0.8 1.9-1.5 0.5-0.7 0.6-1.7 0.1-2.4-0.4-0.5-1.1-0.7-1.7-1-4.8-1.6-9.7-3-14.7-3.9-5.9-1.1-11.8-1.7-17.9-2-2.3-0.1-5.8-0.8-8 0.4-2.2 1.1-4.1 4.8-5.1 6.8-1 1.9-5 8.7-7.3 12.5-1.9 3.1-2.7 4.8-6.8 5.8-4.9 1.2-25.2 5.1-37.9 7-9.4 1.5-24.1 3.4-33.7 10.4-9.7 7-13.2 12.2-14.8 22.1-0.9 5.6-0.2 18.3 30.8 14.5 16.4-2 31.4-11.1 42-17.1 11.9-6.7 22.2-12 25.3-12.6 4.4-0.8 9.3-2.2 12.3-6.1 3.9-5 5.7-7.2 11.4-8.5 2.3-0.5 5.8-0.2 6.8-2.8 0.3-0.9 0.4-1.9 0.5-2.9 0-0.3 0.1-0.6 0.3-0.8 0.1-0.2 0.4-0.3 0.6-0.3 1-0.4 1.6-1.4 1.8-2.5 0.2-1 0.1-2-0.1-3.1 1.7-1.2 2.2-3.7 1.3-5.6-1.2-2.8-5-3.6-7.8-4.3-1.5-0.4-12.2-2.7-12.2-2.7z"/>
								<path id="&lt;Path&gt;" class="s35" d="m559.9 403.7c-2.6-0.4-8.5-2.5-12.3-2.7-3.9-0.2-8.3 0.1-10-0.7 1.1 0.8 5.4 1.5 10 1.8 3.8 0.4 9.5 2 11.6 2.6q0-0.1-0.1-0.3 0.4-0.3 0.8-0.7z"/>
								<path id="&lt;Path&gt;" class="s35" d="m554.5 409.8c-1.5 0.2-7.8-0.3-10.3-0.4-2.4-0.1-6.5-0.6-6.5-0.6 0 0 3 1.1 5.3 1.2 2.3 0.2 9.1 0.7 11.6 0.5q1.4-0.1 2.4-0.4 0.2-0.1 0.4-0.1c0.6-0.3 1.1-0.8 1.4-1.5-1.2 0.8-3.3 1.2-4.3 1.3z"/>
							</g>
						</g>
					</g>
					<path id="&lt;Path&gt;" class="s32" d="m485.4 374.2c-2.5 9.8-10.6 39.3-10.6 39.3l33.8-5.3c-4.7 0.6-7.9 11.1-7.2 19.5 0.7 8.3 3.9 13.5 3.9 13.5 0 0-20.7 14.2-38.3 19.4-10.6 3.1-27.7 2.8-32.7 0.4-4.9-2.4-9.6-5-7.6-23.3 2.1-18.3 8.1-53.2 15.2-80.4 7.1-27.1 16.5-30.1 34.2-34.8 16.3 7.3 12.3 39.4 9.3 51.7z"/>
					<path id="&lt;Path&gt;" class="s27" d="m474.8 413.5c-15.7 3.9-23 4.1-32.9 11.4 4.2-8.2 14.6-12.1 34.6-17.4z"/>
				</g>
			</g>
		</g>
	</g>
</svg>