<svg version="1.2" xmlns="http://www.w3.org/2000/svg" viewBox="0 0 1000 1000" width="1000" height="1000">
	<title>3324676</title>
	<style>
		.s0 { fill: none } 
		.s1 { fill: #e0e0e0 } 
		.s2 { fill: #72e6be } 
		.s3 { fill: #5b907e } 
		.s4 { fill: #222323 } 
		.s5 { fill: #f5f5f5 } 
		.s6 { fill: #263238 } 
		.s7 { fill: #ffbe9d } 
		.s8 { fill: #eb996e } 
		.s9 { fill: #074530 } 
		.s10 { opacity: .4;fill: #074530 } 
		.s11 { fill: #295a49 } 
		.s12 { fill: #d2fff0 } 
		.s13 { fill: #e8505b } 
		.s14 { fill: #000000 } 
		.s15 { fill: #ffffff } 
		.s16 { fill: #455a64 } 
		.s17 { fill: #0a2040 } 
		.s18 { fill: #072857 } 
		.s19 { fill: #fafafa } 
		.s20 { fill: #003785 } 
	</style>
	<g id="Background Complete">
		<g id="&lt;Group&gt;">
			<g id="&lt;Group&gt;">
				<g id="&lt;Group&gt;">
					<g id="&lt;Group&gt;">
						<g id="&lt;Group&gt;">
							<g id="&lt;Group&gt;">
								<g id="&lt;Group&gt;">
									<g id="&lt;Group&gt;">
										<path id="&lt;Compound Path&gt;" fill-rule="evenodd" class="s0" d="m724 528.9c-4.7 1.4-9.4 2.2-14.1 2.3l-5.8 11.9-21.3-4.9 0.1-13.2c-4.2-2.2-8.1-5-11.6-8.3l-12.5 4.3-11.6-18.5 9.4-9.3c-1.4-4.6-2.2-9.4-2.3-14.1l-11.9-5.7 4.9-21.3h13.2c2.2-4.1 5-8.1 8.3-11.6l-4.4-12.5 18.6-11.5 9.3 9.3c4.6-1.4 9.3-2.1 14.1-2.3l5.7-11.9 21.3 4.9v13.3c4.1 2.2 8 4.9 11.6 8.2l12.4-4.3 11.6 18.5-9.4 9.3c1.5 4.6 2.2 9.4 2.4 14.1l11.9 5.7-4.9 21.4-13.3-0.1c-2.2 4.2-4.9 8.1-8.2 11.6l4.3 12.5-18.5 11.6zm-4.3-31.1c11-6.9 14.3-21.4 7.5-32.4-6.9-10.9-21.3-14.3-32.3-7.4-11 6.8-14.4 21.3-7.5 32.3 6.8 11 21.3 14.3 32.3 7.5z"/>
									</g>
								</g>
							</g>
						</g>
					</g>
					<g id="&lt;Group&gt;">
						<g id="&lt;Group&gt;">
							<g id="&lt;Group&gt;">
								<g id="&lt;Group&gt;">
									<g id="&lt;Group&gt;">
										<g id="&lt;Group&gt;">
											<path id="&lt;Path&gt;" class="s1" d="m719.7 497.8c0 0-1.6 1.4-5.2 2.6-3.4 1.3-9.2 2.2-15.7-0.2-3.2-1.1-6.5-3.1-9.2-6.1-2.7-2.9-4.9-6.7-5.8-11.2-0.6-2.2-0.7-4.5-0.5-6.9 0.1-2.4 0.7-4.8 1.6-7 1.8-4.7 5.2-8.8 9.6-11.6 4.5-2.7 9.7-4 14.6-3.5 2.4 0.1 4.8 0.7 7 1.6 2.2 0.9 4.3 2 6 3.5 3.6 2.7 6.1 6.4 7.5 10.2 1.5 3.7 1.8 7.5 1.5 10.9-0.7 6.8-4.1 11.6-6.7 14.2-2.7 2.6-4.7 3.5-4.7 3.5-0.1-0.2 1.8-1.2 4.3-3.9 2.5-2.6 5.6-7.3 6.1-13.9 0.3-3.2 0-6.9-1.5-10.4-1.5-3.6-3.8-7.1-7.2-9.7-1.7-1.3-3.7-2.4-5.7-3.2-2.1-0.9-4.4-1.4-6.7-1.5-4.7-0.4-9.6 0.8-13.8 3.4-4.2 2.6-7.4 6.5-9.1 10.8-0.9 2.2-1.4 4.5-1.5 6.7-0.2 2.2-0.1 4.5 0.4 6.5 0.8 4.3 2.9 7.9 5.4 10.8 2.6 2.8 5.7 4.8 8.7 6 6.2 2.3 11.8 1.6 15.3 0.5 3.5-1.1 5.2-2.3 5.3-2.1z"/>
										</g>
									</g>
								</g>
							</g>
						</g>
					</g>
					<g id="&lt;Group&gt;">
						<g id="&lt;Group&gt;">
							<g id="&lt;Group&gt;">
								<g id="&lt;Group&gt;">
									<g id="&lt;Group&gt;">
										<g id="&lt;Group&gt;">
											<path id="&lt;Path&gt;" class="s1" d="m724 528.9q0-0.1 0.6 0.5 0.6 0.7 1.8 1.8 2.4 2.4 7 6.9h-0.3c4.8-3 11-7 18.5-11.7l-0.1 0.4c-1.4-3.8-2.8-8-4.4-12.5l-0.1-0.2 0.2-0.2c3-3.2 5.8-7.1 8.1-11.5l0.2-0.3 0.2 0.1c4.2 0 8.6 0 13.3 0l-0.5 0.3q2.3-10 4.9-21.3l0.2 0.6c-3.6-1.7-7.7-3.7-11.9-5.7l-0.3-0.1v-0.4c-0.1-4.4-0.9-9.2-2.3-13.9l-0.1-0.3 0.2-0.3c2.9-2.9 6.1-6 9.4-9.3l-0.1 0.8c-3.6-5.9-7.6-12.1-11.6-18.6l0.7 0.3c-3.8 1.3-8.1 2.8-12.4 4.3l-0.4 0.2-0.3-0.3c-3.2-3-7.1-5.9-11.4-8.2l-0.4-0.2v-0.4c0-4.1 0-8.6 0.1-13.2l0.5 0.7c-6.8-1.6-14-3.3-21.3-4.9l0.7-0.4c-1.8 3.8-3.8 7.8-5.7 11.9l-0.2 0.4h-0.4c-4.5 0.1-9.3 0.9-13.9 2.3-0.3-0.1 0.7 0.2-0.7-0.2l-0.1-0.1-0.2-0.2-0.3-0.3-0.5-0.6-1.2-1.1-2.3-2.4q-2.4-2.3-4.7-4.7l0.9 0.1q-9.5 5.9-18.6 11.6l0.3-0.8q2.2 6.3 4.3 12.5l0.2 0.4-0.3 0.3c-3.3 3.4-6 7.3-8.2 11.4l-0.2 0.4h-0.4q-6.7-0.1-13.2-0.1l0.6-0.5q-2.5 10.9-4.9 21.3l-0.4-0.7q6.1 2.9 11.9 5.8l0.4 0.1v0.4c0.1 4.8 0.9 9.5 2.3 13.9l0.1 0.4-0.3 0.2q-4.8 4.8-9.4 9.3l0.1-0.7c4.1 6.5 7.9 12.7 11.5 18.6l-0.6-0.2c4.4-1.6 8.6-3 12.5-4.4l0.3-0.1 0.2 0.2c3.7 3.5 7.6 6.2 11.5 8.3l0.2 0.1v0.3c0 4.8 0 9.1-0.1 13.2l-0.3-0.4c8.3 1.9 15.3 3.6 21.3 5l-0.3 0.2c2.3-4.8 4.2-8.6 5.8-11.9l0.1-0.1h0.1c4.8-0.1 8.3-0.8 10.6-1.3q1.7-0.4 2.6-0.6 0.9-0.3 0.9-0.2-0.1 0-0.9 0.3c-0.5 0.2-1.4 0.4-2.5 0.7-2.3 0.6-5.9 1.3-10.7 1.5l0.2-0.1c-1.6 3.3-3.4 7.2-5.7 11.9l-0.1 0.3-0.2-0.1c-6.1-1.4-13.1-3-21.4-4.8l-0.3-0.1v-0.3c0-4.1 0-8.4 0.1-13.2l0.2 0.4c-4-2.1-8-4.9-11.7-8.4l0.4 0.1c-3.9 1.4-8 2.9-12.4 4.4l-0.4 0.2-0.2-0.4c-3.7-5.8-7.6-12-11.6-18.5l-0.3-0.4 0.3-0.3q4.6-4.5 9.4-9.3l-0.1 0.6c-1.4-4.5-2.3-9.3-2.4-14.3l0.3 0.6q-5.8-2.9-11.9-5.8l-0.4-0.2 0.1-0.5q2.4-10.4 4.9-21.3l0.1-0.5h0.5q6.5 0.1 13.2 0.1l-0.6 0.3c2.3-4.2 5.1-8.2 8.4-11.7l-0.1 0.6q-2.2-6.1-4.4-12.4l-0.2-0.5 0.5-0.3q9.1-5.7 18.5-11.6l0.5-0.3 0.4 0.4q2.3 2.3 4.6 4.7l2.3 2.3 1.2 1.2 0.6 0.6 0.3 0.3 0.1 0.1 0.1 0.1h0.1v0.1c-1.4-0.4-0.4-0.1-0.7-0.2 4.8-1.5 9.7-2.2 14.2-2.4l-0.5 0.4c1.9-4.1 3.9-8.1 5.7-11.9l0.2-0.5 0.6 0.2c7.3 1.7 14.5 3.3 21.3 4.9l0.5 0.1v0.5c0 4.6-0.1 9.1-0.1 13.3l-0.3-0.6c4.4 2.3 8.4 5.3 11.7 8.4l-0.6-0.2c4.3-1.5 8.5-3 12.4-4.3l0.5-0.2 0.3 0.5c4 6.4 7.9 12.7 11.5 18.5l0.3 0.4-0.4 0.4c-3.2 3.2-6.4 6.4-9.4 9.2l0.2-0.5c1.5 4.8 2.2 9.7 2.3 14.2l-0.3-0.5c4.2 2 8.2 4 11.9 5.8l0.4 0.2-0.1 0.4q-2.6 11.2-5 21.3l-0.1 0.3h-0.3c-4.7 0-9.1 0-13.3-0.1l0.4-0.2c-2.4 4.5-5.3 8.4-8.4 11.7l0.1-0.4c1.6 4.5 3 8.7 4.3 12.5l0.1 0.2-0.2 0.2c-7.6 4.6-13.9 8.5-18.6 11.4l-0.2 0.1-0.1-0.1q-4.4-4.6-6.8-7-1.1-1.2-1.8-1.9-0.6-0.6-0.5-0.6z"/>
										</g>
									</g>
								</g>
							</g>
						</g>
					</g>
				</g>
				<g id="&lt;Group&gt;">
					<g id="&lt;Group&gt;">
						<g id="&lt;Group&gt;">
							<g id="&lt;Group&gt;">
								<g id="&lt;Group&gt;">
									<path id="&lt;Compound Path&gt;" fill-rule="evenodd" class="s2" d="m767.5 370.6c-6.5 2.1-13.2 3.1-19.9 3.4l-8.1 16.8-30.1-7v-18.7c-5.9-3.1-11.4-7-16.4-11.7l-17.6 6.2-16.4-26.3 13.3-13.1c-2-6.5-3.1-13.2-3.3-19.9l-16.9-8.1 7-30.1h18.7c3.1-5.9 7-11.4 11.7-16.4l-6.1-17.6 26.2-16.4 13.1 13.3c6.6-2 13.3-3.1 19.9-3.3l8.2-16.9 30.1 7-0.1 18.7c5.9 3.1 11.4 7 16.4 11.7l17.6-6.1 16.4 26.2-13.3 13.1c2.1 6.6 3.2 13.3 3.4 19.9l16.8 8.2-7 30.1-18.7-0.1c-3.1 5.9-7 11.4-11.7 16.4l6.2 17.6-26.3 16.4zm-6-43.9c15.6-9.7 20.3-30.2 10.6-45.7-9.7-15.6-30.1-20.3-45.7-10.6-15.5 9.7-20.3 30.2-10.6 45.7 9.7 15.5 30.2 20.3 45.7 10.6z"/>
								</g>
							</g>
						</g>
					</g>
				</g>
			</g>
			<g id="&lt;Group&gt;">
				<g id="&lt;Group&gt;">
					<g id="&lt;Group&gt;">
						<g id="&lt;Group&gt;">
							<g id="&lt;Group&gt;">
								<path id="&lt;Compound Path&gt;" fill-rule="evenodd" class="s2" d="m838.5 470.3c-3.5 1-7.1 1.6-10.6 1.7l-4.3 9-16.1-3.7 0.1-10c-3.2-1.6-6.1-3.7-8.8-6.2l-9.3 3.3-8.7-14 7-7c-1.1-3.4-1.6-7-1.7-10.5l-9-4.4 3.7-16h9.9c1.7-3.1 3.8-6 6.3-8.7l-3.3-9.4 14-8.7 7 7.1c3.4-1.1 7-1.7 10.5-1.8l4.4-8.9 16 3.7-0.1 9.9c3.2 1.7 6.1 3.8 8.8 6.2l9.4-3.2 8.7 13.9-7.1 7c1.1 3.5 1.7 7.1 1.8 10.6l8.9 4.3-3.7 16.1-9.9-0.1c-1.7 3.1-3.8 6.1-6.3 8.7l3.3 9.4-13.9 8.7zm-3.2-23.3c8.2-5.2 10.8-16.1 5.6-24.4-5.2-8.2-16.1-10.7-24.3-5.6-8.3 5.2-10.8 16.1-5.6 24.3 5.1 8.3 16 10.8 24.3 5.7z"/>
							</g>
						</g>
					</g>
				</g>
			</g>
		</g>
		<g id="&lt;Group&gt;">
			<g id="&lt;Group&gt;">
				<g id="&lt;Group&gt;">
					<path id="&lt;Path&gt;" class="s1" d="m224.7 293.3c0.2 0.2-9.1 9.8-20.9 21.5-11.8 11.6-21.5 20.9-21.7 20.7-0.2-0.2 9.2-9.8 21-21.5 11.7-11.6 21.4-20.9 21.6-20.7z"/>
				</g>
			</g>
			<g id="&lt;Group&gt;">
				<g id="&lt;Group&gt;">
					<path id="&lt;Path&gt;" class="s1" d="m224.8 335.4c-0.2 0.2-9.9-9.1-21.7-20.6-11.9-11.6-21.3-21.2-21.1-21.4 0.2-0.2 10 9 21.8 20.6 11.8 11.6 21.2 21.2 21 21.4z"/>
				</g>
			</g>
		</g>
		<g id="&lt;Group&gt;">
			<g id="&lt;Group&gt;">
				<g id="&lt;Group&gt;">
					<g id="&lt;Group&gt;">
						<path id="&lt;Path&gt;" class="s1" d="m267.1 559.5c0 0.3-12-0.8-26.7-2.3-14.7-1.6-26.6-3.1-26.6-3.4 0-0.2 12 0.8 26.7 2.3 14.8 1.6 26.7 3.1 26.6 3.4z"/>
					</g>
				</g>
			</g>
			<g id="&lt;Group&gt;">
				<g id="&lt;Group&gt;">
					<g id="&lt;Group&gt;">
						<path id="&lt;Path&gt;" class="s1" d="m265 579.6c0 0.2-12-0.8-26.7-2.3-14.7-1.6-26.7-3.1-26.6-3.4 0-0.3 12 0.8 26.7 2.3 14.7 1.6 26.7 3.1 26.6 3.4z"/>
					</g>
				</g>
			</g>
		</g>
		<g id="&lt;Group&gt;">
			<g id="&lt;Group&gt;">
				<g id="&lt;Group&gt;">
					<path id="&lt;Path&gt;" class="s3" d="m120.8 515.4c0 0-15.8-1.2-14.4 34.4 1.5 35.5 5.1 54.4 5.1 54.4 0 0-0.5 7.9-6.6 6.4-6.1-1.6-17.5-9.3-23.2-3.5-5.9 5.9-3.8 15 4 25.8 7.8 10.7 24 34.9 25.5 37 1.4 2.2 2 6.2-2.3 5.8-4.4-0.3-33.6-10.2-37.4 3.9-3.9 14.1 22.7 40.5 25.6 43.4 2.9 2.9 3 4.8 1.9 6.6-1.2 1.7-10.7-2.5-19.1-5-8.4-2.5-18.6-3.8-20.2 4.5-1.5 8.3 10.2 32.7 54.1 58.4l21.2 10.6 20-12.8c41.1-29.9 50.4-55.4 48-63.5-2.4-8.2-12.4-5.8-20.5-2.5-8.1 3.3-17.2 8.5-18.5 6.9-1.3-1.7-1.3-3.5 1.2-6.8 2.5-3.2 26.4-32 21.2-45.7-5.3-13.7-33.4-0.9-37.6-0.1-4.3 0.8-4.1-3.3-2.9-5.5 1.2-2.4 14.9-28 21.6-39.5 6.7-11.4 7.9-20.7 1.4-26-6.2-5.2-16.8 3.6-22.7 5.7-6 2.2-7.2-5.6-7.2-5.6 0 0 1.7-19.2-0.4-54.7-2.1-35.5-18.1-32.6-18.1-32.6"/>
				</g>
				<g id="&lt;Group&gt;">
					<g id="&lt;Group&gt;">
						<path id="&lt;Path&gt;" class="s1" d="m122 547.2q0.1 0 0.1 0.7 0.1 0.8 0.2 2.2c0.1 2 0.3 4.8 0.6 8.4 0.5 7.3 1.1 17.9 1.8 30.9 1.4 26.1 3.1 62.1 4.9 101.9 1.7 39.8 3.3 75.9 4.6 101.9 0.7 13 1.2 23.6 1.6 30.9 0.2 3.6 0.3 6.5 0.4 8.4q0.1 1.4 0.1 2.2 0 0.7 0 0.7 0 0-0.1-0.7 0-0.8-0.1-2.2c-0.2-1.9-0.4-4.7-0.6-8.4-0.5-7.2-1.1-17.8-1.8-30.8-1.5-26.1-3.2-62.1-4.9-102-1.8-39.8-3.4-75.8-4.7-101.9-0.6-13-1.2-23.5-1.5-30.9-0.2-3.6-0.4-6.4-0.5-8.4q0-1.4 0-2.1-0.1-0.8-0.1-0.8z"/>
					</g>
				</g>
				<g id="&lt;Group&gt;">
					<g id="&lt;Group&gt;">
						<path id="&lt;Path&gt;" class="s1" d="m97.3 618.4c0.1 0 0.5 0.4 1.3 1.1 0.8 0.8 2 1.9 3.4 3.3 2.8 2.7 6.5 6.6 10.6 11 4 4.4 7.5 8.3 10.3 11.4q1.9 2 3.2 3.4c0.7 0.8 1.1 1.2 1.1 1.3-0.1 0-0.5-0.4-1.4-1.1-0.8-0.8-1.9-1.9-3.3-3.3-2.8-2.7-6.5-6.7-10.5-11.1-4-4.3-7.6-8.2-10.4-11.2q-1.9-2-3.2-3.4c-0.7-0.8-1.1-1.3-1.1-1.4z"/>
					</g>
				</g>
				<g id="&lt;Group&gt;">
					<g id="&lt;Group&gt;">
						<path id="&lt;Path&gt;" class="s1" d="m129.3 649.2c-0.2-0.2 7.5-8.3 17.2-18.1 9.7-9.8 17.7-17.7 17.9-17.5 0.1 0.1-7.6 8.2-17.3 18.1-9.7 9.8-17.7 17.6-17.8 17.5z"/>
					</g>
				</g>
				<g id="&lt;Group&gt;">
					<g id="&lt;Group&gt;">
						<path id="&lt;Path&gt;" class="s1" d="m129.2 710.4c0 0 0.5-0.3 1.4-0.9q1.7-1 4.2-2.3c3.5-2 8.3-4.7 13.5-7.9 5.2-3.2 9.8-6.2 13.1-8.5q2.4-1.5 4-2.6c0.9-0.6 1.4-0.9 1.5-0.9 0 0.1-0.5 0.5-1.3 1.2-0.9 0.7-2.2 1.6-3.8 2.8-3.3 2.4-7.9 5.5-13.1 8.7-5.2 3.2-10.1 5.8-13.6 7.7-1.8 0.9-3.3 1.6-4.3 2.1-1 0.4-1.6 0.7-1.6 0.6z"/>
					</g>
				</g>
				<g id="&lt;Group&gt;">
					<g id="&lt;Group&gt;">
						<path id="&lt;Path&gt;" class="s1" d="m94.2 689c0-0.1 0.5 0.2 1.4 0.7 0.9 0.5 2.2 1.2 3.9 2.1 3.2 1.8 7.6 4.4 12.4 7.3 4.9 2.9 9.3 5.5 12.4 7.5 1.6 1 2.8 1.8 3.7 2.3 0.9 0.6 1.3 1 1.3 1 0 0-0.5-0.2-1.5-0.7-0.9-0.5-2.2-1.2-3.8-2.1-3.2-1.8-7.6-4.4-12.5-7.3-4.8-2.9-9.2-5.5-12.3-7.5-1.6-1-2.9-1.8-3.7-2.3-0.9-0.6-1.4-1-1.3-1z"/>
					</g>
				</g>
				<g id="&lt;Group&gt;">
					<g id="&lt;Group&gt;">
						<path id="&lt;Path&gt;" class="s1" d="m87.2 743.1c0-0.1 0.7 0.2 1.9 0.9q1.9 1 4.9 2.7c4.1 2.3 9.8 5.6 16.1 9.2 6.2 3.6 11.9 7 15.9 9.4q2.9 1.8 4.8 3c1.1 0.7 1.7 1.1 1.7 1.1 0 0.1-0.7-0.2-1.8-0.9q-2-1.1-5-2.7c-4.1-2.3-9.8-5.6-16-9.2-6.3-3.6-11.9-7-16-9.4q-2.9-1.8-4.8-3c-1.1-0.7-1.7-1.1-1.7-1.1z"/>
					</g>
				</g>
				<g id="&lt;Group&gt;">
					<g id="&lt;Group&gt;">
						<path id="&lt;Path&gt;" class="s1" d="m131.6 768.5c0-0.1 0.6-0.5 1.9-1.2q2-1.3 5.1-3.2c4.3-2.6 10.3-6.3 16.8-10.5 6.5-4.2 12.3-8.2 16.4-11.1q3-2.1 5-3.4c1.1-0.9 1.8-1.3 1.8-1.2 0.1 0-0.5 0.5-1.6 1.4-1.2 0.9-2.8 2.1-4.8 3.7-4.1 3-9.9 7-16.4 11.3-6.5 4.2-12.5 7.8-16.9 10.3-2.2 1.3-4 2.3-5.3 2.9-1.3 0.7-2 1-2 1z"/>
					</g>
				</g>
			</g>
			<g id="&lt;Group&gt;">
				<g id="&lt;Group&gt;">
					<g id="&lt;Group&gt;">
						<path id="&lt;Path&gt;" class="s4" d="m163.4 805h-58.5l19.1 144.5h20.3z"/>
					</g>
				</g>
				<g id="&lt;Group&gt;">
					<g id="&lt;Group&gt;">
						<g id="&lt;Group&gt;">
							<path id="&lt;Path&gt;" class="s5" d="m107.9 822.7c0 0 0.1 0.2 0.3 0.5 0.3 0.4 0.8 0.8 1.5 1.1 1.3 0.6 3.8 0.6 6.1-0.8 2.4-1.3 4.5-3.9 7.6-5 3.2-1.2 7-1 10.8 0.2 3.7 1.2 7 3.1 10 4.9 3 1.7 5.7 3.3 8.1 4.3 2.5 1.1 4.6 1.6 6 1.8q1.1 0.1 1.7 0.1 0.6 0 0.6-0.1c0.1-0.1-3.3-0.1-8-2.4-2.4-1.1-5-2.7-8-4.5-2.9-1.8-6.3-3.8-10.1-5-3.9-1.2-8-1.5-11.4-0.1-1.7 0.6-3.1 1.6-4.3 2.6-1.2 1-2.2 1.9-3.3 2.6-2.2 1.4-4.4 1.5-5.7 1-1.4-0.5-1.8-1.2-1.9-1.2z"/>
						</g>
					</g>
				</g>
				<g id="&lt;Group&gt;">
					<g id="&lt;Group&gt;">
						<g id="&lt;Group&gt;">
							<path id="&lt;Path&gt;" class="s5" d="m110.1 849.3c0 0.1 0.4-0.6 1.3-1.5 1-0.9 2.5-2.1 4.7-3 2.2-0.8 5-1.3 8.2-1.2 3.1 0.1 6.5 0.8 10.1 1.4 3.7 0.6 7.2 0.9 10.4 0.4 3.3-0.4 6-1.3 8.2-2.3 2.3-1 3.9-2.1 5-2.9 1.1-0.9 1.6-1.4 1.5-1.5-0.1-0.1-2.3 1.9-6.7 3.8-2.2 0.9-4.9 1.7-8.1 2-3.1 0.4-6.5 0.2-10.1-0.5-3.6-0.5-7.1-1.2-10.3-1.3-3.3 0-6.2 0.5-8.4 1.5-2.3 0.9-3.9 2.3-4.7 3.3q-0.7 0.9-0.9 1.3-0.3 0.5-0.2 0.5z"/>
						</g>
					</g>
				</g>
				<g id="&lt;Group&gt;">
					<g id="&lt;Group&gt;">
						<g id="&lt;Group&gt;">
							<path id="&lt;Path&gt;" class="s5" d="m156.8 863.6c0-0.1-0.6-0.4-1.7-0.8-1-0.5-2.7-0.9-4.8-1.1-2.1-0.2-4.6 0-7.3 0.4-2.8 0.5-5.7 1.2-8.7 1.9-3.1 0.6-6.1 1.1-8.8 1-2.6-0.1-5-0.7-6.9-1.5-3.7-1.7-5.1-4.1-5.2-3.9-0.1 0 0.2 0.6 1 1.5 0.7 0.9 2 2 3.9 3 1.9 0.9 4.4 1.6 7.2 1.7 2.8 0.2 5.8-0.2 8.9-0.9 3.2-0.6 6.1-1.4 8.7-1.9 2.7-0.5 5.1-0.7 7.2-0.6 4.1 0.1 6.4 1.4 6.5 1.2z"/>
						</g>
					</g>
				</g>
				<g id="&lt;Group&gt;">
					<g id="&lt;Group&gt;">
						<g id="&lt;Group&gt;">
							<path id="&lt;Path&gt;" class="s5" d="m115.2 883.6c0.1 0.2 2.1-1.3 5.7-0.5 1.8 0.3 3.7 1.2 6 2.2 2.2 1 4.8 1.9 7.7 2.1 5.7 0.5 10.8-1.3 14-3.2 1.6-1 2.7-2 3.4-2.7 0.7-0.8 1.1-1.2 1.1-1.3-0.2-0.1-1.7 1.6-4.9 3.4-3.1 1.7-8 3.4-13.5 2.8-5.6-0.3-9.8-3.6-13.7-4-1.8-0.3-3.4 0-4.4 0.4-1 0.4-1.4 0.8-1.4 0.8z"/>
						</g>
					</g>
				</g>
				<g id="&lt;Group&gt;">
					<g id="&lt;Group&gt;">
						<g id="&lt;Group&gt;">
							<path id="&lt;Path&gt;" class="s5" d="m118.5 911.4c0 0.1 2 0.1 4.9-1 2.9-1 6.5-3.2 10.8-4.9 2.1-0.8 4.3-1.3 6.2-1.3 2 0 3.7 0.4 5 1.1 2.7 1.3 3.5 3.2 3.6 3.1 0.1 0-0.1-0.5-0.5-1.2-0.5-0.7-1.4-1.7-2.8-2.5-1.3-0.8-3.2-1.4-5.3-1.4-2.1-0.1-4.3 0.4-6.5 1.3-4.4 1.7-8 4-10.8 5.2-2.7 1.2-4.6 1.4-4.6 1.6z"/>
						</g>
					</g>
				</g>
				<g id="&lt;Group&gt;">
					<g id="&lt;Group&gt;">
						<g id="&lt;Group&gt;">
							<path id="&lt;Path&gt;" class="s5" d="m121.4 924.3c-0.1 0.1 1.3 0.6 3.7 1.2 2.3 0.5 5.6 1.2 9.2 1.5 3.7 0.4 7 0.4 9.4 0.3 2.4-0.1 3.9-0.3 3.9-0.5 0-0.3-6 0-13.2-0.7-7.2-0.7-13-2.1-13-1.8z"/>
						</g>
					</g>
				</g>
			</g>
		</g>
	</g>
	<g id="Floor">
		<g id="&lt;Group&gt;">
			<g id="&lt;Group&gt;">
				<path id="&lt;Path&gt;" class="s6" d="m942.5 947.1c0 0.3-199 0.5-444.5 0.5-245.5 0-444.5-0.2-444.5-0.5 0-0.3 199-0.5 444.5-0.5 245.5 0 444.5 0.2 444.5 0.5z"/>
			</g>
		</g>
	</g>
	<g id="Character">
		<g id="&lt;Group&gt;">
			<g id="&lt;Group&gt;">
				<path id="&lt;Path&gt;" class="s7" d="m304.7 321.9c0 0 5.5-32.6 6.8-35.1 1.2-2.5 16.3-17.7 18.1-18 1.7-0.3 25.4-7.8 24.1-4.1-1.3 3.7-17.9 8.7-17.9 8.7l-1.6 2c0 0 14.2-4.6 17.7-4.5 3.3 0.1 3.9 3.5 1.3 4.4-2.5 1-15 4.7-15.5 5.5-0.5 0.7 14-3.4 15.8-3.3 2.4 0.1 4.2 3.2 1.7 4.2-1.5 0.6-15.4 3.8-15.4 3.8 0 0 11.6-1.3 12.9-1 2.2 0.6 2 3.2-0.4 3.8-1.6 0.5-10.1 0.8-12.3 1.4 0 0-1.6 1.4-1.5 5.7 0 4.3-5.6 15.8-5.6 15.8z"/>
				<g id="&lt;Group&gt;">
					<path id="&lt;Path&gt;" class="s8" d="m353.7 264.8c0.1 0.1-1.1 1.4-3.5 3-1.2 0.8-2.7 1.7-4.4 2.5-1.8 0.6-3.7 1.3-5.8 2q-2.3 0.8-4.4 1.5l0.3-0.2c-4.5 4.5-7.9 7.7-8.1 7.5-0.2-0.1 2.9-3.6 7.3-8.2l0.1-0.1h0.1q2.1-0.7 4.4-1.5 3-1 5.7-2c1.7-0.7 3.2-1.4 4.4-2.1 2.4-1.4 3.8-2.5 3.9-2.4z"/>
				</g>
			</g>
			<g id="&lt;Group&gt;">
				<path id="&lt;Path&gt;" class="s9" d="m669.5 680.2l-322.9-33.2c-9.8-1-17-9.9-16-19.7l55.9-542.8c1.5-14 14-24.2 28-22.8l307.8 31.7c14.1 1.5 24.3 14 22.8 28l-55.9 542.8c-1 9.9-9.9 17.1-19.7 16z"/>
				<path id="&lt;Path&gt;" class="s10" d="m669.5 680.2l-322.9-33.2c-9.8-1-17-9.9-16-19.7l55.9-542.8c1.5-14 14-24.2 28-22.8l307.8 31.7c14.1 1.5 24.3 14 22.8 28l-55.9 542.8c-1 9.9-9.9 17.1-19.7 16z"/>
				<g id="&lt;Group&gt;">
					<g id="&lt;Group&gt;">
						<path id="&lt;Path&gt;" class="s11" d="m636.9 676.9l-322.8-33.3c-9.9-1-17.1-9.8-16.1-19.7l55.9-542.8c1.5-14 14-24.2 28-22.7l307.9 31.7c14 1.4 24.2 14 22.7 28l-55.9 542.8c-1 9.8-9.8 17-19.7 16z"/>
					</g>
					<g id="&lt;Group&gt;">
						<path id="&lt;Path&gt;" class="s2" d="m467.2 582.6l-111.3-11.5c-2.7-0.3-4.6-2.6-4.3-5.3l4.5-43.8c0.3-2.7 2.6-4.6 5.3-4.3l111.3 11.5c2.7 0.2 4.6 2.6 4.3 5.3l-4.5 43.8c-0.2 2.6-2.6 4.6-5.3 4.3z"/>
					</g>
					<g id="&lt;Group&gt;" style="opacity: .4">
					</g>
					<g id="&lt;Group&gt;">
						<g id="&lt;Group&gt;">
							<path id="&lt;Path&gt;" class="s12" d="m670.6 270.9l-306.6-31.6 12.4-120.3 306.6 31.6z"/>
						</g>
						<g id="&lt;Group&gt;">
							<g id="&lt;Group&gt;">
								<path id="&lt;Path&gt;" class="s6" d="m670.6 270.9c0 0 0.1-0.8 0.2-2.2q0.2-2.1 0.6-6.2c0.5-5.5 1.3-13.5 2.4-23.9 2.1-20.7 5.1-50.7 8.8-88l0.4 0.4c-77.2-7.9-186.1-19.1-306.6-31.4l0.5-0.5c-4.3 42.1-8.5 82.7-12.4 120.3l-0.4-0.6c88.7 9.2 165.3 17.2 219.7 22.9 27.2 2.8 48.9 5.1 63.8 6.7 7.4 0.8 13.2 1.4 17.1 1.8q2.9 0.3 4.4 0.5 1.5 0.2 1.5 0.2 0 0-1.5-0.1-1.5-0.2-4.3-0.5c-3.9-0.3-9.6-0.9-17-1.6-14.9-1.5-36.5-3.7-63.7-6.5-54.5-5.5-131.3-13.3-220.1-22.4l-0.5-0.1v-0.4c3.9-37.6 8.1-78.3 12.4-120.3l0.1-0.5h0.5c120.5 12.5 229.4 23.8 306.5 31.8h0.4v0.4c-4 37.3-7.1 67.4-9.3 88.2-1.1 10.3-2 18.3-2.6 23.8q-0.4 4-0.6 6.1-0.3 2.1-0.3 2.1z"/>
							</g>
						</g>
					</g>
					<g id="&lt;Group&gt;">
						<g id="&lt;Group&gt;">
							<path id="&lt;Path&gt;" class="s13" d="m418.8 346.1l-43.8-4.5c-2.3-0.3-4-2.3-3.7-4.6l4.5-43.8c0.2-2.3 2.3-4 4.6-3.8l43.8 4.6c2.3 0.2 3.9 2.2 3.7 4.5l-4.5 43.9c-0.2 2.2-2.3 3.9-4.6 3.7z"/>
						</g>
						<g id="&lt;Group&gt;" style="opacity: .4">
							<path id="&lt;Path&gt;" class="s14" d="m418.8 346.1l-43.8-4.5c-2.3-0.3-4-2.3-3.7-4.6l4.5-43.8c0.2-2.3 2.3-4 4.6-3.8l43.8 4.6c2.3 0.2 3.9 2.2 3.7 4.5l-4.5 43.9c-0.2 2.2-2.3 3.9-4.6 3.7z"/>
						</g>
						<g id="&lt;Group&gt;">
							<path id="&lt;Path&gt;" class="s6" d="m410.8 345.2l-43.8-4.5c-2.3-0.2-4-2.2-3.8-4.5l4.6-43.9c0.2-2.3 2.2-3.9 4.5-3.7l43.8 4.5c2.3 0.3 4 2.3 3.8 4.6l-4.6 43.8c-0.2 2.3-2.2 4-4.5 3.7z"/>
						</g>
						<g id="&lt;Group&gt;">
							<path id="&lt;Compound Path&gt;" class="s15" d="m396.4 306.2l-2.3 21.7-5-0.5 1.8-17.7-4.3-0.4 0.4-4.1z"/>
						</g>
					</g>
					<g id="&lt;Group&gt;">
						<g id="&lt;Group&gt;">
							<path id="&lt;Path&gt;" class="s2" d="m491.5 353.6l-43.8-4.6c-2.3-0.2-4-2.2-3.8-4.5l4.6-43.8c0.2-2.3 2.2-4 4.5-3.8l43.9 4.6c2.2 0.2 3.9 2.2 3.7 4.5l-4.5 43.8c-0.3 2.3-2.3 4-4.6 3.8z"/>
						</g>
						<g id="&lt;Group&gt;" style="opacity: .4">
						</g>
						<g id="&lt;Group&gt;">
							<path id="&lt;Path&gt;" class="s6" d="m483.4 352.7l-43.8-4.5c-2.3-0.2-3.9-2.3-3.7-4.5l4.5-43.9c0.3-2.3 2.3-3.9 4.6-3.7l43.8 4.5c2.3 0.3 4 2.3 3.7 4.6l-4.5 43.8c-0.2 2.3-2.3 4-4.6 3.7z"/>
						</g>
						<g id="&lt;Group&gt;">
							<path id="&lt;Compound Path&gt;" class="s15" d="m475.1 332.1l-0.5 4.1-16.4-1.7 0.4-3.2 9.2-7.1c2.1-1.6 2.5-2.7 2.6-3.7 0.2-1.7-0.9-2.9-3.2-3.1-1.8-0.2-3.5 0.4-4.7 1.7l-3.4-2.7c1.9-2.3 5.1-3.6 9-3.2 4.9 0.5 7.9 3.3 7.4 7.3-0.2 2.1-1 4-4.3 6.5l-5.5 4.2z"/>
						</g>
					</g>
					<g id="&lt;Group&gt;">
						<g id="&lt;Group&gt;">
							<path id="&lt;Path&gt;" class="s2" d="m566.8 361.3l-43.8-4.5c-2.3-0.2-4-2.3-3.7-4.6l4.5-43.8c0.2-2.3 2.3-3.9 4.6-3.7l43.8 4.5c2.3 0.2 3.9 2.3 3.7 4.6l-4.5 43.8c-0.2 2.3-2.3 4-4.6 3.7z"/>
						</g>
						<g id="&lt;Group&gt;" style="opacity: .4">
						</g>
						<g id="&lt;Group&gt;">
							<path id="&lt;Path&gt;" class="s6" d="m558.8 360.5l-43.9-4.5c-2.2-0.3-3.9-2.3-3.7-4.6l4.6-43.8c0.2-2.3 2.2-4 4.5-3.7l43.8 4.5c2.3 0.2 4 2.3 3.8 4.6l-4.6 43.8c-0.2 2.3-2.2 3.9-4.5 3.7z"/>
						</g>
						<g id="&lt;Group&gt;">
							<path id="&lt;Compound Path&gt;" class="s15" d="m550.5 337.3c-0.4 3.7-3.6 6.7-9.7 6.1-3.1-0.3-6.1-1.5-8.1-3.2l2.4-3.6c1.5 1.4 3.7 2.3 6 2.6 2.5 0.2 4.1-0.6 4.3-2.4 0.2-1.6-0.9-2.8-3.8-3.1l-2.3-0.2 0.4-3.3 5-4.6-9.3-1 0.4-4 15.2 1.5-0.3 3.3-5.5 5.1c3.9 1 5.6 3.6 5.3 6.8z"/>
						</g>
					</g>
					<g id="&lt;Group&gt;">
						<g id="&lt;Group&gt;">
							<path id="&lt;Path&gt;" class="s2" d="m642.2 369.1l-43.9-4.5c-2.3-0.3-3.9-2.3-3.7-4.6l4.5-43.8c0.3-2.3 2.3-4 4.6-3.7l43.8 4.5c2.3 0.2 4 2.3 3.7 4.5l-4.5 43.9c-0.2 2.3-2.3 3.9-4.5 3.7z"/>
						</g>
						<g id="&lt;Group&gt;" style="opacity: .4">
						</g>
						<g id="&lt;Group&gt;">
							<path id="&lt;Path&gt;" class="s6" d="m634.3 368.3l-43.8-4.6c-2.3-0.2-4-2.2-3.8-4.5l4.6-43.9c0.2-2.2 2.2-3.9 4.5-3.7l43.9 4.5c2.2 0.3 3.9 2.3 3.7 4.6l-4.5 43.8c-0.3 2.3-2.3 4-4.6 3.8z"/>
						</g>
						<g id="&lt;Group&gt;">
							<g id="&lt;Group&gt;">
								<path id="&lt;Path&gt;" class="s15" d="m626.4 341.3l-23.3-2.4 0.2-2 23.3 2.4z"/>
							</g>
							<g id="&lt;Group&gt;">
								<path id="&lt;Path&gt;" class="s15" d="m619.7 329.3c-0.3 2.1-2.1 3.6-4.2 3.4-2.1-0.2-3.6-2.1-3.4-4.2 0.2-2 2.1-3.6 4.2-3.3 2.1 0.2 3.6 2 3.4 4.1z"/>
							</g>
							<g id="&lt;Group&gt;">
								<path id="&lt;Path&gt;" class="s15" d="m617.6 349.6c-0.3 2.1-2.1 3.6-4.2 3.4-2.1-0.2-3.6-2.1-3.4-4.2 0.2-2 2.1-3.6 4.2-3.3 2.1 0.2 3.6 2 3.4 4.1z"/>
							</g>
						</g>
					</g>
					<g id="&lt;Group&gt;">
						<g id="&lt;Group&gt;">
							<path id="&lt;Path&gt;" class="s13" d="m411 422.4l-43.9-4.5c-2.3-0.2-3.9-2.3-3.7-4.6l4.5-43.8c0.3-2.3 2.3-3.9 4.6-3.7l43.8 4.5c2.3 0.2 4 2.3 3.7 4.6l-4.5 43.8c-0.2 2.3-2.3 4-4.5 3.7z"/>
						</g>
						<g id="&lt;Group&gt;" style="opacity: .4">
							<path id="&lt;Path&gt;" class="s14" d="m411 422.4l-43.9-4.5c-2.3-0.2-3.9-2.3-3.7-4.6l4.5-43.8c0.3-2.3 2.3-3.9 4.6-3.7l43.8 4.5c2.3 0.2 4 2.3 3.7 4.6l-4.5 43.8c-0.2 2.3-2.3 4-4.5 3.7z"/>
						</g>
						<g id="&lt;Group&gt;">
							<path id="&lt;Path&gt;" class="s6" d="m402.9 421.6l-43.8-4.5c-2.3-0.3-4-2.3-3.7-4.6l4.5-43.8c0.2-2.3 2.3-4 4.6-3.7l43.8 4.5c2.3 0.2 3.9 2.3 3.7 4.5l-4.5 43.9c-0.3 2.3-2.3 3.9-4.6 3.7z"/>
						</g>
						<g id="&lt;Group&gt;">
							<path id="&lt;Compound Path&gt;" class="s15" d="m393.1 400.4l-3.6-0.4-0.4 4.6-4.9-0.5 0.4-4.6-11.7-1.2 0.4-3.4 11.6-12.7 5.3 0.5-10.8 12.1 5.8 0.6 0.4-4 4.8 0.4-0.4 4.1 3.5 0.4z"/>
						</g>
					</g>
					<g id="&lt;Group&gt;">
						<g id="&lt;Group&gt;">
							<path id="&lt;Path&gt;" class="s2" d="m483.6 429.9l-43.8-4.5c-2.3-0.3-4-2.3-3.7-4.6l4.5-43.8c0.2-2.3 2.3-4 4.6-3.7l43.8 4.5c2.3 0.2 3.9 2.3 3.7 4.6l-4.5 43.8c-0.2 2.3-2.3 3.9-4.6 3.7z"/>
						</g>
						<g id="&lt;Group&gt;" style="opacity: .4">
						</g>
						<g id="&lt;Group&gt;">
							<path id="&lt;Path&gt;" class="s6" d="m475.6 429.1l-43.8-4.5c-2.3-0.3-4-2.3-3.8-4.6l4.6-43.8c0.2-2.3 2.2-4 4.5-3.8l43.9 4.6c2.2 0.2 3.9 2.2 3.7 4.5l-4.5 43.9c-0.3 2.2-2.3 3.9-4.6 3.7z"/>
						</g>
						<g id="&lt;Group&gt;">
							<path id="&lt;Compound Path&gt;" class="s15" d="m465.1 405.5c-0.4 3.8-3.6 6.9-9.8 6.3-3-0.4-6.1-1.5-8-3.2l2.4-3.7c1.5 1.4 3.7 2.4 5.9 2.6 2.5 0.3 4.2-0.6 4.4-2.4 0.2-1.7-0.8-2.9-4.8-3.3l-5.5-0.6 2.3-12.1 13.3 1.4-0.4 4-9.1-0.9-0.8 4.1 1.8 0.1c6.4 0.7 8.7 3.8 8.3 7.7z"/>
						</g>
					</g>
					<g id="&lt;Group&gt;">
						<g id="&lt;Group&gt;">
							<path id="&lt;Path&gt;" class="s2" d="m559 437.7l-43.9-4.6c-2.3-0.2-3.9-2.2-3.7-4.5l4.5-43.9c0.3-2.2 2.3-3.9 4.6-3.7l43.8 4.5c2.3 0.3 4 2.3 3.7 4.6l-4.5 43.8c-0.2 2.3-2.3 4-4.5 3.8z"/>
						</g>
						<g id="&lt;Group&gt;" style="opacity: .4">
						</g>
						<g id="&lt;Group&gt;">
							<path id="&lt;Path&gt;" class="s6" d="m550.9 436.8l-43.8-4.5c-2.3-0.2-4-2.3-3.7-4.6l4.5-43.8c0.2-2.3 2.3-3.9 4.6-3.7l43.8 4.5c2.3 0.3 3.9 2.3 3.7 4.6l-4.5 43.8c-0.3 2.3-2.3 4-4.6 3.7z"/>
						</g>
						<g id="&lt;Group&gt;">
							<path id="&lt;Compound Path&gt;" fill-rule="evenodd" class="s15" d="m541.9 413.4c-0.4 4.4-4.3 6.8-8.9 6.4-6-0.7-9.3-4.8-8.6-11.8 0.8-7.5 5.7-11.2 12.3-10.6 2.3 0.3 4.4 1 5.9 2.2l-2.3 3.5c-1.1-1-2.5-1.4-3.9-1.6-3.7-0.3-6.2 1.6-6.8 5.7 1.4-1.1 3.3-1.6 5.6-1.4 4.2 0.5 7.2 3.5 6.7 7.6zm-4.9-0.3c0.3-2-1.1-3.4-3.3-3.6-2.2-0.2-3.9 1-4.1 2.9-0.2 1.8 1.1 3.3 3.5 3.6 2.1 0.2 3.7-0.9 3.9-2.9z"/>
						</g>
					</g>
					<g id="&lt;Group&gt;">
						<g id="&lt;Group&gt;">
							<path id="&lt;Path&gt;" class="s2" d="m634.3 445.4l-43.8-4.5c-2.3-0.2-4-2.3-3.8-4.6l4.6-43.8c0.2-2.3 2.2-3.9 4.5-3.7l43.9 4.5c2.2 0.2 3.9 2.3 3.7 4.6l-4.5 43.8c-0.3 2.3-2.3 4-4.6 3.7z"/>
						</g>
						<g id="&lt;Group&gt;" style="opacity: .4">
						</g>
						<g id="&lt;Group&gt;">
							<path id="&lt;Path&gt;" class="s6" d="m626.2 444.6l-43.8-4.5c-2.3-0.3-3.9-2.3-3.7-4.6l4.5-43.8c0.3-2.3 2.3-4 4.6-3.7l43.8 4.5c2.3 0.2 4 2.3 3.7 4.5l-4.5 43.9c-0.2 2.3-2.3 3.9-4.6 3.7z"/>
						</g>
						<g id="&lt;Group&gt;">
							<g id="&lt;Group&gt;">
								<path id="&lt;Path&gt;" class="s15" d="m598.4 424.3l-1.2-1.6 18.4-14.4 1.2 1.5z"/>
							</g>
							<g id="&lt;Group&gt;">
								<path id="&lt;Path&gt;" class="s15" d="m613.6 426l-14.7-18.2 1.5-1.2 14.8 18.1z"/>
							</g>
						</g>
					</g>
					<g id="&lt;Group&gt;">
						<g id="&lt;Group&gt;">
							<path id="&lt;Path&gt;" class="s13" d="m403.2 498.1l-43.9-4.5c-2.3-0.2-3.9-2.3-3.7-4.6l4.5-43.8c0.3-2.3 2.3-3.9 4.6-3.7l43.8 4.5c2.3 0.3 4 2.3 3.7 4.6l-4.5 43.8c-0.2 2.3-2.3 4-4.5 3.7z"/>
						</g>
						<g id="&lt;Group&gt;" style="opacity: .4">
							<path id="&lt;Path&gt;" class="s14" d="m403.2 498.1l-43.9-4.5c-2.3-0.2-3.9-2.3-3.7-4.6l4.5-43.8c0.3-2.3 2.3-3.9 4.6-3.7l43.8 4.5c2.3 0.3 4 2.3 3.7 4.6l-4.5 43.8c-0.2 2.3-2.3 4-4.5 3.7z"/>
						</g>
						<g id="&lt;Group&gt;">
							<path id="&lt;Path&gt;" class="s6" d="m395.1 497.3l-43.8-4.5c-2.3-0.2-4-2.3-3.7-4.6l4.5-43.8c0.2-2.3 2.3-4 4.6-3.7l43.8 4.5c2.3 0.2 3.9 2.3 3.7 4.6l-4.5 43.8c-0.3 2.3-2.3 3.9-4.6 3.7z"/>
						</g>
						<g id="&lt;Group&gt;">
							<path id="&lt;Compound Path&gt;" class="s15" d="m384.2 458.6l-0.4 3.3-9.9 17.6-5.5-0.6 9.6-16.8-7.2-0.7-0.4 3.5-4.4-0.4 0.8-7.7z"/>
						</g>
					</g>
					<g id="&lt;Group&gt;">
						<g id="&lt;Group&gt;">
							<path id="&lt;Path&gt;" class="s2" d="m475.8 505.6l-43.8-4.5c-2.3-0.2-4-2.3-3.7-4.6l4.5-43.8c0.2-2.3 2.3-3.9 4.6-3.7l43.8 4.5c2.3 0.2 3.9 2.3 3.7 4.6l-4.5 43.8c-0.2 2.3-2.3 4-4.6 3.7z"/>
						</g>
						<g id="&lt;Group&gt;" style="opacity: .4">
						</g>
						<g id="&lt;Group&gt;">
							<path id="&lt;Path&gt;" class="s6" d="m467.8 504.8l-43.8-4.5c-2.3-0.3-4-2.3-3.8-4.6l4.6-43.8c0.2-2.3 2.2-4 4.5-3.7l43.9 4.5c2.2 0.2 3.9 2.3 3.7 4.5l-4.5 43.9c-0.3 2.3-2.3 3.9-4.6 3.7z"/>
						</g>
						<g id="&lt;Group&gt;">
							<path id="&lt;Compound Path&gt;" fill-rule="evenodd" class="s15" d="m459 481.9c-0.4 4.1-4.3 6.3-9.9 5.7-5.5-0.5-8.8-3.5-8.4-7.6 0.2-2.3 1.6-3.9 3.8-4.7-1.5-1.2-2.2-2.8-2-4.8 0.4-3.8 4-5.8 8.9-5.3 5 0.5 8.2 3.2 7.8 7.1-0.2 1.9-1.3 3.3-3 4.2 2 1.2 3 3.1 2.8 5.4zm-5.1-0.7c0.2-1.9-1.2-3.2-3.7-3.5-2.5-0.2-4.2 0.8-4.4 2.7-0.2 1.9 1.2 3.3 3.7 3.6 2.5 0.2 4.2-0.8 4.4-2.8zm-6.5-9.9c-0.1 1.6 1.1 2.8 3.1 3 2.1 0.2 3.5-0.7 3.7-2.3 0.2-1.8-1.1-2.9-3.1-3.1-2.1-0.2-3.5 0.7-3.7 2.4z"/>
						</g>
					</g>
					<g id="&lt;Group&gt;">
						<g id="&lt;Group&gt;">
							<path id="&lt;Path&gt;" class="s2" d="m551.2 513.4l-43.9-4.5c-2.3-0.3-3.9-2.3-3.7-4.6l4.5-43.8c0.3-2.3 2.3-4 4.6-3.7l43.8 4.5c2.3 0.2 4 2.2 3.7 4.5l-4.5 43.9c-0.2 2.3-2.3 3.9-4.5 3.7z"/>
						</g>
						<g id="&lt;Group&gt;" style="opacity: .4">
						</g>
						<g id="&lt;Group&gt;">
							<path id="&lt;Path&gt;" class="s6" d="m543.1 512.5l-43.8-4.5c-2.3-0.2-4-2.2-3.7-4.5l4.5-43.9c0.2-2.2 2.3-3.9 4.6-3.7l43.8 4.5c2.3 0.3 3.9 2.3 3.7 4.6l-4.5 43.8c-0.3 2.3-2.3 4-4.6 3.7z"/>
						</g>
						<g id="&lt;Group&gt;">
							<path id="&lt;Compound Path&gt;" fill-rule="evenodd" class="s15" d="m534 484.6c-0.8 7.5-5.7 11.2-12.3 10.5-2.3-0.2-4.4-1-5.8-2.1l2.2-3.5c1.1 0.9 2.5 1.4 4 1.5 3.6 0.4 6.1-1.5 6.7-5.7-1.4 1.2-3.3 1.6-5.6 1.4-4.2-0.4-7.2-3.4-6.8-7.5 0.5-4.5 4.4-6.9 9-6.4 6 0.6 9.3 4.8 8.6 11.8zm-5.2-4.4c0.2-1.9-1.1-3.4-3.5-3.6-2.1-0.2-3.7 0.9-3.9 2.8-0.2 2 1.1 3.4 3.3 3.7 2.2 0.2 3.9-1 4.1-2.9z"/>
						</g>
					</g>
					<g id="&lt;Group&gt;">
						<g id="&lt;Group&gt;">
							<path id="&lt;Path&gt;" class="s2" d="m626.5 521.1l-43.8-4.5c-2.3-0.2-4-2.3-3.8-4.5l4.6-43.9c0.2-2.3 2.2-3.9 4.5-3.7l43.9 4.5c2.2 0.3 3.9 2.3 3.7 4.6l-4.5 43.8c-0.3 2.3-2.3 4-4.6 3.7z"/>
						</g>
						<g id="&lt;Group&gt;" style="opacity: .4">
						</g>
						<g id="&lt;Group&gt;">
							<path id="&lt;Path&gt;" class="s6" d="m618.4 520.3l-43.8-4.5c-2.3-0.2-3.9-2.3-3.7-4.6l4.5-43.8c0.3-2.3 2.3-4 4.6-3.7l43.8 4.5c2.3 0.2 4 2.3 3.7 4.6l-4.5 43.8c-0.2 2.3-2.3 3.9-4.6 3.7z"/>
						</g>
						<g id="&lt;Group&gt;">
							<g id="&lt;Group&gt;">
								<path id="&lt;Path&gt;" class="s15" d="m610.7 494.2l-23.2-2.4 0.2-2 23.3 2.4z"/>
							</g>
						</g>
					</g>
					<g id="&lt;Group&gt;">
						<g id="&lt;Group&gt;">
							<path id="&lt;Path&gt;" class="s2" d="m543.3 589.8l-43.8-4.6c-2.3-0.2-4-2.2-3.8-4.5l4.6-43.9c0.2-2.2 2.2-3.9 4.5-3.7l43.9 4.5c2.2 0.3 3.9 2.3 3.7 4.6l-4.5 43.8c-0.3 2.3-2.3 4-4.6 3.8z"/>
						</g>
						<g id="&lt;Group&gt;" style="opacity: .4">
						</g>
						<g id="&lt;Group&gt;">
							<path id="&lt;Path&gt;" class="s6" d="m535.2 588.9l-43.8-4.5c-2.3-0.2-3.9-2.3-3.7-4.6l4.5-43.8c0.3-2.3 2.3-3.9 4.6-3.7l43.8 4.5c2.3 0.3 4 2.3 3.7 4.6l-4.5 43.8c-0.2 2.3-2.3 4-4.6 3.7z"/>
						</g>
					</g>
					<g id="&lt;Group&gt;">
						<g id="&lt;Group&gt;">
							<path id="&lt;Path&gt;" class="s2" d="m618.6 597.5l-43.8-4.5c-2.3-0.2-4-2.3-3.7-4.6l4.5-43.8c0.2-2.3 2.3-3.9 4.6-3.7l43.8 4.5c2.3 0.2 3.9 2.3 3.7 4.6l-4.5 43.8c-0.2 2.3-2.3 4-4.6 3.7z"/>
						</g>
						<g id="&lt;Group&gt;" style="opacity: .4">
						</g>
						<g id="&lt;Group&gt;">
							<path id="&lt;Path&gt;" class="s16" d="m610.6 596.7l-43.9-4.5c-2.2-0.3-3.9-2.3-3.7-4.6l4.5-43.8c0.3-2.3 2.3-4 4.6-3.7l43.8 4.5c2.3 0.2 4 2.3 3.8 4.5l-4.6 43.9c-0.2 2.3-2.2 3.9-4.5 3.7z"/>
						</g>
						<g id="&lt;Group&gt;">
							<g id="&lt;Group&gt;">
								<g id="&lt;Group&gt;">
									<path id="&lt;Path&gt;" class="s15" d="m603.2 567.7l-23.3-2.4 0.2-2 23.3 2.4z"/>
								</g>
							</g>
							<g id="&lt;Group&gt;">
								<g id="&lt;Group&gt;">
									<path id="&lt;Path&gt;" class="s15" d="m602.3 576.6l-23.3-2.4 0.2-2 23.3 2.4z"/>
								</g>
							</g>
						</g>
					</g>
					<g id="&lt;Group&gt;">
						<path id="&lt;Path&gt;" class="s6" d="m457.3 581.6l-115.9-12c-2.7-0.2-4.7-2.7-4.4-5.5l4.5-43.4c0.2-2.8 2.7-4.8 5.5-4.5l115.8 11.9c2.7 0.3 4.7 2.8 4.5 5.5l-4.5 43.5c-0.3 2.8-2.8 4.7-5.5 4.5z"/>
					</g>
					<g id="&lt;Group&gt;">
						<path id="&lt;Compound Path&gt;" fill-rule="evenodd" class="s15" d="m397.4 547.4c0.8-7.2 5.2-10.9 10.5-10.3 5.4 0.5 8.9 5 8.2 12.2-0.8 7.1-5.1 10.8-10.5 10.2-5.3-0.5-8.9-5-8.2-12.1zm13.6 1.4c0.5-5-1-7.2-3.5-7.5-2.5-0.2-4.5 1.6-5 6.6-0.5 4.9 1.1 7.1 3.5 7.4 2.5 0.3 4.5-1.6 5-6.5z"/>
					</g>
					<g id="&lt;Group&gt;">
						<g id="&lt;Group&gt;">
							<path id="&lt;Path&gt;" class="s15" d="m515.6 572.3l-2-0.2 2.8-23.2 2 0.2z"/>
						</g>
						<g id="&lt;Group&gt;">
							<path id="&lt;Path&gt;" class="s15" d="m527.6 562.8l-23.3-2.4 0.2-2 23.3 2.4z"/>
						</g>
					</g>
					<g id="&lt;Group&gt;">
						<path id="&lt;Compound Path&gt;" class="s6" d="m493.6 192.5l-3.3 32.4-1.6-0.1 3.2-31-8.1-0.9 0.1-1.4z"/>
						<path id="&lt;Compound Path&gt;" class="s6" d="m520.3 226.6l-0.2 1.4-22-2.2 0.2-1.2 15.3-12.5c4.4-3.6 5.5-5.9 5.8-8.5 0.4-4.4-2.3-7.4-8-8-4.3-0.5-7.6 0.5-10.1 2.9l-1-1.2c2.7-2.5 6.5-3.7 11.3-3.2 6.2 0.7 9.8 4.3 9.3 9.5-0.3 3.1-1.6 5.7-6.3 9.5l-14 11.5z"/>
						<path id="&lt;Compound Path&gt;" class="s6" d="m546 221.6c-0.6 5.4-4.7 8.8-11.9 8-4.9-0.5-9-2.8-10.8-5.6l1-1c1.6 2.5 5.3 4.7 9.9 5.2 6.2 0.6 9.8-2.1 10.3-6.8 0.5-4.7-2.4-8-9.3-8.7l-1.8-0.2 0.2-1.1 11.4-12.2-17.9-1.8 0.2-1.5 19.9 2.1-0.1 1.1-11.5 12.2c7.6 0.8 11 4.9 10.4 10.3z"/>
						<path id="&lt;Compound Path&gt;" class="s6" d="m578 224.5l-7.1-0.7-1 9.3-1.5-0.1 1-9.4-18.7-1.9 0.1-1.1 20.3-20.1 1.8 0.1-20 19.9 16.6 1.7 0.9-8.2 1.5 0.1-0.9 8.3 7.1 0.7z"/>
						<path id="&lt;Compound Path&gt;" class="s6" d="m584.7 233.3c0 0.6-0.2 0.9-0.4 1.7l-2.3 6-1.2-0.1 2.1-6.3c-0.8-0.2-1.3-0.9-1.2-1.6 0.1-0.9 0.8-1.5 1.7-1.4 0.9 0.1 1.4 0.9 1.3 1.7z"/>
						<path id="&lt;Compound Path&gt;" class="s6" d="m616.9 228.5l-7-0.7-1 9.4-1.5-0.2 0.9-9.4-18.6-1.9 0.1-1.1 20.2-20.1 1.8 0.2-19.9 19.8 16.6 1.7 0.8-8.2 1.6 0.1-0.9 8.3 7.1 0.7z"/>
						<path id="&lt;Compound Path&gt;" class="s6" d="m641 231.2c-0.5 5.3-4.6 9-12 8.2-4.8-0.5-8.9-2.8-10.8-5.6l1-1.1c1.7 2.6 5.4 4.8 10 5.3 6.3 0.6 9.8-2.4 10.2-7 0.6-5-2.1-8.3-11.4-9.2l-6.3-0.7 3.3-15.1 16.7 1.7-0.1 1.5-15.5-1.6-2.6 12.3 5 0.5c9.9 1 13.1 5 12.5 10.8z"/>
					</g>
				</g>
			</g>
			<g id="&lt;Group&gt;">
				<g id="&lt;Group&gt;">
					<g id="&lt;Group&gt;">
						<g id="&lt;Group&gt;">
							<g id="&lt;Group&gt;">
								<g id="&lt;Group&gt;">
									<g id="&lt;Group&gt;">
										<g id="&lt;Group&gt;">
											<g id="&lt;Group&gt;">
												<path id="&lt;Path&gt;" class="s13" d="m286.2 896.3l-12.7 47.1 41.4 3.7 8.6-44.7z"/>
											</g>
										</g>
									</g>
									<g id="&lt;Group&gt;">
										<g id="&lt;Group&gt;">
											<g id="&lt;Group&gt;">
												<g id="&lt;Group&gt;">
													<path id="&lt;Path&gt;" class="s6" d="m316.1 943.3c-0.1 0.2-2.4 0.1-6.1-0.2-3.7-0.3-8.8-0.9-14.5-1.6-5.4-0.7-10.4-1.4-14.4-1.9-3.7-0.6-6-0.9-6-1.1 0-0.1 2.3-0.1 6.1 0.3 3.7 0.3 8.8 0.8 14.5 1.6 5.4 0.7 10.3 1.3 14.4 1.9 3.7 0.5 6 0.8 6 1z"/>
												</g>
											</g>
										</g>
									</g>
									<g id="&lt;Group&gt;" style="opacity: .6">
										<g id="&lt;Group&gt;">
											<g id="&lt;Group&gt;">
												<path id="&lt;Path&gt;" class="s15" d="m273.5 943.4l41.4 3.7 0.6-3.4-40.8-5.2-1.1 4.4"/>
											</g>
										</g>
									</g>
								</g>
							</g>
							<g id="&lt;Group&gt;">
								<g id="&lt;Group&gt;">
									<g id="&lt;Group&gt;">
										<path id="&lt;Path&gt;" class="s6" d="m294.1 941.3c-0.3-0.1 1.5-8.2 3.9-18 2.4-9.9 4.6-17.9 4.9-17.8 0.2 0-1.5 8.1-4 18-2.4 9.9-4.6 17.8-4.8 17.8z"/>
									</g>
								</g>
							</g>
							<g id="&lt;Group&gt;">
								<g id="&lt;Group&gt;">
									<g id="&lt;Group&gt;">
										<path id="&lt;Path&gt;" class="s6" d="m313.8 943c-0.3 0 1.3-3.4 0.1-8.7-0.7-2.7-2-5.7-4.6-8.2-2.4-2.6-6.2-4.3-10.2-4.8-4.1-0.3-8.1 0.6-11.1 2.6-3 1.9-5.1 4.4-6.4 6.8-2.7 4.8-2.4 8.4-2.7 8.4q0 0 0-0.6 0-0.7 0.1-1.8c0.2-1.6 0.7-3.8 2-6.3 1.2-2.5 3.4-5.3 6.5-7.3 3.1-2.1 7.4-3.1 11.7-2.7 4.3 0.4 8.2 2.3 10.8 5 2.6 2.7 4 6 4.5 8.7 0.6 2.8 0.4 5.1 0.1 6.6q-0.3 1.2-0.6 1.7-0.2 0.6-0.2 0.6z"/>
									</g>
								</g>
							</g>
						</g>
						<g id="&lt;Group&gt;">
							<g id="&lt;Group&gt;">
								<g id="&lt;Group&gt;">
									<g id="&lt;Group&gt;">
										<path id="&lt;Path&gt;" class="s13" d="m456.7 891l-2.4 37c0 0 36.8 12.2 37 19.1l-72 0.5 1.5-57.8z"/>
									</g>
								</g>
								<g id="&lt;Group&gt;" style="opacity: .6">
									<g id="&lt;Group&gt;">
										<g id="&lt;Group&gt;">
											<path id="&lt;Path&gt;" class="s15" d="m432.1 924.2c-1.4 0.4-2.4 1.9-2.1 3.3 0.3 1.4 1.8 2.5 3.2 2.2 1.4-0.4 2.7-2.2 2.3-3.5-0.5-1.4-2.4-2.5-3.6-1.9"/>
										</g>
									</g>
								</g>
								<g id="&lt;Group&gt;" style="opacity: .6">
									<g id="&lt;Group&gt;">
										<path id="&lt;Path&gt;" class="s15" d="m419.3 947.6l0.4-5.8 69.3 1.9c0 0 2.3 1 2.7 3.9z"/>
									</g>
								</g>
								<g id="&lt;Group&gt;">
									<g id="&lt;Group&gt;">
										<g id="&lt;Group&gt;">
											<path id="&lt;Path&gt;" class="s6" d="m455.5 927.7c-0.1 0.3-1.8 0.4-3.6 1.5-1.8 1-2.7 2.5-3 2.4-0.4-0.1 0.2-2.2 2.4-3.4 2.1-1.3 4.2-0.8 4.2-0.5z"/>
										</g>
									</g>
								</g>
								<g id="&lt;Group&gt;">
									<g id="&lt;Group&gt;">
										<g id="&lt;Group&gt;">
											<path id="&lt;Path&gt;" class="s6" d="m462.9 931c0.1 0.4-1.5 0.9-2.7 2.4-1.3 1.4-1.6 3-2 3-0.3 0-0.5-2.1 1.1-3.8 1.5-1.8 3.6-1.9 3.6-1.6z"/>
										</g>
									</g>
								</g>
								<g id="&lt;Group&gt;">
									<g id="&lt;Group&gt;">
										<g id="&lt;Group&gt;">
											<path id="&lt;Path&gt;" class="s6" d="m466.9 940.2c-0.3 0.1-0.7-1.7 0.2-3.6 1-1.9 2.7-2.6 2.8-2.3 0.2 0.3-0.9 1.3-1.7 2.8-0.8 1.6-0.9 3.1-1.3 3.1z"/>
										</g>
									</g>
								</g>
								<g id="&lt;Group&gt;">
									<g id="&lt;Group&gt;">
										<g id="&lt;Group&gt;">
											<path id="&lt;Path&gt;" class="s6" d="m455.1 919.2c-0.2 0.3-1.8-0.2-3.8-0.2-2 0.1-3.5 0.7-3.7 0.4-0.2-0.3 1.4-1.5 3.7-1.6 2.3-0.1 4 1.1 3.8 1.4z"/>
										</g>
									</g>
								</g>
							</g>
							<g id="&lt;Group&gt;" style="opacity: .3">
								<g id="&lt;Group&gt;">
									<path id="&lt;Path&gt;" class="s14" d="m456.2 898.3l-0.4 6.6-35.4-1.4 0.2-5.9z"/>
								</g>
							</g>
							<g id="&lt;Group&gt;">
								<g id="&lt;Group&gt;">
									<g id="&lt;Group&gt;">
										<path id="&lt;Path&gt;" class="s6" d="m455.4 911.7c0 0.1-1.4 0.3-3.6-0.1-1.1-0.3-2.4-0.7-3.7-1.3q-1-0.5-2-1.2c-0.4-0.2-0.8-0.4-1.1-0.8-0.4-0.4-0.6-1.4-0.1-1.9 0.4-0.6 1-0.8 1.6-0.8 0.5 0 0.9 0.1 1.3 0.3q1.2 0.3 2.2 0.8c1.4 0.7 2.5 1.5 3.3 2.3 1.6 1.6 2.1 2.9 2 3-0.2 0.1-0.9-1-2.6-2.4-0.8-0.6-1.9-1.3-3.2-1.9q-0.9-0.4-2-0.7c-0.8-0.2-1.4-0.2-1.6 0.1-0.1 0.1-0.1 0.2 0.1 0.4 0.1 0.2 0.4 0.4 0.7 0.7q1 0.6 1.9 1.1c1.2 0.7 2.4 1.1 3.4 1.4 2.1 0.7 3.4 0.8 3.4 1z"/>
									</g>
								</g>
							</g>
							<g id="&lt;Group&gt;">
								<g id="&lt;Group&gt;">
									<g id="&lt;Group&gt;">
										<path id="&lt;Path&gt;" class="s6" d="m455 912.2c-0.2 0-0.8-1.2-0.9-3.5 0-1.1 0.2-2.5 0.6-3.9q0.4-1.1 1-2.2c0.5-0.7 1-1.6 2.4-1.8 0.7 0 1.3 0.6 1.4 1.1 0.3 0.5 0.3 0.9 0.4 1.3 0.1 0.9 0 1.7-0.1 2.5-0.3 1.5-0.9 2.7-1.7 3.6-1.4 1.8-2.9 2.2-2.9 2.1-0.1-0.2 1.1-0.8 2.2-2.6 0.6-0.8 1.1-2 1.3-3.3q0.1-1 0-2.1c-0.1-0.8-0.4-1.4-0.7-1.3-0.3-0.1-0.9 0.5-1.3 1.1q-0.5 1-0.9 1.9c-0.5 1.3-0.7 2.6-0.8 3.6-0.2 2.1 0.2 3.4 0 3.5z"/>
									</g>
								</g>
							</g>
						</g>
						<g id="&lt;Group&gt;">
							<path id="&lt;Path&gt;" class="s17" d="m300.6 314.3c0 0-7.8 42.6-14.1 68.4-4.8 20-17.4 57.5 5.4 68.4 22.8 10.9 53.5-33.1 53.5-33.1l13-100.2c-9.1 1.7-19.3 12.2-30.3 27.6l2-38z"/>
						</g>
						<g id="&lt;Group&gt;">
							<path id="&lt;Path&gt;" class="s7" d="m614.7 377.2l-12 5.7-11.1-17.3 6.5-13.4q0.9-1.8 1.9-4.2c0.8-1.9 1.3-3.9 1.4-5.9 0.2-2.4 0.3-5.7-0.1-7.5-0.6-2.3 1.7-4.1 3.3-2.8 1.6 1.3 3.4 7.4 2.2 14.8-1.2 7.4 7.4-0.4 10.6-3.2 3.2-2.8 13.4-11 15-10.7 2.4 0.5 2.3 3.2-0.9 5.9-3.3 2.7-12.4 11.5-10.9 13.2q0 0 0.1 0c3.8 0.4 6.9 3.2 7.8 7 0.8 3.6 1.5 8.6-0.6 10.3-3.8 3.1-13.2 8.1-13.2 8.1z"/>
						</g>
						<g id="&lt;Group&gt;">
							<g id="&lt;Group&gt;">
								<g id="&lt;Group&gt;">
									<path id="&lt;Path&gt;" class="s7" d="m382 215.6l-0.3 104.2 44.7 2.1 1.3-25.3c0 0 15.8 3.1 19.9-11.6 2.7-9.4 2-82.3 2-82.3z"/>
								</g>
								<g id="&lt;Group&gt;">
									<path id="&lt;Path&gt;" class="s6" d="m459.7 213c-3 6.2-17.4 17.6-17.4 17.6l-6.4 17.4c-5.7-4.4-13.2-4.1-14.6 5.7-1.1 7.2 7.8 8.6 7.8 8.6-5.2 8.8-8.7 16-16.2 24.3-8.2 9.1-12.7 10-21.6 10.2h-9.7c0 0-20-16.7-16-60.6 3.9-43.9 43.4-31.1 52.8-42.1 15.4-17.8 51.4-1.9 41.3 18.9z"/>
								</g>
							</g>
							<g id="&lt;Group&gt;">
								<g id="&lt;Group&gt;">
									<path id="&lt;Path&gt;" class="s16" d="m367.8 272.9q0 0 1.2 0c0.9-0.1 2.1-0.1 3.6-0.4 3-0.6 7.3-2.4 11.4-6.1 4.2-3.6 7.9-9.2 11.6-15.5 1.9-3.2 3.9-6.5 6.3-9.7 2.4-3.2 5.2-6.4 8.8-8.8 3.5-2.4 7.5-3.8 11.4-4.8 3.9-1 7.7-1.6 11.3-2.3 7.2-1.4 13.7-3.4 18.1-6.8 4.4-3.4 6.6-7.6 7.3-10.6 0.4-1.5 0.4-2.7 0.4-3.5-0.1-0.8-0.1-1.2-0.1-1.2q0.1 0 0.2 1.2c0 0.8 0 2.1-0.4 3.6-0.6 3-2.8 7.3-7.3 10.7-4.4 3.5-10.9 5.6-18.1 6.9-3.6 0.7-7.4 1.4-11.3 2.4-3.8 1-7.8 2.4-11.3 4.8-3.5 2.3-6.3 5.5-8.7 8.6-2.3 3.2-4.3 6.5-6.2 9.7-3.8 6.3-7.5 11.9-11.8 15.5-4.2 3.7-8.5 5.5-11.6 6-1.5 0.4-2.7 0.4-3.6 0.4q-1.2-0.1-1.2-0.1z"/>
								</g>
							</g>
							<g id="&lt;Group&gt;">
								<g id="&lt;Group&gt;">
									<path id="&lt;Path&gt;" class="s16" d="m365.5 237.2c0 0 0.7-0.3 2.1-0.7 1.3-0.5 3.4-1.2 6.1-1.5 2.7-0.3 6.3-0.2 9.6 2.1 1.6 1.1 3 2.8 3.4 5.1 0.4 2.1-0.1 4.8-2 6.5-0.9 0.9-2.2 1.4-3.5 1.4-1.3 0.1-2.6-0.3-3.8-1-2.3-1.4-4.2-3.7-5.1-6.5-0.9-2.7-1.1-5.8-0.4-8.9 0.7-3 2.4-5.9 4.8-8 2.5-2.2 5.6-3.7 9.1-4.1 3.4-0.3 6.9 0.4 10.2 1.4 3.4 0.9 6.8 2 10.4 2.5 3.6 0.4 7.3 0.5 11 0 3.6-0.5 7.3-1.4 10.5-2.9 3.2-1.6 6.2-4.1 7.1-7.4 0.9-3.4 0-7.1-2.4-9.4-2.3-2.4-6.2-2.7-9-1.4-1.4 0.7-2.7 1.8-3.3 3.2-0.7 1.3-0.9 2.9-0.7 4.4 0.4 3 2.1 5.6 4.5 7.1 2.4 1.6 5.2 2.2 7.8 2.2 2.7 0.1 5.2-0.4 7.5-1.1 4.7-1.4 8.4-4 11.1-6.7 2.8-2.8 4.6-5.6 5.8-8.1 1.2-2.4 1.7-4.5 2.1-5.9 0.2-1.4 0.4-2.1 0.4-2.1 0 0-0.1 0.7-0.4 2.1-0.3 1.4-0.8 3.5-2 6-1.2 2.5-2.9 5.4-5.7 8.1-2.7 2.8-6.5 5.4-11.2 6.9-2.3 0.7-4.9 1.2-7.6 1.2-2.7-0.1-5.5-0.7-8-2.3-2.4-1.5-4.3-4.3-4.7-7.4-0.2-1.5 0-3.2 0.7-4.6 0.8-1.5 2.1-2.6 3.5-3.3 3-1.4 7-1.1 9.5 1.4 2.5 2.4 3.4 6.3 2.5 9.8-1 3.5-4 6.1-7.3 7.6-3.3 1.6-7 2.5-10.7 3-3.7 0.5-7.4 0.4-11 0-3.7-0.5-7.1-1.6-10.5-2.5-3.3-1-6.8-1.7-10.1-1.4-3.3 0.4-6.4 1.8-8.8 4-4.9 4.2-6.2 11.2-4.4 16.5 0.9 2.7 2.7 5 5 6.3 1.1 0.7 2.4 1.1 3.6 1 1.3 0 2.5-0.5 3.3-1.3 1.8-1.6 2.3-4.2 1.9-6.3-0.3-2.1-1.7-3.8-3.2-4.9-3.3-2.3-6.8-2.4-9.5-2.1-2.7 0.3-4.7 0.9-6.1 1.3-1.4 0.5-2.1 0.7-2.1 0.7z"/>
								</g>
							</g>
						</g>
						<g id="&lt;Group&gt;">
							<g id="&lt;Group&gt;">
								<path id="&lt;Path&gt;" class="s18" d="m336 520.9l-59.5 391 49.4 6.2 69.8-327.9 17.6 330.1 53.5-0.9-8.8-397.6z"/>
								<path id="&lt;Compound Path&gt;" fill-rule="evenodd" class="s6" d="m412.3 921.3v-0.9l-17.2-322.6-68.4 321.4-51.3-6.5 59.8-392.8 123.7 0.9 9 399.6zm-16.1-338.8l18 336.7 51.6-0.9-8.9-395.6-120.1-0.9-59.2 389.1 47.5 6z"/>
							</g>
							<g id="&lt;Group&gt;">
								<g id="&lt;Group&gt;">
									<path id="&lt;Path&gt;" class="s16" d="m450.9 918.8c-0.3 0-0.5-78.4-0.5-175 0-96.6 0.2-174.9 0.5-174.9 0.3 0 0.5 78.3 0.5 174.9 0 96.6-0.2 175-0.5 175z"/>
								</g>
							</g>
							<g id="&lt;Group&gt;">
								<g id="&lt;Group&gt;">
									<path id="&lt;Path&gt;" class="s16" d="m315.1 917.3q-0.1 0 0.1-0.8 0.1-0.9 0.4-2.5c0.5-2.2 1.1-5.4 1.9-9.5 1.6-8.3 4-20.2 7-34.9 6-29.4 14.5-70.1 24.2-114.9 9.8-44.8 19-85.3 25.8-114.6 3.4-14.6 6.2-26.4 8.1-34.6 1-4.1 1.8-7.2 2.3-9.4q0.4-1.6 0.6-2.5 0.2-0.8 0.3-0.8 0 0-0.2 0.9-0.2 0.9-0.5 2.4c-0.5 2.2-1.2 5.4-2.1 9.5-1.8 8.2-4.5 20.1-7.8 34.7-6.6 29.3-15.7 69.8-25.4 114.6-9.8 44.8-18.4 85.5-24.6 114.9-3.1 14.6-5.6 26.5-7.3 34.8-0.9 4.1-1.6 7.2-2.1 9.5q-0.3 1.5-0.5 2.4-0.2 0.8-0.2 0.8z"/>
								</g>
							</g>
							<g id="&lt;Group&gt;">
								<g id="&lt;Group&gt;">
									<path id="&lt;Path&gt;" class="s16" d="m413.3 589.9c0 0-0.8 0.1-2.3 0.3q-2.5 0.1-6.2 0.4c-5.2 0.3-12.4 0.7-20.3 1.5-8 0.8-15.1 1.8-20.3 2.5q-3.6 0.5-6.1 0.8c-1.5 0.2-2.3 0.2-2.3 0.1 0 0 0.8-0.2 2.2-0.5 1.4-0.3 3.5-0.7 6.1-1.1 5.2-0.9 12.3-2.1 20.3-2.9 7.9-0.7 15.2-1 20.4-1.1 2.6-0.1 4.7-0.1 6.2-0.1 1.4 0 2.3 0 2.3 0.1z"/>
								</g>
							</g>
							<g id="&lt;Group&gt;">
								<g id="&lt;Group&gt;">
									<path id="&lt;Path&gt;" class="s16" d="m459 564.5c0 0-0.5 0.2-1.5 0.4-1.1 0.1-2.5 0.2-4.4 0.2-3.6-0.2-8.7-1.4-13.3-4.7-4.6-3.3-7.4-7.8-8.7-11.2-0.7-1.7-1.1-3.2-1.2-4.2-0.2-1-0.2-1.5-0.1-1.5 0.1-0.1 0.5 2.2 1.9 5.4 1.5 3.2 4.3 7.5 8.7 10.6 4.4 3.2 9.3 4.5 12.8 4.8 3.5 0.4 5.8 0 5.8 0.2z"/>
								</g>
							</g>
						</g>
						<g id="&lt;Group&gt;">
							<g id="&lt;Group&gt;">
								<g id="&lt;Group&gt;">
									<g id="&lt;Group&gt;">
										<path id="&lt;Path&gt;" class="s17" d="m325.8 528.6l137-0.5-7.5-90.3c-0.8-20.7-0.7-23.2-1.2-42.3 0 0 19.4 23.5 34.7 40 9.3 10 23.9 12.7 36.2 6.9l80-55.8-15-38.3-72.7 44.5c-3.3-2.1-31.6-42.5-51.2-62.2-12.5-12.6-29.4-19.9-47.2-20.4-13.4-0.4-29.7 0.3-44.1 1.8-22.1 2.3-39.3 20-41.2 42.1-1.4 16.9-0.3 36.5-0.3 69.9z"/>
									</g>
								</g>
								<g id="&lt;Group&gt;">
									<g id="&lt;Group&gt;">
										<path id="&lt;Path&gt;" class="s6" d="m332.3 363.3q0 0 0 1 0 1.2 0 3c-0.1 2.7-0.1 6.5 0 11.2 0 9.4 0.4 22.3 0.8 36.7 0.4 14.3 0.5 27.3 0.1 36.7-0.1 4.7-0.3 8.5-0.6 11.1q-0.1 1.8-0.2 3-0.1 1.1-0.1 1.1 0 0 0-1.1 0.1-1.2 0.2-3c0.2-2.6 0.3-6.4 0.4-11.1 0.3-9.4 0.2-22.4-0.2-36.7-0.4-14.3-0.7-27.3-0.7-36.7 0-4.7 0-8.5 0.1-11.2q0.1-1.8 0.1-3 0.1-1 0.1-1z"/>
									</g>
								</g>
								<g id="&lt;Group&gt;">
									<g id="&lt;Group&gt;">
										<path id="&lt;Path&gt;" class="s6" d="m514.3 405.7c-0.1 0 0.1-0.7 0.3-1.8 0.2-1.2 0.6-2.8 1-4.5 0.4-1.8 0.8-3.4 1.1-4.5 0.3-1.1 0.5-1.8 0.6-1.8 0 0-0.1 0.7-0.3 1.9-0.3 1.1-0.6 2.7-1 4.5-0.4 1.7-0.8 3.3-1.1 4.4-0.3 1.1-0.5 1.8-0.6 1.8z"/>
									</g>
								</g>
								<g id="&lt;Group&gt;">
									<g id="&lt;Group&gt;">
										<path id="&lt;Path&gt;" class="s6" d="m521.6 406.9c-0.1 0-1-3.2-1.9-7.2-0.9-4-1.5-7.3-1.4-7.3 0.1-0.1 0.9 3.2 1.8 7.2 1 4 1.6 7.2 1.5 7.3z"/>
									</g>
								</g>
								<g id="&lt;Group&gt;">
									<g id="&lt;Group&gt;">
										<path id="&lt;Path&gt;" class="s6" d="m457.5 398.9q-0.1 0-0.8-0.7-0.8-0.8-2.1-2c-1.8-1.8-4.4-4.4-7.5-7.7-3.1-3.3-6.7-7.3-10.2-12.1-3.5-4.9-6.9-10.6-9.3-17.1-2.4-6.5-3.4-13.2-3.1-19.2 0.3-6 1.5-11.4 3.5-15.4 2-4.2 4.7-6.8 6.7-8.3q1.6-1.2 2.4-1.6 0.9-0.5 0.9-0.5c0.1 0.1-1.2 0.7-3.2 2.2-2 1.5-4.6 4.2-6.6 8.3-1.9 4-3 9.4-3.3 15.3-0.3 6 0.7 12.6 3.1 19 2.3 6.5 5.7 12.2 9.2 17 3.5 4.9 7.1 8.9 10.1 12.2 3.1 3.4 5.7 6 7.4 7.8q1.3 1.2 2.1 2.1 0.7 0.7 0.7 0.7z"/>
									</g>
								</g>
							</g>
							<g id="&lt;Group&gt;">
								<g id="&lt;Group&gt;">
									<path id="&lt;Path&gt;" class="s19" d="m368.4 361.7c-0.2 0.2-2.3-2.1-4.7-5.1-2.3-3-4.1-5.5-3.8-5.7 0.2-0.2 2.3 2.1 4.7 5.1 2.3 3 4.1 5.5 3.8 5.7z"/>
								</g>
							</g>
							<g id="&lt;Group&gt;">
								<g id="&lt;Group&gt;">
									<path id="&lt;Path&gt;" class="s19" d="m399.6 397c0.2 0.2-2.7 3.5-6.5 7.2-3.8 3.8-7 6.7-7.2 6.5-0.2-0.2 2.7-3.4 6.4-7.2 3.8-3.8 7.1-6.7 7.3-6.5z"/>
								</g>
							</g>
							<g id="&lt;Group&gt;">
								<g id="&lt;Group&gt;">
									<path id="&lt;Path&gt;" class="s19" d="m429.7 447.7c-0.3 0.1-1.4-3-3.4-6.4-2-3.5-4.2-5.9-4-6.2 0.2-0.2 2.8 2.1 4.9 5.7 2.1 3.5 2.7 6.9 2.5 6.9z"/>
								</g>
							</g>
							<g id="&lt;Group&gt;">
								<g id="&lt;Group&gt;">
									<path id="&lt;Path&gt;" class="s19" d="m351.6 442c-0.2 0.1-2.2-4.3-3.2-10-1-5.8-0.7-10.5-0.4-10.5 0.3 0 0.4 4.7 1.4 10.3 1 5.7 2.5 10.1 2.2 10.2z"/>
								</g>
							</g>
							<g id="&lt;Group&gt;">
								<g id="&lt;Group&gt;">
									<path id="&lt;Path&gt;" class="s19" d="m393.1 464.3c-0.3 0.1-1.9-3.6-2.3-8.4-0.4-4.9 0.5-8.8 0.7-8.7 0.3 0-0.1 3.9 0.3 8.6 0.4 4.7 1.6 8.4 1.3 8.5z"/>
								</g>
							</g>
							<g id="&lt;Group&gt;">
								<g id="&lt;Group&gt;">
									<path id="&lt;Path&gt;" class="s19" d="m376.7 496.7c-0.2 0.3-4.4-2.1-9.4-5.2-5.1-3.2-9-5.9-8.9-6.2 0.2-0.2 4.4 2.1 9.4 5.3 5.1 3.2 9 5.9 8.9 6.1z"/>
								</g>
							</g>
							<g id="&lt;Group&gt;">
								<g id="&lt;Group&gt;">
									<path id="&lt;Path&gt;" class="s19" d="m441.1 487.2c0.2 0.2-4.5 2.5-9.8 5.9-5.4 3.4-9.5 6.6-9.7 6.4-0.2-0.2 3.6-3.8 9.1-7.2 5.4-3.5 10.3-5.4 10.4-5.1z"/>
								</g>
							</g>
							<g id="&lt;Group&gt;">
								<g id="&lt;Group&gt;">
									<path id="&lt;Path&gt;" class="s19" d="m360 523.8c0 0.3-4.5-0.4-10-1.5-5.6-1.1-10-2.2-9.9-2.5 0-0.3 4.5 0.4 10.1 1.5 5.5 1.1 9.9 2.2 9.8 2.5z"/>
								</g>
							</g>
							<g id="&lt;Group&gt;">
								<g id="&lt;Group&gt;">
									<path id="&lt;Path&gt;" class="s19" d="m403.3 516.8c-0.2 0.2-2.7-2.4-4.8-6.3-2.1-3.9-2.9-7.3-2.6-7.4 0.2-0.1 1.5 3.1 3.5 6.9 2.1 3.8 4.1 6.6 3.9 6.8z"/>
								</g>
							</g>
							<g id="&lt;Group&gt;">
								<g id="&lt;Group&gt;">
									<path id="&lt;Path&gt;" class="s19" d="m451.9 520.2c0.2 0.1-1.2 2.2-3.1 4.5-1.9 2.3-3.7 4.1-3.9 3.9-0.2-0.2 1.2-2.2 3.1-4.6 1.9-2.3 3.7-4 3.9-3.8z"/>
								</g>
							</g>
							<g id="&lt;Group&gt;">
								<g id="&lt;Group&gt;">
									<path id="&lt;Path&gt;" class="s19" d="m362.9 382.7c0.2 0.2-1.6 1.7-3.9 3.3-2.4 1.5-4.5 2.6-4.6 2.4-0.2-0.2 1.6-1.7 4-3.3 2.3-1.6 4.4-2.7 4.5-2.4z"/>
								</g>
							</g>
							<g id="&lt;Group&gt;">
								<g id="&lt;Group&gt;">
									<path id="&lt;Path&gt;" class="s19" d="m396.7 345c-0.3 0.1-2-4.5-3.6-10.3-1.6-5.8-2.3-10.7-2-10.7 0.3-0.1 1.4 4.6 3 10.4 1.6 5.8 2.9 10.5 2.6 10.6z"/>
								</g>
							</g>
							<g id="&lt;Group&gt;">
								<g id="&lt;Group&gt;">
									<path id="&lt;Path&gt;" class="s19" d="m429.1 379.3c-0.1 0.3-3-0.8-6.8-1.5-3.7-0.8-6.9-0.8-6.9-1.1 0-0.3 3.2-0.7 7.1 0 3.9 0.8 6.7 2.4 6.6 2.6z"/>
								</g>
							</g>
							<g id="&lt;Group&gt;">
								<g id="&lt;Group&gt;">
									<path id="&lt;Path&gt;" class="s19" d="m451.4 350.1c0 0.3-3.4 1-7.6 0.3-4.3-0.6-7.4-2.3-7.2-2.5 0.1-0.3 3.2 0.9 7.3 1.5 4.1 0.6 7.5 0.4 7.5 0.7z"/>
								</g>
							</g>
							<g id="&lt;Group&gt;">
								<g id="&lt;Group&gt;">
									<path id="&lt;Path&gt;" class="s19" d="m474.2 382.7c-0.3 0-0.4-5 0.5-11.1 1-6 2.7-10.7 3-10.6 0.3 0.1-1 4.8-1.9 10.8-1 6-1.3 10.9-1.6 10.9z"/>
								</g>
							</g>
							<g id="&lt;Group&gt;">
								<g id="&lt;Group&gt;">
									<path id="&lt;Path&gt;" class="s19" d="m501 421c-0.2 0.2-3.4-2.8-7.1-6.6-3.8-3.9-6.6-7.1-6.4-7.3 0.2-0.2 3.4 2.7 7.1 6.6 3.7 3.8 6.6 7.1 6.4 7.3z"/>
								</g>
							</g>
							<g id="&lt;Group&gt;">
								<g id="&lt;Group&gt;">
									<path id="&lt;Path&gt;" class="s19" d="m523.3 418c0.2 0.2-1.4 3.1-3.6 6.6-2.3 3.4-4.3 6.1-4.5 5.9-0.2-0.1 1.4-3 3.6-6.5 2.2-3.5 4.2-6.1 4.5-6z"/>
								</g>
							</g>
							<g id="&lt;Group&gt;">
								<g id="&lt;Group&gt;">
									<path id="&lt;Path&gt;" class="s19" d="m549.1 405.4c-0.2 0.2-2.2-3.3-4.3-7.7-2.1-4.3-3.6-8-3.4-8.1 0.3-0.1 2.2 3.3 4.3 7.7 2.2 4.4 3.7 8 3.4 8.1z"/>
								</g>
							</g>
							<g id="&lt;Group&gt;">
								<g id="&lt;Group&gt;">
									<path id="&lt;Path&gt;" class="s19" d="m584.3 390.9c0 0.2-4.1-0.2-9.2-1.1-5-0.9-9-1.9-9-2.2 0.1-0.3 4.2 0.2 9.2 1.1 5 0.9 9.1 1.9 9 2.2z"/>
								</g>
							</g>
							<g id="&lt;Group&gt;">
								<g id="&lt;Group&gt;">
									<path id="&lt;Path&gt;" class="s19" d="m304.7 428.3c-0.2-0.1 1.4-4.2 3.7-9.1 2.3-4.9 4.4-8.8 4.7-8.7 0.2 0.2-1.4 4.2-3.7 9.1-2.3 5-4.4 8.8-4.7 8.7z"/>
								</g>
							</g>
							<g id="&lt;Group&gt;">
								<g id="&lt;Group&gt;">
									<path id="&lt;Path&gt;" class="s19" d="m323.4 395.4c-0.2 0.2-3-2.5-6.1-6-3.1-3.5-5.5-6.4-5.3-6.6 0.2-0.2 3 2.5 6.1 5.9 3.1 3.5 5.5 6.5 5.3 6.7z"/>
								</g>
							</g>
							<g id="&lt;Group&gt;">
								<g id="&lt;Group&gt;">
									<path id="&lt;Path&gt;" class="s19" d="m321.8 448.3c0.2 0.2-1.2 1.6-3.1 3.2-1.9 1.6-3.5 2.7-3.7 2.5-0.2-0.3 1.2-1.7 3.1-3.3 1.9-1.6 3.5-2.7 3.7-2.4z"/>
								</g>
							</g>
							<g id="&lt;Group&gt;">
								<g id="&lt;Group&gt;">
									<path id="&lt;Path&gt;" class="s19" d="m328.1 360.4c0.3 0.2-0.6 1.6-1.8 3.2-1.3 1.6-2.5 2.7-2.7 2.5-0.3-0.2 0.6-1.6 1.8-3.2 1.3-1.5 2.5-2.7 2.7-2.5z"/>
								</g>
							</g>
							<g id="&lt;Group&gt;" style="opacity: .3">
								<g id="&lt;Group&gt;">
									<path id="&lt;Path&gt;" class="s14" d="m432.7 369.5c8.4 26.6 14.9 54.5 23.4 81.1l-2-55.1c-7.9-7.2-15-15.9-21.4-26z"/>
								</g>
							</g>
						</g>
						<g id="&lt;Group&gt;">
							<g id="&lt;Group&gt;">
								<path id="&lt;Path&gt;" class="s6" d="m295 404.3q0 0 0.3-0.7 0.3-0.8 0.8-1.8c0.7-1.6 1.8-3.9 3.1-6.7 2.8-5.7 6.7-13.4 11.4-21.7 4.7-8.3 9.3-15.6 12.7-20.8 1.8-2.7 3.2-4.8 4.2-6.2q0.6-0.9 1.1-1.6 0.4-0.6 0.5-0.6 0 0-0.4 0.6-0.5 0.8-1.1 1.7-1.6 2.5-4 6.2c-3.4 5.3-7.9 12.6-12.6 20.9-4.7 8.3-8.7 16-11.5 21.6q-2 4-3.2 6.7-0.5 1-0.9 1.8-0.3 0.6-0.4 0.6z"/>
							</g>
						</g>
						<g id="&lt;Group&gt;">
							<g id="&lt;Group&gt;">
								<path id="&lt;Path&gt;" class="s6" d="m308.5 378.8c0.1 0.1-0.8 0.4-2.2 0.9-1.3 0.6-3.1 1.5-4.9 2.8-1.8 1.3-3.3 2.6-4.3 3.7-1 1.1-1.6 1.8-1.6 1.7q-0.1 0 0.3-0.5 0.3-0.5 1.1-1.4c0.9-1.1 2.4-2.6 4.2-3.8 1.9-1.3 3.8-2.2 5.1-2.7q1.1-0.4 1.7-0.6 0.6-0.1 0.6-0.1z"/>
							</g>
						</g>
					</g>
				</g>
				<g id="&lt;Group&gt;">
					<g id="&lt;Group&gt;">
						<path id="&lt;Path&gt;" class="s19" d="m310.4 337.8c0.2 0.2-2.5 4.3-6.1 9.3-3.6 5-6.7 8.9-6.9 8.7-0.2-0.2 2.5-4.3 6.1-9.3 3.6-5 6.7-8.9 6.9-8.7z"/>
					</g>
				</g>
			</g>
			<g id="&lt;Group&gt;">
				<path id="&lt;Path&gt;" class="s7" d="m324.9 305.3c1.9 0.6 3.9-0.8 5-2.4 1.2-1.7 1.7-3.7 2.7-5.5 2.9-5.2 9.7-7.5 12.4-12.8 0.4-0.8 0.6-1.8 0-2.3-0.6-0.5-1.5-0.2-2.2 0.1q-8.9 4.5-17.8 9"/>
				<g id="&lt;Group&gt;">
					<path id="&lt;Path&gt;" class="s8" d="m325 291.4c-0.1-0.1 0.6-0.5 1.8-1.2 1.2-0.7 3-1.6 5.2-2.8 2.3-1.2 4.9-2.5 7.7-4q1.1-0.6 2.3-1.1c0.7-0.4 1.5-1.1 2.9-0.7 0.6 0.2 1 0.9 1 1.5 0.1 0.6-0.1 1.1-0.3 1.6-0.5 0.9-1 1.7-1.6 2.5-2.6 3-5.8 4.8-8.1 7-1.2 1.1-2.2 2.2-2.9 3.4-0.7 1.3-1.2 2.5-1.7 3.7-1 2.3-2.8 3.8-4.3 4.1-1.4 0.4-2.2-0.1-2.1-0.1 0-0.1 0.8 0.2 2-0.3 1.3-0.4 2.7-1.8 3.6-4.1 0.5-1.1 0.9-2.4 1.7-3.7 0.7-1.4 1.8-2.6 3-3.7 2.4-2.4 5.6-4.3 7.9-7.1 0.6-0.7 1.1-1.4 1.5-2.2 0.3-0.7 0.3-1.5-0.1-1.6-0.5-0.2-1.3 0.2-2.1 0.6q-1.1 0.6-2.2 1.1c-2.9 1.4-5.5 2.7-7.9 3.8-2.2 1.1-4 1.9-5.3 2.5-1.3 0.6-2 0.8-2 0.8z"/>
				</g>
			</g>
		</g>
	</g>
	<g id="Plant">
		<g id="&lt;Group&gt;">
			<g id="&lt;Group&gt;">
				<g id="&lt;Group&gt;">
					<path id="&lt;Path&gt;" class="s6" d="m756.6 840.8v17.4h126.6v-17.4z"/>
				</g>
				<g id="&lt;Group&gt;">
					<path id="&lt;Compound Path&gt;" fill-rule="evenodd" class="s6" d="m883.4 858.4h-127v-17.8h127zm-126.6-0.5h126.2v-16.9h-126.2z"/>
				</g>
			</g>
			<g id="&lt;Group&gt;">
				<g id="&lt;Group&gt;">
					<path id="&lt;Path&gt;" class="s6" d="m768.4 852.4l18.2 89.9h67.4l17.6-84.1z"/>
				</g>
			</g>
			<g id="&lt;Group&gt;">
				<g id="&lt;Group&gt;">
					<path id="&lt;Path&gt;" class="s16" d="m768.4 933.8l9.7 13.3h81.9l11.6-13.3z"/>
				</g>
			</g>
			<g id="&lt;Group&gt;">
				<g id="&lt;Group&gt;">
					<g id="&lt;Group&gt;">
						<path id="&lt;Path&gt;" class="s6" d="m815.2 855c-0.3 0-0.6-41.6-0.8-93-0.1-51.4 0-93 0.2-93 0.3 0 0.6 41.6 0.7 93 0.2 51.4 0.1 93-0.1 93z"/>
					</g>
				</g>
			</g>
			<g id="&lt;Group&gt;">
				<g id="&lt;Group&gt;">
					<g id="&lt;Group&gt;">
						<path id="&lt;Path&gt;" class="s6" d="m843.4 750.8q0 0-0.4 1-0.4 1-1.1 2.6-0.4 0.9-0.8 2-0.4 1.1-0.9 2.4-0.4 1.2-1 2.7c-0.3 0.9-0.6 2-0.9 3.1-1.4 4.3-2.5 9.6-3.5 15.5-1 5.9-1.6 12.4-2 19.3-0.6 13.9 0.2 26.4 1 35.4 0.4 4.6 0.8 8.2 1.1 10.7q0.2 1.8 0.3 2.9 0.1 1.1 0.1 1.1-0.1 0-0.2-1-0.2-1.2-0.5-2.9c-0.4-2.5-0.9-6.2-1.4-10.7-1-9-1.9-21.6-1.3-35.5 0.4-6.9 1.1-13.5 2-19.5 1.2-5.9 2.3-11.2 3.8-15.5 0.3-1.1 0.6-2.2 1-3.1q0.6-1.5 1-2.7 0.5-1.3 1-2.4 0.4-1 0.9-1.9 0.7-1.6 1.3-2.6 0.4-0.9 0.5-0.9z"/>
					</g>
				</g>
			</g>
			<g id="&lt;Group&gt;">
				<g id="&lt;Group&gt;">
					<g id="&lt;Group&gt;">
						<path id="&lt;Path&gt;" class="s6" d="m840.1 717.1q0.1 0-0.4 1.4-0.5 1.4-1.3 3.8-0.4 1.3-1 2.8-0.4 1.6-1 3.4c-0.7 2.4-1.6 5.1-2.3 8.2q-0.7 2.3-1.3 4.8-0.6 2.6-1.2 5.3c-0.9 3.6-1.5 7.6-2.3 11.7-1.4 8.3-2.7 17.4-3.5 27-0.8 9.7-1.2 18.9-1.3 27.3 0 8.4 0.1 16 0.4 22.3 0.2 3.2 0.4 6 0.5 8.6q0.2 3.7 0.5 6.4 0.2 2.6 0.3 4.1 0.1 1.4 0 1.4 0 0-0.2-1.4-0.2-1.5-0.5-4.1-0.3-2.6-0.6-6.4c-0.2-2.5-0.4-5.4-0.6-8.6-0.4-6.3-0.6-13.9-0.6-22.3 0.1-8.4 0.4-17.7 1.2-27.3 0.8-9.7 2.1-18.9 3.5-27.2 0.9-4.1 1.5-8 2.5-11.7q0.6-2.7 1.2-5.2 0.7-2.5 1.3-4.8c0.8-3.1 1.7-5.9 2.5-8.3q0.6-1.7 1.1-3.3 0.6-1.5 1.1-2.8 0.9-2.4 1.4-3.8 0.6-1.3 0.6-1.3z"/>
					</g>
				</g>
			</g>
			<g id="&lt;Group&gt;">
				<g id="&lt;Group&gt;">
					<g id="&lt;Group&gt;">
						<path id="&lt;Path&gt;" class="s6" d="m807.1 862.4q0 0 0-0.5-0.1-0.6-0.1-1.5-0.2-1.9-0.4-5.5c-0.3-4.8-0.7-11.7-1.3-20.3-1.1-17.1-2.7-40.7-5.6-66.8-1.4-13-3.1-25.3-4.9-36.5-1-5.6-1.8-10.9-2.8-15.9-0.9-4.9-1.8-9.5-2.7-13.7-0.8-4.2-1.8-8-2.5-11.3-0.7-3.4-1.5-6.2-2.1-8.5q-0.8-3.5-1.3-5.4-0.2-0.9-0.3-1.4-0.1-0.5-0.1-0.5 0.1 0 0.2 0.5 0.2 0.5 0.4 1.4 0.5 1.9 1.5 5.3c0.6 2.3 1.4 5.1 2.2 8.4 0.8 3.4 1.7 7.1 2.6 11.3 0.9 4.2 1.9 8.8 2.9 13.8 1 4.9 1.8 10.3 2.8 15.9 1.8 11.2 3.6 23.5 5 36.5 2.9 26.1 4.4 49.8 5.4 66.9 0.4 8.6 0.7 15.5 0.9 20.3q0.2 3.5 0.2 5.5 0.1 0.9 0.1 1.5 0 0.5-0.1 0.5z"/>
					</g>
				</g>
			</g>
			<g id="&lt;Group&gt;">
				<g id="&lt;Group&gt;">
					<path id="&lt;Path&gt;" class="s3" d="m814.1 689c-0.5-5.9-6.5-10.4-12.4-10.4-5.9-0.1-11.5 3.5-15.1 8.2-3.6 4.7-5.6 10.4-7.2 16.1-4 13.9-6.2 28.5-4.5 42.8 1.7 14.4 7.5 28.5 17.8 38.7 1.7 1.6 3.9 3.3 6.2 2.8 1.2-0.3 2.3-1.1 3.2-2 20.3-18.3 31.9-45.7 31.1-73-0.1-5.4-0.8-11.1-3.9-15.6-3-4.6-10-9.4-15.2-7.6z"/>
				</g>
			</g>
			<g id="&lt;Group&gt;">
				<g id="&lt;Group&gt;">
					<g id="&lt;Group&gt;">
						<path id="&lt;Path&gt;" class="s9" d="m769.9 641.7q-4.2 7.6-8.4 15.2c-0.2 0.3-0.4 0.7-0.8 0.7-0.5 0.1-0.8-0.3-1-0.7q-11.1-16.9-22.1-33.9l5.1-2.9z"/>
					</g>
				</g>
				<g id="&lt;Group&gt;" style="opacity: .2">
					<g id="&lt;Group&gt;">
						<g id="&lt;Group&gt;">
						</g>
					</g>
				</g>
				<g id="&lt;Group&gt;">
					<g id="&lt;Group&gt;">
						<path id="&lt;Path&gt;" class="s3" d="m814.6 669q-37.6-22.2-75.2-44.4c-0.8-0.5-1.6-1-1.9-1.9-0.3-1.1 0.6-2.2 1.4-3 10.3-10.7 25.4-16.9 40.2-15.8 14.8 1.1 29.1 9.6 36.4 22.6 7.2 13 7.5 30.2-0.9 42.5z"/>
					</g>
				</g>
				<g id="&lt;Group&gt;">
					<g id="&lt;Group&gt;">
						<g id="&lt;Group&gt;">
							<path id="&lt;Path&gt;" class="s6" d="m750.2 610.4q0-0.1 1-0.1c0.7-0.1 1.6-0.2 2.8-0.2 2.5 0 6.1 0.1 10.5 0.9 4.4 0.7 9.5 2.1 14.9 4.5 5.3 2.4 10.9 5.8 15.9 10.3 5 4.6 9 9.8 11.9 14.9 2.9 5.1 4.9 10.1 6 14.3 1.2 4.3 1.7 7.9 1.9 10.3 0.1 1.3 0.1 1.6 0.1 2.2 0 0.7-0.6 1.7-0.6 1.7-0.1 0 0.4-1.4 0.1-3.8-0.3-2.5-0.9-6-2.1-10.2-2.4-8.4-7.9-19.7-17.9-28.7-10-9-21.7-13.4-30.3-14.9-4.3-0.8-7.9-1.1-10.4-1.1-2.4-0.1-3.8 0-3.8-0.1z"/>
						</g>
					</g>
				</g>
				<g id="&lt;Group&gt;">
					<g id="&lt;Group&gt;">
						<g id="&lt;Group&gt;">
							<path id="&lt;Path&gt;" class="s6" d="m804.4 638.3c0.1 0.1-1.4 0.8-3.8 1.8-2.4 0.9-5.7 2.1-9.5 3.3-3.7 1.2-7.1 2.1-9.6 2.7-2.5 0.7-4.1 0.9-4.1 0.8-0.1-0.1 1.4-0.6 3.9-1.4 2.8-0.8 6-1.8 9.6-3 3.5-1.1 6.8-2.2 9.5-3 2.5-0.8 4-1.3 4-1.2z"/>
						</g>
					</g>
				</g>
				<g id="&lt;Group&gt;">
					<g id="&lt;Group&gt;">
						<g id="&lt;Group&gt;">
							<path id="&lt;Path&gt;" class="s6" d="m792.6 606.5c0.2 0 0.8 3.7 0.9 8.4 0.1 4.7-0.2 8.4-0.5 8.4-0.2 0-0.3-3.8-0.4-8.4-0.1-4.6-0.3-8.4 0-8.4z"/>
						</g>
					</g>
				</g>
				<g id="&lt;Group&gt;">
					<g id="&lt;Group&gt;">
						<g id="&lt;Group&gt;">
							<path id="&lt;Path&gt;" class="s6" d="m738.7 623.7c0-0.1 2.1-0.8 5.5-1.9 3.4-1.1 8.2-2.4 13.5-3.7 5.3-1.2 10.1-2.2 13.7-2.8 3.5-0.7 5.7-0.9 5.7-0.8 0 0.1-2.1 0.6-5.6 1.4-3.5 0.8-8.3 1.8-13.6 3.1-5.3 1.3-10.1 2.5-13.5 3.4-3.5 0.9-5.6 1.4-5.7 1.3z"/>
						</g>
					</g>
				</g>
			</g>
			<g id="&lt;Group&gt;">
				<g id="&lt;Group&gt;">
					<g id="&lt;Group&gt;">
						<path id="&lt;Path&gt;" class="s3" d="m782.9 676.2c-6.5-4.9-13.3-5.9-21.4-5.6-8.2 0.4-16.1 2.8-23.5 6.1-12.7 5.6-24.6 13.7-32.2 25.3-7.6 11.6-10.2 27-4.6 39.6 0.6 1.3 1.3 2.6 2.6 3.1 1.4 0.6 2.9 0.2 4.3-0.3 14.4-4.7 28.9-9.4 42.2-16.8 13.3-7.4 25.4-17.6 32.5-31 1.7-3.3 3.1-6.7 3.4-10.3 0.3-3.7-0.7-7.5-3.3-10.1z"/>
					</g>
				</g>
				<g id="&lt;Group&gt;">
					<g id="&lt;Group&gt;">
						<g id="&lt;Group&gt;">
							<path id="&lt;Path&gt;" class="s6" d="m783 674.7q0 0-1 0.4-1.2 0.4-3 1-1.1 0.4-2.2 0.8c-0.8 0.3-1.7 0.6-2.6 1-1.8 0.7-3.9 1.4-6.2 2.5q-1.7 0.8-3.5 1.6c-1.2 0.6-2.5 1.3-3.8 2-2.6 1.2-5.2 2.9-8 4.6-5.6 3.5-11.4 7.7-17.1 12.6-5.7 5-10.6 10.3-14.8 15.4-2 2.6-4 5-5.6 7.4-0.8 1.2-1.6 2.3-2.4 3.5q-1 1.7-2 3.3c-1.4 2.1-2.4 4.1-3.3 5.8-0.5 0.8-1 1.6-1.4 2.4q-0.5 1.1-1 2.1-0.8 1.7-1.4 2.8-0.5 1-0.5 1-0.1 0 0.4-1 0.5-1.2 1.2-3 0.5-0.9 1-2.1c0.3-0.8 0.8-1.6 1.2-2.5 0.9-1.7 1.9-3.7 3.2-5.8q1-1.7 2.1-3.4c0.7-1.2 1.5-2.3 2.3-3.5 1.6-2.5 3.6-4.9 5.6-7.6 4.1-5.1 9.1-10.4 14.8-15.5 5.7-5 11.6-9.2 17.2-12.7 2.9-1.6 5.5-3.2 8.2-4.5 1.3-0.7 2.5-1.3 3.8-1.9q1.9-0.8 3.6-1.6c2.2-1 4.4-1.7 6.2-2.4 1-0.3 1.8-0.7 2.6-0.9q1.2-0.4 2.2-0.7 1.9-0.5 3.1-0.9 1.1-0.3 1.1-0.2z"/>
						</g>
					</g>
				</g>
				<g id="&lt;Group&gt;">
					<g id="&lt;Group&gt;">
						<g id="&lt;Group&gt;">
							<path id="&lt;Path&gt;" class="s6" d="m732.4 702.1c0.1 0.2-6.9 2.5-15.7 5-8.8 2.6-15.9 4.5-16 4.2-0.1-0.2 7-2.5 15.7-5 8.8-2.6 16-4.5 16-4.2z"/>
						</g>
					</g>
				</g>
				<g id="&lt;Group&gt;">
					<g id="&lt;Group&gt;">
						<g id="&lt;Group&gt;">
							<path id="&lt;Path&gt;" class="s6" d="m731.8 736.8c-0.1 0-0.3-1.9-0.3-4.9-0.1-3-0.1-7.2 0-11.9 0.1-4.6 0.4-8.8 0.6-11.8 0.3-3 0.5-4.9 0.6-4.9 0.2 0 0.1 1.9 0.1 4.9-0.2 3.4-0.3 7.4-0.4 11.9-0.1 4.4-0.2 8.5-0.3 11.8-0.1 3-0.2 4.9-0.3 4.9z"/>
						</g>
					</g>
				</g>
				<g id="&lt;Group&gt;">
					<g id="&lt;Group&gt;">
						<g id="&lt;Group&gt;">
							<path id="&lt;Path&gt;" class="s6" d="m761.6 721.6c-0.3 0.1-1.1-8.5-1.8-19-0.7-10.5-1.1-19.1-0.9-19.1 0.3 0 1.1 8.5 1.8 19.1 0.7 10.5 1.1 19 0.9 19z"/>
						</g>
					</g>
				</g>
				<g id="&lt;Group&gt;">
					<g id="&lt;Group&gt;">
						<g id="&lt;Group&gt;">
							<path id="&lt;Path&gt;" class="s6" d="m724.5 682.7c0-0.1 1.9-0.2 5.1-0.2 3.1 0.1 7.4 0.2 12.1 0.3 4.8 0.2 9 0.4 12.2 0.5 3.1 0.2 5 0.4 5 0.5 0 0.2-1.9 0.2-5.1 0.2-3.1 0-7.4-0.1-12.1-0.3-4.8-0.1-9.1-0.3-12.2-0.5-3.1-0.2-5-0.4-5-0.5z"/>
						</g>
					</g>
				</g>
			</g>
			<g id="&lt;Group&gt;">
				<g id="&lt;Group&gt;">
					<g id="&lt;Group&gt;">
						<path id="&lt;Path&gt;" class="s6" d="m796 786.4q-0.1 0-0.1-1-0.1-1.2-0.2-2.9c-0.1-2.6-0.1-6.2 0-10.7 0.1-4.5 0.4-9.9 0.9-15.8 0.6-5.9 1.4-12.4 2.7-19.2 1.2-6.7 2.7-13.1 4.2-18.9 1.6-5.7 3.2-10.9 4.7-15.1 1.5-4.3 2.8-7.7 3.8-10q0.7-1.6 1.2-2.7 0.4-0.9 0.4-0.9 0.1 0-0.3 1-0.3 1.1-0.9 2.7c-0.9 2.4-2.1 5.8-3.6 10.1-1.4 4.2-2.9 9.4-4.5 15.1-1.5 5.8-2.9 12.1-4.2 18.9-1.2 6.7-2 13.2-2.7 19.1-0.6 5.9-0.9 11.2-1.1 15.7-0.2 4.5-0.2 8.1-0.2 10.7q-0.1 1.7-0.1 2.9 0 1 0 1z"/>
					</g>
				</g>
			</g>
			<g id="&lt;Group&gt;">
				<g id="&lt;Group&gt;">
					<g id="&lt;Group&gt;">
						<path id="&lt;Path&gt;" class="s6" d="m799.9 737.1c0.1 0.1-1 1.3-3 3.3-1.9 1.9-4.7 4.5-7.8 7.3-3.2 2.8-6.1 5.2-8.3 6.8-2.2 1.7-3.6 2.7-3.7 2.6-0.1-0.1 1.2-1.3 3.3-3.1 2.3-2 5-4.3 8.1-7 3-2.6 5.7-5.1 8-7.1 2-1.8 3.3-2.9 3.4-2.8z"/>
					</g>
				</g>
			</g>
			<g id="&lt;Group&gt;">
				<g id="&lt;Group&gt;">
					<g id="&lt;Group&gt;">
						<path id="&lt;Path&gt;" class="s6" d="m823.8 756.3c-0.2 0-1.4-1.7-3.2-4.5-2.1-3-4.7-6.7-7.5-10.8-2.9-4.1-5.5-7.8-7.6-10.8-1.9-2.7-3.1-4.4-3-4.5 0.1-0.1 1.4 1.5 3.5 4.2 2.1 2.6 4.9 6.3 7.9 10.6 2.9 4.2 5.4 8.1 7.2 11 1.7 2.9 2.8 4.7 2.7 4.8z"/>
					</g>
				</g>
			</g>
			<g id="&lt;Group&gt;">
				<g id="&lt;Group&gt;">
					<g id="&lt;Group&gt;">
						<path id="&lt;Path&gt;" class="s6" d="m811.3 695.9c0.1 0.2-7.8 5.6-17.7 11.9-9.9 6.4-18 11.4-18.2 11.2-0.1-0.2 7.8-5.6 17.7-11.9 9.9-6.4 18-11.4 18.2-11.2z"/>
					</g>
				</g>
			</g>
			<g id="&lt;Group&gt;">
				<g id="&lt;Group&gt;">
					<g id="&lt;Group&gt;">
						<path id="&lt;Path&gt;" class="s6" d="m833.6 720c-0.2 0.2-5.5-4.8-12-11.1-6.4-6.2-11.5-11.5-11.3-11.7 0.1-0.1 5.5 4.8 11.9 11.1 6.5 6.3 11.6 11.5 11.4 11.7z"/>
					</g>
				</g>
			</g>
			<g id="&lt;Group&gt;">
				<g id="&lt;Group&gt;">
					<g id="&lt;Group&gt;">
						<path id="&lt;Path&gt;" class="s3" d="m839.2 719.5l6.8-0.5c4.8-0.4 9.5-1.9 13.7-4.2 2.1-1.2 4.2-2.4 6.4-3.2 8.4-3.4 17.8-2.8 26.8-3.3 14.8-0.7 29.4-4.4 42.7-10.9 0.7-0.3 1.4-0.9 1.8-1.7 1.4-2.5-1.2-4.8-3.4-6.1-11.5-7.1-23.1-14.2-36.1-17.7-13-3.5-27.7-2.9-38.8 4.7-13 8.9-17.7 27.3-19.9 42.9z"/>
					</g>
				</g>
				<g id="&lt;Group&gt;">
					<g id="&lt;Group&gt;">
						<g id="&lt;Group&gt;">
							<path id="&lt;Path&gt;" class="s6" d="m937.6 694.9q-0.1 0-1.2-0.5-1.2-0.7-3.2-1.7c-2.8-1.5-6.8-3.7-11.9-6.1-5.1-2.4-11.2-5.1-18.4-7.1-7.1-2-15.4-3-23.9-1.9-8.4 1.1-16.2 4.4-21.7 9.3-5.6 4.9-9 10.9-11.3 15.9-2.4 5.1-3.9 9.5-5 12.4q-0.7 2.1-1.2 3.4-0.4 1.2-0.5 1.2 0 0 0.3-1.2 0.4-1.3 1.1-3.5c1-3 2.3-7.4 4.7-12.5 2.3-5.2 5.7-11.2 11.3-16.3 5.6-5.1 13.6-8.5 22.2-9.6 8.7-1.1 17 0 24.2 2 7.2 2 13.4 4.8 18.5 7.3 5 2.6 9 4.8 11.8 6.4q1.9 1.1 3.1 1.8 1.1 0.7 1.1 0.7z"/>
						</g>
					</g>
				</g>
				<g id="&lt;Group&gt;">
					<g id="&lt;Group&gt;">
						<g id="&lt;Group&gt;">
							<path id="&lt;Path&gt;" class="s6" d="m921.3 703.7c-0.2 0.2-9.1-5.6-19.9-12.9-10.8-7.3-19.5-13.3-19.3-13.6 0.1-0.2 9 5.6 19.8 12.9 10.8 7.3 19.5 13.4 19.4 13.6z"/>
						</g>
					</g>
				</g>
				<g id="&lt;Group&gt;">
					<g id="&lt;Group&gt;">
						<g id="&lt;Group&gt;">
							<path id="&lt;Path&gt;" class="s6" d="m911.8 676.8c0 0.2-2.9 0.8-6.5 1.1-3.6 0.3-6.6 0.2-6.6 0 0-0.3 2.9-0.4 6.5-0.7 3.6-0.3 6.5-0.6 6.6-0.4z"/>
						</g>
					</g>
				</g>
				<g id="&lt;Group&gt;">
					<g id="&lt;Group&gt;">
						<g id="&lt;Group&gt;">
							<path id="&lt;Path&gt;" class="s6" d="m872.9 671.7c0.2 0.1-1.1 2.1-2.9 4.6-1.9 2.4-3.5 4.3-3.7 4.2-0.2-0.1 1.1-2.2 2.9-4.6 1.8-2.4 3.5-4.3 3.7-4.2z"/>
						</g>
					</g>
				</g>
				<g id="&lt;Group&gt;">
					<g id="&lt;Group&gt;">
						<g id="&lt;Group&gt;">
							<path id="&lt;Path&gt;" class="s6" d="m880.8 708.9c0 0.1-1.7-0.8-4.2-2.3-2.6-1.6-6.1-3.9-9.8-6.5-3.7-2.7-6.9-5.3-9.3-7.1-2.3-1.9-3.8-3.1-3.7-3.2 0.1-0.1 1.6 0.9 4.1 2.6 2.7 2 5.9 4.3 9.5 6.9 3.6 2.7 7 5.1 9.5 6.7 2.5 1.7 4 2.8 3.9 2.9z"/>
						</g>
					</g>
				</g>
			</g>
			<g id="&lt;Group&gt;">
				<g id="&lt;Group&gt;">
					<g id="&lt;Group&gt;">
						<path id="&lt;Path&gt;" class="s3" d="m849.2 748.4c-6.5-1.7-14.2 4.6-15.5 11.1-1.4 6.6 1.1 13.3 4 19.4 6.4 13.4 15.2 25.8 26.8 35 11.6 9.3 26.1 15.2 40.9 15.1-2.7-12.7 0.8-26-0.8-38.9-1.3-11.3-6.6-22.1-14.6-30.1-8.1-8-18.9-13.1-30.2-14.3-4.2-0.5-9-1.1-10.6 2.7z"/>
					</g>
				</g>
				<g id="&lt;Group&gt;">
					<g id="&lt;Group&gt;">
						<g id="&lt;Group&gt;">
							<path id="&lt;Path&gt;" class="s6" d="m905.4 829q0 0.1-0.9-0.4c-0.6-0.3-1.4-0.8-2.4-1.6-2-1.6-4.4-4.6-6.4-8.6-1-2-2.2-4.2-3.3-6.6q-1.7-3.6-3.5-7.7c-1.2-2.7-2.6-5.5-4.3-8.2-1.7-2.8-3.7-5.4-5.9-8-4.4-5.3-9.2-9.8-13.3-14.1-4.2-4.3-7.6-8.4-10.2-12.2-2.5-3.7-4.1-7.1-4.9-9.4q-0.7-1.8-0.9-2.8-0.2-1-0.2-1c0.1 0 0.4 1.3 1.4 3.6 1 2.3 2.6 5.6 5.2 9.3 2.5 3.7 6 7.7 10.2 11.9 4.1 4.3 8.9 8.8 13.4 14.1 2.2 2.6 4.3 5.3 6 8.1 1.7 2.8 3 5.6 4.2 8.4q1.8 4 3.5 7.7c1 2.4 2.2 4.6 3.2 6.6 1.9 4.1 4.1 7 6 8.6 1.9 1.6 3.2 2.2 3.1 2.3z"/>
						</g>
					</g>
				</g>
				<g id="&lt;Group&gt;">
					<g id="&lt;Group&gt;">
						<g id="&lt;Group&gt;">
							<path id="&lt;Path&gt;" class="s6" d="m871.9 818.4c-0.1 0 0.1-1.6 0.6-4.3 0.5-2.7 1.4-6.3 2.5-10.3 1.1-4 2.3-7.6 3.3-10.1 0.9-2.6 1.6-4.1 1.7-4.1 0.2 0.1-0.3 1.7-1.1 4.3-0.8 2.6-1.9 6.1-3 10.1-1.2 4-2.1 7.6-2.8 10.2-0.6 2.6-1 4.3-1.2 4.2z"/>
						</g>
					</g>
				</g>
				<g id="&lt;Group&gt;">
					<g id="&lt;Group&gt;">
						<g id="&lt;Group&gt;">
							<path id="&lt;Path&gt;" class="s6" d="m904.2 787.2c0 0.1-1.8-0.3-4.6-1-2.7-0.8-6.6-1.8-10.9-2.7-4.3-1-8.2-1.7-11-2.3-2.9-0.5-4.6-0.9-4.6-1 0-0.1 1.8 0 4.7 0.4 2.8 0.4 6.8 1 11.1 2 4.3 1 8.2 2.1 10.9 3 2.8 0.8 4.4 1.5 4.4 1.6z"/>
						</g>
					</g>
				</g>
				<g id="&lt;Group&gt;">
					<g id="&lt;Group&gt;">
						<g id="&lt;Group&gt;">
							<path id="&lt;Path&gt;" class="s6" d="m847.9 796.3c-0.1 0 0.1-2 0.7-5.1 0.6-3.1 1.5-7.3 2.7-11.9 1.2-4.7 2.5-8.9 3.5-11.8 1-3 1.7-4.8 1.8-4.8 0.2 0.1-0.3 1.9-1.2 5-0.9 3-2 7.1-3.3 11.8-1.2 4.6-2.2 8.8-2.9 11.9-0.7 3-1.2 4.9-1.3 4.9z"/>
						</g>
					</g>
				</g>
				<g id="&lt;Group&gt;">
					<g id="&lt;Group&gt;">
						<g id="&lt;Group&gt;">
							<path id="&lt;Path&gt;" class="s6" d="m889.3 760c0 0.2-8.1-0.4-18-1.5-10-1-18-2.1-18-2.3 0-0.3 8.1 0.4 18.1 1.4 9.9 1.1 18 2.2 17.9 2.4z"/>
						</g>
					</g>
				</g>
			</g>
			<g id="&lt;Group&gt;">
				<g id="&lt;Group&gt;">
					<g id="&lt;Group&gt;">
						<path id="&lt;Path&gt;" class="s16" d="m883.4 858.1c0 0.2-28.4 0.4-63.5 0.4-35.1 0-63.5-0.2-63.5-0.4 0-0.3 28.4-0.5 63.5-0.5 35.1 0 63.5 0.2 63.5 0.5z"/>
					</g>
				</g>
			</g>
			<g id="&lt;Group&gt;">
				<g id="&lt;Group&gt;">
					<g id="&lt;Group&gt;">
						<path id="&lt;Path&gt;" class="s16" d="m863.6 894.7c0 0.2-19.1 0.4-42.8 0.4-23.6 0-42.7-0.2-42.7-0.4 0-0.3 19.1-0.5 42.7-0.5 23.7 0 42.8 0.2 42.8 0.5z"/>
					</g>
				</g>
			</g>
			<g id="&lt;Group&gt;">
				<g id="&lt;Group&gt;">
					<g id="&lt;Group&gt;">
						<path id="&lt;Path&gt;" class="s16" d="m862.9 899.9c0 0.3-18.8 0.5-42.1 0.5-23.2 0-42-0.2-42-0.5 0-0.2 18.8-0.4 42-0.4 23.3 0 42.1 0.2 42.1 0.4z"/>
					</g>
				</g>
			</g>
			<g id="&lt;Group&gt;">
				<g id="&lt;Group&gt;">
					<g id="&lt;Group&gt;">
						<path id="&lt;Path&gt;" class="s16" d="m864.4 890.4c0 0.2-19.8 0.4-44.3 0.4-24.4 0-44.2-0.2-44.2-0.4 0-0.3 19.8-0.5 44.2-0.5 24.5 0 44.3 0.2 44.3 0.5z"/>
					</g>
				</g>
			</g>
		</g>
	</g>
	<g id="Numerical Signs">
		<g id="&lt;Group&gt;">
			<g id="&lt;Group&gt;">
				<g id="&lt;Group&gt;">
					<path id="&lt;Path&gt;" class="s6" d="m855.9 119.7c0 0.3-13.4 0.5-30 0.4-16.5-0.1-30-0.4-30-0.7 0-0.3 13.5-0.4 30-0.3 16.6 0.1 30 0.4 30 0.6z"/>
				</g>
			</g>
			<g id="&lt;Group&gt;">
				<g id="&lt;Group&gt;">
					<path id="&lt;Path&gt;" class="s6" d="m826.2 149.6c-0.3 0-0.6-13.4-0.8-30-0.2-16.6-0.1-30 0.2-30 0.3 0 0.7 13.4 0.8 30 0.2 16.5 0.1 30-0.2 30z"/>
				</g>
			</g>
		</g>
		<g id="&lt;Group&gt;">
			<g id="&lt;Group&gt;">
				<g id="&lt;Group&gt;">
					<path id="&lt;Path&gt;" class="s6" d="m887.5 567.4c-0.1 0.2-8.3-3.7-18.4-8.8-10-5.2-18-9.5-17.9-9.8 0.1-0.2 8.4 3.7 18.4 8.8 10 5.2 18.1 9.5 17.9 9.8z"/>
				</g>
			</g>
			<g id="&lt;Group&gt;">
				<g id="&lt;Group&gt;">
					<path id="&lt;Path&gt;" class="s6" d="m860.4 576.4c-0.3-0.1 3.5-8.4 8.5-18.5 5-10.2 9.2-18.2 9.5-18.1 0.2 0.1-3.6 8.4-8.6 18.5-4.9 10.1-9.2 18.2-9.4 18.1z"/>
				</g>
			</g>
		</g>
		<g id="&lt;Group&gt;">
			<g id="&lt;Group&gt;">
				<g id="&lt;Group&gt;">
					<path id="&lt;Path&gt;" class="s6" d="m169.6 426.5c0.1 0.3-9.5 4.4-21.4 9.1-11.9 4.8-21.6 8.4-21.7 8.1-0.2-0.2 9.4-4.3 21.3-9 11.9-4.8 21.7-8.4 21.8-8.2z"/>
				</g>
			</g>
			<g id="&lt;Group&gt;">
				<g id="&lt;Group&gt;">
					<path id="&lt;Path&gt;" class="s6" d="m147.5 413.5c-0.1 0.1-0.3-0.5-1-1.5-0.8-0.9-2.1-2-4.1-2.6-1.9-0.5-4.6-0.1-6.6 1.7-1.9 1.7-3 5-1.8 7.8 1.1 2.9 4.1 4.6 6.7 4.5 2.7-0.1 4.9-1.7 6-3.4 1.1-1.7 1.2-3.5 1.1-4.6-0.1-1.2-0.4-1.8-0.3-1.9 0.1 0 0.4 0.6 0.7 1.8 0.2 1.2 0.2 3.1-0.9 5.1-1.1 1.9-3.5 3.8-6.5 3.9-3 0.2-6.5-1.7-7.7-5-1.4-3.3-0.2-7 2.1-8.9 2.3-2.1 5.3-2.4 7.4-1.7 2.2 0.7 3.5 2.1 4.2 3.1 0.6 1 0.8 1.7 0.7 1.7z"/>
				</g>
			</g>
			<g id="&lt;Group&gt;">
				<g id="&lt;Group&gt;">
					<path id="&lt;Path&gt;" class="s6" d="m162.5 451.2c-0.1 0-0.3-0.6-1-1.5-0.8-0.9-2.1-2.1-4.1-2.6-1.9-0.6-4.6-0.2-6.6 1.6-2 1.7-3 5-1.8 7.8 1.1 2.9 4.1 4.6 6.7 4.5 2.7-0.1 4.9-1.6 6-3.4 1-1.7 1.2-3.5 1.1-4.6-0.1-1.2-0.4-1.8-0.3-1.8 0.1-0.1 0.4 0.5 0.7 1.7 0.2 1.2 0.2 3.1-0.9 5.1-1.1 2-3.5 3.8-6.5 3.9-3 0.2-6.5-1.7-7.8-5-1.3-3.3-0.1-7 2.2-8.9 2.3-2 5.3-2.3 7.4-1.7 2.2 0.7 3.5 2.1 4.2 3.1 0.6 1.1 0.8 1.7 0.7 1.8z"/>
				</g>
			</g>
		</g>
	</g>
	<g id="Speech Bubble">
		<g id="&lt;Group&gt;">
			<g id="&lt;Group&gt;">
				<g id="&lt;Group&gt;">
					<path id="&lt;Path&gt;" class="s6" d="m281.4 218.6c0 0 0.2 0.6 0.6 1.6q0.6 1.6 1.7 4.6c1.4 4.1 3.5 10.1 6.2 17.8l0.2 0.4-0.4-0.1c-7.1-1-15.8-2.1-25.8-3.5l0.3-0.1c-7.9 6.2-18.4 11.6-30.8 13.5q-4.7 0.8-9.6 0.8c-1.7 0.1-3.3-0.1-5-0.2q-1.2 0-2.5-0.1c-0.8-0.1-1.7-0.2-2.5-0.3-6.8-0.8-13.7-2.9-20.2-6.1-6.6-3.2-12.9-7.6-18.4-13-5.4-5.5-10.1-12.1-13.4-19.5-6.8-14.7-8.3-32.7-2.7-49.2 4.7-14.8 14.9-27.1 27-35.1 6-4.1 12.7-6.8 19.5-8.7l2.5-0.6 1.3-0.3 1.2-0.2q2.6-0.4 5.2-0.8c1.7-0.2 3.4-0.2 5.1-0.3 1.6-0.1 3.3 0 5 0.1 1.7 0.1 3.3 0 5 0.3q2.4 0.4 4.8 0.8c1.6 0.2 3.2 0.7 4.7 1.1l2.4 0.6c0.7 0.3 1.5 0.6 2.2 0.8 6 2 11.4 5.1 16.4 8.4 9.6 6.9 16.9 15.6 21.4 24.7 4.5 9 6.5 18.1 7 26.1 0.6 8-0.5 14.9-1.8 20.4-1.4 5.5-3.2 9.5-4.4 12.2q-1 2-1.6 2.9c-0.4 0.7-0.6 1-0.6 1q0 0 0.5-1 0.5-1 1.5-3c1.2-2.7 2.8-6.8 4.2-12.2 1.2-5.4 2.3-12.3 1.6-20.2-0.5-7.9-2.6-16.9-7.1-25.9-4.4-8.9-11.7-17.5-21.2-24.3-4.9-3.2-10.2-6.3-16.2-8.2-0.7-0.3-1.5-0.6-2.2-0.8l-2.3-0.6c-1.5-0.4-3.1-0.9-4.7-1.1q-2.3-0.4-4.8-0.7c-1.6-0.3-3.2-0.3-4.9-0.4-1.6-0.1-3.3-0.2-4.9 0-1.7 0.1-3.4 0.1-5 0.3q-2.5 0.3-5.1 0.7l-1.2 0.2-1.3 0.4-2.5 0.6c-6.6 1.8-13.2 4.5-19.2 8.6-11.9 7.9-21.9 19.9-26.6 34.5-5.4 16.3-4 34 2.7 48.5 3.3 7.3 7.8 13.8 13.2 19.2 5.4 5.4 11.6 9.7 18.1 12.8 6.4 3.2 13.2 5.3 19.9 6.1 0.8 0.1 1.6 0.3 2.5 0.3q1.2 0.1 2.5 0.2c1.6 0 3.2 0.2 4.9 0.2q4.8-0.1 9.4-0.8c12.3-1.9 22.7-7.1 30.6-13.2l0.1-0.1 0.1 0.1c10 1.4 18.7 2.6 25.7 3.6l-0.2 0.3c-2.6-7.7-4.7-13.7-6.1-17.9q-1-3-1.5-4.6-0.5-1.6-0.5-1.6z"/>
				</g>
			</g>
			<g id="&lt;Group&gt;">
				<g id="&lt;Group&gt;">
					<g id="&lt;Group&gt;">
						<g id="&lt;Group&gt;">
							<path id="&lt;Path&gt;" class="s20" d="m226.3 170.8c0.9 0.5 1.5 1.4 1.5 2.5v13.3c0 0.8-0.3 1.6-1 2.1-0.7 0.5-1.6 0.7-2.4 0.4-2.1-0.5-4.4-0.2-6.5 1-1.8 1.2-3.1 2.9-3.5 4.8-0.4 1.9 0.1 4 1.3 5.8 1.4 2 3.4 3.3 5.5 3.7 4.3 0.6 9.1-2.5 10.5-6.8 0.4-1.4 2-2.2 3.4-1.8 1.4 0.5 2.1 2 1.7 3.4-2.2 6.9-9.5 11.5-16.4 10.4-3.6-0.5-6.9-2.7-9.1-5.8-2.1-3.1-2.9-6.7-2.2-10 0.7-3.3 2.9-6.3 6-8.2 2.3-1.4 4.9-2.1 7.4-2.1v-10.2c0-1.5 1.2-2.7 2.7-2.7q0.6 0 1.1 0.2z"/>
						</g>
					</g>
				</g>
				<g id="&lt;Group&gt;">
					<g id="&lt;Group&gt;">
						<g id="&lt;Group&gt;">
							<path id="&lt;Path&gt;" class="s18" d="m222.6 165.2c0-1.2 1-2.2 2.2-2.2 1.2 0 2.2 0.9 2.2 2.1 0 1.2-0.9 2.2-2.1 2.3-1.2 0-2.2-1-2.3-2.2z"/>
						</g>
					</g>
				</g>
			</g>
		</g>
	</g>
</svg>