<svg version="1.2" xmlns="http://www.w3.org/2000/svg" viewBox="0 0 3710 3710" width="3710" height="3710">
	<title>calculator_1</title>
	<defs>
		<filter x="-50%" y="-50%" width="200%" height="200%" id="f1"> <feGaussianBlur stdDeviation="2.7"/> </filter>
		<linearGradient id="g1" x2="1" gradientUnits="userSpaceOnUse" gradientTransform="matrix(-1753.101,-2177.241,2201.326,-1772.494,3398.234,2971.445)">
			<stop offset="0" stop-color="#074530"/>
			<stop offset="1" stop-color="#8cdec1"/>
		</linearGradient>
		<linearGradient id="g2" x2="1" gradientUnits="userSpaceOnUse" gradientTransform="matrix(-1308.473,3137.46,-1740.784,-725.991,2705.934,403.737)">
			<stop offset="0" stop-color="#ff6e02"/>
			<stop offset=".5" stop-color="#ffff00"/>
			<stop offset="1" stop-color="#ff6d00"/>
		</linearGradient>
		<linearGradient id="g3" x2="1" gradientUnits="userSpaceOnUse" gradientTransform="matrix(933.672,163.796,-383.78,2187.63,909.142,455.632)">
			<stop offset="0" stop-color="#41a362"/>
			<stop offset="1" stop-color="#204f2e"/>
		</linearGradient>
		<linearGradient id="g4" x2="1" gradientUnits="userSpaceOnUse" gradientTransform="matrix(548.184,96.169,-301.38,1717.931,1156.776,907.151)">
			<stop offset="0" stop-color="#41a362"/>
			<stop offset="1" stop-color="#204f2e"/>
		</linearGradient>
		<linearGradient id="g5" x2="1" gradientUnits="userSpaceOnUse" gradientTransform="matrix(1281.667,224.845,-299.727,1708.513,538.936,1081.341)">
			<stop offset="0" stop-color="#41a362"/>
			<stop offset="1" stop-color="#204f2e"/>
		</linearGradient>
		<linearGradient id="g6" x2="1" gradientUnits="userSpaceOnUse" gradientTransform="matrix(932.376,163.568,-245.009,1396.607,803.186,1403.824)">
			<stop offset="0" stop-color="#41a362"/>
			<stop offset="1" stop-color="#204f2e"/>
		</linearGradient>
		<linearGradient id="g7" x2="1" gradientUnits="userSpaceOnUse" gradientTransform="matrix(397.215,-667.658,402.363,239.381,2314.887,1641.678)">
			<stop offset="0" stop-color="#ff6e02"/>
			<stop offset=".5" stop-color="#ffff00"/>
			<stop offset="1" stop-color="#ff6d00"/>
		</linearGradient>
		<linearGradient id="g8" x2="1" gradientUnits="userSpaceOnUse" gradientTransform="matrix(-2314.506,3064.766,-2999.215,-2265.002,4419.773,1830.021)">
			<stop offset="0" stop-color="#074530"/>
			<stop offset="1" stop-color="#074530"/>
		</linearGradient>
		<linearGradient id="g9" x2="1" gradientUnits="userSpaceOnUse" gradientTransform="matrix(-1383.369,3219.973,-2923.433,-1255.969,4468.071,1191.688)">
			<stop offset="0" stop-color="#188a63"/>
			<stop offset="1" stop-color="#ffffff"/>
		</linearGradient>
		<linearGradient id="g10" x2="1" gradientUnits="userSpaceOnUse" gradientTransform="matrix(-264.951,456.28,-255.032,-148.091,1645.13,1279.931)">
			<stop offset="0" stop-color="#e10019"/>
			<stop offset="1" stop-color="#00601b"/>
		</linearGradient>
		<linearGradient id="g11" x2="1" gradientUnits="userSpaceOnUse" gradientTransform="matrix(-961.995,962.772,-1018.279,-1017.458,2463.44,349.764)">
			<stop offset="0" stop-color="#188a63"/>
			<stop offset="1" stop-color="#074530"/>
		</linearGradient>
		<linearGradient id="g12" x2="1" gradientUnits="userSpaceOnUse" gradientTransform="matrix(-698.096,925.802,-1175.422,-886.321,2365.643,320.463)">
			<stop offset="0" stop-color="#188a63" stop-opacity="1"/>
			<stop offset="1" stop-color="#188a63" stop-opacity="0"/>
		</linearGradient>
		<linearGradient id="g13" x2="1" gradientUnits="userSpaceOnUse" gradientTransform="matrix(-466.373,864.363,-1410.572,-761.084,2265.699,382.049)">
			<stop offset="0" stop-color="#074530"/>
			<stop offset=".908" stop-color="#074530"/>
			<stop offset="1" stop-color="#074530"/>
		</linearGradient>
		<linearGradient id="g14" x2="1" gradientUnits="userSpaceOnUse" gradientTransform="matrix(-1060.118,2541.954,-2124.625,-886.072,3445.894,144.77)">
			<stop offset="0" stop-color="#ff6e02"/>
			<stop offset=".5" stop-color="#ffff00"/>
			<stop offset="1" stop-color="#ff6d00"/>
		</linearGradient>
		<clipPath clipPathUnits="userSpaceOnUse" id="cp1">
			<path d="m705.08 2369.83c0 0-82.31 230.89 220.09 236.05 302.4 5.16 847.01-612.79 1043.76-857.24 297.91-370.12 592.46-598.37 850.66-595.71 258.19 2.66 307.04 265.54 228.9 401.56 0 0 5.42-253.11-153.74-222.34-159.16 30.77-390.92 204.49-925.82 798.36-308.83 342.88-685.1 608.5-1023.59 600.5-338.49-8.01-339.76-236.13-240.26-361.18z"/>
		</clipPath>
		<linearGradient id="g15" x2="1" gradientUnits="userSpaceOnUse" gradientTransform="matrix(-267.456,-420.14,344.028,-219.004,815.297,2997.095)">
			<stop offset="0" stop-color="#2b3582"/>
			<stop offset="1" stop-color="#150e42"/>
		</linearGradient>
		<linearGradient id="g16" x2="1" gradientUnits="userSpaceOnUse" gradientTransform="matrix(155.073,-349.816,175.222,77.676,797.775,2969.202)">
			<stop offset="0" stop-color="#050405"/>
			<stop offset="1" stop-color="#fefefe"/>
		</linearGradient>
		<linearGradient id="g17" x2="1" gradientUnits="userSpaceOnUse" gradientTransform="matrix(-62.271,0,0,-61.217,865.612,2831.753)">
			<stop offset="0" stop-color="#f9b776"/>
			<stop offset="1" stop-color="#f47960"/>
		</linearGradient>
		<linearGradient id="g18" x2="1" gradientUnits="userSpaceOnUse" gradientTransform="matrix(-249.839,430.848,-353.143,-204.78,1824.672,3100.265)">
			<stop offset="0" stop-color="#2b3582"/>
			<stop offset="1" stop-color="#150e42"/>
		</linearGradient>
		<linearGradient id="g19" x2="1" gradientUnits="userSpaceOnUse" gradientTransform="matrix(-381.933,23.384,-11.713,-191.317,1815.979,3124.661)">
			<stop offset="0" stop-color="#050405"/>
			<stop offset="1" stop-color="#fefefe"/>
		</linearGradient>
		<linearGradient id="g20" x2="1" gradientUnits="userSpaceOnUse" gradientTransform="matrix(28.671,55.28,-54.325,28.175,1654.731,3131.719)">
			<stop offset="0" stop-color="#f9b776"/>
			<stop offset="1" stop-color="#f47960"/>
		</linearGradient>
		<linearGradient id="g21" x2="1" gradientUnits="userSpaceOnUse" gradientTransform="matrix(162.523,-555.286,768.359,224.886,1185.349,3114.626)">
			<stop offset="0" stop-color="#2b3582"/>
			<stop offset="1" stop-color="#150e42"/>
		</linearGradient>
		<linearGradient id="g22" x2="1" gradientUnits="userSpaceOnUse" gradientTransform="matrix(-629.495,0,0,-707.323,1730.332,2454.407)">
			<stop offset="0" stop-color="#2b3582"/>
			<stop offset="1" stop-color="#150e42"/>
		</linearGradient>
		<linearGradient id="g23" x2="1" gradientUnits="userSpaceOnUse" gradientTransform="matrix(374.698,168.166,-76.142,169.654,1263.999,2469.778)">
			<stop offset="0" stop-color="#f9b776"/>
			<stop offset="1" stop-color="#f47960"/>
		</linearGradient>
		<linearGradient id="g24" x2="1" gradientUnits="userSpaceOnUse" gradientTransform="matrix(108.615,-328.157,537.153,177.79,1286.427,2312.659)">
			<stop offset="0" stop-color="#f9b776"/>
			<stop offset="1" stop-color="#f47960"/>
		</linearGradient>
		<linearGradient id="g25" x2="1" gradientUnits="userSpaceOnUse" gradientTransform="matrix(-462.632,1163.588,-1196.985,-475.91,1026.119,1753.827)">
			<stop offset="0" stop-color="#233862"/>
			<stop offset="1" stop-color="#4f6ca8"/>
		</linearGradient>
		<linearGradient id="g26" x2="1" gradientUnits="userSpaceOnUse" gradientTransform="matrix(-254.097,27.14,-23.389,-218.982,1462.754,1694.76)">
			<stop offset="0" stop-color="#2b3582"/>
			<stop offset="1" stop-color="#150e42"/>
		</linearGradient>
		<linearGradient id="g27" x2="1" gradientUnits="userSpaceOnUse" gradientTransform="matrix(-123.578,523.792,-563.601,-132.97,1255.46,1819.28)">
			<stop offset="0" stop-color="#f9b776"/>
			<stop offset="1" stop-color="#f47960"/>
		</linearGradient>
		<linearGradient id="g28" x2="1" gradientUnits="userSpaceOnUse" gradientTransform="matrix(-345.361,868.635,-478.887,-190.401,934.985,1866.601)">
			<stop offset="0" stop-color="#f9b776"/>
			<stop offset="1" stop-color="#f47960"/>
		</linearGradient>
		<linearGradient id="g29" x2="1" gradientUnits="userSpaceOnUse" gradientTransform="matrix(-30.463,0,0,-65.084,1713.472,2254.605)">
			<stop offset="0" stop-color="#f9b776"/>
			<stop offset="1" stop-color="#f47960"/>
		</linearGradient>
		<linearGradient id="g30" x2="1" gradientUnits="userSpaceOnUse" gradientTransform="matrix(-69.092,809.361,-874.702,-74.67,1299.699,1909.192)">
			<stop offset="0" stop-color="#233862"/>
			<stop offset="1" stop-color="#4f6ca8"/>
		</linearGradient>
		<linearGradient id="g31" x2="1" gradientUnits="userSpaceOnUse" gradientTransform="matrix(954.749,1397.194,-1551.114,1059.928,2590.3,2203.121)">
			<stop offset="0" stop-color="#e10019"/>
			<stop offset="1" stop-color="#00601b"/>
		</linearGradient>
		<linearGradient id="g32" x2="1" gradientUnits="userSpaceOnUse" gradientTransform="matrix(-167.064,210.071,-255.845,-203.467,2452.621,2213.306)">
			<stop offset="0" stop-color="#fdf53f"/>
			<stop offset="1" stop-color="#d93c65"/>
		</linearGradient>
		<linearGradient id="g33" x2="1" gradientUnits="userSpaceOnUse" gradientTransform="matrix(419.28,0,0,473.279,2279.986,1897.721)">
			<stop offset="0" stop-color="#152c19"/>
			<stop offset=".996" stop-color="#397851"/>
		</linearGradient>
		<linearGradient id="g34" x2="1" gradientUnits="userSpaceOnUse" gradientTransform="matrix(145.223,0,0,265.371,2188.564,2101.207)">
			<stop offset="0" stop-color="#e40045"/>
			<stop offset="1" stop-color="#5c0e16"/>
		</linearGradient>
		<linearGradient id="g35" x2="1" gradientUnits="userSpaceOnUse" gradientTransform="matrix(981.947,1155.491,-1364.7,1159.735,2451.846,2255.648)">
			<stop offset="0" stop-color="#050405"/>
			<stop offset="1" stop-color="#fefefe"/>
		</linearGradient>
		<linearGradient id="g36" x2="1" gradientUnits="userSpaceOnUse" gradientTransform="matrix(741.103,-35.838,2.118,43.798,2317.948,2919.313)">
			<stop offset="0" stop-color="#ffffff"/>
			<stop offset=".767" stop-color="#ffffff"/>
			<stop offset=".97" stop-color="#ffffff"/>
			<stop offset=".997" stop-color="#ffffff"/>
		</linearGradient>
		<linearGradient id="g37" x2="1" gradientUnits="userSpaceOnUse" gradientTransform="matrix(323.368,48.566,-76.286,507.938,2108.198,2670.352)">
			<stop offset="0" stop-color="#050405"/>
			<stop offset="1" stop-color="#fefefe"/>
		</linearGradient>
		<linearGradient id="g38" x2="1" gradientUnits="userSpaceOnUse" gradientTransform="matrix(-61.253,199.098,-366.475,-112.747,2288.058,2640.083)">
			<stop offset="0" stop-color="#ffffff"/>
			<stop offset=".767" stop-color="#ffffff"/>
			<stop offset=".97" stop-color="#ffffff"/>
			<stop offset=".997" stop-color="#ffffff"/>
		</linearGradient>
		<linearGradient id="g39" x2="1" gradientUnits="userSpaceOnUse" gradientTransform="matrix(-161.724,93.385,-59.717,-103.419,2321.311,3186.265)">
			<stop offset="0" stop-color="#ffffff"/>
			<stop offset=".767" stop-color="#ffffff"/>
			<stop offset=".97" stop-color="#ffffff"/>
			<stop offset=".997" stop-color="#ffffff"/>
		</linearGradient>
		<linearGradient id="g40" x2="1" gradientUnits="userSpaceOnUse" gradientTransform="matrix(900.961,1327.128,-1108.25,752.369,3243.765,2614.679)">
			<stop offset="0" stop-color="#050405"/>
			<stop offset="1" stop-color="#fefefe"/>
		</linearGradient>
		<linearGradient id="g41" x2="1" gradientUnits="userSpaceOnUse" gradientTransform="matrix(80.178,192.258,-353.899,147.588,2973.671,2603.398)">
			<stop offset="0" stop-color="#ffffff"/>
			<stop offset=".767" stop-color="#ffffff"/>
			<stop offset=".97" stop-color="#ffffff"/>
			<stop offset=".997" stop-color="#ffffff"/>
		</linearGradient>
		<linearGradient id="g42" x2="1" gradientUnits="userSpaceOnUse" gradientTransform="matrix(169.98,77.345,-49.455,108.687,2993.253,3150.242)">
			<stop offset="0" stop-color="#ffffff"/>
			<stop offset=".767" stop-color="#ffffff"/>
			<stop offset=".97" stop-color="#ffffff"/>
			<stop offset=".997" stop-color="#ffffff"/>
		</linearGradient>
	</defs>
	<style>
		.s0 { fill: #ffffff } 
		.s1 { filter: url(#f1);fill: url(#g1) } 
		.s2 { fill: url(#g2) } 
		.s3 { fill: url(#g3) } 
		.s4 { fill: url(#g4) } 
		.s5 { fill: url(#g5) } 
		.s6 { fill: url(#g6) } 
		.s7 { fill: url(#g7) } 
		.s8 { fill: url(#g8) } 
		.s9 { fill: url(#g9) } 
		.s10 { opacity: .6;fill: #8cdec1 } 
		.s11 { fill: url(#g10) } 
		.s12 { opacity: .6;fill: #ffffff } 
		.s13 { fill: url(#g11) } 
		.s14 { fill: url(#g12) } 
		.s15 { fill: url(#g13) } 
		.s16 { fill: url(#g14) } 
		.s17 { fill: url(#g15) } 
		.s18 { fill: url(#g16) } 
		.s19 { fill: url(#g17) } 
		.s20 { fill: url(#g18) } 
		.s21 { fill: url(#g19) } 
		.s22 { fill: url(#g20) } 
		.s23 { fill: url(#g21) } 
		.s24 { fill: url(#g22) } 
		.s25 { fill: url(#g23) } 
		.s26 { fill: url(#g24) } 
		.s27 { fill: url(#g25) } 
		.s28 { fill: url(#g26) } 
		.s29 { fill: url(#g27) } 
		.s30 { fill: url(#g28) } 
		.s31 { fill: url(#g29) } 
		.s32 { fill: url(#g30) } 
		.s33 { fill: url(#g31) } 
		.s34 { opacity: .23;fill: #ffffff } 
		.s35 { fill: url(#g32) } 
		.s36 { fill: url(#g33) } 
		.s37 { fill: url(#g34) } 
		.s38 { fill: url(#g35) } 
		.s39 { opacity: .37;fill: url(#g36) } 
		.s40 { fill: url(#g37) } 
		.s41 { opacity: .37;fill: #ffffff } 
		.s42 { opacity: .37;fill: url(#g38) } 
		.s43 { opacity: .37;fill: url(#g39) } 
		.s44 { fill: url(#g40) } 
		.s45 { opacity: .37;fill: url(#g41) } 
		.s46 { opacity: .37;fill: url(#g42) } 
	</style>
	<g id="_Artboards_">
		<path id="&lt;Path&gt;" fill-rule="evenodd" class="s0" d="m6400.4-32v4000h-6400.4v-4000z"/>
	</g>
	<g id="Background">
		<g id="&lt;Group&gt;">
			<g id="&lt;Group&gt;">
			</g>
		</g>
	</g>
	<g id="Illustration">
		<g id="&lt;Group&gt;">
			<path id="&lt;Path&gt;" class="s1" d="m2922.1 2857.9c-57 60.1-111 98.8-153.6 129.4-501.4 359.8-1094.6 254.9-1220.7 229.3-186.2-37.8-546-110.9-806.2-416.9-393.7-462.9-332.4-1192.2-27-1673.6 55.8-88.1 350.8-576.8 950.4-655.2 362.9-47.4 785.9 48.2 1092.3 304.9 643 538.7 597.2 1627 164.8 2082.1z"/>
			<path id="&lt;Path&gt;" class="s2" d="m1659.1 1921.7c-20.1-1-834.4 378.4-870.7 765 0 0-246.8-246.1 33.8-533.6 280.6-287.5 803-527.9 803-527.9z"/>
			<g id="&lt;Group&gt;">
				<path id="&lt;Path&gt;" class="s3" d="m1393.6 2793.5c3.4 1.5 23 10.2 43.2 3 121.8-43.4-127.3-521.8 43.2-1007.6 69.5-197.9 178.8-312 155.4-518.2-4.2-37.5-18.6-152.7-96.1-265.5-48.8-70.9-86-87.8-151.8-149.4-206.8-193.4-191.5-356.2-285.7-366.2-105-11.2-263.5 176.7-251.4 348.7 13.3 189.4 225 241.6 211.2 405.4-10.7 127.4-141.7 129.9-172.3 282.8-40.7 202.9 150.4 396.4 174.8 420.4 108.7 107.3 149.8 65 219.9 146 190.6 220.1-14.5 645.6 109.6 700.6z"/>
				<path id="&lt;Path&gt;" class="s4" d="m1159 907.5c15.8 12 30.8 24.9 45.2 38.6 14.4 13.5 28.3 27.7 41.6 42.5 13.2 14.8 26.1 30 38.2 45.8 11.9 15.9 23.7 32 34.5 48.8 5.6 8.3 10.4 17 15.7 25.5 4.8 8.8 10 17.4 14.5 26.3 4.7 8.9 9.3 17.8 13.5 26.9 2.1 4.5 4.3 9 6.3 13.6l5.9 13.9c4 9.2 7.2 18.8 10.8 28.2 3.4 9.5 6.2 19.2 9.4 28.7 2.6 9.8 5.5 19.5 7.8 29.3l3.3 14.8c1.1 4.9 2.2 9.8 2.9 14.9 7 39.8 9.6 80.5 7.4 121l-0.8 15.2-1.2 14.7-2.5 29.3c-1.8 19.5-3.1 39.1-4.7 58.6-6 78.2-10.6 156.5-13.9 234.8-6.3 156.7-6.2 313.3 9.7 469.3 6.9 78.9 8.8 157.7 8.8 236.5-0.2 78.8-2.7 157.4-7.7 236l-4.6-0.2c0.8-78.6-0.5-157.1-3-235.6-1.5-39.2-3.3-78.4-5.9-117.5-2.5-39-5.6-78.1-10.2-116.9-10-78-15.6-157.2-18.4-236-2.4-78.9-1.9-157.9 0.4-236.7 2.2-78.8 7-157.5 12.5-236.1 1.5-19.6 2.9-39.2 4.5-58.9l2.4-29.4 1.2-14.7 0.9-14.2c2.4-38 0.3-76.3-6-113.9-1.3-9.4-3.5-18.7-5.2-28.1-2-9.4-4.5-18.6-6.7-27.9-2.8-9.2-5.2-18.5-8.2-27.6-3.2-9-6-18.2-9.6-27.1-13.5-35.9-29.9-71-49.4-104.4-9.5-16.9-19.9-33.2-30.6-49.4-11-16.1-22.3-31.9-34.2-47.4-23.9-30.6-49.4-60.5-77.5-87.7z"/>
			</g>
			<g id="&lt;Group&gt;">
				<path id="&lt;Path&gt;" class="s5" d="m1455.3 3000.2c16.4 8.7 42.6 11.5 58.9-0.4 62.9-46.2-98.8-256-144.3-553.3-52.7-344.1 95.8-508.9-38.5-670.8-64.6-77.8-120-65.1-179.9-163.2-83.5-136.6-16.9-228.3-83.5-335-76.6-122.6-283.6-191.9-424.5-123.1-189.6 92.5-208.8 410-107.5 574.4 65.8 106.8 190.9 162.9 176.2 193.1-14 28.8-123-32.4-184.4 15.2-80.4 62.4-61.2 297.5 57.3 379.6 109.1 75.6 291.2 13.9 299.8 50.8 3.4 14.5-24.8 24.2-25.9 42.6-1.9 32.8 83.4 79 390.6 144.7 83.2 53.1 120.8 110.4 139.7 153.7 55.8 127.8 3.4 258.9 66 291.7z"/>
				<path id="&lt;Path&gt;" class="s6" d="m807.1 1404.5c2.1 71.8 11.1 143.1 28.5 212 17.2 69.1 43 135.4 76.7 197.5 17 31 35.6 61.2 55.3 90.8 10.2 14.7 20 29.4 30.5 43.9q15.4 22.1 31.2 43.8l63.1 87.6 15.7 22.1 15.3 22.3c10.3 14.9 20.2 30 30.2 45.1 20 30.1 39.2 60.8 58.1 91.7 9.2 15.5 18.6 31 27.5 46.7l13.4 23.6 13.1 23.7 13.1 23.8 12.6 24 12.6 24 12.2 24.3 12 24.3 11.6 24.5c7.7 16.4 15.4 32.7 22.5 49.4l11 24.8 5.4 12.4 5.2 12.6c6.7 16.8 13.6 33.5 20.1 50.3l18.8 50.9c6.1 17 11.4 34.3 17.1 51.5 21.8 68.9 39.6 139.2 50.9 210.4l-3.9 0.8c-17.4-69.8-39.1-138.2-64.3-205.2l-9.7-25c-3.3-8.4-6.2-16.8-9.8-25l-20.7-49.6c-14.6-32.6-29.2-65.3-44.8-97.4-7.6-16.3-15.8-32.2-23.9-48.1l-12.1-23.9-12.7-23.7-12.5-23.7-12.9-23.5-12.9-23.5-13.4-23.3c-35.8-61.9-73.1-123-112.9-182.4-39.8-59.4-81.5-117.5-123.3-176.3-10.4-14.8-20.8-29.5-31-44.5-10.3-14.8-20-30.2-30-45.4-19.3-30.8-38-62.1-54.5-94.8-4.1-8.2-7.9-16.5-11.8-24.8l-5.8-12.4-5.2-12.7c-3.5-8.5-7.2-16.9-10.4-25.5l-9.2-25.8c-3.3-8.5-5.6-17.4-8.2-26.2l-3.9-13.1c-1.3-4.4-2.6-8.7-3.6-13.2-4.1-17.8-8.7-35.4-12.1-53.3-13.4-71.6-17.8-144.6-12.2-216.6z"/>
			</g>
			<path id="&lt;Path&gt;" class="s7" d="m2775.8 1477.3l18.8 145c2.6 20.2-12.1 91.4 7.6 97 49.2 14.2 171.8-27.8 227.1-114.1 56.3-87.9 53-335-64.7-349.2-41.7-5.1 15.8 102.7-156 166.4-22.4 8.3-35.9 31.2-32.8 54.9z"/>
			<g id="&lt;Group&gt;">
				<path id="&lt;Path&gt;" class="s8" d="m1293.5 777.3l1386.9-5.4c76.5-0.3 139.8 59.4 144 135.8l110.2 2010.3c3.3 59.8-43.5 110.4-103.4 111.7l-1589.4 35.1c-56.3 1.3-102.6-43.8-102.8-100.1l-7.9-2023.7c-0.4-90 72.4-163.3 162.4-163.7z"/>
				<path id="&lt;Path&gt;" class="s0" d="m1473.9 3029.3l-177.9-1.6c-59.2-0.5-107.5-49.2-107.8-108.4l-1-268.5c0-1.9 1.5-3.4 3.3-3.4 1.8 0 3.3 1.5 3.4 3.4l1 268.5c0.2 55.6 45.6 101.2 101.2 101.7l177.9 1.6c1.8 0 3.3 1.5 3.3 3.4 0 1.8-1.5 3.3-3.4 3.3z"/>
				<path id="&lt;Path&gt;" class="s0" d="m1190.2 2570.9c-1.9 0-3.3-1.5-3.4-3.3l-0.1-43.5c0-1.8 1.5-3.3 3.3-3.3 1.9 0 3.3 1.4 3.4 3.3l0.1 43.5c0 1.8-1.5 3.3-3.3 3.3z"/>
				<g id="&lt;Group&gt;">
					<path id="&lt;Path&gt;" class="s9" d="m1297.7 761c189.5 25 841.1 101.8 1379.4 58.4 24.5-2 45.9 16.5 47.3 41.1l115.2 2019.3c1.6 27.7-19.4 51.4-47.1 53.2-226.4 14.3-1158.9 69.7-1491.7 36.2-20.2-2.1-35.6-19.1-35.8-39.4l-20.8-2121.3c-0.3-28.8 25-51.2 53.5-47.5z"/>
					<path id="&lt;Path&gt;" class="s10" d="m1318.2 813.3c182.4 24 809.4 98 1327.4 56.2 23.7-1.9 44.2 15.9 45.6 39.6l110.9 1943.2c1.5 26.6-18.8 49.5-45.4 51.2-217.9 13.7-1115.2 67.1-1435.5 34.8-19.5-1.9-34.3-18.3-34.5-37.9l-20-2041.4c-0.3-27.7 24-49.3 51.5-45.7z"/>
					<g id="&lt;Group&gt;" style="opacity: .6">
						<path id="&lt;Path&gt;" class="s0" d="m2589.4 1254.4c7.3 0 12.9-6 12.4-13.4l-0.1-1.2c-0.5-7.4-6.9-13.4-14.3-13.4l-1177.6-4.7c-7.3 0-9.6 4.6-5 10.4l13.3 16.5c4.6 5.7 14.3 10.3 21.7 10.3z"/>
					</g>
					<g id="&lt;Group&gt;" style="opacity: .6">
						<path id="&lt;Path&gt;" class="s0" d="m1410.1 1299.4c-7.3-0.1-9.6 4.6-5 10.3l13.3 16.5c4.6 5.8 14.3 10.4 21.7 10.4l1149.6-4.5c7.3 0 12.9-6 12.4-13.4l-0.1-1.3c-0.5-7.3-6.9-13.3-14.3-13.3z"/>
					</g>
					<g id="&lt;Group&gt;">
						<path id="&lt;Compound Path&gt;" fill-rule="evenodd" class="s0" d="m1494.5 1508.2q-0.1 0-0.1 0l-44.3-0.3c-7.2 0-13.1-5-13.9-11.5l-4-37.2c-0.3-2.6 0.5-5.2 2.3-7.3 1.9-2.3 4.8-3.8 7.9-4 3.7-0.3 8.8-0.7 14.5-1.2 12.4-1.1 26.4-2.4 34.6-2.5 6.6-0.2 12.5 3.9 14.1 9.8 2.4 8.8 2.2 25.1 1.9 42.4-0.2 6.5-6 11.8-13 11.8zm-51.6-53.6c-1.4 0.1-2.6 0.6-3.3 1.6-0.4 0.4-0.9 1.2-0.7 2.3l4 37.1c0.3 3.2 3.4 5.6 7.2 5.6l44.3 0.3q0.1 0 0.1 0c3.4 0 6.2-2.4 6.3-5.2 0.3-12.8 0.7-32-1.7-40.5-0.8-2.9-3.8-5-7.5-4.9-8 0.1-22.5 1.4-34.1 2.4-5.7 0.5-10.9 1-14.6 1.3z"/>
						<g id="&lt;Group&gt;" style="opacity: .6">
							<path id="&lt;Path&gt;" class="s0" d="m1543 1467.8c-7.3 0-12 5-10.4 11.1 1.6 6.1 9 10.9 16.3 10.8l389.8-5.6c7.4-0.1 13.3-3.9 13.2-8.4-0.1-4.6-6.3-8.3-13.6-8.3z"/>
						</g>
						<path id="&lt;Path&gt;" class="s11" d="m1449.4 1462.6c3.3-2 7.6-0.8 9.4 2.5l8.8 15.6c0.9 1.6 3.2 1.5 3.9-0.1l21.5-48.4c1.1-2.4 4.7-1.6 4.7 1-0.2 14.8-4 42.9-27.5 66.5 0 0-13-5-23.6-28-1.5-3.3-0.3-7.3 2.8-9.1z"/>
						<path id="&lt;Compound Path&gt;" fill-rule="evenodd" class="s0" d="m1494.8 1603.1l-44.4-0.2c-7.1 0-13.1-5-13.8-11.6l-4-37.1c-0.3-2.7 0.5-5.2 2.2-7.3 1.9-2.3 4.8-3.8 7.9-4 3.8-0.3 8.9-0.7 14.6-1.2 12.3-1.1 26.3-2.4 34.6-2.5 6.6-0.1 12.4 3.9 14.1 9.8 2.4 8.8 2.2 25.1 1.8 42.4-0.1 6.5-5.9 11.7-13 11.7zm-51.6-53.5c-1.3 0.1-2.5 0.6-3.2 1.5-0.4 0.5-0.9 1.3-0.8 2.4l4.1 37.1c0.3 3.2 3.4 5.6 7.2 5.6l44.3 0.3c3.6 0.1 6.3-2.3 6.4-5.2 0.2-12.8 0.7-32-1.7-40.5-0.8-2.9-3.8-5.1-7.5-4.9-8 0.1-22.5 1.4-34.1 2.4-5.7 0.5-10.9 1-14.7 1.3z"/>
						<path id="&lt;Path&gt;" class="s12" d="m1447.9 1551.8c9.3-0.7 29.5-2.9 39.1-3 4.1-0.1 7.7 2.4 8.6 5.9 1.9 6.8 1.7 20.5 1.5 33.1-0.1 3.8-3.6 6.8-7.8 6.8l-35.4-0.2c-4.4-0.1-8-3-8.4-6.9l-3.3-29.7c-0.3-3.1 2.2-5.8 5.7-6z"/>
						<g id="&lt;Group&gt;" style="opacity: .6">
							<path id="&lt;Path&gt;" class="s0" d="m1543.4 1562.8c-7.4 0-12.1 5-10.4 11.1 1.6 6 9 10.9 16.3 10.8l389.8-5.6c7.3-0.1 13.3-3.9 13.1-8.4-0.1-4.6-6.2-8.3-13.5-8.3z"/>
						</g>
						<path id="&lt;Compound Path&gt;" fill-rule="evenodd" class="s0" d="m1495.2 1698.1q0 0-0.1 0l-44.3-0.2c-7.2-0.1-13.1-5-13.8-11.6l-4-37.1c-0.3-2.7 0.5-5.3 2.2-7.3 1.9-2.3 4.8-3.8 7.9-4 3.7-0.3 8.9-0.7 14.5-1.2 12.4-1.1 26.4-2.4 34.7-2.5 6.7-0.1 12.4 3.9 14 9.8 2.4 8.8 2.3 25.1 1.9 42.4-0.1 6.5-5.9 11.7-13 11.7zm-51.6-53.5c-1.3 0.1-2.5 0.6-3.3 1.5-0.4 0.5-0.8 1.3-0.7 2.3l4 37.2c0.4 3.2 3.5 5.6 7.3 5.6l44.3 0.3c3.4 0 6.3-2.4 6.3-5.2 0.3-12.8 0.7-32-1.6-40.5-0.8-2.9-3.8-5-7.5-4.9-8 0.1-22.5 1.4-34.2 2.4-5.7 0.5-10.8 1-14.6 1.3z"/>
						<path id="&lt;Path&gt;" class="s12" d="m1448.3 1646.7c9.3-0.6 29.5-2.8 39.1-2.9 4.1-0.1 7.6 2.4 8.6 5.9 1.9 6.8 1.7 20.5 1.4 33.1-0.1 3.8-3.5 6.8-7.7 6.8l-35.5-0.2c-4.3-0.1-7.9-3-8.4-6.9l-3.2-29.7c-0.3-3.1 2.2-5.8 5.7-6.1z"/>
						<g id="&lt;Group&gt;" style="opacity: .6">
							<path id="&lt;Path&gt;" class="s0" d="m1543.7 1657.8c-7.3 0-12 5-10.4 11.1 1.7 6 9 10.9 16.4 10.8l389.8-5.6c7.3-0.1 13.2-3.9 13.1-8.4-0.1-4.6-6.2-8.3-13.6-8.3z"/>
						</g>
						<path id="&lt;Compound Path&gt;" fill-rule="evenodd" class="s0" d="m1495.6 1793.1q-0.1 0-0.1 0l-44.3-0.2c-7.2-0.1-13.1-5-13.8-11.6l-4.1-37.1c-0.3-2.7 0.5-5.3 2.3-7.3 1.9-2.3 4.8-3.8 7.9-4 3.7-0.3 8.8-0.7 14.5-1.2 12.3-1.1 26.4-2.4 34.6-2.5 6.6-0.1 12.5 3.9 14.1 9.8 2.4 8.8 2.3 25 1.9 42.4-0.2 6.5-6 11.7-13 11.7zm-2.7-57.2q-0.1 0-0.1 0c-8.1 0.1-22.6 1.4-34.2 2.4-5.7 0.5-10.9 1-14.6 1.3-1.3 0.1-2.5 0.6-3.3 1.5-0.4 0.5-0.8 1.3-0.7 2.3l4 37.2c0.4 3.2 3.5 5.6 7.2 5.6l44.3 0.3q0.1 0 0.1 0c3.4 0 6.2-2.4 6.3-5.3 0.3-12.7 0.7-31.9-1.6-40.4-0.8-2.9-3.9-4.9-7.4-4.9z"/>
						<path id="&lt;Path&gt;" class="s12" d="m1448.6 1741.7c9.3-0.6 29.6-2.8 39.2-2.9 4-0.1 7.6 2.4 8.6 5.9 1.9 6.8 1.7 20.5 1.4 33.1-0.1 3.8-3.5 6.8-7.8 6.8l-35.4-0.2c-4.3-0.1-8-3-8.4-6.9l-3.2-29.7c-0.4-3.1 2.2-5.8 5.6-6.1z"/>
						<g id="&lt;Group&gt;" style="opacity: .6">
							<path id="&lt;Path&gt;" class="s0" d="m1544.1 1752.8c-7.3 0-12 5-10.4 11.1 1.6 6 9 10.9 16.3 10.8l389.8-5.6c7.4-0.1 13.3-3.9 13.2-8.4-0.1-4.6-6.2-8.3-13.6-8.3z"/>
						</g>
					</g>
					<g id="&lt;Group&gt;">
						<path id="&lt;Compound Path&gt;" fill-rule="evenodd" class="s0" d="m2134.6 1495q0 0-0.1 0l-44.3-0.3c-7.2 0-13.1-5-13.8-11.6l-4.1-37.1c-0.2-2.7 0.6-5.2 2.3-7.3 1.9-2.3 4.8-3.8 7.9-4 3.7-0.3 8.9-0.7 14.5-1.2 12.4-1.1 26.4-2.4 34.7-2.5 6.6-0.2 12.4 3.9 14 9.8 2.4 8.8 2.3 25.1 1.9 42.4-0.1 6.5-6 11.8-13 11.8zm-2.7-57.3q0 0-0.1 0c-8.1 0.1-22.6 1.4-34.2 2.4-5.7 0.5-10.9 1-14.6 1.3-1.3 0.1-2.5 0.6-3.3 1.5-0.4 0.5-0.8 1.3-0.7 2.4l4 37.1c0.4 3.2 3.5 5.6 7.2 5.6l44.4 0.3c3.4 0 6.3-2.4 6.3-5.2 0.3-12.8 0.7-32-1.6-40.5-0.8-2.9-3.9-4.9-7.4-4.9z"/>
						<g id="&lt;Group&gt;" style="opacity: .6">
							<path id="&lt;Path&gt;" class="s0" d="m2183.1 1454.6c-7.3 0-12 5-10.4 11.1 1.7 6 9 10.9 16.4 10.8l389.8-5.6c7.3-0.1 13.2-3.9 13.1-8.4-0.1-4.6-6.2-8.3-13.6-8.3z"/>
						</g>
						<path id="&lt;Compound Path&gt;" fill-rule="evenodd" class="s0" d="m2135 1589.9q-0.1 0-0.1 0l-44.3-0.2c-7.2 0-13.1-5-13.8-11.6l-4.1-37.1c-0.3-2.7 0.5-5.3 2.3-7.3 1.9-2.3 4.8-3.8 7.9-4 3.7-0.3 8.9-0.7 14.5-1.2 12.4-1.1 26.4-2.4 34.6-2.5 6.7-0.2 12.5 3.9 14.1 9.8 2.4 8.8 2.3 25.1 1.9 42.4-0.2 6.5-6 11.7-13 11.7zm-51.6-53.5q-2.1 0.1-3.3 1.5c-0.4 0.5-0.9 1.3-0.7 2.3l4 37.2c0.3 3.2 3.4 5.6 7.2 5.6l44.3 0.3q0.1 0 0.1 0c3.4 0 6.2-2.4 6.3-5.2 0.3-12.8 0.7-32-1.7-40.5-0.7-2.9-3.8-4.9-7.3-4.9q-0.1 0-0.2 0c-8 0.1-22.5 1.4-34.1 2.4-5.7 0.5-10.9 1-14.6 1.3z"/>
						<g id="&lt;Group&gt;" style="opacity: .6">
							<path id="&lt;Path&gt;" class="s0" d="m2183.5 1549.6c-7.3 0-12 5-10.4 11.1 1.6 6 9 10.9 16.3 10.8l389.8-5.6c7.4-0.1 13.3-3.9 13.2-8.4-0.1-4.6-6.2-8.3-13.6-8.3z"/>
						</g>
						<path id="&lt;Compound Path&gt;" fill-rule="evenodd" class="s0" d="m2135.4 1684.9q-0.1 0-0.1 0l-44.4-0.2c-7.1-0.1-13.1-5-13.8-11.6l-4-37.1c-0.3-2.7 0.5-5.3 2.2-7.3 2-2.3 4.8-3.8 8-4 3.7-0.3 8.8-0.7 14.5-1.2 12.3-1.1 26.3-2.4 34.6-2.5 6.6-0.1 12.4 3.9 14.1 9.8 2.4 8.7 2.2 25 1.9 42.4-0.2 6.5-6 11.7-13 11.7zm-2.7-57.2q-0.1 0-0.2 0c-8 0.1-22.5 1.4-34.1 2.4-5.7 0.5-10.9 1-14.7 1.3-1.3 0.1-2.5 0.6-3.2 1.5-0.4 0.5-0.9 1.3-0.8 2.3l4.1 37.2c0.3 3.2 3.4 5.6 7.2 5.6l44.3 0.3q0 0 0.1 0c3.4 0 6.2-2.4 6.3-5.3 0.2-12.7 0.7-31.9-1.7-40.4-0.8-2.9-3.8-4.9-7.3-4.9z"/>
						<g id="&lt;Group&gt;" style="opacity: .6">
							<path id="&lt;Path&gt;" class="s0" d="m2183.9 1644.6c-7.4 0-12 5-10.4 11.1 1.6 6 9 10.9 16.3 10.8l389.8-5.6c7.4-0.1 13.3-3.9 13.2-8.4-0.2-4.6-6.3-8.3-13.6-8.3z"/>
						</g>
						<path id="&lt;Compound Path&gt;" fill-rule="evenodd" class="s0" d="m2135.7 1779.9q0 0-0.1 0l-44.3-0.2c-7.1-0.1-13.1-5-13.8-11.6l-4-37.1c-0.3-2.7 0.5-5.3 2.2-7.4 1.9-2.2 4.8-3.7 7.9-3.9 3.8-0.3 8.9-0.7 14.6-1.2 12.3-1.1 26.3-2.4 34.6-2.5 6.7-0.1 12.4 3.9 14 9.8 2.4 8.8 2.3 25 1.9 42.4-0.1 6.5-5.9 11.7-13 11.7zm-2.7-57.2q0 0-0.1 0c-8 0.1-22.5 1.4-34.1 2.4-5.7 0.5-10.9 1-14.7 1.3-1.3 0-2.5 0.6-3.3 1.5-0.4 0.5-0.8 1.3-0.7 2.3l4 37.2c0.4 3.2 3.5 5.6 7.3 5.6l44.3 0.2c3.5 0 6.3-2.3 6.3-5.2 0.3-12.7 0.7-31.9-1.6-40.4-0.8-2.9-3.9-4.9-7.4-4.9z"/>
						<g id="&lt;Group&gt;" style="opacity: .6">
							<path id="&lt;Path&gt;" class="s0" d="m2184.3 1739.6c-7.4 0-12.1 5-10.4 11 1.6 6.1 8.9 11 16.3 10.9l389.8-5.6c7.3-0.1 13.2-3.9 13.1-8.4-0.1-4.6-6.2-8.3-13.6-8.3z"/>
						</g>
					</g>
					<g id="&lt;Group&gt;">
						<path id="&lt;Compound Path&gt;" fill-rule="evenodd" class="s0" d="m1510.8 1969.3l-44.4-0.3c-7.1 0-13.1-5-13.8-11.5l-4-37.2c-0.3-2.6 0.5-5.2 2.2-7.3 1.9-2.3 4.8-3.7 7.9-3.9 3.8-0.3 8.9-0.8 14.5-1.3 12.4-1.1 26.4-2.3 34.7-2.5 6.7 0 12.4 4 14 9.9 2.4 8.7 2.3 25 1.9 42.4-0.1 6.4-5.9 11.7-13 11.7zm-2.7-57.3q0 0-0.1 0c-8 0.2-22.5 1.4-34.2 2.5-5.7 0.5-10.8 1-14.6 1.2-1.3 0.1-2.5 0.7-3.2 1.6-0.4 0.5-0.9 1.3-0.8 2.3l4.1 37.2c0.3 3.1 3.4 5.5 7.2 5.6l44.3 0.2c3.5 0 6.3-2.3 6.4-5.2 0.2-12.7 0.6-31.9-1.7-40.4-0.8-2.9-3.9-5-7.4-5z"/>
						<g id="&lt;Group&gt;" style="opacity: .6">
							<path id="&lt;Path&gt;" class="s0" d="m1559.4 1928.9c-7.4 0-12.1 5-10.4 11.1 1.6 6.1 8.9 11 16.3 10.9l389.8-5.6c7.3-0.1 13.3-3.9 13.1-8.5-0.1-4.5-6.2-8.2-13.5-8.2z"/>
						</g>
						<path id="&lt;Compound Path&gt;" fill-rule="evenodd" class="s0" d="m1511.2 2064.3q0 0-0.1 0l-44.3-0.3c-7.2 0-13.1-5-13.8-11.5l-4.1-37.2c-0.2-2.6 0.6-5.2 2.3-7.3 1.9-2.3 4.8-3.7 7.9-3.9 3.7-0.3 8.9-0.8 14.5-1.3 12.4-1.1 26.4-2.3 34.7-2.5 6.7-0.1 12.4 4 14 9.9 2.4 8.7 2.3 25 1.9 42.3-0.1 6.5-6 11.8-13 11.8zm-51.6-53.6c-1.3 0.1-2.5 0.7-3.3 1.6-0.4 0.5-0.8 1.3-0.7 2.3l4 37.2c0.4 3.1 3.5 5.5 7.2 5.6l44.4 0.2c3.4 0 6.3-2.3 6.3-5.2 0.3-12.7 0.7-31.9-1.6-40.5-0.8-2.9-3.9-5-7.5-4.9-8.1 0.1-22.5 1.4-34.2 2.5-5.7 0.5-10.9 0.9-14.6 1.2z"/>
						<g id="&lt;Group&gt;" style="opacity: .6">
							<path id="&lt;Path&gt;" class="s0" d="m1559.7 2023.9c-7.3 0-12 5-10.4 11.1 1.7 6.1 9 11 16.4 10.9l389.8-5.6c7.3-0.1 13.2-3.9 13.1-8.5-0.1-4.5-6.2-8.2-13.6-8.2z"/>
						</g>
						<path id="&lt;Compound Path&gt;" fill-rule="evenodd" class="s0" d="m1511.6 2159.3q-0.1 0-0.1 0l-44.3-0.3c-7.2 0-13.1-5-13.8-11.5l-4.1-37.2c-0.3-2.6 0.5-5.2 2.3-7.3 1.9-2.3 4.8-3.7 7.9-4 3.7-0.2 8.8-0.7 14.5-1.2 12.4-1.1 26.4-2.3 34.6-2.5 6.6-0.1 12.5 4 14.1 9.9 2.4 8.7 2.3 25 1.9 42.3-0.2 6.5-6 11.8-13 11.8zm-2.7-57.3q-0.1 0-0.2 0c-8 0.1-22.5 1.4-34.1 2.5-5.7 0.5-10.9 0.9-14.6 1.2-1.4 0.1-2.5 0.7-3.3 1.6-0.4 0.5-0.9 1.3-0.7 2.3l4 37.2c0.3 3.1 3.5 5.5 7.2 5.6l44.3 0.2q0.1 0 0.1 0c3.4 0 6.2-2.3 6.3-5.2 0.3-12.7 0.7-31.9-1.7-40.5-0.7-2.8-3.8-4.9-7.3-4.9z"/>
						<g id="&lt;Group&gt;" style="opacity: .6">
							<path id="&lt;Path&gt;" class="s0" d="m1560.1 2118.9c-7.3 0-12 5-10.4 11.1 1.6 6.1 9 11 16.3 10.9l389.8-5.6c7.4-0.1 13.3-3.9 13.2-8.5-0.1-4.5-6.2-8.2-13.6-8.2z"/>
						</g>
						<path id="&lt;Compound Path&gt;" fill-rule="evenodd" class="s0" d="m1512 2254.3q-0.1 0-0.1 0l-44.4-0.3c-7.1 0-13.1-5-13.8-11.5l-4-37.2c-0.3-2.6 0.5-5.2 2.2-7.3 2-2.3 4.8-3.7 8-4 3.7-0.2 8.8-0.7 14.5-1.2 12.3-1.1 26.3-2.3 34.6-2.5 6.6-0.1 12.4 4 14.1 9.9 2.4 8.7 2.2 25 1.8 42.3-0.1 6.5-5.9 11.8-12.9 11.8zm-2.7-57.3q-0.1 0-0.2 0c-8 0.1-22.5 1.4-34.1 2.5-5.7 0.5-10.9 0.9-14.7 1.2-1.3 0.1-2.5 0.7-3.2 1.6-0.4 0.5-0.9 1.3-0.8 2.3l4.1 37.2c0.3 3.1 3.4 5.5 7.2 5.5l44.3 0.3q0 0 0.1 0c3.4 0 6.2-2.3 6.3-5.2 0.2-12.7 0.7-31.9-1.7-40.5-0.8-2.8-3.9-4.9-7.3-4.9z"/>
						<g id="&lt;Group&gt;" style="opacity: .6">
							<path id="&lt;Path&gt;" class="s0" d="m1560.5 2213.9c-7.4 0-12 5-10.4 11.1 1.6 6.1 9 11 16.3 10.9l389.8-5.6c7.4-0.1 13.3-3.9 13.2-8.5-0.2-4.5-6.3-8.3-13.6-8.2z"/>
						</g>
					</g>
					<g id="&lt;Group&gt;">
						<path id="&lt;Compound Path&gt;" fill-rule="evenodd" class="s0" d="m2151 1956.1q-0.1 0-0.1 0l-44.3-0.3c-7.2 0-13.1-5-13.8-11.5l-4.1-37.2c-0.3-2.6 0.5-5.2 2.3-7.3 1.9-2.3 4.8-3.7 7.9-3.9 3.7-0.3 8.8-0.8 14.5-1.3 12.4-1.1 26.4-2.3 34.6-2.5 6.6-0.2 12.5 4 14.1 9.9 2.4 8.7 2.2 25 1.9 42.3-0.2 6.5-6 11.8-13 11.8zm-2.7-57.3q-0.1 0-0.2 0c-8 0.2-22.5 1.4-34.1 2.5-5.7 0.5-10.9 0.9-14.6 1.2-1.4 0.1-2.5 0.7-3.3 1.6-0.4 0.5-0.9 1.3-0.7 2.3l4 37.2c0.3 3.1 3.4 5.5 7.2 5.6l44.3 0.2c3.4 0 6.3-2.3 6.4-5.2 0.3-12.7 0.7-31.9-1.7-40.5-0.7-2.8-3.8-4.9-7.3-4.9z"/>
						<g id="&lt;Group&gt;" style="opacity: .6">
							<path id="&lt;Path&gt;" class="s0" d="m2199.5 1915.7c-7.3 0-12 5-10.4 11.1 1.6 6.1 9 11 16.3 10.9l389.8-5.6c7.4-0.1 13.3-3.9 13.2-8.5-0.1-4.5-6.3-8.2-13.6-8.2z"/>
						</g>
						<path id="&lt;Compound Path&gt;" fill-rule="evenodd" class="s0" d="m2151.3 2051.1l-44.4-0.3c-7.1 0-13.1-5-13.8-11.5l-4-37.2c-0.3-2.6 0.5-5.2 2.2-7.3 1.9-2.3 4.8-3.7 7.9-4 3.8-0.2 8.9-0.7 14.5-1.2 12.4-1.1 26.4-2.3 34.7-2.5 6.7 0 12.4 4 14.1 9.9 2.4 8.7 2.2 25 1.8 42.3-0.1 6.5-5.9 11.8-13 11.8zm-2.6-57.3q-0.1 0-0.2 0c-8 0.1-22.5 1.4-34.2 2.5-5.7 0.5-10.8 0.9-14.6 1.2-1.3 0.1-2.5 0.7-3.2 1.6-0.4 0.5-0.9 1.3-0.8 2.3l4.1 37.2c0.3 3.1 3.4 5.5 7.2 5.6l44.3 0.2c3.5 0 6.3-2.3 6.4-5.2 0.2-12.7 0.7-31.9-1.7-40.5-0.8-2.8-3.9-4.9-7.3-4.9z"/>
						<g id="&lt;Group&gt;" style="opacity: .6">
							<path id="&lt;Path&gt;" class="s0" d="m2199.9 2010.7c-7.4 0-12.1 5-10.4 11.1 1.6 6.1 9 11 16.3 10.9l389.8-5.6c7.3-0.1 13.3-3.9 13.1-8.5-0.1-4.5-6.2-8.2-13.5-8.2z"/>
						</g>
						<path id="&lt;Compound Path&gt;" fill-rule="evenodd" class="s0" d="m2151.7 2146.1q0 0-0.1 0l-44.3-0.3c-7.2 0-13.1-5-13.8-11.5l-4-37.2c-0.3-2.6 0.5-5.2 2.2-7.3 1.9-2.3 4.8-3.7 7.9-4 3.7-0.2 8.9-0.7 14.5-1.2 12.4-1.1 26.4-2.3 34.7-2.5 6.7-0.1 12.4 4 14 9.9 2.4 8.7 2.3 25 1.9 42.3-0.1 6.5-6 11.8-13 11.8zm-51.6-53.6c-1.3 0.1-2.5 0.7-3.3 1.6-0.4 0.5-0.8 1.3-0.7 2.3l4 37.2c0.4 3.1 3.5 5.5 7.2 5.5l44.4 0.3c3.4 0 6.3-2.3 6.3-5.2 0.3-12.7 0.7-31.9-1.6-40.5-0.8-2.9-3.8-5-7.5-4.9-8 0.1-22.5 1.4-34.2 2.5-5.7 0.5-10.8 0.9-14.6 1.2z"/>
						<g id="&lt;Group&gt;" style="opacity: .6">
							<path id="&lt;Path&gt;" class="s0" d="m2200.2 2105.7c-7.3 0-12 5-10.4 11.1 1.7 6.1 9 11 16.4 10.9l389.8-5.6c7.3-0.1 13.2-3.9 13.1-8.5-0.1-4.5-6.2-8.3-13.6-8.2z"/>
						</g>
						<path id="&lt;Compound Path&gt;" fill-rule="evenodd" class="s0" d="m2152.1 2241.1q-0.1 0-0.1 0l-44.3-0.3c-7.2 0-13.1-5-13.8-11.5l-4.1-37.2c-0.3-2.6 0.5-5.2 2.3-7.3 1.9-2.3 4.8-3.7 7.9-4 3.7-0.2 8.9-0.7 14.5-1.2 12.4-1.1 26.4-2.3 34.6-2.5 6.7-0.1 12.5 4 14.1 9.9 2.4 8.7 2.3 25 1.9 42.3-0.2 6.5-6 11.8-13 11.8zm-51.6-53.6c-1.3 0.1-2.5 0.7-3.3 1.6-0.4 0.5-0.8 1.2-0.7 2.3l4 37.2c0.3 3.1 3.5 5.5 7.2 5.5l44.3 0.3q0.1 0 0.1 0c3.4 0 6.2-2.3 6.3-5.2 0.3-12.7 0.7-31.9-1.6-40.5-0.8-2.9-3.9-5-7.5-4.9-8.1 0.1-22.6 1.4-34.2 2.5-5.7 0.5-10.9 0.9-14.6 1.2z"/>
						<g id="&lt;Group&gt;" style="opacity: .6">
							<path id="&lt;Path&gt;" class="s0" d="m2200.6 2200.7c-7.3 0-12 5-10.4 11.1 1.6 6.1 9 11 16.3 10.9l389.8-5.6c7.4-0.1 13.3-4 13.2-8.5-0.1-4.5-6.2-8.3-13.6-8.3z"/>
						</g>
					</g>
					<g id="&lt;Group&gt;">
						<path id="&lt;Compound Path&gt;" fill-rule="evenodd" class="s0" d="m1527.2 2430.4q0 0-0.1 0l-44.3-0.2c-7.2 0-13.1-5-13.8-11.6l-4.1-37.1c-0.3-2.7 0.5-5.3 2.3-7.3 1.9-2.3 4.8-3.8 7.9-4 3.7-0.3 8.9-0.7 14.5-1.2 12.4-1.1 26.4-2.4 34.7-2.5 6.6-0.2 12.4 3.9 14 9.8 2.4 8.8 2.3 25.1 1.9 42.4-0.1 6.5-6 11.7-13 11.7zm-2.7-57.2q-0.1 0-0.1 0c-8.1 0.1-22.5 1.4-34.2 2.4-5.7 0.5-10.9 1-14.6 1.3-1.3 0.1-2.5 0.6-3.3 1.5-0.4 0.5-0.8 1.3-0.7 2.4l4 37.1c0.4 3.2 3.5 5.6 7.2 5.6l44.4 0.3c3.4 0 6.3-2.4 6.3-5.2 0.3-12.8 0.7-32-1.6-40.5-0.8-2.9-3.9-4.9-7.4-4.9z"/>
						<g id="&lt;Group&gt;" style="opacity: .6">
							<path id="&lt;Path&gt;" class="s0" d="m1575.7 2390.1c-7.3 0-12 5-10.4 11.1 1.7 6 9 10.9 16.4 10.8l389.8-5.6c7.3-0.1 13.2-3.9 13.1-8.4-0.1-4.6-6.2-8.3-13.6-8.3z"/>
						</g>
						<path id="&lt;Compound Path&gt;" fill-rule="evenodd" class="s0" d="m1527.6 2525.4q-0.1 0-0.1 0l-44.3-0.2c-7.2-0.1-13.1-5-13.9-11.6l-4-37.1c-0.3-2.7 0.5-5.3 2.3-7.3 1.9-2.3 4.8-3.8 7.9-4 3.7-0.3 8.8-0.7 14.5-1.2 12.4-1.1 26.4-2.4 34.6-2.5 6.7-0.1 12.5 3.9 14.1 9.8 2.4 8.8 2.2 25 1.9 42.4-0.2 6.5-6 11.7-13 11.7zm-2.7-57.2q-0.1 0-0.2 0c-8 0.1-22.5 1.4-34.1 2.4-5.7 0.5-10.9 1-14.6 1.3-1.4 0.1-2.6 0.6-3.3 1.5-0.4 0.5-0.9 1.3-0.8 2.3l4.1 37.2c0.3 3.2 3.4 5.6 7.2 5.6l44.3 0.3q0.1 0 0.1 0c3.4 0 6.2-2.4 6.3-5.3 0.3-12.7 0.7-31.9-1.7-40.4-0.8-2.9-3.8-4.9-7.3-4.9z"/>
						<g id="&lt;Group&gt;" style="opacity: .6">
							<path id="&lt;Path&gt;" class="s0" d="m1576.1 2485.1c-7.3 0-12 5-10.4 11.1 1.6 6 9 10.9 16.3 10.8l389.8-5.6c7.4-0.1 13.3-3.9 13.2-8.4-0.1-4.6-6.3-8.3-13.6-8.3z"/>
						</g>
						<path id="&lt;Compound Path&gt;" fill-rule="evenodd" class="s0" d="m1527.9 2620.4l-44.4-0.2c-7.1-0.1-13.1-5-13.8-11.6l-4-37.1c-0.3-2.7 0.5-5.3 2.2-7.3 1.9-2.3 4.8-3.8 7.9-4 3.8-0.3 8.9-0.7 14.6-1.2 12.3-1.1 26.3-2.4 34.6-2.5 6.5-0.2 12.4 3.9 14.1 9.8 2.4 8.8 2.2 25 1.8 42.4-0.1 6.5-5.9 11.7-13 11.7zm-51.6-53.5c-1.3 0.1-2.5 0.6-3.2 1.5-0.4 0.5-0.9 1.3-0.8 2.3l4.1 37.2c0.3 3.2 3.4 5.6 7.2 5.6l44.3 0.3c3.5-0.1 6.3-2.4 6.4-5.3 0.2-12.7 0.7-31.9-1.7-40.4-0.8-2.9-3.9-4.9-7.3-4.9q-0.1 0-0.2 0c-8 0.1-22.5 1.4-34.1 2.4-5.7 0.5-10.9 1-14.7 1.3z"/>
						<g id="&lt;Group&gt;" style="opacity: .6">
							<path id="&lt;Path&gt;" class="s0" d="m1576.5 2580.1c-7.4 0-12.1 5-10.4 11.1 1.6 6 9 10.9 16.3 10.8l389.8-5.6c7.3-0.1 13.3-3.9 13.1-8.4-0.1-4.6-6.2-8.3-13.5-8.3z"/>
						</g>
						<path id="&lt;Compound Path&gt;" fill-rule="evenodd" class="s0" d="m1528.3 2715.4q0 0-0.1 0l-44.3-0.2c-7.2-0.1-13.1-5-13.8-11.6l-4.1-37.1c-0.2-2.7 0.6-5.3 2.3-7.4 1.9-2.2 4.8-3.7 7.9-3.9 3.7-0.3 8.9-0.7 14.5-1.2 12.4-1.1 26.4-2.4 34.7-2.5 6.6-0.1 12.4 3.9 14 9.8 2.4 8.7 2.3 25 1.9 42.4-0.1 6.5-6 11.7-13 11.7zm-51.6-53.5c-1.3 0-2.5 0.6-3.3 1.5-0.4 0.5-0.8 1.3-0.7 2.3l4 37.2c0.4 3.2 3.5 5.6 7.2 5.6l44.4 0.2c3.4 0 6.3-2.3 6.3-5.2 0.3-12.7 0.7-31.9-1.6-40.4-0.8-2.9-3.9-4.9-7.4-4.9q0-0.1-0.1 0c-8 0.1-22.5 1.4-34.2 2.4-5.7 0.5-10.8 1-14.6 1.3z"/>
						<g id="&lt;Group&gt;" style="opacity: .6">
							<path id="&lt;Path&gt;" class="s0" d="m1576.8 2675.1c-7.3 0-12 5-10.4 11 1.7 6.1 9 11 16.4 10.9l389.8-5.6c7.3-0.1 13.2-3.9 13.1-8.4-0.1-4.6-6.2-8.3-13.6-8.3z"/>
						</g>
					</g>
					<g id="&lt;Group&gt;">
						<path id="&lt;Compound Path&gt;" fill-rule="evenodd" class="s0" d="m2167.3 2417.2l-44.4-0.2c-7.1 0-13.1-5-13.8-11.6l-4-37.1c-0.3-2.7 0.5-5.3 2.2-7.3 1.9-2.3 4.8-3.8 7.9-4 3.8-0.3 8.9-0.7 14.6-1.2 12.3-1.1 26.3-2.4 34.6-2.5 6.7-0.2 12.4 3.9 14 9.8 2.4 8.8 2.3 25.1 1.9 42.4-0.1 6.5-5.9 11.7-13 11.7zm-51.6-53.5c-1.3 0.1-2.5 0.6-3.2 1.5-0.4 0.5-0.9 1.3-0.8 2.3l4.1 37.2c0.3 3.2 3.4 5.6 7.2 5.6l44.3 0.3c3.5 0 6.3-2.4 6.4-5.2 0.2-12.8 0.6-32-1.7-40.5-0.8-2.9-3.8-5-7.5-4.9-8 0.1-22.5 1.4-34.2 2.4-5.6 0.5-10.8 1-14.6 1.3z"/>
						<g id="&lt;Group&gt;" style="opacity: .6">
							<path id="&lt;Path&gt;" class="s0" d="m2215.9 2376.9c-7.4 0-12.1 5-10.4 11.1 1.6 6 8.9 10.9 16.3 10.8l389.8-5.6c7.3-0.1 13.3-3.9 13.1-8.4-0.1-4.6-6.2-8.3-13.5-8.3z"/>
						</g>
						<path id="&lt;Compound Path&gt;" fill-rule="evenodd" class="s0" d="m2167.7 2512.2q0 0-0.1 0l-44.3-0.2c-7.2-0.1-13.1-5-13.8-11.6l-4.1-37.1c-0.2-2.7 0.6-5.3 2.3-7.4 1.9-2.2 4.8-3.7 7.9-3.9 3.7-0.3 8.9-0.7 14.5-1.2 12.4-1.1 26.4-2.4 34.7-2.5 6.6-0.1 12.4 3.9 14 9.8 2.4 8.8 2.3 25 1.9 42.4-0.1 6.5-6 11.7-13 11.7zm-2.7-57.2q-0.1 0-0.1 0c-8.1 0.1-22.5 1.4-34.2 2.4-5.7 0.5-10.9 1-14.6 1.3-1.3 0.1-2.5 0.6-3.3 1.5-0.4 0.5-0.8 1.3-0.7 2.3l4 37.2c0.4 3.2 3.5 5.6 7.2 5.6l44.4 0.3c3.5 0 6.3-2.4 6.3-5.3 0.3-12.7 0.7-31.9-1.6-40.4-0.8-2.9-3.9-4.9-7.4-4.9z"/>
						<g id="&lt;Group&gt;" style="opacity: .6">
							<path id="&lt;Path&gt;" class="s0" d="m2216.2 2471.9c-7.3 0-12 5-10.4 11.1 1.7 6 9 10.9 16.4 10.8l389.8-5.6c7.3-0.1 13.2-3.9 13.1-8.4-0.1-4.6-6.2-8.3-13.6-8.3z"/>
						</g>
						<path id="&lt;Compound Path&gt;" fill-rule="evenodd" class="s0" d="m2168.1 2607.2q-0.1 0-0.1 0l-44.3-0.2c-7.2-0.1-13.1-5-13.8-11.6l-4.1-37.1c-0.3-2.7 0.5-5.3 2.3-7.4 1.9-2.2 4.8-3.7 7.9-3.9 3.7-0.3 8.9-0.7 14.5-1.2 12.4-1.1 26.4-2.4 34.6-2.5 6.7-0.1 12.5 3.9 14.1 9.8 2.4 8.8 2.3 25 1.9 42.4-0.2 6.5-6 11.7-13 11.7zm-51.6-53.5c-1.4 0-2.5 0.6-3.3 1.5-0.4 0.5-0.9 1.3-0.7 2.3l4 37.2c0.3 3.2 3.4 5.6 7.2 5.6l44.3 0.2q0.1 0 0.1 0c3.4 0 6.2-2.3 6.3-5.2 0.3-12.7 0.7-31.9-1.7-40.4-0.8-2.9-3.8-5.1-7.5-4.9-8 0.1-22.5 1.4-34.1 2.4-5.7 0.5-10.9 1-14.6 1.3z"/>
						<g id="&lt;Group&gt;" style="opacity: .6">
							<path id="&lt;Path&gt;" class="s0" d="m2216.6 2566.9c-7.3 0-12 5-10.4 11 1.6 6.1 9 11 16.3 10.9l389.8-5.6c7.4-0.1 13.3-3.9 13.2-8.4-0.1-4.6-6.2-8.3-13.6-8.3z"/>
						</g>
						<path id="&lt;Compound Path&gt;" fill-rule="evenodd" class="s0" d="m2168.4 2702.2l-44.4-0.2c-7.1-0.1-13.1-5-13.8-11.6l-4-37.1c-0.3-2.7 0.5-5.3 2.2-7.4 2-2.3 4.8-3.7 8-3.9 3.7-0.3 8.8-0.7 14.4-1.2 12.4-1.1 26.4-2.4 34.7-2.5 6.6-0.1 12.4 3.9 14.1 9.8 2.4 8.7 2.2 25 1.9 42.4-0.2 6.5-6 11.7-13.1 11.7zm-2.6-57.3q-0.1 0-0.2 0c-8 0.2-22.5 1.5-34.2 2.5-5.7 0.5-10.8 1-14.6 1.2-1.3 0.1-2.5 0.7-3.2 1.6-0.4 0.5-0.9 1.3-0.8 2.3l4.1 37.2c0.3 3.2 3.4 5.6 7.2 5.6l44.3 0.2c3.3 0 6.3-2.3 6.4-5.2 0.2-12.7 0.7-31.9-1.7-40.4-0.8-2.9-3.9-5-7.3-5z"/>
						<g id="&lt;Group&gt;" style="opacity: .6">
							<path id="&lt;Path&gt;" class="s0" d="m2217 2661.9c-7.4 0-12 5-10.4 11 1.6 6.1 9 11 16.3 10.9l389.8-5.6c7.4-0.1 13.3-3.9 13.2-8.5-0.2-4.5-6.3-8.2-13.6-8.2z"/>
						</g>
					</g>
				</g>
				<path id="&lt;Compound Path&gt;" fill-rule="evenodd" class="s13" d="m2075.5 697.6l-157.4-13.3-13.8-144.3c-2.8-29.1 15.2-56.1 43.2-64.5 30.6-9.2 74.2-10 124.4 24.6 98.5 68 3.6 197.5 3.6 197.5zm-33.3-120.1c0-21.7-17.7-39.2-39.3-39.1-21.7 0.1-39.2 17.7-39.1 39.4 0.1 21.6 17.7 39.1 39.4 39 21.6 0 39.1-17.7 39-39.3z"/>
				<path id="&lt;Compound Path&gt;" class="s0" d="m1933.6 623c-1.7 0-3.2-1.3-3.4-3l-2.2-23c-0.1-1.8 1.2-3.4 3-3.6 1.9-0.2 3.5 1.2 3.7 3l2.2 23c0.2 1.8-1.2 3.4-3 3.6q-0.2 0-0.3 0zm-4.3-45c-1.8 0-3.2-1.3-3.4-3l-1.6-17.5c-2.7-27.4 14.5-53 40.8-60.9 18.7-5.6 37.9-6.5 57.3-2.6 1.8 0.4 3 2.1 2.6 3.9-0.4 1.9-2.1 3-3.9 2.7-18.3-3.7-36.5-2.9-54.1 2.4-23.2 7-38.4 29.6-36.1 53.9l1.7 17.4c0.2 1.9-1.2 3.5-3 3.7q-0.2 0-0.3 0z"/>
				<path id="&lt;Path&gt;" class="s14" d="m1703.7 778.4l-0.3-72.6c-0.1-25 20.6-45.2 45.6-44.4l500.4 15.2c22.2 0.6 40.3 18.1 41.7 40.3l4.4 69.7z"/>
				<path id="&lt;Path&gt;" class="s0" d="m1868.4 687.8c-1.9 0-3.4-1.5-3.4-3.3 0-1.9 1.5-3.4 3.4-3.4l21.5-0.1c1.8 0 3.3 1.5 3.3 3.4 0 1.8-1.5 3.3-3.3 3.3l-21.5 0.1z"/>
				<path id="&lt;Path&gt;" class="s0" d="m1730.7 755c-1.9 0-3.4-1.5-3.4-3.3l-0.1-29.4c0-10.8 4.2-21 11.8-28.8 7.7-7.7 17.9-11.9 28.7-12l79.1-0.3c1.9 0 3.4 1.5 3.4 3.3 0 1.9-1.5 3.4-3.3 3.4l-79.1 0.3c-9.1 0-17.6 3.6-24 10-6.4 6.5-9.9 15-9.9 24.1l0.1 29.4c0 1.8-1.5 3.3-3.3 3.3z"/>
				<path id="&lt;Path&gt;" class="s15" d="m1546.8 752.4l874.9-3.4c31.5-0.1 58.5 22.4 64 53.4l0.7 4.3c6 33.9-20 65-54.5 65.2l-897.6 3.5c-20.6 0.1-37.1-17.1-36.2-37.7l1.8-40.2c1.1-25.1 21.8-45 46.9-45.1z"/>
				<path id="&lt;Path&gt;" class="s12" d="m2580.2 1154.7h-1132.7c-6.6 0-12-5.4-12-12v-168.4c0-6.6 5.4-12 12-12h1132.7c6.6 0 12 5.4 12 12v168.4c0 6.6-5.4 12-12 12z"/>
			</g>
			<g id="&lt;Group&gt;">
				<path id="&lt;Path&gt;" class="s16" d="m686.3 2380.5c0 0-39 217.2 230.9 229.4 302.1 13.7 847-612.8 1043.7-857.3 297.9-370.1 592.5-598.3 850.7-595.7 258.2 2.7 307 265.6 228.9 401.6 0 0 5.4-253.1-153.7-222.4-159.2 30.8-391 204.5-925.9 798.4-308.8 342.9-685.4 618.1-1023.6 600.5-326.8-17-350.5-229.4-251-354.5z"/>
				<g id="Clip-Path: &lt;Clip Group&gt;" clip-path="url(#cp1)">
					<g id="&lt;Clip Group&gt;">
						<g id="&lt;Group&gt;" style="opacity: .29">
							<path id="&lt;Path&gt;" class="s0" d="m2703.8 1316.3c-1.3 0-2.6-0.6-3.4-1.9l-109-174c-1.2-2-0.7-4.5 1.1-5.8 1.9-1.2 4.3-0.7 5.5 1.2l109.1 174.1c1.2 1.9 0.7 4.5-1.2 5.7-0.6 0.5-1.4 0.7-2.1 0.7z"/>
							<path id="&lt;Path&gt;" class="s0" d="m2508.9 1439.3c-1.3 0-2.5-0.6-3.3-1.8l-109-170.7c-1.2-1.9-0.7-4.4 1.1-5.7 1.8-1.3 4.3-0.8 5.5 1.2l109 170.6c1.2 1.9 0.7 4.4-1.1 5.7-0.7 0.5-1.4 0.7-2.2 0.7z"/>
							<path id="&lt;Path&gt;" class="s0" d="m2349.5 1551.9c-1.1 0-2.3-0.6-3.1-1.6l-106.3-142.1c-1.3-1.8-1-4.4 0.7-5.8 1.7-1.4 4.2-1.1 5.6 0.7l106.3 142.1c1.3 1.8 1 4.4-0.7 5.8-0.7 0.6-1.6 0.9-2.5 0.9z"/>
							<path id="&lt;Path&gt;" class="s0" d="m2220.6 1671.5c-0.9 0-1.8-0.3-2.6-1l-118.5-109.4c-1.6-1.5-1.8-4.1-0.3-5.8 1.4-1.7 3.9-1.9 5.6-0.4l118.5 109.4c1.6 1.5 1.8 4.1 0.3 5.8-0.8 1-1.9 1.4-3 1.4z"/>
							<path id="&lt;Path&gt;" class="s0" d="m2807.8 1280.8c-1.9 0-3.6-1.4-3.9-3.5-0.3-1.6-24.8-160.3-26.5-168.7-0.5-2.3 0.9-4.5 3-4.9 2.2-0.5 4.3 0.9 4.8 3.1 1.7 8.7 25.5 162.7 26.5 169.2 0.4 2.3-1.1 4.4-3.3 4.8q-0.3 0-0.6 0z"/>
							<path id="&lt;Path&gt;" class="s0" d="m2951 1280.8c-2.2 0-3.9-1.8-3.9-4.1v-138.6c0-2.3 1.7-4.2 3.9-4.2 2.2 0 4 1.9 4 4.2v138.6c0 2.3-1.8 4.1-4 4.1z"/>
							<path id="&lt;Path&gt;" class="s0" d="m2068.2 1856.9c-1 0-2-0.3-2.7-1.1-21.6-20.8-129.3-125.2-132.9-130.8-1.2-1.9-0.7-4.5 1.1-5.8 1.8-1.2 4.2-0.7 5.5 1.1 3.9 5.3 80.9 80.3 131.7 129.5 1.6 1.5 1.7 4.1 0.2 5.8-0.8 0.9-1.9 1.3-2.9 1.3z"/>
							<path id="&lt;Path&gt;" class="s0" d="m1923.5 2025.4c-1 0-2.1-0.4-2.9-1.3l-120.2-133.4c-1.5-1.7-1.5-4.3 0.2-5.9 1.6-1.6 4.1-1.5 5.6 0.2l120.2 133.4c1.5 1.7 1.5 4.3-0.1 5.9-0.8 0.7-1.8 1.1-2.8 1.1z"/>
							<path id="&lt;Path&gt;" class="s0" d="m1763.7 2235.6c-1.2 0-2.4-0.6-3.2-1.6l-124.8-165.8c-1.4-1.8-1.1-4.4 0.6-5.8 1.8-1.5 4.3-1.1 5.6 0.7l124.9 165.8c1.4 1.8 1.1 4.4-0.7 5.8-0.7 0.6-1.6 0.9-2.4 0.9z"/>
							<path id="&lt;Path&gt;" class="s0" d="m1608.7 2382.3c-1.2 0-2.4-0.6-3.2-1.8l-107.9-157.8c-1.3-1.9-0.8-4.5 1-5.8 1.7-1.3 4.2-0.9 5.5 1l107.9 157.8c1.3 1.9 0.8 4.5-1 5.8-0.7 0.5-1.5 0.8-2.3 0.8z"/>
							<path id="&lt;Path&gt;" class="s0" d="m1481.4 2477.5c-1.2 0-2.4-0.6-3.2-1.7l-111.4-157.2c-1.3-1.8-0.9-4.4 0.8-5.8 1.8-1.4 4.3-1 5.6 0.9l111.4 157.1c1.3 1.9 0.9 4.5-0.8 5.8-0.7 0.6-1.6 0.9-2.4 0.9z"/>
							<path id="&lt;Path&gt;" class="s0" d="m1325.3 2582c-1.2 0-2.4-0.6-3.2-1.7l-88.6-124.6c-1.3-1.9-1-4.5 0.8-5.8 1.8-1.4 4.3-1 5.6 0.8l88.6 124.7c1.3 1.8 1 4.4-0.8 5.8-0.7 0.5-1.5 0.8-2.4 0.8z"/>
							<path id="&lt;Path&gt;" class="s0" d="m1182.5 2653.9c-1.3 0-2.6-0.8-3.4-2.1l-65.4-114.5c-1.1-1.9-0.5-4.5 1.4-5.6 1.8-1.2 4.3-0.6 5.4 1.4l65.4 114.5c1.2 2 0.6 4.5-1.3 5.7q-1 0.6-2.1 0.6z"/>
							<path id="&lt;Path&gt;" class="s0" d="m1078.2 2681.5c-1.5 0-2.9-0.8-3.6-2.3l-53-111.2c-1-2.1-0.2-4.6 1.8-5.6 1.9-1 4.3-0.2 5.3 1.9l53.1 111.2c0.9 2.1 0.1 4.6-1.8 5.6q-0.9 0.4-1.8 0.4z"/>
							<path id="&lt;Path&gt;" class="s0" d="m959.7 2699.9c-1.9 0-3.6-1.4-3.9-3.5l-17.7-117.9c-0.4-2.3 1.1-4.4 3.3-4.8 2.2-0.3 4.2 1.2 4.5 3.5l17.7 118c0.4 2.2-1.1 4.3-3.3 4.7q-0.3 0-0.6 0z"/>
							<path id="&lt;Path&gt;" class="s0" d="m867.7 2690.7q-0.3 0-0.6 0c-2.1-0.4-3.6-2.5-3.3-4.7l17.7-120.5c0.3-2.3 2.3-3.8 4.5-3.5 2.2 0.4 3.7 2.5 3.4 4.8l-17.7 120.4c-0.3 2.1-2 3.5-4 3.5z"/>
							<path id="&lt;Path&gt;" class="s0" d="m782.8 2663.1q-0.7 0-1.4-0.3c-2-0.8-3.1-3.2-2.3-5.3l33.6-93.4c0.8-2.2 3.1-3.3 5.1-2.5 2.1 0.8 3.1 3.2 2.4 5.4l-33.6 93.4c-0.6 1.7-2.1 2.7-3.8 2.7z"/>
							<path id="&lt;Path&gt;" class="s0" d="m699.7 2560.4c-0.9 0-1.9-0.4-2.7-1.1-1.6-1.6-1.7-4.2-0.2-5.9l63.7-72.4c1.4-1.6 4-1.8 5.6-0.2 1.6 1.5 1.7 4.2 0.2 5.8l-63.6 72.4c-0.8 0.9-1.9 1.4-3 1.4z"/>
							<path id="&lt;Path&gt;" class="s0" d="m683.4 2455.5c-1.4 0-2.8-0.8-3.5-2.2-1.1-2-0.3-4.5 1.6-5.6 20.9-11.7 61.5-34.5 65.6-37.2 1.9-1.3 4.3-0.7 5.5 1.2 1.2 1.9 0.6 4.5-1.2 5.7-5.4 3.6-63.7 36.2-66.1 37.6q-1 0.5-1.9 0.5z"/>
							<path id="&lt;Path&gt;" class="s0" d="m2841.4 1210.1c-1.3 0-2.5-1-2.6-2.4l-9.3-85.1c-0.2-1.5 0.9-2.9 2.3-3 1.4-0.2 2.8 0.9 2.9 2.4l9.3 85.1c0.2 1.5-0.9 2.8-2.3 3q-0.2 0-0.3 0z"/>
							<path id="&lt;Path&gt;" class="s0" d="m2878.5 1206.6c-1.4 0-2.5-1.2-2.6-2.6l-5.3-81.5c-0.1-1.5 1-2.8 2.4-2.9 1.5-0.1 2.8 1 2.9 2.5l5.3 81.5c0.1 1.5-1 2.8-2.5 3q-0.1 0-0.2 0z"/>
							<path id="&lt;Path&gt;" class="s0" d="m2918.3 1210.1c-1.4 0-2.6-1.2-2.6-2.7v-69.3c0-1.5 1.2-2.8 2.6-2.8 1.5 0 2.7 1.3 2.7 2.8v69.3c0 1.5-1.2 2.7-2.7 2.7z"/>
							<path id="&lt;Compound Path&gt;" class="s0" d="m2773.7 1216.3c-1.1 0-2.2-0.8-2.5-2-20.7-72.9-18.9-76.3-18.3-77.4 0.4-0.7 1.1-1.3 1.8-1.5 1.4-0.4 2.9 0.5 3.2 2 0.2 0.6 0.1 1.3-0.1 1.9 0 5.6 9.4 41.6 18.5 73.5 0.4 1.4-0.4 3-1.8 3.4q-0.4 0.1-0.8 0.1z"/>
							<path id="&lt;Path&gt;" class="s0" d="m2739.3 1227.9c-1.2 0-2.2-0.8-2.6-2l-23.8-80.7c-0.5-1.4 0.3-3 1.7-3.4 1.4-0.5 2.9 0.4 3.3 1.8l23.9 80.7c0.4 1.5-0.4 3-1.8 3.5q-0.4 0.1-0.7 0.1z"/>
							<path id="&lt;Path&gt;" class="s0" d="m2703.8 1237c-0.9 0-1.8-0.4-2.3-1.2l-44.1-71.3c-0.7-1.2-0.4-2.9 0.8-3.8 1.3-0.8 2.9-0.4 3.7 0.9l44.1 71.2c0.8 1.3 0.4 3-0.8 3.8q-0.7 0.4-1.4 0.4z"/>
							<path id="&lt;Path&gt;" class="s0" d="m2619.9 1279.4c-0.9 0-1.8-0.4-2.3-1.3l-46.4-78c-0.8-1.3-0.4-3 0.9-3.8 1.2-0.8 2.8-0.4 3.6 0.9l46.4 78c0.8 1.3 0.4 3-0.8 3.8q-0.7 0.4-1.4 0.4z"/>
							<path id="&lt;Path&gt;" class="s0" d="m2558.9 1304.9c-0.9 0-1.7-0.4-2.2-1.2l-50-77c-0.8-1.3-0.5-3 0.7-3.9 1.2-0.8 2.9-0.5 3.7 0.8l50 77c0.8 1.3 0.5 3-0.7 3.9-0.5 0.3-1 0.4-1.5 0.4z"/>
							<path id="&lt;Path&gt;" class="s0" d="m2508.9 1337.9c-0.8 0-1.7-0.4-2.2-1.2l-54.5-84.3c-0.8-1.3-0.5-3 0.7-3.8 1.3-0.9 2.9-0.5 3.7 0.7l54.5 84.3c0.8 1.3 0.5 3-0.7 3.9-0.5 0.3-1 0.4-1.5 0.4z"/>
							<path id="&lt;Path&gt;" class="s0" d="m2424.9 1393.2c-0.8 0-1.6-0.4-2.2-1.1l-53-78.3c-0.9-1.3-0.6-3 0.6-3.9 1.2-0.9 2.9-0.6 3.7 0.7l53.1 78.3c0.8 1.2 0.5 2.9-0.7 3.8-0.4 0.4-1 0.5-1.5 0.5z"/>
							<path id="&lt;Path&gt;" class="s0" d="m2378.4 1419.6c-0.9 0-1.7-0.5-2.2-1.3l-47.7-74.7c-0.8-1.2-0.5-3 0.8-3.8 1.2-0.9 2.8-0.5 3.6 0.8l47.7 74.7c0.8 1.2 0.5 3-0.7 3.8-0.5 0.3-1 0.5-1.5 0.5z"/>
							<path id="&lt;Path&gt;" class="s0" d="m2341.3 1459.6c-0.8 0-1.6-0.4-2.1-1.1l-54.4-77.4c-0.8-1.3-0.6-3 0.6-3.9 1.2-0.9 2.8-0.6 3.7 0.6l54.4 77.4c0.9 1.2 0.6 2.9-0.6 3.8-0.5 0.4-1 0.6-1.6 0.6z"/>
							<path id="&lt;Path&gt;" class="s0" d="m2264.4 1530.1c-0.8 0-1.5-0.4-2-1l-59.3-76.1c-0.9-1.2-0.8-2.9 0.4-3.9 1.1-0.9 2.8-0.7 3.7 0.4l59.3 76.1c0.9 1.2 0.7 2.9-0.4 3.9-0.5 0.4-1.1 0.6-1.7 0.6z"/>
							<path id="&lt;Path&gt;" class="s0" d="m2220.6 1572.9c-0.6 0-1.2-0.2-1.7-0.6l-71.6-64.7c-1.1-1-1.2-2.7-0.3-3.9 1-1.1 2.6-1.2 3.8-0.2l71.6 64.6c1.1 1 1.2 2.7 0.2 3.9-0.5 0.6-1.2 0.9-2 0.9z"/>
							<path id="&lt;Path&gt;" class="s0" d="m2139.7 1662.8c-0.6 0-1.2-0.2-1.7-0.7l-71.6-65c-1.1-1-1.2-2.7-0.2-3.9 0.9-1.1 2.6-1.2 3.7-0.2l71.6 64.9c1.1 1 1.2 2.8 0.2 3.9-0.5 0.7-1.2 1-2 1z"/>
							<path id="&lt;Path&gt;" class="s0" d="m2114.5 1701.1c-0.5 0-1.1-0.2-1.6-0.5l-78.2-60.8c-1.2-0.9-1.4-2.6-0.5-3.9 0.8-1.2 2.5-1.4 3.7-0.5l78.2 60.7c1.2 1 1.4 2.7 0.6 3.9-0.6 0.7-1.4 1.1-2.2 1.1z"/>
							<path id="&lt;Path&gt;" class="s0" d="m2075.4 1749.7c-0.6 0-1.2-0.2-1.7-0.6l-73.4-66.3c-1.1-1-1.2-2.7-0.3-3.9 1-1.1 2.7-1.2 3.8-0.2l73.3 66.2c1.1 1 1.3 2.7 0.3 3.9-0.5 0.6-1.3 0.9-2 0.9z"/>
							<path id="&lt;Path&gt;" class="s0" d="m1987.2 1841.1c-0.7 0-1.4-0.3-1.9-0.8l-63.6-66.4c-1.1-1-1.1-2.8 0-3.9 1-1.1 2.7-1.1 3.7 0l63.7 66.4c1 1.1 1 2.8 0 3.9-0.5 0.5-1.2 0.8-1.9 0.8z"/>
							<path id="&lt;Path&gt;" class="s0" d="m1955.4 1882.8c-0.8 0-1.5-0.3-2-0.9l-63.7-74.9c-1-1.2-0.9-2.9 0.2-3.9 1.1-1 2.8-0.9 3.8 0.2l63.7 74.9c0.9 1.2 0.8 2.9-0.3 3.9-0.5 0.5-1.1 0.7-1.7 0.7z"/>
							<path id="&lt;Path&gt;" class="s0" d="m1915.9 1925.4c-0.7 0-1.3-0.2-1.8-0.8-24.6-24.3-62.1-61.2-65-63.2-1.2-0.9-1.5-2.6-0.7-3.9 0.8-1.2 2.4-1.6 3.7-0.7 4 2.8 59.3 57.6 65.6 63.8 1.1 1.1 1.1 2.8 0.1 4-0.5 0.5-1.2 0.8-1.9 0.8z"/>
							<path id="&lt;Path&gt;" class="s0" d="m1838.6 2009.7c-0.7 0-1.4-0.3-1.9-0.9-6-6.8-58.6-66.6-61.3-70.9-0.8-1.3-0.4-3 0.8-3.8 1.2-0.8 2.8-0.5 3.7 0.8 1.8 3 37.3 43.6 60.7 70.2 1 1.1 0.9 2.9-0.2 3.9-0.5 0.5-1.1 0.7-1.8 0.7z"/>
							<path id="&lt;Path&gt;" class="s0" d="m1790.9 2059.5c-0.9 0-1.7-0.5-2.2-1.3l-43.8-69.6c-0.8-1.3-0.5-3 0.8-3.9 1.2-0.8 2.8-0.4 3.6 0.8l43.8 69.7c0.8 1.3 0.5 3-0.8 3.8q-0.6 0.5-1.4 0.5z"/>
							<path id="&lt;Path&gt;" class="s0" d="m1763.6 2113.4c-0.7 0-1.4-0.3-1.9-0.9l-70.9-77.4c-1-1.1-0.9-2.8 0.1-3.9 1.1-1 2.8-1 3.8 0.1l70.8 77.4c1 1.1 1 2.9-0.1 3.9-0.5 0.5-1.1 0.8-1.8 0.8z"/>
							<path id="&lt;Path&gt;" class="s0" d="m1680.8 2200.5c-0.8 0-1.6-0.4-2.2-1.2l-54.4-80.2c-0.9-1.2-0.6-2.9 0.6-3.8 1.2-0.9 2.9-0.6 3.7 0.6l54.5 80.2c0.8 1.3 0.5 3-0.7 3.9-0.4 0.3-1 0.5-1.5 0.5z"/>
							<path id="&lt;Path&gt;" class="s0" d="m1638.8 2234.2c-0.8 0-1.7-0.4-2.2-1.2l-53.5-82.9c-0.8-1.3-0.5-3 0.7-3.9 1.2-0.8 2.9-0.5 3.7 0.8l53.5 82.9c0.8 1.3 0.5 3-0.7 3.8-0.5 0.3-1 0.5-1.5 0.5z"/>
							<path id="&lt;Path&gt;" class="s0" d="m1598.6 2270.8c-0.8 0-1.6-0.3-2.1-1l-59.7-78.1c-0.9-1.2-0.7-2.9 0.4-3.9 1.2-0.9 2.8-0.7 3.8 0.5l59.6 78c1 1.2 0.8 3-0.4 3.9-0.5 0.4-1 0.6-1.6 0.6z"/>
							<path id="&lt;Path&gt;" class="s0" d="m1526.9 2336.9c-0.8 0-1.6-0.4-2.1-1.2l-53.1-76.9c-0.8-1.3-0.5-3 0.6-3.9 1.2-0.9 2.9-0.6 3.7 0.6l53.1 77c0.9 1.2 0.6 2.9-0.6 3.8-0.5 0.4-1 0.6-1.6 0.6z"/>
							<path id="&lt;Path&gt;" class="s0" d="m1492.5 2365.9c-0.9 0-1.7-0.4-2.2-1.1l-53-77c-0.9-1.2-0.6-3 0.6-3.9 1.1-0.9 2.8-0.6 3.7 0.7l53 76.9c0.9 1.3 0.6 3-0.6 3.9-0.5 0.4-1 0.5-1.5 0.5z"/>
							<path id="&lt;Path&gt;" class="s0" d="m1465.9 2389.9c-0.8 0-1.6-0.4-2.1-1.1l-51.7-71c-0.9-1.2-0.7-2.9 0.5-3.9 1.2-0.9 2.8-0.7 3.7 0.6l51.7 70.9c0.9 1.2 0.7 3-0.5 3.9-0.4 0.4-1 0.6-1.6 0.6z"/>
							<path id="&lt;Path&gt;" class="s0" d="m1414.2 2442c-0.8 0-1.5-0.4-2-1l-60-76.1c-1-1.2-0.8-2.9 0.3-3.9 1.1-0.9 2.8-0.8 3.7 0.4l60.1 76.1c0.9 1.2 0.7 2.9-0.4 3.9-0.5 0.4-1.1 0.6-1.7 0.6z"/>
							<path id="&lt;Path&gt;" class="s0" d="m1370 2471.5c-0.9 0-1.7-0.4-2.2-1.2l-53.1-81.7c-0.8-1.2-0.5-2.9 0.7-3.8 1.3-0.9 2.9-0.5 3.7 0.7l53.1 81.7c0.8 1.2 0.5 3-0.7 3.8-0.5 0.3-1 0.5-1.5 0.5z"/>
							<path id="&lt;Path&gt;" class="s0" d="m1331.5 2501.4c-0.8 0-1.6-0.4-2.1-1.2l-50.5-70.6c-0.9-1.3-0.7-3 0.5-3.9 1.2-0.9 2.9-0.7 3.7 0.6l50.5 70.6c0.9 1.3 0.6 3-0.5 3.9-0.5 0.4-1.1 0.6-1.6 0.6z"/>
							<path id="&lt;Path&gt;" class="s0" d="m1249.7 2559c-0.8 0-1.7-0.5-2.2-1.3l-51.3-82.9c-0.8-1.3-0.4-3 0.8-3.8 1.2-0.8 2.9-0.5 3.7 0.8l51.3 82.9c0.8 1.3 0.4 3-0.8 3.8q-0.7 0.5-1.5 0.5z"/>
							<path id="&lt;Path&gt;" class="s0" d="m1198.4 2580.6c-0.8 0-1.7-0.4-2.2-1.3l-48.6-79.2c-0.8-1.3-0.5-3 0.8-3.8 1.2-0.9 2.9-0.5 3.6 0.8l48.7 79.2c0.8 1.3 0.4 3-0.8 3.9q-0.7 0.4-1.5 0.4z"/>
							<path id="&lt;Path&gt;" class="s0" d="m1117.1 2617.9c-1 0-1.9-0.5-2.3-1.4l-39-75.6c-0.6-1.3-0.2-3 1.1-3.7 1.3-0.8 2.9-0.3 3.6 1.1l38.9 75.6c0.7 1.3 0.2 3-1.1 3.7q-0.6 0.3-1.2 0.3z"/>
							<path id="&lt;Path&gt;" class="s0" d="m1088.8 2629.8c-0.9 0-1.7-0.5-2.2-1.3l-37.2-61.5c-0.8-1.3-0.4-3 0.8-3.8 1.3-0.8 2.9-0.5 3.7 0.8l37.1 61.5c0.8 1.3 0.5 3-0.8 3.9q-0.7 0.4-1.4 0.4z"/>
							<path id="&lt;Path&gt;" class="s0" d="m1025.1 2652.5c-1.1 0-2.1-0.7-2.5-1.9l-24.7-72.3c-0.5-1.4 0.2-3 1.6-3.5 1.4-0.5 2.9 0.2 3.4 1.7l24.7 72.3c0.5 1.4-0.2 3-1.6 3.5q-0.4 0.2-0.9 0.2z"/>
							<path id="&lt;Path&gt;" class="s0" d="m991.5 2661.7c-1.2 0-2.3-0.8-2.6-2.1l-19.4-81.1c-0.4-1.5 0.5-3 1.9-3.3 1.5-0.4 2.9 0.5 3.3 2l19.4 81.1c0.3 1.4-0.5 2.9-2 3.3q-0.3 0.1-0.6 0.1z"/>
							<path id="&lt;Path&gt;" class="s0" d="m922.6 2661.7c-1.5 0-2.7-1.2-2.7-2.8v-81.1c0-1.5 1.2-2.7 2.7-2.7 1.4 0 2.6 1.2 2.6 2.7v81.1c0 1.6-1.2 2.8-2.6 2.8z"/>
							<path id="&lt;Path&gt;" class="s0" d="m899.4 2661.7c-1.5 0-2.7-1.2-2.7-2.8v-81.5c0-1.5 1.2-2.8 2.7-2.8 1.5 0 2.7 1.3 2.7 2.8v81.5c0 1.6-1.2 2.8-2.7 2.8z"/>
							<path id="&lt;Path&gt;" class="s0" d="m844.7 2652.5q-0.2 0-0.4-0.1c-1.4-0.2-2.4-1.6-2.2-3.1l10.6-71.9c0.3-1.5 1.6-2.5 3.1-2.3 1.4 0.2 2.4 1.7 2.2 3.2l-10.6 71.8c-0.2 1.4-1.4 2.4-2.7 2.4z"/>
							<path id="&lt;Path&gt;" class="s0" d="m816.4 2639.6q-0.3 0-0.7-0.1c-1.4-0.5-2.2-2.1-1.8-3.5 9.1-30.1 17.4-63.9 15.6-68.4-0.9-1.3-0.5-2.9 0.7-3.8 1.2-0.9 2.8-0.5 3.7 0.7 4.4 6.6-9 53.4-14.9 73.1-0.4 1.2-1.4 2-2.6 2z"/>
							<path id="&lt;Path&gt;" class="s0" d="m764.4 2617.9q-0.7 0-1.4-0.4c-1.2-0.8-1.6-2.5-0.8-3.8l35.2-58.9c0.8-1.3 2.4-1.7 3.6-0.9 1.3 0.8 1.7 2.5 0.9 3.8l-35.2 58.9c-0.5 0.9-1.4 1.3-2.3 1.3z"/>
							<path id="&lt;Path&gt;" class="s0" d="m740.4 2580.1q-0.6 0.1-1.3-0.3c-1.2-0.7-1.7-2.4-1-3.7l31.8-61.9c0.7-1.3 2.3-1.8 3.6-1.1 1.3 0.7 1.8 2.4 1.1 3.7l-31.9 61.9c-0.4 0.9-1.4 1.4-2.3 1.4z"/>
							<path id="&lt;Path&gt;" class="s0" d="m699.7 2501.4c-1 0-1.9-0.6-2.4-1.6-0.6-1.4-0.1-3 1.3-3.7l49.5-25.3c1.3-0.6 2.9-0.1 3.5 1.3 0.7 1.4 0.1 3-1.2 3.7l-49.5 25.3q-0.6 0.3-1.2 0.3z"/>
							<path id="&lt;Path&gt;" class="s0" d="m699.7 2469.9c-0.8 0-1.7-0.5-2.2-1.3-0.8-1.2-0.5-3 0.8-3.8l40.6-27.9c1.3-0.8 2.9-0.5 3.7 0.8 0.8 1.3 0.5 3-0.7 3.8l-40.7 27.9c-0.5 0.3-1 0.5-1.5 0.5z"/>
						</g>
					</g>
				</g>
			</g>
			<g id="&lt;Group&gt;">
				<g id="&lt;Group&gt;">
					<g id="&lt;Group&gt;">
						<path id="&lt;Path&gt;" class="s17" d="m755.6 2859c3.2-25.2 7.5-38 10.9-44.5q-3.8-0.4-7.7-0.7c-2.9-0.2-5.4 1.7-5.6 4.3l-12.9 139.1c-0.4 4.4 4.5 7.6 8.8 6 0.3-18.4 1.5-65.1 6.5-104.2z"/>
						<path id="&lt;Path&gt;" class="s18" d="m812.8 2825.1c11 4.3 17.6 15.5 16.1 27.2l-1.5 11.5c-21 60.4-58.3 88.3-76.6 98.9-0.4 0.2-0.8 0.3-1.1 0.4 0.3-18.4 1.5-65.2 6.5-104.2 3.2-25.2 7.5-38 10.9-44.5 19.8 2 35 6.5 45.7 10.7z"/>
					</g>
					<path id="&lt;Path&gt;" class="s19" d="m803.5 2861.7l4.3-21.9c1-5.2 7.3-8.7 14.2-7.9l43.6 4.8-2.1 56.3-50.7-14.9c-6.8-0.7-10.3-11.3-9.3-16.4z"/>
				</g>
				<g id="&lt;Group&gt;">
					<g id="&lt;Group&gt;">
						<path id="&lt;Path&gt;" class="s20" d="m1729.6 3216.8c-23.9 8.8-37.2 10.9-44.6 10.8q1.4 3.6 3 7.2c1.1 2.6 3.9 4 6.3 3l129.5-52.6c4.1-1.7 4.6-7.5 1.3-10.5-16.5 8.1-58.5 28.6-95.5 42.1z"/>
						<path id="&lt;Path&gt;" class="s21" d="m1681.1 3177.7c-1.2-11.7 5.7-22.8 16.8-26.8l10.9-4c63.2-9.2 105.2 11.1 123 22.5 0.4 0.2 0.6 0.5 0.9 0.8-16.4 8.2-58.5 28.6-95.5 42.2-23.9 8.7-37.2 10.8-44.6 10.8-7.2-18.5-10.3-34.1-11.5-45.5z"/>
					</g>
					<path id="&lt;Path&gt;" class="s22" d="m1709.9 3173.1l-21.4 6.3c-5 1.4-11.1-2.6-13.6-9l-15.8-40.9 50.9-24.1 10.2 51.9c2.5 6.4-5.3 14.3-10.3 15.8z"/>
				</g>
				<path id="&lt;Path&gt;" class="s23" d="m1404.3 2699.7c0 0-165.6 275.3-250.3 273.7-84.7-1.5-316.9-69.9-316.9-69.9l12.6-82.2 244.7 15.3 78.5-209.9z"/>
				<path id="&lt;Path&gt;" class="s24" d="m1112 2454.4c0 0-59.3 213.9 95.3 254.1 154.6 40.2 281.6 78.4 281.6 78.4l169.4 374.8 72-17c0 0-38.1-374.8-110.1-457.4-72-82.5-142-139-142-139z"/>
				<path id="&lt;Path&gt;" class="s25" d="m1373.3 2298.8c-4.7-6.8-162.2-152.5-59.8-214.9 102.4-62.4 187.8 187.1 187.8 187.1l159.8 1.8c0 0 17.9-32.2 31.4-24 13.5 8.3 32.5-0.3 41.6 20.8 9 21.1-1.9 42.8-18.8 54-17 11.1-253.7 102.8-342-24.8z"/>
				<path id="&lt;Path&gt;" class="s26" d="m1373 1999.1c0 0 59.8 69.9 66.2 73.1-104.8 12.7-235.3-45.6-235.3-45.6 0 0 85.9-40.2 90.7-96.3 26.3 1.3 73.6 0 73.6 0z"/>
				<path id="&lt;Path&gt;" class="s27" d="m1239.9 2005.1c0 0 163.7 67.3 188.9 57.1 25.2 23.8 109.9 139.2 78.1 177.3-0.6 0.8 26.8 299.8 1.3 328.6-9.6 10.7-35.7-0.2-49.3-0.4-37.7-0.4-74.6-8.9-111.1-17.1-47.2-10.6-94.2-22.7-140.6-37.6-20.2-6.5-40.3-13.5-60.1-21.1-14.7-5.8-36.7-10.6-46.5-23.8-9.7-13.1 2.5-52.3 4.7-68.3 13.2-94.3 32.3-191.9 32.3-287.4 0-69.8 102.3-107.3 102.3-107.3z"/>
				<g id="&lt;Group&gt;">
					<path id="&lt;Path&gt;" class="s28" d="m1285.7 1924.7c-9.1 8.4-19.7 16.1-28 11.3-11.3-6.6-18.8-40.5-19.6-48.2-0.8-7.6-32.1-92-17.5-112.9 8.1-11.6 17.5-13.5 28.5-4.5 1.9-2.2 2.8-5.8 5-7.9 26.6-25.4 59.1-44.5 94.1-55.5q-2 11.7-4.1 23.4c23.8-13 50.3-21 77.3-23.4-12.6 8.3-23.6 18.9-32.4 31.2 15.4-4.6 31.3-9.4 47.3-8.1 17.2 1.4 40.3 11.3 29.5 27.9-11.2 17.3-37.5 34.9-52.7 49.6-36.6 35.4-74.2 69.7-112.8 102.8-3.5 3-8.7 8.8-14.6 14.3z"/>
					<path id="&lt;Path&gt;" class="s29" d="m1420.4 1798.7c0 0 138.2 182.6 7.1 211.2-113.1 24.7-137.8-83.1-137.8-83.1 0 0-15.5-0.3-25.6-22.4-10.1-22.1 1.5-58.2 27.9-52 26.5 6.2 31.6 41.8 31.6 41.8 0 0-6.2-81.9 19-87.2 25.2-5.3 77.8-8.3 77.8-8.3z"/>
				</g>
				<path id="&lt;Path&gt;" class="s30" d="m1065.7 2109.6c7.5-3.1 182.1-125.3 221.1-12.8 39 112.5-221.1 142.9-221.1 142.9l-35.4 154.6c0 0 27.4 24.2 16.6 35.6-10.9 11.4-6.5 31.6-28.9 36-22.4 4.3-41.2-10.9-48.4-29.7-7.3-18.7-46.4-267.8 96.1-326.6z"/>
				<path id="&lt;Path&gt;" class="s31" d="m1684.9 2292.6c2.5-0.4 4.3-1.5 5.6-3.3 3.5-5 1.8-13.7 1.8-13.8-0.1-0.8 0.2-1.6 0.8-2.1 0.6-0.5 1.5-0.6 2.2-0.3 0 0 3.4 1.1 12.5-1.5 0.9-0.3 1.3-0.6 1.3-0.7 0.3-2-5.4-7.7-12.3-12.3-1-0.7-1.3-2-0.6-3 0.7-1 2-1.3 3-0.6 3.6 2.4 15.1 10.6 14.2 16.5-0.2 1.5-1.2 3.4-4.4 4.3-1.9 0.5-3.4 0.9-4.9 1.2-0.5 10-0.5 32.1 4.9 37.5 0.7 0.7 1.3 1 2.2 1 1.2-0.1 2.2 0.8 2.3 2 0 1.2-0.9 2.2-2.1 2.3q-0.2 0-0.4 0c-1.9 0-3.6-0.7-5.1-2.2-7-7.1-6.6-31.5-6.2-40-1 0.1-2 0.1-2.7 0.1 0.3 3.6 0.2 9.7-2.9 14.1-2 2.8-4.9 4.5-8.6 5.1q-0.1 0-0.3 0c-1.1 0-2-0.8-2.2-1.9-0.1-1.2 0.7-2.3 1.9-2.4z"/>
				<path id="&lt;Path&gt;" class="s32" d="m1286.8 2096.8c-29.5-85.1-136.6-35.9-190.2-5.5 20.8 42 38.2 87.3 47.6 133.3 73.1-18.6 167.2-56.9 142.6-127.8z"/>
			</g>
			<g id="&lt;Group&gt;">
				<path id="&lt;Path&gt;" class="s33" d="m2398.6 2265.1c-50 18.6-105 19.1-155.6 2.2-56.3-18.9-147.7-22.9-286.1 39.1-271.5 121.7-261.9 652.6 123.4 732 503.3 103.7 739.4-145.6 782.8-324.9 43.5-179.4-71.5-407.4-294.8-456.1-73.2-16-129.4-7.4-169.7 7.7z"/>
				<path id="&lt;Path&gt;" class="s34" d="m2050.8 2346.3c44.2 2.9 126.6 21.7 51.1 118.4-75.6 96.6-139 256.2-106.7 359.6 32.2 103.5-177.7-24.4-189.6-162-12-137.6 107.8-324.9 245.2-316z"/>
				<path id="&lt;Path&gt;" class="s35" d="m2466.4 2325.5c0 25.2-64.8 45.6-144.8 45.6-80 0-144.9-20.4-144.9-45.6 0-25.1 64.9 0 144.9 0 80 0 144.8-25.1 144.8 0z"/>
				<path id="&lt;Path&gt;" class="s36" d="m2284 2319.3c0 0-46.1-191.3 172.5-313.8 218.5-122.4 213.5-133.5 225.5-68.7 11.9 64.8 77.9 294.4-161.6 393-239.5 98.6-236.4-10.5-236.4-10.5z"/>
				<path id="&lt;Path&gt;" class="s34" d="m2642.6 1943.9c-34.3 55.8-193.5 307.7-333.6 407.3 0 0 166.1 21.4 285.3-90.2 102-95.4 69.7-267.7 58.3-315.5-1.2-4.8-7.5-5.8-10-1.6z"/>
				<path id="&lt;Path&gt;" class="s37" d="m2311.8 2354.7c4.5 31.5 31.2-3.2 18.7-65.6-12.6-62.4-25.4-210.8-115.5-184.9-90.1 26 77.7 117.9 96.8 250.5z"/>
			</g>
			<g id="&lt;Group&gt;">
				<path id="&lt;Path&gt;" class="s38" d="m3041.1 3056.2l-688.6 33.2c-14.5 0.7-26.8-10.5-27.5-24.9l-6-122.8c-0.7-14.4 10.6-26.8 25-27.5l688.6-33.3c14.5-0.7 26.8 10.5 27.5 25l6 122.8c0.7 14.4-10.6 26.8-25 27.5z"/>
				<path id="&lt;Path&gt;" class="s39" d="m3054.6 2927.6l-728 35.2c-3.6 0.2-6.7-2.6-6.9-6.2l-1.4-30.7c-0.2-3.6 2.6-6.7 6.2-6.9l728-35.2c3.6-0.2 6.7 2.6 6.9 6.3l1.5 30.7c0.1 3.6-2.7 6.7-6.3 6.8z"/>
				<g id="&lt;Group&gt;">
					<path id="&lt;Path&gt;" class="s40" d="m2095.3 2847.9l70.5-73.1 96.6-4.7 74.3 66.2 15.5 320.8-70.5 71.7-103.7 5.1-67.1-65.1z"/>
					<path id="&lt;Path&gt;" class="s41" d="m2281.7 3228.8l-19.3-458.7 74.3 66.2 15.5 320.8z"/>
					<path id="&lt;Path&gt;" class="s42" d="m2095.3 2847.9l70.5-73.1 96.6-4.7 74.3 66.2z"/>
					<path id="&lt;Path&gt;" class="s43" d="m2110.9 3168.8l67.1 65.1 103.7-5.1 70.5-71.7z"/>
				</g>
				<g id="&lt;Group&gt;">
					<path id="&lt;Path&gt;" class="s44" d="m3185.5 2791.7l-77.2-66-96.5 4.7-67.6 73 15.5 320.8 77.1 64.6 103.6-5 60.6-71.2z"/>
					<path id="&lt;Path&gt;" class="s41" d="m3036.8 3188.8l-25-458.4-67.6 73 15.5 320.8z"/>
					<path id="&lt;Path&gt;" class="s45" d="m3185.5 2791.7l-77.2-66-96.5 4.7-67.6 73z"/>
					<path id="&lt;Path&gt;" class="s46" d="m3201 3112.6l-60.6 71.2-103.6 5-77.1-64.6z"/>
				</g>
			</g>
		</g>
	</g>
</svg>