<svg version="1.2" xmlns="http://www.w3.org/2000/svg" viewBox="0 0 3006 2000" width="3006" height="2000">
	<title>calculator_4</title>
	<defs>
		<clipPath clipPathUnits="userSpaceOnUse" id="cp1">
			<path d="m515.84 1729.76c-10.88-25.85-439.58-352.4-103.87-736.64 73.41-84.02 141.42-177.37 176.13-284.61 30.87-95.4-14.37-259.57 53.38-331.86 31.19-33.29 74.96-51.42 117.84-66.97 440.69-159.77 933.89-138.78 1363.24 46.46 185.74 80.13 617.39 253.61 620.9 513.99 0.45 33.91-9.85 63.88-22.6 94.7-25.82 62.42-185.95 196.72-284.09 269.04-98.14 72.31-185.95 51.65-67.15 180.78 118.81 129.13 237.11 166.14 123.97 266.06-106.49 94.06-1869.83 111-1869.83 111z"/>
		</clipPath>
		<linearGradient id="g1" x2="1" gradientUnits="userSpaceOnUse" gradientTransform="matrix(82.253,-1124.123,665.737,48.713,-343.656,1469.117)">
			<stop offset="0" stop-color="#074530"/>
			<stop offset=".492" stop-color="#58a289"/>
			<stop offset=".976" stop-color="#a7fee1"/>
			<stop offset=".98" stop-color="#a8ffe2"/>
		</linearGradient>
		<linearGradient id="g2" x2="1" gradientUnits="userSpaceOnUse" gradientTransform="matrix(56.063,310.561,-522.79,94.375,2295.995,1426.285)">
			<stop offset="0" stop-color="#a8ffe2"/>
			<stop offset="1" stop-color="#074530"/>
		</linearGradient>
	</defs>
	<style>
		.s0 { fill: #ffffff } 
		.s1 { fill: #cdf4e7 } 
		.s2 { fill: #074530 } 
		.s3 { fill: #0c7a55 } 
		.s4 { fill: #0e6a4b } 
		.s5 { fill: #49484c } 
		.s6 { fill: url(#g1) } 
		.s7 { fill: #3d3d6b } 
		.s8 { fill: url(#g2) } 
		.s9 { fill: #f8bd8c } 
		.s10 { fill: #05295c } 
		.s11 { fill: #b33b69 } 
		.s12 { fill: #fe6e8d } 
		.s13 { fill: #3d3c3b } 
		.s14 { fill: #0f213b } 
		.s15 { opacity: .77;fill: #0f213b } 
		.s16 { fill: #bc4676 } 
		.s17 { fill: #f7668b } 
		.s18 { fill: #892959 } 
	</style>
	<path id="&lt;Path&gt;" class="s0" d="m3200 0v2000h-3200v-2000z"/>
	<g id="Layer 1">
		<g id="&lt;Group&gt;">
			<g id="&lt;Group&gt;">
				<path id="&lt;Path&gt;" class="s1" d="m522.9 1723.4c-10.9-25.8-439.2-352.1-103.8-736 73.4-83.9 141.3-177.2 176-284.3 30.8-95.3-14.4-259.4 53.3-331.6 31.2-33.2 74.9-51.4 117.8-66.9 440.2-159.6 933-138.6 1362 46.4 185.5 80.1 616.8 253.4 620.3 513.6 0.4 33.8-9.8 63.8-22.6 94.6-25.8 62.3-185.8 196.5-283.8 268.8-98.1 72.2-191.2 57.6-72.5 186.6 118.7 129.1 238.1 168.7 129.3 259.8-108.9 91.1-1868.2 110.9-1868.2 110.9z"/>
				<g id="&lt;Clip Group&gt;">
					<g id="&lt;Group&gt;">
						<path id="&lt;Path&gt;" class="s2" d="m406.8 836.1c0 0 408.1-98.1 625 93 217 191.1 323.2 340.9 512.8 361.6 189.7 20.6 535.8-251.6 628.7-324.7 93-73 196.3-103.9 392.6 102.6 196.3 206.6-56.8 645.6-56.8 645.6l-1359.7 67.4-728.4-31.3-267.3-681.7z"/>
					</g>
					<g id="Clip-Path: &lt;Group&gt;" clip-path="url(#cp1)">
						<g id="&lt;Group&gt;">
						</g>
					</g>
				</g>
			</g>
			<g id="&lt;Group&gt;">
				<path id="&lt;Path&gt;" class="s3" d="m2683.4 1857.8c-0.8 0-21.9 0-59.5 0-285.9 0-1524.9 0-2029 0h-162.3c-33.7 0-52.2 0-52.2 0 88.8-113.8 243.7-138.9 373.2-150.3 84.6-7.4 167 5.4 251.5 5.3 88-0.1 179.5 16.7 267.3 12.2 281.6-14.2 559-63.4 841.1-62.2 108.4 0.5 211.2-0.4 313 33 12.6 4.1 25.3 8.8 37.9 14 42 17.6 84.4 36.1 121 63 11.3 8.4 91.2 80.8 98 85z"/>
				<g id="&lt;Group&gt;">
					<path id="&lt;Path&gt;" class="s4" d="m2539.2 1857.8c-0.7 0-21.9 0-59.5 0-286.2 0-1526.3 0-2030.9 0 84.7-72 188.9-94.2 280.4-106.2 84.6-11.1 169.8 18 254.4 17.9 88.1-0.2 178.4 24.7 266.3 18.1 281.8-21.3 558-104.6 840.4-102.8 65.7 0.4 129.2 0.1 191.8 10.8 12.6 4.2 25.3 8.8 38 14.1 42 17.5 84.4 36.1 121 63 11.4 8.4 91.3 80.9 98.1 85.1z"/>
				</g>
			</g>
			<g id="&lt;Group&gt;">
				<g id="&lt;Group&gt;">
					<path id="&lt;Path&gt;" class="s0" d="m2433.5 500.3c-93.3-10.7-109.9 31.4-199.4-51.2-113.9-105.1-266.3-40.9-378.6 24.6-44.9 26.2-90 46.5-141.9 52.8-39.7 4.8-78.7 5-116.7 19.3-3 1.1-30.1 18.6-51.9 34.2h1059c-38.8-28.4-108.1-72.5-170.5-79.7z"/>
				</g>
				<g id="&lt;Group&gt;">
					<path id="&lt;Path&gt;" class="s0" d="m794.8 528.3c0 0 560.7 0 561.3 0-1.7 0-8.9-10.3-10.2-11.6-9.8-10.2-20.8-19.3-32.7-26.9-32.7-21-72-22.5-105.5-42.8-23-13.9-43.1-32.3-67.3-43.8-37.7-17.7-82.2-16.7-122-4.8-38.9 11.6-74.9 32.8-107.8 56.1-26.8 19-53.8 45.4-87.4 51.4-24.1 4.3-28.4 22.4-28.4 22.4z"/>
				</g>
			</g>
			<g id="&lt;Group&gt;">
				<g id="&lt;Group&gt;" style="opacity: .32">
					<path id="&lt;Path&gt;" class="s5" d="m1288.7 1821.6c-9 1.4-18.9 1.2-27.7 1.6q-22.6 0.9-45.3 1.5c-36 1-72.2 1.8-108.1-0.5-15.2-1-36.6-0.9-49.6-6.6-11-4.9-9.1-12 1.7-16.4 13.3-5.4 95.2-11.8 95.2-11.8 16.7-1.1 33.6-2 50.4-2.6 24.7-0.9 53.1-4.4 76.9 1.8 14.8 3.8 37.1 22.4 16.8 30.3-3.2 1.3-6.7 2.1-10.3 2.7z"/>
				</g>
				<g id="&lt;Group&gt;" style="opacity: .32">
					<path id="&lt;Path&gt;" class="s5" d="m1936.7 1798.6c-9.8 1.8-20.7 1.5-30.3 2q-24.8 1.2-49.7 2c-39.5 1.3-79.1 2.3-118.6-0.7-16.6-1.2-40.1-1.1-54.3-8.6-12-6.3-10-15.6 1.8-21.3 14.7-7 104.4-15.3 104.4-15.3 18.4-1.5 36.8-2.6 55.3-3.4 27.1-1.2 58.2-5.8 84.3 2.3 16.2 5 40.7 29.2 18.4 39.5-3.5 1.6-7.3 2.7-11.3 3.5z"/>
				</g>
			</g>
			<g id="&lt;Group&gt;">
				<path id="&lt;Path&gt;" class="s6" d="m382.9 828q0.5-0.6 1-1.1c21.1-25.3 13.1-63.1 2.2-94.1-12.9-36.6-26.8-107.3-7.4-143.9 27.2-51.1 70.7-73 133.1-73.4 73.4-0.4 124.2 48.1 132.7 111.1 7.5 55.5-22.9 127.1 24 171.5 11.5 11 26.2 17.7 40.3 25.1 36 18.8 71.7 45.6 82.5 84.7 11.2 40.2-6.6 82-20.7 121.3-24.8 69.5 5.5 109 12.5 175.9 6.4 62.1-15.8 122.2-65.4 161.3-52.1 41.1-119 57.5-183.8 71.5-35.9 7.7-73.3 15.1-109.1 6.7-83.1-19.3-164.4-137.5-105.8-215.3 24.9-33.1 68.3-56.1 69.5-102.2 0.2-6.8-0.6-13.8-3.9-19.7-4-7.2-11.2-11.9-18.4-15.9-23.6-13.4-49.5-22.7-72.4-37.4-90.9-58.4-32-159.5 44-198.4 15.8-8.1 33.4-14.5 45.1-27.7z"/>
				<g id="&lt;Group&gt;">
					<path id="&lt;Path&gt;" class="s7" d="m670.6 1263.4c-8.6 50.9-28.8 88-58.2 131.4-13 19.1-11.5 37.6-12.7 62.2-2.7 58.6-7.4 117.1-13.5 175.4-2.9 27.5-6.5 54.9-9.8 82.4-0.6 4.6-0.6 15.3-2.5 24.1-33.7 9.7-66.3 22.3-96.5 39.1q-1.6 0.6-3.2 1.2c0-10.7 2.4-29.1 2.7-30.9 10.7-66.6 27.9-133.2 39-200.2 11.4-68.4 14.7-138.1 14.7-207.4 0-30.6-0.8-61.3-2.3-91.9-33.5-33.4-61.3-71.7-85.2-113.4-9.8-17 9.6-20.6 19.3-3.6 16.8 29.2 43.2 58.2 64.6 83.2-1.7-24.5-5.4-62.3-6.6-86.8-0.5-10-1-20.2-1-30.6-28.2-23.6-52.5-54.2-64.7-90-6.3-18.6 17.1-17 23.2 1.6 7.7 22.4 25.4 39.7 44.1 50.5 0.7-4.3 1.5-8.2 2.5-12.3 4.9-13.7 24.5-24.8 28.8-6.5 14.2 61.2 19.9 153.2 30.4 219.1 15.6-34.9 36.9-103.8 37.1-145.7 0-19.6 25.4-24.7 25.4-5-0.3 64-24.1 138-50.8 196 0.3 19.2 2.8 39.2 4.3 57.8 22.8-24.2 46.8-75.1 52.8-110.9 3.3-19.3 21.4-8.1 18.1 11.2z"/>
				</g>
			</g>
			<path id="&lt;Path&gt;" class="s8" d="m2432.1 1643.6c-3.4 14.1-12.3 26.3-22.1 36.9-1.7 1.9-3.6 3.9-5.9 4.9-2.4 1.1-5.1 1.2-7.7 1.3q-0.3 0-0.6 0c-91.8-24.1-184.8-23.4-282.3-23.9h-0.6q-0.4-1.6-1-3.2c-1.6-3.9-4.3-7.3-6.1-11.1-6.8-14.8 2.3-33 16-41.9 13.6-8.9 30.5-10.9 46.7-12.7 2.1-0.2 4.3-0.5 5.8-1.9 2-1.8 2.1-4.8 2.2-7.4 0.6-16.1 5-32.6 15.7-44.6 9.1-10 21.8-15.9 34.8-19.4 25-6.7 52.2-4.8 76 5.2 15 6.3 32.8 20 33 38.1 0 0.9 30.3 5.8 33.3 6.4 6.3 1.3 12.5 2.8 18.6 4.8 11.7 3.9 23 9.8 31.5 19.1 11.9 13.1 16.8 32.2 12.7 49.4z"/>
			<g id="&lt;Group&gt;">
				<path id="&lt;Path&gt;" class="s9" d="m1243.9 1084c-2-3.1 0-55 0-55l-45.3-21.9v50c0 0 47.3 30.1 45.3 26.9z"/>
				<g id="&lt;Group&gt;">
					<path id="&lt;Path&gt;" class="s9" d="m1218.2 1175.3c0 0 42.2 90.4 62.4 105.4 3.1 2.3 7.6 1.3 10.9 0.2 5.9-1.9 11.4-5.2 16.5-8.6 7-4.5 13.7-9.5 20.1-14.8 7.4-5.9 14.5-12.1 21.6-18.4q10.6-9.5 20.9-19.3 9.2-8.8 18.2-17.8c4-4.1 8.1-8 12-12.2 2.7-2.9 6.1-5.3 8.1-8.9 1.9-3.6 0.2-10.5-2.8-13.5-3.8-3.7-5.9-6-10.6-8.7-5.7-3.1-11.9-1-17.6 1.1 0.9-0.3-2.3-4.2-3.2-4.3-1.3-0.2-3.5 0.1-4.5 1-1 0.8-1.5 2.2-1.7 3.5-0.9 4.1-2.5 7.9-3.2 12.1-0.7 4.4 0.1 8.6 0.6 12.9 0 0-65.2 55.4-66.9 48.8-0.6-2.3-23.2-60.5-30.7-72.9z"/>
				</g>
				<g id="&lt;Group&gt;">
					<path id="&lt;Path&gt;" class="s9" d="m1117 1130.3c0 0-56.2 41-59 57.7-2.8 16.7 0.4 20.1 3.6 21.3 3.3 1.2 99.8 49.9 99.8 49.9l2.2-21.9c0 0-55.7-41.8-63.9-44.7 0 0 34.7-21.7 40.3-29 5.6-7.3-23-33.3-23-33.3z"/>
				</g>
				<g id="&lt;Group&gt;">
					<path id="&lt;Path&gt;" class="s9" d="m1143.4 1236.8c0 0 8.6 14.2 0 40.5h101.5c0 0-9-23.7-6-30.6 3-6.9-95.5-9.9-95.5-9.9z"/>
				</g>
				<g id="&lt;Group&gt;">
					<path id="&lt;Path&gt;" class="s10" d="m1142.9 1170.7c0 0-14 67.2-27.5 78.6 0 0 122.6 5.2 140.7 3.9l15.9 0.2-48.6-91.9z"/>
				</g>
				<g id="&lt;Group&gt;">
					<path id="&lt;Path&gt;" class="s9" d="m1218.2 1175.3c0 0 42.2 90.4 62.4 105.4 3.1 2.3 7.6 1.3 10.9 0.2 5.9-1.9 11.4-5.2 16.5-8.6 7-4.5 13.7-9.5 20.1-14.8 7.4-5.9 14.5-12.1 21.6-18.4q10.6-9.5 20.9-19.3 9.2-8.8 18.2-17.8c4-4.1 8.1-8 12-12.2 2.7-2.9 6.1-5.3 8.1-8.9 1.9-3.6 0.2-10.5-2.8-13.5-3.8-3.7-5.9-6-10.6-8.7-5.7-3.1-11.9-1-17.6 1.1 0.9-0.3-2.3-4.2-3.2-4.3-1.3-0.2-3.5 0.1-4.5 1-1 0.8-1.5 2.2-1.7 3.5-0.9 4.1-2.5 7.9-3.2 12.1-0.7 4.4 0.1 8.6 0.6 12.9 0 0-65.2 55.4-66.9 48.8-0.6-2.3-23.2-60.5-30.7-72.9z"/>
				</g>
				<g id="&lt;Group&gt;">
					<path id="&lt;Path&gt;" class="s10" d="m1080.7 1129.9c0 0 80.6-41.7 114.3-71.4 0 0 11.6-11.7 34.2 6.6 22.5 18.3 59.8 84.6 59.8 84.6l2.2 3.3-67.1 42.5-12.6-21-68.6 4.1-9.7 5.1c0 0-28.4-44.7-52.5-53.8z"/>
				</g>
				<g id="&lt;Group&gt;">
					<path id="&lt;Path&gt;" class="s9" d="m1100.3 1409.9c0 0-26.2 62.8-31.4 82.2 0 0-47.5-6.9-143.5 66l-41.4 23.4-6.2 21.9c0 0 21.2 11.5 24.1 11.5 2.9 0 2.3-4.6 4.6-5.8 2.3-1.1 171-70.6 185.9-76.3 14.9-5.7 67.7-61.4 72.3-84.4 4.6-22.9-64.4-38.5-64.4-38.5z"/>
				</g>
				<g id="&lt;Group&gt;">
					<path id="&lt;Path&gt;" class="s9" d="m1211.8 1452.7c0 0 53.9 80.7 57.9 86.4 4.1 5.8 4.1 5.8 4.1 5.8 0 0-25.9 27.5-46.5 138.3l-10.3 62.8 39.1-12.1c0 0 59-166.1 65.9-174.1 6.9-8.1-35.6-146.4-35.6-146.4z"/>
				</g>
				<g id="&lt;Group&gt;">
					<path id="&lt;Path&gt;" class="s11" d="m1180.4 1419.3l-6.5 33.2c0 0-52.9 7.7-93.8-63.3l45.6-75.1z"/>
				</g>
				<g id="&lt;Group&gt;">
					<path id="&lt;Path&gt;" class="s12" d="m1246.8 1277.3l44.4 131.5c0 0-0.8 38.5-90.3 50.5l-36-58.5c0 0-82.2-21.9-28-107.6l1.7-18.4z"/>
				</g>
				<g id="&lt;Group&gt;">
					<g id="&lt;Group&gt;">
						<path id="&lt;Path&gt;" class="s13" d="m1322.2 1788.4c0.1 3.7-1.9 6.7-6.3 11-7.9 7.5-25.6 3.8-35 2.2-12.4-2.2-24.6-5.6-37.1-6.7-10.5-1-38.7 5.5-44.2-7.6-2.7-6.7 0-13.6 2.3-17.6 0.6 3.8 1.7 4.6 3.8 5.6 3.1 1.4 22.6-0.6 35 2.3 12.3 2.8 41 11.4 52.2 15.7 7.3 2.8 19.8 3.9 26.4-1.3 1.5-1.1 2.4-2.3 2.9-3.6z"/>
					</g>
					<g id="&lt;Group&gt;">
						<path id="&lt;Path&gt;" class="s0" d="m1292.9 1793.3c-11.2-4.3-39.9-12.9-52.2-15.8-12.4-2.8-31.9-0.8-35-2.2-2.4-1.1-3.5-2.1-4-7.5q-0.1-1-0.2-2.2-0.1-1.8-0.1-4.1c-0.3-11.2 14-33.6 14-33.6 0 0 11.5 11.2 15.8 11.2 4.3 0 10.6 0 19.5-8.6 8.9-8.6 19.5-2.3 22.7-1.4 3.1 0.8 4.9 12.3 5.7 14 1.7 3.4 4.7 6.7 8.3 9.9 2 1.8 4.2 3.6 6.5 5.3q1.5 1.2 3.1 2.3c2.5 1.7 5 3.4 7.3 5q1.4 0.9 2.7 1.8c2.6 1.8 5 3.5 6.8 5q0.1 0.1 0.2 0.1c5.5 4.4 13.3 13.3 5.3 19.5-6.6 5.2-19.1 4.1-26.4 1.3z"/>
					</g>
					<g id="&lt;Group&gt;">
						<path id="&lt;Path&gt;" class="s13" d="m1293.9 1758.3l-19.4 5.7c-1.8 0.6-3.8-0.5-4.3-2.3q-0.2-0.5-0.2-1c0-1.4 1-2.8 2.5-3.3l14.9-4.4c2 1.8 4.2 3.6 6.5 5.3z"/>
					</g>
					<g id="&lt;Group&gt;">
						<path id="&lt;Path&gt;" class="s13" d="m1304.3 1765.6l-18.8 5.6c-1.8 0.5-3.7-0.5-4.3-2.3q-0.1-0.5-0.1-1c0-1.5 1-2.9 2.4-3.3l13.5-4c2.5 1.7 5 3.4 7.3 5z"/>
					</g>
					<g id="&lt;Group&gt;">
						<path id="&lt;Path&gt;" class="s13" d="m1314 1772.5l-18.2 5.4c-1.8 0.5-3.7-0.5-4.2-2.3q-0.2-0.5-0.2-1c0-1.5 1-2.9 2.5-3.3l13.1-3.9c2.6 1.8 5 3.5 6.8 5q0.1 0.1 0.2 0.1z"/>
					</g>
				</g>
				<path id="&lt;Path&gt;" class="s9" d="m1275.9 985.3c1.7-4.3-2.7-6.4-7.1-9-6.2-14.9-10.5-28.4-23.9-39.9-12.5-10.8-30.1-17.9-46.7-11.6-23.5 8.8-32.2 40.5-19.3 70.9 2.6 6.2 6.1 12.1 10 17.3 15.2 20 45.6 29.8 63.1 20.5 9.9-5.2 10.4-3.9 15.2-14.3 3-6.6 7-18.4 5.7-29.7 1.1-0.9 2.2-2.2 3-4.2z"/>
				<path id="&lt;Path&gt;" class="s13" d="m1244 932.1c-0.6-3.2-0.5-6.7-0.5-10 0.1-2.7 0.2-5.5-0.1-8.2-0.7-7.9-1.7-15.6-5.8-22.1-4.1-6.8-12.5-11.2-20.2-14.7-0.8-0.4-1.7 0-2.1 0.8-0.3 0.8 0 1.7 0.8 2.1 7.3 3.2 15.2 7.4 18.9 13.4 3.6 5.9 4.6 13.2 5.3 20.8 0.2 2 0.2 4.1 0.1 6.2-4.2-18.6-15.4-48.4-51.8-35.9 0 0-11.7 2.8-12.2 21.6 0-1.2-24-2-26.2-1.8-7.9 0.5-16.1 3.5-20.7 10-4.6 6.4-4.1 16.7 2.5 21.1-8.6-0.8-17.3 0-25.6 2.3q-0.2 0-0.5 0c-23.3 1.9-35.7 13.5-41.9 22.9-0.5 0.8-0.3 1.7 0.4 2.2q0.5 0.3 0.9 0.3c0.5 0 1-0.3 1.3-0.7 4.3-6.5 11.8-14.2 24.3-18.5-4.7 2.6-9.1 5.7-12.4 9.9-3.5 4.4-5.7 10-5.1 15.5-11.9-1.2-24.6-0.7-35.6 4.3-7.1 3.3-12.6 8.8-16.4 15.6-3.7 6.8-5.8 14.6-7 22.3-1.4 8.6 3.8 14.2 7.3 17.3 4 3.5 8.9 5.9 14 7.3 19.3 5.5-46.9 20.1-39.1 45.8 7.9 25.6 34.6 24.5 59.5 11.5 24.8-13.1 44.7-28.5 54.4-25.4q1.5 0.5 3.2 1.2c-17.4 4.7-43.8 22.7-65.4 39-18.2 13.8-42.9 2.3-43.1 2.2-0.8-0.4-1.7 0-2.1 0.7-0.4 0.8-0.1 1.8 0.7 2.1 0.7 0.3 10.7 5 22.8 5 7.6 0 16-1.8 23.5-7.5 31.5-23.7 51.3-30.8 64.1-32.7 7.5 3.4 8.3 7.9 15.4 12.1 3.9 2.2 12.6-3.9 15.9-0.9 3.4 3 13.1 5.9 17.8 5.3 4.9-0.7 9.3-3.5 12.8-7 4-3.9 6.9-8.6 10.3-12.8 3.4-4.3 7.4-7.9 10.8-12.1 3.2-4 5.5-8.5 8.3-12.7 2.3-3.5 4.9-6.7 5.5-11 0.9-5.9-0.5-12-2.6-17.5-1.5-4-5.5-13.4-10.4-18.2-1.7 1.3-3.9 2.1-6.2 2.1-5.7 0-10.4-4.6-10.4-10.4 0-5.7 4.7-10.3 10.4-10.3 0-0.1-0.1-2.7 9.5-8.4 13.3-7.8 19.6-23.5 16.9-30.8-2.6-7.3 16.5-6.8 21.4-9.4 4.9-2.5 3.6-2.1 3.6-2.1q-0.1-0.1-0.1-0.2c0.6-0.3 1-0.9 0.9-1.6z"/>
				<g id="&lt;Group&gt;">
					<path id="&lt;Path&gt;" class="s13" d="m1260.3 971.5c0 2-1.6 3.5-3.5 3.5-2 0-3.5-1.5-3.5-3.5 0-1.9 1.5-3.5 3.5-3.5 1.9 0 3.5 1.6 3.5 3.5z"/>
				</g>
				<g id="&lt;Group&gt;">
					<path id="&lt;Path&gt;" class="s13" d="m1262.2 957.6c-0.1 0.2-6.7 0.3-7.3 0.3-3.9 0.4-7.9 0.7-11.3 2.8-1.5 0.9-2.6 2.2-3.6 3.5-1 1.2-2.1 3-3.4 3.8-0.1-0.5 0.2-1 0.3-1.5 1-2.6 2-5.3 3.5-7.6 2.2-3.2 6.8-5.3 10.5-6.2 3.7-0.8 12.5-1 11.3 4.9z"/>
				</g>
				<g id="&lt;Group&gt;" style="opacity: .77">
					<path id="&lt;Path&gt;" class="s14" d="m1259.4 1253.2h-3.3c-7.2 0.5-31.3 0-57.5-0.8 0 0 30.2-17.4 28.5-58.8 8.1 16.3 20.5 40.5 32.3 59.6z"/>
				</g>
				<g id="&lt;Group&gt;">
					<path id="&lt;Path&gt;" class="s7" d="m1133.2 1183.7c0 0-9.6-0.2-14.8-3.3l8.8-6.1z"/>
				</g>
				<g id="&lt;Group&gt;" style="opacity: .77">
					<path id="&lt;Path&gt;" class="s7" d="m1100.2 1143.2c-2.6 2.2-5.5 4.5-8.4 6.9-1.6 0.8-11.1-20.2-11.1-20.2 6.4 2.5 13.1 7.4 19.5 13.3z"/>
				</g>
				<g id="&lt;Group&gt;">
					<path id="&lt;Path&gt;" class="s7" d="m1291.2 1153c0 0-4.6 11.3-17.1 19.7l-3.2-6.9z"/>
				</g>
				<g id="&lt;Group&gt;">
					<g id="&lt;Group&gt;">
						<path id="&lt;Path&gt;" class="s13" d="m888.7 1689.8c-0.3 1.1-0.6 2.1-1 3-4.2 8.1-21.6-0.6-26.6-4.5-7.2-5.7-10.5-19.9-12.7-28.3q-5.4-20.7-10.9-41.4c-2.5-9.4-8.3-17-11.4-25.8-1-3.1 2.1-7.9 4.7-9.8 1.1-0.8 4-1.1 7-1.3q-0.1 0.2-0.3 0.4c-1.4 2.6 20.7 21.2 24.7 63.1 4 41.9 21 44.5 21.3 46.2q0 0.3-0.1 0.6 0.6-0.3 1.5-0.6c1.8-0.6 3-1.1 3.8-1.6z"/>
					</g>
					<g id="&lt;Group&gt;">
						<path id="&lt;Path&gt;" class="s0" d="m915.4 1622.4c-1 3.8-7.1 4.8-8.4 9-0.3 0.8-0.7 3.8-1.3 8-0.3 1.9-0.6 4.2-1 6.6q-0.3 2.4-0.7 5-0.6 3.3-1.1 6.7-0.4 2.1-0.8 4.2c-0.5 2.1-0.9 4.3-1.4 6.4-2.2 10.1-5.1 19.1-8.6 22.2 0 0.5-0.7 0.9-1 1.1-1.6 1.1-3.7 1.8-5.6 2.3 0.5-0.2-1.1-1.5-1.2-1.5q-1.3-0.8-2.5-1.7c-1.5-1.1-3-2.4-4.3-3.9-3.4-3.8-5.8-8.5-7.7-13.2-3.1-8.3-4.6-17.1-5.5-25.9q0-0.2-0.1-0.5c-4-41.9-26.1-60.5-24.7-63.1 1.5-2.6 2.6-5.8 14.7-8.1 12-2.3 38.4-2 38.4-2-2.7 5.4-8.6 17.4-4.6 23.2 1 1.5 2.6 2.4 4.2 3.2 8.3 4.5 20.4 8.7 23 19.1 0.4 1.1 0.4 2.1 0.2 2.9z"/>
					</g>
					<g id="&lt;Group&gt;">
						<path id="&lt;Path&gt;" class="s13" d="m903.7 1637.3v0.1c-0.3 1.9-0.6 4.2-1 6.6l-14.9-12.4c-1.2-1-1.4-2.9-0.4-4.1 0.6-0.7 1.5-1 2.3-1 0.6 0 1.3 0.2 1.8 0.6z"/>
					</g>
					<g id="&lt;Group&gt;">
						<path id="&lt;Path&gt;" class="s13" d="m902 1649q-0.6 3.3-1.1 6.7l-15.9-13.3c-1.2-1-1.4-2.8-0.4-4 0.6-0.7 1.4-1.1 2.3-1.1 0.6 0 1.3 0.2 1.8 0.7z"/>
					</g>
					<g id="&lt;Group&gt;">
						<path id="&lt;Path&gt;" class="s13" d="m900.1 1659.9c-0.5 2.1-0.9 4.3-1.4 6.4l-15-12.6c-1.2-1-1.4-2.8-0.3-4 0.5-0.7 1.3-1 2.2-1 0.6 0 1.3 0.2 1.8 0.6z"/>
					</g>
				</g>
				<path id="&lt;Path&gt;" class="s15" d="m1152.8 1123.5l-12 56.2-7.6 4c0 0-10.1-16-23.5-30.8z"/>
			</g>
			<g id="&lt;Group&gt;">
				<g id="&lt;Group&gt;">
					<path id="&lt;Path&gt;" class="s9" d="m1932.7 879c-2.2 2.6-4.4 3-6 3.9-1.1 0.6-1.9 1.4-2 3.4-0.4 4.7-5.9 9.9-6.5 8.6-0.5-1.3 1.5-43.6 1.9-46.3 0 1.3 3.4 9.1 6.4 15.2q0.3 0.7 0.7 1.3c3.2 5.3 9.2 9.4 5.5 13.9z"/>
				</g>
				<g id="&lt;Group&gt;">
					<path id="&lt;Path&gt;" class="s9" d="m1986.2 1481.9c2.4-14-6.2-34.6-34.9-72.7-3.6-4.8-7.3-9.8-11-14.9-29 17.3-54.3 37.8-77 60.9 23.4 20.2 43.2 36.7 59.6 46.8-8.1 16.5-16.7 37.8-22.6 62.4-4.8 19.8-10.5 45.6-15.2 71.2-6.4 35.1-10.8 69.9-8.5 89.4 1 8.9 3.4 14.8 7.9 15.8 4.9 1.1 10.7-3.9 16.8-12.7 11.9-17.4 24.9-49.5 35.3-78.2 6.4-17.6 11.9-33.9 15.5-44.7 10.4-31.1 39.7-94 34.1-123.3z"/>
				</g>
				<g id="&lt;Group&gt;">
					<path id="&lt;Path&gt;" class="s9" d="m1677.3 1378.2c-18.2 41.2-32.3 74-35.1 96.2-18.8 2.9-42.4 8.2-67.3 18-21.4 8.4-49.3 20.1-75.5 32.6-44.4 20.9-84 43.9-79.1 56.3 5.4 13.4 55.7 3 99.3-8.6 20.4-5.5 39.4-11.1 51.4-14.8 33.5-10.1 108.3-23.4 124.4-47.2 12-6.9 26.7-22.1 47.2-50.5q2-2.8 4.1-5.7c-20.5-28.4-37.9-59.7-69.4-76.3z"/>
				</g>
				<g id="&lt;Group&gt;">
					<path id="&lt;Path&gt;" class="s9" d="m1910.7 831.1c4.9 2.6-2.1-1.8 2.2 2.3 26.8 25.7 10 88.3-5.7 94.7-5.8 2.4-20.3 0.9-25.7 10.2-5.5 9.3-16.6 41.8-31.1 54.1l-41.3-50.8c2.1-4.4 4.2-9 6.3-13.6 2.4-5.3 8.2-21.5 8.4-24.5 0.1-1.3 0.5-2.2 0.6-3.2 0.1-1.5-2-4.4-1.5-5.5 0.7-1.6 4.5-1.1 6-1.7 1.9-0.9 4-2.9 5.8-4.4 3.6-3.3 8-5.8 11.4-9.3 3.7-3.6 6.8-8.3 9.8-12.5 11.7-15.9 27.4-32.6 47.6-36.4 3-0.6 5.4-0.3 7.2 0.6z"/>
				</g>
				<path id="&lt;Path&gt;" class="s10" d="m1957.1 1409.8c0 0-10.2 20-33.8 41.8-8.7 8-17 14.9-23.5 20.2-7.9 6.3-13 10-13 10 0 0-79.4-52-124.9-98.3-3.3-3.4-6.6-6.8-9.6-10.1-42.8-48.5-30.9-101.5-30.9-101.5l45.1-36.3c0 0 83.6-26.5 90.8 18.3 7 44.7 99.8 155.9 99.8 155.9z"/>
				<g id="&lt;Group&gt;">
					<path id="&lt;Path&gt;" class="s14" d="m1899.8 1471.8c-7.9 6.3-12.4 10.4-12.4 10.4 0 0-78.6-51.3-124.1-97.6l64.5-69.9c0 0 0 58.8 16 87.4 11.6 20.8 56 69.7 56 69.7z"/>
				</g>
				<path id="&lt;Path&gt;" class="s10" d="m1745 1472c0 0-73.8-36-92.1-61.7-1.4-2.1 91.2-185.2 93.4-186.4 2.1-1.1 67.2-13.6 68.1-13.8 2.2-0.4 15.5 20.2 16.9 22.1q15.3 20 30.7 40.1c4.4 5.9 8.8 11.9 13.4 17.6-6.7 8.1-9.3 16.8-13 26.5-2.8 7.5-5.6 15.2-8.3 22.9-1.7 5-3.2 11-7.1 14.7-7.7 7.2-18.4 11.8-26.8 18.3-10.9 8.3-18 19.9-25.9 30.9-8.1 11.3-16.3 22.7-24.4 34-8.3 11.6-16.6 23.1-24.9 34.8z"/>
				<g id="&lt;Group&gt;">
					<path id="&lt;Path&gt;" class="s9" d="m1887.7 1185.4c-0.6-3.7-32.3-17.9-42.1-14.2-9.9 3.7-16.1 10.8-23.3 7.5-5.1-2.4-62.1-43.3-97.3-65.7 11.4-10.5 23.7-23.2 35.7-36.7-18.2-13.7-32.6-29.5-48.2-46.5-7.6 10.1-15.3 20.6-22.2 30.8-16.5 24.2-28.7 49.9-28.5 66q-0.1 2 0.4 4.2 0.1 0.3 0.1 0.6c0.5 2 1.2 3.9 2.3 5.4 1.9 3.4 4.9 6.9 9.2 10.7 23.2 20 83.4 37.6 113.1 47.9 29.7 10.3 39.3 14.7 50.8 23.8 11.4 9 28 10.5 34.3-3 6.4-13.6 2.1-17.5 7-21 4.9-3.5 9.4-6.2 8.7-9.8z"/>
				</g>
				<path id="&lt;Path&gt;" class="s16" d="m1790.7 945.1c0 0-46.8 23.2-102.5 108.9 0 0 9.9 14.7 29.1 30.5 18.6 15.3 29.3 18.2 29.3 18.2l32.8-34.6z"/>
				<path id="&lt;Path&gt;" class="s12" d="m1721.4 1271.9c-4.2 1 43-134.3 36-171.1-7.1-36.8-23.2-102.9 5.4-133.6 28.6-30.8 55.2-33.4 78.2-26.2 23 7.2 53.2 40.9 56.9 100.1 3.6 59.3-22.5 248.9-22.5 248.9 0 0-128-24.5-154-18.1z"/>
				<g id="&lt;Group&gt;">
					<path id="&lt;Path&gt;" class="s9" d="m2073.5 1023.3c-11.6-11.3-17.1-8.3-18.9-14.4-1.9-6.2-3-11.8-7.1-12.4-4-0.6-29.8 26.2-29.5 37.3 0.2 11.3 5.3 20.1-0.6 26.2-4.2 4.2-64.4 45.4-100.2 72.9-5.1-14.7-11.5-30.8-18.7-46.8-19.6 13.8-42.5 16.3-65 20.7 7.2 13.7 15.3 28.3 23.3 41.7 15.1 25 33.4 46.9 48.2 53.5 1.8 1 3.9 1.7 6.1 1.9q0.3 0.1 0.5 0.1 0.5 0 1.1 0.1 0.5 0 1 0c5.1 0 11.3-1.8 18.6-5.9 28.7-16.2 68.3-70.5 89.5-96.7 21.2-26.2 29.2-34.3 42.5-42.5 13.4-8.4 20.8-24.4 9.2-35.7z"/>
				</g>
				<path id="&lt;Path&gt;" class="s17" d="m1915.4 1093.9c0 0-19.4 11.4-43.6 23.1-24.2 11.9-45.5 13.5-45.5 13.5-0.1-0.1-1.5-3.5-3.8-9-9.6-23.1-34.1-84.4-38.1-103.8-4.2-21 17.1-50.2 29.8-55.4 31.9-13.1 52.3 11 61.2 22.2 3.4 4.1 9.7 20.2 16.4 38.8 11.3 31.7 23.6 70.6 23.6 70.6z"/>
				<g id="&lt;Group&gt;">
					<path id="&lt;Path&gt;" class="s13" d="m1519.6 1572.7c-43.6 11.6-93.9 22-99.3 8.6-4.9-12.4 34.7-35.4 79.1-56.3z"/>
				</g>
				<g id="&lt;Group&gt;">
					<path id="&lt;Path&gt;" class="s13" d="m1936.6 1649.9c-10.4 28.7-23.4 60.8-35.3 78.2l-24.7-3.1c-2.3-19.5 2.1-54.3 8.5-89.4z"/>
				</g>
				<path id="&lt;Path&gt;" class="s12" d="m1880.3 1252.3c-2.1 16.4 0 52.4 0 52.4 0 0-6.3 15.6-30.5 6.4-116-44.5-136.3-5.6-147.8-11.7-4.3-2.1 10.9-12.2 17.9-36.6 6.9-24.3 36.2-91.7 36.2-91.7z"/>
				<g id="&lt;Group&gt;">
					<path id="&lt;Path&gt;" class="s13" d="m1921.4 794.9c-0.2-0.6-0.5-1.2-0.9-1.6-2.1-2-11.2 0.4-13.9 0.8-4.9 0.5-9.8 1.2-14.8 1.6q-1 0.1-2 0.1c12.9-3.9 16.8-9 17-9.3 0.5-0.8 0.4-1.9-0.4-2.4-0.8-0.6-1.8-0.4-2.4 0.4-0.1 0-6.2 8.1-31.2 11.4-6 0.7-10.8 1.5-14.6 2.3-12 1.2-25.5 3.8-32.1 14.7-1.1 1.7-1.8 4.3-2.8 5.9-2.4-1.8-5.8-2.3-15.5-1.8-0.9 0-1.7 0.8-1.6 1.8 0 0.9 0.8 1.6 1.8 1.6 7.1-0.3 10.3-0.2 12.2 0.6-0.9 0.3-1.8 0.5-2.8 1-6.4 2.8-10.1 8.9-12.4 15.1-4.5 12.2-2.1 25.5 3.2 36.9 2.5 5.5 5.6 10.8 8.4 16.2 1.3 2.4 2.5 4.8 3.2 7.5 0.7 2.6 1.1 5.3 2.1 7.9 0.2 0.4 0.3 0.9 0.7 1 0.3 0.2 0.7 0.3 1.1 0.3 9.2 0.6 42.1-0.2 32.2-9.7-13.7-13-3.5-21.3 4.3-22.5 7.7-1.4 10.7 19.5 19.4 16.6 8.6-3.1-2.8-26.4 7.1-30.6 10.3-4.4 1.1-15 8.8-22 3.4-3.1 11.9-2.1 15.9-4.3 0.5-0.3 0.9-0.7 1.5-1 11.5-7.6 12.8-26.7 8.5-38.5z"/>
				</g>
				<g id="&lt;Group&gt;">
					<path id="&lt;Path&gt;" class="s13" d="m1918.2 864c0 2.2-1.9 4.1-4.1 4.1-2.3 0-4.1-1.9-4.1-4.1 0-2.3 1.8-4.1 4.1-4.1 2.2 0 4.1 1.8 4.1 4.1z"/>
				</g>
				<g id="&lt;Group&gt;">
					<path id="&lt;Path&gt;" class="s13" d="m1925.2 852.5q-0.1 0.1-0.1 0.1c-0.1 0-0.3 0-0.4 0-5.9-0.2-12-1.3-17.7 0.8-1.8 0.7-3.4 1.6-5 2.6-1.4 0.9-3.1 2.3-4.8 2.8 0-0.6 0.6-1.5 0.9-2 0.5-0.7 1.1-1.3 1.7-1.9 1.5-1.6 3.1-3.4 4.9-4.8 4.5-3.2 10.8-4 16.1-3 1.5 0.3 3 0.7 3.9 1.9 0.7 0.9 0.9 2.2 0.6 3.2q-0.1 0.2-0.1 0.3z"/>
				</g>
				<g id="&lt;Group&gt;">
					<path id="&lt;Path&gt;" class="s18" d="m1691.7 1058.6q-0.7 1-1.4 2-0.4 0.6-0.8 1.2c-1.6-2.3-1.3-7.8-1.3-7.8 0.3 0.4 1.4 2 3.5 4.6z"/>
				</g>
				<g id="&lt;Group&gt;">
					<path id="&lt;Path&gt;" class="s18" d="m1746.6 1102.7c-3.3 0.5-8.5-0.5-10-0.8q1.3-1.3 2.5-2.5c4.7 2.5 7.4 3.2 7.5 3.3z"/>
				</g>
				<g id="&lt;Group&gt;">
					<path id="&lt;Path&gt;" class="s18" d="m1915.4 1093.9c0 0 2.3 4.9-7.4 14.5l-3.4-8.4z"/>
				</g>
				<g id="&lt;Group&gt;" style="opacity: .47">
					<path id="&lt;Path&gt;" class="s11" d="m1915.4 1093.9c0 0-19.4 11.4-43.6 23.1-24.2 11.9-45.5 13.5-45.5 13.5-0.1-0.1-1.5-3.5-3.8-9q-0.5-1.1-1-2.3c19.6-10.3 73.2-42 70.5-91.4-0.1-0.6 0.2-1.5 0.5-2.5 11.1 31.2 22.9 68.6 22.9 68.6z"/>
				</g>
				<g id="&lt;Group&gt;">
					<g id="&lt;Group&gt;">
						<path id="&lt;Path&gt;" class="s13" d="m1461.2 1673.4c-0.2 1.2-0.6 2.3-1.1 3.3-4.8 9.2-23-1.4-28.1-6-7.5-6.8-10.5-23.3-12.5-33.1-3.3-16-6.7-32-10.1-48-2.3-10.9-8.1-19.8-11-30.1-1.1-3.6 2.5-9 5.3-11.1 1.2-0.8 4.3-1.2 7.5-1.3q-0.2 0.3-0.3 0.5c-1.6 2.9 21.2 25.1 23.9 73.5 2.7 48.4 20.6 51.9 20.8 53.9q0.1 0.4-0.1 0.7c0.5-0.2 1-0.4 1.7-0.6 2-0.7 3.2-1.2 4-1.7z"/>
					</g>
					<g id="&lt;Group&gt;">
						<path id="&lt;Path&gt;" class="s0" d="m1490.1 1594.3c-1.2 4.4-7.7 5.3-9.2 10.1-0.3 1-0.9 4.3-1.7 9.1-0.3 2.3-0.8 4.9-1.3 7.7q-0.4 2.7-1 5.7-0.7 3.7-1.4 7.6-0.5 2.4-1 4.8c-0.5 2.5-1.1 4.9-1.7 7.3-2.7 11.6-6.1 21.9-10 25.3 0 0.1-0.2 1.4-5.6 3.2-0.7 0.2-1.2 0.4-1.7 0.6q0.2-0.3 0.1-0.7c-0.2-2-18.1-5.6-20.8-53.9-2.7-48.4-25.5-70.6-23.9-73.5 1.6-2.9 3-6.5 15.9-8.7 12.9-2.3 41-1 41-1-3.1 6.1-9.9 19.6-5.8 26.5 1 1.7 2.7 2.8 4.3 3.8 8.6 5.5 21.4 10.8 23.8 22.8q0.4 1.9 0 3.3z"/>
					</g>
				</g>
				<g id="&lt;Group&gt;">
					<path id="&lt;Path&gt;" class="s13" d="m1479.2 1613.5c-0.3 2.3-0.8 4.9-1.3 7.7l-15.4-14.9c-1.2-1.2-1.3-3.3-0.2-4.7 0.6-0.7 1.5-1.1 2.4-1.1 0.7 0 1.4 0.3 1.9 0.8z"/>
				</g>
				<g id="&lt;Group&gt;">
					<path id="&lt;Path&gt;" class="s13" d="m1476.9 1626.9q-0.7 3.7-1.4 7.6l-16.4-15.8c-1.2-1.2-1.3-3.3-0.2-4.7 0.6-0.8 1.5-1.1 2.4-1.1 0.7 0 1.4 0.3 1.9 0.8z"/>
				</g>
				<g id="&lt;Group&gt;">
					<path id="&lt;Path&gt;" class="s13" d="m1474.5 1639.3c-0.5 2.5-1.1 4.9-1.7 7.3l-15.5-14.9c-1.2-1.2-1.3-3.3-0.2-4.7 0.6-0.8 1.5-1.1 2.4-1.1 0.7 0 1.4 0.3 1.9 0.8z"/>
				</g>
				<g id="&lt;Group&gt;">
					<g id="&lt;Group&gt;">
						<path id="&lt;Path&gt;" class="s13" d="m1984.7 1763.2c-0.1 4-2.3 7.2-7.4 11.6-8.8 7.8-27.8 3.2-38 1.1-13.3-2.8-26.3-7.1-39.9-8.7-11.3-1.5-42.1 4.5-47.5-9.9-2.8-7.4 0.5-14.8 3.1-19.1 0.5 4.2 1.6 5.1 3.9 6.2 3.4 1.7 24.6 0.3 37.8 3.9 13.3 3.6 44 14 56 19.1 7.8 3.3 21.3 4.9 28.7-0.4 1.6-1.2 2.7-2.5 3.3-3.8z"/>
					</g>
					<g id="&lt;Group&gt;">
						<path id="&lt;Path&gt;" class="s0" d="m1952.7 1767.4c-12-5.1-42.7-15.5-56-19.1-13.2-3.6-34.4-2.2-37.8-3.9-2.6-1.2-3.7-2.3-4-8.2q-0.1-1.1-0.1-2.4-0.1-2-0.1-4.5c0.2-12.1 16.6-35.8 16.6-35.8 0 0 12 12.6 16.7 12.8 4.6 0.1 11.5 0.4 21.4-8.6 10-9 21.3-1.7 24.7-0.7 3.3 1.1 4.8 13.6 5.6 15.5 1.7 3.7 4.8 7.4 8.6 11 2.1 2 4.4 4 6.8 6q1.7 1.3 3.4 2.6c2.6 2 5.2 3.9 7.7 5.7q1.4 1.1 2.8 2.1c2.7 2 5.2 3.9 7.2 5.6q0.1 0.1 0.2 0.2c5.8 5 13.8 14.9 5 21.3-7.4 5.3-20.9 3.7-28.7 0.4z"/>
					</g>
					<g id="&lt;Group&gt;">
						<path id="&lt;Path&gt;" class="s13" d="m1955.1 1729.5l-21.2 5.4c-2 0.6-4.1-0.6-4.6-2.6q-0.1-0.6-0.1-1.1c0-1.6 1.2-3.1 2.8-3.5l16.3-4.2c2.1 2 4.4 4 6.8 6z"/>
					</g>
					<g id="&lt;Group&gt;">
						<path id="&lt;Path&gt;" class="s13" d="m1966.2 1737.8l-20.6 5.3c-2 0.6-4.1-0.7-4.6-2.6q-0.1-0.6-0.1-1.1c0-1.6 1.1-3.1 2.8-3.5l14.8-3.8c2.6 2 5.2 3.9 7.7 5.7z"/>
					</g>
					<g id="&lt;Group&gt;">
						<path id="&lt;Path&gt;" class="s13" d="m1976.4 1745.7l-19.9 5.1c-2 0.5-4.1-0.7-4.6-2.7q-0.1-0.5-0.1-1c0.1-1.6 1.2-3.1 2.8-3.5l14.4-3.7c2.7 2 5.2 3.9 7.2 5.6q0.1 0.1 0.2 0.2z"/>
					</g>
				</g>
				<g id="&lt;Group&gt;">
					<path id="&lt;Path&gt;" class="s18" d="m1826.3 1130.5c0 0 14.2-2.3 18.3-3.4l3 5.6c0 0-8.9 2.2-21.3-2.2z"/>
				</g>
			</g>
		</g>
	</g>
</svg>