<svg version="1.2" xmlns="http://www.w3.org/2000/svg" viewBox="0 0 1190 1190" width="1190" height="1190">
	<title>OLAZ691</title>
	<defs>
		<clipPath clipPathUnits="userSpaceOnUse" id="cp1">
			<path d="m957.27 571.85c14.12-65.77 1.81-96.87-39.78-103.44-25.42-2.61-47.44 0.06-50 68.42-1.61 56.94-54.39 69.86-26.17 112.19 48.66 44.73 106.82-15.77 115.95-77.17z"/>
		</clipPath>
	</defs>
	<style>
		.s0 { fill: #efb250 } 
		.s1 { fill: #683c11 } 
		.s2 { fill: #f39200 } 
		.s3 { fill: #be3522 } 
		.s4 { fill: #95c11f } 
		.s5 { fill: #3aaa35 } 
		.s6 { fill: #51a640 } 
		.s7 { fill: #f5e991 } 
		.s8 { fill: #cf3e28 } 
		.s9 { fill: #03a187 } 
		.s10 { fill: #08ba98 } 
		.s11 { fill: #ce3d2a } 
		.s12 { fill: #e44933 } 
		.s13 { fill: #017767 } 
		.s14 { opacity: .3;fill: #221f1f } 
		.s15 { fill: #3b2314 } 
		.s16 { fill: #744c29 } 
		.s17 { fill: #157151 } 
		.s18 { fill: #188a63 } 
	</style>
	<g id="_Artboards_">
	</g>
	<g id="Capa 1">
		<g id="&lt;Group&gt;">
			<path id="&lt;Path&gt;" class="s0" d="m405.6 560.4c0 4-4.2 7.3-9.3 7.3 0 0-96.7 15.3-207.5 0-4.9 0-9.3-3.3-9.3-7.3v-27.4c0-4.1 4.2-2.5 9.3-2.5h207.5c5.1 0 9.3-1.6 9.3 2.5z"/>
			<path id="&lt;Path&gt;" class="s1" d="m409.3 520.2c0 6.9-3.5 12.6-7.9 12.6 0 0-109.5 18-219.1 0-4.4 0-7.9-5.7-7.9-12.6v-4.2c0-7 3.5-12.6 7.9-12.6h219.1c4.4 0 7.9 5.6 7.9 12.6z"/>
			<path id="&lt;Path&gt;" class="s2" d="m182.3 495.1l-16.9 6.8 155.3 25.6 93.5-27.5-31.6-14.1h-189.8z"/>
			<path id="&lt;Path&gt;" class="s3" d="m398.4 489c0.5 10.2-22.8 19.6-52 21-29.3 1.4-53.4-5.7-53.8-15.9-0.5-10.3 22.8-19.7 52-21.1 29.2-1.4 53.3 5.8 53.8 16z"/>
			<path id="&lt;Path&gt;" class="s3" d="m286.4 493.1c-0.5 9.1-24.1 15.3-52.8 13.9-28.7-1.4-51.7-9.9-51.2-18.9 0.4-9.1 24.1-15.3 52.8-13.9 28.7 1.4 51.6 9.9 51.2 18.9z"/>
			<path id="&lt;Path&gt;" class="s4" d="m371 447.2c-2.5-3.2-7-5.9-11.2-7.2-2.6 4.2-9.3 3.6-13.6 4.9 1.7 4.5 0 10.4-5.8 10.5-0.1 2.9-0.4 6-0.5 8.9-6.9 1.6-4.9 1.1-7.4 5.2-1.6 2.6 2.5 7.5-4.9 5.6 2.3 7.1 11.1 2.8 16.5 4.2-3 4.3-11.1 6.2-15.4 9.3 3 4.1 5.9 1.1 9.7 1.9 3.7 0.8 7 4.9 10.4 5.2-1.7-0.6-3.5-0.9-5.2-1.6 14.1 9.6 15.1-4.3 29-1.2 4.2 0.9 6.4 3.5 10.7 2.1 6.2-1.9 3.5-3 5.6-7.1 9.4 1.6 17.1 10.1 26.7 3.3 4.5-3.2 3-4.9 1.9-11.4-1.5 15.8-14.9-4.9-16.1-5.9-3.1-2.7-9.3-0.4-12-2.8-5.2-4.5-4.7-21.4-6.4-28.3-5.4 2.6-4.5 6.5-6.1 11.2-6.6-0.1-4.7-3.6-5.3-7.7"/>
			<path id="&lt;Path&gt;" class="s5" d="m321.4 496.1c-7.8 3.3-5.3-7-3.1-10.8-1.4 0.3-4.5-0.6-6.1-0.4 0.4-2.9 0.9-6-1.9-7.5-0.7-6.1 5.8-5.2 7.7-8.9 2.2-4.3-1.6-2.6-3.5-6.9-0.6-1.5-2.5-11.3-1.8-12.5 6.6-11.3 38.7 5 49.1 2.4 1.5 3.9 2.5 9-1.3 12 5.1 1.6 11.4 3.4 16.3 5.3-3.9 1.3-7.9 2.7-11.8 3.3 0.5 2.7 14.5 16.1 3.5 19.2 1.1-4.1-2.5-6.7-6.9-5-3.7 1.4-5.7 9-8.2 12-5.2-3-11-4.6-16.2-0.3 1-2.6 0.7-4.9-2.3-5.3-0.1 3-1.4 6.6-3.9 7.9-0.4-4.9-6-8.2-9.6-4.5z"/>
			<path id="&lt;Path&gt;" class="s4" d="m263.7 479.1c-1.6 3.7-2 8.9-1.2 13.2 4.9 0.4 7.5 6.7 10.7 9.8 3.2-3.5 9.2-4.8 12 0.3 2.6-1.3 5.4-2.4 8-3.6 4.7 5.4 3.3 3.7 8.1 4.1 3 0.2 5.5-5.7 7.2 1.7 5.3-5.3-2.7-11.1-3.9-16.6 5.2 0.7 10.6 7 15.5 9.4 2.1-4.6-1.9-5.8-2.9-9.4-1-3.8 1.1-8.5-0.2-11.7 0.3 1.8 0.8 3.5 1 5.4 1.9-17-10.9-11.4-14.6-25.2-1.1-4.2 0.2-7.3-3-10.4-4.6-4.6-8.2 0.3-12.9 0.4-2.9-9.1 5.7-17.4-4.7-22.7-4.9-2.5-5.8-0.4-11.1 3.6 14.8-6 1.9 10.9 1.6 12.4-1 3.9 3.9 8.4 3.1 11.9-1.6 6.7-16.9 14.2-22.2 18.8 4.8 3.6 7.9 1 12.8 0.2 3 5.9-1 5.9-4.3 8.3"/>
			<path id="&lt;Path&gt;" class="s4" d="m225.1 502.5c3.7 1.6 9 1.9 13.2 1.1 0.4-4.9 6.6-7.5 9.8-10.7-3.6-3.3-4.9-9.2 0.2-12-1.3-2.7-2.5-5.5-3.7-8.1 5.4-4.6 3.7-3.3 4-8 0.2-3.1-5.6-5.6 1.8-7.3-5.4-5.2-11.2 2.8-16.6 4 0.6-5.2 6.9-10.7 9.2-15.5-4.5-2.1-5.7 1.9-9.4 2.9-3.7 1.1-8.5-1-11.7 0.3 1.9-0.3 3.6-0.8 5.4-1-16.9-1.9-11.3 10.9-25 14.7-4.2 1.2-7.3-0.1-10.5 3.1-4.5 4.6 0.4 8.2 0.5 12.9-9 3-21.1-5.6-26.3 4.9-2.4 4.9 3.4 5.7 7.4 11-5.1-12.2-0.1-4.5 12.4-1.6 3.9 0.9 8.4-4 11.8-3.2 6.8 1.5 14.3 10.1 19 15.3 3.5-4.8 0.9-1.1 0.1-6.1 5.8-3 5.9 1 8.3 4.3"/>
			<path id="&lt;Path&gt;" class="s5" d="m208.3 440.1c0.4-8 8.3-1 10.7 2.6 0.4-1.2 2.5-3.2 3-4.7 2.3 1.7 4.9 3.6 7.4 2 5.6 2.4 2.1 7.3 4.5 10.6 2.8 3.9 2.9 0 7.5 0.5 1.6 0.2 10.9 3.4 11.7 4.5 7.1 10.9-20.8 29.1-22.9 38.8-4-0.6-8.9-2.3-9.9-6.8-3.6 3.4-7.8 7.6-11.6 10.6 0.5-3.7 1.1-7.6 2.2-11.1-2.6-0.9-20.2 4-18.4-6.4 3.2 2.9 7 1.2 7.4-3.2 0.3-3.6-5.5-9-7.1-12.4 4.8-2.9 8.7-6.8 7.2-13.1 1.8 2.1 3.9 3 5.5 0.8-2.6-1.6-5.1-4.3-5.3-7 4.5 2 9.8-1 8.1-5.7z"/>
			<path id="&lt;Path&gt;" class="s5" d="m245.3 494.8c-6.7 4.3-5.6-6.3-4-10.3-1.3 0.4-4.1-0.1-5.6 0.4 0-3 0.2-6.2-2.6-7.3-1.3-5.9 4.7-5.9 6-9.7 1.6-4.6-1.7-2.5-3.9-6.5-0.7-1.4-3.5-10.9-3.1-12.1 4.8-12.1 35.7 0.1 44.9-3.8 1.8 3.7 3.2 8.7 0.2 12.1 4.8 1 10.7 1.9 15.3 3.3-3.3 1.7-6.8 3.6-10.3 4.6 0.8 2.7 15 14.2 5.4 18.7 0.5-4.3-3.1-6.3-6.9-4.1-3.1 1.9-4.1 9.6-6.1 12.9-5-2.3-10.5-3.2-14.7 1.7 0.6-2.7 0.1-5-2.7-5 0.3 3-0.5 6.7-2.6 8.4-0.1-0.8-7.2-6.3-9.3-3.3z"/>
			<path id="&lt;Path&gt;" class="s6" d="m275.7 490.7c-7.9 3.3-5.3-7-3.1-10.7-1.4 0.2-4.5-0.7-6.2-0.5 0.5-2.9 1-6-1.9-7.5-0.7-6.1 5.9-5.2 7.8-8.9 2.2-4.3-1.6-2.6-3.5-6.9-0.6-1.5-2.5-11.3-1.8-12.5 6.6-11.3 38.7 5 49.1 2.4 1.5 3.9 2.4 9-1.3 12 5.1 1.6 11.4 3.4 16.3 5.3-3.9 1.3-7.9 2.7-11.8 3.3 0.5 2.7 14.5 16.1 3.5 19.2 1.1-4.1-2.5-6.7-6.9-5-3.7 1.4-5.7 9-8.2 12-5.2-3-11-4.6-16.3-0.3 1.1-2.6 0.8-4.9-2.2-5.3-0.1 3-1.4 6.6-3.9 7.9-0.4-4.8-6-8.2-9.6-4.5z"/>
			<path id="&lt;Path&gt;" class="s0" d="m179.5 479.8c0 0 120.6 15.5 226.1 0 0 0-6.7-78.1-113.1-78.1-106.3 0-113 78.1-113 78.1z"/>
			<path id="&lt;Path&gt;" class="s7" d="m291.2 407.1c0 1-2.4 1.8-5.3 1.8-2.8 0-5.2-0.8-5.2-1.8 0-1 2.4-1.8 5.2-1.8 2.9 0 5.3 0.8 5.3 1.8z"/>
			<path id="&lt;Path&gt;" class="s7" d="m273.9 410.7c0 1-2.3 1.8-5.2 1.8-2.9 0-5.2-0.8-5.2-1.8 0-1 2.3-1.8 5.2-1.8 2.9 0 5.2 0.8 5.2 1.8z"/>
			<path id="&lt;Path&gt;" class="s7" d="m297.8 417.4c0 1-2.4 1.8-5.3 1.8-2.9 0-5.2-0.8-5.2-1.8 0-1 2.3-1.8 5.2-1.8 2.9 0 5.3 0.8 5.3 1.8z"/>
			<path id="&lt;Path&gt;" class="s7" d="m308.2 408.9c0 1-2.3 1.8-5.2 1.8-2.9 0-5.2-0.8-5.2-1.8 0-1 2.3-1.8 5.2-1.8 2.9 0 5.2 0.8 5.2 1.8z"/>
			<path id="&lt;Path&gt;" class="s7" d="m331.2 408.9c0 1-2.4 1.8-5.3 1.8-2.9 0-5.2-0.8-5.2-1.8 0-1 2.3-1.8 5.2-1.8 2.9 0 5.3 0.8 5.3 1.8z"/>
			<path id="&lt;Path&gt;" class="s7" d="m322.3 415.6c0 1-2.3 1.8-5.2 1.8-2.9 0-5.2-0.8-5.2-1.8 0-1 2.3-1.8 5.2-1.8 2.9 0 5.2 0.8 5.2 1.8z"/>
			<path id="&lt;Path&gt;" class="s7" d="m345.5 419.2c0 1-2.4 1.8-5.2 1.8-2.9 0-5.3-0.8-5.3-1.8 0-1 2.4-1.8 5.3-1.8 2.8 0 5.2 0.8 5.2 1.8z"/>
			<path id="&lt;Path&gt;" class="s7" d="m315.4 428.2c0 1-2.3 1.8-5.2 1.8-2.9 0-5.2-0.8-5.2-1.8 0-1 2.3-1.9 5.2-1.9 2.9 0 5.2 0.9 5.2 1.9z"/>
			<path id="&lt;Path&gt;" class="s7" d="m366.2 428.2c0 1-2.3 1.8-5.2 1.8-2.9 0-5.3-0.8-5.3-1.8 0-1 2.4-1.9 5.3-1.9 2.9 0 5.2 0.9 5.2 1.9z"/>
			<path id="&lt;Path&gt;" class="s7" d="m233.8 428.2c0 1-2.4 1.8-5.3 1.8-2.9 0-5.2-0.8-5.2-1.8 0-1 2.3-1.9 5.2-1.9 2.9 0 5.3 0.9 5.3 1.9z"/>
			<path id="&lt;Path&gt;" class="s7" d="m279.2 422.8c0 1-2.4 1.8-5.3 1.8-2.9 0-5.2-0.8-5.2-1.8 0-1 2.3-1.8 5.2-1.8 2.9 0 5.3 0.8 5.3 1.8z"/>
			<path id="&lt;Path&gt;" class="s7" d="m252.7 417.4c0 1-2.4 1.8-5.2 1.8-2.9 0-5.3-0.8-5.3-1.8 0-1 2.4-1.8 5.3-1.8 2.8 0 5.2 0.8 5.2 1.8z"/>
		</g>
		<g id="&lt;Group&gt;">
			<g id="&lt;Group&gt;">
				<path id="&lt;Path&gt;" class="s8" d="m789.3 610.3l8 14.1q6.7 14.2 17.1 9.1 8.7 2.7 15.2-2.5c3.6-2.6 6.5-4.3 8.4-9.2 13.3 9.5 23.9 10.2 32.3 6q18-7.7 20.1-23.7 7.6-96.6 0-104.5-8.6-19.5-19.3-18.7-6.1-4.4-11.5-4-5-8.4-14.9-6.8l-18.1 2.8c-3.3-6.2-12.1-8.4-20.4-7-10 1.3-17.8 4.4-23.2 11.2q-14.9 3.2-17.8 17.2-4.7 12.9 0.1 39.8l5.7 40.3q2.5 13.6 9.8 23.7 4.7 11 8.5 12.2z"/>
				<path id="&lt;Path&gt;" class="s9" d="m819.6 486.4c-0.9 6.1 6.2 5 8.3 8.2l9.9-5.9q3.2-26 16.5-35.9c6.4 5 13.9 4.3 15.9 0.5q4.8-11.1-2.7-18.9-12.6-3.4-19.2 7.3-22.6 9.8-28.7 44.7z"/>
				<path id="&lt;Path&gt;" class="s10" d="m822.5 484.6q10.7-37 24.8-40-12.1 14.8-14.3 40-6 4.1-10.5 0z"/>
				<path id="&lt;Path&gt;" class="s11" d="m772.9 506q1.7-13.2 12.5-17.1 9.7-3.5 16.2-0.1 6.3-2.4 17.2-2.2 5.1 0.7 8.8 6.5 5.3-6.8 12.9-9.1 13.3-1.6 17.3 2.7c4.8-0.7 14.1 3.3 14.1 3.3z"/>
				<path id="&lt;Path&gt;" class="s12" d="m774 535.4c1.1 8.3 12.8 48.9 13.7 56 1.1 8.2 4.1 12.5 8.5 18.3 3.7-5.1 1-12.3 0-20q-8.3-30.9-8.1-61.6l4.6-28.8-1.2-9.5c-3.6-5.1-16.7-2.1-19.2 3.5-4 8.9 0 29.3 1.7 42.1z"/>
				<path id="&lt;Path&gt;" class="s3" d="m827.6 493.1c0 0 8.7-10 17.7-10.6 9-0.6 11.3-0.9 18.3 0.6 7 1.4 14.1 8.3 6.5 13.4-7.6 5.1-24.6 12.5-25.9 19.7-1.3 7.2-1.5 71.9-3.9 85.4-2 11.5-9-26.8-14.3-52.1-4.3-20.6-4.6-50.8 1.6-56.4z"/>
				<path id="&lt;Path&gt;" class="s12" d="m875.7 620.3c7.3-4.7 8.9-17.6 10.6-27.8 2-11.5 2.4-18.1 2.2-29.7 0-6.9 1.2-10.4 1.4-17.4 0.1-3.4 1.7-11.2-1.4-12.4-1 4.3-1.6 10.7-2.6 15.1-3 13.5-0.7 33-3.2 35 1.4 18.8-33.8 22.2-7 37.2z"/>
			</g>
			<g id="&lt;Group&gt;">
				<path id="&lt;Path&gt;" class="s5" d="m957.3 571.9c14.1-65.8 1.8-96.9-39.8-103.5-25.4-2.6-47.4 0.1-50 68.4-1.6 57-54.4 69.9-26.2 112.2 48.7 44.7 106.8-15.7 116-77.1z"/>
				<g id="&lt;Clip Group&gt;" clip-path="url(#cp1)">
				</g>
				<path id="&lt;Path&gt;" class="s4" d="m942.2 485c11.6 48 8.2 109.8-47.1 158.2 65.1-84.2 39.5-138.9 32.3-162.6-9.5 41.9 7.3 88.6-66.2 163.4 69.8-98.7 46.4-131.6 54.6-171.4-29.1 26.1-5.4 94.2-72.7 148.5 57-62.8 33.8-127.4 55.7-145.5-19.8 4.5-23.1 31.6-29.1 57.5 1.4-20.9 3.1-34.6 6-44.4 9.1-21.4 24.7-22 41.8-20.3 41.6 6.6 53.9 37.7 39.8 103.5-3.1 20.3-11.5 40.5-23.1 56.9q-3.4 3.4-6.9 6.6c39.5-69.6 32.6-134.4 14.9-150.4z"/>
			</g>
			<g id="&lt;Group&gt;">
				<path id="&lt;Path&gt;" class="s8" d="m910.6 583.9c-0.6-35 27.5-64 62.8-64.6 35.2-0.6 64.3 27.4 64.9 62.5 0.6 35-27.5 63.9-62.8 64.6-35.2 0.6-64.3-27.4-64.9-62.5z"/>
				<path id="&lt;Path&gt;" class="s9" d="m934.1 523.1q16.3-5.2 29.3-3.3-0.4-6.7 2.3-12.3 7.4 2.7 18.7 11.9c15.8-0.1 28.4 4.2 29.9 7.1q-4 1.8-13.9 0.7c0.5 6.2 14.4 10.4 14.9 17.1-13.9 0.6-23.4-11.1-31.8-8.5l-13.2 18q-4.7-3.7-6.7-24.5c-11.6-0.9-28.8-1.8-29.5-6.2z"/>
				<path id="&lt;Path&gt;" class="s13" d="m975.4 524.7q3.7-16.9 11.8-28.6l6.4 2.6q-9.5 16.1-10.2 26.8-4.7 2-8-0.8z"/>
				<path id="&lt;Path&gt;" class="s9" d="m992.6 500.5c-1.1 1.3-3.2 1.4-4.7 0.2-1.6-1.2-1.9-3.2-0.8-4.5 1.1-1.3 3.2-1.3 4.7-0.1 1.6 1.1 1.9 3.2 0.8 4.4z"/>
				<path id="&lt;Path&gt;" class="s9" d="m976.8 523.6q5.3-20.4 11.2-21.9-5.3 8.1-6.8 22-2.6 2.2-4.4-0.1z"/>
				<path id="&lt;Path&gt;" class="s12" d="m943.7 570.6c3.8-2.6 9.2-10 9.1-15.9-0.1-10.4-2.6-14-10.3-13.9-12.6 0-25.7 20.9-25.4 37.9 0.4 19.7 5.5 27.1 11.6 37 3.3 5.3 9.8 14.1 14.7 17.9 0 0-2-2-5.2-10.5-5.1-14-4.8-14.4-5.1-29.3-0.1-8.3 4.9-16.7 9.3-21.7z"/>
			</g>
		</g>
		<path id="&lt;Path&gt;" class="s14" d="m448.7 811.5c0-8.4 72.1-15.1 151.6-15.1 79.6 0 136.4 6.7 136.4 15.1 0 8.3-56.8 15.1-136.4 15.1-79.5 0-151.6-6.8-151.6-15.1z"/>
		<g id="&lt;Group&gt;">
			<path id="&lt;Path&gt;" class="s15" d="m931.2 708.3h-52.7v-58.5h52.7z"/>
			<path id="&lt;Path&gt;" class="s15" d="m316.2 640h-52.6v-58.6h52.6z"/>
			<path id="&lt;Path&gt;" class="s16" d="m255.8 653.8c-8.6-0.9-14.8-8.7-13.8-17.3l0.5-5c1-8.6 8.7-14.8 17.4-13.8l676.5 75.7c8.6 0.9 14.8 8.7 13.8 17.3l-0.6 5c-0.9 8.6-8.7 14.8-17.3 13.8z"/>
			<path id="&lt;Path&gt;" class="s17" d="m123.8 558.7c36.5 28 109.2 45.4 166.1 45.4 56.9 0 129.6-17.4 166.1-45.4z"/>
			<path id="&lt;Path&gt;" class="s17" d="m738.7 627c36.6 28 109.3 45.4 166.2 45.4 56.8 0 129.6-17.4 166.1-45.4z"/>
			<path id="&lt;Path&gt;" class="s18" d="m667.2 796.5l-12.7-162.8c0-26.7-21.7-54.7-48.3-54.7h-15.3c-26.7 0-48.3 28-48.2 54.7l-12.8 162.8z"/>
			<path id="&lt;Path&gt;" class="s15" d="m624.4 673.6c0 14.3-11.6 25.9-25.9 25.9-14.3 0-25.8-11.6-25.8-25.9 0-14.3 11.5-25.9 25.8-25.9 14.3 0 25.9 11.6 25.9 25.9z"/>
			<path id="&lt;Path&gt;" class="s17" d="m520.5 810.5c-5.2 0-9.4-4.2-9.4-9.4v-3c0-5.2 4.2-9.4 9.4-9.4h151.2c5.2 0 9.4 4.2 9.4 9.4v3c0 5.2-4.2 9.4-9.4 9.4z"/>
		</g>
	</g>
</svg>