<svg version="1.2" xmlns="http://www.w3.org/2000/svg" viewBox="0 0 1500 1000" width="1575" height="1050">
	<title>5738232</title>
	<defs>
		<clipPath clipPathUnits="userSpaceOnUse" id="cp1">
			<path d="m1500 1000h-1500v-1000h1500z"/>
		</clipPath>
		<clipPath clipPathUnits="userSpaceOnUse" id="cp2">
			<path d="m1264.41 267.36c4.92-34.1 4.95-68.9-0.01-102.99-2.49-17.17-6.51-34.77-16.97-48.6-22.48-29.71-69.47-31.77-101.08-12.05-31.61 19.72-49.85 55.42-59.84 91.31-6.61 23.72-10.28 48.13-14.87 72.33z"/>
		</clipPath>
	</defs>
	<style>
		.s0 { fill: #ffffff } 
		.s1 { fill: #8cdec1 } 
		.s2 { fill: #074530 } 
		.s3 { fill: #222c5c } 
		.s4 { fill: #188a63 } 
		.s5 { fill: none;stroke: #ffffff;stroke-miterlimit:10 } 
		.s6 { fill: #ffffff;stroke: #ffffff;stroke-miterlimit:10;stroke-width: .5 } 
		.s7 { fill: #c56f45 } 
	</style>
	<g id="BACKGROUND">
		<path id="&lt;Path&gt;" class="s0" d="m1500 1000h-1500v-1000h1500z"/>
	</g>
	<g id="OBJECTS">
		<g id="&lt;Clip Group&gt;" clip-path="url(#cp1)">
			<path id="&lt;Path&gt;" class="s1" d="m984.7-376.7c-108.8 2.6-218.8 15-325.3 13.5-7.1 70.7 5.6 149.3 15.7 219.5 11.9 83.2 34 172.3 99.5 225 66.9 53.9 166.8 54.4 243.2 15.2 76.4-39.3 131.1-112.3 165-191.2 32.7-76.3 54-166.2 72.6-245.5 15.4-66.2-76.1-41.1-119-40.1q-75.8 1.8-151.7 3.6z"/>
			<path id="&lt;Path&gt;" class="s2" d="m1600.4 25.1c31.8-35.9 44.4-72.5 0.5-102.3-26.4-17.9-56.5-39.7-87.1-49.5-78.2-25.3-184.4 11.5-253.1 48.6-38.2 20.6-72 47.2-87.9 88.7-7.8 20.5-5.3 45.4-6.9 67-1.3 19.1-6.4 37.9-5.5 57 1.8 36.9 63.4 47.4 93.7 53.9 44.5 9.5 90.9 9.7 135.3-0.1 32.8-7.2 64.7-19.7 92-39.2 24.8-17.8 45.3-40.9 65.5-63.7q26.8-30.2 53.5-60.4z"/>
			<path id="&lt;Path&gt;" class="s1" d="m414.2 1161.3c-63.4 3.9-126.9 1.7-186.8 27.3-25.1 10.7-48.7 25.1-74.5 34.3-58.4 21-122.7 14.3-184.2 22.4-37.6 4.9-75.5 15.4-112.7 8.2-23.6-4.5-45.4-16-65.3-29.6-34.7-23.8-66.8-59.7-65.3-101.7 1.1-34.2 24.6-62.8 46.3-87.2 50.5-56.6 140.2-73.8 204.3-111q36.4-21.1 72.8-42.2c6.4-3.7 13.1-7.6 17.7-13.5 5.6-7.1 7.6-16.3 10.7-24.8 13.1-35.6 50.6-60.6 88.5-59 21.7 0.9 42.4 9.5 64 12.1 64.1 7.4 112.7-35.8 170-50.7 50.3-13.1 88 35 93.2 81.7 4.4 40.6-8.8 80.7-19 120.2-3 11.6-5.6 24.1-1.2 35.2 5.1 12.5 17.9 19.8 28.7 27.9 21.5 16.1 56 53.7 50.7 82.5-1.6 8.2-4.3 16.7-10.5 22.3-4.5 4-10.4 6.1-16.1 8.1-34.4 12.1-74.6 37.5-111.3 37.5z"/>
			<path id="&lt;Path&gt;" class="s1" d="m1045.6 751.5c0.6 28.9 2.1 57.7 4.6 86.4 4.7 54.9 13.2 110.2 35.4 160.7 22.2 50.4 59.5 96 109.6 118.9 22.1 10.1 46.7 15.6 70.8 13.3 41.8-4 78.4-31 104.5-63.8 49.2-61.9 66.4-142.8 78-221 4.7-31.4 8.6-62.9 11.5-94.5z"/>
			<path id="&lt;Path&gt;" class="s1" d="m204.5 430.1c-30-4.5-59.3-10-81.6-29.5-17.2-15.2-27.3-29.4-51.9-29.5-17-0.1-32.3 8.7-49.2 9.7-51.3 3.4-77.4-39.3-105.6-74.5-22-27.4-57.1-52.8-89.7-39.7-10.2 4.1-19.3 11.8-30.2 12.5-11.4 0.7-22.6-6.3-33.7-3.7-6.7 1.5-12.1 6.3-16.7 11.4-20 22.3-29.3 53.8-24.5 83.4 1.8 11.1 5.4 22 5.8 33.3 1.3 35.6-23.1 64.6-18.5 100.9 4.6 36.8 29.2 62.6 61.9 78.8 121.3 60.1 269.1 64.1 393.4 10.6 35-15.1 64.6-34.9 97.4-53 28.8-15.9 48.1-21.8 43.6-62-0.5-4.6-1.2-9.3-3.4-13.3-2.9-5.7-8.3-9.6-13.8-12.9-24.6-14.6-54.3-18.1-83.3-22.5z"/>
			<g id="&lt;Group&gt;">
				<path id="&lt;Path&gt;" class="s2" d="m224.1 353.7c1.6-33.5 6.7-66.8 8.1-100.3-28.5 4.4-53.3 31.3-45.4 60.8 3.7 13.8 12.7 25.7 22.4 36.2 4.1 4.4 8.8 8.7 14.6 9.7q0.1-3.2 0.3-6.4z"/>
				<path id="&lt;Path&gt;" class="s2" d="m216.2 382.5c-11.3-10.9-22.8-22-32-34.8q-2.3-3.2-4.4-6.6c-9.7-15.6-15.4-34.5-11.9-52.6 2.7-13.4 10.7-25.4 21.5-33.5 9.4-7 41.6-11.7 41.2-28 0-0.3-0.1-0.6-0.2-0.9q0-0.4-0.1-0.8c-0.9-3.1-3.9-5.6-7.1-6.4-3.8-1.1-7.8-0.3-11.6 0.7-19.6 5.1-37.2 17.5-48.7 34.2-33 48.1-8.7 115.7 36.4 146.1 3.9 2.6 8 5.1 12.6 5.7 4.6 0.5 9.9-1.4 11.7-5.7 2.7-6.2-2.5-12.7-7.4-17.4z"/>
			</g>
			<path id="&lt;Path&gt;" class="s2" d="m-66.9 833.4q1.7-7.8 3.1-15.6c5.7-31.5 6.9-64.5 20.7-93.4 13.8-28.9 45.2-53 76.2-45 32.7 8.4 47.9 46.7 49.4 80.4 0.7 13.8-0.1 27.8 2.9 41.3 13.6 62.3 84.9 110.3 146.4 111.8 16.2 0.3 32.8-1.9 48.5 2.3 9.8 2.5 18.8 7.5 27.6 12.6 12.7 7.4 25.5 15.4 34.3 27.2 8.7 11.7 12.7 28.2 6.1 41.3-3.9 7.9-11.1 13.6-18 19.1-25.7 20.1-52.8 40.1-84.6 47.5-60.8 14.1-122.5-20.9-184.9-19.7-25.7 0.5-51.3 7.1-76.7 4.1-57.6-6.8-114.2-79-81.2-135 14.3-24.3 23.9-51.4 30.2-78.9z"/>
			<path id="&lt;Path&gt;" class="s1" d="m1556.9 170.8c3.8-5.5 8.4-10.5 12.1-16 19.3-28.3 13.6-70.1-11.1-93.7-24.7-23.6-65.1-27.9-95.4-11.9-30.2 16-49.1 50.3-48.8 84.5 0.1 14.9 3.1 31.2-5.1 43.6-9.1 13.6-27.6 16.2-43.3 21.1-15.1 4.7-29.5 12.9-39.5 25.2-9.9 12.4-15 29.1-11.3 44.5 2.2 9.1 7.2 17.4 9.4 26.5 6 24.7-8.3 35.8-24.9 48.3-17.7 13.3-29.5 35.1-24.9 57.8 4.2 20.8 22.2 36.4 41.7 44.6 35.2 14.8 78.2 8.9 108.1-14.8 18.3-14.6 31.4-32.4 51.5-44.4 21.8-13 44.9-25.1 64.3-41.6 21.7-18.5 38.7-46.1 34.5-74.3-2.3-15.8-10.9-29.7-17.4-44.3-6.5-14.5-11-31.4-5-46.1 1.4-3.2 3.1-6.2 5.1-9z"/>
			<path id="&lt;Path&gt;" class="s3" d="m1129.4-62.1c6.4-16 15.6-32.2 17.4-43.5 1-6.6 1.6-13.4 4.1-19.6 6.5-16.4 25.1-25.6 42.6-25.3 17.6 0.2 34.2 8.1 49 17.6 10.6 6.9 21.9 17.3 19.9 29.7-1 6.3-5.3 11.5-9.3 16.4-24.6 29.2-63.3 91.2-111.3 74.2-24-8.4-20.6-28.7-12.4-49.5z"/>
			<path id="&lt;Path&gt;" class="s4" d="m1394.8 488.4c20.8-5.2 41.8-12.3 57.7-26.6 11.2-10 19.2-23.1 30.4-33.1 18.7-17 46.7-24 70.5-15.4 23.8 8.6 41.3 33.5 39 58.7-2.2 22.9-13.4 56.6-30.6 72.1-16.5 14.8-32.8 23-54.8 25.9-25.6 3.4-48.9 4.3-64.9 27.3-12.9 18.6-24.8 28.1-49.1 29.7-20.2 1.4-41.6 1.3-59.6-8.2-18-9.4-31.1-30.9-24.8-50.2 6.2-19 27.7-28.5 38.5-45.4 3.7-5.8 6.1-12.4 10.5-17.7 8.4-10.1 22.2-13.4 35-16.5q1.1-0.3 2.2-0.6z"/>
			<g id="&lt;Group&gt;">
				<g id="&lt;Group&gt;">
					<path id="&lt;Path&gt;" class="s3" d="m1390.3 298.8c-1.2-0.3-2.3-0.4-3.5-0.1-1.1 0.2-2.2 0.6-3.2 0.9q-3 1-6 1.9c-4.1 1.4-8.1 3.1-12.2 4.5-1.5 0.4-0.9 2.5 0.6 2.2 4.2-0.9 8.6-1.5 12.8-2.3q3.1-0.7 6.1-1.4c1.1-0.2 2.2-0.4 3.3-0.8 1.1-0.4 2-1 2.9-1.8 1-0.9 0.5-2.8-0.8-3.1z"/>
					<path id="&lt;Path&gt;" class="s3" d="m1396.6 338.5c-9.3 5.7-18.5 11.8-27.6 17.8-2.1 1.4-0.3 4.6 2 3.4 9.6-5.3 19.2-10.5 28.6-16 3.3-2 0.3-7.2-3-5.2z"/>
					<path id="&lt;Path&gt;" class="s3" d="m1424.8 311.8c-16.5 3.8-32.2 10.2-47 18.3-2.2 1.2-0.3 4.2 1.9 3.3 15-6.8 30.7-11.9 46.7-15.9 3.7-0.9 2.1-6.6-1.6-5.7z"/>
				</g>
				<g id="&lt;Group&gt;">
					<path id="&lt;Path&gt;" class="s3" d="m1363.8 262.2l-1.5-9.9c29.4-4.6 59.5-5.2 88.6-5.7 24.3-0.5 49.5-1 73.9-3.8l1.1 9.9c-24.9 2.9-50.3 3.4-74.8 3.9-28.8 0.5-58.6 1.1-87.3 5.6z"/>
				</g>
			</g>
			<path id="&lt;Path&gt;" class="s4" d="m1264.4 267.4c4.9-34.1 5-68.9 0-103-2.5-17.2-6.5-34.8-17-48.6-22.5-29.7-69.4-31.8-101-12.1-31.7 19.7-49.9 55.4-59.9 91.3-6.6 23.7-10.3 48.2-14.9 72.4z"/>
			<g id="&lt;Clip Group&gt;" clip-path="url(#cp2)">
				<path id="&lt;Path&gt;" fill-rule="evenodd" class="s5" d="m1201.8 29.2c-37.7 15.4-66.8 47.2-86.6 82.8-19.8 35.6-31.4 75-42.8 114.1 6.6 5.5 16.5 1.2 23.6-3.6 44.7-30 79.1-75 96.3-125.9 5.5-16.5 9.2-34.9 2.4-50.9-9.8 1-16.6 9.9-22.2 18.1-15.1 22.1-30.3 44.7-37.8 70.4-7.5 25.7-6.1 55.4 10.2 76.6 3.3 4.4 7.5 8.5 12.7 10 10.5 3 20.9-4.9 28.4-12.8 27.1-28.7 45.3-65.6 51.6-104.5 2.1-13.2 0.2-30.8-12.8-34.2-12.1-3.1-22.2 9.2-27.6 20.4-13.3 27.7-18.3 63.5 1.6 86.9 6.3 7.5 15.5 13.3 25.4 13.2 16.1-0.3 27.7-15.2 35.4-29.3 15.5-28.3 26-59.2 30.8-91 1.2-7.8-1.2-19-9-17.9-2.9 0.5-5.1 2.8-7 5.1-23.5 28.5-33.7 67.4-27.3 103.7 2.3 12.8 7 25.9 17.1 34.2 10 8.3 26.4 9.8 35.5 0.4 8.7-9.2 15.8-8.2 12.2-20.4-2.2-7.4-9.9-11.7-17-14.9-58.7-26.4-125.9-33.4-188.7-19.7-12.5 2.7-27.7 10.1-26.3 22.8 1.2 10.7 13.4 15.8 23.7 18.5 42.8 10.8 87.3 14.5 131.2 11 19.4-1.6 39.2-4.7 56-14.4 2.6-1.5 5.2-3.3 6.4-6.1 3.4-8.3-8.4-14.4-17.4-15.5-40.9-5.1-82.6-3.9-123.2 3.6-27.4 5.1-56.4 14.4-72.8 37.1-1.4 1.9-2.8 4.2-2.1 6.5 0.6 2.3 2.9 3.6 5.1 4.6 67.5 31.8 149.3 31.4 216.6-1-15.8-12.7-37.7-13.8-58-14.3-36.1-0.9-72.5-1.7-107.9 5.3-35.4 7-70.1 22.7-93.8 49.9 9.2 10.6 23.9 14.1 37.7 16.4 55.3 9.4 112.1 9.3 167.4-0.1 26.2-4.5 55.3-13.7 66.5-37.8-11.1-13.1-30-15.9-47.1-15.8-41.5 0.2-82.8 12.5-117.6 35.1-7.2 4.7-15.1 11.5-14.2 20.2 0.7 6.9 7.1 12.1 13.9 13.7 6.7 1.5 13.7 0.3 20.5-1 35.3-6.4 52-19.2 80.2-41.5 21.2-16.7 40.9-39.8 40.9-67 0-3.9-0.6-8.2-3.2-11.1-5.3-5.9-15.1-3.1-21.9 0.8-36 20.8-57.7 63.9-53 105.2 0.5 4.5 1.4 9.3 4.3 12.9 8.3 10.4 25.4 4 35-5.3 32.2-31.1 35.6-87.3 7.3-122.1-10-12.4-24.8-22.4-40.7-21.4-13.8 1-25.8 10.1-35 20.4-26.5 29.6-36.9 72.7-26.8 111.2 2.3 8.7 7.2 18.6 16.2 19.5 8.2 0.9 14.9-6.1 19.6-12.8 15.2-21.9 25-47.5 28.3-74 1.3-10.9 1.5-22.3-2.2-32.7-8.7-24.9-39.7-37.8-65-30.4-25.3 7.4-43.5 31.7-48.1 57.7-4.7 25.9 2.7 53 15.9 75.8 2.7 4.7 5.9 9.4 10.7 11.8 8 4 17.6 0.2 25.4-4.1 44.9-24.5 79.5-67.2 94.4-116.1 6.2-20.4 8.1-45.1-6.5-60.7-13.6-14.4-37.2-15.1-55.4-7-25.6 11.4-42.5 36.4-54.1 61.9-11.5 25.4-19.3 52.5-22.8 80.2-1.1 8.3-1.7 17.3 2.5 24.5 4.7 8.2 14.5 12.3 23.9 12.3 9.4-0.1 18.4-3.8 26.7-8.1 43-22.4 74.3-66.1 81.7-114 2.3-15.4 1.4-33.5-10.8-43.3-11.3-9.2-27.9-7.4-41.9-3.4-32.8 9.3-62.9 27.9-85.8 53.1-10.2 11.2-19.2 24.1-22.2 38.8-5.5 27.3 12 56 36.9 68.3 25 12.4 55.3 10.2 81-0.4 43.3-18 75.5-60.4 81.3-106.9-13.4 0-24.8 9.5-33.9 19.3-21.3 23-37.2 50.9-46.2 80.9-2.1 7-3.8 14.4-2.4 21.6 3.3 17.4 19.1 18.6 29.6 6.3 5.1-5.9 7.9-13.4 10.2-20.8 4.1-13.5 6.6-28.8-0.5-41-5.8-9.9-16.9-15.6-27.9-19.2-1.5-0.5-3.1-1-4.6-0.4-2.2 1-2.7 3.9-2.6 6.4 0.6 23.5 19 42.2 36.2 58.2 2.3 2.2 4.9 4.4 8.1 4.4 4.4-0.1 7.3-4.7 8.9-8.8 6.9-17.4 7.1-37.4 0.5-55-6.6-17.5-19.8-32.5-36.4-41.2-12.9-6.7-30.4-8.9-40.8 1.1-10.4 10.1-9 27.1-4.9 41 3.8 12.6 9.3 25.1 19 33.9 3.4 3 7.5 5.7 12 5.5 7.1-0.3 12-7.3 14.6-13.9 7.8-19.2 7.2-41.6-1.5-60.4-5.6-12.1-14.8-22.9-27-28.3-12.2-5.4-27.4-4.6-37.8 3.8-6.1 4.9-10.2 12-13.1 19.4-5.1 12.7-7.2 26.6-6.1 40.2 0.7 9.4 3 18.9 8.6 26.3 3 4 7.7 7.5 12.5 6.5 5.9-1.3 8.5-8.2 9.2-14.2 1.7-14.1-1.2-28.7-8.2-41-4.2-7.4-10.4-14.3-18.6-16.3-10.9-2.6-21.9 4.2-29.3 12.5-14.1 15.6-20.6 37.2-20.2 58.2 0.2 13.1 3.1 26.6 11.1 36.9 3.8 4.8 10 9.1 15.6 6.6 3.2-1.4 5.2-4.7 6.7-7.8 5.9-12.2 9.3-25.5 9.8-39 0.2-6-0.2-12.3-3-17.6-2.8-5.3-8.5-9.5-14.5-9-4.1 0.4-7.7 2.9-10.7 5.8-7.2 7-11.3 16.6-13.8 26.3-2.6 9.9-3.7 20.4-1.3 30.4 2.5 10 8.9 19.3 18.2 23.6"/>
			</g>
			<g id="&lt;Group&gt;">
				<path id="&lt;Path&gt;" class="s4" d="m1323.3 95.5c0-0.1-0.1-0.1-0.2-0.1q-0.3-0.3-0.4-0.7-0.3-0.3-0.3-0.8v-0.7c0-0.2 0.1-0.3 0.1-0.5-16.4 10.6-23.1 29.1-30.5 46.6h27.5q0.1-0.7 0.1-1.4c0.8-9.9 2.5-19.7 3.4-29.5 0.4-4.2 0.7-8.4 0.4-12.5q-0.1-0.2-0.1-0.4z"/>
				<path id="&lt;Path&gt;" class="s1" d="m1345.8 68.6c-8.5-6.6-22.4-2.3-30.9 2.2-10.3 5.5-18.9 14.2-25.7 23.6-9.4 13-15.2 28.8-16.1 44.9h11.1c8.9-19.9 15.9-41.6 35.5-53.3 2.6-1.6 5.3 0.4 5.7 2.6 1 1.2 1.6 2.9 1.9 4.7 0.7 4.1 0.4 8.5 0.1 12.7-0.4 5.3-1.1 10.7-1.7 16-0.7 5.3-1.4 10.5-1.9 15.8 0 0.4 0 1-0.1 1.5h22.9c2.3-11.5 3.8-23.1 4.5-34.7 0.6-10.7 4.5-28.4-5.3-36z"/>
				<path id="&lt;Path&gt;" class="s4" d="m1334.4 37.2c-0.5 1-0.8 1.8-1 2.7-0.6 2.1-0.9 4.2-1.1 6.4l9.7-1.3q0.1-0.2 0.2-0.4 0.5-2.5 0.7-5 0-0.3 0-0.7c0 0 0 0 0 0 0 0 0 0 0-0.1q0-0.5 0-1.1 0-1.1-0.1-2.2-0.1-0.8-0.2-1.7c0-0.1-0.1-0.5-0.2-0.7q-0.1-0.4-0.3-0.7 0-0.1-0.1-0.2c0-0.1 0-0.1 0-0.1q-0.2-0.2-0.3-0.4 0-0.1-0.1-0.1 0-0.1-0.1-0.1 0 0-0.1 0 0-0.1-0.1-0.1 0 0 0 0 0 0-0.1 0 0 0-0.1 0c-0.1 0-0.3 0-0.4 0q0 0 0 0 0 0 0 0-0.2 0.1-0.4 0.1-0.2 0.1-0.4 0.2c-0.1 0.1-0.1 0.1-0.1 0.1-1.6 0.9-2.9 2.1-4.1 3.4-0.7 0.8-0.9 1-1.3 2z"/>
				<path id="&lt;Path&gt;" class="s1" d="m1353 22.5c-0.2-2.6-0.6-5.4-2.3-7.4-1.8-2.2-5.1-3-7.9-2.5-2.9 0.6-5.4 2.2-7.6 4.2-8.5 7.7-11.8 19.6-13.6 30.9l7.4-0.9c0.3-3.6 0.8-7.2 2.2-10.5 0.9-2.3 2.3-4 4.1-5.7 1.4-1.2 3-2.5 4.8-3.1 3.2-1 5.9 0.6 7.1 3.6 1.2 3.1 1.1 6.6 0.8 9.8q-0.2 1.8-0.5 3.6l4.6-0.6c1.1-7.1 1.4-14.3 0.9-21.4z"/>
				<path id="&lt;Path&gt;" class="s4" d="m1375.8 92.1c1.3-4.5 2.8-9.4 6-12.9 4.2-4.6 11.7-3.7 14 2.4 0.9 2.5 0.8 5.2 0.6 7.8q2.5-0.3 5-0.6 1.1-9.9 1.1-20c0-6.2-0.7-13.6-5.2-16.6-2-1.5-4.5-1.6-6.8-1-5.4 1.2-10 5.3-13.4 10.6-3.4 5.2-5.7 11.5-7.5 17.9q-1.8 6.6-3.1 13.5 4.7-0.5 9.3-1.1z"/>
				<path id="&lt;Path&gt;" class="s4" d="m1383.1 9.8c0.3-5.4 1.6-10.8 3.9-15.7 1.6-3.7 3.9-7.2 7.1-9.5 3.3-2.4 7.7-3.4 11.5-1.8 3.9 1.6 6.3 5.7 7 9.9 0.8 4.2 0.1 8.5-0.5 12.7"/>
				<path id="&lt;Path&gt;" class="s4" d="m1421.3 38.5c0-7.9 3.5-15.7 9.4-20.9 3.1-2.8 8-4.8 11.2-2.2 2.1 1.7 2.6 4.7 2.7 7.4 0.2 5.1-0.3 10.2-1.4 15.2"/>
			</g>
			<g id="&lt;Group&gt;">
				<g id="&lt;Group&gt;">
					<path id="&lt;Path&gt;" class="s6" d="m271.6 935.3c-11.5-3.5-23.5-5.5-35.5-6.7-23.5-2.3-47.7-0.1-70.3 5.8-43.9 11.5-80.7 37.6-106 70.9-14.2 18.6-27.8 49.6-34.3 71.3 4.4 0.4 8.7 0.9 13.1 1.5 13.9-44.4 48.9-94.7 94.5-118 24.7-12.6 53-19.5 81.5-19.9 13.8-0.3 27.5 0.8 40.9 3.6 6.5 1.3 12.9 3 19.2 5 5.6 1.8 11 4.3 16.6 5.9 1.8-3 3.7-5.9 6.1-8.6-7.4-5.2-17.3-8.2-25.8-10.8z"/>
					<path id="&lt;Path&gt;" class="s6" d="m265.7 969.3c-15-9.1-35.6-10.3-52.2-8.2-21.6 2.8-42.8 12-61.2 23.5-33.4 20.9-60.1 52-75.2 88.4-2.5 6.2-4.2 14-9 18.8-4.5 4.3-11.3 5.5-17.2 6.6-15.6 3-30.3 1.2-45.9 1.6-5.2 0.2-6.4 7.7-1.3 9.2 11.1 3.2 24 2.5 35.4 1.3 9.8-0.9 20.8-2.1 29.7-6.7 8.7-4.5 12.4-12.5 15.7-21.3 3.7-9.6 8.1-18.8 13.3-27.7 21-35.4 54.5-63.8 93.5-77.5 13-4.6 26.4-7.2 40.3-6.5 10.5 0.5 20.4 3.6 30.5 5.9q1.7-3.7 3.6-7.4z"/>
				</g>
				<path id="&lt;Path&gt;" class="s0" d="m289.6 911.6c-39.2-31.8-97.2-18.2-140.7-3.4-26.7 9-52.7 20.5-77.2 34.3-23.9 13.4-47.9 29-76.6 26.1-9.1-1-8.9 13 0 14.1 24.8 3 47.8-8.2 68.6-20.4 23.8-13.8 47.1-27.9 72.8-38 47.9-18.8 101.6-31.8 150.7-9.5 1.9 0.8 4.3-1.6 2.4-3.2z"/>
				<path id="&lt;Path&gt;" class="s0" d="m299.1 879.1c-13.2-9.1-27.6-20.2-42.9-25.4-15.2-5.2-32.6-1.7-48.2-0.4q-25.8 2.2-51.7 4.4c-30 2.5-59.9 6.3-85.2 24.1-12.9 9-24.5 19.9-38.1 28.1-14.2 8.4-29.6 12.2-44.3 19.1-4.2 2-2.1 8.7 2.3 8.6 25.4-1 50.5-18.4 69.7-33.5 12.1-9.5 24-19.1 38.5-24.6 13.4-5 27.6-7.4 41.7-8.9 29.9-3.2 59.9-5.6 89.8-7.7 7.6-0.5 15.1-0.8 22.4 1.7 7.5 2.6 14.4 7.4 21.2 11.3 12.2 6.9 28.5 12.3 34.4 25.9 0.8 1.9 3.6 1.1 4.1-0.5 3.3-9.9-6.4-17.2-13.7-22.2z"/>
				<path id="&lt;Path&gt;" class="s0" d="m292 836c-26.4-11.2-55.2-2.4-82.5-0.4-29.9 2.1-60.1-5.6-89.8 0.5-24.5 5.1-43.3 21.3-63.2 35.3-11.8 8.2-24.4 15.8-38.7 18.4-13 2.4-26.2 1.2-36.5 10.8-2.9 2.6 1 7.9 4.2 5.5 12.2-9 28.7-6.3 42.6-10.7 12.7-4.1 24-11.3 34.7-18.9 11.1-8 21.8-16.6 33.7-23.3 15.3-8.6 31.8-11.7 49.2-11.8 17.2 0 34.2 2.2 51.3 2.2 16.6-0.1 33-3.1 49.5-4.2 17-1.1 34.9-0.7 49.9 8.5 14 8.6 23.1 23.8 25.8 39.8 0.4 3 5.4 2.3 5.2-0.7-1.5-22.2-14.6-42.1-35.4-51z"/>
				<path id="&lt;Path&gt;" class="s0" d="m269.4 933.9c-18.5-18.5-43.6-19.8-68.4-18-26.3 1.9-51.1 7.4-74.8 19.3-47.4 23.7-86.7 65.6-118.4 107.3-1.7 2.2 1.9 4.9 3.7 2.9 34.5-36.1 64.7-75 108.9-100.2 22.5-12.8 47.4-21 73.2-24 12.2-1.4 24.8-2.5 37.1-1.4 14.3 1.2 25.9 7.6 37 16.2 1.3 1 2.7-1 1.7-2.1z"/>
			</g>
			<path id="&lt;Path&gt;" class="s2" d="m-93.8 381.6c37.5 53.1 69.1-44.6 93.3-77.5 34.4-46.9 179.3-33.4 158.6-120.6-7.9-33.7-51.9-59.4-39.9-91.9 9.7-26 45.2-26.8 72.9-28.5 24.3-1.5 49.1-7.8 68-23.1 18.9-15.3 30.7-41 24.7-64.6-6.1-23.8-28.7-40.6-52.5-46.8-23.8-6.2-48.9-3.6-73.4-0.8q-50 5.8-99.9 12.9c-36.5 5.3-74.3 11.6-105.1 31.9-34.6 22.9-56.6 61.3-67.5 101.2-11 40-12.1 81.9-12.8 123.4-0.9 55.5-0.7 113.1 22.2 163.7 3.9 8.6 7.7 15.4 11.4 20.7z"/>
			<path id="&lt;Path&gt;" class="s3" d="m1512.1 1148.3c-1.4-4.5-7.9-2.6-7.1 1.9 5.1 26.9 7 57.8-8.8 81.6-6.2 9.4-15.3 17.5-26 21.5-13.1 4.8-27.1 2.1-40.6 0.1-25.1-3.6-52.3-3.3-74.4 10.8-8.9 5.7-16.8 13.3-22.1 22.5-7 11.8-7.1 24.6-9.4 37.8-3.5 20.2-21.6 35-42.1 35.1-2.5 0-5-0.2-7.4-0.7-0.8-0.1-2.9-1-4.5-1.5 0.5-1 0.8-2.9 1-3.6q1.9-6.2 3.8-12.4c3.8-12.2 7.4-24.4 11.8-36.4 8.2-22.7 19.8-45.6 40.8-58.8 21.4-13.5 47.5-16.1 72.2-16.8 25-0.7 57.3-2.5 69.1-29.1 5.9-13.4 2.6-27.4 1.4-41.4-1.1-14.4 2.6-27.9 14.8-36.6q1.2-0.9 1.9-2 0.4 0 0.8 0c6.4-0.5 10.2-9.7 3.5-13.1-7.2-3.6-14.5-4.8-21.7-4.3-12.9-3.3-26.9-1.2-39.3 4.5-19.5 9-30.7 25.2-39.4 44-2.5 5.6-5 11.3-8.1 16.8q-3.1 4.1-6.1 8.3-0.8 1.1-1 2.2c-0.3 0.3-0.5 0.6-0.8 0.9-8.3 9.1-19.6 12.2-31.5 13.8-11.8 1.7-23.9 2.1-35.3 5.9-9.6 3.3-18.2 8.6-25.5 15.6-10.1 9.7-17.4 21.8-23.4 34.5-5.2 8.9-9 18.6-11.4 28.6-2 8.9 10.5 12.2 13.6 3.7 2.9-8.2 6-16.6 9.7-24.7 5-8.8 11.5-16.7 19.3-23.4 14.6-12.8 32.1-18.5 50.8-21.9 17.9-3.3 37-5.4 52.9-15.1 18.1-10.9 23.3-30 35.8-45.7 8.7-10.9 20.2-19.4 33-24.7-2.2 3.7-4 7.7-5.2 12-3.8 14 0.3 27.9 0.7 42 0.9 35.2-39.6 34.3-64.7 35.3-26.2 1.1-54.1 5.2-76.2 20.5-21.5 14.9-34.1 38-43.1 62-4.9 13-8.8 26.4-12.9 39.6-3.4 11-12.4 26.8 2.4 32.7 19.8 7.9 43.5 1.1 58.5-13.3 8-7.8 13.3-17.8 15.3-28.8 2.5-14.4 2.2-28.2 11.8-40.1 18.9-23.6 51.7-25.1 79.3-21.4 15.9 2.1 32 4.5 47.3-1.7 12.1-4.9 22-13.8 29.3-24.4 19-27.4 16.2-61.9 7.2-92.3z"/>
			<g id="&lt;Group&gt;">
				<path id="&lt;Path&gt;" class="s2" d="m1500 643.7q-2.6 1.3-5.1 2.6c-32.6 17.3-57.6 45.2-65.7 76.7-8.2 31.5 1.4 66.4 27.2 90.4 11.9 11 27 19.3 43.6 24.4z"/>
				<path id="&lt;Path&gt;" class="s2" d="m1439.6 626.5c-9.3-1.8-18.8 7.3-25.6 12.8q-0.4 0.3-0.7 0.6c-25.1 17.2-43.9 41-50.7 67.5-4.4 17-3.6 34.9 2 51.5 2 10.6 5.7 20.8 11 30.2 5.8 10.1 13.7 18.6 22.4 26.2 9.8 8.4 19.5 15.5 25.7 27.2 3.6 6.8 13.9 0.8 10.4-6.1-9.6-18.6-28.1-29.1-40.7-45.1-13.2-16.9-18.3-38.7-17-59.8 1.4-21 10.1-41 22.6-57.7 6.7-9 14.6-17 23.2-24.2 6.4-5.3 17.5-10.4 19.8-18.9 0.5-1.6-0.6-3.8-2.4-4.2z"/>
				<path id="&lt;Path&gt;" class="s2" d="m1485.6 614c-11.3 19.8-37.3 29.2-55.6 41.7-14.3 9.6-30.7 25.5-30.5 44 0.1 2.3 2.7 2.6 3.9 1.1 12.7-16.7 24.4-31.6 42.1-43.6 16.5-11.3 33.1-22.7 50-33.3 10.3-6.5-4.1-20.1-9.9-9.9z"/>
				<path id="&lt;Compound Path&gt;" fill-rule="evenodd" class="s2" d="m1140.5 981.2c-4.8 2.9-9.3-3.3-6.7-7.1-13.8-18.2-23-39-26.2-61.8-1.5-10.9-1.4-35 16.1-32.4 18.9 2.9 25.9 33.9 28.2 48.8 2.8 18 7.1 41.6-11.4 52.5zm1-56c-1.1-6.5-2.7-12.9-5.2-19-1.3-3-2.5-5.8-4.3-8.5-3.9-6-4-7.6-11.4-5.1-8.4 2.9-7 6.8-6.6 14.5 0.2 4 0.8 8.1 1.4 12 1.2 6.4 2.8 12.7 4.9 18.8 4 12 9.9 23 17 33.3 12.1-9.6 6.6-32.9 4.2-46z"/>
				<path id="&lt;Path&gt;" class="s2" d="m1064.5 819.5c-9.8 1-11.8 12.1-10.9 21.8-2.2 8.9-4 19.2 3.6 25 12.3 9.3 19.4-7.1 20.9-16.9 1.3-9.1 0.3-31.3-13.6-29.9z"/>
				<path id="&lt;Compound Path&gt;" fill-rule="evenodd" class="s2" d="m1015.7 819.5c-13.1 5.4-43.2 11.4-42.8-11.6 0.2-9.4 6.5-16.4 14.9-21.4 0.5-1.1 1.2-2.1 2.4-2.9 12.7-8.8 43.1-23.2 51.5-1.6 7 17.9-11.8 31.5-26 37.5zm16-30.1c-3.7-18.6-61.6 18.6-39.6 23.3 4.5 1 10.6-1.4 14.8-2.7 7.1-2.3 27-9.9 24.8-20.6z"/>
			</g>
			<path id="&lt;Path&gt;" class="s4" d="m82.4 467.7c-13.1 10.3-25.5 21.6-35.3 35.1-25.5 35.1-36.8 104 25.8 105.7 17.9 0.5 34-9 44.5-23 12.7-17-0.9-46.1 7-67.8 4.3-11.8 11.3-22.9 13.3-35.4 2.1-12.4-2.7-27.5-14.7-31.5-10.7-3.5-22 3.1-31.1 9.8q-4.8 3.5-9.5 7.1z"/>
			<g id="&lt;Group&gt;">
				<g id="&lt;Group&gt;">
					<g id="&lt;Group&gt;">
						<path id="&lt;Path&gt;" class="s3" d="m114.5 758.6c-0.5-3-1.5-5.9-3.2-8.4q-0.1 0.1-0.1 0.1 0-0.1 0-0.2 0 0-0.1-0.1c-0.8-1.1-1.9-1.9-3.3-2.4-8.2 13.1-16.1 26.5-24.2 39.7 0.6 1.1 1.7 1.8 3 2.1 0.8 1.4 2.6 2.3 4.3 2.1 9-9.5 16.4-20.9 23.8-31.5-0.1-0.5-0.1-0.9-0.2-1.4z"/>
					</g>
					<g id="&lt;Group&gt;">
						<path id="&lt;Path&gt;" class="s3" d="m112.9 729.5c0.5-0.6 1-1.2 1.5-1.9 5.3-6.8 8.6-14.9 12.7-22.6-6.9-1-13.9 0.2-20.5 2.5-2.2 3.6-4.5 7.1-6.6 10.8-1.2 2.1-2.4 4.3-3.4 6.6-0.6 1.3-1 2.3-1.3 3.4 5.7 1.7 11.7 2 17.6 1.2z"/>
					</g>
					<g id="&lt;Group&gt;">
						<path id="&lt;Path&gt;" class="s3" d="m108.3 681.5q0.5 1 1.1 1.9 0.1 0.1 0.1 0.1 0 0 0.1 0.1 0.2 0.2 0.4 0.3 0.6 0.5 1.1 0.9 0.1 0.1 0.1 0.1 0 0 0.1 0 0.3 0.2 0.5 0.4 0.6 0.3 1.2 0.7 1.2 0.6 2.5 1.2 0 0 0 0c4.2-6.3 8.6-12.4 11.4-19.5-2.8-2-6.4-3-9.7-3.9-3.2 5.5-6.3 11-9.6 16.5q0.4 0.6 0.7 1.2z"/>
					</g>
					<g id="&lt;Group&gt;">
						<path id="&lt;Path&gt;" class="s3" d="m-47.4 592.2c-7.8 12.5-16.5 24.5-23.6 37.4 1.9 1 3.6 2.1 5.7 2.7q1.8 0.4 3.6 0.7c1.6-0.6 3-1.3 4.1-2.1 4.9-3.3 8.1-8.5 11.1-13.4q4.2-6.7 7.6-13.9c0.4-0.8 0.6-1.8 0.5-2.7-2.9-3-5.9-5.8-9-8.7z"/>
					</g>
					<g id="&lt;Group&gt;">
						<path id="&lt;Path&gt;" class="s3" d="m59.5 723.6c-0.4-0.3-0.8-0.4-1.2-0.5-0.3-0.7-0.8-1.5-1.4-1.9q-0.6-0.3-1.1-0.4 0.1-0.2 0.3-0.4 0.2-0.3 0.3-0.6-1.4-0.6-3.1-0.9-0.9-0.1-1.8-0.2c-5.9 6.1-11.1 12.7-16.6 19q-5 5.8-9.8 11.6c3.6 1.4 7.2 2.7 11 3.1 2.4 0.3 4.7-0.1 7-0.9 1.5-0.6 2.9-1.2 4.4-1.7q8-10.4 13.4-22.4c0.6-1.3-0.3-3.1-1.4-3.8z"/>
					</g>
					<g id="&lt;Group&gt;">
						<path id="&lt;Path&gt;" class="s3" d="m39.6 786.5q0.5 1.6 1.2 3.2 0.2 0.4 0.4 0.7c0 0.1 0.2 0.4 0.2 0.4q0.4 0.6 0.8 1.2 0.8 1.2 1.7 2.3 0.5 0.5 0.9 1 0 0.1 0.1 0.1 0 0.1 0.1 0.1 0 0.1 0 0.1 1.1-0.2 2.1-0.9c5.9-4.3 10.4-10.5 12.7-17.4q-0.7-1.1-1.3-2c-1.9-2.8-3.8-5-6.3-6.9-3.7 4-7.1 8.4-10.2 12.9q-1.5 2.1-2.9 4.4 0.3 0.3 0.5 0.8z"/>
					</g>
					<g id="&lt;Group&gt;">
						<path id="&lt;Path&gt;" class="s3" d="m80.7 734.5c-0.9-0.5-1.8-0.6-2.7-0.4q-0.4-0.3-0.7-0.4c-1-0.3-1.9 0-2.7 0.6-0.6 0.5-1.2 1.1-1.7 1.7 0 0.1-0.4 0.4-0.1 0.1q-0.1 0.2-0.3 0.4-0.4 0.5-0.8 1-0.8 1.1-1.4 2.3c-1.5 1.8-2.7 3.7-3.6 5.9-0.2 0.4-0.2 1.2-0.1 1.7 0.2 0.7 0.6 1.3 1.2 1.8 0.9 0.8 2.5 1.1 3.6 0.4q0.1 0 0.1 0.1c0.8 0.8 2.2 1.2 3.3 0.5q1.5-0.9 2.9-2.1c1-0.9 1.8-1.9 2.3-3.1 1.2-2.4 2-4.7 2.3-7.4 0.2-1.2-0.6-2.5-1.6-3.1z"/>
					</g>
					<g id="&lt;Group&gt;">
						<path id="&lt;Path&gt;" class="s3" d="m-50.3 649.4c-5.7 3.4-10.1 9.5-14.4 14.5-2.2 2.6-4.5 5.1-6.8 7.7-1.4 1.9-3 4.1-3.1 6.6-0.1 0.7 0.1 1.4 0.4 2-0.4 1.3 0.2 2.6 1.1 3.5q0 0 0.1 0c10.5-10.2 21.4-20 32.1-30q1.3-1.9 2.5-3.8c-3.1-3.1-8.2-2.8-11.9-0.5z"/>
					</g>
					<g id="&lt;Group&gt;">
						<path id="&lt;Path&gt;" class="s3" d="m12.6 738.4c-1.1-2-2.3-3.6-3.6-5-5.8 9.5-11.4 19.2-16.5 29.2 1.4 2.1 2.9 4 4.7 5.6 1.3 1.2 2.9 2.3 4.5 2.7q0 0 0 0c5.7-7.7 10.3-16.8 13.9-26.3-1-2.1-1.9-4.2-3-6.2z"/>
					</g>
				</g>
			</g>
			<path id="&lt;Path&gt;" class="s4" d="m531.7-34.1c-5.2 0.3-10.2 1.4-14.7 3.6-8.8 4.4-15.8 11.9-24.4 16.9-11.6 6.7-26 8.5-38.9 4.8-20.2-5.9-36.2-24.2-57.2-25.2-36.5-1.8-53 47.5-34.7 74 16.8 24.4 36.7 36 67.2 29.8 37.8-7.6 62.9-38.8 100.8-46.4 11.2-2.2 23-3 33.1-8.2 14.4-7.4 22.3-26.8 7.7-37.5-10.1-7.5-25.3-12.6-38.9-11.8z"/>
			<path id="&lt;Path&gt;" class="s3" d="m-110.4 138.2c22.5 1 44.8 3 67.3 4.3h157.3c38.1-1.6 76.2-3.7 114.2-6.4 1.1-5.1 2.2-10.2 3.6-15.3-9.3-2.8-20.1-1.2-29.6-1.1q-22.9 0.2-45.8 0.5-44.5 0.6-89 1.2c-28.8 0.3-57.5 0.3-86.3 1.2-30.7 0.9-61.1 4-91.7 5.4-6.5 0.3-6.5 9.9 0 10.2z"/>
			<path id="&lt;Path&gt;" class="s3" d="m1241.1 560.5c22.5 1.1 44.8 3 67.3 4.3h157.3c38.1-1.6 76.2-3.7 114.2-6.3 1.1-5.2 2.2-10.3 3.5-15.4-9.2-2.8-20-1.1-29.5-1.1q-22.9 0.3-45.8 0.6-44.5 0.5-89 1.1c-28.8 0.4-57.6 0.4-86.3 1.2-30.7 0.9-61.1 4-91.7 5.4-6.5 0.3-6.6 9.9 0 10.2z"/>
			<path id="&lt;Path&gt;" class="s3" d="m1420.9 510.4c15.1 0.8 30.3 2.1 45.5 3.1h106.4c25.8-1.2 51.6-2.6 77.4-4.5 0.7-3.6 1.4-7.2 2.3-10.8-6.2-2-13.5-0.8-20-0.8q-15.5 0.2-31 0.4-30.1 0.4-60.2 0.8c-19.5 0.3-38.9 0.3-58.4 0.9-20.8 0.6-41.4 2.8-62 3.8-4.5 0.2-4.5 6.9 0 7.1z"/>
			<path id="&lt;Compound Path&gt;" fill-rule="evenodd" class="s3" d="m595.5 849.4c0 27.7-3.2 55.7-9.6 82.8-3.2 13.5-7.4 26.7-13.2 39.4-5.5 12.2-12.4 23.8-20.2 35-7.6 10.9-15.9 21.4-24.6 31.6-7.8 9.2-16 18.1-25 26.2-17.8 16.1-39.4 29.6-64.1 33.3q-0.3 0.3-0.7 0.4c-0.5 2-2.9 3.4-4.6 1.5q-3.3-3.8-6.4-7.7c-16.5-21.3-28-46-33.5-71.8-5.6-26-5.5-53 0.7-78.9 6.5-27.7 20.5-53.1 38.4-75.7 18.6-23.5 40.8-44.6 64.9-63.1 24.3-18.7 50.7-34.8 78.8-47.9 2.3-1.1 5.2-0.2 5.9 2.3q1.5 4.9 2.8 9.8c7 27.1 10.4 54.9 10.4 82.8zm-8.1-10.6c-0.7-25.5-4.4-50.9-11.6-75.5-1.8 0.9-3.7 1.8-5.5 2.8-26.8 13.5-51.9 29.8-74.9 48.4-22.8 18.5-44 39.3-61.1 62.6-16.4 22.4-28.5 47.2-33.7 74-4.8 25-3.9 51 2.3 75.6 5.9 23.1 16 45.1 30.8 64.3q0.6-0.8 1.4-1.3c2.1-16.1 5.9-32 10.4-47.7q0.2-0.6 0.4-1.3 0.7 0.3 1.5 0.5c0.5-1.7 1.1-3.4 1.7-5q2.1-6.5 4.3-13.1c2.8-8.5 5.7-17.1 8.5-25.7 10.3-30.4 20.8-60.8 31.1-91.2q3.9-11.5 7.8-22.9c2.2-6.2 4.2-12.4 6.7-18.4 5-11.6 11.8-22.6 23.1-29.5 5.1-3.2 9.8 4.5 4.8 7.6-11.5 7.1-17.1 19.7-21.6 31.4-5.3 14.1-10.1 28.4-15.2 42.7l-15.8 44.5c-5.2 14.8-10.4 29.6-15.8 44.4l-8.2 22.4q-2.1 5.7-4.1 11.4c-1.4 3.7-3.1 7.2-4.6 10.8q-0.1 0.2-0.2 0.4c-3.5 12.4-6.3 24.9-8.8 37.5q2-0.4 3.9-0.8c23.2-5.7 42.5-20 58.8-36 8.6-8.4 16.4-17.3 23.9-26.5 8.4-10.2 16.4-20.8 23.6-31.8 7.1-11.1 13.3-22.7 18-34.9 4.8-12.7 8.3-25.8 11-38.9 5.4-26.6 7.9-53.8 7.1-80.8z"/>
			<g id="&lt;Group&gt;">
				<g id="&lt;Group&gt;">
					<g id="&lt;Group&gt;">
						<g id="&lt;Group&gt;">
							<g id="&lt;Group&gt;">
								<g id="&lt;Group&gt;">
									<path id="&lt;Compound Path&gt;" fill-rule="evenodd" class="s3" d="m875.5 6.3c-11.4 27.1-29.3 50.9-49.6 71.9-20.4 21-43.5 39.5-68.4 54.8-24.8 15.2-51.5 27.3-79.3 36-2.8 0.8-5.8-1.5-5.8-4.4 0.4-30.1 0.8-60.3 4.1-90.2 5.2-46.9 18-94.4 46.8-132.6 26.8-35.4 66.1-56.8 107.1-71.6q-0.1-0.1-0.2-0.1c-2.8-1.5-3.7-5.5-2.1-8.2 1.7-2.8 5.3-3.6 8.1-2.1 2.7 1.4 5.3 3 7.8 4.7 20.9 14.6 34.6 37.5 40.1 62.3 6 26.8 2 54.3-8.6 79.5zm-3.6-84.2c-3.4-11.1-8.6-21.7-15.7-30.8-4.6-5.9-9.9-10.9-15.8-15.1-4.1 14.4-8.5 28.7-13.6 42.8q-0.1-0.1-0.3-0.1-0.9-0.4-1.8-0.7c-1.6 6.3-3.1 12.6-4.7 18.9-6.6 27.5-14.4 54.8-26.6 80.4-5.8 12.4-12.7 24.3-21 35.1-4.2 5.5-8.5 10.6-13.3 15.5-4.8 4.9-10 10-16 13.4-3.7 2-7.5-2.8-4.5-5.8 5.4-5.5 11.5-10 16.8-15.6 5.2-5.4 10-11.2 14.4-17.3 16-22.3 26.6-48 34.9-74 4.4-13.8 8.2-27.8 12.1-41.7 4.3-15.7 9.1-31.2 16.7-45.6 0.2-0.4 0.4-0.6 0.7-0.7q1.2-3.6 2.3-7.1-0.4-0.3-0.9-0.6c-22.8 8.7-45.2 19.2-65.3 33.3-18.1 12.7-33.8 28.9-46 47.4-12.3 18.5-21.2 39.1-27.4 60.5-13.8 46.7-14.9 95.6-15.3 144q2-0.7 4-1.4c26.5-9.2 51.7-21.8 75.2-37.2 23.3-15.4 44.7-33.5 63.5-54.1 18.7-20.3 35.2-43.5 44.5-69.6 8.6-23.9 10.5-49.5 3.1-73.9z"/>
								</g>
							</g>
						</g>
					</g>
				</g>
			</g>
			<path id="&lt;Compound Path&gt;" fill-rule="evenodd" class="s3" d="m85.1 296.1c-5.2 19.3-10.6 38.6-17.5 57.4-11.8 32.6-28.2 64.6-54.6 87.8-14.4 12.6-31.2 21.6-48.2 29.9-8.8 4.2-17.6 8.4-26.2 12.8-8.7 4.5-16.8 9.8-25.3 14.4-3.9 2.2-8.5-3.3-4.9-6.4q0.4-0.3 0.9-0.7-0.1-0.4 0.1-1c5.6-18.9 12.9-37.1 22.1-54.6 16.1-30.9 37.3-59.3 62.3-83.7 25.1-24.4 54-45 85.6-60.3 3-1.4 6.7 0.9 5.7 4.4zm-9.8 6.4c-14.5 7.4-28.4 15.9-41.6 25.5-27.7 20.1-52.1 44.8-72.3 72.4-18.3 25.1-33.2 52.9-43.9 82.2q10.1-14.5 21.3-28c10.4-12.6 21.5-24.6 32.9-36.2q0-0.4 0-0.8-0.1-0.9-0.1-1.8-0.1-1.7-0.1-3.4c-0.1-1.2 0-2.3 0-3.5q-0.1-0.9 0-1.7c0-1 0.3-1.8 0.9-2.6 0.5-0.8 1.2-1.3 2.2-1.3 1 0 1.8 0.5 2.3 1.3 0.5 0.8 0.8 1.6 0.8 2.6 0 0.5-0.1 1.1-0.2 1.7-0.1 1.2-0.2 2.3-0.3 3.5q-0.1 0.3-0.1 0.7 6.5-6.5 13.2-12.8c4.3-4.1 8.7-8.1 13.1-12.1q-0.1-0.1-0.1-0.3c-0.1-1.8-0.2-3.6-0.1-5.4q0.1-2.7 0.3-5.3c0.1-1.9 0.4-3.8 0.7-5.7 0.3-2.1 0.6-4.1 2.5-5.3 1.1-0.7 2.5-0.2 3.2 0.8 1.2 2 0.4 4-0.1 6q-0.6 2.6-1.2 5.1-0.7 3.3-1.3 6.6c8.1-7.3 16.3-14.5 24.4-21.8q0.1-0.9 0.1-1.7 0.1-2 0.4-4c0.1-1.3 0.3-2.7 0.4-4 0-0.7 0-1.4 0.1-2.1 0.1-0.7 0.2-1.4 0.5-2.1q0.3-0.5 0.6-1c0.6-1.3 2.2-1.7 3.6-1.4 1.5 0.3 2.2 1.7 2.4 3.1 0.1 0.9 0.1 1.7-0.2 2.7q-0.3 1-0.6 2-0.3 1.1-0.5 2.3 3.5-3.3 7-6.6c3.9-3.7 9.8 2.5 5.7 5.7-8.4 6.6-16.4 13.6-24.5 20.7q1.2-0.1 2.3-0.1c1.1-0.1 2.1 0.1 3.1 0.3 1 0.2 1.6 1.2 1.7 2.2 0 0.9-0.8 1.9-1.7 2.1-1 0.2-2.1 0.4-3.2 0.3q-1.3 0-2.7-0.1c-0.9 0-1.9-0.1-2.8-0.2q-0.8 0-1.6-0.2-1.2 1.1-2.4 2.1c-8.5 7.6-16.9 15.3-25.3 23.1q1.2-0.2 2.4-0.3 2.2-0.2 4.5-0.3c1.7 0 3.8-0.3 5.3 0.6 1.5 0.9 1.8 3.5 0 4.3-1.7 0.8-3.4 0.4-5.3 0.3q-2.2-0.1-4.4-0.1-3.8 0.1-7.6 0.3c-22.6 21.6-44 44.4-62.6 69.5 3.3-1.7 6.7-3.4 10-5 9.5-4.7 19.1-9 28.7-13.6 16.7-8 32.8-17.2 46.3-30 12.3-11.6 22.2-25.3 30.4-40 15.6-27.8 24.9-58.6 33.5-89.2z"/>
			<path id="&lt;Compound Path&gt;" fill-rule="evenodd" class="s3" d="m1593 1017.3c-7.8-3.9-15.7-7.6-23.8-10.9-4.1 10.6-10.7 20.3-18.9 28.4-13.2 13-30.2 21.2-48.3 24.9-20.2 4.1-41 3-61.2-0.3-16.8-2.8-33.3-7.3-49.3-13.1-31.3-11.3-60.5-27.8-86.8-48.2-26.2-20.4-49.2-44.9-67.9-72.2-18.7-27.4-33-57.7-41.8-89.6-1.1-3.8 1.8-6.8 5.4-7.1q6.1-0.6 12.3-1.1c33.2-2.9 66.5-5.5 99.9-5.2 33.2 0.2 66.5 3.2 98.8 11 26 6.3 51.1 16.2 74.2 29.7 22.1 13 42.6 29.4 59.1 49.2 16.3 19.3 28.8 42.4 34.8 67 0.9 3.8-4.7 5.4-5.9 1.7 0.1 2.5 0.1 5.1-0.1 7.6q-0.6 5.2-2 10.2c8.4 3.9 16.6 8.1 24.6 12.7 3.5 2 0.4 7.1-3.1 5.3zm-34.7-15.3c-10.9-4.1-22-7.9-33.2-11.4-41.3-12.9-83.8-22-124.6-36.6-20.6-7.3-40.6-16.1-59.8-26.7-9.4-5.2-18.7-10.6-28.5-15-9.4-4.2-19.7-7-29.9-8.7-2.1-0.4-3.4-2.8-3.1-4.8 0.3-2.3 2.1-3.6 4.3-3.8 12.7-1.3 24.6 2.9 36.1 8 11.1 5 21.5 11.4 32.2 17.2 38.2 20.9 80.3 32.9 121.9 45 29.3 8.5 58.8 17.2 86.9 29.2 1.4-5.7 1.8-11.7 1.2-17.6-0.3-3.1 2.9-5.7 5.7-5.7 1.1 0 2 0.3 2.8 0.7-8.2-22.9-21.9-43.6-38.7-61.2-17.4-18.2-38.1-33-60.3-44.5-24.1-12.4-49.8-20.7-76.4-25.7-31.8-6-64.3-7.4-96.6-6.7-30.3 0.6-60.5 3.2-90.6 6q0.7 2.3 1.4 4.7c9.8 30.1 24.8 58.4 43.7 83.8 18.3 24.9 41 47.6 65.9 65.9 25.6 18.7 53.9 33.7 83.9 43.6 15.7 5.2 32.1 9.2 48.6 11.3 18.9 2.5 38.5 2.4 56.9-3.1 15.9-4.7 30-13.7 40.3-26.7 4.1-5.2 7.5-11 9.9-17.2z"/>
			<g id="&lt;Group&gt;">
				<path id="&lt;Path&gt;" class="s4" d="m621.3 918.6c-5.7-4-11.4-8.6-16.2-13.9v43.6h39.1v-19.1c-8.3-1.8-16-6-22.9-10.6z"/>
				<path id="&lt;Path&gt;" class="s4" d="m658 917.6v30.7h39.1v-31.6c-13 1.7-26.1 0.6-39.1 0.9z"/>
				<path id="&lt;Path&gt;" class="s4" d="m699.9 888.1v23.6h39v-22.2c-13-0.3-26-0.2-39-1.4z"/>
				<path id="&lt;Path&gt;" class="s4" d="m609.1 888.8v16.7h39.1v-19.6c-3.9 2.7-30.5-2.8-39.1 2.9z"/>
				<path id="&lt;Path&gt;" class="s4" d="m627.9 960.7v30.9h39.1v-35.2c-13.2 0.1-26.2 2.2-39.1 4.3z"/>
				<path id="&lt;Path&gt;" class="s7" d="m644.4 1012.4c-4.5-2.8-8.7-6.2-12-10.4v28.3h39.1v-8.8c-9.5-0.8-19-4.1-27.1-9.1z"/>
				<path id="&lt;Path&gt;" class="s4" d="m705 957.1c-3.6-1.2-7.6-0.9-11.2 0.1-6.5 1.8-12.4 5.2-18.1 8.9v20h39.1v-20c-2.4-3.9-5.4-7.4-9.8-9z"/>
				<path id="&lt;Path&gt;" class="s4" d="m739.5 961.9c-6.8 1.4-13.6 2.4-20.6 3v23.3h39.1v-31.4c-6 2.2-12.2 3.8-18.5 5.1z"/>
			</g>
		</g>
	</g>
</svg>