<svg version="1.2" xmlns="http://www.w3.org/2000/svg" viewBox="0 0 2600 2000" width="2600" height="2000">
	<title>Healthy vs unhealthy food vector flat illustration</title>
	<style>
		.s0 { fill: #074530 } 
		.s1 { fill: #8cdec1 } 
		.s2 { fill: #188a63 } 
		.s3 { fill: #2fac66 } 
		.s4 { fill: #269e57 } 
		.s5 { fill: #6ece6e } 
		.s6 { fill: #9ed89e } 
		.s7 { fill: #e86a64 } 
		.s8 { fill: #e25252 } 
		.s9 { fill: #f9b233 } 
		.s10 { fill: #f39200 } 
		.s11 { fill: #fcbe59 } 
		.s12 { fill: #843f2c } 
		.s13 { fill: #8e4a35 } 
		.s14 { fill: #f9ae41 } 
		.s15 { fill: #58b758 } 
		.s16 { fill: #1c8e4a } 
		.s17 { fill: #824dd6 } 
		.s18 { fill: #7640cc } 
		.s19 { fill: #e8c0a6 } 
		.s20 { fill: #f99370 } 
		.s21 { fill: #e0784f } 
		.s22 { fill: #fcb4b4 } 
		.s23 { fill: #f49f9f } 
		.s24 { fill: #eb5648 } 
		.s25 { fill: #e2bf93 } 
		.s26 { fill: #f7a828 } 
		.s27 { fill: #ef9595 } 
		.s28 { fill: #ce3932 } 
		.s29 { fill: #ea4a42 } 
		.s30 { fill: #18294c } 
		.s31 { fill: #4867aa } 
		.s32 { fill: #395b96 } 
		.s33 { fill: #e57d61 } 
		.s34 { fill: #4f6ca8 } 
		.s35 { fill: #163260 } 
		.s36 { fill: #0a2744 } 
		.s37 { fill: #c16256 } 
		.s38 { fill: #f7a92b } 
		.s39 { fill: #f49b19 } 
	</style>
	<g id="_Artboards_">
	</g>
	<g id="321353356351 1">
		<g id="&lt;Group&gt;">
			<g id="7">
				<path id="&lt;Path&gt;" class="s0" d="m792.2 268.4c-241.8-39.4-203.2 154.5-526.9 297.2-522.4 353.2 170.3 948.4 608.5 507.5 218.4-207.9 235.8-753-81.6-804.7z"/>
				<path id="&lt;Path&gt;" class="s1" d="m217.3 1181.2c56.2 71-21.2 134.1-79.4 64.8-56.3-71.1 21.2-134.2 79.4-64.8z"/>
				<path id="&lt;Path&gt;" class="s1" d="m321.4 1237.6c14.9 46-35.6 63.1-51.8 17.6-14.9-46.1 35.6-63.2 51.8-17.6z"/>
				<path id="&lt;Path&gt;" class="s1" d="m670.6 208c4.2 48.2-48.9 53.6-54.5 5.6-4.2-48.2 48.9-53.6 54.5-5.6z"/>
				<path id="&lt;Path&gt;" class="s1" d="m486.5 227.4c-39.1 81.7 50.4 126.1 91.8 45.5 39.1-81.7-50.3-126.1-91.8-45.5z"/>
			</g>
			<g id="6">
				<path id="&lt;Path&gt;" class="s0" d="m1606.8 1053.4c-101.4-139.1 100.6-195.2 68.3-486.6-38.8-349 378.4-398.5 556.9-283.4 588.5 412.4-165 1401.1-625.2 770z"/>
				<path id="&lt;Path&gt;" class="s1" d="m2322.5 1131.9c-39.1 81.7 50.4 126.1 91.8 45.6 39.1-81.7-50.3-126.1-91.8-45.6z"/>
				<path id="&lt;Path&gt;" class="s1" d="m2235.4 1207.9c-4.3 48.2 48.7 53.7 54.5 5.7 4.3-48.2-48.7-53.7-54.5-5.7z"/>
				<path id="&lt;Path&gt;" class="s1" d="m2357.3 350.6c-4.3 48.1 48.7 53.7 54.4 5.7 4.4-48.2-48.7-53.7-54.4-5.7z"/>
				<path id="&lt;Path&gt;" class="s1" d="m2275.2 271.7c44.7 62.9 114.7 14.6 71.8-49.5-44.7-62.9-114.7-14.6-71.8 49.5z"/>
			</g>
			<g id="5">
				<g id="&lt;Group&gt;">
					<path id="&lt;Path&gt;" class="s2" d="m1268.2 560.1c4.3 32.3-43.6 39.5-49 7.4-4.3-32.3 43.6-39.5 49-7.4z"/>
					<path id="&lt;Path&gt;" class="s2" d="m1142.6 360.9c-18.8-58.6 27.3-115.1 88.3-110.5 80.4 7.6 96.5 111.3 50.4 165.5-22 23.4-42 63.7-40.4 92.4 0.4 17-13.6 15.9-18.9 0.8-19-70 19.6-89.3 35.3-144.7 11.5-89.5-86.8-74-102.3-4-1.8 6-10.6 6.8-12.4 0.5z"/>
				</g>
				<g id="&lt;Group&gt;">
					<path id="&lt;Path&gt;" class="s2" d="m1386.8 644.3c-4.2 25-41.6 19.3-38.2-5.9 4.3-25 41.6-19.3 38.2 5.9z"/>
					<path id="&lt;Path&gt;" class="s2" d="m1339.2 467c-0.4-48 46.9-79.4 91.3-61.9 58.1 24.1 46.1 105.1-0.6 134.8-21.9 12.3-46 37.7-51.4 59.5-3.7 12.7-13.8 8.7-14.3-3.8 2-56.5 35.2-61.9 59.7-99.6 29.2-64-47.6-75.1-75.3-26.5-2.7 4-9.5 2.6-9.4-2.5z"/>
				</g>
			</g>
			<g id="4">
				<g id="&lt;Group&gt;">
					<path id="&lt;Path&gt;" class="s3" d="m601.7 479.8l-14.4 4.4c0 0-11.9 28.4-5.9 70.5 1.5 10.4-5.4 14.7-8.6 4-9.6-31.6-0.8-55.5-0.8-55.5l-11.4-0.7c-2.1 2.4-4.2 27 5.9 62.4 2.7 9.7-4.2 17.7-13.1 2.8-8.3-14-21.4-44.3-27.8-65l-15.4 4.6c0 0 13 52.1 34.4 96 5.3 11.1 16.6 18.7 29.1 19 19.4 0.7 35.5-15.2 35.1-34.6-0.5-28.3-1.7-74.5-7.1-107.9z"/>
					<path id="&lt;Path&gt;" class="s4" d="m604.3 499.2c3.1 29.5 4.2 65.6 4.5 88.5 0.3 19.2-15.3 34.9-34.5 34.6-11.6-0.1-22.3-6.4-28.3-16.2 0 0 63.1 29.4 58.3-106.9z"/>
					<path id="&lt;Path&gt;" class="s3" d="m693.3 462.9c3.1 20.1-19.8 36-37.5 26.4 20.9 30.5-25.7 60.1-44.5 28.7-13.6 11.4-37 10.9-50.1-1.3-4.3 21.9-34.8 31.5-50.8 15.8-11.5 42.8-77.3 34.6-77.3-10.3-38.2 4.9-41.5-53.3-3-52.7-23.1-32.1 13.6-75.5 49-58.1-8.5-46.2 58.8-64.7 75.4-21.5 17.3-20.5 54.1-14.9 64.6 9.5 26.4-18.1 60.3 13.6 44.1 41.1 14.5-2.5 28.3 7.8 30.1 22.4z"/>
					<path id="&lt;Path&gt;" class="s4" d="m693.3 462.9c3.1 20.1-19.8 36-37.5 26.4 20.9 30.5-25.7 60.1-44.5 28.7-13.6 11.4-37 10.9-50.1-1.3-4.3 21.9-34.8 31.5-50.8 15.8-11.5 42.8-77.3 34.6-77.3-10.3 0 0 33.6 30.3 63.4-8 29.8-38.3 65-13.9 94.3-42.9 29.3-29 28.6-83.4-36.3-81.4 17.3-20.5 54.1-14.9 64.6 9.5 26.4-18.1 60.3 13.6 44.1 41.1 14.5-2.5 28.3 7.8 30.1 22.4z"/>
				</g>
				<g id="&lt;Group&gt;">
					<g id="&lt;Group&gt;">
						<g id="&lt;Group&gt;">
							<path id="&lt;Path&gt;" class="s4" d="m287.6 517.1c0 0-13.7-84.3-38.3-133.9-22.4-45-50.2-20.2-40.6 13.2 13.7 48 64.5 124.7 64.5 124.7z"/>
							<path id="&lt;Path&gt;" class="s3" d="m258.9 525c-169.1-110.4-92.4-251.1 13.2-7.7z"/>
							<path id="&lt;Path&gt;" class="s3" d="m299.4 512.9c28.5-145.3-84.6-176.9-10.8 3z"/>
						</g>
						<path id="&lt;Path&gt;" class="s5" d="m263.3 520.6c-0.4 0-52.4-59.2-84-115.1 37.6 50.3 84.4 114.3 85.1 112.6 0.9 0.9 0.1 2.5-1.1 2.5z"/>
						<path id="&lt;Path&gt;" class="s5" d="m292.6 506.9c-3.7-1.2-3.8-46.1-16.6-91.3-0.5-1.9 2.5-2.7 2.9-0.8 10.7 45.7 17.6 90.7 13.7 92.1z"/>
						<path id="&lt;Path&gt;" class="s6" d="m278.3 509.9c-1.4 0.1-38.8-76.6-54.4-132.4 22.4 51.8 54.5 131.4 55.7 130.3 0.5 0.9-0.3 2.1-1.4 2.1z"/>
					</g>
					<path id="&lt;Path&gt;" class="s7" d="m464 723.9c-72.6 11.2-171.2-77.5-202.5-141-40.7-65.8 48.4-109.7 75.9-48.5 26.9 67.6 68.8 127.5 125.3 174.2 4.5 3.7 5.3 10.7 1.3 15.3z"/>
					<path id="&lt;Path&gt;" class="s8" d="m464.9 711.1c13.6 38.2-74.7-3-87.1-10.3-49-27.3-138.1-105.5-124-166.8 3 15.7 82.8 167.9 211.1 177.1z"/>
					<path id="&lt;Path&gt;" class="s8" d="m258.2 551.7c-2.1 0.1-2.8-2.9-1-3.8 0 0 20.1-10.4 20.1-10.4 1-0.5 2.2-0.1 2.7 0.9 0.5 1 0.2 2.2-0.8 2.7l-20.1 10.4q-0.5 0.2-0.9 0.2z"/>
					<path id="&lt;Path&gt;" class="s8" d="m302.7 551.5c-2 0-2.8-3-0.8-3.9 0 0 21.2-10.1 21.2-10.1 2.3-1.1 4.1 2.5 1.7 3.6 0 0-21.2 10.2-21.2 10.2q-0.4 0.2-0.9 0.2z"/>
					<path id="&lt;Path&gt;" class="s8" d="m290.4 593.6c-2 0.1-2.8-2.8-1-3.7 0 0 19-10.6 19-10.6 0.9-0.5 2.2-0.2 2.7 0.8 0.5 0.9 0.2 2.2-0.8 2.7l-18.9 10.6q-0.5 0.2-1 0.2z"/>
					<path id="&lt;Path&gt;" class="s8" d="m333.2 603.7c-1.9 0.1-2.8-2.6-1.2-3.7 0 0 13.4-9.5 13.4-9.5 2.1-1.6 4.5 1.8 2.4 3.2-0.6 0.2-14.2 10.7-14.6 10z"/>
					<path id="&lt;Path&gt;" class="s8" d="m318.6 637.8c-1.8 0-2.7-2.6-1.2-3.7 0 0 13.3-10 13.3-10 2.1-1.6 4.5 1.6 2.4 3.2-0.3 0-14.5 11.5-14.5 10.5z"/>
					<path id="&lt;Path&gt;" class="s8" d="m389 674.4c-1.7 0.1-2.7-2.2-1.4-3.4 0 0 12.4-12.5 12.4-12.5 1.9-1.9 4.8 1 2.9 2.8-0.7 0.4-13.1 13.9-13.9 13.1z"/>
					<path id="&lt;Path&gt;" class="s8" d="m406.3 707.9c-1.8 0-2.7-2.2-1.5-3.4 0 0 10.8-11 10.8-11 1.8-1.9 4.7 1 2.9 2.8-0.7 0.4-11.5 12.5-12.2 11.6z"/>
					<path id="&lt;Path&gt;" class="s8" d="m441.7 713c-6.2-0.7 4.7-10.7 5.3-12.6 1.6-2.1 4.9 0.3 3.3 2.4-1 0.8-7 10.7-8.6 10.2z"/>
					<path id="&lt;Path&gt;" class="s8" d="m350.1 645.3c-1.8 0.1-2.8-2.5-1.3-3.6 0 0 17.4-13.8 17.4-13.8 0.9-0.7 2.2-0.6 2.9 0.3 0.7 0.8 0.5 2.1-0.4 2.8l-17.4 13.9c-0.3 0.3-0.8 0.4-1.2 0.4z"/>
					<path id="&lt;Path&gt;" class="s8" d="m360.5 673.2c-1.7 0.1-2.7-2.2-1.4-3.4 0 0 14.5-14.6 14.5-14.6 0.8-0.8 2.1-0.8 2.8 0 0.8 0.7 0.8 2 0.1 2.8-0.9 0.3-15.1 16.4-16 15.2z"/>
				</g>
				<g id="&lt;Group&gt;">
					<path id="&lt;Path&gt;" class="s9" d="m418.4 843.2c-154.2-68.2 124.6 29.4 238.7-189.7 0.6 0.5 5.2-53.2 25.6-49.8 5.3 1.6 5.8 5.4 4.1 10.6-3.5 10.6-16.4 27.2-18 43.6-3.4 160.9-130.8 230.1-250.4 185.3z"/>
					<path id="&lt;Path&gt;" class="s10" d="m385.4 827.7c-13.4-5.9-21.5-17.1 0.8-15.3 2.1 4.9 0.9 9.2-0.8 15.3z"/>
					<path id="&lt;Path&gt;" class="s10" d="m418.4 843.2c192.6 21.3 250.4-185.3 250.4-185.3-3.4 160.9-130.8 230.1-250.4 185.3z"/>
					<path id="&lt;Path&gt;" class="s9" d="m504.7 915.5c-9.6 0.3-79.5-5.9-41.2-19.2 129.8-40 208-155.2 208-286.5 3.5-8.3 16.6-7.7 15.4 3 0.1 11.2-6.7 31-3 47 49.1 143.8-22.2 266.9-179.2 255.7z"/>
					<path id="&lt;Path&gt;" class="s10" d="m504.7 915.5c211.6-13.6 180.5-251.6 180.5-251.6 46.7 143.7-25.6 262.2-180.5 251.6z"/>
					<path id="&lt;Path&gt;" class="s10" d="m470.4 912c-14.5-1.2-28.6-10.2-6.9-15.7 3.5 4 6.6 9.3 6.9 15.7z"/>
					<path id="&lt;Path&gt;" class="s10" d="m668.5 613c0 0 10.9 9.9 18.2 3.1 0 0 4.2-8.8-2.2-11.8-6.4-2.9-11.5-0.1-16 8.7z"/>
				</g>
				<g id="&lt;Group&gt;">
					<path id="&lt;Path&gt;" class="s3" d="m788.7 640.3c-42.2-14.9-36.9-39.2-24.8-85.2 9.8-40.5 51.4-53.3 72.8-90.9 21.9-38.5 33.6-59.9 55.2-55.5 101.4 20.7 30.8 302-103.2 231.6z"/>
					<path id="&lt;Path&gt;" class="s11" d="m788.6 640.2c-15.5-5.5-27.9-14.2-36.6-25.4h-0.1c-13.7-17.6-18.4-41.3-11.9-68.1 9.8-40.5 51.4-53.3 72.8-90.9 19.2-33.8 42.7-49.3 62.9-50 103.7 5.5 8.2 285.7-87.1 234.4z"/>
					<path id="&lt;Path&gt;" class="s12" d="m845.5 577.1c-32.5 59.4-93.8 20.4-66.8-34.7 30.4-58.2 95.1-24.5 66.8 34.7z"/>
					<path id="&lt;Path&gt;" class="s13" d="m834.9 555.1c-13.5 27.1-42.9 39.3-62.1 21.4-7.9-35.5 38.5-84.2 68-55.5 1.6 10.6-0.2 22.7-5.9 34.1z"/>
					<path id="&lt;Path&gt;" class="s4" d="m788.7 640.3l-0.1-0.1c104.4 48.3 167.7-156.8 139.9-202.8 37.9 71.1-15.5 261.4-139.8 202.9z"/>
					<path id="&lt;Path&gt;" class="s14" d="m788.6 640.2c-15.5-5.5-27.9-14.2-36.6-25.4 83.9 50 110.7 8.3 143.3-92.1 32.9-101.5-18.8-116.5-19.6-116.9 103.7 5.5 8.2 285.7-87.1 234.4z"/>
				</g>
				<g id="&lt;Group&gt;">
					<path id="&lt;Path&gt;" class="s15" d="m675.3 1011.7c-5.8 0.2-9.7-6.8-6.3-11.6 0.6-1 16-23.8 47.1-37.5 3.8-1.7 8.2 0 9.9 3.8 1.7 3.8 0 8.3-3.8 10-35.2 15.6-34.8 32.3-46.9 35.3z"/>
					<path id="&lt;Path&gt;" class="s4" d="m671.2 1037c-64.6 66.5-163.1 107.3-256 93.7-31-6.3-36.6-30.7-21.2-45.4 4.3-4 10.1-7.4 17.4-9.4 39.3-10.9 76.9-19.9 114.8-34.2 33.2-12.5 72.8-31.5 119.2-53.4 43.5-19.6 51.3 24.5 25.8 48.7z"/>
					<path id="&lt;Path&gt;" class="s16" d="m671.2 1037c-64.6 66.5-163.1 107.3-256 93.7-31-6.3-36.6-30.7-21.1-45.4 0 0 138.6 84 289.2-66.9-2.4 5.9-6.4 12.2-12.1 18.6z"/>
					<path id="&lt;Path&gt;" class="s3" d="m649.1 1006.1c-2 3.5-7.4 0.3-5.3-3.1 2-3.4 7.4-0.3 5.3 3.1z"/>
					<path id="&lt;Path&gt;" class="s3" d="m654.1 1035c-1.9 3.4-7.3 0.3-5.3-3.1 2-3.5 7.4-0.3 5.3 3.1z"/>
					<path id="&lt;Path&gt;" class="s3" d="m622.9 1061.8c-2 3.4-7.4 0.3-5.3-3.1 2-3.5 7.4-0.3 5.3 3.1z"/>
					<path id="&lt;Path&gt;" class="s3" d="m626.6 1032.2c-1.9 3.4-7.3 0.3-5.3-3.1 2-3.5 7.4-0.3 5.3 3.1z"/>
					<path id="&lt;Path&gt;" class="s3" d="m586 1057.3c-2 3.5-7.4 0.3-5.3-3.1 2-3.5 7.4-0.3 5.3 3.1z"/>
					<path id="&lt;Path&gt;" class="s3" d="m546 1077.8c-2 3.4-7.4 0.3-5.3-3.1 2-3.5 7.4-0.3 5.3 3.1z"/>
					<path id="&lt;Path&gt;" class="s3" d="m512 1085.1c-2 3.5-7.4 0.3-5.3-3.1 1.9-3.5 7.3-0.3 5.3 3.1z"/>
					<path id="&lt;Path&gt;" class="s3" d="m480.9 1105.5c-1.9 3.4-7.3 0.3-5.3-3.1 2-3.5 7.4-0.3 5.3 3.1z"/>
					<path id="&lt;Path&gt;" class="s3" d="m441.2 1089.2c-2 3.5-7.4 0.3-5.3-3.1 1.9-3.5 7.3-0.3 5.3 3.1z"/>
					<path id="&lt;Path&gt;" class="s3" d="m583 1087.2c-2 3.5-7.4 0.3-5.3-3.1 1.9-3.5 7.3-0.3 5.3 3.1z"/>
					<path id="&lt;Path&gt;" class="s3" d="m593.2 1028.9c-2 3.4-7.4 0.2-5.3-3.2 2-3.4 7.4-0.3 5.3 3.2z"/>
					<path id="&lt;Path&gt;" class="s3" d="m547 1049.2c-2 3.5-7.4 0.3-5.3-3.1 2-3.5 7.4-0.3 5.3 3.1z"/>
					<path id="&lt;Path&gt;" class="s3" d="m476.1 1074.7c-1.9 3.5-7.3 0.3-5.3-3.1 2-3.5 7.4-0.3 5.3 3.1z"/>
					<path id="&lt;Path&gt;" class="s3" d="m445.3 1119c-2 3.5-7.4 0.3-5.3-3.1 2-3.5 7.4-0.3 5.3 3.1z"/>
					<path id="&lt;Path&gt;" class="s3" d="m412.8 1107c-1.9 3.5-7.3 0.3-5.3-3.1 2-3.4 7.4-0.3 5.3 3.1z"/>
					<path id="&lt;Path&gt;" class="s3" d="m532 1107.6c-2 3.5-7.4 0.3-5.3-3.1 2-3.5 7.4-0.3 5.3 3.1z"/>
					<path id="&lt;Path&gt;" class="s8" d="m473.2 1043.2c-0.2-0.1-1.5-0.3-3.9-1.5z"/>
				</g>
				<g id="&lt;Group&gt;">
					<path id="&lt;Path&gt;" class="s17" d="m380.6 938.3c8.7 60.4-69.1 93.9-120.2 55-63.9-51.5-85.1-139.5-82.3-214.5 6.5-47.4 56.5-30.7 76.7 8.8 38.9 67 110.1 75.7 125.8 150.7z"/>
					<path id="&lt;Path&gt;" class="s18" d="m253 784.7c-46.6-4.5-21.6 41.3-41.5 54.4-19.7 13-32.9-23.4-33.1-24.2-1-11.8-1.1-25.2-0.3-36.1 5.7-45 53.7-32.9 74.9 5.9z"/>
					<path id="&lt;Path&gt;" class="s15" d="m194.6 762.5c-7.9-1.2-26.6-26-21.3-60.8 1.7-9 15.7-6 13.7 2.9-8.1 34.3 29.2 52.1 7.6 57.9z"/>
					<path id="&lt;Path&gt;" class="s18" d="m380.6 938.3c8.7 60.4-69.1 93.9-120.2 55-51-38.8-74.4-109.3-80.9-166.2 5.7 37.3 85.6 189.6 201.1 111.2z"/>
					<path id="&lt;Path&gt;" class="s4" d="m191.5 748.3c0 0-19.2 28.7 12.5 80.9 0 0 21.8-58.3-12.5-80.9z"/>
					<path id="&lt;Path&gt;" class="s4" d="m191.5 748.3c0 0 31.2-16.8 63.2 26.1 0 0-50.9 12.1-63.2-26.1z"/>
					<path id="&lt;Path&gt;" class="s4" d="m191.5 748.3c0 0-27.5 16.5-19 59.5 0 0 32.2-23.1 19-59.5z"/>
				</g>
				<g id="&lt;Group&gt;">
					<path id="&lt;Path&gt;" class="s4" d="m858.3 819.7c-20.8-1.9 20.8-70.2 35.9-54.3 1.4 2.8 0.4 6.2-2.4 7.6-33.1 17.7-21.6 44.9-33.5 46.7z"/>
					<path id="&lt;Path&gt;" class="s4" d="m868.5 786c0 0 30.9-46.1-15.2-90.8 0 0-37.4 57.8 15.2 90.8z"/>
					<path id="&lt;Path&gt;" class="s7" d="m920.1 905.4c-21.4 57.9-63.8 64.2-107.3 35.8-15.6-6.1-24.1-1.3-39.5-11.9-13.1-9.1-20.9-20.1-24.4-32.6q0 0 0 0c-14.6-64.7 53.9-145.9 113.7-92.9 55.9-5.2 75.7 53 57.5 101.6z"/>
					<path id="&lt;Path&gt;" class="s6" d="m866.4 770.9c-0.8 0-1.5-0.7-1.5-1.5-1.3-48.1-12.4-69.5-12.5-69.7-0.4-0.7-0.1-1.6 0.7-2 4.4 0.6 12.4 21.2 14.8 71.6 0 0.9-0.6 1.6-1.5 1.6z"/>
					<path id="&lt;Path&gt;" class="s8" d="m920.1 905.4c-21.4 57.9-63.8 64.2-107.3 35.8-15.6-6.1-24.1-1.3-39.5-11.9-13.1-9.1-20.9-20.1-24.4-32.6q0 0 0 0-1.6-5.6-2.1-11.5c47.7 49.6 189.2 58.1 166.7-60.4 16 21.6 16.2 54.8 6.6 80.6z"/>
				</g>
			</g>
			<g id="3">
				<g id="&lt;Group&gt;">
					<path id="&lt;Compound Path&gt;" fill-rule="evenodd" class="s11" d="m1640.7 628.3c11.9-107.9 259.8-78.3 258.5 29-3.2 125-271.5 88.9-258.5-29zm131.5 1.6c-46.6-6.3-53.6 40.5-7.1 48 46.7 6.3 53.6-40.5 7.1-48z"/>
					<path id="&lt;Compound Path&gt;" fill-rule="evenodd" class="s17" d="m1872.8 703.1c-8.3 4.1-26.4-5.6-42.2-1.7-17.2 3.9-27.7 25.4-45 24.7-16.6-0.6-23.7-21.5-42.4-26.4-21.2-4.7-11.5 0.3-41-2.5-29.2-2.7-33.4-32.5-39.9-38.9-6.4-6.4-10.9-1.4-17.1-16.8-26-113.1 235.7-109.2 253.3 7.1 1.7 20.8-16.9 50.3-25.7 54.5zm-103.7-52.1c46.6 6.3 53.7-41.2 7.2-48.8-46.6-6.3-53.7 41.3-7.2 48.8z"/>
					<path id="&lt;Path&gt;" class="s19" d="m1667.7 597.2c-2.4 0.1-3.2-3.4-0.9-4.3 0 0 15-6.7 15-6.7 2.7-1.2 4.5 3 1.8 4.2 0 0-15 6.7-15 6.7q-0.5 0.1-0.9 0.1z"/>
					<path id="&lt;Path&gt;" class="s19" d="m1694.5 620.6c-0.6 0.8-13.7-10-14.3-10.2-2.4-1.7 0.4-5.4 2.7-3.6 0 0 12.9 9.7 12.9 9.7 1.8 1.3 0.8 4.2-1.3 4.1z"/>
					<path id="&lt;Path&gt;" class="s19" d="m1682.8 640.5c-0.4 0-17.1-2.5-17.4-2.6-2.9-0.4-2.3-4.9 0.6-4.5 0 0 17.1 2.6 17.1 2.6 2.7 0.3 2.4 4.6-0.3 4.5z"/>
					<path id="&lt;Path&gt;" class="s19" d="m1693.5 663.1c-1.6 0.1-2.8-1.6-2.1-3.1 0 0 6.3-15.3 6.3-15.3 1.1-2.7 5.3-0.9 4.2 1.8-1.2 1.3-5.8 17.5-8.4 16.6z"/>
					<path id="&lt;Path&gt;" class="s19" d="m1726.9 633.2c-0.3 0-13.1-2-13.4-2-2.9-0.4-2.3-5 0.6-4.5 0 0 13.1 2 13.1 2 2.8 0.3 2.4 4.5-0.3 4.5z"/>
					<path id="&lt;Path&gt;" class="s19" d="m1724 607.5c-0.3 0-16-2.4-16.3-2.4-2.9-0.4-2.3-5 0.6-4.5 0 0 16.1 2.4 16.1 2.4 2.7 0.3 2.3 4.5-0.4 4.5z"/>
					<path id="&lt;Path&gt;" class="s19" d="m1712.5 587.1c-1.1 0-2.1-0.9-2.2-2l-1.7-13.7c-0.4-2.9 4.2-3.5 4.5-0.6 0 0 1.7 13.7 1.7 13.7 0.2 1.4-0.9 2.6-2.3 2.6z"/>
					<path id="&lt;Path&gt;" class="s19" d="m1750.4 597q-0.3 0-0.7 0l-17.3-5.1c-1.2-0.4-1.9-1.6-1.5-2.8 0.3-1.2 1.6-1.9 2.8-1.6l17.3 5.1c2.5 0.7 1.9 4.5-0.6 4.4z"/>
					<path id="&lt;Path&gt;" class="s19" d="m1742.3 580.2c-2.5 0.1-3.2-3.6-0.8-4.4 0 0 17.8-6.1 17.8-6.1 2.7-1 4.2 3.4 1.4 4.3 0 0-17.7 6.1-17.7 6.1q-0.4 0.1-0.7 0.1z"/>
					<path id="&lt;Path&gt;" class="s19" d="m1786.9 596.5c-0.8 0.9-14-11.8-14.7-12.2-2.2-1.9 0.8-5.3 3-3.4 0 0 13.2 11.7 13.2 11.7 1.6 1.3 0.5 4-1.5 3.9z"/>
					<path id="&lt;Path&gt;" class="s19" d="m1790.5 583c-2 0.1-3.1-2.6-1.5-3.9 0 0 10-8.8 10-8.8 2.2-2 5.3 1.5 3 3.4-0.8 0.4-10.5 10-11.5 9.3z"/>
					<path id="&lt;Path&gt;" class="s19" d="m1817.9 610.6c-1.7 1.3-12.1-18-13-18.7-1.6-2.5 2.3-4.9 3.8-2.4 0 0 11.1 17.7 11.1 17.7 1 1.4-0.2 3.5-1.9 3.4z"/>
					<path id="&lt;Path&gt;" class="s19" d="m1852.4 601.1c-0.5 0.1-20-4.3-20.4-4.4-1.3-0.3-2-1.5-1.8-2.7 0.3-1.2 1.5-2 2.7-1.7l20 4.3c2.6 0.5 2.1 4.6-0.5 4.5z"/>
					<path id="&lt;Path&gt;" class="s19" d="m1835.2 635.2c-1.5 0-2.6-1.4-2.2-2.8l4.3-16.9c0.7-2.9 5.2-1.7 4.4 1.1 0 0-4.4 16.9-4.4 16.9-0.2 1-1.1 1.7-2.1 1.7z"/>
					<path id="&lt;Path&gt;" class="s19" d="m1878 630.3c-0.6 1.1-17.1-15.2-17.7-15.4-1-0.9-1-2.3-0.2-3.2 0.9-1 2.3-1 3.2-0.2l16.2 14.9c1.6 1.3 0.5 4-1.5 3.9z"/>
					<path id="&lt;Path&gt;" class="s19" d="m1857.6 654.4c-1.2 0-2.2-0.9-2.3-2.1l-0.7-16c-0.2-3 4.4-3.2 4.5-0.2 0 0 0.7 16 0.7 16 0.1 1.3-0.9 2.3-2.2 2.3z"/>
					<path id="&lt;Path&gt;" class="s19" d="m1837.6 656.8q-0.5 0-0.9-0.2l-18.5-8.1c-2.7-1.1-0.9-5.3 1.8-4.1 0 0 18.5 8 18.5 8 2.2 0.9 1.4 4.5-0.9 4.4z"/>
					<path id="&lt;Path&gt;" class="s19" d="m1877.3 664.2c-1.7 0.1-2.8-1.9-1.9-3.4l9.6-16.3c1.4-2.6 5.4-0.3 3.9 2.3-1.1 0.9-9.6 18.5-11.6 17.4z"/>
					<path id="&lt;Path&gt;" class="s19" d="m1865.8 680.6c-0.4 0-22.5-3.3-22.9-3.4-2.9-0.3-2.2-4.9 0.7-4.4 0 0 22.6 3.3 22.6 3.3 2.7 0.4 2.4 4.6-0.4 4.5z"/>
					<path id="&lt;Path&gt;" class="s19" d="m1738.6 661.7q-0.7 0-1.2-0.3l-16.9-10.6c-2.5-1.6 0-5.5 2.5-3.9 0 0 16.8 10.6 16.8 10.6 1.9 1.2 1 4.3-1.2 4.2z"/>
					<path id="&lt;Path&gt;" class="s19" d="m1770.8 679.9c-1.1 0-2.1-0.8-2.2-2l-1.5-15.2c-0.4-2.9 4.2-3.4 4.5-0.5 0 0 1.5 15.2 1.5 15.2 0.1 1.4-1 2.5-2.3 2.5z"/>
					<path id="&lt;Path&gt;" class="s19" d="m1793.4 675.8c-1.8 0-3-2.4-1.7-3.8 0 0 12.2-14.1 12.2-14.1 0.9-0.9 2.3-1 3.2-0.2 1 0.8 1.1 2.2 0.3 3.2-0.8 0.5-12.9 16-14 14.9z"/>
					<path id="&lt;Path&gt;" class="s19" d="m1797.4 694.2c-2.7 0-3.1-4.2-0.4-4.5 0 0 21.1-3.5 21.1-3.5 2.9-0.5 3.7 4.1 0.8 4.5-0.5 0.1-21 3.5-21.5 3.5z"/>
					<path id="&lt;Path&gt;" class="s19" d="m1755.8 694.2c-2.4 1-9.1-16.8-10.1-17.9-1.4-2.6 2.8-4.6 4-2 0 0 8.1 16.7 8.1 16.7 0.7 1.4-0.4 3.3-2 3.2z"/>
					<path id="&lt;Path&gt;" class="s19" d="m1713 681.6c-2 0.1-3.1-2.6-1.5-3.9 0 0 11-10.3 11-10.3 2.1-2.1 5.3 1.3 3.1 3.3-0.8 0.4-11.7 11.7-12.6 10.9z"/>
				</g>
				<g id="&lt;Group&gt;">
					<path id="&lt;Path&gt;" class="s20" d="m1902.7 1006.1c4.9 18.5-118.2 51.5-123.1 33.9 0 0-0.1 0-0.1 0-10.2-19.4-41.8-79.3-51.5-97.8 55.1-14.9 114.5-31.1 169.6-46.1 0.9 20.7 4.1 88.3 5.1 110z"/>
					<path id="&lt;Path&gt;" class="s21" d="m1899 926.5c-9.2 7.9-21.7 9.2-33.6 6.5-21.3 31-60.8 42.3-94.1 23.7-0.5 2.2-20.6 14.9-29.2 12.2-2-3.6-12.4-23.5-14.1-26.7 55.1-14.9 114.5-31.1 169.6-46.1 0.1 3.6 1.2 26.4 1.4 30.4z"/>
					<path id="&lt;Path&gt;" class="s21" d="m1902.7 1006.1c4.9 18.5-118.2 51.5-123.1 33.9h-0.1c31.6-0.4 123-37.4 107.4-127.9 2.5-3.6 11.8-16.8 14.1-20.1-0.5 3.6-1.6 6.8-3.2 9.6z"/>
					<g id="&lt;Group&gt;">
						<path id="&lt;Path&gt;" class="s21" d="m1784.7 1011.4c-1 0-2-0.6-2.5-1.5l-36.8-71.8c-0.7-1.4-0.2-3.1 1.2-3.8 3.8-6.2 39 73 40.6 73 1 1.8-0.4 4.1-2.5 4.1z"/>
						<path id="&lt;Path&gt;" class="s21" d="m1810.3 1009.4c-1.1 0-2.2-0.7-2.6-1.8l-29.4-78.8c-0.6-1.4 0.2-3 1.6-3.6 1.5-0.5 3.1 0.2 3.6 1.7l29.5 78.7c0.7 1.8-0.7 3.9-2.7 3.8z"/>
						<path id="&lt;Path&gt;" class="s21" d="m1882.2 984.9c-1.5 0-2.7-1.2-2.8-2.7l-4.6-80.5c-0.2-3.6 5.5-4 5.7-0.3-1.5 1.5 8.5 86.4 1.7 83.5z"/>
						<path id="&lt;Path&gt;" class="s21" d="m1859.1 996.2c-1.3 0-2.5-1-2.8-2.3l-14.5-82.9c-0.2-1.5 0.8-3 2.3-3.2 1.6-0.3 3 0.7 3.3 2.2l14.5 82.9c0.3 1.7-1.1 3.3-2.8 3.3z"/>
						<path id="&lt;Path&gt;" class="s21" d="m1835.5 1005.6c-1.2 0-2.3-0.8-2.7-2l-22.8-83.7c-0.4-1.5 0.5-3 2-3.4 1.5-0.4 3 0.5 3.4 2l22.8 83.6c0.5 1.7-0.9 3.6-2.7 3.5z"/>
					</g>
					<path id="&lt;Path&gt;" class="s22" d="m1901 892c-2.3 19.3-23.3 27.4-40.7 22.5-20.4 30.7-58.2 42.5-90.9 23.8-40.2 37.3-75.9-21.3-41.2-43.2 0 0-25.9-30 13.4-42.3 0 0-21.9-59 45.3-60-5.9 3.8-12.9 25.6 8.1 27.7 11.4 1.2 27.7-2.7 42.8 7.4 22-10.5 40.9 5.2 32.6 28.6 5.6-1.3 35.7 7.2 30.6 35.5z"/>
					<path id="&lt;Path&gt;" class="s23" d="m1901 892c-2.3 19.3-23.3 27.4-40.7 22.5-20.4 30.7-58.2 42.5-90.9 23.8-40.2 37.3-75.9-21.3-41.2-43.2 0 0-1.9 36.8 23 31.7 25-5.1 32.2-29.8 64.1-25.1 31.5 4.6 67-65.3-20.3-81.2 11.4 1.2 27.7-2.7 42.8 7.4 22-10.5 40.9 5.2 32.6 28.6 5.6-1.3 35.7 7.2 30.6 35.5z"/>
					<path id="&lt;Path&gt;" class="s8" d="m1756.8 878.6c-0.5 0.9-12.9-10.1-13.4-10.4-2.3-1.8 0.6-5.4 2.8-3.5 0 0 12 9.9 12 9.9 1.6 1.2 0.6 4.1-1.4 4z"/>
					<path id="&lt;Path&gt;" class="s8" d="m1751.2 920.7c-2 0.1-3-2.7-1.4-4 0 0 15.3-13.1 15.3-13.1 0.9-0.8 2.4-0.7 3.2 0.2 0.8 1 0.7 2.4-0.3 3.2-0.9 0.3-15.9 14.7-16.8 13.7z"/>
					<path id="&lt;Path&gt;" class="s8" d="m1812.4 933.8c-0.2 0.7-15-9.8-15.4-10-2.5-1.6 0.1-5.4 2.5-3.7 0 0 14.1 9.6 14.1 9.6 1.9 1.1 0.9 4.2-1.2 4.1z"/>
					<path id="&lt;Path&gt;" class="s8" d="m1806 905.8c-1.8 0.1-3-2.3-1.7-3.7 0 0 12.4-14.6 12.4-14.6 0.8-0.9 2.2-1 3.1-0.2 1 0.8 1.1 2.2 0.3 3.2-0.8 0.5-13 16.5-14.1 15.3z"/>
					<path id="&lt;Path&gt;" class="s8" d="m1875.5 895.9q-0.4 0-0.8-0.2l-18.1-6.9c-2.8-1-1.1-5.3 1.6-4.2 0 0 18.1 6.9 18.1 6.9 2.3 0.8 1.6 4.5-0.8 4.4z"/>
					<path id="&lt;Path&gt;" class="s8" d="m1839.3 858.7c-1.6 0.1-2.7-1.6-2.1-3l6.4-17.4c1-2.8 5.3-1.2 4.3 1.5-1.2 1.4-5.8 19.9-8.6 18.9z"/>
					<path id="&lt;Path&gt;" class="s8" d="m1786 889.8c-1.4 0-2.6-1.4-2.2-2.8l5.3-20.6c0.7-2.9 5.2-1.7 4.4 1.1-1.1 1.4-4.2 23.5-7.5 22.3z"/>
					<path id="&lt;Path&gt;" class="s8" d="m1811.8 844.8q-0.6 0-1.1-0.3l-16.8-9.5c-1.1-0.6-1.5-2-0.9-3.1 0.7-1.1 2-1.5 3.1-0.9l16.8 9.5c2.1 1.1 1.2 4.4-1.1 4.3z"/>
					<path id="&lt;Path&gt;" class="s8" d="m1765.9 843.2c-1.1 0-2-0.8-2.2-1.9l-3.4-21.2c-0.6-2.8 4-3.6 4.4-0.7 0 0 3.5 21.1 3.5 21.1 0.2 1.4-0.9 2.7-2.3 2.7z"/>
				</g>
				<g id="&lt;Group&gt;">
					<path id="&lt;Path&gt;" class="s19" d="m2197.9 834.3c-14.1 23.6-196.9-4-216.4-22.2-19.6-18.2-22.3-93.1-22.3-93.1l252.7-3.3 4.9-0.1c6.1 50.6-4.7 95.1-18.9 118.7z"/>
					<path id="&lt;Path&gt;" class="s13" d="m2216.8 715.6c-0.4-0.6-9.1 29.2-8.8 41.9 0 16.1-20.9 24.9-31.7 0-10.8-25-31 11.4-49.9 9.4-18.8-2-39.7-35-53.2-22.5-13.5 12.4-5.9 28.7-21.6 28.7-16.7 0-14.2-36.6-43.2-37.9-29-1.3-47.8 2.7-49.2-16.2-1.3-18.9 203.7-65.4 225.2-64 21 1.2 37.7 40.9 32.4 60.6z"/>
					<path id="&lt;Path&gt;" class="s13" d="m2114.6 795.4c-37.4 1.8-146.9-16-149.3-30.9 5.2-5.9 27.3 10.8 75.1 17.7 39.6 7.1 100.7 12 167-4.5 1.8-0.4 3.6 0.6 4 2.4 0.5 1.8-0.6 3.6-2.4 4-33.4 8.3-65.6 11.3-94.4 11.3z"/>
					<path id="&lt;Path&gt;" class="s13" d="m2127 822.2c-25.6 4.2-180.2-22.5-151.2-32.7 43.3 16.8 158 38.8 227.1 16.8 21.7 11.3-70.1 16.9-75.9 15.9z"/>
					<path id="&lt;Path&gt;" class="s13" d="m2197.9 834.3c13.2-52.6 11.2-77.4 5.2-98.2l8.8-20.4 2.7-27.2c3.2 10 21.3 90.5-16.7 145.8z"/>
					<path id="&lt;Path&gt;" class="s8" d="m2144.3 674.3c-0.6 35.5-53.5 35.3-54 0 0.6-35.4 53.3-35.6 54 0z"/>
					<path id="&lt;Path&gt;" class="s7" d="m2136.5 666.3c2.3 27.1-46.4 40.5-46.2 8-2.3-27.1 46.4-40.6 46.2-8z"/>
					<path id="&lt;Path&gt;" class="s24" d="m2117.3 661.2c-5.2-0.2-5.1-11.9-1.8-26.8 3.3-12.1 12.4-28.6 36.6-38.9 1.7-0.7 3.6 0.1 4.3 1.8 0.8 1.6 0 3.6-1.7 4.3-48.3 21.1-27.8 57-37.4 59.6z"/>
					<path id="&lt;Path&gt;" class="s25" d="m2007.5 719.1c-2.5 0.1-3.7-3.5-1.5-4.9 0 0 13.4-9.3 13.4-9.3 2.8-2 5.9 2.5 3 4.4-0.5 0.2-14.7 10.7-14.9 9.8z"/>
					<path id="&lt;Path&gt;" class="s25" d="m2068.7 729.3c-0.4 0.8-16.8-9.9-17.4-10-3-1.7-0.2-6.4 2.8-4.6 0 0 15.9 9.6 15.9 9.6 2.4 1.3 1.3 5.1-1.3 5z"/>
					<path id="&lt;Path&gt;" class="s25" d="m2164.6 691.2c-2.5 0.1-3.7-3.4-1.6-4.8 0 0 15.9-12 15.9-12 1.2-0.9 2.9-0.6 3.8 0.5 0.9 1.2 0.6 2.9-0.6 3.8-0.6 0.2-17.1 13.4-17.5 12.5z"/>
					<path id="&lt;Path&gt;" class="s25" d="m2180.5 725.2c-0.5 0.1-22.1-4.8-22.7-4.8-3.3-0.7-2.2-6 1.2-5.2 0 0 22.1 4.8 22.1 4.8 3.1 0.6 2.5 5.3-0.6 5.2z"/>
					<path id="&lt;Path&gt;" class="s25" d="m2068.7 704.6c-2.3 0.1-3.6-2.8-2-4.5 0 0 12.4-13.4 12.4-13.4 2.3-2.6 6.3 1.1 3.9 3.6-1.1 0.7-12.9 15.3-14.3 14.3z"/>
					<path id="&lt;Path&gt;" class="s25" d="m2122.6 742c-3 0.9-8.6-17.7-9.9-19.1-1.4-3.2 3.6-5.3 5-2.1 0 0 7.4 17.4 7.4 17.4 0.8 1.8-0.6 3.8-2.5 3.8z"/>
				</g>
				<g id="&lt;Group&gt;">
					<g id="&lt;Group&gt;">
						<path id="&lt;Path&gt;" class="s11" d="m2277 430.4q-0.2 0-0.5-0.1c14.8 2.4 11.3 25-3.6 22.7 14.9 2.4 11.3 25-3.6 22.7 14.9 2.4 11.3 24.9-3.5 22.7 14.7 2.1 11 25.2-3.6 22.6-6.3-0.9-10.6-6.8-9.6-13.1-2.1 14.8-25.2 11.1-22.7-3.6-2.4 14.8-24.9 11.3-22.6-3.6-2.5 14.9-25 11.3-22.7-3.6-2.4 14.9-25 11.3-22.7-3.6-2.1 14.8-25.2 11.1-22.7-3.5 1-6.3 6.9-10.6 13.2-9.6-14.8-2.4-11.3-24.9 3.5-22.7-14.8-2.4-11.2-24.9 3.6-22.6-14.8-2.5-11.2-25 3.6-22.7-14.8-2.4-11.2-25 3.6-22.7-6.3-1-10.5-6.9-9.5-13.1 2.4-14.9 24.9-11.3 22.6 3.5 2.5-14.8 25-11.2 22.7 3.6 2.4-14.8 25-11.2 22.7 3.6 2.4-14.8 25-11.2 22.7 3.6 2.4-14.8 25-11.2 22.7 3.6 1-6.3 6.8-10.5 13.1-9.5 14.8 2.4 11.3 24.9-3.6 22.6 14.5 2.1 11.4 24.7-3.1 22.8z"/>
						<path id="&lt;Path&gt;" class="s14" d="m2277 430.4q-0.2 0-0.5-0.1c14.8 2.4 11.3 25-3.6 22.7 14.9 2.4 11.3 25-3.6 22.7 14.9 2.4 11.3 24.9-3.5 22.7 14.7 2.1 11 25.2-3.6 22.6-6.3-0.9-10.6-6.8-9.6-13.1-2.1 14.8-25.2 11.1-22.7-3.6-2.4 14.8-24.9 11.3-22.6-3.6-2.5 14.9-25 11.3-22.7-3.6-2.4 14.9-25 11.3-22.7-3.6-2.1 14.8-25.3 11.2-22.7-3.5 1-6.3 6.9-10.6 13.2-9.6 0 0 79.7-5.1 118.2-85.9 2.7-5.7 6.8-10.5 13.1-9.5 14.8 2.4 11.3 24.9-3.6 22.6 14.5 2.1 11.4 24.7-3.1 22.8z"/>
						<path id="&lt;Path&gt;" class="s26" d="m2194.6 510.3c2.3-1.8 5.3-2.7 8.4-2.3-2.3 1.8-5.3 2.7-8.4 2.3z"/>
						<path id="&lt;Compound Path&gt;" fill-rule="evenodd" class="s10" d="m2243.5 491.5c-91.7-16.2-77.9 6.3-64.3-86.8 0.7-5.5 7.4-9 11.3-8 6 2.1 70.8 8.1 71.5 14.5 5.1 1.7-9.1 68-8.7 72.2-0.8 4.6-5.1 8.2-9.8 8.1zm-0.8-4.6c2.8 0.5 5.7-1.6 6.1-4.5-0.7-1.8 13.1-69.3 9.3-68.8-0.3-4.3-65.6-10.6-68.3-12.4-2.9-0.5-5.7 1.5-6.2 4.5-11.2 90.9-30.9 63.8 59.1 81.2z"/>
					</g>
					<g id="&lt;Group&gt;">
						<path id="&lt;Path&gt;" class="s11" d="m2353.6 522.6c13.3 6.8 2.2 27.5-10.8 20.2 13.2 6.9 2.2 27.5-10.8 20.3 13.2 6.8 2.2 27.5-10.8 20.3 13.2 6.8 2.2 27.4-10.8 20.2-5.6-3-7.7-9.9-4.8-15.5-6.8 13.2-27.4 2.2-20.2-10.8-6.8 13.2-27.5 2.2-20.3-10.8-6.8 13.2-27.4 2.2-20.2-10.8-6.9 13.2-27.5 2.2-20.3-10.9-6.8 13.3-27.5 2.3-20.3-10.8 3-5.5 10-7.7 15.6-4.7-13.2-6.8-2.3-27.5 10.8-20.2-13.3-6.9-2.2-27.5 10.8-20.3-13.3-6.8-2.2-27.5 10.8-20.3-13.2-6.8-2.2-27.4 10.8-20.2-13.2-6.8-2.2-27.5 10.8-20.3 5.6 3 7.7 10 4.7 15.6 6.9-13.3 27.5-2.3 20.3 10.8 6.8-13.3 27.5-2.3 20.3 10.8 6.8-13.3 27.4-2.3 20.2 10.8 6.9-13.3 27.5-2.3 20.3 10.8 6.8-13.3 27.5-2.2 20.2 10.8-2.9 5.6-9.9 7.7-15.5 4.7 13.3 6.9 2.2 27.5-10.8 20.3z"/>
						<path id="&lt;Path&gt;" class="s14" d="m2353.6 522.6c13.3 6.8 2.2 27.5-10.8 20.2 13.2 6.9 2.2 27.5-10.8 20.3 13.2 6.8 2.2 27.5-10.8 20.3 13.2 6.8 2.2 27.4-10.8 20.2-5.6-3-7.7-9.9-4.8-15.5-6.8 13.2-27.4 2.2-20.2-10.8-6.8 13.2-27.5 2.2-20.3-10.8-6.8 13.2-27.4 2.2-20.2-10.8-6.9 13.2-27.5 2.2-20.3-10.9-6.8 13.3-27.5 2.3-20.3-10.8 3-5.5 10-7.7 15.6-4.7 0 0 84.9 60.3 139.8-42.5 3-5.6 9.9-7.7 15.5-4.7 13.2 6.8 2.3 27.4-10.8 20.2 13.3 6.9 2.2 27.5-10.8 20.3z"/>
						<path id="&lt;Compound Path&gt;" fill-rule="evenodd" class="s10" d="m2305.6 570.1c-2.1 2-59.9-31.5-62.7-32.2-5-2.2-6.2-10.1-3.9-13.3 4-4.9 30.8-64.2 37-62.7 3.4-4.4 61.3 30.8 65.4 31.8 5 2.4 6.1 10 3.9 13.3-0.8 1.4-30.9 57.9-31 58.1-1.9 3.2-5.2 5-8.7 5zm-2.5-5.1c2.6 1.4 5.9 0.4 7.3-2.3l30.9-57.8c1.4-2.7 0.4-5.9-2.2-7.3-2 0.1-61.2-35.1-62-31.3-3.9-1.4-31.7 58.7-34.1 60.5-1.4 2.5-0.4 6 2.2 7.3 0 0 57.9 30.9 57.9 30.9z"/>
					</g>
				</g>
				<g id="&lt;Group&gt;">
					<path id="&lt;Path&gt;" class="s21" d="m2403.5 836.9q-1.3 2.7-2.5 5.4c-2.4-2.2-7.7-10.8-12.6-18.9q-1.4-2.4-2.7-4.7-0.2-0.2-0.3-0.4c-3.4-5.8-6.1-10.4-6.5-10.6-0.5-0.8-0.5-1.5-0.3-2.2 0.5-2 3.7-3.2 5.1-0.8l1.5 2.4 3 5 2 3.2 3 4.9z"/>
					<path id="&lt;Path&gt;" class="s21" d="m2338.7 977.4c-1.1 2.3-3.3 7.1-3.3 7.1l-9.5 5.9-4.9 3-3.8 2.3-4 2.5-1.5 0.4h-0.1l0.1-2.8c0 0 0.1-2.2 0.1-3.4l6.3-3.8 2.4-1.5 2.5-1.5 13.1-8.1c0 0 1.8-0.5 2.6-0.1z"/>
					<g id="&lt;Group&gt;">
						<path id="&lt;Path&gt;" class="s20" d="m2411.2 820.3c-25.3 54.7-75.8 164.2-75.8 164.2l-13.5 29.5-10.8-2.6 3.7-100.7c0 0 2.8-75 4.2-112.5 0.1-4.8 5.3-6.4 9.2-4.7 17.2 4.1 39.7 9.5 57 13.6 3 0.5 10.2 2.6 13.3 3.2 5.1 1.4 15.8 1.9 12.7 10z"/>
						<path id="&lt;Compound Path&gt;" fill-rule="evenodd" class="s21" d="m2411.2 820.3c-0.2 0.3-14.7 31.7-17.2 37.1 0 0-72.1 156.6-72.1 156.6l-0.6 0.4c-3.5 2.9-8.8 1.3-10.2-3 0 0 5.4-13.9 8.1-20.9-2.6-4.4-5.1-8.8-6.9-11.7q0.2-3.8 0.3-7.7c2.6 0 6.8 8.8 9.2 12.8 4.6-12.1 9.3-24.3 14.1-36.5-0.7-1.1-1.6-2.6-2.7-4.3-8.9 5.5-16.9 10.4-20 11.6q0.1-2.9 0.2-5.8c3.3-1.9 10.1-6.4 16.7-10.9-5.4-8.8-12.5-20.3-15.4-25q0.2-4.2 0.3-8.5c7.1-4.3 17.3-10.6 27.2-16.7-5.5-9-11.1-18-16.4-26.7q-4.8 2.8-9.3 5.6h-0.1q0.2-3.1 0.3-6.2 3.1-1.9 6.4-3.9-3.1-4.9-5.9-9.6 0.1-3.9 0.2-7.8c1.9-0.6 7 8.6 10.4 14.5 5.5-3.4 11.4-7 17.3-10.6-9.2-4.5-17.2-12.2-22.8-22.4-1.7 1-3.2 1.7-4.2 2.1 0-1 0.9-24.6 0.9-24.6 0.1-4.8 93.7 18.8 92.2 22.1zm-44.1 27.3q2.3 3.7 4.5 7.4 1.7-4.2 3.3-8.5-3.9 0.9-7.8 1.1zm-20.1 37.3c6.4-4 12.5-7.7 17.1-10.6 1.6-4 3.2-8.2 4.9-12.6q-4.4-7-8.8-14.2-4.1-0.5-8.1-1.7c-7.4 4.3-14.6 8.4-21.5 12.4q0.1 0.1 0.1 0.1c4.8 7.8 10.5 17.1 16.3 26.6zm-12.2 50c2.9-1.9 5.7-3.7 7.8-5q0 0 0 0 5-12.8 9.9-25.4-3.6-5.8-7.2-11.6c-9.6 5.6-18.9 10.9-26.7 15.6 4.6 7.5 10.5 17.1 16.2 26.4zm20.2-37q2.7-7 5.4-14-5.1 3.1-10.2 6.1 2.4 4 4.8 7.9z"/>
					</g>
					<path id="&lt;Path&gt;" class="s23" d="m2440.6 815.1c-19.1 26.9-39 1.9-39 1.9-26.5 22.5-60 12.1-74.5-16.8-48.9 15.1-37-59.5-6.8-59-5.1-15.3 4.1-42.8 27.8-32.2 18-26.8 36.2-9 46.2-19.9 8.7-9.5-3.2-20.6-3.2-20.6 55.5-4.6 35.8 58 35.8 58 32.1 9.4 9.9 42.5 9.9 42.5 0 0 22.9 19.1 3.8 46.1z"/>
					<path id="&lt;Path&gt;" class="s27" d="m2440.6 815.1c-19.1 26.9-39 1.9-39 1.9-26.5 22.5-60 12.1-74.5-16.8 55.3 29.6 89.4-26 81.9-49.5-7.6-23.4 5-17.8 6.7-48.5 1.6-30.6-24.6-33.7-24.6-33.7 55.5-4.6 35.8 58 35.8 58 32.1 9.4 9.9 42.5 9.9 42.5 0 0 22.9 19.1 3.8 46.1z"/>
					<path id="&lt;Path&gt;" class="s8" d="m2384.4 718.2c-1.2 5.2-9.3 3.3-8-1.9 1.2-5.2 9.3-3.3 8 1.9z"/>
					<path id="&lt;Path&gt;" class="s8" d="m2399.5 757c-1.2 5.2-9.3 3.3-8-1.9 1.1-5.2 9.3-3.3 8 1.9z"/>
					<path id="&lt;Path&gt;" class="s8" d="m2420.4 789.1c-1.2 5.2-9.3 3.3-8-1.9 1.1-5.2 9.3-3.3 8 1.9z"/>
					<path id="&lt;Path&gt;" class="s8" d="m2432.6 748.9c-1.2 5.2-9.4 3.2-8-1.9 1.1-5.2 9.3-3.3 8 1.9z"/>
					<path id="&lt;Path&gt;" class="s8" d="m2321.8 772.5c-1.2 5.2-9.3 3.3-8-1.9 1.1-5.2 9.3-3.3 8 1.9z"/>
					<path id="&lt;Path&gt;" class="s8" d="m2362.7 762.6c-1.1 5.2-9.3 3.3-8-1.9 1.2-5.2 9.3-3.3 8 1.9z"/>
					<path id="&lt;Path&gt;" class="s8" d="m2372.7 799.9c-1.2 5.2-9.4 3.3-8.1-1.9 1.2-5.2 9.4-3.3 8.1 1.9z"/>
					<path id="&lt;Path&gt;" class="s8" d="m2349.7 733.3c-1.2 5.2-9.3 3.3-8-1.9 1.2-5.2 9.3-3.2 8 1.9z"/>
				</g>
				<g id="&lt;Group&gt;">
					<path id="&lt;Path&gt;" class="s14" d="m1826.9 444.5c-152.1 78.3-110.5-49.3-44.3-81 2.7 33.4 27 67.2 44.3 81z"/>
					<path id="&lt;Path&gt;" class="s14" d="m2021.6 544.1c-22 61.6-80.9 22.8-70.2-44.5l77.9-38.7c0 0 9.2 44.4-7.7 83.2z"/>
					<path id="&lt;Path&gt;" class="s10" d="m1826.9 444.5c-20.9 10.1-109.4 51.1-104.3 0.4 0 0 35 16.8 76.5-18.1l9.4-1.7c9.7 12.6 18.4 19.4 18.4 19.4z"/>
					<path id="&lt;Path&gt;" class="s10" d="m2021.6 544.1c-21.9 61.2-80.6 23.4-70.3-44l36.2 1.6c0 0-5.3 49.1 34.1 42.4z"/>
					<path id="&lt;Path&gt;" class="s11" d="m1861 451.4c-10.6 9.3-25.7 1-38.5-4.8-64.9-38.2-56.1-137.7 41-115.6 0 0 3.8 111.3-2.5 120.4z"/>
					<path id="&lt;Path&gt;" class="s14" d="m1863.3 435.9l-7.4 18.9c-20.5 2.7-43.3-11.3-56.8-28 0 0 21 10.6 50.3 3.4z"/>
					<path id="&lt;Path&gt;" class="s11" d="m2029.3 460.9c-17.6 54.2-131.2 74.2-107.4-2.2 0 0 71.3-72.8 71.3-72.8 0 0 51.7 32.6 36.1 75z"/>
					<path id="&lt;Path&gt;" class="s14" d="m1987.5 501.7c-39.8 18.4-74 5.7-67.7-33.4l33.5-11.3c0 0-9.5 42.6 34.2 44.7z"/>
					<path id="&lt;Path&gt;" class="s14" d="m1972.5 432.7c-33.3 52.6-95 79.6-118.6 17.2-13.5-35.5 2.7-99.5 9.6-118.9 25.8-59.6 187.1 6.3 109 101.7z"/>
					<path id="&lt;Path&gt;" class="s10" d="m1953.3 457c-51.3 51.2-95.2 31.1-103.8-26.8 0.7 0.9 37.3 45.6 103.8 26.8z"/>
				</g>
				<g id="&lt;Group&gt;">
					<path id="&lt;Path&gt;" class="s26" d="m2230.6 1056.9c-42.1 0.6-132.4 4.8-273.6 72-11.7 5.7-21.3 16.3-14.8-12.3 15.1-65.9 89.3-187.6 184.3-208.7 39.6 21.8 96.6 82.5 104.1 149z"/>
					<path id="&lt;Path&gt;" class="s24" d="m2221.9 1035.9c-2.6 3.8-0.4 12.1-3.8 14-10.6 6.2-39.4-2.7-59.8-1.2-34.3 2.5-37 26.8-79.8 16.3-38.9-9.5-34.9 23.8-70.2 29.1-17 2.6-37.6 21.4-54.9 32.1-48.4 24.5 55.6-200.4 173.1-218.3 29.3 14.8 73.3 89.3 95.4 113.8 0 0 5.6 6.1 0 14.2z"/>
					<path id="&lt;Path&gt;" class="s28" d="m2046.8 1024.9c-0.5 30.6-46.1 30.6-46.6 0 0.5-30.6 46.1-30.6 46.6 0z"/>
					<path id="&lt;Path&gt;" class="s29" d="m2221.9 1035.9c-2.6 3.8-0.4 12.1-3.8 14-10.6 6.2-39.4-2.7-59.8-1.2-34.3 2.5-37 26.8-79.8 16.3-38.9-9.5-34.9 23.8-70.2 29.1-15.1-2.6-69.2 52.7-67.1 28.7 107.8-122.6 253.7-41.9 223.6-155.3l34.2 24.1 22.9 30.1c0 0 5.6 6.1 0 14.2z"/>
					<path id="&lt;Path&gt;" class="s28" d="m2170.8 1009.8c-0.6 31.4-47.3 31.4-47.8 0 0.5-31.4 47.2-31.4 47.8 0z"/>
					<path id="&lt;Path&gt;" class="s28" d="m2152.2 945.5c-0.5 31.3-47.1 31.3-47.6 0 0.5-31.3 47.1-31.3 47.6 0z"/>
					<path id="&lt;Path&gt;" class="s28" d="m2100.6 1024.9c-0.1 22.2-33.9 22.2-34 0 0.1-22.2 33.9-22.2 34 0z"/>
					<path id="&lt;Path&gt;" class="s28" d="m2001.4 1074.7c-0.1 22.2-33.9 22.2-34 0 0.1-22.3 33.9-22.3 34 0z"/>
					<path id="&lt;Path&gt;" class="s28" d="m2087.4 958.3c0.2 34.7-51.3 41.4-57.8 7.7 12.4-11.5 23.5-24.1 39.3-33.6 9.3 4.9 18.5 14.6 18.5 25.9z"/>
					<path id="&lt;Path&gt;" class="s11" d="m2221.7 1056.8c-1.1-1.5-5.5-9.3-12.3-20.9-18.1-30.7-53.5-87.7-93.3-124.5-4.9-4.6 12.4-15.3 28.7-6.2 46.8 26.2 79.4 88.8 95.2 130.7 6.6 17.6-9.4 32.7-18.3 20.9z"/>
					<path id="&lt;Path&gt;" class="s26" d="m2221.7 1056.8c-1.1-1.5-5.5-9.3-12.3-20.9 26.8-34.2-40-112.7-40-112.7 33.6 30.7 57.8 78.6 70.6 112.7 6.6 17.6-9.4 32.7-18.3 20.9z"/>
				</g>
			</g>
			<g id="2">
				<path id="&lt;Path&gt;" class="s20" d="m1712.9 1390c-50.7-106.2-105.1-231.2-230.2-270.3-10.9-3.4-24.8 5.8-6.7 14.1 13.3 6.1 22.9 10.7 34.4 18.8-10.6 2-19.3 9.2-13.1 17-11.3 3.8-18.2 12-10.7 21-13.6 5.3 18.8 47.5 29 28.9-0.6 1.1 19 34.9 43.2 43.4 30.6 10.6 30.1 155 30.1 155 0 0-35.7-67.5-68.1-119.9-116.1-107.4-163.5 33.2-111.9 90.4 64.2 71.1 170.8 256.8 263.9 278.3 175.2 22.5 93.6-186.5 40.1-276.7z"/>
				<path id="&lt;Path&gt;" class="s30" d="m1701.2 1715.6c-39.9 1.5-160-30-202.7-176.8-5.8-19.8-26.2-13.8-39.1-30.4-21.2-27.1-47.8-50.7-67.7-73.8-26.3-29.1-22-107.3 4.4-149.9 35.6-77.5 185.6 31.5 185.6 31.5 9.6 46.4 7.2 101.7 7.2 101.7 0 0 61.7 43.2 124-27.9 75.6 66.9 154.3 319.4-11.7 325.6z"/>
				<path id="&lt;Path&gt;" class="s31" d="m1566.5 1269c0 0 36.8-0.3 62.8-34.3 0 0 13.1 8.1 14.9 22.6 0 0-14.6 30.2-67.1 36.9 0 0-12.5-9.9-10.6-25.2z"/>
				<path id="&lt;Path&gt;" class="s32" d="m1605.6 1274.1c-2.9-3-2.5-7.6 0.8-10.2l18.2-14.5c3.4-2.6 8.4-2.4 11.3 0.6 2.8 3 2.4 7.6-0.9 10.3l-18.2 14.4c-3.3 2.7-8.4 2.4-11.2-0.6z"/>
				<path id="&lt;Path&gt;" class="s33" d="m1539.4 1162c-10.4-8.2-26.9-8.9-27-8.4-8.1-5.2 16.6-4.3 27.9 5.7 1.1 0.9 0.4 2.8-0.9 2.7z"/>
				<path id="&lt;Path&gt;" class="s33" d="m1529.1 1176.3c-18.7-13.3-28.2-3.7-31.2-6.1-1.2-3.6 14.4-9.4 32.1 3.4 1.2 0.8 0.5 2.8-0.9 2.7z"/>
				<path id="&lt;Path&gt;" class="s33" d="m1516.9 1192.1c-18.1-7.8-27.4-1.6-27.1-1.2-1.4 1.3-3.5-0.9-2.1-2.3 0.4-0.3 9.1-8.2 29.8 0.6 1.5 0.5 1 2.9-0.6 2.9z"/>
				<path id="&lt;Path&gt;" class="s34" d="m1605.2 1685.5c-54.2-24.4-99-109.9-100-129.9-1-20.6-32.9-30.6-45.8-47.2l-4-33 39.1-94.9c146.5 130.3-40.2 152.5 110.7 305z"/>
				<path id="&lt;Path&gt;" class="s35" d="m1313 855.2c0 0-299.5 138.3-285.2 521.3 0 0 164.6 40.2 291.6-4.3-23.2-52.3-71.1-335.8-6.4-517z"/>
				<path id="&lt;Path&gt;" class="s36" d="m1196.1 1105.8c0 0-51.2 131.1-28.8 271.5l287 0.6c0 0-16.6-227.1-27.6-302.4z"/>
				<path id="&lt;Path&gt;" class="s20" d="m1262 1197.9c0 0-15.2 37.3-69.3 50.4-88.1 21.3-159.1 95.2-159.1 95.2 9 10.7 204.8-33.2 219.5-23.8 43.3 27.6 60.1 42.1 76.2 42.9 16.1 0.7 82-83 80.5-114.3 0 0-51.9-6.9-48.9-45.5z"/>
				<path id="&lt;Path&gt;" class="s30" d="m1115.8 1583.2c3-23.9 2.3-50.1-5.9-76.1-20.1-83.5 30.3-145.6 34.2-243.5 0 0 149.7 102 185.2 99 21.5-17.6 71-97.2 113.2-106.5 41.7 4.2 45.7 118.8 72.4 165.5 27 47.5 12.6 100.9-9.7 134-10.5 23.2 4.6 44.5 13.4 72.5 9.8 26.1 20.3 61.7 20.8 92h-458.6c0 0 28-80.3 35-136.9z"/>
				<path id="&lt;Path&gt;" class="s33" d="m1364.4 1175.5c-0.2 8.1-2 17-3.5 27.3-48.2 11.9-85.7 0.7-98.9-4.9 3.8-21.4 8.2-40.3 9.3-44.6 17.2-61.4 105.5-39.7 93.1 22.2z"/>
				<path id="&lt;Path&gt;" class="s34" d="m1143.4 1508.7c-8.5 34.8-2.5 87.1-2.5 87.1l-25.1-12.6c3-23.9 2.3-50.1-5.9-76.1-3.5-11.3-5-23.4-4.9-36.3l76.9-52.3c0 0-31.5 61.5-38.5 90.2z"/>
				<path id="&lt;Path&gt;" class="s20" d="m1403.8 1649.2c-36.7-0.5-44.9 17.8-79.8 5.9-123.1-48.7-249.7-16.9-251.9-132.5 3.5-123.7 170.7-113.3 136.3-220.6-16.9-41.5-97.1-36.1-136.3 4.9-46.3 45.1-140.9 180.7-140.9 180.8-128.6 329.2 387.3 208.5 552.2 230.4 0 0 9-67.7-79.6-68.9z"/>
				<path id="&lt;Path&gt;" class="s30" d="m1196.1 1441.5c-15.8 9.9-44.1 41.9-62.1 54.7-36.3 26-43.4 63.1-24.3 77.2 9.3 6.8 43.6 31.9 43.6 31.9 14.2 3.1 24.2 4.8 31.3 15.1-2.6 8.3-28.4 43.4-7.4 98.9-477.8 71.5-267.5-395.7-22.6-459 0 0 60.6 11.4 73.5 48.9 23.3 52.9 50.7 70.5-32 132.3z"/>
				<g id="&lt;Group&gt;">
					<path id="&lt;Path&gt;" class="s35" d="m1313 855.2c0 0 138.2-59.4 106.3 158.2z"/>
					<path id="&lt;Path&gt;" class="s20" d="m1449.4 1086.2c-10.6 80.9-104 122.1-177.1 97.1-150.1-47.6-104.3-361.5 69.6-303.2 53 23.5 52.7 79 78.2 127.9 17.4 22.6 34.1 48.7 29.3 78.2z"/>
					<path id="&lt;Path&gt;" class="s33" d="m1403.4 965.8c-40-73.6-55.9-73.2-92.2-85.2l3.8-7.2c49.7 4 75.4 46.6 88.4 92.4z"/>
					<path id="&lt;Path&gt;" class="s33" d="m1277 1184.6q-2.3-0.6-4.6-1.3c0 0-0.1 0-0.1 0-38.6-11.3-63.8-39.9-76.2-77.5l20.1 11.8c0 0 12.6 46.9 60.8 67z"/>
					<path id="&lt;Path&gt;" class="s33" d="m1324.1 956.1c-38.4 87.3-104.2 129.5-104.2 129.5l-32-10.2c-3-14.4-5.3-29.7-5.9-44.5l72.6-65.6z"/>
					<path id="&lt;Path&gt;" class="s35" d="m1341.9 880.1c0 0 18.5 137.6-145.8 225.7-209.6-139.9 11.6-392 145.8-225.7z"/>
					<path id="&lt;Path&gt;" class="s20" d="m1224.1 1072.2c26.7 43.3-24.4 76-52.5 33.5-26.8-43.3 24.4-76 52.5-33.5z"/>
					<path id="&lt;Path&gt;" class="s37" d="m1185.6 1107.3c-21.1-25.6-9-44 14.5-41.6 2.3 0.2 1.9 3.7-0.3 3.5-20.1-1.8-29.4 10.8-12.7 35.5 0.8 1.1-0.1 2.7-1.5 2.6z"/>
					<path id="&lt;Path&gt;" class="s37" d="m1210.5 1098c-2.2 0.3-12.4-20.1-33.4-17.7-0.9 0.1-1.8-0.6-1.9-1.6-0.1-0.9 0.5-1.8 1.5-1.9 20.7-2.8 40.5 20.2 33.8 21.2z"/>
				</g>
				<path id="&lt;Path&gt;" class="s37" d="m1341.8 1017.4c2.8 7.8-9.5 12-12.1 4.1-2.8-7.8 9.5-12 12.1-4.1z"/>
				<path id="&lt;Path&gt;" class="s37" d="m1402 994.7c2.8 7.8-9.5 12.1-12.1 4.2-2.8-7.8 9.5-12 12.1-4.2z"/>
				<path id="&lt;Path&gt;" class="s37" d="m1395.4 1060.7c-2.2 0.1-3-3-1.1-4 3.9-2.5 20.6-18 7.6-19.8-17.5-1.9-36.8-31.5-24.7-25.4 0.1 0.2 10.1 18.6 25.4 21.1 20 3.5-0.9 26.2-7.2 28.1z"/>
				<path id="&lt;Path&gt;" class="s37" d="m1398.7 1089.7c-7.4 1.4 7.2-26 14-19.9 0.5 1 0.1 2.3-1 2.9-11 5.8-8.5 15.9-13 17z"/>
				<path id="&lt;Path&gt;" class="s3" d="m1256.5 1245.3q0 0.2-0.1 0.5 0.1-0.4 0.1-0.8 0 0.1 0 0.3z"/>
				<path id="&lt;Path&gt;" class="s38" d="m1212 1202.8c-34.4-2.5-3.5-89.2-5.1-88.1 7.5 18 34.8 85.2 5.1 88.1z"/>
				<path id="&lt;Path&gt;" class="s38" d="m1211.6 1114.4c0.4 6.1-9.2 6.7-9.5 0.6-0.4-6.2 9.2-6.7 9.5-0.6z"/>
				<path id="&lt;Path&gt;" class="s39" d="m1212 1202.8c-6.2 0.4-10.2-2.5-12.6-7.5 0 0 29.9-2.6 9.3-76.3 7.2 17.6 31.9 82.1 3.3 83.8z"/>
				<path id="&lt;Path&gt;" class="s34" d="m1442.5 1256.1c-23.4 56.7-67 96.7-107.5 128-72.3-16.8-181.2-117.4-180.4-123.8 0 0 18.8-11.3 38.1-12 0 0 60.5 68.4 135.9 102.1 0 0 69.5-58.8 81-102.1 11.2 1.9 22.2 4.5 32.9 7.8z"/>
				<path id="&lt;Path&gt;" class="s34" d="m1743 1426c-70.1 80.6-161.6 35.1-161.6 35.1 0.5-24 7.5-43.2 7.5-43.2 0 0 61.7 43.2 124-27.9 9.8 4.9 22.7 20.7 30.1 36z"/>
				<path id="&lt;Path&gt;" class="s34" d="m1597.3 1581.1c-14.5-35.5-30-138.2-7-162.5 4.7 2.9-7.3 18.7-6.4 42.5 0 37.8 5.3 77.1 15.8 116.9 0.5 1.5-0.8 3.1-2.4 3.1z"/>
				<path id="&lt;Path&gt;" class="s34" d="m1354.8 1421.4c-0.1 17.7-27 17.7-27 0 0-17.7 26.9-17.7 27 0z"/>
				<path id="&lt;Path&gt;" class="s34" d="m1358.9 1470.4c-0.1 17.7-27 17.7-27 0 0-17.7 26.9-17.7 27 0z"/>
				<path id="&lt;Path&gt;" class="s34" d="m1358.9 1522.2c-0.1 17.7-27 17.7-27 0 0-17.7 26.9-17.7 27 0z"/>
				<path id="&lt;Path&gt;" class="s34" d="m1323.7 1560.2c-4.5-72.9-10-165.6-12.6-163.3 5.2-20.9 21.2 93 12.6 163.3z"/>
				<path id="&lt;Path&gt;" class="s34" d="m1369.9 1560.2c-1.4 0-2.5-1.2-2.4-2.6 5.5-81.4-7-164.9-7.2-165.7 7-18.6 20.3 95.4 9.6 168.3z"/>
				<path id="&lt;Path&gt;" class="s33" d="m1470.2 1717.1c-3.1-21.6-18.5-52.7-52.1-52-1.9-0.1-1.7-3.1 0.2-2.9 36.8 0.5 57.1 35.3 51.9 54.9z"/>
				<path id="&lt;Path&gt;" class="s33" d="m1456.1 1717.1c-4-1.7-0.7-37-44-37.3-1.9 0-1.9-3 0-3 43.5 0.5 47.9 39.5 44 40.3z"/>
				<path id="&lt;Path&gt;" class="s33" d="m1440 1717.1c-0.8 0-1.4-0.6-1.4-1.4-0.6-12.6-17.5-20.6-34.1-18.8-1.9 0.1-2.1-2.9-0.1-3 13.5-0.7 23.7 2 30.2 8 6.8 6.9 8.5 14.8 5.4 15.2z"/>
				<path id="&lt;Path&gt;" class="s34" d="m1177.2 1719.3c0 0 6.9-1.9-6.5-0.2-4.4 0.3-29.9 0.4-34.5-1-30.1-70.8 15.7-114.7 15.7-114.7 9.6 0 27.3 7.9 32.7 17-2.6 8.3-28.4 43.4-7.4 98.9z"/>
				<path id="&lt;Path&gt;" class="s34" d="m1155.3 1609.3c-2.5-0.5-14.2-9.4-37.5-29.9-1-1-1.1-2.5-0.1-3.6 0.9-1 2.5-1.1 3.5-0.2 21.8 21.6 43.7 30.5 34.1 33.7z"/>
			</g>
			<path id="1" class="s2" d="m2373.4 1741h-2086.3c-22.6 0-22.3-22.9-0.2-22.9h2086.5c16.9 0 17.2 22.9 0 22.9z"/>
		</g>
	</g>
</svg>