<svg version="1.2" xmlns="http://www.w3.org/2000/svg" viewBox="0 0 3000 2000" width="3000" height="2000">
	<title>nutritionist_4</title>
	<defs>
		<linearGradient id="g1" x2="1" gradientUnits="userSpaceOnUse" gradientTransform="matrix(10.289,-808.162,474.713,6.044,581.506,1650.994)">
			<stop offset="0" stop-color="#188a63"/>
			<stop offset="1" stop-color="#8cdec1"/>
		</linearGradient>
		<linearGradient id="g2" x2="1" gradientUnits="userSpaceOnUse" gradientTransform="matrix(1,0,0,.838,662.297,1779.234)">
			<stop offset="0" stop-color="#188a63"/>
			<stop offset="1" stop-color="#8cdec1"/>
		</linearGradient>
		<linearGradient id="g3" x2="1" gradientUnits="userSpaceOnUse" gradientTransform="matrix(60.581,-400.63,525.977,79.536,949.039,1051.592)">
			<stop offset="0" stop-color="#8cdec1"/>
			<stop offset="1" stop-color="#ffffff"/>
		</linearGradient>
		<linearGradient id="g4" x2="1" gradientUnits="userSpaceOnUse" gradientTransform="matrix(-8.741,-686.582,403.297,-5.134,2548.598,1666.674)">
			<stop offset="0" stop-color="#188a63"/>
			<stop offset="1" stop-color="#8cdec1"/>
		</linearGradient>
		<linearGradient id="g5" x2="1" gradientUnits="userSpaceOnUse" gradientTransform="matrix(1,0,0,.838,2531.696,1848.822)">
			<stop offset="0" stop-color="#188a63"/>
			<stop offset="1" stop-color="#188a63"/>
		</linearGradient>
		<linearGradient id="g6" x2="1" gradientUnits="userSpaceOnUse" gradientTransform="matrix(3.515,-4.121,2.773,2.366,1053.629,1261.787)">
			<stop offset="0" stop-color="#ff8762"/>
			<stop offset="1" stop-color="#ff5c47"/>
		</linearGradient>
		<linearGradient id="g7" x2="1" gradientUnits="userSpaceOnUse" gradientTransform="matrix(5.188,-6.027,3.354,2.887,1367.496,1246.126)">
			<stop offset="0" stop-color="#ff6b3d"/>
			<stop offset="1" stop-color="#ff8762"/>
		</linearGradient>
	</defs>
	<style>
		.s0 { fill: #074530 } 
		.s1 { fill: #d2b8ec } 
		.s2 { fill: url(#g1) } 
		.s3 { fill: #5e5e5e } 
		.s4 { fill: url(#g2) } 
		.s5 { fill: #302a2b } 
		.s6 { fill: #3f3d3d } 
		.s7 { fill: #d1d1d1 } 
		.s8 { fill: url(#g3) } 
		.s9 { fill: #188a63 } 
		.s10 { fill: #8cdec1 } 
		.s11 { fill: #917171 } 
		.s12 { fill: #d4baba } 
		.s13 { fill: #bfbfd9 } 
		.s14 { fill: #f9fbb7 } 
		.s15 { fill: #fbe38a } 
		.s16 { fill: #233862 } 
		.s17 { fill: #274f9f } 
		.s18 { fill: #c0cfed } 
		.s19 { fill: #677198 } 
		.s20 { fill: url(#g4) } 
		.s21 { fill: url(#g5) } 
		.s22 { fill: #ad4269 } 
		.s23 { fill: #e0b3a8 } 
		.s24 { fill: #474747 } 
		.s25 { fill: #ff8762 } 
		.s26 { fill: #18294c } 
		.s27 { fill: #2b1710 } 
		.s28 { fill: #faf7fc } 
		.s29 { fill: #d9d9d9 } 
		.s30 { fill: #e0c9c0 } 
		.s31 { fill: url(#g6) } 
		.s32 { fill: #ff7e57 } 
		.s33 { fill: #ffffff } 
		.s34 { fill: #754fa6 } 
		.s35 { fill: #2743b3 } 
		.s36 { fill: #f1f1f1 } 
		.s37 { fill: #693e2f } 
		.s38 { fill: url(#g7) } 
		.s39 { fill: #f4f199 } 
		.s40 { fill: #9a78c2 } 
	</style>
	<g id="_Artboards_">
	</g>
	<g id="Layer 1">
		<g id="&lt;Group&gt;">
		</g>
		<g id="&lt;Group&gt;">
			<g id="&lt;Group&gt;">
				<g id="&lt;Group&gt;">
					<path id="&lt;Path&gt;" class="s0" d="m2101 583.3c-318.7-123.4-677.5-77.5-844 94.7-166.5 172.3-195.2 338.8-525.3 456.5-330.2 117.7-344.5 445-203.9 691.8l2156 8.7c189.4-766.5-264.1-1128.2-582.8-1251.7z"/>
				</g>
				<g id="&lt;Group&gt;">
				</g>
			</g>
			<g id="&lt;Group&gt;">
				<g id="&lt;Group&gt;">
					<g id="&lt;Group&gt;">
					</g>
				</g>
			</g>
			<g id="&lt;Group&gt;">
				<g id="&lt;Group&gt;">
					<g id="&lt;Group&gt;">
					</g>
				</g>
			</g>
			<g id="&lt;Group&gt;">
				<g id="&lt;Group&gt;">
					<g id="&lt;Group&gt;">
						<g id="&lt;Group&gt;">
						</g>
					</g>
				</g>
				<g id="&lt;Group&gt;">
					<g id="&lt;Group&gt;">
						<g id="&lt;Group&gt;">
						</g>
					</g>
				</g>
			</g>
			<g id="&lt;Group&gt;">
				<g id="&lt;Group&gt;">
					<g id="&lt;Group&gt;">
						<g id="&lt;Group&gt;">
						</g>
					</g>
				</g>
				<g id="&lt;Group&gt;">
					<g id="&lt;Group&gt;">
						<g id="&lt;Group&gt;">
						</g>
					</g>
				</g>
				<g id="&lt;Group&gt;">
					<g id="&lt;Group&gt;">
						<g id="&lt;Group&gt;">
						</g>
					</g>
				</g>
				<g id="&lt;Group&gt;">
					<g id="&lt;Group&gt;">
					</g>
				</g>
				<g id="&lt;Group&gt;">
					<g id="&lt;Group&gt;">
					</g>
				</g>
			</g>
			<g id="&lt;Group&gt;">
				<g id="&lt;Group&gt;">
					<g id="&lt;Group&gt;">
						<g id="&lt;Group&gt;">
						</g>
					</g>
				</g>
				<g id="&lt;Group&gt;">
					<g id="&lt;Group&gt;">
						<g id="&lt;Group&gt;">
							<path id="&lt;Compound Path&gt;" fill-rule="evenodd" class="s1" d="m843.5 621.4c-4.7 5-12.6 5.2-17.5 0.4-5-4.7-5.2-12.5-0.5-17.5 4.7-4.9 12.6-5.1 17.5-0.4 5 4.7 5.2 12.5 0.5 17.5zm-16.2-15.4c-3.8 4-3.6 10.3 0.4 14.1 3.9 3.7 10.2 3.6 14-0.4 3.8-4 3.6-10.3-0.4-14-3.9-3.8-10.2-3.6-14 0.3z"/>
						</g>
					</g>
				</g>
				<g id="&lt;Group&gt;">
					<g id="&lt;Group&gt;">
						<g id="&lt;Group&gt;">
						</g>
					</g>
				</g>
				<g id="&lt;Group&gt;">
					<g id="&lt;Group&gt;">
						<path id="&lt;Path&gt;" class="s1" d="m844.2 639.6l-2.3 0.9-6.2-16.3 2.3-0.9z"/>
					</g>
				</g>
				<g id="&lt;Group&gt;">
					<g id="&lt;Group&gt;">
						<path id="&lt;Path&gt;" class="s1" d="m887.4 643.2l-19.9 12.4-1.3-2.1 19.9-12.4z"/>
					</g>
				</g>
			</g>
			<g id="&lt;Group&gt;">
				<g id="&lt;Group&gt;">
					<g id="&lt;Group&gt;">
						<g id="&lt;Group&gt;">
							<path id="&lt;Compound Path&gt;" fill-rule="evenodd" class="s1" d="m2816 1379.4c-6.9 7.3-18.5 7.6-25.8 0.6-7.4-6.9-7.7-18.5-0.7-25.8 6.9-7.3 18.5-7.6 25.9-0.7 7.3 7 7.6 18.6 0.6 25.9zm-24.7-23.5c-6 6.3-5.8 16.3 0.5 22.4 6.4 6 16.4 5.7 22.4-0.6 6-6.3 5.8-16.4-0.5-22.4-6.4-6-16.4-5.8-22.4 0.6z"/>
						</g>
					</g>
				</g>
				<g id="&lt;Group&gt;">
					<g id="&lt;Group&gt;">
						<g id="&lt;Group&gt;">
							<path id="&lt;Compound Path&gt;" fill-rule="evenodd" class="s1" d="m2796.2 1332.1c-4.7 4.9-12.5 5.1-17.5 0.4-4.9-4.7-5.1-12.6-0.4-17.5 4.7-5 12.5-5.2 17.5-0.4 5 4.7 5.2 12.5 0.4 17.5zm-16.1-15.4c-3.8 4-3.6 10.3 0.3 14 4 3.8 10.3 3.6 14.1-0.3 3.7-4 3.6-10.3-0.4-14.1-4-3.7-10.3-3.6-14 0.4z"/>
						</g>
					</g>
				</g>
				<g id="&lt;Group&gt;">
					<g id="&lt;Group&gt;">
						<g id="&lt;Group&gt;">
							<path id="&lt;Compound Path&gt;" fill-rule="evenodd" class="s1" d="m2858.4 1355.3c-4.8 5-12.6 5.2-17.6 0.5-4.9-4.7-5.1-12.6-0.4-17.5 4.7-5 12.6-5.2 17.5-0.5 5 4.7 5.2 12.6 0.5 17.5zm-16.2-15.3c-3.8 3.9-3.6 10.2 0.3 14 4 3.8 10.3 3.6 14.1-0.4 3.7-3.9 3.6-10.2-0.4-14-4-3.8-10.3-3.6-14 0.4z"/>
						</g>
					</g>
				</g>
				<g id="&lt;Group&gt;">
					<g id="&lt;Group&gt;">
						<path id="&lt;Path&gt;" class="s1" d="m2797 1350.3l-2.3 0.8-6.2-16.3 2.3-0.9z"/>
					</g>
				</g>
				<g id="&lt;Group&gt;">
					<g id="&lt;Group&gt;">
						<path id="&lt;Path&gt;" class="s1" d="m2840.2 1353.9l-19.9 12.3-1.3-2.1 19.9-12.3z"/>
					</g>
				</g>
			</g>
			<g id="&lt;Group&gt;">
				<g id="&lt;Group&gt;">
					<g id="&lt;Group&gt;">
						<g id="&lt;Group&gt;">
						</g>
					</g>
				</g>
				<g id="&lt;Group&gt;">
					<g id="&lt;Group&gt;">
					</g>
				</g>
				<g id="&lt;Group&gt;">
					<g id="&lt;Group&gt;">
						<g id="&lt;Group&gt;">
						</g>
					</g>
				</g>
			</g>
			<g id="&lt;Group&gt;">
				<g id="&lt;Group&gt;">
					<g id="&lt;Group&gt;">
						<g id="&lt;Group&gt;">
						</g>
					</g>
				</g>
				<g id="&lt;Group&gt;">
					<g id="&lt;Group&gt;">
					</g>
				</g>
				<g id="&lt;Group&gt;">
					<g id="&lt;Group&gt;">
						<path id="&lt;Path&gt;" class="s1" d="m715.1 819.4h-6.6v-2.4h6.6z"/>
					</g>
				</g>
				<g id="&lt;Group&gt;">
					<g id="&lt;Group&gt;">
						<path id="&lt;Path&gt;" class="s1" d="m703.9 837.3h-6.5v-2.5h6.5z"/>
					</g>
				</g>
				<g id="&lt;Group&gt;">
					<g id="&lt;Group&gt;">
						<path id="&lt;Path&gt;" class="s1" d="m711 857.3h-6.6v-2.4h6.6z"/>
					</g>
				</g>
				<g id="&lt;Group&gt;">
					<g id="&lt;Group&gt;">
					</g>
				</g>
				<g id="&lt;Group&gt;">
					<g id="&lt;Group&gt;">
					</g>
				</g>
			</g>
			<g id="&lt;Group&gt;">
				<g id="&lt;Group&gt;">
					<g id="&lt;Group&gt;">
					</g>
				</g>
				<g id="&lt;Group&gt;">
					<g id="&lt;Group&gt;">
					</g>
				</g>
				<g id="&lt;Group&gt;">
					<g id="&lt;Group&gt;">
					</g>
				</g>
			</g>
			<g id="&lt;Group&gt;">
				<g id="&lt;Group&gt;">
					<g id="&lt;Group&gt;">
						<g id="&lt;Group&gt;">
						</g>
					</g>
				</g>
				<g id="&lt;Group&gt;">
					<g id="&lt;Group&gt;">
					</g>
				</g>
			</g>
			<g id="&lt;Group&gt;">
				<g id="&lt;Group&gt;">
					<g id="&lt;Group&gt;">
					</g>
				</g>
				<g id="&lt;Group&gt;">
					<g id="&lt;Group&gt;">
						<g id="&lt;Group&gt;">
						</g>
					</g>
				</g>
				<g id="&lt;Group&gt;">
					<g id="&lt;Group&gt;">
						<g id="&lt;Group&gt;">
						</g>
					</g>
				</g>
				<g id="&lt;Group&gt;">
					<g id="&lt;Group&gt;">
					</g>
				</g>
				<g id="&lt;Group&gt;">
					<g id="&lt;Group&gt;">
					</g>
				</g>
				<g id="&lt;Group&gt;">
					<g id="&lt;Group&gt;">
					</g>
				</g>
				<g id="&lt;Group&gt;">
					<g id="&lt;Group&gt;">
					</g>
				</g>
				<g id="&lt;Group&gt;">
					<g id="&lt;Group&gt;">
					</g>
				</g>
				<g id="&lt;Group&gt;">
					<g id="&lt;Group&gt;">
					</g>
				</g>
				<g id="&lt;Group&gt;">
					<g id="&lt;Group&gt;">
					</g>
				</g>
				<g id="&lt;Group&gt;">
					<g id="&lt;Group&gt;">
					</g>
				</g>
			</g>
			<g id="&lt;Group&gt;">
				<g id="&lt;Group&gt;">
					<g id="&lt;Group&gt;">
						<g id="&lt;Group&gt;">
						</g>
					</g>
				</g>
				<g id="&lt;Group&gt;">
					<g id="&lt;Group&gt;">
					</g>
				</g>
				<g id="&lt;Group&gt;">
					<g id="&lt;Group&gt;">
					</g>
				</g>
			</g>
			<g id="&lt;Group&gt;">
				<g id="&lt;Group&gt;">
					<g id="&lt;Group&gt;">
						<g id="&lt;Group&gt;">
						</g>
					</g>
				</g>
				<g id="&lt;Group&gt;">
					<g id="&lt;Group&gt;">
					</g>
				</g>
				<g id="&lt;Group&gt;">
					<g id="&lt;Group&gt;">
					</g>
				</g>
				<g id="&lt;Group&gt;">
					<g id="&lt;Group&gt;">
						<g id="&lt;Group&gt;">
						</g>
					</g>
				</g>
			</g>
			<g id="&lt;Group&gt;">
				<path id="&lt;Mesh&gt;" class="s2" d="m406.9 805.5c-28.8 66.5-5.7 121.1 20.2 172.9 31.8 63.6 10.6 118.8-10.6 176.1-21.3 57.2 23.3 142.1 91.2 203.6 67.9 61.5 31.8 74.3 23.3 148.5-6.6 57.7 8.6 110.3 52.6 157.8 12.6 13.6 27.5 26.8 45 39.5 78.5 57.3-10.6 82.7 46.7 118.8q0.3 0.2 0.6 0.4c0.1-72.5 14.9-139.1 31.5-199.8 17.7-67 37-101.1 0.7-141.4-4.4-4.4-8.9-9.1-13.5-14.1-55.3-61.7-58.7-160-44.2-235.6q-0.3-3-0.7-6c11.1-73.2 8.6-138.6-27.5-183q-1.3-1.5-2.6-2.9c-29-35.6-34.2-109.1-28.1-178.1 0.6-9.1 1.6-17.7 2.7-25.4-24.5-19.8-50-50.6-82.2-68.4-31.1-17.1-68.6-9-91.3 15.8-5.6 6.1-10.3 13.3-13.8 21.3zm184.6 56.7c-6.1 69-0.9 142.5 28.1 178.1q1.3 1.4 2.6 2.9c36.1 44.4 38.6 109.8 27.5 183q0.4 3 0.7 6c-14.5 75.6-11.1 173.9 44.2 235.6 4.6 5 9.1 9.7 13.5 14.1 36.3 40.3 17 74.4-0.7 141.4-16.6 60.7-31.4 127.3-31.5 199.8 58.2 35.4 264.5 6 264.5 6 55.2-171.9 118.8-277.9 40.3-320.4-78.4-42.4-59.4-146.3-67.8-229.1-8.5-82.7-46.7-152.7-104-167.6-50.8-13.1-48.2-114.9-85.5-177.7-4.8-7.9-10.1-15.2-16.3-21.7-55.2-57.3-65.8-40.3-108.2-72.1q-2.4-1.8-4.7-3.7c-1.1 7.7-2.1 16.3-2.7 25.4z"/>
				<g id="&lt;Group&gt;" style="mix-blend-mode: screen">
					<g id="&lt;Group&gt;">
						<path id="&lt;Path&gt;" class="s3" d="m864.6 1468.3c-2.1-0.7-4.5 0.4-5.2 2.5l-29 85.3c-4-18.7-8.5-38.2-13.6-58.4-23.8-94.9-63.3-217.8-128.5-354.1q0.4-0.5 0.6-1.1l34-99.7c0.7-2.1-0.4-4.4-2.6-5.2-2.1-0.7-4.4 0.5-5.1 2.6l-31.8 93.3c-49.1-101.1-112.3-209.3-193.7-318.8-1.3-1.8-3.9-2.1-5.7-0.8-1.8 1.3-2.1 3.9-0.8 5.7 48.1 64.6 89.8 128.8 126 191.4l-72.3-22.8c-2.2-0.7-4.4 0.5-5.1 2.6-0.7 2.2 0.5 4.4 2.6 5.1l80.6 25.5q0.1 0 0.1 0c75 131.4 125.6 255.2 159.7 359.9l-105.9-25c-2.2-0.5-4.4 0.9-4.9 3.1-0.5 2.2 0.9 4.3 3 4.9l108.2 25.4q0.5 0.1 1 0.1 0.7 0 1.3-0.2c12.7 39.6 23 76.4 31.4 109.7 6.3 25.3 11.7 49.3 16.4 72-0.1 0.9 0.1 1.8 0.5 2.5 28.2 138.4 27.8 226.6 27.8 227.6 0 2.3 1.8 4.1 4.1 4.1q0 0 0 0c2.2 0 4.1-1.8 4.1-4 0-1 0.4-90.2-28.1-229.8l33.4-98.3c0.7-2.1-0.4-4.4-2.5-5.1z"/>
					</g>
				</g>
			</g>
			<g id="&lt;Group&gt;">
				<path id="&lt;Mesh&gt;" class="s4" d="m251.4 1341c4.1 42.2 31.4 63.6 59.3 82.8 34.4 23.6 39.1 57.8 44.5 93.2 5.4 35.3 52.2 66.1 104.4 78.4 52.2 12.2 37.4 29 54.1 69.4 16.7 40.4 49.4 66.2 105.8 73.3 46.2 5.8 28.9 32.5 42.7 43.2 3.1 2.4 7.7 4 14.9 4.4 39.5 2.2 162.9-27.3 162.9-27.3-20.5-103.6-43.3-220.5-95.5-220-52.2 0.5-71.9-58.1-99.7-98.1-27.8-39.9-67.2-64.9-100.7-56.3-29.8 7.7-57.2-45.2-94.1-66.7-4.7-2.7-9.5-5-14.6-6.5-44.4-13.7-45-2-75.8-6.3-18.8-2.6-42-12.3-64.9-12.2-20.8 0-37.6 14.8-42.2 33.9-1.2 4.7-1.6 9.7-1.1 14.8z"/>
				<g id="&lt;Group&gt;" style="mix-blend-mode: screen">
					<g id="&lt;Group&gt;">
						<path id="&lt;Path&gt;" class="s3" d="m738.6 1734c-0.4-0.6-34.5-62.8-109.2-142.8-39-41.8-94.1-93.5-166.1-144.8q0.1-0.4 0-0.8l-10.9-60.6c-0.2-1.3-1.4-2.2-2.7-2-1.3 0.3-2.2 1.5-2 2.8l10.2 56.8c-53.8-37.9-116.8-75.4-189.5-108.3-1.2-0.6-2.6 0-3.1 1.2-0.6 1.2 0 2.6 1.2 3.1 42.9 19.5 82.4 40.5 118.7 62.3l-43.5 8.8c-1.3 0.3-2.1 1.5-1.8 2.8 0.2 1.3 1.5 2.1 2.8 1.9l48.4-9.9q0.1 0 0.1 0c75.6 46.1 136.6 95.1 183.7 139l-61.2 17.3c-1.3 0.3-2 1.6-1.7 2.9 0.4 1.3 1.7 2 3 1.6l62.6-17.6q0.2-0.1 0.5-0.2 0.3-0.2 0.6-0.5c17.7 16.7 33.4 32.6 47.1 47.3 74.4 79.6 108.3 141.4 108.6 142 0.6 1.1 2.1 1.6 3.2 0.9q0 0 0 0c1.2-0.6 1.6-2 1-3.2z"/>
					</g>
				</g>
			</g>
			<g id="&lt;Group&gt;">
				<g id="&lt;Group&gt;">
					<path id="&lt;Path&gt;" class="s5" d="m716.1 1811.4c-83.6 0-151.4-90.8-151.4-202.8 0-112 67.8-202.8 151.4-202.8h50.5v405.6z"/>
				</g>
				<g id="&lt;Group&gt;">
					<path id="&lt;Path&gt;" class="s6" d="m918 1608.6c0 112-67.8 202.8-151.4 202.8-83.6 0-151.4-90.8-151.4-202.8 0-112 67.8-202.8 151.4-202.8 83.6 0 151.4 90.8 151.4 202.8z"/>
				</g>
				<g id="&lt;Group&gt;">
					<path id="&lt;Path&gt;" class="s7" d="m1158.8 1555.3h-392.2c-22 0-39.8 23.9-39.8 53.3 0 29.5 17.8 53.4 39.8 53.4h391.2z"/>
				</g>
				<g id="&lt;Group&gt;">
					<path id="&lt;Path&gt;" class="s5" d="m1198.2 1811.4c-83.7 0-151.5-90.8-151.5-202.8 0-112 67.8-202.8 151.5-202.8h50.5v405.6z"/>
				</g>
				<g id="&lt;Group&gt;">
					<path id="&lt;Path&gt;" class="s6" d="m1400.1 1608.6c0 112-67.8 202.8-151.4 202.8-83.7 0-151.5-90.8-151.5-202.8 0-112 67.8-202.8 151.5-202.8 83.6 0 151.4 90.8 151.4 202.8z"/>
				</g>
				<g id="&lt;Group&gt;">
					<path id="&lt;Path&gt;" class="s7" d="m1288.5 1608.6c0 29.5-17.8 53.4-39.8 53.4-22 0-39.9-23.9-39.9-53.4 0-29.4 17.9-53.3 39.9-53.3 22 0 39.8 23.9 39.8 53.3z"/>
				</g>
			</g>
			<g id="&lt;Group&gt;">
				<g id="&lt;Group&gt;">
					<g id="&lt;Group&gt;">
						<path id="&lt;Mesh&gt;" class="s8" d="m926.6 687.9q0 154.8 0 309.6c0 21.1 8.6 40.3 22.4 54.1 13.9 13.8 33 22.4 54.1 22.4q6.1 0 12.2 0c-10.7-15.6-16.4-36.4-16.2-59.2 0.8-111.7 1.5-223.5 2.2-335.2 0.1-11.1 3-21.1 8.3-28.6q-23 0-46 0c-10.2 0-19.4 4.1-26.1 10.8-6.7 6.7-10.9 15.9-10.9 26.1zm74.7-8.3c-0.7 111.7-1.4 223.5-2.2 335.2-0.2 22.8 5.5 43.6 16.2 59.2q220.9 0 441.8 0c21.1 0 40.3-8.6 54.1-22.4 13.8-13.8 22.4-33 22.4-54.1q0-154.8 0-309.6c0-10.2-4.1-19.4-10.8-26.1-6.7-6.7-16-10.8-26.2-10.8q-243.5 0-487 0c-5.3 7.5-8.2 17.5-8.3 28.6z"/>
						<g id="&lt;Group&gt;">
							<path id="&lt;Path&gt;" class="s9" d="m1496.8 651h-533.4c-20.3 0-36.8 16.4-36.8 36.7v12.8h607v-12.8c0-20.3-16.5-36.7-36.8-36.7z"/>
						</g>
						<g id="&lt;Group&gt;">
							<path id="&lt;Path&gt;" class="s9" d="m983.4 681.6c-5.7 0-10.3-4.6-10.3-10.2v-42.9c0-5.7 4.6-10.2 10.3-10.2 5.6 0 10.2 4.5 10.2 10.2v42.9c0 5.6-4.6 10.2-10.2 10.2z"/>
						</g>
						<g id="&lt;Group&gt;">
							<path id="&lt;Path&gt;" class="s9" d="m1083.2 681.6c-5.6 0-10.2-4.6-10.2-10.2v-42.9c0-5.7 4.6-10.2 10.2-10.2 5.7 0 10.3 4.5 10.3 10.2v42.9c0 5.6-4.6 10.2-10.3 10.2z"/>
						</g>
						<g id="&lt;Group&gt;">
							<path id="&lt;Path&gt;" class="s9" d="m1183.1 681.6c-5.6 0-10.2-4.6-10.2-10.2v-42.9c0-5.7 4.6-10.2 10.2-10.2 5.7 0 10.2 4.5 10.2 10.2v42.9c0 5.6-4.5 10.2-10.2 10.2z"/>
						</g>
						<g id="&lt;Group&gt;">
							<path id="&lt;Path&gt;" class="s9" d="m1283 681.6c-5.6 0-10.2-4.6-10.2-10.2v-42.9c0-5.7 4.6-10.2 10.2-10.2 5.6 0 10.2 4.5 10.2 10.2v42.9c0 5.6-4.6 10.2-10.2 10.2z"/>
						</g>
						<g id="&lt;Group&gt;">
							<path id="&lt;Path&gt;" class="s9" d="m1363.3 681.6c-5.7 0-10.2-4.6-10.2-10.2v-42.9c0-5.7 4.5-10.2 10.2-10.2 5.6 0 10.2 4.5 10.2 10.2v42.9c0 5.6-4.6 10.2-10.2 10.2z"/>
						</g>
						<g id="&lt;Group&gt;">
							<path id="&lt;Path&gt;" class="s9" d="m1463.2 681.6c-5.7 0-10.2-4.6-10.2-10.2v-42.9c0-5.7 4.5-10.2 10.2-10.2 5.6 0 10.2 4.5 10.2 10.2v42.9c0 5.6-4.6 10.2-10.2 10.2z"/>
						</g>
						<g id="&lt;Group&gt;">
							<path id="&lt;Path&gt;" class="s10" d="m1053.3 781.2h-69.4c-7.9 0-14.3-6.4-14.3-14.3v-34.2c0-7.9 6.4-14.3 14.3-14.3h69.4c7.9 0 14.4 6.4 14.4 14.3v34.2c0 7.9-6.5 14.3-14.4 14.3z"/>
						</g>
						<g id="&lt;Group&gt;" style="mix-blend-mode: screen">
							<path id="&lt;Path&gt;" class="s11" d="m1062 900.7h-86.8c-3.1 0-5.6-2.5-5.6-5.7v-51.5c0-3.1 2.5-5.6 5.6-5.6h86.8c3.1 0 5.7 2.5 5.7 5.6v51.5c0 3.2-2.6 5.7-5.7 5.7z"/>
						</g>
						<g id="&lt;Group&gt;" style="mix-blend-mode: screen">
							<path id="&lt;Path&gt;" class="s11" d="m1062 1020.2h-86.8c-3.1 0-5.6-2.6-5.6-5.7v-51.5c0-3.1 2.5-5.7 5.6-5.7h86.8c3.1 0 5.7 2.6 5.7 5.7v51.5c0 3.1-2.6 5.7-5.7 5.7z"/>
						</g>
						<g id="&lt;Group&gt;" style="mix-blend-mode: screen">
							<path id="&lt;Path&gt;" class="s11" d="m1203 781.2h-86.8c-3.1 0-5.6-2.5-5.6-5.6v-51.5c0-3.2 2.5-5.7 5.6-5.7h86.8c3.1 0 5.7 2.5 5.7 5.7v51.5c0 3.1-2.6 5.6-5.7 5.6z"/>
						</g>
						<g id="&lt;Group&gt;" style="mix-blend-mode: screen">
							<path id="&lt;Path&gt;" class="s12" d="m1203 897.7h-86.8c-3.1 0-5.6-2.5-5.6-5.7v-51.5c0-3.1 2.5-5.6 5.6-5.6h86.8c3.1 0 5.7 2.5 5.7 5.6v51.5c0 3.2-2.6 5.7-5.7 5.7z"/>
						</g>
						<g id="&lt;Group&gt;" style="mix-blend-mode: screen">
							<path id="&lt;Path&gt;" class="s11" d="m1203 1020.2h-86.8c-3.1 0-5.6-2.6-5.6-5.7v-51.5c0-3.1 2.5-5.7 5.6-5.7h86.8c3.1 0 5.7 2.6 5.7 5.7v51.5c0 3.1-2.6 5.7-5.7 5.7z"/>
						</g>
						<g id="&lt;Group&gt;" style="mix-blend-mode: screen">
							<path id="&lt;Path&gt;" class="s11" d="m1344 781.2h-86.7c-3.2 0-5.7-2.5-5.7-5.6v-51.5c0-3.2 2.5-5.7 5.7-5.7h86.7c3.1 0 5.7 2.5 5.7 5.7v51.5c0 3.1-2.6 5.6-5.7 5.6z"/>
						</g>
						<g id="&lt;Group&gt;" style="mix-blend-mode: screen">
							<path id="&lt;Path&gt;" class="s11" d="m1344 900.7h-86.7c-3.2 0-5.7-2.5-5.7-5.7v-51.5c0-3.1 2.5-5.6 5.7-5.6h86.7c3.1 0 5.7 2.5 5.7 5.6v51.5c0 3.2-2.6 5.7-5.7 5.7z"/>
						</g>
						<g id="&lt;Group&gt;">
							<path id="&lt;Path&gt;" class="s10" d="m1335.3 1020.2h-69.4c-7.9 0-14.3-6.4-14.3-14.3v-34.2c0-8 6.4-14.4 14.3-14.4h69.4c8 0 14.4 6.4 14.4 14.4v34.2c0 7.9-6.4 14.3-14.4 14.3z"/>
						</g>
						<g id="&lt;Group&gt;" style="mix-blend-mode: screen">
							<path id="&lt;Path&gt;" class="s10" d="m1485 781.2h-86.7c-3.2 0-5.7-2.5-5.7-5.6v-51.5c0-3.2 2.5-5.7 5.7-5.7h86.7c3.1 0 5.7 2.5 5.7 5.7v51.5c0 3.1-2.6 5.6-5.7 5.6z"/>
						</g>
						<g id="&lt;Group&gt;" style="mix-blend-mode: screen">
							<path id="&lt;Path&gt;" class="s11" d="m1485 900.7h-86.7c-3.2 0-5.7-2.5-5.7-5.7v-51.5c0-3.1 2.5-5.6 5.7-5.6h86.7c3.1 0 5.7 2.5 5.7 5.6v51.5c0 3.2-2.6 5.7-5.7 5.7z"/>
						</g>
						<g id="&lt;Group&gt;" style="mix-blend-mode: screen">
							<path id="&lt;Path&gt;" class="s11" d="m1485 1020.2h-86.7c-3.2 0-5.7-2.6-5.7-5.7v-51.5c0-3.1 2.5-5.7 5.7-5.7h86.7c3.1 0 5.7 2.6 5.7 5.7v51.5c0 3.1-2.6 5.7-5.7 5.7z"/>
						</g>
					</g>
					<g id="&lt;Group&gt;">
					</g>
				</g>
				<g id="&lt;Group&gt;">
					<g id="&lt;Group&gt;" style="mix-blend-mode: multiply">
						<g id="&lt;Group&gt;">
							<path id="&lt;Path&gt;" class="s13" d="m1127.1 792.5v-101.7h-119.5v101.7c0 18.6 15.1 33.7 33.7 33.7h119.5c-18.6 0-33.7-15.1-33.7-33.7z"/>
						</g>
					</g>
					<g id="&lt;Group&gt;">
						<path id="&lt;Path&gt;" class="s14" d="m1141.6 780.2v-101.6h-119.4v101.6c0 18.6 15.1 33.7 33.7 33.7h119.5c-18.7 0-33.8-15.1-33.8-33.7z"/>
					</g>
					<g id="&lt;Group&gt;">
						<path id="&lt;Path&gt;" class="s15" d="m1077.1 707.7h-38.8c-3.3 0-5.9-2.7-5.9-5.9 0-3.2 2.6-5.9 5.9-5.9h38.8c3.2 0 5.9 2.7 5.9 5.9 0 3.2-2.7 5.9-5.9 5.9z"/>
					</g>
					<g id="&lt;Group&gt;">
						<path id="&lt;Path&gt;" class="s15" d="m1119 737h-80.7c-3.3 0-5.9-2.6-5.9-5.8 0-3.3 2.6-5.9 5.9-5.9h80.7c3.2 0 5.9 2.6 5.9 5.9 0 3.2-2.7 5.8-5.9 5.8z"/>
					</g>
					<g id="&lt;Group&gt;">
						<path id="&lt;Path&gt;" class="s15" d="m1119 766.4h-80.7c-3.3 0-5.9-2.6-5.9-5.9 0-3.2 2.6-5.8 5.9-5.8h80.7c3.2 0 5.9 2.6 5.9 5.8 0 3.3-2.7 5.9-5.9 5.9z"/>
					</g>
				</g>
			</g>
			<g id="&lt;Group&gt;">
				<g id="&lt;Group&gt;">
					<path id="&lt;Path&gt;" class="s16" d="m2056.2 1810.2h-588.5c-58.9 0-106.7-47.8-106.7-106.7v-719c0-58.9 47.8-106.6 106.7-106.6h588.5c58.9 0 106.6 47.7 106.6 106.6v719c0 58.9-47.7 106.7-106.6 106.7z"/>
				</g>
				<g id="&lt;Group&gt;">
					<path id="&lt;Path&gt;" class="s17" d="m2000.6 1810.2h-588.5c-58.9 0-106.7-47.8-106.7-106.7v-719c0-58.9 47.8-106.6 106.7-106.6h588.5c58.9 0 106.6 47.7 106.6 106.6v719c0 58.9-47.7 106.7-106.6 106.7z"/>
				</g>
				<g id="&lt;Group&gt;">
					<g id="&lt;Group&gt;">
						<path id="&lt;Path&gt;" class="s16" d="m1480.9 1086.2v-95.5c0-24.4 19.7-44.1 44.1-44.1h362.7c24.4 0 44.1 19.7 44.1 44.1v95.5c0 24.3-19.7 44.1-44.1 44.1h-362.7c-24.4 0-44.1-19.8-44.1-44.1z"/>
					</g>
					<g id="&lt;Group&gt;">
						<path id="&lt;Path&gt;" class="s18" d="m1887.3 1122.3h-362c-20.1 0-36.5-16.3-36.5-36.5v-94.7c0-20.2 16.4-36.6 36.5-36.6h362c20.2 0 36.6 16.4 36.6 36.6v94.7c0 20.2-16.4 36.5-36.6 36.5z"/>
					</g>
					<g id="&lt;Group&gt;">
						<g id="&lt;Group&gt;">
							<path id="&lt;Path&gt;" class="s19" d="m1891 1033.4h-9.1v-54.5h9.1z"/>
						</g>
						<g id="&lt;Group&gt;">
							<path id="&lt;Path&gt;" class="s19" d="m1826.8 975.8v-9.1h54.5v9.1z"/>
						</g>
						<g id="&lt;Group&gt;">
							<path id="&lt;Path&gt;" class="s19" d="m1826.8 1108.8v-9.1h54.5v9.1z"/>
						</g>
						<g id="&lt;Group&gt;">
							<path id="&lt;Path&gt;" class="s19" d="m1891 1096.9h-9.1v-54.5h9.1z"/>
						</g>
						<g id="&lt;Group&gt;">
							<path id="&lt;Path&gt;" class="s19" d="m1825 1033.4h-9.1v-54.5h9.1z"/>
						</g>
						<g id="&lt;Group&gt;">
							<path id="&lt;Path&gt;" class="s19" d="m1825 1096.9h-9.1v-54.5h9.1z"/>
						</g>
					</g>
					<g id="&lt;Group&gt;">
						<g id="&lt;Group&gt;">
							<path id="&lt;Path&gt;" class="s19" d="m1782.5 1033.4h-9.1v-54.5h9.1z"/>
						</g>
						<g id="&lt;Group&gt;">
							<path id="&lt;Path&gt;" class="s19" d="m1718.2 975.8v-9.1h54.5v9.1z"/>
						</g>
						<g id="&lt;Group&gt;">
							<path id="&lt;Path&gt;" class="s19" d="m1718.2 1108.8v-9.1h54.5v9.1z"/>
						</g>
						<g id="&lt;Group&gt;">
							<path id="&lt;Path&gt;" class="s19" d="m1782.5 1096.9h-9.1v-54.5h9.1z"/>
						</g>
						<g id="&lt;Group&gt;">
							<path id="&lt;Path&gt;" class="s19" d="m1716.4 1033.4h-9v-54.5h9z"/>
						</g>
						<g id="&lt;Group&gt;">
							<path id="&lt;Path&gt;" class="s19" d="m1716.4 1096.9h-9v-54.5h9z"/>
						</g>
					</g>
					<g id="&lt;Group&gt;">
						<g id="&lt;Group&gt;">
							<path id="&lt;Path&gt;" class="s19" d="m1672 1033.5h-9.1v-66.3h9.1z"/>
						</g>
						<g id="&lt;Group&gt;">
							<path id="&lt;Path&gt;" class="s19" d="m1672 1109.7h-9.1v-66.3h9.1z"/>
						</g>
					</g>
				</g>
			</g>
			<g id="&lt;Group&gt;">
				<path id="&lt;Mesh&gt;" class="s20" d="m2696.9 948.4c24.5 56.5 4.9 102.9-17.1 146.9-27 54-9 100.9 9 149.5 18 48.7-19.8 120.8-77.5 173.1-57.7 52.2-27 63-19.8 126.1 5.6 49.1-7.3 93.7-44.7 134.1-10.7 11.5-23.4 22.7-38.2 33.5-66.7 48.7 9 70.3-39.7 100.9q-0.2 0.2-0.5 0.4c-0.1-61.6-12.7-118.2-26.7-169.7-15.1-57-31.5-85.9-0.7-120.2q5.6-5.6 11.5-12c47-52.4 49.9-135.9 37.6-200.1q0.2-2.6 0.6-5.1c-9.5-62.2-7.3-117.8 23.3-155.5q1.1-1.3 2.2-2.5c24.6-30.2 29.1-92.6 23.9-151.3-0.5-7.7-1.3-15-2.3-21.5 20.8-16.8 42.5-43 69.9-58.1 26.3-14.6 58.2-7.7 77.5 13.4 4.7 5.2 8.7 11.3 11.7 18.1zm-156.8 48.1c5.2 58.7 0.7 121.1-23.9 151.3q-1.1 1.2-2.2 2.5c-30.6 37.7-32.8 93.3-23.3 155.5q-0.4 2.5-0.6 5.1c12.3 64.2 9.4 147.7-37.6 200.1q-5.9 6.4-11.5 12c-30.8 34.3-14.4 63.2 0.7 120.2 14 51.5 26.6 108.1 26.7 169.7-49.4 30.1-224.7 5-224.7 5-46.9-145.9-101-236-34.3-272.1 66.7-36 50.5-124.3 57.7-194.6 7.2-70.3 39.6-129.8 88.3-142.4 43.2-11.2 40.9-97.7 72.7-151 4-6.7 8.5-12.9 13.8-18.4 46.9-48.7 55.9-34.3 91.9-61.3q2-1.5 4-3.1c1 6.5 1.8 13.8 2.3 21.5z"/>
				<g id="&lt;Group&gt;" style="mix-blend-mode: screen">
					<g id="&lt;Group&gt;">
						<path id="&lt;Path&gt;" class="s3" d="m2308.1 1511.5c1.8-0.7 3.8 0.3 4.4 2.1l24.6 72.4c3.4-15.8 7.3-32.4 11.6-49.6 20.2-80.6 53.8-185 109.1-300.8q-0.3-0.4-0.5-0.9l-28.8-84.7c-0.6-1.8 0.4-3.8 2.2-4.4 1.8-0.6 3.7 0.4 4.3 2.2l27 79.2c41.7-85.9 95.4-177.8 164.6-270.8 1.1-1.5 3.3-1.8 4.8-0.7 1.5 1.2 1.9 3.3 0.7 4.8-40.8 55-76.3 109.5-107 162.7l61.4-19.4c1.8-0.6 3.8 0.4 4.3 2.2 0.6 1.8-0.4 3.8-2.2 4.4l-68.5 21.6q0 0-0.1 0c-63.7 111.6-106.7 216.8-135.6 305.7l89.9-21.2c1.9-0.4 3.8 0.8 4.2 2.6 0.4 1.9-0.7 3.7-2.6 4.2l-91.9 21.6q-0.4 0.1-0.8 0.1-0.6 0-1.1-0.2c-10.8 33.7-19.6 64.9-26.7 93.2-5.3 21.5-10 41.9-13.9 61.2 0.1 0.7-0.1 1.5-0.5 2.1-23.9 117.6-23.6 192.5-23.6 193.4 0 1.9-1.5 3.5-3.4 3.5q0 0 0 0c-1.9 0-3.5-1.6-3.5-3.5 0-0.8-0.3-76.6 23.9-195.2l-28.4-83.5c-0.7-1.8 0.3-3.7 2.1-4.3z"/>
					</g>
				</g>
			</g>
			<g id="&lt;Group&gt;">
				<path id="&lt;Mesh&gt;" class="s21" d="m2890.6 1466c-3.6 36.9-27.4 55.6-51.8 72.4-30 20.5-34.2 50.5-38.9 81.3-4.6 30.9-45.6 57.8-91.2 68.5-45.6 10.7-32.6 25.3-47.2 60.6-14.6 35.3-43.2 57.9-92.4 64.1-40.4 5.1-25.2 28.4-37.3 37.7-2.7 2.1-6.7 3.5-13 3.9-34.6 1.9-142.3-23.9-142.3-23.9 17.9-90.5 37.8-192.6 83.4-192.2 45.6 0.5 62.8-50.7 87.1-85.6 24.2-34.9 58.7-56.8 87.9-49.2 26 6.7 50-39.5 82.3-58.3 4.1-2.4 8.3-4.3 12.7-5.7 38.8-11.9 39.3-1.7 66.2-5.4 16.4-2.3 36.7-10.8 56.7-10.8 18.1 0.1 32.9 13 36.9 29.7 1 4.1 1.3 8.5 0.9 12.9z"/>
				<g id="&lt;Group&gt;" style="mix-blend-mode: screen">
					<g id="&lt;Group&gt;">
						<path id="&lt;Path&gt;" class="s3" d="m2442.6 1801.8c0.3-0.5 30.1-54.9 95.3-124.7 34.2-36.6 82.3-81.7 145.1-126.5q0-0.3 0.1-0.7l9.5-53c0.2-1.1 1.2-1.8 2.4-1.6 1.1 0.2 1.9 1.2 1.7 2.4l-8.9 49.6c46.9-33.1 102-65.8 165.5-94.6 1-0.5 2.3-0.1 2.7 1 0.5 1 0.1 2.3-1 2.7-37.5 17.1-72 35.4-103.7 54.5l38 7.6c1.1 0.3 1.8 1.4 1.6 2.5-0.2 1.1-1.3 1.8-2.5 1.6l-42.3-8.6q0 0 0 0c-66.1 40.2-119.4 83.1-160.6 121.4l53.6 15.1c1.1 0.3 1.7 1.5 1.4 2.6-0.3 1.1-1.4 1.7-2.6 1.4l-54.6-15.4q-0.3-0.1-0.5-0.2-0.3-0.1-0.5-0.4c-15.5 14.6-29.2 28.5-41.2 41.3-64.9 69.5-94.5 123.5-94.8 124-0.6 1-1.8 1.4-2.9 0.9q0 0 0-0.1c-1-0.5-1.3-1.8-0.8-2.8z"/>
					</g>
				</g>
			</g>
			<g id="&lt;Group&gt;">
				<path id="&lt;Path&gt;" class="s9" d="m2733.7 1883.8h-2250.7v-8.7c0-34.9 28.3-63.1 63.1-63.1h2124.5c34.8 0 63.1 28.2 63.1 63.1z"/>
			</g>
			<g id="&lt;Group&gt;">
				<g id="&lt;Group&gt;">
					<path id="&lt;Path&gt;" class="s9" d="m2284.9 1346.6c0-121.9 79.8-165.7 53.5-172.7-26.4-7-37.8-12.3-50.9 28.9-13.2 41.2-19.3 148.2-19.3 148.2z"/>
				</g>
				<g id="&lt;Group&gt;">
					<path id="&lt;Path&gt;" class="s22" d="m2184.3 1322.7c21.3 0.8 38.1 4.4 51.6 9.2 31.1 11.3 65.4 11.3 96.5 0 13.6-4.8 30.4-8.4 51.6-9.2 88.3-3.6 219.2 113.8 118.8 295.2-94.7 171.2-184.6 205.6-218.6 189-34 16.6-123.9-17.8-218.6-189-100.4-181.4 30.5-298.8 118.7-295.2z"/>
				</g>
				<g id="&lt;Group&gt;">
					<path id="&lt;Path&gt;" class="s9" d="m2345.5 1236.8c-25.1-0.9-46.4 24.6-46.4 24.6 0 0 19.3 27 44.4 28 25 0.9 46.3-24.6 46.3-24.6 0 0-19.3-27-44.3-28z"/>
				</g>
				<g id="&lt;Group&gt;" style="mix-blend-mode: multiply">
					<g id="&lt;Group&gt;">
						<path id="&lt;Path&gt;" class="s23" d="m2065.6 1617.9c-89.8-162.2 5.4-273.3 89.7-292.4-91.2 115.4 6.1 415.1 329.9 322.8-88.1 144.9-169.1 174.1-201 158.6-34 16.6-123.9-17.8-218.6-189z"/>
					</g>
				</g>
				<g id="&lt;Group&gt;" style="mix-blend-mode: screen">
					<g id="&lt;Group&gt;">
						<path id="&lt;Path&gt;" class="s24" d="m2397.1 1565c2.7 0 5.4-0.6 8.1-1.9 34.1-16.6 56.6-49.7 61.8-90.8 1.3-10.1-5.9-19.4-16-20.7-10.2-1.2-19.4 5.9-20.7 16.1-1.7 13.4-9.1 46.5-41.3 62.1-9.2 4.5-13 15.6-8.6 24.8 3.2 6.5 9.8 10.4 16.7 10.4z"/>
					</g>
				</g>
				<g id="&lt;Group&gt;" style="mix-blend-mode: screen">
					<g id="&lt;Group&gt;">
						<path id="&lt;Path&gt;" class="s24" d="m2445.4 1444.5q2.7 0 5.3-0.8c9.8-2.9 15.4-13.2 12.4-23-3-10.1-7.3-19.1-12.7-26.9-5.9-8.3-17.5-10.3-25.8-4.4-8.4 5.9-10.3 17.4-4.5 25.8 3.2 4.4 5.7 9.9 7.6 16.1 2.4 8 9.8 13.2 17.7 13.2z"/>
					</g>
				</g>
			</g>
			<g id="&lt;Group&gt;">
				<g id="&lt;Group&gt;">
					<g id="&lt;Group&gt;">
						<path id="&lt;Path&gt;" class="s25" d="m1232 1433.8c-2.9 2.9-10.8 14.9-16.3 13.7-5.5-1.2-13-1.5-18.5 2.6-5.5 4-14.4 2.1-15.3 3.4-0.8 1.3 7 5.6 11.2 5.4 4.2-0.3 5.5-2.1 5.4 0.3-0.1 2.3-17.1 17.2-23.1 21.4-6.1 4.2 3.6 3.4 3.6 3.4 0.7 3.3 5.3 2.7 5.3 2.7 1.9 4.7 14.9-1.5 14.8 0 2 5.4 15.8-2.1 21.1-9.2 5.3-7.1 8.6-14 15-18.6 6.4-4.6 14.7-10.8 14.7-10.8z"/>
					</g>
					<g id="&lt;Group&gt;" style="mix-blend-mode: multiply">
						<g id="&lt;Group&gt;">
							<path id="&lt;Path&gt;" class="s23" d="m1180.1 1483.4c0.1 0.1 0.3 0.1 0.5 0.1 0.6-0.3 15.1-6.2 21.3-14.3 0.2-0.2 0.1-0.5 0-0.6-0.2-0.1-0.5-0.1-0.6 0.1-6.2 7.9-20.9 13.9-21 14-0.3 0.1-0.4 0.3-0.3 0.5q0.1 0.1 0.1 0.2z"/>
						</g>
					</g>
					<g id="&lt;Group&gt;" style="mix-blend-mode: multiply">
						<g id="&lt;Group&gt;">
							<path id="&lt;Path&gt;" class="s23" d="m1186.4 1486.7q0.2 0.1 0.4 0.1c0.5-0.2 13.3-3.5 19.4-9.7 0.2-0.2 0.2-0.4 0-0.6-0.2-0.2-0.5-0.2-0.6 0-5.9 6-18.9 9.4-19 9.5-0.2 0-0.4 0.3-0.3 0.5q0 0.1 0.1 0.2z"/>
						</g>
					</g>
					<g id="&lt;Group&gt;" style="mix-blend-mode: multiply">
						<g id="&lt;Group&gt;">
							<path id="&lt;Path&gt;" class="s23" d="m1200.5 1485.5c0.1 0.1 0.3 0.1 0.5 0 5.4-2.2 7.6-4.2 7.6-4.3 0.2-0.2 0.2-0.4 0.1-0.6-0.2-0.2-0.5-0.2-0.6 0-0.1 0-2.2 2-7.4 4.2-0.3 0-0.4 0.3-0.3 0.5q0.1 0.1 0.1 0.2z"/>
						</g>
					</g>
					<g id="&lt;Group&gt;" style="mix-blend-mode: multiply">
						<g id="&lt;Group&gt;">
							<path id="&lt;Path&gt;" class="s23" d="m1216.8 1473.4c-0.3 0-0.5-0.2-0.6-0.4-0.1-0.3-2.2-6.5-0.5-11.8-3.2 0.4-10.7 0.6-15.1-1.9-0.3-0.2-0.4-0.5-0.2-0.8 0.1-0.3 0.5-0.4 0.7-0.2 4.7 2.6 13.3 2.1 15.3 1.6 0.2-0.1 0.4 0 0.6 0.2 0.1 0.1 0.1 0.4 0.1 0.6-2.1 5.1 0.2 11.9 0.2 11.9 0.1 0.3-0.1 0.6-0.4 0.7q-0.1 0.1-0.1 0.1z"/>
						</g>
					</g>
				</g>
				<g id="&lt;Group&gt;">
					<path id="&lt;Path&gt;" class="s26" d="m1340.6 1287.2c-37.3 26.7-119.4 153.9-119.4 153.9 15 16.8 22.1 18.6 22.1 18.6 31.8-13.3 100.7-73.4 100.7-73.4z"/>
				</g>
				<g id="&lt;Group&gt;">
					<g id="&lt;Group&gt;">
						<g id="&lt;Group&gt;">
							<path id="&lt;Path&gt;" class="s25" d="m988.9 1784.2c2.5-5.1 5.2-14.7 4.5-28.5-0.7-5.2-1.6-11.8-2.6-19.2q-0.7-5.6-1.5-11.9l24.8 6.7c-0.4 4.4-0.8 8.6-1.2 12.5-0.8 8.1-0.5 16.3 0.9 24.4 0.5 2.4 1 4.5 1.5 5.6 2 4 16.2 17.8 22.7 29.7 0.6 1.5 15.3 3.8 13.1 7.2-1.3 0.7-27 2.7-29.8-0.1-2.9-2.7-9.7-9.6-17.4-11.1-0.4 0-0.4 12.4-0.4 12.4l-11.1 0.1c0 0-1.3-11-1.8-14.3-0.5-3.4-4.3-8.4-1.7-13.5z"/>
						</g>
						<g id="&lt;Group&gt;">
							<path id="&lt;Path&gt;" class="s27" d="m1038.1 1803.6c-4.6 0.6-9.7 1.6-11.5 0.8-2.4-1-18.2-20.7-35.7-25.5-0.6 2.1-1.3 3.9-2 5.3-2.6 5.1 1.2 10.1 1.7 13.5 0.5 3.3 1.8 14.3 1.8 14.3l11.1-0.1c0 0 0-12.4 0.4-12.4 7.7 1.5 14.5 8.4 17.4 11.1 2.8 2.8 28.5 0.8 29.8 0.1 2.2-3.3-11.6-5.5-13-7.1z"/>
						</g>
					</g>
					<g id="&lt;Group&gt;">
						<g id="&lt;Group&gt;">
							<path id="&lt;Path&gt;" class="s25" d="m1086.3 1784.2c2.5-5.1 5.2-14.7 4.5-28.5-0.7-5.2-1.6-11.8-2.6-19.2q-0.7-5.6-1.5-11.9l24.8 6.7c-0.4 4.4-0.8 8.6-1.2 12.5-0.8 8.1-0.5 16.3 0.9 24.4 0.5 2.4 1 4.5 1.5 5.6 2 4 16.2 17.8 22.7 29.7 0.6 1.5 15.4 3.8 13.1 7.2-1.3 0.7-26.9 2.7-29.8-0.1-2.9-2.7-9.7-9.6-17.3-11.1-0.5 0-0.5 12.4-0.5 12.4l-11.1 0.1c0 0-1.3-11-1.8-14.3-0.5-3.4-4.3-8.4-1.7-13.5z"/>
						</g>
						<g id="&lt;Group&gt;">
							<path id="&lt;Path&gt;" class="s27" d="m1135.5 1803.6c-4.6 0.6-9.7 1.6-11.5 0.8-2.4-1-18.2-20.7-35.6-25.5-0.7 2.1-1.4 3.9-2.1 5.3-2.6 5.1 1.2 10.1 1.7 13.5 0.5 3.3 1.8 14.3 1.8 14.3l11.1-0.1c0 0 0-12.4 0.5-12.4 7.6 1.5 14.4 8.4 17.3 11.1 2.9 2.8 28.5 0.8 29.8 0.1 2.2-3.3-11.6-5.5-13-7.1z"/>
						</g>
					</g>
					<g id="&lt;Group&gt;">
						<path id="&lt;Path&gt;" class="s25" d="m1179 1385.5c1.2-2.4 8.3-17.4 9.6-18.9 1.4-1.5 17.4-10.6 19-11 1.6-0.4 13.7-1.7 14-1.5 1.5 3.1-0.8 5.2-4.2 6.8-3.4 1.6-8.1 3.1-8.4 3.5-0.4 0.5-3.1 3.3-2.5 3.8 0.6 0.4 3 9.2 3.3 12 0.4 2.8-1.2 6.8-4.6 9.7-3.4 2.8-22 11-22 11z"/>
					</g>
					<g id="&lt;Group&gt;">
						<path id="&lt;Path&gt;" class="s28" d="m1071.1 1301.4c11.3-1.1 21.9 5.4 26.6 15.7 5.6 12.1 10.2 28.4 14.5 40 6.4 17.3 38.7 38.8 70.1 18.2 1 1.5 2.6 26.6 2.6 26.6-8.8 15.1-46.5 33.6-85.7 19.6-39.2-13.9-38.3-57.8-36.6-70.7 2.4-19-13.8-47.2 8.5-49.4z"/>
					</g>
					<g id="&lt;Group&gt;" style="mix-blend-mode: multiply">
						<g id="&lt;Group&gt;">
							<path id="&lt;Path&gt;" class="s29" d="m1120.4 1381.1c0.1 0.2 0.4 0.2 0.5 0.1 1.1-0.8 2.3-2.8 3.4-4.3 0.3-0.6 0.8-1.3 1.1-1.7 0.1 0.8 0.1 2.9-0.5 3.5-0.1 0.2-0.1 0.4 0 0.5 0.2 0.2 0.4 0.2 0.6 0 0.7-0.6 0.7-2.5 0.7-3.4-0.1-1.2-0.4-1.4-0.5-1.5-0.1 0-0.2 0-0.3 0-0.4 0-0.7 0.4-1.8 2.2-0.9 1.4-2.2 3.4-3.1 4.1-0.2 0.1-0.2 0.3-0.1 0.5q0 0 0 0z"/>
						</g>
					</g>
					<g id="&lt;Group&gt;">
						<path id="&lt;Path&gt;" class="s16" d="m1125.6 1757.7h-43.9l-35.3-156.9-19.6 156.9h-44.4c-1.1-64.3-27.4-289.6 11.2-318.4l87.9-0.7c27.8 14.5 44.1 319.1 44.1 319.1z"/>
					</g>
					<g id="&lt;Group&gt;">
						<path id="&lt;Path&gt;" class="s26" d="m1082.2 1438.1h-85.5c-22.2-73.4-8.1-132.6-8.1-132.6 10.7-8.1 23.8-9.6 23.8-9.6l35.7-1c13.8 0.6 27.9 6.7 27.9 6.7 8.6 26 22 47.6 21.5 61.5-0.5 13.9-20.3 46-15.3 75z"/>
					</g>
					<g id="&lt;Group&gt;">
						<g id="&lt;Group&gt;" style="mix-blend-mode: multiply">
							<g id="&lt;Group&gt;">
								<path id="&lt;Path&gt;" class="s30" d="m1046.4 1594.2c0.3 0 0.5-0.2 0.5-0.5l5.9-104 8.6-2.2c0.3-0.1 0.4-0.3 0.4-0.5l-2-27.5c0-0.3-0.2-0.5-0.5-0.5-0.3 0-0.5 0.3-0.5 0.6l2 27-8.6 2.3c-0.3 0-0.4 0.2-0.4 0.4l-5.9 104.4c0 0.3 0.2 0.5 0.5 0.5q0 0 0 0z"/>
							</g>
						</g>
					</g>
					<g id="&lt;Group&gt;" style="mix-blend-mode: multiply">
						<g id="&lt;Group&gt;">
							<path id="&lt;Path&gt;" class="s30" d="m1084.1 1750.1h38.7c0.2 0 0.5-0.2 0.5-0.5 0-0.3-0.3-0.5-0.5-0.5h-38.7c-0.3 0-0.5 0.2-0.5 0.5 0 0.3 0.2 0.5 0.5 0.5z"/>
						</g>
					</g>
					<g id="&lt;Group&gt;" style="mix-blend-mode: multiply">
						<g id="&lt;Group&gt;">
							<path id="&lt;Path&gt;" class="s30" d="m986.8 1750.9h37.6c0.3 0 0.5-0.2 0.5-0.5 0-0.3-0.2-0.5-0.5-0.5h-37.6c-0.3 0-0.5 0.2-0.5 0.5 0 0.3 0.2 0.5 0.5 0.5z"/>
						</g>
					</g>
					<g id="&lt;Group&gt;">
						<g id="&lt;Group&gt;" style="mix-blend-mode: multiply">
							<g id="&lt;Group&gt;">
								<path id="&lt;Path&gt;" class="s30" d="m988.8 1478.6q0.1 0 0.1 0c5.1-0.5 21.7-4.3 22.7-32.7 0-0.2-0.2-0.5-0.5-0.5-0.3 0-0.5 0.2-0.5 0.5-0.7 18.6-8.8 30.4-21.8 31.7-0.3 0-0.5 0.3-0.5 0.5 0.1 0.3 0.3 0.5 0.5 0.5z"/>
							</g>
						</g>
					</g>
					<g id="&lt;Group&gt;">
						<g id="&lt;Group&gt;" style="mix-blend-mode: multiply">
							<g id="&lt;Group&gt;">
								<path id="&lt;Path&gt;" class="s30" d="m987.8 1745.1q0 0 0 0c0.3 0 0.5-0.2 0.5-0.5-0.1-2.5-7.5-253.1 0.3-294.7 0-0.2-0.2-0.5-0.4-0.5-0.3-0.1-0.6 0.1-0.6 0.4-7.8 41.6-0.4 292.3-0.3 294.9 0 0.2 0.2 0.4 0.5 0.4z"/>
							</g>
						</g>
					</g>
					<g id="&lt;Group&gt;">
						<g id="&lt;Group&gt;">
							<path id="&lt;Path&gt;" class="s27" d="m1030.1 1272.8c-15.1 2.7-23.9-11.4-19.5-22.5-1.3-22.7 8.4-45 42.4-32.9 16.9 2.1 23.4 24.5 9.5 30.3-18.5 16.3-32.4 25.1-32.4 25.1z"/>
						</g>
						<g id="&lt;Group&gt;">
							<path id="&lt;Path&gt;" class="s25" d="m1043.7 1281.6c-1.1 6.3-1 11.1 8 13.7 0 8.7-0.5 17.7-4.2 26.4-12.4 2.4-37.9-22.6-37.8-25.5 0-0.5 7.7-2.2 10.5-7.1 2.7-4.9 4-17.3 3-33.9 6.5 1.7 8.7-3.5 8.8-12.3 0.2-8.9 4.4-23 21.6-20.7 6.4 7.9 9.9 12.9 9.3 23.2-0.5 10.3 0.6 17.6-0.6 22.5-1.2 4.9-6.5 13.9-18.6 13.7z"/>
						</g>
						<path id="&lt;Mesh&gt;" class="s31" d="m1053.5 1261.8c0 0 0.7-0.6 1.5-1.4 0.5-0.8 1.5-2 2-2.7-1 0-3.9 0.5-4.9 0.1-0.6 1.3-0.3 3.2 1.4 4zm-1.4-4c1 0.4 3.9-0.1 4.9-0.1q0.3-0.4 0.4-0.5c-1.1-0.1-3.3 0.1-4.5-0.4-0.3 0.3-0.6 0.6-0.8 1zm2.9 2.6q0.4-0.4 0.8-0.8c0.9-0.8 1.7-1.6 2-2-0.1 0-0.5 0-0.8 0.1-0.5 0.7-1.5 1.9-2 2.7zm2-2.7c0.3-0.1 0.7-0.1 0.8-0.1q0.2-0.2 0.1-0.3c0 0-0.2-0.1-0.5-0.1q-0.1 0.1-0.4 0.5z"/>
						<g id="&lt;Group&gt;" style="mix-blend-mode: multiply">
							<g id="&lt;Group&gt;">
								<path id="&lt;Path&gt;" class="s23" d="m1042 1265.5c6.5-2 13.7-1.5 14.3 0.6-3.5 2-11.5 0.6-14.3-0.6z"/>
							</g>
						</g>
						<g id="&lt;Group&gt;">
							<path id="&lt;Path&gt;" class="s25" d="m1014.6 1258.7c0 2.9 2.4 5.2 5.3 5.2 2.9 0 5.3-2.3 5.3-5.2 0-3-2.4-5.3-5.3-5.3-2.9 0-5.3 2.3-5.3 5.3z"/>
						</g>
						<g id="&lt;Group&gt;" style="mix-blend-mode: multiply">
							<g id="&lt;Group&gt;">
								<path id="&lt;Path&gt;" class="s23" d="m1021 1261.4c0.1 0 0.3-0.1 0.3-0.2 0.1-0.2 0-0.4-0.2-0.5q-0.6-0.3-0.7-0.8c0-0.3 0.2-0.7 0.5-1 0.4-0.2 0.9-0.2 1.3 0q0.2 0.1 0.3 0 0.2-0.1 0.2-0.3c-0.1-1.3-0.9-2.3-2.2-2.7-1.4-0.4-2.7 0-3.5 1-0.1 0.2-0.1 0.4 0.1 0.5 0.1 0.1 0.3 0.1 0.4-0.1 0.8-0.9 2-1 2.8-0.8 0.7 0.3 1.4 0.8 1.6 1.6-0.4-0.1-0.9 0-1.3 0.3-0.6 0.3-0.9 1-0.9 1.6 0.1 0.3 0.2 1 1.2 1.4q0 0 0.1 0z"/>
							</g>
						</g>
						<g id="&lt;Group&gt;" style="mix-blend-mode: multiply">
							<g id="&lt;Group&gt;">
								<path id="&lt;Path&gt;" class="s23" d="m1042.6 1281.5q0 0-0.1 0c-8.7-2.5-15.7-9.8-17.8-18.7-0.1-0.2 0-0.4 0.2-0.4 0.2-0.1 0.4 0.1 0.4 0.2 2.1 8.7 8.9 15.9 17.4 18.3 0.2 0 0.3 0.2 0.2 0.4 0 0.1-0.2 0.2-0.3 0.2z"/>
							</g>
						</g>
						<g id="&lt;Group&gt;">
							<g id="&lt;Group&gt;">
								<path id="&lt;Path&gt;" class="s27" d="m1034.1 1243.6q-0.2 0-0.3-0.2c-0.1-0.1-0.1-0.3 0.1-0.4 4.4-2.5 9.6-2.7 11.8-2.1 0.2 0.1 0.3 0.3 0.2 0.4 0 0.2-0.2 0.3-0.4 0.3-1.8-0.6-6.9-0.5-11.3 2q-0.1 0-0.1 0z"/>
							</g>
						</g>
						<g id="&lt;Group&gt;">
							<g id="&lt;Group&gt;">
								<path id="&lt;Path&gt;" class="s27" d="m1061.6 1244q-0.2 0-0.3-0.2c0 0-1.4-1.8-5.7-1.2-0.2 0-0.4-0.2-0.4-0.3 0-0.2 0.1-0.4 0.3-0.4 4.6-0.6 6.2 1.3 6.4 1.5 0.1 0.2 0.1 0.4-0.1 0.5q-0.1 0.1-0.2 0.1z"/>
							</g>
						</g>
						<g id="&lt;Group&gt;">
							<g id="&lt;Group&gt;">
								<path id="&lt;Path&gt;" class="s27" d="m1053.8 1261.9q-0.2 0-0.3-0.1c-0.1-0.2-0.1-0.4 0.1-0.5 1.7-1.4 3.7-3.1 4.1-3.7-0.3 0-1-0.1-1.5-0.1-1.2 0-2.6 0-3.4-0.5-1.8-1 0-8.6 1.5-12.2 0.1-0.2 0.3-0.2 0.5-0.2 0.2 0.1 0.2 0.3 0.2 0.5-1.9 4.1-2.9 10.7-1.9 11.3 0.7 0.4 2.1 0.4 3.1 0.5 1.4 0 2.2 0 2.2 0.6 0 0.7-2.4 2.7-4.4 4.3q-0.1 0.1-0.2 0.1z"/>
							</g>
						</g>
						<g id="&lt;Group&gt;">
							<g id="&lt;Group&gt;">
								<path id="&lt;Path&gt;" class="s27" d="m1051 1267.5c-3.3 0-7.2-0.5-9.5-1.7-0.2 0-0.3-0.2-0.2-0.4 0.1-0.2 0.3-0.2 0.5-0.2 4 2 12.8 1.9 14.5 0.9 0.2-0.1 0.4 0 0.5 0.2 0.1 0.1 0 0.3-0.1 0.4-0.9 0.5-3.1 0.8-5.7 0.8z"/>
							</g>
						</g>
						<g id="&lt;Group&gt;" style="mix-blend-mode: multiply">
							<g id="&lt;Group&gt;">
								<path id="&lt;Path&gt;" class="s23" d="m1049.3 1274.1c-1.3 0-2.6-0.3-3.7-0.9-0.1-0.1-0.2-0.3-0.1-0.5 0.1-0.2 0.3-0.2 0.5-0.1 2.4 1.6 6.7 0.4 7.2 0.1 0.1-0.1 0.3-0.1 0.4 0.1 0.1 0.1 0.1 0.3 0 0.4-0.4 0.3-2.3 0.9-4.3 0.9z"/>
							</g>
						</g>
						<g id="&lt;Group&gt;">
							<path id="&lt;Path&gt;" class="s27" d="m1043.5 1250.6c0 2-0.9 3.6-2 3.6-1.2 0-2.1-1.6-2.1-3.6 0-2 0.9-3.6 2.1-3.6 1.1 0 2 1.6 2 3.6z"/>
						</g>
						<g id="&lt;Group&gt;" style="mix-blend-mode: multiply">
							<g id="&lt;Group&gt;">
								<path id="&lt;Path&gt;" class="s23" d="m1041 1255.5c-0.7 0-2.2-0.3-2.7-2.9-0.1-0.1 0-0.2 0.1-0.2 0.1 0 0.2 0 0.2 0.1 0.5 2.5 2 2.7 2.6 2.6 0.1 0 0.1 0.1 0.2 0.2 0 0.1-0.1 0.1-0.2 0.2q-0.1 0-0.2 0z"/>
							</g>
						</g>
						<g id="&lt;Group&gt;">
							<path id="&lt;Path&gt;" class="s27" d="m1059 1251c0 2-0.9 3.7-2 3.7-1.2 0-2.1-1.7-2.1-3.7 0-2 0.9-3.6 2.1-3.6 1.1 0 2 1.6 2 3.6z"/>
						</g>
						<g id="&lt;Group&gt;" style="mix-blend-mode: multiply">
							<g id="&lt;Group&gt;">
								<path id="&lt;Path&gt;" class="s23" d="m1056.5 1255.9c-0.7 0-2.3-0.3-2.8-2.9 0-0.1 0.1-0.2 0.2-0.2 0.1 0 0.2 0.1 0.2 0.2 0.5 2.5 1.9 2.6 2.6 2.6 0.1-0.1 0.1 0 0.1 0.1 0.1 0.1 0 0.2-0.1 0.2q-0.1 0-0.2 0z"/>
							</g>
						</g>
						<g id="&lt;Group&gt;">
							<path id="&lt;Path&gt;" class="s32" d="m1038.7 1258.7c-0.8 1.1-1.3 2.1-1.2 2.2 0.2 0.1 0.9-0.7 1.7-1.8 0.8-1.1 1.4-2 1.2-2.2-0.1-0.1-0.9 0.7-1.7 1.8z"/>
						</g>
						<g id="&lt;Group&gt;">
							<path id="&lt;Path&gt;" class="s32" d="m1040.8 1259c-0.8 1.1-1.4 2-1.2 2.1 0.1 0.1 0.9-0.7 1.7-1.7 0.8-1.1 1.3-2.1 1.2-2.2-0.1-0.1-0.9 0.7-1.7 1.8z"/>
						</g>
						<g id="&lt;Group&gt;">
							<path id="&lt;Path&gt;" class="s32" d="m1043.1 1259.2c-0.8 1.1-1.4 2-1.2 2.1 0.1 0.2 0.9-0.6 1.7-1.7 0.8-1.1 1.3-2.1 1.2-2.2-0.2-0.1-0.9 0.7-1.7 1.8z"/>
						</g>
						<g id="&lt;Group&gt;">
							<path id="&lt;Path&gt;" class="s33" d="m1023.5 1265.9c0 1.3-1.1 2.5-2.5 2.5-1.3 0-2.4-1.2-2.4-2.5 0-1.4 1.1-2.5 2.4-2.5 1.4 0 2.5 1.1 2.5 2.5z"/>
						</g>
						<g id="&lt;Group&gt;">
							<path id="&lt;Path&gt;" class="s27" d="m1000.4 1239.9c-7.5-7.5-7.5-19.7 0-27.2 7.6-7.6 19.7-7.6 27.3 0 7.5 7.5 7.5 19.7 0 27.2-7.6 7.5-19.7 7.5-27.3 0z"/>
						</g>
					</g>
					<g id="&lt;Group&gt;">
						<path id="&lt;Path&gt;" class="s27" d="m1085.6 1442.1c-2.6-5.5-4.1-12-4.1-12l-88-0.8c-3.9 12-4.4 13.5-4.4 13.5z"/>
					</g>
					<g id="&lt;Group&gt;">
						<path id="&lt;Path&gt;" class="s34" d="m1072.1 1444.4h4.9v-15.9h-4.9z"/>
					</g>
					<g id="&lt;Group&gt;">
						<path id="&lt;Path&gt;" class="s34" d="m1034.6 1444h5v-15.9h-5z"/>
					</g>
					<g id="&lt;Group&gt;">
						<path id="&lt;Path&gt;" class="s35" d="m997 1443.7h5v-15.8h-5z"/>
					</g>
					<g id="&lt;Group&gt;">
						<path id="&lt;Path&gt;" class="s27" d="m1053.6 1222.2c-1 14.3-21.1 16.4-24.7 15.6-3.6-0.8 5.9-21.9 24.7-15.6z"/>
					</g>
					<g id="&lt;Group&gt;">
						<path id="&lt;Path&gt;" class="s33" d="m1009.7 1296.2c6 18 40.7 158.6-1.5 325.3h-58.6c0-30.6 16.4-165.4 32-195.3-6.1-64.7 8.1-121.8 8.1-121.8 6.6-5.1 20-8.2 20-8.2z"/>
					</g>
					<g id="&lt;Group&gt;">
						<path id="&lt;Path&gt;" class="s33" d="m1051.7 1295.3c22.5 22.7 34.1 58.1 32 78.5-2 20.4-6.1 64-6.1 64 19.7 80.3 24.5 179.7 24.5 179.7h33.4c8.8-43.6-25.9-162-41.6-187.9 1.4-43.6 8.9-61.3 8.2-72.8-0.7-11.6-26.1-55.2-26.1-55.2-10.7-6.4-24.3-6.3-24.3-6.3z"/>
					</g>
					<g id="&lt;Group&gt;">
						<path id="&lt;Path&gt;" class="s25" d="m1095.3 1365.9c0.6-2.5 4.5-18.7 5.5-20.5 0.9-1.7 14.7-13.9 16.2-14.7 1.4-0.7 13-4.5 13.4-4.4 2 2.7 0.3 5.3-2.7 7.6-3 2.2-7.2 4.6-7.5 5.2-0.3 0.6-2.3 3.8-1.7 4.1 0.7 0.4 4.9 8.5 5.8 11.2 1 2.6 0.2 6.9-2.5 10.4-2.7 3.4-19.2 15.3-19.2 15.3z"/>
					</g>
					<g id="&lt;Group&gt;">
						<path id="&lt;Path&gt;" class="s28" d="m989.7 1304.4c12 6.8 24.4 32.2 34.3 47.8 9.9 15.5 45.9 29.8 72.4 3.1 1.3 1.3 8.1 25.4 8.1 25.4-5.5 16.6-38.5 42.6-79.7 37.1-41.3-5.4-49.6-48.5-50.7-61.5-1.8-22.7 3.4-48 15.6-51.9z"/>
					</g>
					<g id="&lt;Group&gt;" style="mix-blend-mode: multiply">
						<g id="&lt;Group&gt;">
							<path id="&lt;Path&gt;" class="s29" d="m1037.1 1373.9c0.1 0.1 0.3 0.1 0.5 0 0.8-1 1.7-3.2 2.3-5 0.3-0.6 0.6-1.4 0.8-1.8 0.3 0.7 0.7 2.8 0.3 3.5-0.1 0.2-0.1 0.4 0.1 0.5 0.2 0.1 0.4 0.1 0.5-0.1 0.6-0.8 0.2-2.6 0-3.5-0.4-1.2-0.7-1.3-0.8-1.3-0.1-0.1-0.2-0.1-0.3 0-0.4 0.1-0.6 0.6-1.3 2.5-0.6 1.6-1.4 3.8-2.2 4.7-0.1 0.1-0.1 0.4 0 0.5q0.1 0 0.1 0z"/>
						</g>
					</g>
					<g id="&lt;Group&gt;">
						<path id="&lt;Path&gt;" class="s36" d="m972.1 1525.2h26.7c5.9 0 10.7-4.8 10.7-10.7v-28.4h-37.4z"/>
					</g>
					<g id="&lt;Group&gt;">
						<path id="&lt;Path&gt;" class="s36" d="m1104.3 1487.8v-1.7h11.1c3.4 11.1 6.6 23 9.5 35.1-12.2-6.1-20.6-18.8-20.6-33.4z"/>
					</g>
				</g>
				<g id="&lt;Group&gt;">
					<g id="&lt;Group&gt;">
						<path id="&lt;Path&gt;" class="s25" d="m1446.5 1767.3l-3.2 19.8c4.2 10.9 2.4 24.6 2.4 24.6l-80.9 0.4c8.7-16.4 46.6-17.8 50.6-25.6 4-7.9 5.6-31.1 5.6-31.1z"/>
					</g>
					<g id="&lt;Group&gt;">
						<path id="&lt;Path&gt;" class="s27" d="m1428.4 1788.2c0.1-2.8-2-13-9.3-16-0.9 5.6-2.1 11.1-3.7 14.3-4 7.8-41.9 9.2-50.6 25.6l80.9-0.4c0 0 1.8-13.7-2.4-24.6 0 0-14.6 6.2-14.9 1.1z"/>
					</g>
					<g id="&lt;Group&gt;">
						<path id="&lt;Path&gt;" class="s37" d="m1367 1808.9q-1.3 1.5-2.2 3.2l80.9-0.4c0 0 0.1-1.2 0.2-3.2z"/>
					</g>
					<g id="&lt;Group&gt;">
						<path id="&lt;Path&gt;" class="s37" d="m1421.3 1790.3c-0.2 0-0.4-0.1-0.4-0.3 0 0-1.2-3.3-3.6-4.3q-1.5-0.7-3.1 0c-0.3 0.1-0.5 0-0.7-0.2-0.1-0.2 0.1-0.5 0.3-0.6q2-0.9 3.9-0.1c2.7 1.2 4 4.7 4.1 4.9 0 0.2-0.1 0.5-0.3 0.6q-0.1 0-0.2 0z"/>
					</g>
					<g id="&lt;Group&gt;">
						<path id="&lt;Path&gt;" class="s37" d="m1413.7 1795.7c-0.2 0-0.4-0.1-0.4-0.3-0.1 0-1.3-3.3-3.6-4.3q-1.5-0.7-3.2 0c-0.2 0.1-0.5 0-0.6-0.2-0.1-0.3 0-0.5 0.3-0.6q2-0.9 3.8-0.1c2.8 1.2 4.1 4.7 4.1 4.9 0.1 0.2 0 0.5-0.3 0.6q0 0-0.1 0z"/>
					</g>
					<g id="&lt;Group&gt;">
						<path id="&lt;Path&gt;" class="s37" d="m1401.1 1799.3c-0.1 0-0.3-0.1-0.4-0.3 0 0-1.2-3.3-3.6-4.3q-1.4-0.7-3.1 0c-0.2 0.1-0.5 0-0.6-0.2-0.1-0.2 0-0.5 0.2-0.6q2.1-0.9 3.9-0.1c2.7 1.2 4 4.8 4.1 4.9 0.1 0.2 0 0.5-0.3 0.6q-0.1 0-0.2 0z"/>
					</g>
				</g>
				<g id="&lt;Group&gt;">
					<g id="&lt;Group&gt;">
						<path id="&lt;Path&gt;" class="s25" d="m1349.5 1767.3l-3.3 19.8c4.1 10.9 2.3 24.7 2.3 24.7h-80.9c8.7-16.3 46.7-17.6 50.7-25.4 4-7.9 5.7-31.1 5.7-31.1z"/>
					</g>
					<g id="&lt;Group&gt;">
						<path id="&lt;Path&gt;" class="s27" d="m1331.3 1788.2c0.1-2.9-2-13.1-9.3-16.1-0.9 5.6-2.1 11.1-3.7 14.3-4 7.8-42 9.1-50.7 25.4h80.9c0 0 1.8-13.8-2.3-24.7 0 0-14.6 6.2-14.9 1.1z"/>
					</g>
					<g id="&lt;Group&gt;">
						<path id="&lt;Path&gt;" class="s37" d="m1269.8 1808.7q-1.3 1.5-2.2 3.1h80.9c0 0 0.1-1.3 0.3-3.3z"/>
					</g>
					<g id="&lt;Group&gt;">
						<path id="&lt;Path&gt;" class="s37" d="m1324.2 1790.3c-0.2-0.1-0.4-0.2-0.4-0.4-0.1 0-1.3-3.3-3.6-4.3q-1.5-0.7-3.2 0c-0.2 0.1-0.5 0-0.6-0.2-0.1-0.2 0.1-0.5 0.3-0.6q2-0.9 3.9-0.1c2.7 1.2 4 4.8 4 4.9 0.1 0.3 0 0.5-0.2 0.6q-0.1 0.1-0.2 0.1z"/>
					</g>
					<g id="&lt;Group&gt;">
						<path id="&lt;Path&gt;" class="s37" d="m1316.5 1795.6c-0.2 0-0.3-0.1-0.4-0.3 0 0-1.2-3.3-3.6-4.3q-1.4-0.7-3.1 0c-0.2 0.1-0.5 0-0.6-0.2-0.1-0.3 0-0.5 0.2-0.6q2.1-0.9 3.9-0.1c2.7 1.2 4 4.8 4.1 4.9 0.1 0.2-0.1 0.5-0.3 0.6q-0.1 0-0.2 0z"/>
					</g>
					<g id="&lt;Group&gt;">
						<path id="&lt;Path&gt;" class="s37" d="m1304 1799.2c-0.2 0-0.4-0.1-0.4-0.3 0 0-1.2-3.3-3.6-4.4q-1.5-0.6-3.1 0.1c-0.3 0.1-0.6 0-0.7-0.3-0.1-0.2 0.1-0.5 0.3-0.6q2-0.8 3.9 0c2.7 1.2 4 4.7 4 4.9 0.1 0.2 0 0.5-0.2 0.6q-0.1 0-0.2 0z"/>
					</g>
				</g>
				<g id="&lt;Group&gt;">
					<path id="&lt;Path&gt;" class="s16" d="m1313 1784.2h40.7l23.9-189.6 27.1 189.6h41.1c1.1-59.7 34.7-286.9 13.9-342.2h-145.8c-12.3 124.2-0.9 342.2-0.9 342.2z"/>
				</g>
				<g id="&lt;Group&gt;">
					<g id="&lt;Group&gt;" style="mix-blend-mode: multiply">
						<g id="&lt;Group&gt;">
							<path id="&lt;Path&gt;" class="s30" d="m1377.6 1588.5c-0.2 0-0.4-0.2-0.4-0.5l-5.5-96.5-8-2.1c-0.2 0-0.4-0.2-0.4-0.4l1.9-25.5c0-0.3 0.2-0.5 0.5-0.4 0.2 0 0.4 0.2 0.4 0.4l-1.8 25.1 8 2.1c0.2 0.1 0.3 0.3 0.4 0.5l5.4 96.8c0 0.2-0.2 0.5-0.4 0.5q0 0-0.1 0z"/>
						</g>
					</g>
				</g>
				<g id="&lt;Group&gt;">
					<g id="&lt;Group&gt;" style="mix-blend-mode: multiply">
						<g id="&lt;Group&gt;">
							<path id="&lt;Path&gt;" class="s30" d="m1351.5 1777.1h-35.9c-0.2 0-0.4-0.2-0.4-0.4 0-0.3 0.2-0.5 0.4-0.5h35.9c0.3 0 0.5 0.2 0.5 0.5 0 0.2-0.2 0.4-0.5 0.4z"/>
						</g>
					</g>
				</g>
				<g id="&lt;Group&gt;">
					<g id="&lt;Group&gt;" style="mix-blend-mode: multiply">
						<g id="&lt;Group&gt;">
							<path id="&lt;Path&gt;" class="s30" d="m1441.8 1777.9h-34.9c-0.3 0-0.5-0.2-0.5-0.5 0-0.2 0.2-0.5 0.5-0.5h34.9c0.3 0 0.5 0.3 0.5 0.5 0 0.3-0.2 0.5-0.5 0.5z"/>
						</g>
					</g>
				</g>
				<g id="&lt;Group&gt;">
					<g id="&lt;Group&gt;" style="mix-blend-mode: multiply">
						<g id="&lt;Group&gt;">
							<path id="&lt;Path&gt;" class="s30" d="m1431 1481.2q0 0 0 0c-4.7-0.5-20.1-4-21.1-30.3 0-0.2 0.2-0.5 0.5-0.5 0.2 0 0.5 0.2 0.5 0.5 0.6 17.2 8.1 28.2 20.2 29.4 0.2 0 0.4 0.2 0.4 0.5 0 0.2-0.2 0.4-0.5 0.4z"/>
						</g>
					</g>
				</g>
				<g id="&lt;Group&gt;">
					<g id="&lt;Group&gt;" style="mix-blend-mode: multiply">
						<g id="&lt;Group&gt;">
							<path id="&lt;Path&gt;" class="s30" d="m1440.8 1772.5q0 0 0 0c-0.2 0-0.4-0.2-0.4-0.4 0-2.4-1.9-278.9-9.1-317.5 0-0.2 0.1-0.5 0.4-0.5 0.2-0.1 0.5 0.1 0.5 0.4 7.2 38.6 9.2 315.2 9.1 317.6 0 0.2-0.2 0.4-0.5 0.4z"/>
						</g>
					</g>
				</g>
				<g id="&lt;Group&gt;">
					<g id="&lt;Group&gt;">
						<path id="&lt;Path&gt;" class="s25" d="m1514.7 1439.4c2.3 3.4 12.8 13.3 10.7 18.5-2.1 5.2-3.7 12.4-0.7 18.6 3.1 6.1-0.4 14.6 0.7 15.6 1.2 1.1 6.8-5.9 7.3-10 0.5-4.2-1.1-5.8 1.2-5.3 2.3 0.5 14 19.8 17.1 26.5 3.1 6.6 4-3 4-3 3.3-0.1 3.6-4.8 3.6-4.8 4.9-1.1 1.1-14.9 2.5-14.6 5.7-1 0.7-15.8-5.4-22.3-6-6.5-12.3-10.9-15.7-18-3.4-7.1-8.1-16.3-8.1-16.3z"/>
					</g>
					<g id="&lt;Group&gt;" style="mix-blend-mode: multiply">
						<g id="&lt;Group&gt;">
							<path id="&lt;Path&gt;" class="s23" d="m1554.6 1499.1c0.1-0.1 0.2-0.3 0.1-0.4-0.1-0.7-3.4-16-10.3-23.6-0.2-0.1-0.4-0.1-0.6 0-0.2 0.2-0.2 0.4 0 0.6 6.7 7.4 10.1 23 10.1 23.1 0.1 0.3 0.3 0.4 0.5 0.4q0.1-0.1 0.2-0.1z"/>
						</g>
					</g>
					<g id="&lt;Group&gt;" style="mix-blend-mode: multiply">
						<g id="&lt;Group&gt;">
							<path id="&lt;Path&gt;" class="s23" d="m1558.9 1493.5q0.2-0.2 0.2-0.4c-0.1-0.6-1.2-13.7-6.2-20.8-0.1-0.2-0.4-0.2-0.6-0.1-0.2 0.2-0.2 0.4-0.1 0.6 4.9 6.9 6 20.2 6 20.4 0.1 0.2 0.3 0.4 0.5 0.4q0.1-0.1 0.2-0.1z"/>
						</g>
					</g>
					<g id="&lt;Group&gt;" style="mix-blend-mode: multiply">
						<g id="&lt;Group&gt;">
							<path id="&lt;Path&gt;" class="s23" d="m1560.2 1479.3c0.1-0.1 0.2-0.2 0.1-0.4-1.3-5.7-2.9-8.2-2.9-8.3-0.2-0.2-0.4-0.2-0.6-0.1-0.2 0.1-0.3 0.4-0.1 0.6 0 0 1.5 2.5 2.8 8 0 0.2 0.3 0.4 0.5 0.3q0.1 0 0.2-0.1z"/>
						</g>
					</g>
				</g>
				<g id="&lt;Group&gt;" style="mix-blend-mode: multiply">
					<g id="&lt;Group&gt;">
						<path id="&lt;Path&gt;" class="s30" d="m1408.8 1454.7q0 0-0.1 0c-2.3-0.8-4.9-3.8-6.5-7.4-1.3-3.1-3-9.4 0.4-16.9 0.2-0.3 0.5-0.4 0.8-0.3 0.3 0.2 0.4 0.5 0.2 0.8-3.2 7.1-1.6 13-0.3 16 1.6 3.7 4.1 6.2 5.7 6.7 0.3 0.1 0.5 0.4 0.4 0.7-0.1 0.2-0.3 0.4-0.6 0.4z"/>
					</g>
				</g>
				<g id="&lt;Group&gt;">
					<path id="&lt;Path&gt;" class="s26" d="m1374.2 1279.9c-1-0.3-6.6 0.5-11.9 1.3-5.3 0.8-21.7 6-21.7 6-22.7 18.5-22.2 69.4-20.5 88.5 1.7 19.2-16.8 77.8-16.8 77.8 41.6 41.6 162.6 20.3 162.6 20.3 11.8-26.4-7.2-162.8-12.9-172.3-5.6-9.6-44.6-22.2-44.6-22.2z"/>
				</g>
				<g id="&lt;Group&gt;">
					<g id="&lt;Group&gt;">
						<path id="&lt;Path&gt;" class="s27" d="m1366.7 1221.1c-4.2-8.4-0.4-22.8 9.6-21.1 9.9 1.6 34.6 4.4 37.4 15.6 1.7 7-1 24.7-3.1 31-2 6.3-15.3 9.6-15.3 9.6z"/>
					</g>
					<g id="&lt;Group&gt;">
						<path id="&lt;Path&gt;" class="s25" d="m1403.1 1225.9c0 0-0.9 8-1.6 11.5-0.6 3.5 1.5 9.2 6.1 6l-1 9.4c0 0 4.1 25.6 12.9 30.2-14.5 15.9-57 11.3-53.9-2.4 5.8 0 10.1-9.7 8.2-10.7-9.4-5-12.8-16.7-7.2-30.3-0.4-7.6-0.9-12.6 0.1-18.5 13.7 6.3 27.2 1.5 30.3 0 0.2 7.6 6.1 4.8 6.1 4.8z"/>
					</g>
					<path id="&lt;Mesh&gt;" class="s38" d="m1367.5 1246.1q0.1 0.1 0.6 0.2-0.1-0.2 0.3-0.7c-0.4-0.1-0.6 0.1-0.7 0.1q-0.3 0.4-0.2 0.4zm0.2-0.4c0.1 0 0.3-0.2 0.7-0.1 0.7-1.3 2.7-3.8 4.3-5.5q-0.5 0.4-0.9 0.9c-1.7 1.9-3.5 3.8-4.1 4.7zm0.4 0.6c1.9 0.3 7.5 0.6 7.5 0.6q0-2.1 0-3.7c0 0-5.4 2.4-7.2 2.4q-0.4 0.5-0.3 0.7zm0.3-0.7c1.8 0 7.2-2.4 7.2-2.4 0-4 0-6.2 0-6.2 0 0-1.3 1.4-2.9 3.1-1.6 1.7-3.6 4.2-4.3 5.5z"/>
					<g id="&lt;Group&gt;">
						<path id="&lt;Path&gt;" class="s27" d="m1374.1 1236.3c0 2-0.9 3.6-2 3.6-1 0-1.9-1.6-1.9-3.6 0-1.9 0.9-3.5 1.9-3.5 1.1 0 2 1.6 2 3.5z"/>
					</g>
					<g id="&lt;Group&gt;">
						<path id="&lt;Path&gt;" class="s27" d="m1389.4 1236.9c0 1.9-0.9 3.6-2 3.6-1 0-1.9-1.7-1.9-3.6 0-2 0.9-3.6 1.9-3.6 1.1 0 2 1.6 2 3.6z"/>
					</g>
					<g id="&lt;Group&gt;">
						<g id="&lt;Group&gt;" style="mix-blend-mode: multiply">
							<g id="&lt;Group&gt;">
								<path id="&lt;Path&gt;" class="s23" d="m1387.1 1242.2q-0.1 0-0.1 0c-0.2 0-0.4-0.2-0.4-0.4 0-0.1 0.2-0.3 0.4-0.3 1.8 0.1 3.3-1.3 3.4-3 0-0.2 0.1-0.3 0.3-0.3 0.2 0 0.4 0.1 0.3 0.3-0.1 2.1-1.8 3.7-3.9 3.7z"/>
							</g>
						</g>
					</g>
					<g id="&lt;Group&gt;">
						<g id="&lt;Group&gt;">
							<path id="&lt;Path&gt;" class="s27" d="m1375.5 1247.2q0 0 0 0c-2.3 0-7.7-0.2-8.3-0.7-0.1 0-0.1-0.2-0.1-0.3-0.1-0.5 0.8-1.5 4-4.8 2-2.1 4.5-4.7 4.7-5.4 0.6-1.9 0.4-4-0.4-6.5 0-0.2 0.1-0.4 0.2-0.4 0.2-0.1 0.4 0 0.5 0.2 0.8 2.6 1 4.9 0.4 6.9-0.3 0.8-2.1 2.7-4.9 5.6-1.5 1.6-3.4 3.6-3.8 4.2 0.9 0.3 4.5 0.5 7.7 0.6 0.2 0 0.3 0.1 0.3 0.3 0 0.2-0.1 0.3-0.3 0.3z"/>
						</g>
					</g>
					<g id="&lt;Group&gt;">
						<path id="&lt;Path&gt;" class="s32" d="m1384.8 1246.6c-1 1.4-2 2.4-2.2 2.2-0.3-0.1 0.3-1.4 1.3-2.8 1-1.4 2-2.4 2.2-2.3 0.3 0.2-0.3 1.5-1.3 2.9z"/>
					</g>
					<g id="&lt;Group&gt;">
						<path id="&lt;Path&gt;" class="s32" d="m1387.7 1246.6c-1 1.5-1.9 2.5-2.2 2.3-0.2-0.2 0.4-1.4 1.4-2.9 0.9-1.4 1.9-2.4 2.2-2.2 0.2 0.2-0.4 1.4-1.4 2.8z"/>
					</g>
					<g id="&lt;Group&gt;">
						<path id="&lt;Path&gt;" class="s32" d="m1390.8 1246.6c-1 1.4-2 2.4-2.2 2.2-0.2-0.1 0.4-1.4 1.3-2.8 1-1.4 2-2.4 2.3-2.3 0.2 0.2-0.4 1.5-1.4 2.9z"/>
					</g>
					<g id="&lt;Group&gt;" style="mix-blend-mode: multiply">
						<g id="&lt;Group&gt;">
							<path id="&lt;Path&gt;" class="s23" d="m1377.8 1260.3c-1 0-2.3-0.2-3.6-0.7-0.2 0-0.3-0.2-0.2-0.4 0-0.2 0.2-0.2 0.4-0.2 2.7 1 5.4 0.4 5.4 0.4 0.2 0 0.4 0.1 0.4 0.3 0 0.1-0.1 0.3-0.3 0.4 0 0-0.9 0.2-2.1 0.2z"/>
						</g>
					</g>
					<g id="&lt;Group&gt;">
						<path id="&lt;Path&gt;" class="s25" d="m1417.4 1246.8c0 3.4-2.7 6.1-6 6.1-3.4 0-6.1-2.7-6.1-6.1 0-3.3 2.7-6 6.1-6 3.3 0 6 2.7 6 6z"/>
					</g>
					<g id="&lt;Group&gt;" style="mix-blend-mode: multiply">
						<g id="&lt;Group&gt;">
							<path id="&lt;Path&gt;" class="s23" d="m1410.1 1250.1c-0.1 0-0.3-0.1-0.4-0.2 0-0.2 0.1-0.5 0.3-0.5q0.8-0.4 0.8-1c0.1-0.4-0.2-0.9-0.6-1.1-0.5-0.3-1-0.4-1.5-0.1q-0.2 0.1-0.4 0-0.2-0.2-0.2-0.4c0.1-1.4 1.1-2.6 2.6-3.1 1.6-0.5 3.2 0 4.1 1.2 0.2 0.2 0.1 0.4 0 0.6-0.2 0.1-0.5 0-0.6-0.1-0.9-1.2-2.3-1.2-3.2-0.9-0.8 0.2-1.7 0.8-2 1.7 0.6-0.1 1.2 0.1 1.6 0.4 0.7 0.4 1.1 1.2 1 1.9 0 0.4-0.2 1.1-1.3 1.6q-0.1 0-0.2 0z"/>
						</g>
					</g>
					<g id="&lt;Group&gt;">
						<path id="&lt;Path&gt;" class="s27" d="m1393.6 1230.6q-0.1 0-0.1 0c0 0-5.3-1.3-10.3-1.3-0.1 0-0.2-0.1-0.2-0.2 0-0.1 0.1-0.2 0.2-0.2 5.9-3.7 10.4 1.2 10.4 1.2 0.1 0.1 0.2 0.2 0.2 0.3 0 0.1-0.1 0.2-0.2 0.2z"/>
					</g>
					<g id="&lt;Group&gt;">
						<path id="&lt;Path&gt;" class="s27" d="m1367 1230.2c-0.1 0-0.2-0.1-0.2-0.2-0.1-0.1 0.1-0.1 0.1-0.3 1.4-3.8 5.7-2.9 6.6-0.8 0.1 0.1 0.2 0.1 0.2 0.2 0.1 0.1 0 0.2-0.2 0.2 0 0-3.8 0.2-6.5 0.9q0 0 0 0z"/>
					</g>
					<g id="&lt;Group&gt;" style="mix-blend-mode: multiply">
						<g id="&lt;Group&gt;">
							<path id="&lt;Path&gt;" class="s23" d="m1381.9 1271.8q0 0 0 0c11.7-0.5 20.4-7.5 23.8-19.1 0.1-0.2-0.1-0.4-0.3-0.5-0.2 0-0.4 0.1-0.5 0.3-3.3 11.2-11.7 17.9-23 18.4-0.3 0-0.5 0.2-0.5 0.5 0.1 0.2 0.2 0.4 0.5 0.4z"/>
						</g>
					</g>
					<g id="&lt;Group&gt;">
						<g id="&lt;Group&gt;">
							<path id="&lt;Path&gt;" class="s27" d="m1377.3 1253.2c-2.2 0-4.4-0.3-6.5-0.8-0.2-0.1-0.3-0.2-0.2-0.4 0-0.2 0.2-0.3 0.4-0.2 7.2 2 15.9-0.4 17.2-1.3 0.1-0.1 0.3-0.1 0.4 0 0.1 0.1 0.1 0.3-0.1 0.4-1 0.8-5.8 2.3-11.2 2.3z"/>
						</g>
					</g>
				</g>
				<g id="&lt;Group&gt;">
					<path id="&lt;Path&gt;" class="s27" d="m1374.4 1201.5c-15-1.8-14.3 11.3-11.9 9.1 2.4-2.3 7.7-4.9 7.7-4.9z"/>
				</g>
				<g id="&lt;Group&gt;">
					<path id="&lt;Path&gt;" class="s26" d="m1446.7 1295.4c44.2 23.5 76.6 78.3 95.4 140.1l-25.9 14.7c-17.1-30.6-57.7-71.8-60.1-73-28.8-21.8-34.7-71.8-9.4-81.8z"/>
				</g>
				<g id="&lt;Group&gt;">
					<g id="&lt;Group&gt;">
						<path id="&lt;Path&gt;" class="s39" d="m1137.6 1475.6h-11.3c0-41.4 22.9-118.7 78.1-118.7 19.4 0 55.6 12.2 97.5 26.3 60.5 20.4 146.9 45.9 167.1 26.7l4.3 10.6c-25.1 23.9-101.3-1.8-175-26.6-39.2-13.3-76.3-25.8-93.9-25.8-46.6 0-66.8 71.2-66.8 107.5z"/>
					</g>
				</g>
			</g>
			<g id="&lt;Group&gt;">
				<g id="&lt;Group&gt;">
					<path id="&lt;Path&gt;" class="s22" d="m1906.4 1449.3c43-6.2 54 2.4 85.9-3.7 32-6.1 81.1-22.1 141.3 8.6 60.1 30.7 88.4 136.3 35.6 232.1-52.8 95.8-149.8 132.6-202.6 122.8-52.8-9.8-79.9-20.9-79.9-20.9z"/>
				</g>
				<g id="&lt;Group&gt;">
					<path id="&lt;Path&gt;" class="s14" d="m1973.9 1480c126.5-83.5 219.8 13.5 176.9 140-43 126.5-157.2 240.7-226 164.5-60.2 31.9-126.5-45.4-115.4-149.8 11-104.4 74.9-249.3 164.5-154.7z"/>
				</g>
				<g id="&lt;Group&gt;">
					<path id="&lt;Path&gt;" class="s15" d="m1971.5 1501.5c-7.1 31.9-11.1 58.3-27 69.3-16 11.1-64.7 46.7-8.2 124.1 78.1-60.2 42.5-89.7 36.4-120.4-6.1-30.7-1.2-73-1.2-73z"/>
				</g>
				<g id="&lt;Group&gt;">
					<path id="&lt;Path&gt;" class="s40" d="m1944.5 1601.5c-19.8 14.6-27.8 33.4-15.3 35.7 12.5 2.3 15.3-35.7 15.3-35.7z"/>
				</g>
				<g id="&lt;Group&gt;">
					<path id="&lt;Path&gt;" class="s40" d="m1956.9 1602.6c14.1 20.1 15.6 40.5 3 38.7-12.5-1.9-3-38.7-3-38.7z"/>
				</g>
			</g>
		</g>
	</g>
</svg>