<svg version="1.2" xmlns="http://www.w3.org/2000/svg" viewBox="0 0 3200 2000" width="3200" height="2000">
	<title>6263</title>
	<style>
		.s0 { fill: #074530 } 
		.s1 { fill: #c8dbf4 } 
		.s2 { fill: #d2e3fc } 
		.s3 { fill: #95c0f4 } 
		.s4 { fill: #b7d3f3 } 
		.s5 { fill: #c1d9f4 } 
		.s6 { fill: #e4eef9 } 
		.s7 { fill: #afcdfb } 
		.s8 { fill: #188a63 } 
		.s9 { fill: #8cdec1 } 
		.s10 { fill: #fcecdb } 
		.s11 { fill: #274f9f } 
		.s12 { fill: #f4d2b8 } 
		.s13 { fill: #2b478b } 
		.s14 { fill: #699dee } 
		.s15 { fill: #568cdb } 
		.s16 { fill: #7eb2fc } 
		.s17 { fill: #f99746 } 
		.s18 { fill: #ed7d2b } 
		.s19 { fill: #2e3552 } 
		.s20 { fill: #f4a269 } 
		.s21 { fill: #ffb27d } 
		.s22 { fill: #c65447 } 
		.s23 { fill: #233862 } 
		.s24 { fill: #2a468a } 
		.s25 { fill: #163560 } 
		.s26 { fill: #1c468a } 
		.s27 { fill: #2c3a64 } 
		.s28 { fill: #efdece } 
		.s29 { fill: #ffb17c } 
		.s30 { fill: #ed985f } 
		.s31 { fill: #ffffff } 
	</style>
	<g id="Слой 1">
		<g id="&lt;Group&gt;">
			<path id="&lt;Path&gt;" class="s0" d="m339.4 1763.4l905.3-4.2 241.3-0.1h80l241.7-0.1 1104.6-0.2c0 0 252.7-287.5-17.2-560.6-279.8-283.1-415.9-52.6-501.9-451.1-216.5-1003.1-2357-419.3-1795.5 434.4 202.1 307.3-398 144-258.3 581.9z"/>
			<g id="&lt;Group&gt;" style="opacity: .5">
				<g id="&lt;Group&gt;">
					<g id="&lt;Group&gt;">
						<path id="&lt;Compound Path&gt;" fill-rule="evenodd" class="s1" d="m1939.9 1759.3h-1241.1v-1072.5c0-47.4 38.5-85.9 85.9-85.9h1083.1c39.8 0 72.1 32.3 72.1 72.1zm-1221.6-19.5h1202.1v-1066.8c0-29-23.6-52.5-52.6-52.5h-1083.1c-36.6 0-66.4 29.7-66.4 66.3z"/>
					</g>
					<path id="&lt;Path&gt;" class="s1" d="m1930.1 847.5h-1221.5v-21.7h1221.5z"/>
					<path id="&lt;Path&gt;" class="s1" d="m1930.1 1022.3h-1221.5v-21.7h1221.5z"/>
					<path id="&lt;Path&gt;" class="s1" d="m1930.1 1197.1h-1221.5v-21.7h1221.5z"/>
					<path id="&lt;Path&gt;" class="s1" d="m1930.1 1372.5h-1221.5v-21.7h1221.5z"/>
				</g>
				<g id="&lt;Group&gt;">
					<path id="&lt;Path&gt;" class="s1" d="m975 1350.8h30.5v-113.5h-30.5z"/>
					<path id="&lt;Path&gt;" class="s1" d="m941.5 1350.8h26.4v-123.3h-26.4z"/>
					<path id="&lt;Path&gt;" class="s2" d="m900.2 1348.8l26.3 3.2 15-122.5-26.3-3.2z"/>
					<path id="&lt;Path&gt;" class="s1" d="m1827.4 1350.8h30.5v-113.5h-30.5z"/>
					<path id="&lt;Path&gt;" class="s1" d="m1793.8 1350.8h26.4v-123.3h-26.4z"/>
					<path id="&lt;Path&gt;" class="s2" d="m1752.6 1348.8l26.2 3.2 15-122.5-26.2-3.2z"/>
					<path id="&lt;Path&gt;" class="s3" d="m751.5 1350.8h124.8v-22.2h-124.8z"/>
					<path id="&lt;Path&gt;" class="s4" d="m736.3 1328.6h124.7v-15.2h-124.7z"/>
					<path id="&lt;Path&gt;" class="s2" d="m748.6 1313.4h119.5v-15.3h-119.5z"/>
					<path id="&lt;Path&gt;" class="s1" d="m745.7 1298.1h108v-11.7h-108z"/>
					<path id="&lt;Path&gt;" class="s2" d="m1350.2 1350.8h124.8v-22.2h-124.8z"/>
					<path id="&lt;Path&gt;" class="s4" d="m1335 1328.6h124.7v-15.2h-124.7z"/>
					<path id="&lt;Path&gt;" class="s2" d="m1347.3 1313.4h119.5v-15.3h-119.5z"/>
					<path id="&lt;Path&gt;" class="s1" d="m1344.4 1298.1h108v-11.7h-108z"/>
					<path id="&lt;Path&gt;" class="s4" d="m1330.9 1286.4h124.7v-15.2h-124.7z"/>
					<path id="&lt;Path&gt;" class="s2" d="m1343.2 1271.2h119.5v-15.3h-119.5z"/>
					<path id="&lt;Path&gt;" class="s1" d="m1340.3 1255.9h108v-11.7h-108z"/>
					<path id="&lt;Path&gt;" class="s5" d="m1256.7 1350.3h21.3v-122.8h-21.3z"/>
					<path id="&lt;Path&gt;" class="s5" d="m1518.2 1350.3h21.3v-128.5h-21.3z"/>
					<path id="&lt;Path&gt;" class="s5" d="m1582.6 1350.3h21.3v-122.8h-21.3z"/>
					<path id="&lt;Path&gt;" class="s6" d="m1229.9 1350.3h26.8v-133h-26.8z"/>
					<path id="&lt;Path&gt;" class="s6" d="m1608.3 1350.3h26.9v-133h-26.9z"/>
					<path id="&lt;Path&gt;" class="s4" d="m1203 1350.3h26.9v-126.6h-26.9z"/>
					<path id="&lt;Path&gt;" class="s4" d="m1478.9 1350.3l26.4-4.6-24.7-141.6-26.5 4.6z"/>
					<path id="&lt;Path&gt;" class="s1" d="m1176.1 1350.3h26.9v-107.2h-26.9z"/>
					<path id="&lt;Path&gt;" class="s1" d="m1643.5 1350.3h26.8v-107.2h-26.8z"/>
					<path id="&lt;Path&gt;" class="s3" d="m1149.3 1350.3h26.8v-113h-26.8z"/>
					<path id="&lt;Path&gt;" class="s2" d="m1118.1 1350.3h26.9v-113h-26.9z"/>
					<path id="&lt;Path&gt;" class="s2" d="m1674.1 1350.3h26.9v-113h-26.9z"/>
					<path id="&lt;Path&gt;" class="s7" d="m1086.2 1350.3h26.9v-122.8h-26.9z"/>
					<path id="&lt;Path&gt;" class="s7" d="m1553 1350.3h26.9v-122.8h-26.9z"/>
				</g>
				<g id="&lt;Group&gt;">
					<path id="&lt;Path&gt;" class="s1" d="m1619.1 826.3h-30.5v-113.6h30.5z"/>
					<path id="&lt;Path&gt;" class="s1" d="m1652.7 826.3h-26.4v-123.4h26.4z"/>
					<path id="&lt;Path&gt;" class="s2" d="m1693.9 824.2l-26.2 3.2-15-122.5 26.2-3.2z"/>
					<path id="&lt;Path&gt;" class="s1" d="m1128.2 1000.6h-30.5v-113.5h30.5z"/>
					<path id="&lt;Path&gt;" class="s1" d="m1161.8 1000.6h-26.4v-123.4h26.4z"/>
					<path id="&lt;Path&gt;" class="s2" d="m1203 998.5l-26.2 3.2-15-122.4 26.2-3.2z"/>
					<path id="&lt;Path&gt;" class="s1" d="m766.8 826.3h-30.5v-113.6h30.5z"/>
					<path id="&lt;Path&gt;" class="s1" d="m800.3 826.3h-26.4v-123.4h26.4z"/>
					<path id="&lt;Path&gt;" class="s2" d="m841.6 824.2l-26.3 3.2-15-122.5 26.3-3.2z"/>
					<path id="&lt;Path&gt;" class="s3" d="m1842.6 826.3h-124.7v-22.2h124.7z"/>
					<path id="&lt;Path&gt;" class="s4" d="m1857.9 804.1h-124.8v-15.3h124.8z"/>
					<path id="&lt;Path&gt;" class="s2" d="m1845.6 788.8h-119.6v-15.3h119.6z"/>
					<path id="&lt;Path&gt;" class="s1" d="m1848.5 773.5h-108v-11.6h108z"/>
					<path id="&lt;Path&gt;" class="s2" d="m1243.9 826.3h-124.7v-22.2h124.7z"/>
					<path id="&lt;Path&gt;" class="s4" d="m1259.2 804.1h-124.8v-15.3h124.8z"/>
					<path id="&lt;Path&gt;" class="s2" d="m1246.9 788.8h-119.6v-15.3h119.6z"/>
					<path id="&lt;Path&gt;" class="s1" d="m1249.8 773.5h-108v-11.6h108z"/>
					<path id="&lt;Path&gt;" class="s4" d="m1263.3 761.9h-124.8v-15.3h124.8z"/>
					<path id="&lt;Path&gt;" class="s2" d="m1251 746.6h-119.6v-15.3h119.6z"/>
					<path id="&lt;Path&gt;" class="s1" d="m1253.9 731.3h-108v-11.6h108z"/>
					<path id="&lt;Path&gt;" class="s5" d="m1337.4 825.8h-21.3v-122.9h21.3z"/>
					<path id="&lt;Path&gt;" class="s5" d="m1075.9 825.8h-21.2v-128.6h21.2z"/>
					<path id="&lt;Path&gt;" class="s5" d="m1011.5 825.8h-21.2v-122.9h21.2z"/>
					<path id="&lt;Path&gt;" class="s6" d="m1364.3 825.8h-26.9v-133.1h26.9z"/>
					<path id="&lt;Path&gt;" class="s6" d="m985.8 825.8h-26.8v-133.1h26.8z"/>
					<path id="&lt;Path&gt;" class="s4" d="m1391.2 825.8h-26.9v-126.7h26.9z"/>
					<path id="&lt;Path&gt;" class="s4" d="m1115.3 825.8l-26.5-4.6 24.7-141.7 26.5 4.7z"/>
					<path id="&lt;Path&gt;" class="s2" d="m1634.3 1000.6h-124.7v-22.2h124.7z"/>
					<path id="&lt;Path&gt;" class="s4" d="m1649.6 978.4h-124.8v-15.3h124.8z"/>
					<path id="&lt;Path&gt;" class="s2" d="m1637.3 963.1h-119.6v-15.3h119.6z"/>
					<path id="&lt;Path&gt;" class="s1" d="m1640.2 947.8h-108v-11.6h108z"/>
					<path id="&lt;Path&gt;" class="s4" d="m1653.7 936.2h-124.8v-15.3h124.8z"/>
					<path id="&lt;Path&gt;" class="s2" d="m1641.4 920.9h-119.6v-15.2h119.6z"/>
					<path id="&lt;Path&gt;" class="s1" d="m1644.3 905.7h-108v-11.7h108z"/>
					<path id="&lt;Path&gt;" class="s4" d="m1505.7 1000.1l-26.5-4.6 24.8-141.7 26.4 4.7z"/>
					<path id="&lt;Path&gt;" class="s1" d="m1418 825.8h-26.8v-107.3h26.8z"/>
					<path id="&lt;Path&gt;" class="s1" d="m950.7 825.8h-26.9v-107.3h26.9z"/>
					<path id="&lt;Path&gt;" class="s3" d="m1444.9 825.8h-26.9v-113.1h26.9z"/>
					<path id="&lt;Path&gt;" class="s2" d="m1476.1 825.8h-26.9v-113.1h26.9z"/>
					<path id="&lt;Path&gt;" class="s2" d="m920.1 825.8h-26.9v-113.1h26.9z"/>
					<path id="&lt;Path&gt;" class="s6" d="m1436.4 1000.6h-26.9v-133h26.9z"/>
					<path id="&lt;Path&gt;" class="s1" d="m1401.2 1000.6h-26.8v-107.3h26.8z"/>
					<path id="&lt;Path&gt;" class="s2" d="m1370.6 1000.6h-26.8v-113h26.8z"/>
					<path id="&lt;Path&gt;" class="s2" d="m1280.8 1000.6h-26.9v-113h26.9z"/>
					<path id="&lt;Path&gt;" class="s2" d="m1243.3 1000.6h-26.9v-113h26.9z"/>
					<path id="&lt;Path&gt;" class="s6" d="m820.2 1000.6h-26.8v-133h26.8z"/>
					<path id="&lt;Path&gt;" class="s6" d="m863.1 998.5l-26.7 3.2-16.1-132 26.7-3.3z"/>
					<path id="&lt;Path&gt;" class="s1" d="m785.1 1000.6h-26.9v-107.3h26.9z"/>
					<path id="&lt;Path&gt;" class="s2" d="m754.5 1000.6h-26.9v-113h26.9z"/>
					<path id="&lt;Path&gt;" class="s7" d="m1508 825.8h-26.9v-122.9h26.9z"/>
					<path id="&lt;Path&gt;" class="s5" d="m1215.9 1175.4h-21.2v-122.9h21.2z"/>
					<path id="&lt;Path&gt;" class="s6" d="m1242.8 1175.4h-26.9v-133h26.9z"/>
					<path id="&lt;Path&gt;" class="s4" d="m1269.7 1175.4h-26.9v-126.7h26.9z"/>
					<path id="&lt;Path&gt;" class="s1" d="m1296.5 1175.4h-26.8v-107.3h26.8z"/>
					<path id="&lt;Path&gt;" class="s3" d="m1323.4 1175.4h-26.9v-113h26.9z"/>
					<path id="&lt;Path&gt;" class="s2" d="m1354.6 1175.4h-26.9v-113h26.9z"/>
					<path id="&lt;Path&gt;" class="s7" d="m1386.5 1175.4h-26.9v-122.9h26.9z"/>
					<path id="&lt;Path&gt;" class="s7" d="m1708.1 1000.6h-26.9v-122.9h26.9z"/>
					<path id="&lt;Path&gt;" class="s7" d="m1737.4 1000.6h-26.9v-122.9h26.9z"/>
					<path id="&lt;Path&gt;" class="s7" d="m1041.1 825.8h-26.8v-122.9h26.8z"/>
					<path id="&lt;Path&gt;" class="s2" d="m1772.1 1175.9h-124.8v-22.2h124.8z"/>
					<path id="&lt;Path&gt;" class="s4" d="m1787.3 1153.7h-124.7v-15.2h124.7z"/>
					<path id="&lt;Path&gt;" class="s2" d="m1775 1138.5h-119.5v-15.3h119.5z"/>
					<path id="&lt;Path&gt;" class="s1" d="m1777.9 1123.2h-108v-11.7h108z"/>
					<path id="&lt;Path&gt;" class="s4" d="m1791.4 1111.5h-124.7v-15.2h124.7z"/>
					<path id="&lt;Path&gt;" class="s2" d="m1779.1 1096.3h-119.5v-15.3h119.5z"/>
					<path id="&lt;Path&gt;" class="s1" d="m1782 1081h-108v-11.7h108z"/>
					<path id="&lt;Path&gt;" class="s5" d="m1604.1 1175.4h-21.3v-128.5h21.3z"/>
					<path id="&lt;Path&gt;" class="s5" d="m1539.7 1175.4h-21.3v-122.8h21.3z"/>
					<path id="&lt;Path&gt;" class="s6" d="m1514 1175.4h-26.9v-133h26.9z"/>
					<path id="&lt;Path&gt;" class="s4" d="m1643.4 1175.4l-26.4-4.6 24.7-141.6 26.5 4.6z"/>
					<path id="&lt;Path&gt;" class="s1" d="m1478.8 1175.4h-26.8v-107.2h26.8z"/>
					<path id="&lt;Path&gt;" class="s2" d="m1448.2 1175.4h-26.9v-113h26.9z"/>
					<path id="&lt;Path&gt;" class="s6" d="m1165.5 1175.4h-26.9v-133h26.9z"/>
					<path id="&lt;Path&gt;" class="s1" d="m1130.3 1175.4h-26.8v-107.2h26.8z"/>
					<path id="&lt;Path&gt;" class="s2" d="m1099.7 1175.4h-26.8v-113h26.8z"/>
					<path id="&lt;Path&gt;" class="s6" d="m1057.9 1175.4h-26.9v-133h26.9z"/>
					<path id="&lt;Path&gt;" class="s1" d="m1022.7 1175.4h-26.9v-107.2h26.9z"/>
					<path id="&lt;Path&gt;" class="s2" d="m992.1 1175.4h-26.9v-113h26.9z"/>
					<path id="&lt;Path&gt;" class="s7" d="m1569.3 1175.4h-26.9v-122.8h26.9z"/>
				</g>
			</g>
			<g id="&lt;Group&gt;">
				<path id="&lt;Path&gt;" class="s8" d="m2234.8 798.1h-157.8c-7.2 0-13.1-6-13.1-13.2v-152.3c0-7.2 5.9-13.1 13.1-13.1h157.8c7.2 0 13.2 5.9 13.2 13.1v152.3c0 7.2-6 13.2-13.2 13.2z"/>
				<path id="&lt;Path&gt;" class="s9" d="m2228 790.3h-144.1c-6.6 0-12-5.4-12-12v-139.1c0-6.6 5.4-12 12-12h144.1c6.6 0 12 5.4 12 12v139.1c0 6.6-5.4 12-12 12z"/>
				<g id="&lt;Group&gt;">
					<g id="&lt;Group&gt;">
						<path id="&lt;Path&gt;" class="s0" d="m2152.1 643.5c0-2.1 1.7-3.8 3.8-3.8 2.1 0 3.8 1.7 3.8 3.8 0 2.1-1.7 3.8-3.8 3.8-2.1 0-3.8-1.7-3.8-3.8z"/>
						<path id="&lt;Path&gt;" class="s0" d="m2182.9 648.9c1-1.8 3.3-2.5 5.2-1.5 1.8 1 2.5 3.4 1.4 5.2-1 1.8-3.3 2.5-5.1 1.5-1.9-1-2.5-3.4-1.5-5.2z"/>
						<path id="&lt;Path&gt;" class="s0" d="m2209.2 669.8c1.8-1.1 4.2-0.6 5.3 1.2 1.2 1.7 0.6 4.1-1.1 5.2-1.8 1.2-4.2 0.7-5.3-1.1-1.1-1.8-0.6-4.1 1.1-5.3z"/>
						<path id="&lt;Path&gt;" class="s0" d="m2222.3 702.3c2.1 0 3.8 1.7 3.8 3.8 0 2.1-1.7 3.8-3.8 3.8-2.1 0-3.8-1.7-3.8-3.8 0-2.1 1.7-3.8 3.8-3.8z"/>
						<path id="&lt;Path&gt;" class="s0" d="m2215.6 739.9c1.5 1.5 1.5 3.9 0 5.4-1.5 1.5-3.9 1.5-5.4 0-1.5-1.5-1.5-3.9 0-5.4 1.5-1.5 3.9-1.5 5.4 0z"/>
						<path id="&lt;Path&gt;" class="s0" d="m2191.7 763.9c1.5 1.5 1.5 3.9 0 5.4-1.5 1.5-3.9 1.5-5.4 0-1.5-1.5-1.5-3.9 0-5.4 1.5-1.5 3.9-1.5 5.4 0z"/>
						<path id="&lt;Path&gt;" class="s0" d="m2152.1 776.3c0-2.2 1.7-3.9 3.8-3.9 2.1 0 3.8 1.7 3.8 3.9 0 2.1-1.7 3.8-3.8 3.8-2.1 0-3.8-1.7-3.8-3.8z"/>
					</g>
					<g id="&lt;Group&gt;">
						<path id="&lt;Path&gt;" class="s0" d="m2128.8 648.9c-1-1.8-3.3-2.5-5.1-1.5-1.9 1-2.5 3.4-1.5 5.2 1 1.8 3.3 2.5 5.2 1.5 1.8-1 2.5-3.4 1.4-5.2z"/>
						<path id="&lt;Path&gt;" class="s0" d="m2102.5 669.8c-1.8-1.1-4.1-0.6-5.3 1.2-1.1 1.7-0.6 4.1 1.1 5.2 1.8 1.2 4.2 0.7 5.3-1.1 1.2-1.8 0.7-4.1-1.1-5.3z"/>
						<path id="&lt;Path&gt;" class="s0" d="m2089.4 702.3c-2.1 0-3.8 1.7-3.8 3.8 0 2.1 1.7 3.8 3.8 3.8 2.1 0 3.8-1.7 3.8-3.8 0-2.1-1.7-3.8-3.8-3.8z"/>
						<path id="&lt;Path&gt;" class="s0" d="m2096.1 739.9c-1.5 1.5-1.5 3.9 0 5.4 1.5 1.5 3.9 1.5 5.4 0 1.5-1.5 1.5-3.9 0-5.4-1.5-1.5-3.9-1.5-5.4 0z"/>
						<path id="&lt;Path&gt;" class="s0" d="m2120 763.9c-1.5 1.5-1.5 3.9 0 5.4 1.5 1.5 3.9 1.5 5.4 0 1.5-1.5 1.5-3.9 0-5.4-1.5-1.5-3.9-1.5-5.4 0z"/>
					</g>
				</g>
				<g id="&lt;Group&gt;">
					<path id="&lt;Path&gt;" class="s0" d="m2154.9 706.1c0-2.1 1.7-3.8 3.8-3.8 2.1 0 3.8 1.7 3.8 3.8 0 2.1-1.7 3.8-3.8 3.8-2.1 0-3.8-1.7-3.8-3.8z"/>
					<g id="&lt;Group&gt;">
						<path id="&lt;Path&gt;" class="s0" d="m2159.2 706.1h-1v-47.7h1z"/>
					</g>
					<g id="&lt;Group&gt;">
						<path id="&lt;Path&gt;" class="s0" d="m2159.2 707.2l-1.9-2.4 25.2-19.9 1.9 2.5z"/>
					</g>
				</g>
			</g>
			<g id="&lt;Group&gt;">
				<path id="&lt;Path&gt;" class="s9" d="m2439 1644c0 0 174.4-165.9 223.4-127.3 48.9 38.6-223.4 127.3-223.4 127.3z"/>
				<path id="&lt;Path&gt;" class="s9" d="m2426.4 1675.9c0 0 324.5-145.2 401.3-68.4 76.8 76.8-89 67.3-150.5 58.7-61.4-8.6-250.8 9.7-250.8 9.7z"/>
				<path id="&lt;Path&gt;" class="s9" d="m2412.8 1640.4c0 0 1.5-8.2 3.6-20.1 4-23.4 10.2-61.1 11.3-80.8 1.6-29.7 25.5-50.8 51.8-20.6 26.2 30.3-56.6 113.3-56.6 113.3z"/>
			</g>
			<path id="&lt;Path&gt;" class="s9" d="m2504.8 1072.3c-23.7-62.1-129.5-31.3-129.5-31.3 0 0-61.9 119.2-83 124-21 4.8 33.1-112.2 33.1-112.2-41.7 0.1-141.7 61.3-141.7 61.3 0 0 19.8 129.8-1.8 129.3-21.5-0.6-11.7-115.8-11.7-115.8-38.7 16-71.2 66.3-71.2 66.3-39 80.6 66.5 126.4 66.5 126.4 0 0 5.9 45.1-16.9 99.9 0 0-5.3 10.2-10.1 27.1l10.9-1.1q0.9-4.5 2.1-8.7 0-0.1 0-0.1 0.1 0 0.1-0.1c0.6-1.8 1.4-4.3 2.4-7.3q0 0 0 0 0 0 0 0c2.7-6.9 4.5-11.9 5.5-15.5q0-0.1 0-0.1c7.9-21.4 19.6-49.5 28.6-56 0 0-1.3-1.6-2.8-4.8q1.4 2.3 2.8 4.8c22.7 38 116.5 35.3 167.4 19.4 50.8-15.9 26.7-28.2-3.7-49.2-30.3-20.9-88.2-8.8-106.5-16.3-18.2-7.6 6.1-19.5 41-20.3 34.9-0.8 55.7 32 112.1 31.7 56.4-0.3 88.4-109.7 88.4-109.7-37.3 15.8-108.7 1.5-112.7-11.5-4-13.1 98.6-22.1 114.2-27.7 15.5-5.6 40.3-40.3 16.5-102.5z"/>
			<path id="&lt;Path&gt;" class="s9" d="m799.7 1621.1c-48.8-59.8 43.3-148.5 43.3-148.5 0 0 155.7 6.4 172.6-12 17-18.4-132-31.5-132-31.5 24.2-41.8 143.5-107.3 143.5-107.3 0 0 119.2 94.8 131.1 72.8 12-22-109.8-78.5-109.8-78.5 38.4-29.8 107.9-33.5 107.9-33.5 103.6 7.2 88.9 139.9 88.9 139.9 0 0 42 31.9 110.2 40.6 0 0 13.4 0.5 33.2 5.5l-7.4 10.3q-5-1.7-10-2.9 0 0-0.1 0 0 0-0.1 0c-2.1-0.5-5.1-1.1-8.8-1.8q0 0 0 0 0 0 0 0c-8.4-1.3-14.5-2.4-18.8-3.4q0 0 0 0c-26.2-4.4-61.2-8.9-73-3.6 0 0-0.8-2.3-3.1-5.6q1.5 2.7 3.1 5.6c25.3 44.8-31.6 137.7-76.9 179.7-45.3 42-43.9 10.6-47.5-32-3.5-42.6 42.1-93.9 45-116.7 2.9-22.7-23.1-5-44 29.6-21 34.6 0.1 74.5-32.8 131.2-32.8 56.6-161.5 25.7-161.5 25.7 37.6-28.5 64.3-108.6 53.5-120.2-10.8-11.5-79.1 86.6-93.7 99-14.6 12.5-63.9 17.3-112.8-42.4z"/>
			<g id="&lt;Group&gt;">
				<path id="&lt;Path&gt;" class="s10" d="m1702 1601h-494.7v-242h496.6c46 0 83.2 37.2 83.2 83.2v73.7c0 47-38.1 85.1-85.1 85.1z"/>
				<path id="&lt;Path&gt;" class="s11" d="m2219.6 1458.6v36.4c0 19.4-3.9 37.7-10.7 53.3-13.6 31.5-38.8 52.7-67.7 52.7h-949.4c-6.3 0-11.4-6.9-11.4-15.4v-5.4c0-8.5 5.1-15.4 11.4-15.4h562.5c10.6 0 20.4-6.4 24.3-16.3q0-0.1 0-0.2c5.5-13.8 8.5-29.5 8.5-46.3v-46.3c0-8.5-0.8-16.7-2.3-24.6q-0.1-0.2-0.1-0.4c-4.1-20.7-22.5-35.5-43.6-35.5h-549.3c-6.3 0-11.4-6.9-11.4-15.4v-5.5c0-8.5 5.1-15.3 11.4-15.3h954.1c33.7 0 62 30.4 70.8 72.1 1.9 8.7 2.9 17.9 2.9 27.5z"/>
				<path id="&lt;Path&gt;" class="s12" d="m1207.3 1480l70.3 4.1-70.3 2.4z"/>
				<path id="&lt;Path&gt;" class="s12" d="m1207.3 1518l167.3 4-167.3 2.5z"/>
			</g>
			<g id="&lt;Group&gt;">
				<path id="&lt;Path&gt;" class="s10" d="m1679.6 1164.3h-408.8v-204h410.4c38.4 0 69.5 31.2 69.5 69.5v63.5c0 39.2-31.8 71-71.1 71z"/>
				<path id="&lt;Path&gt;" class="s7" d="m2108.7 1044.3v30.7c0 16.4-3.2 31.7-8.8 44.9-11.3 26.6-32.2 44.4-56.1 44.4h-785.9c-5.2 0-9.4-5.8-9.4-12.9v-4.6c0-7.2 4.2-13 9.4-13h479.1q3.8-6.4 6.7-13.9c4.5-11.6 7-24.9 7-39v-39c0-7.2-0.7-14.1-1.9-20.8-2.2-11.2-6-21.5-11.1-30.3h-479.8c-5.2 0-9.4-5.8-9.4-12.9v-4.6c0-7.2 4.2-13 9.4-13h789.8c27.9 0 51.3 25.7 58.6 60.8 1.6 7.4 2.4 15.1 2.4 23.2z"/>
				<path id="&lt;Path&gt;" class="s12" d="m1270.8 1062.3l58.2 3.5-58.2 2z"/>
				<path id="&lt;Path&gt;" class="s12" d="m1270.8 1094.3l138.4 3.5-138.4 2z"/>
			</g>
			<g id="&lt;Group&gt;">
				<g id="&lt;Group&gt;">
					<g id="&lt;Group&gt;">
						<path id="&lt;Path&gt;" class="s13" d="m1321.1 1759.3h564.1v-158.7h-568.9c-40.8 0-73.8 33-73.8 73.8v6.3c0 43.4 35.1 78.6 78.6 78.6z"/>
						<path id="&lt;Path&gt;" class="s10" d="m1855.7 1759.3h642.6v-158.7h-644.3c-41.5 0-75.1 33.6-75.1 75v6.9c0 42.4 34.4 76.8 76.8 76.8z"/>
						<path id="&lt;Path&gt;" class="s13" d="m1736.3 1759.3h783.9c6.3 0 11.4-5.1 11.4-11.4v-1c0-6.3-5.1-11.4-11.4-11.4h-783.9c-6.3 0-11.4 5.1-11.4 11.4v1c0 6.3 5.1 11.4 11.4 11.4z"/>
						<path id="&lt;Path&gt;" class="s13" d="m1736.3 1624.3h783.9c6.3 0 11.4-5.1 11.4-11.4v-0.9c0-6.3-5.1-11.4-11.4-11.4h-783.9c-6.3 0-11.4 5.1-11.4 11.4v0.9c0 6.3 5.1 11.4 11.4 11.4z"/>
					</g>
					<path id="&lt;Path&gt;" class="s12" d="m2498.3 1679.9l-87.2 2.7 87.2 1.6z"/>
					<path id="&lt;Path&gt;" class="s12" d="m2498.3 1643.4l-207.5 2.7 207.5 1.6z"/>
				</g>
				<g id="&lt;Group&gt;">
					<path id="&lt;Path&gt;" class="s14" d="m2292.9 1645.6c0 0 8.9 6.8 11.9 18 0.5 1.9 0.8 4 0.9 6.2 0.5 14.9 0 48.6 0 48.6l26.2-16.8 26.2 16.8v-45.6c0-8.7-2.2-17.1-6.4-22.6-2-2.6-4.5-4.6-7.2-4.6z"/>
					<path id="&lt;Path&gt;" class="s15" d="m2292.9 1645.6c0 0 8.9 6.8 11.9 18l52.6 0.6c0 0-2.1-16-12.9-18.6z"/>
				</g>
			</g>
			<g id="&lt;Group&gt;">
				<path id="&lt;Path&gt;" class="s10" d="m1687.7 1359h636.2v-194.7h-638.1c-46 0-83.2 37.3-83.2 83.3v26.2c0 47 38.1 85.2 85.1 85.2z"/>
				<path id="&lt;Path&gt;" class="s16" d="m1602.2 1239.8v41.9c0 6.5 1.6 12.6 4.4 18.2 5 10 13.9 18.2 25 23.6 8.6 4 18.5 6.3 29.1 6.3h682.2c8 0 14.5 5.5 14.5 12.1v5c0 6.6-6.5 12.1-14.5 12.1h-1178.6c-33.8 0-63.6-14.1-81.7-35.5-11.4-13.6-18.1-30.1-18.1-47.9v-33c0-12.2 3.4-23.8 9.3-34.1 15.2-26.1 47.3-44.2 84.4-44.2h1184.7c8 0 14.5 5.4 14.5 12.1v4.9c0 6.7-6.5 12.1-14.5 12.1h-684.3c-16.4 0-31.2 5.9-41.5 15.1-4.5 4.1-8.1 8.8-10.7 13.9-2.7 5.4-4.2 11.3-4.2 17.4z"/>
				<path id="&lt;Path&gt;" class="s12" d="m2323.9 1261.6l-87.4 3.3 87.4 2z"/>
				<path id="&lt;Path&gt;" class="s12" d="m2323.9 1216.8l-208 3.3 208 2z"/>
				<g id="&lt;Group&gt;">
					<path id="&lt;Path&gt;" class="s17" d="m2118 1219.5c0 0 13.7 6.1 18.3 16.3 0.8 1.8 1.3 3.7 1.4 5.7 0.8 13.4 0 43.9 0 43.9l40.5-15.2 40.5 15.2v-41.3c0-7.8-3.5-15.4-9.9-20.4-3.2-2.4-6.9-4.2-11.2-4.2z"/>
					<path id="&lt;Path&gt;" class="s18" d="m2118 1219.5c0 0 13.7 6.1 18.3 16.3l81.2 0.6c0 0-3.2-14.5-19.9-16.9z"/>
				</g>
			</g>
			<path id="&lt;Path&gt;" class="s19" d="m3083.6 1762.8v1.2c0 1.9-1.5 3.5-3.3 3.5h-2885.1c-1.8 0-3.2-1.6-3.2-3.5v-1.2c0-2 1.4-3.5 3.2-3.5h2885.1c1.8 0 3.3 1.5 3.3 3.5z"/>
			<g id="&lt;Group&gt;">
				<path id="&lt;Path&gt;" class="s20" d="m1531.5 681.7c0 0 14.7 21.9 23.2 67.8 7.3 40.2 13.8 55.1 24.4 63.3 10.7 8.3 70 32.6 70 32.6l-4.4 10.4c0 0-87-11.8-96.7-26.4-9.8-14.5-47.1-100.4-44.2-120.2 2.9-19.7 27.7-27.5 27.7-27.5z"/>
				<g id="&lt;Group&gt;">
					<path id="&lt;Path&gt;" class="s21" d="m1744.4 1161.5c-0.7 8.5 11.1 10.6 24.8 11.2 13.6 0.7 9.5 3.5 28.2 6.9 18.8 3.4 26.3-1.7 27.6-4.3 1.3-2.2-7.5-5.7-16.7-9.7q-1.8-0.7-3.6-1.5c-10.4-4.6-16.3-14-24.4-22.7-7.7-8.2-15.1-34.6-15.1-34.6l-25.4-5.4c0 0 7.1 23.7 9.6 33.9 1.5 5.9-0.7 12.6-2.6 17.6-1 2.8-2.1 5.6-2.4 8.6z"/>
					<path id="&lt;Path&gt;" class="s22" d="m1769.2 1172.7c13.6 0.7 9.5 3.5 28.2 6.9 18.8 3.4 26.3-1.7 27.6-4.3 1.3-2.2-7.5-5.7-16.7-9.7l-0.2 0.2c0 0-13.2 4.4-28.4 0.3-12.4-3.4-24.4-10.8-32.9-13.2-1 2.8-2.1 5.6-2.4 8.6-0.7 8.5 11.1 10.6 24.8 11.2z"/>
				</g>
				<path id="&lt;Path&gt;" class="s23" d="m1490.8 859.5c0 0 169.3-12.8 201.1 7.3 31.9 20.2 83 254.4 83 254.4 0 0-3.2 2.5-10.2 3.3-6.6 0.7-21-3.2-21-3.2 0 0-73.4-104.8-78.6-131.2-5.2-26.4-3.9-49.9-15.7-50.6-11.8-0.6-158.6 17.9-180.8-21.2-22.2-39.2-3.9-77.9-3.9-77.9z"/>
				<g id="&lt;Group&gt;">
					<path id="&lt;Path&gt;" class="s21" d="m1679.7 1188.7c-0.8 8.5 11 10.5 24.7 11.2 13.7 0.7 9.5 3.5 28.3 6.9 18.7 3.4 26.2-1.7 27.6-4.3 1.2-2.2-7.5-5.7-16.8-9.7q-1.8-0.7-3.5-1.5c-10.5-4.6-16.3-14-24.5-22.7-7.7-8.2-15-34.6-15-34.6l-25.5-5.4c0 0 7.2 23.7 9.6 33.8 1.5 6-0.7 12.7-2.6 17.7-1 2.8-2 5.6-2.3 8.6z"/>
					<path id="&lt;Path&gt;" class="s22" d="m1704.4 1199.9c13.7 0.7 9.5 3.5 28.3 6.9 18.7 3.4 26.2-1.7 27.6-4.3 1.2-2.2-7.5-5.7-16.8-9.7l-0.2 0.2c0 0-13.1 4.4-28.3 0.3-12.4-3.4-24.4-10.8-33-13.2-1 2.8-2 5.6-2.3 8.6-0.8 8.5 11 10.5 24.7 11.2z"/>
				</g>
				<path id="&lt;Path&gt;" class="s24" d="m1457.7 870c0 0 150.3 7.1 181.4 28.4 31 21.4 73 257.4 73 257.4 0 0-3.3 2.4-10.3 2.9-6.6 0.4-20.9-4-20.9-4 0 0-69.3-107.6-73.4-134.1-4.2-26.6-2-50.1-13.7-51.2-11.8-1.1-159.2 11.7-179.9-28.3-20.7-40 43.8-71.1 43.8-71.1z"/>
				<path id="&lt;Compound Path&gt;" class="s25" d="m1525 547.1c-5.8-5.5-13.7-8-19.5-9.1 1.9-1.2 4.9-1 4.9-1-3.4-1.4-12.1 0.1-12.1 0.1-43.9-31.3-69.9 38.4-73.1 55.4-3.3 16.9-9.2 41.1-29.9 62-53 53.8 22.7 116 22.7 116 0.3 0.4 38-80.3 75.9-93.3 10.8-9.5 18.9-29.3 19.5-30.9-5.5 15.9-10.6 24.3-14.4 28.8 33.9-18.2 41.2-113.3 26-128z"/>
				<path id="&lt;Path&gt;" class="s21" d="m1451.3 656.6c0 0 14-1.4 28 0 9.6 0.9 19 3.8 24.3 6.1 13.3 5.5 11.9 29-15.9 24.6-27.8-4.3-38.3-23.8-36.4-30.7z"/>
				<path id="&lt;Path&gt;" class="s21" d="m1502.5 673.7c0.1 0.1 3.9 20.2-14.3 19.4-11.9-0.6-37.7-15-35.4-25.3 1.1-4.8 10.1-17.5 11.9-46.3l2.2 0.6 36.6 9.8c0 0-1.7 11.6-2.4 22.6-0.7 9.3-0.7 18.1 1.4 19.2z"/>
				<path id="&lt;Path&gt;" class="s20" d="m1503.5 631.9c0 0-1.7 11.6-2.4 22.6-20.7-1.9-30.4-21.6-34.2-32.4z"/>
				<path id="&lt;Path&gt;" class="s25" d="m1463.4 615.7c0 0-6.2-19.4-5.1-34.3 0.8-10.6 15.7-47 52.2-31.9 0 0 10.7 4 19.3 13.6 6.8 7.7 15.6 22.7-6.1 52.2l-6.4 10.3z"/>
				<path id="&lt;Path&gt;" class="s21" d="m1504.4 648.8c0 0-47.8-11.5-40.2-41.1 7.6-29.7 6.5-51.2 37.4-45.2 30.8 6.1 33.8 18.9 33.7 29.5-0.1 10.5-18.2 59-30.9 56.8z"/>
				<path id="&lt;Path&gt;" class="s25" d="m1523.4 567.4c0 0-21.9 31.5-43.3 31.5-21.3 0-28.6-7.6-28.6-7.6 0 0 18.5-8.3 27.1-28.7 0 0 39.3-14.3 44.8 4.8z"/>
				<path id="&lt;Path&gt;" class="s25" d="m1519.5 569.4c0 0 7.7 10.3 8.2 18.4 0.4 8.2-2.5 24 2.2 24.7 0 0 15.9-21.2 8.2-37.4-8-17.2-18.6-5.7-18.6-5.7z"/>
				<path id="&lt;Path&gt;" class="s26" d="m1558.9 862c-4 4.8-16.4 6.2-29.7 8.4-10.4 1.8-21.4 3.9-29.2 8.5-17.7 10.4-75.6 45.5-92.5 43.9-6.6-0.6-5.4-13.1-1.4-29.8 6.3-26.3 19.4-62.8 19.4-78.7 0-8.7 2.9-29.2 6.7-52.6q0.5-2.9 1-5.8c7.6-45.6 18.1-99.3 18.1-99.3 0 0 11.8 25.6 34.7 25.6 23 0 17.6-19.5 17.6-19.5 0 0 21 2.4 25.9 7.8 5 5.3 17.5 28.3 20 34.6 0 0 0.5 8-19.3 11.8 0 0 4.8 21.6 5.4 36.1 0.4 10.7-7.3 44.1-9.5 64.9-0.8 7.3-0.9 13.1 0.3 15.7 1.5 3.4 6.5 6.7 12.1 10 11.2 6.5 25.1 12.8 20.4 18.4z"/>
				<path id="&lt;Path&gt;" class="s27" d="m1538.5 843.6c12.7 21.6-34.4 28.2-42.2 32.7-17.7 10.4-71.9 48.1-88.8 46.5-6.6-0.6-5.4-13.1-1.4-29.8 6.3-26.3 19.4-62.8 19.4-78.7 0-8.7 2.9-29.2 6.7-52.6l20.4-19.6c0 0 21.9 56.5 42.8 65.8 10.9 4.8 22.3 8 30.7 10-0.8 7.3-0.9 13.1 0.3 15.7 1.5 3.4 6.5 6.7 12.1 10z"/>
				<path id="&lt;Path&gt;" class="s21" d="m1445.1 673.5c0 0-17.5-10.6-34.4 9.5-16.8 20.1 12 163.9 37 171.3 27.8 8.2 111.2 7.7 111.2 7.7l-3.5-10.1c0 0-86.6-27.9-90.2-32.4-3.5-4.6-11.3-143.7-20.1-146z"/>
				<path id="&lt;Path&gt;" class="s26" d="m1451.3 656.6c0 0-35.8 3.2-46.2 15-10.4 11.8-13.5 43.7-13.5 43.7 0 0 31.6 25.5 69.6 15.6z"/>
				<g id="&lt;Group&gt;">
					<path id="&lt;Path&gt;" class="s25" d="m1673.9 810.3l3.4-31.4-44.5 58.6c0 0 18.6 9.2 19.7 7.5 1.1-1.8 21.4-34.7 21.4-34.7z"/>
					<path id="&lt;Path&gt;" class="s26" d="m1607.3 810.3l-41.1 62.7h69l38.7-62.7z"/>
					<path id="&lt;Path&gt;" class="s28" d="m1673.9 810.3l3.2-31.1-23.3 29z"/>
					<path id="&lt;Path&gt;" class="s28" d="m1568.3 869.8l-3.1-2.2 40.8-60.7 1.3 3.4z"/>
					<path id="&lt;Path&gt;" class="s10" d="m1606 806.9l65 1.8 2.9 1.6h-66.6z"/>
				</g>
				<path id="&lt;Path&gt;" class="s29" d="m1592.4 860.6c-1.2-0.2-2.9-0.2-4.4-0.1 5-2.3 10-4.8 10-4.8 0 0-2.3-2.3-10.8 0.8-0.9 0.3-1.9 0.4-2.9 0.3l12-5.4c-2.1-1.9-7.9-0.4-12.3 1.3-3.2 1.1-6.8 0.6-9.4-1.5q-0.1 0-0.2-0.1 0.3 0 0.6 0c7-1.1 8.8-5.1 6.8-4.6-1.9 0.5-13.6 1.3-13.6 1.3-5.3-0.3-15.8 3.7-15.8 3.7l5.9 10.9c0 0 16.8 3.1 21.2 1.7q0.6-0.1 1.3-0.4l15.3-1c0 0-0.3-1.7-3.7-2.1z"/>
			</g>
			<g id="girl 2 5 ">
				<path id="&lt;Path&gt;" class="s30" d="m2185 1283c0 0 88.4 38.5 104.4 37.8 16.1-0.7 115-30.1 115-30.1l-2.6 17c0 0-76.3 43.9-103 46.4-26.2 2.4-116.1-23.6-124.7-29.1-8.7-5.5-14.3-36.5 10.9-42z"/>
				<path id="&lt;Path&gt;" class="s23" d="m2171.7 1141.3c0 0-32.6-6.2-48.9 5.6-29.4 21.5-31 95.6-42 106.6-11.1 11.1-37.6 6.4-40 63.5-2.4 57.1 10.6 61.8-4.8 87.3-15.5 25.5 6.5 51 6.5 51 0 0-9-14-5.2-24.2 0 0 3.8 22.4 18 27.7 14.3 5.2 16.4 9.1 18.6 16.8 0 0 121.5-62.3 121.7-106.4 0.1-44.2 23.9-87.9 12.2-107 0 0 5.2 8.1 5.8 17.3 0 0 7-13.5-5.1-26-12.1-12.5 14.2-38.3 10.3-68.3-2.6-20.5-17.1-43-47.1-43.9z"/>
				<path id="&lt;Path&gt;" class="s21" d="m2195.7 1325c-7.8 5.4-17.5 9.9-29.7 12.7-45.8 10.6-63.4-28.2-70-54.7 6.3-3.6 12.1-4.4 15.5-4.8 3.3-0.4 6.8-0.7 9.7-0.8 5.1-3.9 12.8-20.1 14.5-45.1l2.2 0.6 36.1 9.9c0 0-1.7 11.4-2.5 22.3-0.6 8.5-0.7 16.6 0.9 18.6 2.8 0.6 4.5 1 4.5 1q0 0 0 0c0.5 0.8 11 18 18.8 40.3z"/>
				<path id="&lt;Path&gt;" class="s30" d="m2174 1242.8c0 0-1.7 11.4-2.5 22.3-20.4-2.1-29.9-21.5-33.6-32.2z"/>
				<path id="&lt;Path&gt;" class="s21" d="m2180.1 1253.5c0 0-48.6-2.6-46.4-32.9 2.1-30.2-2.7-50.9 28.4-50.4 31.1 0.4 36.3 12.4 38 22.6 1.7 10.3-7.3 60.7-20 60.7z"/>
				<path id="&lt;Path&gt;" class="s23" d="m2199.9 1175.9c-6.9-9.6-12.7-8-16.1-5.5-25.4-16.5-44.1 3.8-44.1 3.8-4.8 21.5-21.3 32.8-21.3 32.8 0 0 8.5 6.1 29.2 2.3 6.4-1.2 12.2-5.2 17.3-10.2-9.2 13.2-21.1 22.4-21.1 22.4 25.1-9.5 37.3-42.7 38.6-46.2 2.7 2.9 8.1 9.1 9.5 14.8 1.9 7.9 9.9 20.2 14.6 20 0 0 3.6-19.8-6.6-34.2z"/>
				<path id="&lt;Path&gt;" class="s24" d="m2082.2 1423.8c-4.4-22.5-18.7-112-4.4-140.8 5.1-10.4 25.3-11.3 47.4-10.4 6.9 4.4 33.1 21.2 43.8 19.1q0.2 0 0.6-0.1c5.1-1.3 7-4.9 2.8-7.9 0 0 10.9-1.1 24.5 1.5 7.7 1.4 28.4 12.1 28.4 12.1 0 0-10.4 18.9-25.8 25.4 2.6 23.4-1.3 33.7-25.5 87.7-20.5 45.7 2.7 86.9 2.7 86.9 0 0-120.7 97-121.4 47.6-0.5-37.2 32.5-92.5 26.9-121.1z"/>
				<path id="&lt;Path&gt;" class="s23" d="m2182.7 1602.8c6.6-0.7 12.5-4.3 16.2-9.8q0.9-1.3 1.8-2.8c13.8-20.8 19.1-84.6 50-152.4 7.6-16.6 34.6-19.5 42-38.2 0 0 18.1-60.6-34.7-62.3-52.9-1.8-141.6 168.4-143 186.3-1.4 17.3-35 90.8 67.7 79.2z"/>
				<path id="&lt;Path&gt;" class="s23" d="m2392.8 1601.4h-75.2c0 0-2.8-12 2.1-20.1 4.4-7.3 2.7-11.4-0.5-17.4 3.4 1.4 7.8 2.7 12.6 2.4 3.8-0.2 7.8-1.9 11.2-3.9 3.3 3.7 17.1 19.4 21.5 22.5 4.9 3.5 26.8 2.3 28.3 16.5z"/>
				<path id="&lt;Path&gt;" class="s23" d="m2090.1 1306.4c0 0-9.8 89.1 53.7 107.8 63.5 18.7 81.6-82 30.3-89.2-51.3-7.3-84-18.6-84-18.6z"/>
				<path id="&lt;Path&gt;" class="s23" d="m2294.4 1354.8c4.5 33.9 22.2 141.1 53.4 193.4 10.1 16.9-25.3 26.3-25.5 26.3-4.8-1.3-12.7-8.8-16.3-12.1-25.4-22.8-76.8-87.5-76.8-139.3 0-25.3-0.4-73.6 17.9-85.9 11.4-7.5 45.5 4.1 47.3 17.6z"/>
				<path id="&lt;Path&gt;" class="s24" d="m2137.9 1601.4c0 0 2.8-3.9 7.6-11.2 5.8-8.8 12.2-26 20-48.1 8.1-23.3 17.8-51.8 29.9-81.5 3.7-9.2 7.7-18.5 11.9-27.7 7.6-16.6 28.3-14.3 35.6-33 0 0 28.8-64.7-24.1-66.5-52.8-1.8-153.3 173.2-159 190.2-6.4 18.5-37.2 95.6 78.1 77.8z"/>
				<path id="&lt;Path&gt;" class="s13" d="m2337.6 1601.4h-75.2c0 0-2.9-12 2.1-20.1 4.4-7.3 2.7-11.4-0.6-17.4 3.5 1.4 7.9 2.7 12.7 2.4 3.8-0.2 7.7-1.9 11.2-3.9 3.2 3.7 17.1 19.4 21.4 22.5 5 3.5 26.9 2.3 28.4 16.5z"/>
				<path id="&lt;Path&gt;" class="s23" d="m2165.5 1542.1c8.1-23.3 17.8-51.8 29.9-81.5-3.1-22.5-10-42.2-21.4-50.2 0 0-27.8 86.2-8.5 131.7z"/>
				<path id="&lt;Path&gt;" class="s24" d="m2250.5 1352.3c4.5 34 10.9 143.6 42.1 195.9 10.1 16.9-25.4 26.3-25.5 26.3-4.8-1.3-12.7-8.8-16.4-12.1-25.3-22.8-76.7-87.5-76.7-139.3 0-25.3 29.6-71.6 48-83.8 11.3-7.6 26.7-0.4 28.5 13z"/>
				<path id="&lt;Path&gt;" class="s31" d="m2189.2 1236.2c0 0-4.6-1.9-17.5-0.8 0 0 0.7 5 10.2 5.5 5.4 0.3 7.3-4.7 7.3-4.7z"/>
				<g id="&lt;Group&gt;">
					<g id="&lt;Group&gt;">
						<path id="&lt;Path&gt;" class="s25" d="m2413.8 1255.1l-15.6-28.2-33.7 94.2 19.9 21.4z"/>
						<path id="&lt;Path&gt;" class="s26" d="m2332.3 1271.6l-31.3 89.6 83.4-18.7 29.4-87.4z"/>
						<path id="&lt;Path&gt;" class="s28" d="m2302.6 1356.6l-1.4-2.5 29.7-84.8 1.4 2.3z"/>
						<path id="&lt;Path&gt;" class="s10" d="m2330.9 1269.3l79-15.4 3.9 1.2-81.5 16.5z"/>
					</g>
					<path id="&lt;Path&gt;" class="s28" d="m2413.8 1255.1l-16.9-26.8-10.7 30.2 23.7-4.6z"/>
				</g>
				<path id="&lt;Path&gt;" class="s21" d="m2356.4 1284.5c-2.7-0.5-8.5-2.7-14.4-4.3 1.8-1.4 3.7-3 4.3-4.8 1-3.3 1.7-4.4-1.8-3.3-3.5 1-15.7 6.7-15.7 6.7q0 0 0 0c-7 2-13.4 11.9-13.4 11.9 0 0-86.2 30.3-96.6 30.8-16 0.8-122.8-38.5-122.8-38.5-25.2 5.5-19.5 36.5-10.9 42 8.7 5.5 85.5 33.4 131.1 34 23 0.2 106.9-53.7 106.9-53.7 0 0 9.9-4.5 17.6-3.1 7.7 1.4 25.5 0 29.4-6.3 3.8-6.3-9.1-10.5-13.7-11.4z"/>
				<path id="&lt;Path&gt;" class="s11" d="m2151 1302.4c0 0-9.5 30.2-42.3 37.1 0 0-54.2-16.7-27.2-53.6 0 0 26.6-19.8 69.5 16.5z"/>
				<path id="&lt;Path&gt;" class="s21" d="m2412.4 1286.8q0-1.2-0.3-2.4c0 0-7.7-12.3-10.3-12.8-7.7-1.5-7.7 8.7-6 15.2 1.1 4.6 4 8.9 6.3 11.3l-0.3 9.6c13.1-7.2 10.6-20.9 10.6-20.9z"/>
			</g>
			<g id="&lt;Group&gt;">
				<path id="&lt;Path&gt;" class="s17" d="m1730 1435.7c0 0-13.7 8.4-18.3 22.2-0.8 2.4-1.3 5-1.4 7.7-0.8 18.3 0 59.8 0 59.8l-40.6-20.7-40.4 20.7v-56.2c0-10.6 3.5-21 9.9-27.7 3.1-3.3 6.9-5.8 11.2-5.8z"/>
				<path id="&lt;Path&gt;" class="s18" d="m1730 1435.7c0 0-13.7 8.4-18.3 22.2l-81.2 0.8c0 0 3.2-19.7 19.9-23z"/>
			</g>
			<g id="&lt;Group&gt;">
				<path id="&lt;Path&gt;" class="s24" d="m931.9 1167.6c0 0 8.6 37.3 33.7 37.3 21.6 0 51.1-48.6 51.1-48.6z"/>
				<path id="&lt;Path&gt;" class="s13" d="m1218.7 1722.8l-14.4 7.6c0 0-77.9-82.5-96.6-161.8-3.3-14.1-4.7-28.1-3.3-41.3 0 0-1.1-3.6-3.1-10q-0.1-0.4-0.2-0.8c-0.9-2.8-1.9-6.1-3.1-9.8-3.8-12-8.9-28.3-14.8-47-13.6-42.9-44.6-139.7-57.8-180l95.2-34.5c0 0 10.8 24.7 26.4 91.7 2.3 8.8 4.7 18.4 7 29 2.5 11.9 4.9 25 6.9 39.1 3.3 23.9 5.5 50.8 5.7 80.2 0 12-0.3 24.5-1 37.3-0.5 9.4 0.9 22 3.5 36.2 12 65.2 49.6 164.1 49.6 164.1z"/>
				<path id="&lt;Path&gt;" class="s23" d="m1270.8 1759.3h-76.9c0 0-2.9-12.3 2.1-20.7 4.5-7.4 2.8-11.6-0.5-17.7 3.5 1.4 8 2.7 12.9 2.5 3.9-0.3 7.9-2 11.5-4.1 3.3 3.8 17.5 19.9 21.9 23.1 5.1 3.6 27.5 2.3 29 16.9z"/>
				<path id="&lt;Path&gt;" class="s23" d="m1160.9 1405l-59.8 111.5c-0.9-2.8-1.9-6.1-3.1-9.8-3.8-12-8.9-28.3-14.8-47-13.6-42.9-44.6-139.7-57.8-180l95.2-34.5c0 0 10.8 24.7 26.4 91.7 2.3 8.8 4.7 18.4 7 29 2.5 11.9 4.9 25 6.9 39.1z"/>
				<path id="&lt;Path&gt;" class="s23" d="m1023.8 1735.2c0 0-5.3 13-0.3 24.1h41.9c0 0 0.9-10-14.3-21.5-11.5-8.7-27.3-2.6-27.3-2.6z"/>
				<path id="&lt;Path&gt;" class="s27" d="m1069.4 884c0-2.1 1.1-24.5 35.2-26.5 0 0-16.7 2.4-19.4 9.8 0 0 11.2-9.4 20.6-6.6 9.4 2.7 15.2 18.9 15.4 24.2 0.2 5.4-4.6 22.8-10.4 24.4-2.3 0.7-4.9 0.6-7.2 0.2 1.6 2.4 3.2 5.1 4.8 8.1 14.3 27.7 1.9 60.3-9.7 57.5-7.4-1.7-11.9 11.2-11.9 11.2l-71.7-61.7c0 0 25.1-55.3 54.3-40.6z"/>
				<path id="&lt;Path&gt;" class="s21" d="m1024.4 1071.3c7.9 5.5 17.9 10 30.4 12.9 46.8 10.8 64.8-28.8 71.6-56-6.4-3.6-12.4-4.4-15.9-4.8-3.4-0.4-7-0.7-9.9-0.9-5.3-4-13.1-20.5-14.9-46.1l-2.2 0.6-36.9 10.1c0 0 1.7 11.7 2.5 22.8 0.6 8.7 0.7 17-0.9 19.1-2.9 0.6-4.6 1-4.6 1q0 0 0 0c-0.5 0.8-11.2 18.5-19.2 41.3z"/>
				<path id="&lt;Path&gt;" class="s30" d="m1046.6 987.1c0 0 1.7 11.7 2.5 22.8 20.9-2.1 30.6-22 34.4-32.9z"/>
				<path id="&lt;Path&gt;" class="s21" d="m1046.1 1004.7c0 0 48.2-12.4 40.1-42.3-8.2-29.8-7.5-51.6-38.6-44.9-31.1 6.6-34 19.6-33.7 30.3 0.3 10.6 19.5 59.4 32.2 56.9z"/>
				<path id="&lt;Path&gt;" class="s27" d="m1010.8 930.8c5-11 11.1-10.6 15-8.8 22.2-21.6 45-4.9 45-4.9 9.1 20.5 27.9 28.6 27.9 28.6 0 0-7.2 7.8-28.8 8.1-6.6 0.1-13.3-2.7-19.4-6.7 11.9 11.4 25.7 18.2 25.7 18.2-27.1-4.5-46-35.4-47.9-38.6-2.3 3.4-6.5 10.7-6.7 16.8-0.3 8.2 2.9 24.2-1.8 24.9 0 0-16.4-21.1-9-37.6z"/>
				<path id="&lt;Path&gt;" class="s21" d="m1032.3 1027.5c0 0 80.9-19.6 116.1 9.4l-17.6 245.3-158.3-38.3c0 0 4.5-15.5 34.8-56.8 30.4-41.2 17.2-101.8 25-159.6z"/>
				<path id="&lt;Path&gt;" class="s13" d="m1079.5 1254.9c0 0-0.1 0.8-0.3 2.4q-0.1 1-0.3 2.4c-0.6 6.4-1.9 18.6-3.6 34.5-4.3 41.6-11.1 108.4-15.8 161.1-3.6 41.2-5.9 73.9-4.7 79.1 3.8 15.8 0 204.3 0 204.3-13.4 6.4-33.8 0-33.8 0 0 0-35.9-169.9-30.9-193.5 5.1-23.6-3.3-43.8-3.3-43.8-27.8-129.5-24.8-201.4-19.3-235.7 1.6-10 3.5-16.9 4.8-21 1.1-3.6 1.9-5.2 1.9-5.2 61.4-16.5 105.3 15.4 105.3 15.4z"/>
				<path id="&lt;Path&gt;" class="s24" d="m1159.3 1106.8c-3.9 29.5-19.5 65.7-25.1 85.1 0 0 9.3 67.5 0.4 86-1 2.1-2.2 3.6-3.8 4.3-33 14.3-161.5 0.4-166.9-41.1-2-15.1 48.9-68.1 51.9-74.5 1.2-2.6 2.5-11.3-3.4-29.1-8.5 26.1-55.2 18.6-55.2 18.6 5.5-9.4 19.1-74.3 34.4-103.6 11.4-22.1 42.1-25.2 42.1-25.2 0 0 12.7 20.2 43.5 17.3 30.8-2.9 36.5-21.7 36.5-21.7 0 0 27.3 3.6 35.7 10.4 1.5 1.2 15.1 34.9 9.9 73.5z"/>
				<path id="&lt;Path&gt;" class="s23" d="m1134.2 1191.9c0 0 9.3 67.5 0.4 86-24-12.1-55.4-38.1-45.8-78.8 13.8-59.2 70.5-92.3 70.5-92.3-3.9 29.5-19.5 65.7-25.1 85.1z"/>
				<g id="&lt;Group&gt;">
					<path id="&lt;Path&gt;" class="s26" d="m1033.8 1112.1l55.1 88.4h-93.7l-52.5-86.5z"/>
					<path id="&lt;Path&gt;" class="s28" d="m1086.1 1196.1l0.9-3.1-52.1-83.7-1.1 2.8z"/>
					<path id="&lt;Path&gt;" class="s10" d="m1034.9 1109.3l-88.4 2.5-3.8 2.2 91.1-1.9z"/>
					<path id="&lt;Path&gt;" class="s25" d="m942.7 1114l-49.6-26.8 57.8 90.7 44.3 22.6z"/>
				</g>
				<path id="&lt;Path&gt;" class="s21" d="m1204.9 1176c-5.3 2.4-18.9 18.4-23.8 20.1-21.8 7.3-114.9-12.2-114.9-12.2l2.9-16.3c0 0 91.3 2.4 101.4-0.2 1.8-0.6 11.7-16 15.5-18.2z"/>
				<path id="&lt;Path&gt;" class="s21" d="m1069.1 1167.6c0 0-11-8.9-18.5-6.9-7.4 2-18.4 11.4-22.4 13.6-4.1 2.3-15.2 10.2-9.6 15.1 5.6 4.8 23.1 0.6 30-3 6.9-3.7 17.6-2.5 17.6-2.5z"/>
				<path id="&lt;Path&gt;" class="s21" d="m1052.7 1160.4c0 0-13.4-1.6-17-1.5-3.7 0-2.7 0.8-0.7 3.7 2.1 2.8 9 3.9 9.3 4.9 0.4 1 8.4-7.1 8.4-7.1z"/>
				<path id="&lt;Path&gt;" class="s24" d="m1113.7 1022.9c0 0 39.7 4.7 50.6 21.7 13.8 21.5 46.4 107.3 45.4 128.9 0 0-23.9 40.5-105.6 34 0 0-8.5-30 8.7-39.9 0 0 42-7.5 46.8-11.8l-14-58.3z"/>
				<path id="&lt;Path&gt;" class="s21" d="m955.4 1146.3c-1.3-5-12.2-1.9-15.9 1-0.9 0.7-1.8 1.9-2.8 3.3-0.1-0.8-0.2-1.6-0.2-2.2-0.2-2.4-3-6.6-3.6-3.5-0.7 3.2-1.8 16.4-1.8 16.4-0.2 10.7 6.7 15.1 11.1 11.6 4.4-3.4 14.4-21.6 13.2-26.6z"/>
			</g>
		</g>
	</g>
</svg>