<svg version="1.2" xmlns="http://www.w3.org/2000/svg" viewBox="0 0 3000 2000" width="3000" height="2000">
	<title>Person looking through magnifying glass on question mark</title>
	<defs>
		<clipPath clipPathUnits="userSpaceOnUse" id="cp1">
			<path d="m2764.71 1382.05c-53.11 592.19-573.8 626.61-1114.45 426.15-194.18-71.97-469.41-76.67-763.61 42.62-269.07 109.14-691.37-10.65-650.1-255.69 62.74-372.45 310.6-268.99 144.15-637.71-121.35-268.84-56.36-650.99 312.8-567.12 276.86 62.9 395.25-60.7 437.14-126.44 29.01-45.53 67.42-85.31 113.83-115.45 350.41-227.52 539.81 206.53 733.26 100.08 364.27-200.45 730.56 3.69 544.18 330.82-155.35 272.68 273.2 463.77 242.8 802.74z"/>
		</clipPath>
	</defs>
	<style>
		.s0 { fill: #074530 } 
		.s1 { fill: #96ceda } 
		.s2 { fill: #53ceba } 
		.s3 { fill: #49b2a4 } 
		.s4 { fill: #fdbaa0 } 
		.s5 { fill: #e8a595 } 
		.s6 { fill: #e79780 } 
		.s7 { fill: #384955 } 
		.s8 { fill: #ffffff } 
		.s9 { fill: #8cdec1 } 
		.s10 { fill: #51c6d4 } 
		.s11 { fill: #ffd1c3 } 
		.s12 { fill: #63d5c2 } 
		.s13 { fill: #40a696 } 
		.s14 { fill: #188a63 } 
	</style>
	<g id="_Artboards_">
	</g>
	<g id="&lt;Layer&gt;">
		<g id="&lt;Clip Group&gt;" clip-path="url(#cp1)">
			<g id="&lt;Group&gt;">
				<path id="&lt;Path&gt;" class="s0" d="m2764.7 1382.1c-53.1 592.1-573.8 626.6-1114.4 426.1-194.2-72-469.4-76.7-763.6 42.6-269.1 109.2-691.4-10.6-650.1-255.7 62.7-372.4 310.5-269 144.1-637.7-121.4-268.8-56.4-651 312.8-567.1 276.9 62.9 395.3-60.7 437.1-126.4 29-45.6 67.5-85.4 113.9-115.5 350.4-227.5 539.8 206.5 733.2 100.1 364.3-200.5 730.6 3.7 544.2 330.8-155.3 272.7 273.2 463.8 242.8 802.8z"/>
			</g>
			<g id="&lt;Group&gt;" style="opacity: .7">
				<g id="&lt;Group&gt;">
					<path id="&lt;Path&gt;" class="s1" d="m1939.1 2020.2c104 58.9 237.5 88 337 28.6 29.1-17.4 54.7-43.2 62.8-76.1 8-32.9-5.9-73-37.2-88.3-27.2-13.2-62.5-7.1-85-27.2-15.8-14.1-19.9-37.4-16-57.6 4-20.1 14.5-38.1 24.2-56 12.6-23.4 23.9-47.4 33.9-72 11.8-29.2 21.8-61.6 12.1-92.2-9.8-30.6-47.6-54.7-75-39.1-13 7.3-20.4 21.2-31 31.6-10.6 10.4-28.7 17-40.4 7.1-4.6-3.9-7.3-9.6-9.2-15.2-15.2-43.3 1.2-90.8-9.4-135.3-5.2-22-16.8-42.1-29.1-61.4-55.4-86.8-136.3-167.2-237.5-184.1-19.8-3.3-40.6-3.9-58.8 3.6-34.5 14.2-50.9 55.3-47.1 92.8 3.7 37.4 23.4 71.9 44.3 103.8 21 32 44 63.5 55.7 99.6-29.9-2.2-59.4-12.4-84.6-29.4-13-8.8-26.2-19.8-41.7-20-24.6-0.4-40 29.1-34 53 6 23.9 26.1 42 46.4 56.7 54.1 39.2 120.9 70.3 148.2 130.7 3.6 8.1 6.4 17.9 1.8 25.3-3.1 5-9 7.7-14.8 9.3-29 7.9-60-3.9-90.3-6.7-7-0.7-14.2-0.8-20.7 1.7-25.5 10-18.8 47.7-6.3 72.8 46.8 94.4 103.5 178.8 201.7 244z"/>
				</g>
			</g>
			<g id="&lt;Group&gt;">
				<g id="&lt;Group&gt;">
					<g id="&lt;Group&gt;">
						<path id="&lt;Path&gt;" class="s2" d="m2055.5 2078.1c44.6-138 23.3-293.8-52.1-417.1-21.4-35-47.1-67-76.6-95.5-5.6-5.4-13.9 3.5-8.3 8.9 101.7 98.3 154.9 241.4 147.3 382.2-2.2 40.4-9.7 80.3-22.2 118.8-2.4 7.5 9.5 10.2 11.9 2.7z"/>
					</g>
				</g>
				<g id="&lt;Group&gt;">
					<g id="&lt;Group&gt;">
						<path id="&lt;Path&gt;" class="s2" d="m2076.9 1870.3c16.4-9.5 33.2-19.3 46.4-33.2 7.3-7.7 19.2-22 9.6-32.4-22.2-24.3-55.2 42.9-62.4 54.1-4.2 6.6 6.6 12.3 10.8 5.7q9.8-15.4 19.7-30.7c2.9-4.6 5.7-9.4 9.3-13.4 2.2-2.4 14.3-14.1 12.3-2-0.6 4.1-8.1 10.3-11 13.2-4.4 4.2-9.1 8-14.1 11.5-8.7 6.2-17.9 11.6-27.1 16.9-6.9 3.9-0.3 14.2 6.5 10.3z"/>
					</g>
				</g>
				<g id="&lt;Group&gt;">
					<g id="&lt;Group&gt;">
						<path id="&lt;Path&gt;" class="s2" d="m2063.4 1807.5c17.7-16.4 36.4-33.5 50.3-53.4 6.1-8.6 22.7-37.7 5.6-44-17.1-6.2-31.2 11.4-39 23.7-13 20-21.5 42.6-26 66-1.5 7.7 10.4 10.4 11.9 2.7 2.9-15.3 7.5-30 14.2-44 3.4-7.1 21.5-42.9 30.5-34.1 13.5 13.2-46.7 65.7-56.4 74.8-5.8 5.4 3.2 13.7 8.9 8.3z"/>
					</g>
				</g>
				<g id="&lt;Group&gt;">
					<g id="&lt;Group&gt;">
						<path id="&lt;Path&gt;" class="s2" d="m2037.7 1731.6c18.9-15.7 35.1-34.3 47.8-55.4 7.8-12.9 25.7-40.4 6.6-52.1-15.8-9.7-36.3 13.9-44.2 24.9-14.8 20.9-19.9 46.4-22.5 71.5-0.8 7.7 11 10.5 11.9 2.7 1.9-18.4 4.8-37.1 12.8-53.9 3.3-7 7.5-13.6 12.6-19.5 2.8-3.1 5.8-6 9.1-8.6q2.6-2.2 5.5-3.9 4.7-5 6.8 2.8c4.6 6.2 2.4 7.9-0.5 14.1-1.8 3.7-3.7 7.3-5.7 10.9-4.5 7.9-9.4 15.5-14.9 22.8-10 13.1-21.6 24.8-34.2 35.4-6.1 5 2.9 13.2 8.9 8.3z"/>
					</g>
				</g>
				<g id="&lt;Group&gt;">
					<g id="&lt;Group&gt;">
						<path id="&lt;Path&gt;" class="s2" d="m2000.8 1651.7c6.8-26.5 25.6-48.3 30.2-75.5 2.3-13 2.1-46-16.9-46.9-19.3-0.9-32.6 20.8-34.8 37.6-3.6 27.4 11.8 52.7 10.8 80-0.2 7.8 12 7.2 12.2-0.6 0.7-19.1-6.1-36.5-9.7-55-2-11-3-23.1 1.7-33.6 2.9-6.3 11.3-18.3 19.1-14.7 7.7 3.5 7.1 19.7 6.3 27-1.1 9.2-4.2 18.1-7.9 26.5-7.9 17.5-18.1 33.7-22.9 52.5-1.9 7.6 10 10.3 11.9 2.7z"/>
					</g>
				</g>
				<g id="&lt;Group&gt;">
					<g id="&lt;Group&gt;">
						<path id="&lt;Path&gt;" class="s2" d="m1934.9 1575.6c1.9-24.9-5-49.1-16.3-71.1-8.3-16.2-25.9-44.1-47.8-40.8-25.2 3.7-5.9 35.9 0.7 47.6 13.4 23.6 30.8 44.7 51 62.7 5.9 5.3 14.2-3.6 8.4-8.9-13.9-12.4-26.4-26.1-37.1-41.3-5.4-7.9-10.5-16-14.9-24.4-3.2-6.1-15.3-28.1-0.2-22.4 17.3 6.5 28.2 29.3 34.7 45.1 7.1 17.3 10.8 35.4 9.4 54.1-0.6 7.8 11.6 7.2 12.1-0.6z"/>
					</g>
				</g>
				<g id="&lt;Group&gt;">
					<g id="&lt;Group&gt;">
						<path id="&lt;Path&gt;" class="s2" d="m1988.4 1644.9c-16.2-14-35.1-22.9-55-30.4-11.3-4.3-33.1-14.4-37.9 3.8-4.4 16.7 18.9 28.9 31 34.4 7.7 3.5 14.7 4.6 23.2 3.4 14-2 25.6-2.7 38.9 3.3 7.1 3.2 12.9-7.6 5.8-10.8-11.1-5-22.9-7.6-35.1-6.4-6.6 0.6-13.3 3.3-19.9 2.2-6.9-1.2-14-5.7-19.8-9.5-1.7-1.1-7.9-4.3-8.6-6.4-4-12.6 7.2-6.8 10.4-5.6 6.7 2.4 13.2 4.9 19.7 7.7 14.1 5.9 27.3 13.2 38.9 23.3 6 5.1 14.3-3.8 8.4-9z"/>
					</g>
				</g>
				<g id="&lt;Group&gt;">
					<g id="&lt;Group&gt;">
						<path id="&lt;Path&gt;" class="s2" d="m2032.3 1727.4c-15.5-9-31.7-18.3-49.7-21.2-8.5-1.3-28.6-4.2-28.8 9.1-0.2 12 18.9 24.3 27.8 28.9 14.2 7.3 30.1 2 44.7-1.8 7.6-2 3.9-13.6-3.7-11.6-9.3 2.4-21.2 6.9-30.9 4.5-8.6-2.2-24.4-13.7-26.1-22.9q-0.7 3-1.4 6c5.4-6.2 29 2.9 35.2 5.4 9.4 4 18.3 9.2 27.2 14.4 6.8 3.9 12.5-6.9 5.7-10.8z"/>
					</g>
				</g>
				<g id="&lt;Group&gt;">
					<g id="&lt;Group&gt;">
						<path id="&lt;Path&gt;" class="s2" d="m2058.4 1807.7c-10.1-1.2-20.1-3.2-29.8-6.4-5.7-1.8-11.3-4.1-16.7-6.7-2.5-1.3-12.5-4.8-13.4-7.4-4.7-13.5 25.9 1.7 29.6 4 8.8 5.6 16.1 12.9 22.2 21.2 4.6 6.4 14.9-0.1 10.3-6.5-12.1-16.5-53.8-54.1-74.2-29.8-21.3 25.4 55.3 41.8 69.4 43.5 7.7 0.9 10.4-11 2.6-11.9z"/>
					</g>
				</g>
				<g id="&lt;Group&gt;">
					<g id="&lt;Group&gt;">
						<path id="&lt;Path&gt;" class="s2" d="m2065.6 1865.5c-9.5-3.3-18.9-7.2-28-11.8q-5.1-2.6-10-5.4c-3.5-2-12.5-4.9-10.1-9.1 4.7-8.1 35.7 26.5 39.9 31.3 5.2 5.9 13.5-3.1 8.3-8.9-10.3-11.6-21.2-25-35.1-32.4-7.9-4.3-23.1-8.7-28.8 1.5-12.7 22.7 48.1 42.2 61.2 46.7 7.4 2.5 10-9.4 2.6-11.9z"/>
					</g>
				</g>
			</g>
			<g id="&lt;Group&gt;">
				<g id="&lt;Group&gt;">
					<path id="&lt;Path&gt;" class="s3" d="m2489.6 1966.9c-74.6 35.9-168.4 49.9-234.7 4.4-19.3-13.3-35.9-32.2-40-55.3-4.2-23.1 7.2-50.1 29.6-59.2 19.4-7.9 43.6-2 60.1-14.9 11.6-9 15.4-24.9 13.6-38.9-1.8-14.1-8.3-27-14.2-39.8-7.7-16.6-14.4-33.7-20.3-51.1-6.9-20.7-12.4-43.5-4.2-64.1 8.1-20.7 35.3-35.6 53.6-23.6 8.7 5.7 13.2 15.6 20.1 23.2 6.8 7.7 19.1 13 27.7 6.7 3.3-2.4 5.4-6.2 7-10 12.4-29.2 8.4-40.7 14.4-80.7 2.3-15.4 11.6-40.5 21-53.2 42.2-57.3 101.8-109.1 172.7-116.1 13.8-1.4 28.3-0.9 40.6 5.1 23.2 11.4 32.7 40.5 28.5 66.1-4.3 25.7-19.4 48.5-35.4 69.6-15.9 21.1-33.2 41.8-43 66.1 20.8-0.1 41.8-5.9 59.9-16.4 9.4-5.5 19-12.5 29.8-11.9 17.1 0.8 26.5 21.8 21.2 38.1-5.2 16.2-19.9 27.7-34.6 36.9-39.3 24.6-86.9 43-108.5 83.4-2.9 5.5-5.2 12.1-2.4 17.4 2 3.6 5.9 5.7 9.9 7 19.7 6.8 41.7 0.1 62.8-0.5 4.9-0.1 9.9 0.1 14.3 2.1 17.2 8.1 10.8 33.8 1.1 50.5-36.6 63-79.7 118.6-150.6 159.1z"/>
				</g>
				<g id="&lt;Group&gt;">
					<g id="&lt;Group&gt;">
						<path id="&lt;Path&gt;" class="s2" d="m2588.8 1486.3c-52.5 51-96.6 110.2-131 174.8-34.1 63.9-58.6 133-72.4 204.2-7.8 40-12 80.6-12.8 121.3-0.1 4.1-6.4 3.8-6.3-0.3 1.4-72.9 14.1-145.5 37.2-214.7 23.2-69.5 56.7-135.7 99.4-195.2 24.3-33.9 51.7-65.7 81.6-94.8 2.9-2.8 7.2 1.8 4.3 4.7z"/>
					</g>
				</g>
			</g>
			<g id="&lt;Group&gt;">
				<g id="&lt;Group&gt;">
					<g id="&lt;Group&gt;">
						<path id="&lt;Path&gt;" class="s4" d="m684.2 1220.6c0 0-0.6-81.7 86.7-128.8 87.4-47.1 182.2-38.5 245.8-14.2 104.4 40.1 128.8 135.3 85.3 141.9-24.2 3.6-59 62.4-47.4 72.7 54.9 48-346.6 136.8-370.4-71.6z"/>
						<g id="&lt;Group&gt;">
							<path id="&lt;Path&gt;" class="s4" d="m1232.2 1545.1c-20.1 8.6-59.5 23.6-100.3 36.7-9.3 3.3-51.3 16.2-89.6 25.3q-0.8 0.2-1.6 0.4c-66.2 15.5-137.5 25-192.8 13.8-0.3-0.1-32.5-8.8-68.9-26.9-5.6-2.7-11.7-4.8-18.2-6.3q0 0 0 0c-54.5-12.5-140 17.7-192.1 38-22.7 8.8-45.4 18.4-67.5 28l-31.8-328c30-8.6-201.2-55.9-164.6-65.8 107.4-29 309.7-81.6 403.4-112.5 0.9-0.7 93.7-28.3 124.6-50.7 340.7 382.1 133 149.3 203.2 227.9l36.4-23.4 12.4 78.1c62 69.6 135.6 152.1 147.4 165.4z"/>
						</g>
						<path id="&lt;Path&gt;" class="s5" d="m976.7 1471.7c51.5 70.2 153.4 157.3 212.9 71.5 59.4-85.9 88.4-283.6 6.5-333.1-81.8-49.5-132.7-50.3-171-12.9-38.3 37.5-102 125.3-118.1 140.4-16.2 15.1 38.3 91.2 69.7 134.1z"/>
						<g id="&lt;Group&gt;">
							<g id="&lt;Group&gt;">
								<path id="&lt;Path&gt;" class="s6" d="m768.3 1589.9c-35.5-24.1-61.2-61.6-70.5-103.5-0.7-3.2 4.2-4.6 4.9-1.4 9 40.6 33.6 77.1 68 100.5 2.7 1.8 0.3 6.2-2.4 4.4z"/>
							</g>
						</g>
						<g id="&lt;Group&gt;">
							<g id="&lt;Group&gt;">
								<path id="&lt;Path&gt;" class="s6" d="m709.8 1150.8c-18.8 38.1-30.7 79.7-34.7 122q-1.6 17.8-1.5 35.8c0 3.2-5 3.3-5.1 0-0.2-43.1 7.3-86.3 22.4-126.8q6.4-17 14.5-33.4c1.4-2.9 5.9-0.5 4.4 2.4z"/>
							</g>
						</g>
						<g id="&lt;Group&gt;">
							<g id="&lt;Group&gt;">
								<g id="&lt;Group&gt;">
									<path id="&lt;Path&gt;" class="s7" d="m994.8 1754.6c-12.2-7.4-16.1-23.4-8.7-35.6l450.9-742.8c7.4-12.2 23.4-16.1 35.6-8.7 12.2 7.3 16.1 23.4 8.7 35.5l-450.9 742.9c-7.4 12.2-23.4 16.1-35.6 8.7z"/>
								</g>
								<g id="&lt;Group&gt;" style="opacity: .2">
									<path id="&lt;Path&gt;" class="s8" d="m1353 478.1c102.1-168.2 321.2-221.8 489.3-119.7 168.2 102.1 221.8 321.2 119.7 489.4-102.1 168.2-321.2 221.8-489.4 119.7-168.2-102.1-221.7-321.3-119.6-489.4z"/>
								</g>
								<g id="&lt;Group&gt;">
									<path id="&lt;Compound Path&gt;" fill-rule="evenodd" class="s7" d="m1802.5 1013.8c-19.3 8.3-39.4 15.1-60.2 20.1-97.2 23.8-197.9 8.3-283.5-43.6-85.6-52-145.9-134.2-169.6-231.5-23.8-97.2-8.3-197.9 43.7-283.5 107.2-176.7 338.2-233.2 514.9-125.9 85.6 51.9 145.9 134.1 169.6 231.4 23.8 97.2 8.3 197.9-43.6 283.5-40.9 67.3-100.5 119-171.3 149.5zm-324.4-55.4c77.1 46.8 167.8 60.8 255.4 39.4 87.6-21.5 161.6-75.7 208.4-152.8 96.6-159.1 45.7-367.2-113.4-463.8-159.1-96.6-367.2-45.7-463.8 113.4-96.6 159.1-45.7 367.2 113.4 463.8z"/>
								</g>
							</g>
							<g id="&lt;Group&gt;">
								<g id="&lt;Group&gt;">
									<g id="&lt;Group&gt;">
										<path id="&lt;Path&gt;" class="s9" d="m1640.6 527.4c24.8-26.2 65.5-26.4 94-6.5 28.7 19.9 47 63.6 3.1 77.3-17.9 5.6-37.8 2.5-56.1 6.2-21.2 4.4-41.2 14.1-57.9 27.8-31.4 25.8-51.2 62.4-69 98.2-23.5 47.1 52 78.1 75.4 31.2 10.8-21.5 22.2-44.7 39.8-61.6 20.1-19.5 43.5-15.7 69.2-19.1 60.6-8.1 112.4-58.2 107.3-122-4.9-59.1-55.2-110.6-110.4-127-59.1-17.6-118.1 1.3-159.9 45.4-36.2 38.1 28.6 87.9 64.5 50.1z"/>
									</g>
								</g>
								<g id="&lt;Group&gt;">
									<g id="&lt;Group&gt;">
										<path id="&lt;Path&gt;" class="s9" d="m1534.4 884.4c48.5 20.1 79.8-55.3 31.2-75.5-48.6-20-79.9 55.4-31.2 75.5z"/>
									</g>
								</g>
								<g id="&lt;Group&gt;">
									<g id="&lt;Group&gt;">
									</g>
								</g>
								<g id="&lt;Group&gt;">
									<g id="&lt;Group&gt;">
									</g>
								</g>
								<g id="&lt;Group&gt;">
									<g id="&lt;Group&gt;">
									</g>
								</g>
								<g id="&lt;Group&gt;">
									<g id="&lt;Group&gt;">
									</g>
								</g>
								<g id="&lt;Group&gt;">
									<g id="&lt;Group&gt;">
									</g>
								</g>
								<g id="&lt;Group&gt;">
									<g id="&lt;Group&gt;">
									</g>
								</g>
								<g id="&lt;Group&gt;">
									<g id="&lt;Group&gt;">
									</g>
								</g>
								<g id="&lt;Group&gt;">
									<g id="&lt;Group&gt;">
									</g>
								</g>
							</g>
							<g id="&lt;Group&gt;">
								<g id="&lt;Group&gt;">
									<path id="&lt;Path&gt;" class="s10" d="m1376.4 806.9c33.9 48.6 78.2 89.4 129.3 119.2 9.7 5.6 20.3-8.5 10.5-14.2-50.1-29.1-93-68.5-126.1-116-6.5-9.2-20.2 1.8-13.7 11z"/>
								</g>
							</g>
							<g id="&lt;Group&gt;">
								<g id="&lt;Group&gt;">
									<path id="&lt;Path&gt;" class="s10" d="m1539.5 939.6c13.8 7.2 29.3 9.7 44.7 7.8 11.2-1.3 8.8-18.7-2.4-17.4-12.6 1.6-24.6-0.9-35.8-6.7-10-5.3-16.4 11.1-6.5 16.3z"/>
								</g>
							</g>
						</g>
						<path id="&lt;Path&gt;" class="s4" d="m838.9 1065.9c68.3-21.7 237.9-47.4 303.4-35.6 122.6 22 232.2-17.3 245.8-2.9 13.6 14.4 0.9 78-92.3 113.3-91.9 34.8-178.3 11.8-196.4 22-18.1 10.3-97.6 59.3-97.6 59.3 0 0-215.8-139.3-162.9-156.1z"/>
						<g id="&lt;Group&gt;">
							<path id="&lt;Path&gt;" class="s6" d="m1004.1 1220.1c-17.7 13.5-33.5 29.4-46.8 47.3-13.9 18.7-24.4 39.1-42.2 54.7-16.3 14.3-35.3 26.2-54.3 36.5-17.5 9.5-35.8 17.7-55 23-21.5 6-43.6 8.3-65.7 5.7-4.5-0.5-5.3 6.5-0.8 7 39.8 4.6 79.1-6.4 114.5-24.1 18.5-9.3 36.5-20.3 53.2-32.6 19.3-14.3 32.9-31.5 45.9-51.5 15.3-23.3 33.5-43.6 55.6-60.6 3.6-2.7-0.8-8.1-4.4-5.4z"/>
						</g>
						<g id="&lt;Group&gt;">
							<path id="&lt;Path&gt;" class="s4" d="m1085.8 1262.3c9.2-6.7 4-16.5 27.2-14.7 80.2-3.9 159.7 13.8 237.4 34 32.3 8.5 66.2 18.4 88.9 42.8 22.8 24.5 28 68.2 2.1 89.2-19.2 15.5-46.7 13.3-71.1 10-90.9-12.4-158-36.7-243.8-69.3-22.1-8.4-41.9-22.9-51.1-44.8-9.2-21.8-8.9-33.4 10.4-47.2z"/>
							<path id="&lt;Path&gt;" class="s4" d="m1338.6 1386c34-6.6 68.8 19.1 92.4 44.5 23.6 25.4 29.1 70.9 2.2 92.7-20 16.1-48.5 13.7-73.9 10.3-94.4-12.9-144.1-50.5-233.2-84.3-23-8.7-57.8-27-58.8-45.1-2.5-50.2 66.2-47.1 168.4-11.7 35.4 12.3 79.6-1.9 102.9-6.4z"/>
							<path id="&lt;Path&gt;" class="s4" d="m1094.3 1439.2c8.1-3 82.9 6.7 139.2 39.5 23.4 13.6 47.9 28.7 61.6 52.5 13.7 23.7 11.1 58.4-12 68.7-17 7.6-37.7-0.2-55.9-8.2-67.7-29.7-61.5-25.1-122.3-69.1-15.6-11.3-36.7-32.9-40.4-51.7-3.7-18.7 13-25.4 29.8-31.7z"/>
							<path id="&lt;Path&gt;" class="s4" d="m1110 1156.7c71.1-3.5 123-1 191.9 17 28.6 7.5 58.7 16.3 78.9 38 20.2 21.7 24.8 60.5 1.8 79.1-17 13.7-41.3 11.7-63 8.8-80.6-11-158.5-8.4-230.5-46.3-80.3-42.2 0.4-98.2 20.9-96.6z"/>
							<g id="&lt;Group&gt;">
								<path id="&lt;Path&gt;" class="s6" d="m1374.9 1286.8c-53.7-13.7-107.9-24.9-162.6-33.5-25.4-4-51.5-9.1-77.3-9.6-21.7-0.5-44.1 5.5-58.1 23.1-2.8 3.4 2.3 7.9 5.1 4.5 15.3-19.2 40.3-22.3 63.4-20.3 25.5 2.3 50.9 6.5 76.1 10.7 51.2 8.3 101.9 19 152.1 31.8 4.3 1 5.5-5.6 1.3-6.7z"/>
							</g>
							<g id="&lt;Group&gt;">
								<path id="&lt;Path&gt;" class="s6" d="m1281.1 1165.5c-49.7-6.6-100.4-12-150.6-12.2-20.3-0.1-41.1 3.3-57.3 16.5-14.2 11.6-24 29.3-20 48 4.4 20.6 22.5 31.9 39.8 41.2 3.7 2 6.6-3.9 2.9-5.9-19.5-10.4-41.7-25.6-36.4-51.1 5.2-25.1 31.3-38.9 54.8-41.4 26.3-2.9 54 0.5 80.3 2.5 28.5 2.1 57 5.1 85.3 8.8 4.2 0.6 5.4-5.9 1.2-6.4z"/>
							</g>
							<g id="&lt;Group&gt;">
								<path id="&lt;Path&gt;" class="s6" d="m1420.7 1419.4c-18.3-14.7-42.7-14.3-64.9-16.2-20.3-1.8-40.5-4.1-60.5-7.3-38.7-6-76.8-15.1-115.1-23.1-4.2-0.9-5.4 5.7-1.3 6.5 37.1 7.8 74 16.5 111.3 22.5 18.9 3.1 37.9 5.4 57 7.2 22.6 2.2 50.3 0.3 69.1 15.4 3.3 2.6 7.7-2.4 4.4-5z"/>
							</g>
							<g id="&lt;Group&gt;">
								<path id="&lt;Path&gt;" class="s6" d="m1297.5 1531.5c-8.7-14.2-28.7-22.3-42.9-30.1q-26.3-14.6-53.3-27.9c-18.7-9.1-37.5-17.9-56.9-25.5-13.6-5.3-28.3-11.1-43.1-12-17.8-1.1-43.3 14.9-39.8 35.2 0.7 3.7 6.7 3.3 6-0.5-3.3-18.5 21.6-30.5 37.1-28.4 14.3 2 28.1 7.5 41.4 12.8 34.5 13.8 67.8 30.8 100.4 48.6q10.7 5.8 21.3 11.9c9.1 5.2 19.2 10.1 24.8 19.2 2.1 3.3 7 0 5-3.3z"/>
							</g>
							<g id="&lt;Group&gt;">
								<path id="&lt;Path&gt;" class="s6" d="m1230.9 1591.5c-25.4-10.5-49.8-23.9-73.4-38-25.7-15.5-51.8-32.4-72.8-54-7.5-7.7-16.4-17.6-17.2-28.8-0.3-3.8-6.2-3.4-6 0.5 0.7 9.5 6.4 18.1 12.4 25.2 8.8 10.7 19.4 19.8 30.3 28.3 26 20.2 54.6 37.3 83.7 52.8 13.2 7 26.6 13.7 40.4 19.4 3.5 1.5 6.2-3.9 2.6-5.4z"/>
							</g>
							<g id="&lt;Group&gt;">
								<path id="&lt;Path&gt;" class="s6" d="m1195.7 1376.4c-29.2-5.6-58.7-18.3-83.8-34.2-21.6-13.7-53.1-45-29.9-70.9 2.9-3.3-2.2-7.7-5.1-4.5-23 25.7-0.2 57.9 22.1 74.7 13 9.8 27.7 17.1 42.5 23.8 17 7.7 34.6 14.2 53 17.8 4.3 0.8 5.5-5.9 1.2-6.7z"/>
							</g>
							<path id="&lt;Path&gt;" class="s11" d="m1086.6 1181.5c12.1-6.7 26.8-6.9 39.4-5.4 6.8 0.9 13.8 2.4 20 5.7 6.1 3.3 7.3 8.5 7.7 16.6 0.5 11.4-2.4 40.6-14.4 43.3-3.6 0.8-7.5 0.3-11 0.1-12.8-1-26-3.6-37.3-10.7-15.1-9.4-23.5-35.3-4.4-49.6z"/>
							<path id="&lt;Path&gt;" class="s11" d="m1102 1268.5c13.1-4.3 27.3-1.9 39.2 2 6.4 2.1 13 4.8 18.3 9.2 5.3 4.4 5.5 9.7 4.3 17.7-1.6 11.3-10.1 39.4-22.2 39.9-3.6 0.1-7.3-1.1-10.7-2-12.2-3.3-24.5-8.3-34.1-17.3-12.7-12-16-39 5.2-49.5z"/>
							<path id="&lt;Path&gt;" class="s11" d="m1094.7 1375.4c12-3.5 25.5-1 36.6 2.6 6.1 2 12.3 4.5 17.4 8.6 5 3.9 5.3 8.5 4.4 15.5-1.3 9.9-8.4 34.2-19.8 34.3-3.3 0-6.8-1.2-9.9-2-11.5-3.2-23.2-7.8-32.3-16-12.3-10.8-15.9-34.4 3.6-43z"/>
							<path id="&lt;Path&gt;" class="s11" d="m1094.9 1449.5c10.3-2.2 20.8 1.2 29.3 5.3 4.5 2.3 9.1 5.1 12.6 9.1 3.4 3.9 2.8 8.1 0.9 14.2-2.7 8.8-12.7 30-22 29.1-2.7-0.2-5.3-1.5-7.7-2.6-8.8-3.7-17.4-8.8-23.5-16.8-8.1-10.7-7-32.1 10.4-38.3z"/>
						</g>
						<path id="&lt;Path&gt;" class="s11" d="m1388.1 1027.4c0 0-8.3 20.9-32.1 20.9-23.8 0.1-40.1-0.6-40.1-0.6l-10.8-15.9c0 0 54.4-16.6 83-4.4z"/>
					</g>
				</g>
				<g id="&lt;Group&gt;">
					<g id="&lt;Group&gt;">
						<g id="&lt;Group&gt;">
							<path id="&lt;Compound Path&gt;" class="s9" d="m-170.3 1217.7l78.8 682.5c7.8-2.1 102.5-34.5 223.4-77.4 213.1-75.6 507.5-183.6 550.4-215.2 4.2-4.9 6.3-10.4 7-16v-0.3c4.7-42.6-76.8-106.2-93-153.1-35.7-102.2-3-175.3-2.6-223.4 0-3.9 2.8-25.5 2.4-29-3.5-28.3-75.4 5.1-151.4 10.7-22.9 1.4-423.4 14.9-615 21.2z"/>
						</g>
					</g>
					<g id="&lt;Group&gt;">
						<g id="&lt;Group&gt;">
							<path id="&lt;Path&gt;" class="s12" d="m660.3 1542.1c-1.9 23.1-19.1 39.3-39.2 47.5-28.2 11.5-58.7 4.4-88.1 5.2-36.1 1-67.4 19.4-100.3 32.4-31.6 12.5-65.2 18-99.1 16.2-5.6-0.4-5.4-9.4 0.3-9.1 31.9 1.7 63.6-3.2 93.6-14.7 29.3-11.2 57.2-27.8 88.6-32.4 29-4.3 58.5 3.8 87.3-1.7 21.7-4.2 46-18.8 48.1-43.7 0.5-5.8 9.3-5.5 8.8 0.3z"/>
						</g>
					</g>
					<g id="&lt;Group&gt;">
						<g id="&lt;Group&gt;">
							<path id="&lt;Path&gt;" class="s12" d="m393.8 1601.6q-7 0.4-14.1 0.7c-5.7 0.3-5.4-8.8 0.3-9.1q7.1-0.3 14.1-0.7c5.7-0.3 5.4 8.8-0.3 9.1z"/>
						</g>
					</g>
					<g id="&lt;Group&gt;">
						<g id="&lt;Group&gt;">
							<path id="&lt;Path&gt;" class="s12" d="m360.7 1574.1q-1.7 0.1-3.5 0.2c-2.3 0.1-4.4-2.3-4.3-4.7 0.2-2.6 2.1-4.2 4.6-4.4q1.8-0.1 3.5-0.1c2.3-0.2 4.5 2.3 4.3 4.6-0.2 2.6-2.1 4.3-4.6 4.4z"/>
						</g>
					</g>
					<g id="&lt;Group&gt;">
						<g id="&lt;Group&gt;">
							<path id="&lt;Path&gt;" class="s12" d="m521 1282.2c-20.2-20.1-50.8-10.8-73.3-0.6-25.5 11.7-49 22.3-77.6 20.8-26.4-1.3-51.8-9.6-77.2-16.2-28.9-7.5-58-11.2-87.8-7.6-33.7 4.1-65.9 16.2-94.3 35.2-4.8 3.1-9.1-4.8-4.3-8 50.8-33.8 112.9-45.2 172-32.4 28.7 6.2 56.8 16.9 86.2 19.5 14.9 1.4 29.8 0.3 44.2-4.3 16.1-5.1 30.8-13.9 46.5-20.1 23.4-9.3 52.5-12 71.9 7.3 4.1 4.1-2.3 10.4-6.3 6.4z"/>
						</g>
					</g>
					<g id="&lt;Group&gt;">
						<g id="&lt;Group&gt;">
						</g>
					</g>
					<g id="&lt;Group&gt;">
						<g id="&lt;Group&gt;">
							<path id="&lt;Path&gt;" class="s12" d="m468.2 1378.7q-7.6 2.3-15.1 4.7c-5.4 1.7-7.5-7.1-2.1-8.8q7.6-2.4 15.1-4.8c5.4-1.7 7.5 7.2 2.1 8.9z"/>
						</g>
					</g>
					<g id="&lt;Group&gt;">
						<g id="&lt;Group&gt;">
							<path id="&lt;Path&gt;" class="s12" d="m547.9 1620.4q-6.6-0.7-13.1-1.4c-5.7-0.6-5.4-9.7 0.2-9.1q6.6 0.7 13.1 1.4c5.7 0.6 5.4 9.7-0.2 9.1z"/>
						</g>
					</g>
					<g id="&lt;Group&gt;">
						<g id="&lt;Group&gt;">
							<path id="&lt;Path&gt;" class="s12" d="m106.9 1671.1c3.8-2.7 8-4.7 12.5-6.1 5.4-1.8 7.5 7.1 2.1 8.8-3.7 1.2-7.1 3-10.3 5.3-2 1.4-5 0.2-6-1.8-1.3-2.3-0.3-4.8 1.7-6.2z"/>
						</g>
					</g>
					<g id="&lt;Group&gt;">
						<g id="&lt;Group&gt;">
							<path id="&lt;Path&gt;" class="s12" d="m278.3 1698.4q-8 4.2-16 8.3c-5.1 2.6-9.4-5.3-4.3-7.9q8-4.2 16-8.3c5.1-2.6 9.4 5.3 4.3 7.9z"/>
						</g>
					</g>
					<g id="&lt;Group&gt;">
						<g id="&lt;Group&gt;">
							<path id="&lt;Path&gt;" class="s12" d="m240.8 1544.3q-7.7 0.4-15.3 0.8c-5.7 0.2-5.4-8.8 0.2-9.1q7.7-0.4 15.3-0.8c5.7-0.3 5.4 8.8-0.2 9.1z"/>
						</g>
					</g>
					<g id="&lt;Group&gt;">
						<g id="&lt;Group&gt;">
							<path id="&lt;Path&gt;" class="s12" d="m255.7 1532.3c-2.4-0.9-4.7-1.1-7.2-0.5-5.6 1.3-7.7-7.5-2.1-8.8 3.9-1 8-0.8 11.8 0.6 2.3 0.7 3.7 3.2 3 5.6-0.7 2.3-3.2 3.9-5.5 3.1z"/>
						</g>
					</g>
					<g id="&lt;Group&gt;">
						<g id="&lt;Group&gt;">
							<path id="&lt;Path&gt;" class="s12" d="m237.6 1394c-6.3 1.1-12 3.2-17.5 6.5-4.9 3-9.2-4.9-4.3-7.9 6.1-3.7 12.7-6.2 19.7-7.5 5.6-0.9 7.7 7.9 2.1 8.9z"/>
						</g>
					</g>
					<g id="&lt;Group&gt;">
						<g id="&lt;Group&gt;">
							<path id="&lt;Path&gt;" class="s12" d="m249.4 1368q-1.8 0.1-3.6 0.2c-2.3 0.1-4.4-2.3-4.2-4.7 0.2-2.6 2-4.2 4.5-4.4q1.8-0.1 3.6-0.1c2.3-0.2 4.4 2.3 4.2 4.6-0.2 2.6-2 4.3-4.5 4.4z"/>
						</g>
					</g>
					<g id="&lt;Group&gt;">
						<g id="&lt;Group&gt;">
							<path id="&lt;Path&gt;" class="s12" d="m71.2 1449.5c-6 2.4-11.7 5.6-17.1 9.3-4.8 3.2-9-4.7-4.3-8 6.1-4.2 12.5-7.4 19.4-10.1 5.3-2.1 7.3 6.7 2 8.8z"/>
						</g>
					</g>
					<g id="&lt;Group&gt;">
						<g id="&lt;Group&gt;">
							<path id="&lt;Path&gt;" class="s12" d="m74.8 1422.5q-3 1.2-5.9 2.5c-2.1 0.9-4.9 0.6-6-1.8-1-2-0.6-5.2 1.7-6.2q2.9-1.2 5.9-2.5c2.1-0.9 4.8-0.6 6 1.8 1 2 0.5 5.2-1.7 6.2z"/>
						</g>
					</g>
					<g id="&lt;Group&gt;">
						<g id="&lt;Group&gt;">
							<path id="&lt;Path&gt;" class="s12" d="m560.4 1484.4c-5.2 0.6-10.2 0.4-15.3-0.7-2.3-0.5-3.6-3.4-3-5.6 0.8-2.5 3.2-3.6 5.5-3.1 3.5 0.7 7.2 1 10.7 0.5 2.4-0.3 4.8 0.8 5.4 3.4 0.5 2.1-0.9 5.2-3.3 5.5z"/>
						</g>
					</g>
					<g id="&lt;Group&gt;">
						<g id="&lt;Group&gt;">
							<path id="&lt;Path&gt;" class="s12" d="m534.8 1466.3q-0.6 0-1.2 0.1c-2.3 0.1-4.4-2.4-4.3-4.7 0.2-2.6 2.1-4.3 4.6-4.4q0.6-0.1 1.2-0.1c2.3-0.1 4.4 2.4 4.3 4.7-0.2 2.6-2.1 4.3-4.6 4.4z"/>
						</g>
					</g>
					<g id="&lt;Group&gt;">
						<g id="&lt;Group&gt;">
							<path id="&lt;Path&gt;" class="s12" d="m434.2 1673.8c-4.5 1.5-9.3 2.1-14.1 1.9-5.6-0.3-5.4-9.3 0.3-9.1 4.1 0.2 7.9-0.3 11.7-1.6 5.5-1.8 7.5 7 2.1 8.8z"/>
						</g>
					</g>
					<g id="&lt;Group&gt;">
						<g id="&lt;Group&gt;">
							<path id="&lt;Path&gt;" class="s12" d="m441.6 1651.9q-2.4 0.7-4.7 1.4c-2.2 0.7-4.9-1-5.3-3.3-0.5-2.6 0.8-4.8 3.2-5.5q2.4-0.7 4.7-1.5c2.2-0.6 4.9 1.1 5.3 3.4 0.5 2.5-0.9 4.7-3.2 5.5z"/>
						</g>
					</g>
					<g id="&lt;Group&gt;">
						<g id="&lt;Group&gt;">
							<path id="&lt;Path&gt;" class="s12" d="m374.8 1268.4q-2.4-0.6-4.8-1.1c-2.3-0.5-3.7-3.4-3-5.6 0.9-2.5 3.1-3.6 5.6-3.1q2.3 0.5 4.7 1.1c2.3 0.5 3.7 3.4 3 5.6-0.9 2.5-3.1 3.6-5.5 3.1z"/>
						</g>
					</g>
					<g id="&lt;Group&gt;">
						<g id="&lt;Group&gt;">
							<path id="&lt;Path&gt;" class="s12" d="m387.3 1258.1q-1.2 0.1-2.4 0.1c-2.3 0.2-4.4-2.3-4.3-4.6 0.2-2.6 2.1-4.3 4.6-4.4q1.2-0.1 2.3-0.2c2.4-0.1 4.5 2.4 4.3 4.7-0.2 2.6-2.1 4.3-4.5 4.4z"/>
						</g>
					</g>
					<g id="&lt;Group&gt;">
						<g id="&lt;Group&gt;">
							<path id="&lt;Path&gt;" class="s12" d="m44.6 1312.3c-33.9 5.8-68.3 2.4-100.4-10.3-5.3-2.1-2.8-10.8 2.5-8.7 30.6 12.1 63.4 15.7 95.9 10.2 5.5-1 7.7 7.8 2 8.8z"/>
						</g>
					</g>
					<g id="&lt;Group&gt;">
						<path id="&lt;Path&gt;" class="s13" d="m-161.1 1297.1l69.6 603.2c7.8-2.2 102.5-34.6 223.5-77.5 0 0-51.6-54.4-118.4-50.5-15.3 0.9-25.6-12-33-33q-1.5-4.2-2.8-8.8c-11.8-40.9-15.3-104.9-22.3-159q-0.6-4.7-1.2-9.4c-5.6-39.9-13.7-73-29.2-85.4-50.4-40-49.1-170.9-86.2-179.6z"/>
					</g>
					<g id="&lt;Group&gt;">
						<g id="&lt;Group&gt;">
							<path id="&lt;Path&gt;" class="s12" d="m540.4 1381.5c-0.8 39.8-36.1 67.4-71.8 73.7-48.9 8.5-95.8-13.2-144.3-14.5-53.4-1.4-101.8 29.5-148.1 53.2q-34.5 17.6-68.9 35.3c-22.7 11.6-45.4 23.3-69.3 31.8-44.2 15.8-96.7 19-136-11.2-4.5-3.5 0.1-11.3 4.6-7.8 34.6 26.6 79.9 25.8 119.7 13.4 23.4-7.3 45.6-18.3 67.5-29.5 22.4-11.4 44.7-22.9 67.1-34.4 41.6-21.2 84.2-48.1 130.3-57.1 45.7-8.9 89.2 8.1 134.3 12.6 25 2.5 51.7 1.1 73.7-12.8 18.2-11.5 31.9-30.5 32.3-53 0.1-5.8 9-5.6 8.9 0.3z"/>
						</g>
					</g>
					<g id="&lt;Group&gt;">
						<g id="&lt;Group&gt;">
							<path id="&lt;Path&gt;" class="s12" d="m114.3 1697.3c-27.4 16.1-56.4 26.2-87.9 30.3-30.4 4-61.2 3.1-91.9 2.1l2.2 9.1c58.5 1.9 117.2 1.1 170.4-27 26-13.8 50.7-32.3 76.7-47.7 27.6-16.4 56.6-29.1 89.5-28.5 5.7 0 5.9-9.1 0.2-9.1-37.7-0.8-70.4 15.3-101.6 34.6-19.4 11.7-38.3 24.9-57.6 36.2z"/>
						</g>
					</g>
				</g>
			</g>
			<g id="&lt;Group&gt;">
				<g id="&lt;Group&gt;">
					<g id="&lt;Group&gt;">
						<path id="&lt;Path&gt;" class="s14" d="m1090.8 478.5c4.2-13.8 17.3-22.4 31.6-21.4 11.2 0.8 29.2 9.1 23.1 22.8-3.6 7.9-11.8 10.6-18.7 14.9-8.1 5.1-15 11.6-19.8 19.9-9.5 16.3-10.6 36-10.7 54.3-0.1 22.2 34.3 22.2 34.4 0 0-10.3 0-21 3.3-31 3.5-10.3 10.6-13.4 19.5-18.8 22.2-13.4 35.7-41.5 22.4-66-12.4-23.1-41.4-33.4-66.3-29.6-24.9 3.7-44.8 21.9-52 45.8-6.4 21.2 26.8 30.3 33.2 9.1z"/>
					</g>
				</g>
				<g id="&lt;Group&gt;">
					<g id="&lt;Group&gt;">
						<path id="&lt;Path&gt;" class="s14" d="m1116.2 632.2c22.1 0 22.1-34.4 0-34.4-22.2 0-22.2 34.4 0 34.4z"/>
					</g>
				</g>
			</g>
			<g id="&lt;Group&gt;">
				<g id="&lt;Group&gt;">
					<g id="&lt;Group&gt;">
						<path id="&lt;Path&gt;" class="s7" d="m2255.5 513.6c12.9-14.6 33.6-19.2 51-9.9 15.9 8.4 32.6 31.4 15.1 46.7-7.8 6.7-17.1 7.1-26.8 8-9.8 1-19.2 3.3-27.5 8.9-16.2 11.1-25.7 28.9-33.8 46.3-6.1 13 13.3 24.5 19.4 11.4 4.8-10.5 9.9-21.4 17.4-30.3 8.5-10 17.6-13.2 30.4-14.3 24.4-2.2 50-16.3 50.9-43.8 1-26.3-21.1-49.1-44.7-57-23.7-8-50.8-0.5-67.2 18.1-9.6 10.8 6.3 26.8 15.8 15.9z"/>
					</g>
				</g>
				<g id="&lt;Group&gt;">
					<g id="&lt;Group&gt;">
						<path id="&lt;Path&gt;" class="s7" d="m2224.7 677.9c14.4 0 14.4-22.5 0-22.5-14.5 0-14.5 22.5 0 22.5z"/>
					</g>
				</g>
			</g>
			<g id="&lt;Group&gt;">
				<g id="&lt;Group&gt;">
					<g id="&lt;Group&gt;">
						<path id="&lt;Path&gt;" class="s3" d="m2206.5 923.2c17.7-21.3 48.9-23.4 71.7-9.6 22.9 13.8 39.1 46.3 6.1 59-13.4 5.2-28.8 3.7-42.6 7.5-16 4.4-30.8 12.8-42.9 24.1-22.8 21.3-36.1 50.3-48 78.6-15.7 37.2 43.7 57.2 59.3 20.2 7.1-17.1 14.7-35.3 27.4-49.2 14.4-15.8 32.5-14.1 52-18 46-9.2 83.1-50.1 76-98.6-6.6-45-47.6-81.9-90.7-91.8-46.1-10.5-90.3 6.8-120.1 42.6-25.8 31 26.2 65.9 51.8 35.2z"/>
					</g>
				</g>
				<g id="&lt;Group&gt;">
					<g id="&lt;Group&gt;">
						<path id="&lt;Path&gt;" class="s3" d="m2142.8 1201.6c38.2 13 58.4-46.3 20.2-59.3-38.2-12.9-58.4 46.3-20.2 59.3z"/>
					</g>
				</g>
			</g>
			<g id="&lt;Group&gt;">
				<g id="&lt;Group&gt;">
					<g id="&lt;Group&gt;">
						<path id="&lt;Path&gt;" class="s14" d="m689.3 695.6c-5.1-23 9.5-45 30.5-53.2 21.2-8.2 51.4-2.3 42.9 26.4-3.5 11.6-12.4 21.3-17 32.5-5.3 13-7.3 27.3-6 41.3 2.6 26.3 15.2 50.2 28 72.8 16.9 29.7 61 0.2 44.2-29.4-7.7-13.6-16.1-28.2-18.9-43.8-3.2-17.9 7.3-29.1 14.8-44.2 17.6-35.7 9.3-81.8-27-102.1-33.6-18.8-79.6-10.3-108.5 13.6-30.9 25.5-42 64.1-33.4 102.7 7.5 33.3 57.8 16.4 50.4-16.6z"/>
					</g>
				</g>
				<g id="&lt;Group&gt;">
					<g id="&lt;Group&gt;">
						<path id="&lt;Path&gt;" class="s14" d="m843.5 882.1c28.4-18.9-1-63.1-29.5-44.1-28.4 18.9 1 63.1 29.5 44.1z"/>
					</g>
				</g>
			</g>
		</g>
	</g>
</svg>