<?xml version="1.0" encoding="utf-8"?>
<!-- Generator: Adobe Illustrator 27.5.0, SVG Export Plug-In . SVG Version: 6.00 Build 0)  -->
<svg version="1.1" id="_x2018_лой_x5F_1" xmlns="http://www.w3.org/2000/svg" xmlns:xlink="http://www.w3.org/1999/xlink"
	 x="0px" y="0px" viewBox="0 0 2800 2000" style="enable-background:new 0 0 2800 2000;" xml:space="preserve">
<rect style="fill:#FFFFFF;" width="2800" height="2000"/>
<g>
	<path style="fill:#EBF3FA;" d="M351.59,1802.487c0,0-113.002-125.708-131.24-296.026
		c-16.361-152.791,17.784-389.621,151.587-492.227c539.059-413.368-208.64-312.219,422.817-716.31
		c183.938-117.708,451.08-170.793,586.263-176.289C1972.629,97.582,2690.52,417.573,2444.088,836.82
		c-121.336,206.425,397.91,450.891,9.645,971.711L351.59,1802.487z"/>
	<path style="fill:#CDE0FB;" d="M2281.354,1344.879c-4.537-108.326-183.996-115.421-183.996-115.421
		s-157.388,152.144-192.373,148.694s109.162-156.354,109.162-156.354c-64.475-21.302-250.753,21.474-250.753,21.474
		s-36.542,210.795-69.602,198.84c-33.06-11.954,41.879-184.997,41.879-184.997c-68.124,4.696-144.512,65.643-144.512,65.643
		c-101.862,104.357,37.4,229.769,37.4,229.769s-14.24,72.779-77.667,145.6l-0.003,0.002c0,0-13.544,13.03-29.681,36.737
		l17.393,3.937c2.476-4.342,5.062-8.495,7.775-12.431c0.008-0.033,0.023-0.054,0.051-0.07c0.039-0.058,0.08-0.113,0.119-0.17
		c1.8-2.418,4.378-5.854,7.566-10.03c0.004-0.005,0.008-0.01,0.012-0.015c0.003-0.012,0.014-0.009,0.017-0.021
		c7.667-9.198,12.997-16.069,16.523-21.103c0.012-0.016,0.021-0.032,0.028-0.048c23.313-29.047,55.878-66.396,73.195-71.857
		c0,0-1.312-3.143-1.917-8.819c0.611,2.813,1.249,5.745,1.917,8.819c15.328,70.532,161.77,114.859,248.551,116.622
		s55.927-29.812,19.866-77.884c-36.061-48.071-131.888-59.244-156.161-80.387s19.497-26.882,73.821-10.113
		c54.323,16.769,69.451,78.313,156.835,107.036s193.457-123.859,193.457-123.859c-65.998,5.178-168.869-53.876-168.309-76.103
		s163.813,16.965,190.773,16.362S2285.892,1453.204,2281.354,1344.879z"/>
	<path style="fill:#CDE0FB;" d="M718.654,1448.366c3.718-88.751,150.75-94.564,150.75-94.564s128.948,124.651,157.612,121.826
		c28.664-2.826-89.438-128.102-89.438-128.102c52.824-17.453,205.443,17.593,205.443,17.593s29.939,172.706,57.025,162.911
		c27.086-9.794-34.312-151.569-34.312-151.569c55.815,3.848,118.399,53.781,118.399,53.781
		c83.457,85.5-30.642,188.251-30.642,188.251s11.667,59.628,63.633,119.291l0.003,0.001c0,0,11.096,10.676,24.316,30.1
		l-14.249,3.226c-2.028-3.558-4.147-6.961-6.371-10.186c-0.006-0.027-0.02-0.044-0.042-0.058c-0.032-0.047-0.065-0.092-0.097-0.139
		c-1.475-1.981-3.587-4.797-6.199-8.218c-0.003-0.004-0.007-0.009-0.01-0.013c-0.002-0.009-0.012-0.007-0.014-0.016
		c-6.282-7.537-10.648-13.166-13.537-17.291c-0.011-0.012-0.018-0.025-0.024-0.039c-19.1-23.798-45.781-54.398-59.969-58.872
		c0,0,1.075-2.575,1.571-7.226c-0.501,2.304-1.023,4.706-1.571,7.226c-12.559,57.787-132.539,94.104-203.639,95.549
		c-71.1,1.443-45.821-24.425-16.277-63.811c29.545-39.386,108.057-48.539,127.944-65.862c19.888-17.322-15.975-22.023-60.482-8.285
		s-56.902,64.162-128.496,87.695c-71.594,23.533-158.501-101.479-158.501-101.479c54.073,4.242,138.356-44.141,137.897-62.352
		c-0.459-18.211-134.213,13.899-156.302,13.406C760.988,1570.648,714.936,1537.118,718.654,1448.366z"/>
	<g>
		<path style="fill:#CCE3FF;" d="M1720.48,1025.68c0,0,119.193-145.632,155.659-115.473
			C1912.605,940.366,1720.48,1025.68,1720.48,1025.68z"/>
		<path style="fill:#CCE3FF;" d="M1712.575,1052.826c0,0,227.563-134.629,285.353-73.705
			c57.789,60.924-61.473,59.867-105.817,55.233C1847.767,1029.721,1712.575,1052.826,1712.575,1052.826z"/>
	</g>
	<path style="fill:#ABCEF4;" d="M1232.457,1087.893l0.18-4.134C1232.277,1085.736,1232.277,1087.175,1232.457,1087.893z
		 M1718.69,324.658c0,0-48.533-28.22-89.697-14.379c0,0,4.854,7.728,12.762,19.59c-21.93-15.276-46.195-29.118-72.619-40.265
		c-35.233-14.559-74.418-24.264-117.558-25.884c0,0,17.436,23.009,43.679,53.747c-66.688-16.536-142.543-19.953-223.792,3.057
		c-11.507,3.414-23.189,7.19-35.053,11.684c0,0,12.944,7.548,34.514,19.593c3.954,2.157,7.908,4.494,12.402,7.011
		c16.718-7.011,42.961-16.718,65.25-18.695c0,0-20.312,12.942-30.379,37.391c16.541,8.987,34.874,18.513,54.466,28.4
		c19.954-13.124,45.479-26.426,67.947-28.76c0,0-13.842,14.379-25.703,35.411c-2.16,3.594-4.135,7.369-5.934,11.325
		c14.561,7.011,29.3,14.019,44.398,20.852c-29.838,5.392-59.857,13.481-90.057,25.884c-33.072,13.481-65.969,31.996-97.965,56.443
		c-7.368,5.571-14.561,11.504-21.75,17.795c-0.899,0.718-1.977,1.617-3.057,2.517c0,0,2.157,0.36,5.931,0.9
		c8.63,1.437,25.706,4.134,48.715,7.368c2.876,0.36,5.751,0.72,8.628,1.26c21.392,2.694,47.095,5.931,75.138,9.168
		c9.348,0.897,18.873,1.795,28.58,2.874c8.09,0.72,16.358,1.439,24.626,2.337c1.08-1.617,2.337-3.236,3.415-5.031
		c10.606-14.741,26.245-33.976,41.523-43.324c0,0-5.933,29.482-9.348,50.152c0,0.18,0,0.54-0.18,0.9c1.08,0,2.157,0,3.236,0.18
		c0.178-0.18,0.178-0.18,0.178-0.18c33.797,2.517,67.588,3.594,99.585,3.414c2.339-13.481,6.293-39.725,2.339-49.072
		c2.515,1.799,22.289,16.898,22.827,48.533c7.19-0.538,14.021-0.718,20.492-1.257c1.259-0.178,2.517-0.178,3.774-0.357
		c30.737-2.52,110.549-104.259,123.313-179.934C1748.71,364.743,1743.139,338.319,1718.69,324.658z M2144.529,760.921
		c-26.066-80.172-71.185-141.287-122.055-187.485c40.088,4.494,69.025,6.293,69.025,6.293
		c-44.398-61.477-102.998-98.685-160.879-121.154c14.201,0,23.189-0.36,23.189-0.36c-11.325-41.884-61.835-66.51-61.835-66.51
		c-80.352-40.625-128.167-14.199-148.657,3.597c-1.619,1.617-3.057,2.875-4.313,4.134c-22.289-51.771-274.125,86.281-213.91,86.82
		c21.032,0.18,82.868-6.291,99.585-7.19c-1.617,14.381,6.652,22.649,22.469,27.143c4.314,1.08,8.448,1.799,12.762,2.157
		c-6.108,8.271-21.929,30.92-43.679,67.228c-13.842,22.649-29.838,50.689-47.455,83.946c-21.212,40.085-44.579,87.9-68.665,142.904
		c-20.673,47.455-41.885,100.304-62.555,158.185c-39.727,111.446-68.847,237.634-85.923,320.681
		c-10.607,52.488-16.358,87.54-16.718,90.776c0,0,11.504,11.505,44.221,15.639c24.087,2.874,44.759-0.899,52.487-2.697
		c2.156-0.539,3.414-0.897,3.414-0.897c0.359-2.339,0.72-5.753,1.439-10.427c2.517-17.256,7.548-49.792,14.921-92.394
		c16.355-93.472,43.679-234.938,78.011-368.136c4.315-16.898,8.81-33.254,13.481-48.893
		c21.752-74.418,46.197-136.073,69.387-185.685c43.859-94.911,82.687-146.143,89.697-161.061
		c4.854,26.065,15.639,57.882,36.85,95.808c3.775,6.833,7.909,13.661,12.223,20.852c28.402-18.333,53.207-7.911,53.207-7.911
		c-9.708,1.799-29.658,19.775-39.546,29.302c17.616,26.604,37.391,54.107,58.24,80.889c0,0,0,0,0,0.18
		c0.72,0.718,1.26,1.617,1.978,2.515c0.18-0.36,0.359-0.36,0.539-0.717c15.279-14.381,36.489-35.593,36.489-35.593
		c0.72,17.975-6.469,41.524-12.942,58.6c-0.718,1.799-1.438,3.776-2.154,5.573c5.211,6.471,10.425,12.942,15.636,19.235
		c6.294,7.548,12.404,14.919,18.336,22.109c20.672,24.446,39.904,46.376,55.365,63.811c15.459,17.078,27.144,30.02,33.074,36.31
		c2.696,2.877,4.134,4.494,4.134,4.494c0.18-1.437,0.36-2.876,0.36-4.134c1.257-9.348,2.157-18.695,2.696-27.86
		c4.854-76.755-10.787-144.163-36.311-202.046c14.021,8.81,28.043,17.258,42.063,25.346c15.458-25.704,21.211-52.487,21.211-52.487
		c10.426,20.13,13.842,48.712,13.842,72.619c19.053,10.785,37.208,20.672,53.926,29.48c14.739-22.109,14.199-46.198,14.199-46.198
		c10.785,19.595,17.258,46.918,20.853,64.713c4.494,2.155,8.628,4.314,12.582,6.291c22.109,11.145,35.591,17.795,35.591,17.795
		C2151.539,784.108,2148.125,772.426,2144.529,760.921z"/>
	<path style="fill:#CCE3FF;" d="M1270.684,1205.6l0.382,2.96C1271.151,1208.033,1271.063,1206.999,1270.684,1205.6z M861.72,741.997
		c13.787,53.604,77.345,121.85,99.587,121.786c0.914,0.053,1.818-0.024,2.734,0.027c4.683-0.006,9.603-0.294,14.803-0.346
		c-1.542-22.766,11.748-34.822,13.445-36.269c-2.271,6.958,2.17,25.576,4.673,35.122c23.004-1.822,47.222-4.656,71.356-8.525
		c0,0,0,0,0.139,0.118c0.765-0.195,1.539-0.261,2.315-0.327c-0.151-0.248-0.173-0.506-0.184-0.635
		c-3.714-14.646-9.775-35.471-9.775-35.471c11.55,5.786,23.96,18.655,32.481,28.602c0.884,1.224,1.886,2.311,2.761,3.407
		c5.887-1.149,11.784-2.17,17.554-3.181c6.91-1.368,13.701-2.593,20.363-3.808c19.955-4.036,38.229-7.929,53.437-11.169
		c2.034-0.564,4.078-0.997,6.124-1.431c16.337-3.727,28.444-6.707,34.558-8.265c2.68-0.618,4.208-1.008,4.208-1.008
		c-0.831-0.58-1.66-1.162-2.35-1.622c-5.549-4.082-11.08-7.907-16.715-11.462c-24.484-15.617-49.253-26.917-73.841-34.588
		c-22.458-7.071-44.524-11.055-66.295-13.11c10.434-5.831,20.598-11.766,30.634-17.692c-1.534-2.733-3.184-5.325-4.954-7.776
		c-9.807-14.391-20.63-23.88-20.63-23.88c16.29,0.308,35.442,8.31,50.583,16.525c13.477-8.3,26.07-16.263,37.409-23.73
		c-8.725-16.956-24.111-25.017-24.111-25.017c16.138,0.062,35.589,5.438,48.031,9.456c3.076-2.083,5.775-4.003,8.485-5.794
		c14.766-9.971,23.607-16.184,23.607-16.184c-8.8-2.506-17.425-4.508-25.902-6.26c-59.791-11.581-114.094-4.501-161.009,11.449
		c16.985-23.688,28.112-41.287,28.112-41.287c-30.902,3.794-58.47,13.158-82.901,25.768c-18.309,9.621-34.903,21.048-49.731,33.363
		c4.96-9.007,7.977-14.856,7.977-14.856c-30.425-7.437-63.582,15.802-63.582,15.802C858.374,701.037,855.982,720.365,861.72,741.997
		z M590.76,1055.381c0,0,9.283-5.602,24.492-14.958c2.721-1.662,5.56-3.466,8.658-5.288c1.498-13.008,4.484-33.037,11.039-47.776
		c0,0,1.081,17.343,13.021,32.333c11.477-7.349,23.921-15.56,36.955-24.472c-1.457-17.18-0.745-37.928,5.519-53.03
		c0,0,5.768,18.896,18.443,36.425c9.582-6.667,19.143-13.593,28.681-20.779c-14.813,43.152-21.942,92.546-13.774,147.409
		c0.947,6.553,2.163,13.216,3.637,19.856c0.077,0.903,0.293,1.927,0.511,2.949c0,0,0.934-1.25,2.697-3.481
		c3.878-4.883,11.486-14.896,21.554-28.11c10.047-13.473,22.531-30.404,35.896-49.232c3.824-5.528,7.766-11.198,11.828-17.006
		c3.361-4.841,6.713-9.809,10.063-14.776c-0.625-1.248-1.263-2.624-1.888-3.874c-5.693-11.876-12.294-28.36-12.873-41.322
		c0,0,16.535,13.95,28.392,23.353c0.151,0.246,0.28,0.235,0.432,0.483c0.461-0.689,0.794-1.368,1.267-1.928
		c-0.011-0.129-0.011-0.129-0.011-0.129c13.35-20.518,25.884-41.488,36.921-61.68c-7.687-6.244-23.119-17.945-30.205-18.646
		c0,0,17.189-9.003,38.717,2.44c2.662-5.431,5.216-10.59,7.512-15.73c12.931-28.548,18.741-52.07,20.64-71.097
		c5.948,10.293,36.974,44.742,74.279,110.273c19.689,34.239,41.016,77.054,61.185,129.207c4.311,10.954,8.537,22.434,12.669,34.313
		c32.793,93.626,61.053,193.621,78.506,259.795c7.896,30.165,13.495,53.239,16.356,65.486c0.802,3.314,1.269,5.746,1.67,7.405
		c0,0,0.926,0.181,2.508,0.437c5.664,0.82,20.749,2.272,37.883-1.262c23.259-4.966,30.825-13.935,30.825-13.935
		c-0.456-2.304-6.726-27.142-17.549-64.215c-17.334-58.638-45.955-147.544-81.299-225.21
		c-18.383-40.334-36.849-77.019-54.598-109.86c-20.663-38.059-40.37-70.995-58.057-98.507c-14.688-22.825-27.893-42-39.221-57.432
		c-17.843-24.766-30.593-40.078-35.487-45.648c3.078-0.519,6.005-1.289,9.039-2.328c11.092-4.193,16.531-10.639,14.492-20.875
		c12.067-0.372,56.899,0.507,72.002-0.904c43.239-4.06-146.153-87.912-159.014-49.349c-0.981-0.829-2.09-1.644-3.352-2.708
		c-15.81-11.539-51.782-27.613-107.048,6.479c0,0-34.796,20.777-40.38,51.566c0,0,6.48-0.289,16.686-1.155
		c-40.224,19.676-80.067,49.987-108.225,96.873c0,0,20.686-3.058,49.219-8.731c-33.739,36.3-62.436,82.97-76.279,142.172
		C593.81,1037.688,592.069,1046.292,590.76,1055.381z"/>
	<path style="fill:#ED8435;" d="M1836.085,1086.973v638.745c0,44.698-36.228,80.927-80.914,80.927h-559.554
		c-38.063,0-68.921-30.857-68.921-68.922v-650.75c0-88.12,55.315-163.304,133.104-192.76c22.387-8.471,37.232-29.865,37.232-53.802
		v-63.253h368.716V841.7c0,23.155,14.313,43.992,36.018,52.053C1780.199,922.887,1836.085,998.394,1836.085,1086.973z"/>
	<path style="fill:#F99746;" d="M1637.049,1086.973v638.745c0,44.698-36.24,80.927-80.927,80.927h-360.505
		c-38.063,0-68.921-30.857-68.921-68.922v-650.75c0-88.12,55.315-163.304,133.104-192.76c22.387-8.471,37.232-29.865,37.232-53.802
		v-63.253h169.68V841.7c0,23.155,14.3,43.992,36.005,52.053C1581.15,922.887,1637.049,998.394,1637.049,1086.973z"/>
	<path style="fill:#3D5899;" d="M1684.253,726.927v101.056h-405.725V726.927c0-1.625,0.149-3.212,0.434-4.75
		c2.232-12.229,12.948-21.494,25.81-21.494h353.237c12.874,0,23.577,9.265,25.81,21.494
		C1684.104,723.715,1684.253,725.302,1684.253,726.927z"/>
	<path style="fill:#2C3A64;" d="M1684.253,726.927v101.056h-405.725V726.927c0-1.625,0.149-3.212,0.434-4.75h404.856
		C1684.104,723.715,1684.253,725.302,1684.253,726.927z"/>
	<rect x="1126.696" y="1117.831" style="fill:#F9D6A7;" width="709.389" height="381.999"/>
	<rect x="1126.696" y="1117.831" style="fill:#FFE0B3;" width="510.353" height="381.999"/>
	<g>
		<g>
			<path style="fill:#2C3A64;" d="M1189.063,1164.011c18.736-3.011,43.159-5.018,68.586-5.018c43.159,0,71.262,8.029,92.674,24.088
				c23.42,17.397,38.141,45.166,38.141,84.979c0,43.159-15.725,72.935-37.137,91.336c-23.754,19.739-60.222,29.107-104.384,29.107
				c-26.431,0-45.501-1.673-57.88-3.346V1164.011z M1239.917,1347.687c4.349,1.004,11.709,1.004,17.732,1.004
				c46.504,0.335,76.95-25.093,76.95-78.957c0-46.839-27.434-71.597-71.597-71.597c-11.041,0-18.735,1.003-23.084,2.007V1347.687z"
				/>
		</g>
		<g>
			<path style="fill:#2C3A64;" d="M1469.19,1192.266h10.452l11.419,31.198l11.498-31.198h10.213l-17.369,42.777h-8.765
				L1469.19,1192.266z"/>
			<path style="fill:#2C3A64;" d="M1521.209,1176.505h10.454v9.247h-10.454V1176.505z M1521.611,1192.266h9.73v42.456h-9.73
				V1192.266z"/>
			<path style="fill:#2C3A64;" d="M1546.055,1222.982v-22.354h-5.388v-8.362h5.388v-11.66h9.729v11.66h11.418v8.362h-11.418v20.826
				c0,3.779,1.929,5.307,5.227,5.307c2.171,0,4.101-0.482,6.03-1.447v7.961c-2.412,1.366-5.146,2.171-8.765,2.171
				C1551.12,1235.445,1546.055,1232.31,1546.055,1222.982z"/>
			<path style="fill:#2C3A64;" d="M1602.979,1234.722v-5.227c-2.894,3.457-7.316,6.111-13.749,6.111
				c-8.041,0-15.117-4.584-15.117-13.269c0-9.407,7.316-13.911,17.207-13.911c5.146,0,8.443,0.725,11.74,1.77v-0.804
				c0-5.869-3.699-9.086-10.453-9.086c-4.744,0-8.282,1.045-12.142,2.653l-2.654-7.8c4.665-2.09,9.247-3.538,16.163-3.538
				c12.543,0,18.654,6.594,18.654,17.932v25.168H1602.979z M1603.222,1216.951c-2.493-0.965-5.951-1.689-9.729-1.689
				c-6.111,0-9.73,2.494-9.73,6.756c0,4.021,3.619,6.271,8.202,6.271c6.433,0,11.258-3.619,11.258-8.926V1216.951z"/>
			<path style="fill:#2C3A64;" d="M1624.203,1192.266h9.73v6.433c2.733-3.78,6.432-7.317,12.945-7.317
				c6.111,0,10.373,2.976,12.624,7.478c3.458-4.502,7.961-7.478,14.394-7.478c9.247,0,14.876,5.87,14.876,16.243v27.098h-9.73
				V1210.6c0-6.755-3.136-10.374-8.603-10.374c-5.308,0-9.087,3.699-9.087,10.534v23.962h-9.729v-24.204
				c0-6.593-3.217-10.292-8.604-10.292c-5.388,0-9.086,4.021-9.086,10.614v23.882h-9.73V1192.266z"/>
			<path style="fill:#2C3A64;" d="M1700.746,1176.505h10.453v9.247h-10.453V1176.505z M1701.147,1192.266h9.73v42.456h-9.73
				V1192.266z"/>
			<path style="fill:#2C3A64;" d="M1723.581,1192.266h9.729v6.593c2.734-4.021,6.675-7.478,13.268-7.478
				c9.57,0,15.117,6.433,15.117,16.323v27.018h-9.729V1210.6c0-6.595-3.298-10.374-9.087-10.374c-5.629,0-9.569,3.94-9.569,10.534
				v23.962h-9.729V1192.266z"/>
		</g>
		<g>
			<rect x="1482.873" y="1277.744" style="fill:#2C3A64;" width="278.821" height="9.967"/>
			<rect x="1482.873" y="1305.155" style="fill:#2C3A64;" width="91.24" height="9.966"/>
			<rect x="1589.775" y="1305.155" style="fill:#2C3A64;" width="91.239" height="9.966"/>
			<rect x="1482.873" y="1343.53" style="fill:#2C3A64;" width="278.821" height="9.966"/>
			<rect x="1482.873" y="1370.941" style="fill:#2C3A64;" width="91.24" height="9.966"/>
			<rect x="1589.775" y="1370.941" style="fill:#2C3A64;" width="91.239" height="9.966"/>
		</g>
	</g>
	<path style="opacity:0.4;fill:#FFE0B3;" d="M1273.771,1008.709c-8.71,9.991-13.995,28.059-23.626,34.783
		c-18.42,12.862-35.085,12.9-47.455,0.53c-18.838-18.838-12.328-58.553,14.968-85.849s65.041-31.837,83.879-12.999
		c14.128,14.128,11.94,29.079-1.514,40.563C1294.076,990.815,1284.928,995.911,1273.771,1008.709z"/>
	<path style="opacity:0.9;fill:#FFFFFF;" d="M659.425,590.684c0,0,21.15-58.052,71.728-51.602c0,0,73.43-96.757,151.733-12.9
		c0,0,83.235-20.778,144.878,17.99c41.099,25.848,54.674,52.963,54.674,52.963L659.425,590.684z"/>
	<path style="opacity:0.9;fill:#FFFFFF;" d="M2170.839,641.087c0,0,12.376-31.583,41.97-28.074c0,0,42.964-52.641,88.78-7.019
		c0,0,48.702-11.304,84.771,9.788c24.047,14.063,31.99,28.815,31.99,28.815L2170.839,641.087z"/>
	<path style="opacity:0.9;fill:#FFFFFF;" d="M930.92,368.957c0,0,11.449-34.177,38.826-30.379c0,0,39.747-56.963,82.132-7.595
		c0,0,45.055-12.232,78.422,10.591c22.247,15.217,29.594,31.18,29.594,31.18L930.92,368.957z"/>
	<g>
		<path style="fill:#F99746;" d="M2106.039,838.419c0,0,21.243-29.17,33.684-29.17c12.441,0,42.157,0.548,51.695,10.965
			c9.538,10.416,12.182,25.218,9.764,31.797C2198.764,858.589,2106.039,838.419,2106.039,838.419z"/>
		<path style="fill:#ED7D2B;" d="M2039.727,855.975c4.261-19.862,22.99-29.284,58.652-31.31c17.455-0.992,36.775,0.937,65.185,1.842
			c63.426,2.021,101.466,46.535,100.855,77.666c-0.375,19.127-27.653,30.859-60.182,33.902c-18.917,1.77-40.47-1.803-63.655-4.434
			C2068.894,925.505,2033.381,885.559,2039.727,855.975z"/>
		<g>
			<path style="fill:#233862;" d="M2137.841,896.916c0,0-25.891,15.251-10.003,44.802c0,0-22.667-4.148-27.563-10.917
				c0,0,0.57,2.818,1.41,4.24c0,0-20.839-4.723-27.656-13.417c-6.817-8.695,26.62-112.862,80.789-85.886
				c0,0,49.533,9.19,30.133,64.184c-19.401,54.993-1.066,59.85-1.066,59.85s-5.765,1.163-8.227,0.512c0,0-3.234-2.326-3.418-4.502
				c0,0-0.117,3.313,0.543,4.551c0,0-20.289-3.366-28.193-13.453C2136.686,936.793,2131.951,907.762,2137.841,896.916z"/>
			<path style="fill:#FFB27D;" d="M2100.458,985.451c-0.034,0.011-0.057,0.023-0.092,0.035
				C2100.205,985.462,2100.239,985.451,2100.458,985.451z"/>
			<path style="fill:#FFB27D;" d="M2165.129,980.375c6.354,1.658-60.787,5.111-64.655,5.111
				c2.764-1.243,11.191-27.906,13.815-38.129c2.625-9.947,4.836-20.585,5.526-24.314c0.138-0.829,0.276-1.244,0.276-1.244
				l43.656,2.763l2.623,0.138c-1.657,5.94-2.762,11.604-3.592,16.854c0,0.69-0.138,1.382-0.276,2.073
				c-0.138,0.552-0.138,1.243-0.138,1.934c-0.414,4.559-0.552,13.677-0.139,21.413
				C2162.642,974.021,2163.609,979.961,2165.129,980.375z"/>
			<path style="fill:#233862;" d="M2114.003,917.352c0,0-7.094-22.495-5.658-39.745c1.024-12.315,18.557-54.327,60.706-36.449
				c0,0,12.393,4.623,22.215,15.867c7.811,8.943,17.867,26.447-7.555,60.428l-7.389,11.796L2114.003,917.352z"/>
			<path style="fill:#ED975D;" d="M2162.779,941.555c0,0.69-0.138,1.382-0.276,2.073c-0.138,0.552-0.138,1.243-0.138,1.934
				c-0.414,4.559-0.552,13.677-0.139,21.413c-29.701-9.394-42.411-43.932-42.411-43.932
				C2132.802,923.457,2149.656,932.437,2162.779,941.555z"/>
			<path style="fill:#FFB27D;" d="M2165.55,954.915c0,0-55.293-13.667-46.252-47.969c9.041-34.302,7.993-59.169,43.679-51.893
				c35.686,7.275,39.066,22.165,38.834,34.349C2201.578,901.585,2180.166,957.586,2165.55,954.915z"/>
			<path style="fill:#233862;" d="M2188.272,860.851c0,0-25.725,36.241-50.432,36.065c-24.708-0.175-33.101-9.03-33.101-9.03
				s21.476-9.398,31.672-33.029C2136.412,854.857,2181.972,838.692,2188.272,860.851z"/>
			<path style="fill:#233862;" d="M2183.672,863.128c0,0,8.879,11.962,9.312,21.421c0.433,9.459-3.093,27.763,2.31,28.539
				c0,0,18.596-24.339,9.928-43.187C2196.031,849.915,2183.672,863.128,2183.672,863.128z"/>
			<path style="fill:#233862;" d="M2185.403,865.041c0,0-21.894,39.287-54.653,45.053c0,0,36.041-18.157,45.882-45.312
				C2186.473,837.625,2185.403,865.041,2185.403,865.041z"/>
			<path style="fill:#FFFFFF;" d="M2156.921,932.924c0,0,0.69,5.222,4.021,6.457c3.33,1.234,12.175,3.472,13.071,2.918
				c0.896-0.554,4.21-4.625,4.21-4.625S2164.287,932.33,2156.921,932.924z"/>
			<path style="fill:#FFB27D;" d="M2136.275,1457.646c-0.703,2.937-1.405,5.839-2.096,8.718
				c-4.17,17.321-8.051,33.388-10.492,46.827c-3.179,17.494-3.928,30.508,0.242,35.979c17.171,22.515,0,201.185,0,201.185
				l-19.544,20.132c0,0-33.975-176.401-43.188-204.042c-4.192-12.564-10.296-66.232-15.686-121.017
				c-0.276-2.741-0.542-5.482-0.807-8.224c-0.933-9.581-1.671-19.146-2.694-28.446c-9.352-84.9,3.469-156.172,3.469-156.172
				s24.113,34.613,56.855,31.792c19.29-1.682,37.43,4.457,46.389,28.158C2161.773,1347.018,2148.553,1406.559,2136.275,1457.646z"/>
			<path style="fill:#ED975D;" d="M2136.275,1457.646c-31.733-41.436-67.447-126.141-81.117-182.549
				c-2.615-28.044,22.497,17.699,47.178,9.28c19.29-1.682,37.43,4.457,46.389,28.158
				C2161.773,1347.018,2148.553,1406.559,2136.275,1457.646z"/>
			<path style="fill:#FFB27D;" d="M2233.92,1116.939l131.588,33.989v15.364c0,0-130.949-1.535-139.395-16.123
				S2233.92,1116.939,2233.92,1116.939z"/>
			<path style="fill:#ED975D;" d="M2063.55,1196.785c-46.487-11.829-97.589-83.949-97.589-83.949l13.09-11.354
				c13.552,15.978,69.898,43.495,69.898,43.495c-0.302-14.622,0.081-27.958,1.004-40.096
				c6.252-82.498,37.353-109.983,45.842-116.015c1.369-0.979,2.155-1.388,2.155-1.388s0.032,0.599,0.08,1.735
				c0.124,2.45,0.35,7.39,0.579,14.168C2100.335,1053.874,2102.396,1206.682,2063.55,1196.785z"/>
			<path style="fill:#FFB27D;" d="M2273.913,1161.681c0,0-47.285-1.113-57.895-18.922c-5.531-9.284-31.563-67.705-31.563-67.705
				s-11.01,44.066-14.816,66.563c-3.26,19.265,5.211,36.888,5.211,36.888s-50.672,35.362-104.196,3.117
				c0,0-28.924-111.482-17.963-133.244c2.256-4.478,11.284-10.351,13.58-23.777c4.223-24.699,13.911-36.727,36.749-43.291
				c3.052-0.878,57.902-1.992,62.041-0.953c7.042,1.768,35.22,10.657,39.347,14.683c8.1,7.902,16.577,24.89,26.274,57.388
				c4.56,15.283,10.995,45.634,19.509,60.738C2265.271,1139.922,2285.325,1149.617,2273.913,1161.681z"/>
			<path style="fill:#FFB27D;" d="M2365.508,1150.929c0,0,24.143-11.892,33.74-13.043c9.597-1.151,25.72-1.536,25.72,0
				c0,1.535-17.274,12.267-21.882,13.043c-4.606,0.776-13.436,7.303-10.748,8.071c2.687,0.768,16.891-2.496,17.083,0
				c0.191,2.495-8.638,4.03-10.173,5.95c-1.536,1.919-6.91,4.223-15.548,3.07c-8.638-1.151-18.192-1.728-18.192-1.728V1150.929z"/>
			<path style="fill:#ED975D;" d="M1979.025,1101.438l-13.121,11.448c0,0-23.313-17.031-24.43-24.011v-0.698
				c0-7.26,14.797-22.337,27.081-22.896c1.257,0,2.374,0.28,3.351,0.839c6.547,4.093,7.322,21.149,7.269,29.976
				C1979.155,1099.314,1979.025,1101.438,1979.025,1101.438z"/>
			<path style="fill:#FFB27D;" d="M2126.079,1782.711c-6.209,1.118-14.126,8.636-14.322,9.434
				c-2.975,12.092-40.694,9.482-40.694,9.482c-1.998-0.998-7.311-3.581-5.688-5.179c4.005-3.946,13.228-7.166,23.665-15.169
				c5.927-4.544,8.102-15.063,10.272-21.138c1.384-3.87,0.79-16.421,0.79-16.421c0.41-0.213,3.002,8.982,15.244,11.528
				c6.325,1.309,8.947-11.528,8.947-11.528s16.579,10.477,18.677,25.063C2143.961,1775.682,2133.708,1781.338,2126.079,1782.711z"/>
			<path style="fill:#FFB27D;" d="M2391.139,1626.55c0.366,6.298,3.26,12.001,10.508,15.646
				c11.126,5.594,22.413,35.208,11.568,27.766c-10.074-6.914-40.357-14.402-46.127-17.285c-3.678-1.837-15.806-8.079-15.806-8.079
				c-0.162-0.433-11.894-7.235-7.9-19.084c2.057-6.122,1.457-7.591,1.457-7.591s6.071,5.471,9.234,3.111
				c6.54-4.879,18.188-12.396,28.118-12.623C2389.158,1608.251,2390.689,1618.812,2391.139,1626.55z"/>
			<path style="fill:#FFE0B3;" d="M2172.588,982.519l-5.009-1.482c-0.886,0.48-71.241,74.954-71.032,94.59
				c0,0,32.036,19.554,68.779,10.338c0,0,3.401-22.812-7.744-49.982c-7.773-18.946-1.682-40.829,14.642-53.196
				C2172.445,982.619,2172.571,982.527,2172.588,982.519z"/>
			<path style="fill:#FFE0B3;" d="M2103.02,981.309c0,0-4.072,0.957-5.239,1.687c-0.472,0.294-17.651,27.184-23.21,32.641
				c-37.347,36.666-23.512,64.77-23.512,64.77c11.016,4.023,34.573-3.236,34.573-3.236
				C2073.151,1028.843,2102.901,981.432,2103.02,981.309z"/>
			<g>
				<path style="fill:#FFE0B3;" d="M2178.702,1098.925c-66.87-24.544-126.065-9.961-126.683-9.841l-2.151-12.335
					c0.626-0.123,63.404-12.001,131.245,12.898L2178.702,1098.925z"/>
			</g>
			<path style="fill:#FFE0B3;" d="M2174.85,1178.504c0,0,65.313,63.272,30.348,134.982c0,0-6.321-64.4-59.659-56.499
				c-48.842,7.235-48.993,65.446-48.993,65.446s-49.484-46.142-51.064-69.848l25.173-70.965
				C2070.653,1181.621,2126.723,1194.843,2174.85,1178.504z"/>
			<path style="fill:#FFB27D;" d="M2365.504,1623.383l-6.15,25.395c0,0-178.002-91.938-201.023-109.593
				c-9.248-7.094-21.467-45.617-32.788-89.196c-16.86-64.954-32.95-131.355-32.95-131.355s24.6-119.424,113.198-68.164
				c26.65,15.419,13.544,124.027,9.167,176.705c-2.914,35.344-5.01,63.917,8.246,71.322
				c25.855,14.431,101.728,80.905,125.739,126.638L2365.504,1623.383z"/>
			<ellipse style="fill:#ED975D;" cx="2091.212" cy="1156.321" rx="1.976" ry="4.263"/>
		</g>
		<path style="fill:#ED7D2B;" d="M2096.545,857.657c0,0,8.644-14.104,32.051-10.505c23.407,3.599,39.459,1.381,51.064,5.627
			s21.257,11.997,25.561,17.122l5.242-19.236c0,0-61.021-29.046-82.57-22.253C2106.342,835.205,2096.585,853.405,2096.545,857.657z"
			/>
	</g>
	<g>
		<path style="fill:#2C3A64;" d="M905.576,1060.7c0,0,3.045-33.194-34.042-33.194c0,0,11.238,3.049,17.052,9.146
			c0,0-23.655-13.888-49.397,7.452c-25.743,21.339-9.748,74.855-17.576,85.018c-7.828,10.161-38.313,12.193-34.586,45.049
			c3.726,32.855,96.75,74.007,90.776,101.189c0,0,36.455-53.588,10.387-78.044c0,0,12.706,11.968,14,26.194
			c0,0,3.448-27.775-14.226-36.658c-15.64-7.862-28.452-36.614-27.097-41.753C862.221,1139.96,905.576,1060.7,905.576,1060.7z"/>
		<path style="fill:#FFB27D;" d="M875.507,1231.728c0,0,14.676,110.927,24.185,124.232c15.044,21.052,78.136,67.594,78.136,67.594
			l-21.813,7.842c0,0-69.819-30.373-89.564-58.692c-18.009-25.828-35.43-127.539-35.43-127.539L875.507,1231.728z"/>
		<g>
			<path style="fill:#FFA412;" d="M860.486,1470.967v277.09c0,29.891,24.229,54.12,54.12,54.12h447.427
				c29.89,0,54.129-24.229,54.129-54.12v-52.011c-12.71-4.119-22.95-15.125-22.95-28.61c0-14.197,7.392-30.999,22.95-32.819
				v-160.675c-4.841-1.288-9.447-3.992-12.891-7.733c-7.301-7.923-6.166-21.156,0.46-29.755
				c-9.934-11.979-24.924-19.605-41.699-19.605H914.606C884.716,1416.848,860.486,1441.077,860.486,1470.967z"/>
			<path style="fill:#FFB93E;" d="M1082.438,1460.231v298.562c0,23.959,19.425,43.384,43.384,43.384h290.341v-106.131
				c-12.71-4.119-22.95-15.125-22.95-28.61c0-14.197,7.392-30.999,22.95-32.819v-32.766c-5.012-0.487-9.979-2.073-14.63-4.525
				c-14.369-7.581-25.654-23.437-25.654-40.888c0-20.543,19.768-35.776,40.284-37.29v-45.206c-4.841-1.288-9.447-3.992-12.891-7.733
				c-7.301-7.923-6.166-21.156,0.46-29.755c0.82-1.064,1.722-2.056,2.704-2.957c2.849-2.623,6.211-4.345,9.727-5.191v-11.457
				h-290.341C1101.862,1416.848,1082.438,1436.272,1082.438,1460.231z"/>
			<g>
				<path style="fill:#FFA412;" d="M1245.833,1566.476c0,17.451,11.286,33.307,25.654,40.888c5.679,2.992,11.826,4.696,17.956,4.696
					c9.942,0,19.02-3.696,25.924-9.798c0.018-0.019,0.027-0.027,0.045-0.046c8.122-7.175,13.242-17.676,13.242-29.367
					c0-21.66-17.551-43.781-39.211-43.781C1267.792,1529.067,1245.833,1544.824,1245.833,1566.476z"/>
				<path style="opacity:0.5;fill:#FFB93E;" d="M1252.504,1573.867c0,13.773,8.122,26.402,18.983,33.496
					c5.679,2.992,11.826,4.696,17.956,4.696c9.942,0,19.02-3.696,25.924-9.798c0.018-0.019,0.027-0.027,0.045-0.046
					c5.48-6.03,8.825-14.043,8.825-22.832c0-18.749-15.207-37.913-33.956-37.913
					C1271.523,1541.471,1252.504,1555.118,1252.504,1573.867z"/>
			</g>
			<g>
				<path style="fill:#FFA412;" d="M1361.151,1496.551c7.18-6.608,9.43-17.256,7.108-26.039c-0.919-3.47-2.546-6.645-4.868-9.167
					c-3.765-4.091-8.723-6.426-13.849-6.956c-0.014,0-0.021,0-0.036-0.001c-6.028-0.624-12.288,1.246-17.098,5.673
					c-8.912,8.203-11.367,23.802-3.164,32.714C1337.443,1501.684,1352.242,1504.751,1361.151,1496.551z"/>
				<path style="opacity:0.5;fill:#FFB93E;" d="M1361.666,1491.008c5.667-5.217,7.787-13.341,6.593-20.496
					c-0.919-3.47-2.546-6.645-4.868-9.167c-3.765-4.091-8.723-6.426-13.849-6.956c-0.014,0-0.021,0-0.036-0.001
					c-4.557,0.028-9.12,1.688-12.736,5.016c-7.714,7.101-9.841,20.614-2.74,28.329
					C1341.134,1495.45,1353.951,1498.107,1361.666,1491.008z"/>
			</g>
			<g>
				<path style="fill:#FFA412;" d="M1168.063,1508.497c7.897,9.083,20.946,12.228,31.854,9.672c4.31-1.013,8.281-2.908,11.471-5.682
					c5.175-4.499,8.227-10.53,9.059-16.831c0.001-0.018,0.001-0.026,0.003-0.044c0.98-7.409-1.107-15.192-6.398-21.277
					c-9.802-11.273-28.947-14.845-40.22-5.043C1162.563,1479.09,1158.265,1497.228,1168.063,1508.497z"/>
				<path style="opacity:0.5;fill:#FFB93E;" d="M1174.879,1509.325c6.233,7.169,16.175,10.066,25.038,8.844
					c4.31-1.013,8.281-2.908,11.471-5.682c5.175-4.499,8.227-10.53,9.059-16.831c0.001-0.018,0.001-0.026,0.003-0.044
					c0.124-5.618-1.762-11.303-5.739-15.877c-8.484-9.759-25.071-12.852-34.83-4.367
					C1170.118,1483.857,1166.395,1499.566,1174.879,1509.325z"/>
			</g>
			<g>
				<path style="fill:#FFA412;" d="M1156.148,1650.98c5.405,14.35,19.595,23.892,33.757,25.676
					c5.597,0.702,11.179,0.199,16.219-1.699c8.175-3.079,14.495-8.929,18.283-16.085c0.009-0.021,0.014-0.031,0.023-0.052
					c4.456-8.415,5.414-18.635,1.793-28.248c-6.708-17.812-27.99-30.565-45.801-23.857
					C1162.619,1613.42,1149.443,1633.177,1156.148,1650.98z"/>
				<path style="opacity:0.5;fill:#FFB93E;" d="M1163.923,1654.992c4.265,11.325,14.854,19.194,25.982,21.664
					c5.597,0.702,11.179,0.199,16.219-1.699c8.175-3.079,14.495-8.929,18.283-16.085c0.009-0.021,0.014-0.031,0.023-0.052
					c2.639-6.655,2.907-14.28,0.186-21.507c-5.807-15.417-24.246-26.466-39.662-20.659
					C1169.529,1622.463,1158.116,1639.575,1163.923,1654.992z"/>
			</g>
			<g>
				<path style="fill:#FFA412;" d="M1210.454,1730.026c-1.948,9.112,2.176,18.651,8.833,24.213c2.631,2.196,5.651,3.772,8.852,4.456
					c5.191,1.109,10.344,0.193,14.63-2.223c0.011-0.008,0.017-0.012,0.028-0.019c5.042-2.841,8.887-7.753,10.191-13.857
					c2.417-11.311-4.278-24.819-15.588-27.237C1226.094,1712.943,1212.87,1718.721,1210.454,1730.026z"/>
				<path style="opacity:0.5;fill:#FFB93E;" d="M1213.112,1734.631c-1.537,7.191,1.294,14.692,6.174,19.608
					c2.631,2.196,5.651,3.772,8.852,4.456c5.191,1.109,10.344,0.193,14.63-2.223c0.011-0.008,0.017-0.012,0.028-0.019
					c3.535-2.537,6.175-6.349,7.156-10.938c2.092-9.79-3.709-21.494-13.5-23.587
					C1226.658,1719.837,1215.204,1724.84,1213.112,1734.631z"/>
			</g>
			<g>
				<path style="fill:#FFA412;" d="M1110.275,1526.475c-5.675,5.823-7.066,14.784-4.736,21.987c0.922,2.846,2.419,5.413,4.464,7.407
					c3.318,3.233,7.549,4.952,11.838,5.161c0.012,0,0.018,0,0.03-0.001c5.044,0.247,10.167-1.592,13.97-5.493
					c7.045-7.229,8.382-20.318,1.154-27.362C1129.77,1521.132,1117.317,1519.249,1110.275,1526.475z"/>
				<path style="opacity:0.5;fill:#FFB93E;" d="M1110.098,1531.11c-4.479,4.596-5.876,11.451-4.559,17.352
					c0.922,2.846,2.419,5.413,4.464,7.407c3.318,3.233,7.549,4.952,11.838,5.161c0.012,0,0.018,0,0.03-0.001
					c3.79-0.229,7.512-1.816,10.371-4.749c6.098-6.257,7.255-17.597,0.999-23.694
					C1126.98,1526.484,1116.195,1524.854,1110.098,1531.11z"/>
			</g>
			<g>
				<path style="fill:#FFA412;" d="M1343.424,1769.041c15.278,1.31,30.005-7.381,37.72-19.391c3.046-4.746,5-10.001,5.459-15.366
					c0.746-8.704-1.808-16.929-6.632-23.431c-0.015-0.018-0.021-0.026-0.036-0.043c-5.672-7.648-14.481-12.92-24.716-13.797
					c-18.963-1.626-39.646,12.078-41.271,31.041C1312.324,1747.01,1324.47,1767.415,1343.424,1769.041z"/>
				<path style="opacity:0.5;fill:#FFB93E;" d="M1350.396,1763.756c12.058,1.033,23.723-5.129,30.749-14.105
					c3.046-4.746,5-10.001,5.459-15.366c0.746-8.704-1.808-16.929-6.632-23.431c-0.015-0.018-0.021-0.026-0.036-0.043
					c-4.868-5.251-11.632-8.78-19.326-9.439c-16.414-1.407-34.332,10.467-35.739,26.881
					C1323.462,1744.674,1333.982,1762.349,1350.396,1763.756z"/>
			</g>
		</g>
		<path style="fill:#F99746;" d="M608.656,1421.455c0.243,0.438,0.503,0.892,0.762,1.345c6.063,10.538,19.972,36.362,35.292,64.619
			c7.247,13.407,14.833,27.364,22.032,40.496c12.401,22.663,23.685,42.847,30.267,53.514c6.695,10.846,11.623,18.465,13.617,21.513
			c0.017,0.017,0.017,0.017,0.017,0.017c0.6,0.939,0.729,2.042,0.648,3.145c-0.697,9.564-0.503,19.064,0.437,28.419
			c9.241,91.935,71.233,141.201,71.233,141.201l18.432,2.724c0,0-26.084-96.637-33.768-151.269
			c-1.297-9.257-1.864-16.764-1.411-21.658c1.362-14.234-1.167-35.131-5.949-59.124c-8.511-42.636-24.122-94.966-37.691-136.856
			c-0.859-2.675-26.781-96.441-26.781-96.441c-21.756,19.016-101.111,26.862-101.111,26.862S581.227,1372.675,608.656,1421.455z"/>
		<path style="fill:#33507F;" d="M840.08,1801.769H763.15c0,0-1.844-11.725,2.174-20.619c3.85-8.536,9.338-8.808,0.701-22.187
			c4.888,5.033,20.602,7.115,31.724,5.619c1.363,2.209,8.785,17.031,13.337,20.301
			C816.114,1788.496,838.531,1787.209,840.08,1801.769z"/>
		<path style="fill:#ED7D2B;" d="M608.656,1421.455c0.243,0.438,0.503,0.892,0.762,1.345c6.063,10.538,38.853,71.103,54.173,99.359
			c-17.752-73.033-5.405-146.065-5.405-146.065L608.656,1421.455z"/>
		<path style="fill:#2C3A64;" d="M895.084,1056.033c0.503-2.021-43.938,20.085-46.191,22.584
			c-20.842,23.119-14.899,53.29-2.974,53.579c7.649,0.187,6.167,12.902,6.167,12.902l85.209-36.046
			C937.295,1109.053,927.035,1049.227,895.084,1056.033z"/>
		<path style="fill:#F9DDBF;" d="M866.45,1202.86c0,0,11.348,11.753,11.348,46.924c0,0-15.635,24.682-56.186,30.93
			C821.612,1280.714,856.476,1202.84,866.45,1202.86z"/>
		<path style="fill:#F99746;" d="M668.628,1345.688l0.26-14.388c-28.667,3.614-98.843-34.257-98.843-34.257
			s-29.99,19.947-34.096,76.912c-2.004,27.805-14.681,145.392-16.083,180.504c-0.511,12.726-0.681,21.808-0.739,25.437
			c0.006,0.019,0.005,0.027,0.004,0.036c-0.017,1.107-0.537,2.085-1.219,2.961c-5.931,7.539-11.078,15.526-15.533,23.811
			c-43.743,81.386-20.868,191.974-20.868,191.974l10.158-2.582c0,0,36.987-114.642,61.161-164.23
			c4.102-8.411,7.83-14.952,10.948-18.74c9.089-11.04,18.674-29.788,28.121-52.35
			C609.756,1518.118,668.628,1345.688,668.628,1345.688z"/>
		<path style="fill:#33507F;" d="M542.687,1801.769h-76.929c0,0-1.844-11.725,2.174-20.619c3.85-8.536,9.881-12.415,8.437-22.742
			c4.888,5.033,12.855,10.669,23.977,9.173c1.362,2.209,8.796,14.033,13.348,17.303
			C518.722,1788.496,541.139,1787.209,542.687,1801.769z"/>
		<path style="fill:#F9DDBF;" d="M816.419,1297.234c-10.333,1.763,1.688,9.977-12.525,11.521
			c-20.228,2.209-41.113,3.72-52.054,8.082c-3.99,1.592-6.659,3.557-7.492,6.07c-4.742,14.26-34.776,38.763-34.776,38.763
			c-133.956-6.097-139.527-64.627-139.527-64.627c86.94-84.437,166.875-134.229,227.913-140.82
			c10.446-1.128,23.655,5.501,33.063,9.689c21.379,9.519,35.43,36.948,35.43,36.948S855.682,1290.537,816.419,1297.234z"/>
		<path style="fill:#F2CCAA;" d="M803.894,1308.755c-20.228,2.209-41.113,3.72-52.054,8.082
			c-4.471-66.809,27.057-117.06,27.057-117.06S799.463,1283.474,803.894,1308.755z"/>
		<path style="fill:#FFB27D;" d="M821.346,1188.467c0,0-50.869-2.778-59.908,29.159c-9.039,31.938,16.958,159.417,22.56,172.574
			c10.2,23.954,59.855,92.32,59.855,92.32l18.259-5.562c0,0-33.109-104.442-40.5-114.776
			C810.008,1345.958,836.572,1202.362,821.346,1188.467z"/>
		<path style="fill:#FFB27D;" d="M862.113,1476.959c0,0,0.94,8.1,4.362,12.279c3.422,4.181,13.378,14.298,13.553,20.22
			c0,0-0.502,2.63-2.637,2.149c-2.135-0.48-9.549-7.821-13.354-7.295c0,0,2.03,11.87,4.043,15.211
			c2.014,3.341,0.412,17.518-0.797,20.402c-1.208,2.885-16.049-15.486-22.15-23.691c-6.102-8.204-0.098-41.499-0.098-41.499
			L862.113,1476.959z"/>
		<path style="fill:#F9DDBF;" d="M751.406,1260.334c0.133,0.749,48.138,8.832,78.164-6.408c0,0,25.084-78.581-10.762-74.822
			c-35.847,3.76-57.073,15.051-57.976,32.212C759.929,1228.478,751.406,1260.334,751.406,1260.334z"/>
		<path style="fill:#FFB27D;" d="M831.02,1165.912c0,0,14.144,52.771,35.43,36.948c-0.6-2.546,3.112-9.954,7.49-17.476
			c5.593-9.613,12.255-19.438,12.255-19.438l-28.791-25.226l-1.719-1.507C846.867,1154.615,838.218,1160.66,831.02,1165.912z"/>
		<path style="fill:#ED985F;" d="M886.193,1165.957c0,0-6.656,9.803-12.25,19.428c-17.895-11.031-17.915-33.187-16.536-44.663
			L886.193,1165.957z"/>
		<path style="fill:#FFB27D;" d="M886.991,1178.596c0,0-43.451-24.178-27.978-51.006c15.474-26.827,20.287-48.016,48.683-33.713
			c28.397,14.303,27.835,27.621,24.848,37.832C929.558,1141.92,898.692,1184.193,886.991,1178.596z"/>
		<path style="fill:#2C3A64;" d="M939.884,1116.063c-1.99-11.912-8.041-13.049-12.26-12.254
			c-16.047-26.537-42.263-16.18-42.263-16.18c-14.002,17.571-34.247,20.57-34.247,20.57s5.043,9.382,25.817,15.188
			c6.346,1.774,13.548,0.7,20.495-1.638c-14.413,8.036-29.486,11.115-29.486,11.115c27.377,2.505,53.426-22.524,56.127-25.201
			c1.263,3.878,3.479,11.999,2.152,17.936c-1.802,8.068-8.964,22.681-4.591,24.571
			C921.628,1150.171,942.869,1133.926,939.884,1116.063z"/>
	</g>
	<g>
		<path style="fill:#5A91E2;" d="M1554.646,1738.663c0,0,25.446-8.153,28.723-3.703c0,0-2.487,2.919-7.692,5.982
			c-7.608,4.479-14.927,6.36-27.38,16.655c-18.927,15.646-49.904,21.123-49.904,21.123L1554.646,1738.663z"/>
		<path style="fill:#699DEE;" d="M1016.039,1741.75c33.169,4.755,176.578,57.043,302.947,61.121
			c82.732,2.664,148.859-11.982,187.551-27.194c0.01,0,0.02,0,0.02,0c20.411-8.015,33.18-16.181,36.733-22.046
			c10.306-16.979,32.937-36.329,38.095-41.567c5.148-5.239-1.353-10.721-1.353-10.721c-6.793-4.502-13.799-8.762-20.985-12.789
			c-10.235-5.744-20.845-11.023-31.746-15.828c-112.844-49.754-256.948-49.462-353.954-10.094
			c-112.934,45.848-165.374,56.032-165.374,56.032c-0.797-0.02-1.575-0.01-2.321,0.031
			C988.088,1719.674,984.242,1737.188,1016.039,1741.75z"/>
		<path style="fill:#2A4E96;" d="M1386.499,1637.193c0,0-14.346-35.033-83.491-42.364c0,0,7.591,5.753,9.589,14.162
			c2.292,9.647-4.814,15.4-0.757,28.99L1386.499,1637.193z"/>
		<path style="fill:#5A91E2;" d="M1005.652,1718.695c2.493,6.48,5.864,11.486,10.427,13.183
			c17.493,6.511,150.07-38.126,242.261-43.688c92.19-5.563,143.337,8.923,186.41-3.059c43.063-11.992,59.213,1.222,85.458,8.62
			c26.244,7.399,28.839-5.198,28.839-5.198c-10.235-5.744-20.845-11.023-31.746-15.828
			c-112.844-49.754-256.948-49.462-353.954-10.094c-112.934,45.848-165.374,56.032-165.374,56.032
			C1007.176,1718.645,1006.399,1718.654,1005.652,1718.695z"/>
		<path style="fill:#2A4E96;" d="M1431.477,1691.497c0,0-31.371-19.693-74.393,10.187c0,0-2.048,2.461,0.853,3.341
			c5.677,1.721,19.031,3.228,24.815,9.295c8.739,9.168,21.198,9.463,29.273,8.305c9.852-1.413,8.473-6.34,7.128-15.847
			C1417.808,1697.27,1433.493,1696.591,1431.477,1691.497z"/>
		<path style="fill:#233862;" d="M1541.987,1709.398c0-4.46-3.615-8.076-8.075-8.076s-8.075,3.616-8.075,8.076
			s3.615,8.075,8.075,8.075S1541.987,1713.858,1541.987,1709.398z"/>
		<path style="fill:#5A91E2;" d="M1489.161,1695.771c0,0-35.498-4.038-38.526,13.627s-5.552,48.957,4.038,54.004
			c9.589,5.047,36.844,0,36.844,0s-27.255-1.262-30.282-6.813c-3.028-5.552-4.291-44.415,0.504-50.219
			C1466.533,1700.565,1482.769,1695.771,1489.161,1695.771z"/>
		<path style="fill:#2A4E96;" d="M1021.102,1716.294c0,0-25.486-54.823-89.532-66.586c0,0,19.347,25.543,20.243,42.014
			c0.896,16.472,26.888,26.239,22.903,35.895c-3.985,9.656-13.377,12.584-20.548,35.304c-7.171,22.719-27.08,51.251-22.598,52.387
			c4.482,1.136,53.066-25.154,69.704-49.573c9.411-13.812,15.586-26.377,21.332-30.878c4.004-3.138,5.003-8.122,2.467-12.191
			L1021.102,1716.294z"/>
	</g>
	<g>
		<g>
			<path style="fill:#F77819;" d="M2038.597,1767.95c0,9.411-3.853,17.962-10.061,24.17s-14.759,10.061-24.17,10.061h-161.635
				c-18.821,0-34.219-15.409-34.219-34.23c0-9.41,3.853-17.962,10.049-24.17c6.207-6.196,14.759-10.048,24.17-10.048h161.635
				C2023.188,1733.732,2038.597,1749.13,2038.597,1767.95z"/>
			<path style="fill:#F4CF84;" d="M1955.215,1767.95c0,9.411-3.853,17.962-10.049,24.17c-6.208,6.208-14.76,10.061-24.17,10.061
				h-78.265c-18.821,0-34.219-15.409-34.219-34.23c0-9.41,3.853-17.962,10.049-24.17c6.207-6.196,14.759-10.048,24.17-10.048h78.265
				C1939.816,1733.732,1955.215,1749.13,1955.215,1767.95z"/>
			<path style="opacity:0.4;fill:#E9F3FE;" d="M2007.104,1752.115h-154.177c-2.668,0-4.851-2.182-4.851-4.85v-1.094
				c0-2.668,2.183-4.851,4.851-4.851h154.177c2.668,0,4.851,2.183,4.851,4.851v1.094
				C2011.955,1749.934,2009.772,1752.115,2007.104,1752.115z"/>
		</g>
		<g>
			<path style="fill:#FFB93E;" d="M1875.473,1689.332c3.661,9.28,3.189,19.213-0.519,27.75
				c-3.707,8.537-10.643,15.663-19.923,19.324l-159.408,62.88c-18.562,7.321-39.742-1.886-47.063-20.447
				c-3.661-9.28-3.188-19.213,0.508-27.746c3.712-8.525,10.647-15.651,19.928-19.313l159.408-62.879
				C1846.965,1661.579,1868.151,1670.771,1875.473,1689.332z"/>
			<path style="fill:#FFE0B3;" d="M1793.24,1721.77c3.661,9.28,3.188,19.213-0.508,27.746c-3.707,8.537-10.643,15.663-19.923,19.323
				l-77.187,30.447c-18.562,7.321-39.742-1.886-47.063-20.447c-3.661-9.28-3.188-19.213,0.508-27.746
				c3.712-8.525,10.647-15.651,19.928-19.313l77.187-30.446C1764.743,1694.012,1785.918,1703.208,1793.24,1721.77z"/>
			<path style="opacity:0.4;fill:#FFFFFF;" d="M1838.255,1685.967l-152.052,59.978c-2.631,1.038-5.633-0.266-6.671-2.896
				l-0.426-1.079c-1.037-2.631,0.267-5.633,2.897-6.671l152.052-59.978c2.631-1.038,5.633,0.266,6.671,2.896l0.426,1.079
				C1842.189,1681.927,1840.887,1684.929,1838.255,1685.967z"/>
		</g>
	</g>
	<path style="fill:#2E3552;" d="M2585.38,1815.295H241.068c-2.158,0-3.924-1.767-3.924-3.925v-5.678
		c0-2.158,1.766-3.924,3.924-3.924H2585.38c2.157,0,3.923,1.766,3.923,3.924v5.678
		C2589.303,1813.528,2587.537,1815.295,2585.38,1815.295z"/>
	<circle style="opacity:0.9;fill:#FFFFFF;" cx="1138.324" cy="456.275" r="35.71"/>
</g>
</svg>
