<?xml version="1.0" encoding="utf-8"?>
<!-- Generator: Adobe Illustrator 27.5.0, SVG Export Plug-In . SVG Version: 6.00 Build 0)  -->
<svg version="1.1" xmlns="http://www.w3.org/2000/svg" xmlns:xlink="http://www.w3.org/1999/xlink" x="0px" y="0px"
	 viewBox="0 0 500 500" style="enable-background:new 0 0 500 500;" xml:space="preserve">
<g id="BACKGROUND">
	<rect style="fill:#FFFFFF;" width="500" height="500"/>
</g>
<g id="OBJECTS">
	<ellipse style="fill:#E2E2E2;" cx="250" cy="439.112" rx="215.441" ry="13.395"/>
	<g>
		<path style="fill:#4EA9D0;" d="M330.35,437.368l-59.506-0.634c-15.049-0.16-27.118-12.49-26.958-27.538l2.559-240.304
			c0.033-3.098,2.571-5.582,5.669-5.549l102.784,1.094c3.098,0.033,5.582,2.571,5.549,5.669l-2.559,240.304
			C357.729,425.459,345.399,437.528,330.35,437.368z"/>
		<path style="fill:#4EA9D0;" d="M311.46,125.24l-15.082-0.16c-3.814-0.041-6.873-3.166-6.833-6.98l0.501-47.054
			c0.041-3.814,3.165-6.873,6.98-6.833l15.082,0.161c3.814,0.041,6.873,3.166,6.833,6.98l-0.501,47.054
			C318.399,122.222,315.274,125.281,311.46,125.24z"/>
		<path style="fill:#DBDBDB;" d="M298.936,91.483c6.552,0.322,13.374-0.176,19.81-1.847l0.195-18.282
			c0.041-3.814-3.018-6.939-6.833-6.98l-15.082-0.161c-3.814-0.041-6.939,3.019-6.98,6.833l-0.206,19.382
			C292.856,90.909,295.88,91.333,298.936,91.483z"/>
		<path style="fill:#4EA9D0;" d="M246.674,147.426l-0.068,6.379c-0.16,15.049,11.909,27.378,26.958,27.538l59.506,0.634
			c15.049,0.16,27.378-11.909,27.538-26.958l0.068-6.379c0.335-31.481-24.913-57.273-56.394-57.608h0
			C272.801,90.697,247.009,115.945,246.674,147.426z"/>
		<path style="fill:#DBDBDB;" d="M246.01,209.807l-0.342,38.98c18.776,2.325,37.412,3.602,56.057,3.835
			c24.243,0.302,43.918,12.808,44.247,37.05c0.255,18.822,0.379,37.644-0.036,56.467c-0.403,18.258-0.464,37.163-3.249,55.243
			c-1.824,11.845-8.397,20.585-19.535,25.192c-21.203,8.77-45.019,6.626-68.042,4.944c4.422,3.222,9.848,5.153,15.735,5.216
			l59.506,0.634c15.049,0.16,27.378-11.909,27.538-26.958l1.943-182.444c0.06-5.648,0.12-11.297,0.18-16.945L246.01,209.807z"/>
		<g>
			
				<linearGradient id="SVGID_1_" gradientUnits="userSpaceOnUse" x1="302.3181" y1="214.5993" x2="303.088" y2="140.6837" gradientTransform="matrix(0.9999 0.0106 -0.0106 0.9999 2.9247 -3.4016)">
				<stop  offset="0" style="stop-color:#E2E0F1"/>
				<stop  offset="0.3594" style="stop-color:#E8E7F4"/>
				<stop  offset="0.8639" style="stop-color:#F9F9FC"/>
				<stop  offset="1" style="stop-color:#FFFFFF"/>
			</linearGradient>
			<path style="fill:url(#SVGID_1_);" d="M359.751,244.932c-38.256,3.911-75.839,3.511-114.002-1.214
				c0.262-24.569,0.442-50.933,0.703-75.502c38.163,4.725,75.746,5.125,114.002,1.214
				C360.193,193.999,360.013,220.363,359.751,244.932z"/>
		</g>
		<path style="fill:#4EA9D0;" d="M286.048,62.49l-0.225,21.154c-0.01,0.894,8.282,1.706,18.519,1.815
			c10.237,0.109,18.544-0.527,18.553-1.421l0.225-21.154L286.048,62.49z"/>
		<path style="fill:#4EA9D0;" d="M323.12,62.884c-0.009,0.894-8.316,1.53-18.553,1.421c-10.237-0.109-18.528-0.922-18.518-1.815
			c0.009-0.894,8.316-1.53,18.553-1.421C314.838,61.178,323.129,61.991,323.12,62.884z"/>
		<path style="fill:#DBDBDB;" d="M323.12,62.884c-0.009,0.894-8.316,1.53-18.553,1.421c-10.237-0.109-18.528-0.922-18.518-1.815
			c0.009-0.894,8.316-1.53,18.553-1.421C314.838,61.178,323.129,61.991,323.12,62.884z"/>
	</g>
	<g>
		<g>
			<g>
				<path style="fill:#EAF3F4;" d="M124.85,176.293l-4.336-10.774c0,0,7.56,1.686,10.046,2.541
					c8.449,2.907,23.71,19.526,40.287,23.983l27.508-13.662c0,0,5.642,4.317,6.947,8.203c0,0-31.267,23.488-32.349,23.561
					c-15.372,1.037-48.312-16.988-48.312-16.988L124.85,176.293z"/>
				<path style="fill:#EAAD96;" d="M194.871,182.136c0,0,5.818-4.527,6.124-6.116c0.306-1.589,1.07-4.652,1.949-6.009
					c0.788-1.216,1.138-1.855,1.619-1.564c1.16,0.701,0.471,5.401,0.471,5.401s6.2-3.811,7.512-5.333
					c1.312-1.522,5.49-5.703,6.354-5.577s0.969,1.462,0.524,2.378c0,0,2.655-3.706,3.369-3.356c0.715,0.351,1.349,2.257,0.193,3.765
					c0,0,1.223,0.595,0.976,1.753c-0.247,1.158-1.436,2.71-1.436,2.71s1.168-0.244,1.002,0.718c-0.166,0.962-1.432,2.79-3.313,5.28
					c-1.881,2.491-4.556,4.663-7.39,5.929c-1.064,0.475-4.067,1.249-6.156,2.248c-3.477,1.663-7.56,5.761-7.56,5.761
					L194.871,182.136z"/>
			</g>
			<path style="fill:#283D50;" d="M106.716,283.556c0,0-1.786,36.63-0.655,59.439c0.384,7.739,1.27,27.223,1.113,41.947
				c-0.21,19.774,0.574,39.857,0.574,39.857s9.388,0.688,15.17-0.98c0,0,2.154-17.108,4.003-39.001
				c0.98-11.609,1.611-23.339,2.864-35.278c2.238-21.317,2.795-41.62,3-46.079c0.536-11.668-0.757-66.302-0.757-66.302L98.72,238.88
				L106.716,283.556z"/>
			<path style="fill:#283D50;" d="M76.179,430.66c0.488-2.288,0.21-7.307,0.21-7.307l4.485,0.407
				c-0.024-2.171,1.271-3.322,3.05-3.193c1.75,0.127,2.96,1.068,3.879,2.329l0.731-0.274c0,0,2.008,2.888,3.835,5.344
				c0.861,1.158,1.908,2.548,2.102,2.725c3.404,3.118,4.434,6.734,2.417,6.712c-7.371-0.079-21.297-0.227-21.297-0.227
				S75.692,432.948,76.179,430.66z"/>
			<path style="fill:#283D50;" d="M129.075,431.928c-1.081-0.724-2.883-2.453-3.744-3.611c-2.188-2.942-2.071-2.807-3.835-5.344
				l-0.731,0.274c-0.919-1.261-2.129-2.202-3.879-2.329c-1.78-0.129-3.074,1.022-3.05,3.193l-4.484-0.407
				c0,0,0.278,5.019-0.21,7.307c-0.488,2.288-0.589,6.517-0.589,6.517s16.812,0.199,24.183,0.277
				C132.736,437.805,132.784,434.411,129.075,431.928z"/>
			<path style="fill:#283D50;" d="M110.176,299.483l-0.843,7.109c-0.985,8.018-6.517,33.737-7.96,43.99
				c-1.133,8.053-3.6,23.148-5.609,37.25c-2.729,19.161-4.947,36.942-4.947,36.942s-8.673,1.57-14.419-0.22
				c0,0-0.375-16.813-0.356-38.939c0.011-12.667,0.787-27.803,1.226-40.669c0.695-20.377-0.856-37.816-0.961-42.086
				c-0.287-11.677,2.169-66.271,2.169-66.271l33.262,2.431L110.176,299.483z"/>
			<path style="fill:#EAAD96;" d="M99.484,136.392c0,0,0.677,16.863-2.709,20.189c-1.949,1.915-9.263,7.352-9.263,7.352
				s3.767,13.282,10.037,13.696c29.341,1.934,23.906-14.518,23.906-14.518s-5.482-3.826-5.991-6.5
				c-0.519-2.726-0.129-12.86-0.129-12.86L99.484,136.392z"/>
			<path style="fill:#DB9D86;" d="M98.081,154.147c5.471,6.631,16.246,4.416,17.217,0.963c-0.253-3.794,0.037-11.359,0.037-11.359
				l-15.852-7.359C99.484,136.392,99.964,148.489,98.081,154.147z"/>
			<path style="fill:#283D50;" d="M135.62,252.967c-1.487-3.718-3.164-6.986-3.164-6.986l-52.671-0.716c0,0-0.315,2.609-0.768,7.099
				L135.62,252.967z"/>
			<path style="fill:#283D50;" d="M134.366,273.834c0.523-0.415,1.022-21.556,1.022-21.556s-2.828-60.968-3.711-67.982
				c-0.883-7.014-2.886-13.564-2.886-13.564l-10.301-9.723c0,0,2.993,6.005-4.476,7.139c-12.218,1.855-20.967-9.058-20.967-9.058
				l-15.399,9.117L77.8,273.232L134.366,273.834z"/>
			<path style="fill:#EAF3F4;" d="M71.656,284.248c12.65,4.169,26.225,5.102,39.581,4.165c2.66-0.186,4.788-2.292,5.029-4.948
				c0.562-6.192,1.01-10.996,1.253-13.32c0.451-4.9-1.168-28.17-0.842-30.575c1.156-8.509-2.601-39.386-3.28-49.183
				c-0.923-13.325-19.081-32.104-19.081-32.104s-15.925,6.648-19.11,10.136c-1.192,1.306-2.145,8.149-1.693,11.545
				c1.391,10.464,0.396,24.869,1.226,23.48c-0.336,6.047-2.003,55.642-2.145,62.136L71.656,284.248z"/>
			<path style="fill:#DAE2E3;" d="M95.866,157.191c0,0,16.277,15.85,20.555,36.667c4.278,20.817-0.871,47.297-0.871,47.297
				s-1.436-34.94-8.094-47.684l4.806-3.649l-6.658-4.005l-12.522-27.191L95.866,157.191z"/>
			<path style="fill:#EAF3F4;" d="M123.933,286.992c4.571-0.693,9.118-1.568,13.633-2.596c-0.351-15.444-0.644-28.2-0.726-31.416
				c-0.047-2.968-0.123-6.123-0.241-9.47c-1.637-46.353-6.039-75.45-6.039-75.45l-11.454-7.355l1.345,23.781
				c0,0-2.438,39.756-4.581,55.075c-0.154,1.098,0.866,22.276,1.409,42.243c0.089,3.252,2.987,5.733,6.205,5.256
				C123.633,287.037,123.783,287.015,123.933,286.992z"/>
			<path style="fill:#283D50;" d="M136.265,235.876l0.475,13.23c0,0-25.776-12.281-36.391-16.964s-23.985-36.821-23.985-36.821
				L136.265,235.876z"/>
			<path style="fill:#DAE2E3;" d="M116.743,158.283c0,0,1.455,5.531,1.893,12.145c0.934,14.123,0.119,36.884-1.711,48.702
				c-1.004,6.488-0.363,12.883-0.363,12.883l9.054-40.842l-3.929-2.845l3.793-5.961l-5.568-21.651L116.743,158.283z"/>
			<path style="fill:#422129;" d="M120.61,128.651c0.541-4.146,1.759-10.026-2.984-12.519c-4.743-2.493-6.107-1.866-6.107-1.866
				l4.966,12.254L120.61,128.651z"/>
			<path style="fill:#EAAD96;" d="M89.674,128.199c0.3,1.637,0.76,2.671,1.484,5.072c0.172,0.578,0.365,1.239,0.57,2.009
				c1.614,6,5.609,12.233,6.246,13.413c1.053,1.959,7.354,6.37,9.61,7.341c2.256,0.97,5.962,0.468,7.933-0.997
				c1.971-1.465,3.895-7.004,4.466-9.153c0.351-1.32,1.264-8.139,1.442-14.452c0.02-0.721,0.049-1.343,0.082-1.894
				c0.143-2.469-1.385-6.701-2.498-8.711c-2.52-4.552-4.314-8.393-14.768-7.168C91.876,115.107,88.742,123.079,89.674,128.199z"/>
			<path style="fill:#422129;" d="M91.728,135.28c0.393,1.461,0.815,3.05,1.239,4.635l1.97,1.667
				c-0.608-1.287,0.883-4.024,0.759-6.11c-0.099-1.676-0.469-4.893-0.67-5.6c0,0,3.184-1.11,2.922-3.87l-0.288-4.341
				c0,0,4.38,1.048,11.212-0.37c5.681-1.179,10.53,0.042,10.576-0.167c0.528-2.375-4.29-13.509-19.851-9.73
				c-6.386,1.551-7.089,5.322-7.089,5.322c-5.551,0.991-5.758,8.424-3.38,12.397C90.192,130.892,91.522,134.51,91.728,135.28z"/>
			<g>
				<g>
					<path style="fill:#EAAD96;" d="M96.585,138.978c0,0-0.356-5.114-4.69-4.474c-2.766,0.409-2.689,2.927-0.149,5.89
						c1.069,1.248,1.52,4.3,2.765,5.152c1.515,1.036,2.448-0.946,2.768-1.837C97.807,142.235,96.585,138.978,96.585,138.978z"/>
				</g>
			</g>
		</g>
		<g>
			<g>
				<defs>
					<path id="SVGID_00000061441013546858093340000008472402148519942559_" d="M314.12,243.352
						c-3.135-4.6-7.017-8.896-11.494-12.802l0.163-15.298l-123.89-1.319l-0.166,15.57c-13.276,11.193-21.569,25.889-21.727,41.778
						c-0.413,38.816-1.162,109.147-1.576,147.963c-0.102,9.563,9.744,19.305,22.143,21.087c41.373,4.91,80.171,5.331,121.703,1.298
						c1.33-0.162,2.63-0.424,3.88-0.764c10.468-2.851,18.634-11.309,18.725-19.849c0.413-38.817,1.162-109.147,1.576-147.963
						C323.57,262.268,320.181,252.244,314.12,243.352z"/>
				</defs>
				<clipPath id="SVGID_00000049195907091761426950000015059105931065983137_">
					<use xlink:href="#SVGID_00000061441013546858093340000008472402148519942559_"  style="overflow:visible;"/>
				</clipPath>
				<path style="clip-path:url(#SVGID_00000049195907091761426950000015059105931065983137_);fill:#CC3940;" d="M314.12,243.352
					c-3.135-4.6-7.017-8.896-11.494-12.802l0.163-15.298l-123.89-1.319l-0.166,15.57c-13.276,11.193-21.569,25.889-21.727,41.778
					c-0.413,38.816-1.162,109.147-1.576,147.963c-0.102,9.563,9.744,19.305,22.143,21.087c41.373,4.91,80.171,5.331,121.703,1.298
					c1.33-0.162,2.63-0.424,3.88-0.764c10.468-2.851,18.634-11.309,18.725-19.849c0.413-38.817,1.162-109.147,1.576-147.963
					C323.57,262.268,320.181,252.244,314.12,243.352z"/>
				<path style="clip-path:url(#SVGID_00000049195907091761426950000015059105931065983137_);fill:#8076E7;" d="M239.129,308.759
					c46.176-0.492,83.583-3.245,83.552-6.151l0.823,77.318c0.031,2.905-37.377,5.659-83.552,6.151
					c-46.176,0.492-83.633-1.465-83.664-4.37l-0.823-77.318C155.496,307.294,192.954,309.251,239.129,308.759z"/>
				<path style="clip-path:url(#SVGID_00000049195907091761426950000015059105931065983137_);fill:#E587A6;" d="M278.526,307.72
					c26.298-1.166,44.177-3.102,44.155-5.111l0.823,77.318c0.021,2.009-17.858,3.945-44.155,5.111L278.526,307.72z"/>
				
					<linearGradient id="SVGID_00000068656120215792635410000017849632737993406598_" gradientUnits="userSpaceOnUse" x1="156.5204" y1="323.2051" x2="323.8145" y2="323.2051" gradientTransform="matrix(0.9999 0.0106 -0.0106 0.9999 2.9247 -3.4016)">
					<stop  offset="0" style="stop-color:#E2E0F1"/>
					<stop  offset="0.3594" style="stop-color:#E8E7F4"/>
					<stop  offset="0.8639" style="stop-color:#F9F9FC"/>
					<stop  offset="1" style="stop-color:#FFFFFF"/>
				</linearGradient>
				
					<path style="clip-path:url(#SVGID_00000049195907091761426950000015059105931065983137_);fill:url(#SVGID_00000068656120215792635410000017849632737993406598_);" d="
					M240.026,283.243c-46.176-0.492-83.583-3.245-83.552-6.151l-0.823,83.413c-0.031,2.905,37.377,5.659,83.552,6.151
					c46.176,0.492,83.633-1.465,83.664-4.37l0.823-83.413C323.659,281.778,286.201,283.734,240.026,283.243z"/>
				<path style="clip-path:url(#SVGID_00000049195907091761426950000015059105931065983137_);fill:#DBDBDB;" d="M314.12,243.352
					c-3.135-4.6-7.017-8.896-11.494-12.802l0.163-15.298l-123.89-1.319l-0.166,15.57c-1.721,1.451-3.354,2.964-4.901,4.528
					c18.854,3.647,29.159,7.941,57.097,7.711c10.578-0.087,24.626,0.369,35.049,2.196c7.566,1.326,26.187,3.235,34.778,16.77
					c8.705,13.715,9.051,90.509,8.163,103.761c-1.723,25.714-13.199,47.723-36.923,59c-26.227,12.466-56.945,15.202-85.458,11.154
					c-9.632-1.368-19.289-3.595-28.605-6.777c3.675,6.181,11.04,11.251,19.641,12.487c41.373,4.91,80.171,5.331,121.703,1.298
					c1.33-0.162,2.63-0.423,3.88-0.764c10.468-2.851,18.634-11.309,18.725-19.849c0.413-38.817,1.162-109.147,1.576-147.964
					C323.57,262.268,320.181,252.244,314.12,243.352z"/>
				<g style="clip-path:url(#SVGID_00000049195907091761426950000015059105931065983137_);">
					<polygon style="fill:#4EA9D0;" points="155.868,342.099 155.868,342.099 155.868,342.099 					"/>
					<polygon style="fill:#4EA9D0;" points="323.084,343.879 323.084,343.879 323.084,343.879 					"/>
				</g>
			</g>
			<path style="fill:#CC3940;" d="M174.54,198.954l-0.266,24.974c-0.034,3.204,29.695,6.119,66.401,6.509
				c36.706,0.391,66.49-1.89,66.524-5.094l0.266-24.974L174.54,198.954z"/>
			<path style="fill:#CC3940;" d="M307.464,200.37c-0.034,3.204-29.818,5.485-66.524,5.094c-36.706-0.391-66.435-3.305-66.4-6.51
				c0.034-3.204,29.818-5.485,66.524-5.094C277.77,194.251,307.499,197.166,307.464,200.37z"/>
			<path style="fill:#DBDBDB;" d="M307.464,200.37c-0.034,3.204-29.818,5.485-66.524,5.094c-36.706-0.391-66.435-3.305-66.4-6.51
				c0.034-3.204,29.818-5.485,66.524-5.094C277.77,194.251,307.499,197.166,307.464,200.37z"/>
			<g>
				<g>
					<polygon style="fill:#283D50;" points="277.35,352.942 279.588,337.766 278.667,337.631 276.409,352.942 					"/>
				</g>
			</g>
		</g>
		<g>
			<g>
				<path style="fill:#EAAD96;" d="M171.96,242.902c-2.229-0.072-6.67-2.304-7.092-2.544c-0.422-0.24,0.833-1.267,1.803-1.68
					c0.97-0.413,2.444-0.845,2.444-0.845l1.269-2.83c0,0-3.587-0.988-6.135-0.34c-2.549,0.648-7.401,1.267-13.122,0.055
					c-1.026-0.217-5.765-0.703-7.517-2.628c-0.805,1.375-3.751,6.43-4.919,8.557c1.193,0.811,5.521,1.885,7.608,2.815
					c4.997,2.226,5.98,4.27,9.64,5.576c3.66,1.306,8.982,2.633,8.982,2.633l1.885-1.423l3.469-0.145l1.359-1.345l2.279-0.843
					l0.807-1.872l1.853-0.392l1.004-2.327C177.576,243.324,174.189,242.975,171.96,242.902z"/>
			</g>
			<path style="fill:#EAF3F4;" d="M71.929,181.089c-1.465-7.02,4.393-19.439,12.002-10.496c3.025,3.556,7.306,10.178,11.555,17.031
				c6.437,10.383,12.799,21.297,14.604,22.876c2.996,2.621,39.303,23.443,39.303,23.443s0.002,6.054-4.272,12.251
				c0,0-37.279-14.985-42.378-17.446c-7.797-3.763-6.683-2.237-15.017-11.54C79.393,207.904,74.764,194.673,71.929,181.089z"/>
		</g>
	</g>
	<g>
		<g>
			<path style="fill:#E59782;" d="M388.526,264.043l37.659,3.981c0,0-0.573,29.89,0.099,56.257
				c0.184,7.244-0.366,16.831-0.351,23.467c0.005,2.279,1.115,18.1,1.217,20.3c1.059,22.831-1.303,30.032-1.465,40.989
				c-0.219,14.764-0.423,22.019-0.423,22.019l-11.371-0.121c0,0-8.475-78.237-12.556-95.237c-1.426-5.942-4.33-18.352-6.156-29.214
				L388.526,264.043z"/>
			<path style="fill:#283D50;" d="M400.231,335.828c0.003,0.014,17.296,1.35,28.731-0.902c-0.035-1.82-0.076-3.659-0.123-5.517
				c-0.671-26.367-2.655-61.386-2.655-61.386l-37.659-3.981l3.725,41.674C394.077,316.578,398.805,329.887,400.231,335.828z"/>
			<path style="fill:#E59782;" d="M378.374,262.436l27.638,5.372c0,0-4.939,29.843-8.118,56.169
				c-0.873,7.233-2.825,16.805-3.779,23.43c-0.327,2.275-1.527,18.072-1.746,20.268c-2.274,22.795-5.691,29.985-7.454,40.925
				c-2.376,14.742-3.64,21.984-3.64,21.984l-11.371-0.121c0,0,2.939-78.116,1.334-95.089c-0.561-5.932,1.836-18.953,1.594-29.798
				L378.374,262.436z"/>
			<path style="fill:#283D50;" d="M367.587,335.337c0.001,0.014,21.073,1.637,30.295,0.58c0.231-1.818,3.175-11.719,3.399-13.575
				c3.179-26.326,6.547-54.514,6.547-54.514l-37.136-3.975l-2.356,41.61C368.577,316.307,367.026,329.404,367.587,335.337z"/>
			<path style="fill:#E59782;" d="M406.076,141.904c0,0,2.04,16.888,3.228,17.976c1.189,1.087,2.227,2.141,4.779,3.767
				c0,0-10.685,17.382-21.463,18.77c-20.619,2.656-9.698-17.013-9.698-17.013s6.207-4.003,8.222-6.419
				c1.199-1.437,3.811-9.999,3.811-9.999L406.076,141.904z"/>
			<path style="fill:#FFFFFF;" d="M388.995,161.169c0,0-1.85,10.197,8.004,10.112c11.631-0.101,15.876-8.833,15.876-8.833
				l7.287,4.918l-14.375,21.092l-25.957,0.171l1.209-23.726L388.995,161.169z"/>
			<path style="fill:#E59782;" d="M362.047,191.744l-3.341,4.86l-4.55,13.933c0,0-6.164-4.726-11.604-8.65
				c-4.413-3.183-12.87-10.324-14.336-11.489l-3.032,7.033c0,0,8.553,9.783,12.64,15.005c2.866,3.662,12.503,14.185,16.089,16.852
				c3.586,2.667,7.882,0.413,9.396-2.857c1.513-3.27,6.055-11.934,7.24-15.208c1.185-3.273,2.274-12.956,2.274-12.956
				L362.047,191.744z"/>
			<path style="fill:#E6A01F;" d="M374.01,169.376c-3.952,1.504-10.418,12.045-12.616,17.936c-2.199,5.891-4.71,14.181-4.71,14.181
				s1.939,2.125,6.179,5.127c4.24,3.003,8.551,5.255,8.551,5.255s5.494-8.472,7.719-16.828
				C381.357,186.692,380.745,166.813,374.01,169.376z"/>
			<path style="fill:#FFFFFF;" d="M357.765,198.125c-0.778,2.439-1.081,3.368-1.081,3.368s1.939,2.125,6.179,5.127
				c4.24,3.002,8.551,5.255,8.551,5.255s0.887-0.86,2.399-3.699C368.034,206.11,361.897,201.895,357.765,198.125z"/>
			<path style="fill:#E6A01F;" d="M370.521,228.759c-0.721-6.602,3.489-59.383,3.489-59.383l11.911-6.642
				c0,0-1.489,10.565,9.628,11.564c16.303,1.464,19.877-10.224,19.877-10.224l10.94,6.555c0,0,3.253,31.03,1.72,54.272
				c-0.875,13.266-0.524,49.201-0.524,49.201c-28.882,3.155-53.731,1.663-58.619-3.286
				C368.944,270.816,371.243,235.361,370.521,228.759z"/>
			<path style="fill:#EDD4D4;" d="M419.074,196.874c0.291,10.815,0.938,21.659-0.667,32.404
				c-1.976,13.229-7.961,26.467-18.766,34.773c-7.206,5.539-15.915,8.385-24.839,9.491c10.029,2.652,30.158,3.029,52.76,0.56
				c0,0-0.351-35.935,0.524-49.201c0.65-9.844,0.439-21.08-0.018-30.769C425.061,195.016,422.06,195.92,419.074,196.874z"/>
			<g>
				<path style="fill:#E59782;" d="M396.721,120.604c-1.998,0.719-5.526,2.394-6.051,4.106c-0.525,1.712-2.32,6.667-2.758,9.709
					c-0.438,3.041-2.088,10.779-2.391,14.375c-0.304,3.596-0.066,4.928,0.628,5.743c0.694,0.814,9.759,2.586,11.7,2.116
					c1.941-0.47,10.818-3.187,12.161-10.733c0,0,2.937,2.312,7.094-3.801c1.084-1.594-3.226-9.651-3.477-11.863
					c-0.608-5.377-10.995-6.327-13.644-7.329C397.334,121.923,396.721,120.604,396.721,120.604z"/>
				<path style="fill:#302D32;" d="M390.67,124.71c0,0,1.538-2.133,3.299-0.681c1.76,1.452,5.845,3.047,9.135,3.542
					c3.29,0.495,6.712-0.153,6.712-0.153s-1.058,4.596-0.473,6.04c0.584,1.444,2.23,3.394,2.011,4.914
					c-0.219,1.521-0.687,2.984-0.687,2.984s2.59-2.153,4.092-1.284c1.502,0.869,0.872,3.605-1.03,4.476
					c-1.903,0.871-3.72,1.37-3.72,1.37l-6.117,9.437c0,0,10.238-9.653,13.375-13.45c4.405-5.332,6.7-12.208,3.814-14.518
					c0,0,1.717-7.46-5.802-10.631c-7.519-3.17-22.744-2.029-25.074,1.431C388.331,120.975,390.67,124.71,390.67,124.71z"/>
				<path style="fill:#302D32;" d="M387.5,144.572c1.259-0.223,2.902-0.054,5.274,0.89c2.727,1.086,4.789,3.043,6.54,3.969
					c1.751,0.926,6.474-1.211,8.384-4.962c1.91-3.75,3.419-7.461,3.419-7.461l1.053,1.682c0,0-2.53,7.011-3.627,11.211
					c-1.097,4.199-4.478,8.14-9.899,9.511c-5.421,1.371-12.251-1.379-13.304-3.062c-1.053-1.682-0.911-4.633-0.375-7.161
					c0.217-1.023,0.508-2.862,0.852-3.679C385.979,145.127,387.023,144.657,387.5,144.572z"/>
			</g>
			<path style="fill:#283D50;" d="M425.518,428.276l2.376,16.09l-12.141-0.24l-10.85-0.004c0,0-0.202-2.587,2.64-5.177
				c2.972-2.709,3.803-4.526,3.803-4.526l2.137-6.599L425.518,428.276z"/>
			<path style="fill:#283D50;" d="M381.893,427.913l0.54,15.969l-12.59-0.245l-10.867-0.005c0,0-0.34-2.286,2.908-4.768
				c3.274-2.502,4.835-5.099,4.835-5.099l3.104-6.589L381.893,427.913z"/>
		</g>
		<g>
			<g>
				<g>
					<defs>
						<path id="SVGID_00000142152568895408725540000007082946958521763464_" d="M318.048,176.495
							c0.443,4.83,2.686,26.449,3.072,31.395c0.048,0.609,0.518,1.097,1.124,1.17c4.287,0.514,8.654,0.617,12.951,0.151
							c0.603-0.065,1.078-0.542,1.138-1.145c0.488-4.914,3.139-26.513,3.686-31.337
							C332.695,176.651,325.371,176.573,318.048,176.495z"/>
					</defs>
					<clipPath id="SVGID_00000013902289245271222520000006562074445602491838_">
						<use xlink:href="#SVGID_00000142152568895408725540000007082946958521763464_"  style="overflow:visible;"/>
					</clipPath>
					<g style="clip-path:url(#SVGID_00000013902289245271222520000006562074445602491838_);">
						<path style="fill:#283D50;" d="M318.048,176.495l2.282,33.93l16.741,0.178c0,0,2.345-28.304,2.948-33.874
							C332.695,176.651,318.048,176.495,318.048,176.495z"/>
					</g>
					<path style="clip-path:url(#SVGID_00000013902289245271222520000006562074445602491838_);fill:#DBDBDB;" d="M329.036,176.314
						c-6.197-0.066-11.216-0.513-11.211-0.999l-0.025,2.377c-0.005,0.486,5.014,0.933,11.211,0.999
						c6.197,0.066,11.224-0.274,11.23-0.76l0.025-2.377C340.261,176.039,335.233,176.38,329.036,176.314z"/>
					
						<linearGradient id="SVGID_00000010271068771263130080000003983638794385502361_" gradientUnits="userSpaceOnUse" x1="317.6677" y1="185.8513" x2="340.2103" y2="185.8513">
						<stop  offset="0" style="stop-color:#E2E0F1"/>
						<stop  offset="0.3594" style="stop-color:#E8E7F4"/>
						<stop  offset="0.8639" style="stop-color:#F9F9FC"/>
						<stop  offset="1" style="stop-color:#FFFFFF"/>
					</linearGradient>
					
						<path style="clip-path:url(#SVGID_00000013902289245271222520000006562074445602491838_);fill:url(#SVGID_00000010271068771263130080000003983638794385502361_);" d="
						M328.981,181.55c-6.197-0.066-11.216-0.513-11.211-0.999l-0.102,9.594c-0.005,0.486,5.014,0.933,11.211,0.999
						c6.197,0.066,11.224-0.275,11.23-0.76l0.102-9.594C340.205,181.275,335.177,181.616,328.981,181.55z"/>
					<g style="clip-path:url(#SVGID_00000013902289245271222520000006562074445602491838_);">
						<path style="fill:#DBDBDB;" d="M334.387,176.669c-0.236,8.2-0.592,18.876-3.145,24.875c-1.984,4.661-6.493,6.329-11.183,5.155
							l0.271,3.725l16.741,0.178c0,0,2.345-28.304,2.948-33.874C338.68,176.715,336.081,176.687,334.387,176.669z"/>
					</g>
				</g>
				<path style="fill:#283D50;" d="M317.509,171.586l-0.049,4.596c-0.005,0.486,5.176,0.935,11.572,1.003
					c6.396,0.068,11.586-0.271,11.591-0.757l0.049-4.596L317.509,171.586z"/>
				<path style="fill:#283D50;" d="M340.672,171.833c-0.005,0.486-5.195,0.825-11.591,0.757c-6.396-0.068-11.577-0.517-11.572-1.003
					c0.005-0.486,5.195-0.825,11.591-0.757S340.677,171.347,340.672,171.833z"/>
				<path style="fill:#283D50;" d="M340.67,171.832c-0.001,0.133-0.388,0.253-1.076,0.359c-1.842,0.282-5.858,0.45-10.514,0.4
					c-4.656-0.05-8.667-0.303-10.503-0.624c-0.686-0.12-1.069-0.248-1.068-0.382c0.005-0.486,5.194-0.824,11.59-0.756
					S340.676,171.346,340.67,171.832z"/>
			</g>
			<g>
				<path style="fill:#283D50;" d="M337.535,162.088c-1.426-0.015-2.139-0.023-3.564-0.038c-0.015,1.371-0.057,5.368-0.072,6.739
					c1.41,0.285,2.148,0.292,3.564,0.038C337.478,167.456,337.521,163.46,337.535,162.088z"/>
			</g>
			<path style="fill:#DBDBDB;" d="M337.535,162.088l-3.564-0.038l-0.031,2.899c0,0,1.29-0.683,1.719-0.794
				c0.465-0.12,1.856-0.132,1.856-0.132L337.535,162.088z"/>
			<g>
				<path style="fill:#283D50;" d="M330.119,164.576l-0.386-0.059c-0.751-0.116-1.048-1.04-0.505-1.571l1.295-1.267
					c0.175-0.171,0.41-0.266,0.655-0.263l7.445,0.079c0.196,0.002,0.353,0.162,0.351,0.358l0,0
					c-0.002,0.196-0.163,0.353-0.358,0.351l-5.695-0.061c-0.2-0.002-0.392,0.075-0.535,0.215L330.119,164.576z"/>
			</g>
			<g>
				<path style="fill:#283D50;" d="M330.001,162.525l-5.996-0.064l-0.069,6.475c2.452,0.238,4.831,0.175,7.36-0.188l0.052-4.848
					C331.355,163.149,330.752,162.533,330.001,162.525z"/>
			</g>
			<g>
				<path style="fill:#283D50;" d="M325.588,162.439c-0.025,2.335-0.066,6.162-0.072,6.785c-1.678,1.065-3.223,1.05-4.881-0.052
					l0.072-6.785c0.011-1.004,0.833-1.809,1.837-1.798l1.246,0.013C324.794,160.613,325.599,161.436,325.588,162.439z"/>
			</g>
			<g>
				<path style="fill:#DBDBDB;" d="M320.989,169.079c1.283-0.154,2.368-0.386,2.732-1.777c0.198-0.759,0.196-1.576,0.246-2.353
					c0.06-0.935,0.104-1.882-0.061-2.809c-0.1-0.561-0.34-1.103-0.69-1.543l0.575,0.006c1.004,0.011,1.809,0.833,1.798,1.837
					c-0.025,2.335-0.066,6.162-0.072,6.785c-1.678,1.065-3.223,1.05-4.881-0.052l0.001-0.054
					C320.756,169.106,320.875,169.093,320.989,169.079z"/>
			</g>
			<path style="fill:#283D50;" d="M339.78,171.522c-0.005,0.437-4.827,0.74-10.772,0.676c-5.945-0.063-10.76-0.469-10.755-0.905
				c0.005-0.437,2.791-6.566,10.834-6.48C337.211,164.899,339.785,171.085,339.78,171.522z"/>
		</g>
		<path style="fill:#E59782;" d="M420.481,201.319c0,0,2.304,14.104,3.48,18.809c1.177,4.706,3.344,14.665,3.344,14.665
			s-1.447,8.82-2.445,16.184c-0.999,7.364-1.555,30.823-1.555,30.823l6.387,5.096c0,0,4.891-20.294,7.469-31.999
			c2.578-11.705,3.855-17.135,3.602-22.166c-0.09-1.783,0.212-10.874-0.277-16.901c-0.891-10.974-2.763-20.697-2.763-20.697
			L420.481,201.319z"/>
		<path style="fill:#E6A01F;" d="M426.366,170.629c-4.545-2.932-8.187,17.546-7.211,26.592c1.195,11.08,3.573,16.733,3.573,16.733
			s11.933,1.962,18.49-3.58c0,0-2.221-13.315-4.48-23.087C434.48,177.516,429.116,172.402,426.366,170.629z"/>
		<path style="fill:#FFFFFF;" d="M421.702,210.864c0.591,2.048,1.027,3.09,1.027,3.09s11.933,1.962,18.49-3.58
			c0,0-0.244-1.461-0.651-3.762C434.479,209.499,427.929,211.653,421.702,210.864z"/>
		<path style="fill:#E59782;" d="M319.785,195.374c2.404,0.861,2.779,1.206,3.439,0.192c0.66-1.014-0.073-1.857-0.073-1.857
			s1.572,0.481,2.137-0.256c0.565-0.736-0.714-2.699-0.714-2.699s1.795,0.256,2.182-1.05c0.387-1.307-2.514-2.572-2.514-2.572
			s1.31-1.007-0.258-1.951c-1.567-0.945-4.993-2.343-4.993-2.343l-0.44-2.232c0,0-1.21,0.358-1.507,2.118
			c-0.297,1.76,0.071,2.042,0.34,2.88c0.27,0.838,0.074,1.764,0.247,2.972c0.173,1.208,0.349,2.045,0.337,3.251
			c-0.013,1.206,0.445,1.768,0.715,2.606C318.951,195.273,319.785,195.374,319.785,195.374z"/>
		<g>
			<g>
				<path style="fill:#E59782;" d="M419.967,299.062c0,0-0.311,0.502-0.689,1.009c-0.564,0.756-2.057,0.276-2.057,0.276l-0.65,0.891
					c0,0-1.197,1.589-2.596-0.124l0.832-1.961c0,0-0.982,1.069-2.252-0.378c0,0,3.296-7.547,4.503-10.238
					c1.207-2.692,1.772-5.501,1.772-5.501s-0.285,7.425-1.022,7.546c-0.737,0.121-2.526,0.845-3.251,0.07
					c-1.049-1.124,0.153-4.553,0.402-5.447c1.292-4.645,4.857-8.712,5.283-9.488c0.413-0.754,4.582-4.078,4.496-11.728
					c3.252-0.472,6.498-0.983,9.739-1.527c-1.003,6.276-1.905,11.571-2.285,13.824c-1.22,7.237-2.691,10.528-2.968,11.486
					c-0.277,0.958-5.514,9.522-7.35,11.184C420.624,300.084,419.967,299.062,419.967,299.062z"/>
			</g>
		</g>
	</g>
	<g>
		<g>
			<g>
				<path style="fill:#283D50;" d="M199.927,384.884l-10.477-5.378l9.192-17.905c2.725-5.309,3.221-8.665,1.472-9.977
					c-3.162-2.371-13.848-3.471-20.067-3.469l-0.068,0l-0.071-0.002c-6.223-0.131-16.922,0.738-20.133,3.041
					c-1.776,1.275-1.352,4.641,1.26,10.006l8.808,18.096l-10.59,5.154l-8.808-18.096c-6.848-14.068-2.439-21.213,2.467-24.73
					c7.491-5.373,23.795-5.313,27.193-5.247c3.391,0.006,19.699,0.294,27.074,5.825c4.829,3.62,9.086,10.859,1.94,24.777
					L199.927,384.884z"/>
			</g>
			<g>
				<path style="fill:#213342;" d="M204.442,354.071c-1.345-2.351-2.625-4.611-5.37-5.773c-2.611-1.105-5.647-1.596-8.433-1.987
					c-5.501-0.771-11.139-0.762-16.687-0.722c-4.741,0.034-9.824,0.288-13.987,2.823c-8.197,4.993-6.852,15.762-6.327,24.504
					l5.614,11.534l10.59-5.154l-8.808-18.097c-2.612-5.366-3.035-8.732-1.26-10.006c3.211-2.303,13.911-3.172,20.133-3.041
					l0.071,0.002l0.068,0c6.219-0.002,16.905,1.098,20.067,3.469c1.748,1.312,1.253,4.668-1.472,9.977l-9.192,17.905l10.477,5.378
					l8.676-16.899C208.341,365.099,206.413,357.518,204.442,354.071z"/>
			</g>
			<g>
				<path style="fill:#283D50;" d="M178.103,361.341c-23.279,0.637-42.348,19.562-43.182,42.835
					c-0.552,15.378,6.733,29.119,18.198,37.515c1.994,1.46,4.404,2.244,6.875,2.27l37.925,0.404
					c2.488,0.026,4.926-0.722,6.963-2.151c11.329-7.949,18.797-21.048,18.955-35.943
					C224.103,381.134,203.464,360.647,178.103,361.341z"/>
			</g>
			<g>
				<path style="fill:#213342;" d="M208.057,371.833c5.283,7.581,7.41,17.022,7.531,24.609c0.292,18.222-5.973,25.677-15.896,32.867
					c-12.542,9.087-36.579,9.627-52.938,6.695c1.936,2.088,4.061,4,6.364,5.686c1.994,1.46,4.404,2.244,6.875,2.27l37.925,0.404
					c2.488,0.026,4.926-0.722,6.963-2.151c11.329-7.949,18.797-21.048,18.955-35.943
					C223.983,392.478,217.826,380.095,208.057,371.833z"/>
			</g>
		</g>
	</g>
	<g>
		<path style="fill:#4EA9D0;" d="M183.552,62.004h-6.214V55.79c0-2.373-1.924-4.297-4.297-4.297s-4.297,1.924-4.297,4.297v6.213
			h-6.214c-2.373,0-4.297,1.924-4.297,4.297c0,2.373,1.924,4.297,4.297,4.297h6.214v6.214c0,2.373,1.924,4.297,4.297,4.297
			s4.297-1.924,4.297-4.297v-6.214h6.214c2.373,0,4.297-1.924,4.297-4.297C187.849,63.928,185.925,62.004,183.552,62.004z"/>
		<path style="fill:#4EA9D0;" d="M255.612,81.643h-3.496v-3.495c0-1.335-1.082-2.417-2.417-2.417s-2.417,1.082-2.417,2.417v3.495
			h-3.496c-1.335,0-2.417,1.082-2.417,2.417c0,1.335,1.082,2.417,2.417,2.417h3.496v3.495c0,1.335,1.082,2.417,2.417,2.417
			s2.417-1.082,2.417-2.417v-3.495h3.496c1.335,0,2.417-1.082,2.417-2.417C258.029,82.725,256.947,81.643,255.612,81.643z"/>
		<path style="fill:#4EA9D0;" d="M154.273,117.611c0,1.509-1.224,2.733-2.733,2.733c-1.509,0-2.733-1.224-2.733-2.733
			c0-1.509,1.224-2.733,2.733-2.733C153.049,114.878,154.273,116.102,154.273,117.611z"/>
		<path style="fill:#4EA9D0;" d="M214.565,109.137c0,2.671-2.165,4.836-4.836,4.836c-2.671,0-4.836-2.165-4.836-4.836
			c0-2.671,2.165-4.836,4.836-4.836C212.4,104.301,214.565,106.466,214.565,109.137z"/>
		<path style="fill:#4EA9D0;" d="M191.616,149.655c0,1.037-0.841,1.878-1.878,1.878s-1.878-0.841-1.878-1.878
			c0-1.037,0.841-1.878,1.878-1.878S191.616,148.618,191.616,149.655z"/>
	</g>
</g>
<g id="TEXTS">
	<g>
		<path id="SVGID_x5F_00000013176453937223200560000004439393873710582153_x5F_" style="fill:none;" d="M153.007,325.103
			c0.274,0.187,0.975,0.39,2.062,0.604c17.052,3.358,129.073,9.468,178.325,1.317"/>
		<text style="fill:#3A3752; font-family:'FugazOne-Regular'; font-size:37.356px;">		<textPath  xlink:href="#SVGID_x5F_00000013176453937223200560000004439393873710582153_x5F_" startOffset="15.4025%">
PROTEIN		</textPath>
</text>
		
			<text transform="matrix(0.9999 0.0106 -0.0106 0.9999 286.306 351.4879)" style="fill:#313858; font-family:'FugazOne-Regular'; font-size:19.1603px;">12</text>
		
			<text transform="matrix(0.9999 0.0106 -0.0106 0.9999 309.5253 348.2535)" style="fill:#313858; font-family:'FugazOne-Regular'; font-size:11.7359px;">g</text>
		
			<text transform="matrix(0.9999 0.0106 -0.0106 0.9999 236.6987 350.9595)" style="fill:#313858; font-family:'FugazOne-Regular'; font-size:19.1603px;">35</text>
		
			<text transform="matrix(0.9999 0.0106 -0.0106 0.9999 259.9189 347.7252)" style="fill:#313858; font-family:'FugazOne-Regular'; font-size:11.7359px;">g</text>
	</g>
	
		<text transform="matrix(0.9999 0.0106 -0.0106 0.9999 154.894 410.9753)" style="opacity:0.2;fill:#FFFFFF; font-family:'FugazOne-Regular'; font-size:20.7292px;">20KG</text>
</g>
</svg>
