<?xml version="1.0" encoding="utf-8"?>
<!-- Generator: Adobe Illustrator 27.5.0, SVG Export Plug-In . SVG Version: 6.00 Build 0)  -->
<svg version="1.1" id="Layer_1" xmlns="http://www.w3.org/2000/svg" xmlns:xlink="http://www.w3.org/1999/xlink" x="0px" y="0px"
	 viewBox="0 0 2000 2000" style="enable-background:new 0 0 2000 2000;" xml:space="preserve">
<g>
	<g>
		<rect transform="matrix(-1 -1.224647e-16 1.224647e-16 -1 2000.0001 2000)" style="fill:#FFFFFF;" width="2000" height="2000"/>
		<path style="opacity:0.2;fill:#93E3F1;" d="M256.537,1850.037h1521.096c22.745-52.539,87.891-247.063-41.628-436.205
			c0,0-58.128-114.543-72.272-199.338c-11.53-69.117-13.999-152.021-7.339-246.407c5.026-71.237,11.94-140.21,18.13-195.188
			c93.313-34.756,157.576-107.694,157.576-192.058c0-118.04-125.791-213.731-280.963-213.731c-22.099,0-43.6,1.948-64.229,5.617
			c-111.039-71.629-266.287-130.108-462.139-153.847c-83.961-10.177-162.872-13.966-234.603-10.874
			c-90.216,3.889-169.34,18.542-235.174,43.548c-138.168,52.483-188.177,153.755-205.798,229.47
			c-16.315,70.103-9.75,134.339-1.37,175.883c9.575,47.466,42.934,90.647,63.11,112.511
			c83.851,147.144,299.168,146.08,142.511,338.604C343.507,1366.031,192.648,1693.946,256.537,1850.037z M1639.666,827.731
			c-4.352,42.615-8.632,89.789-12.045,137.999c-6.844,96.649-4.289,181.827,7.59,253.167c7.114,42.719,17.625,80.597,31.442,113.441
			c-0.674-0.65-1.336-1.302-2.015-1.951C1495.725,1168.744,1576.849,984.62,1639.666,827.731z M842.888,267.335
			c0,0-427.627,16.729-460.895,340.55c-0.946,9.2-1.534,18.079-1.797,26.662c-10.744-44.253-14.815-95.816-2.859-147.19
			c16.06-69.006,61.724-161.336,188.059-209.325c142.852-54.262,326.458-46.832,455.329-31.043
			c44.228,5.418,85.206,13.53,120.64,22.11C1056.3,264.145,957.574,263.344,842.888,267.335z"/>
		<path style="opacity:0.4;fill:#FFFFFF;" d="M836.397,796.715c37.492,13.521,79.116,12.364,116.28,28.315
			c10.881,4.496,21.023,10.529,29.574,18.005c10.324-9.372,17.143-21.069,27.294-30.22c10.424-9.397,28.013-10.087,42.281-13.259
			c35.799-7.958,71.597-15.917,107.396-23.876c6.904-1.535,14.095-3.075,21.021-1.63c12.905,2.692,20.84,14.544,31.074,22.432
			c36.813,28.374,99.237,3.261,135.604,32.142c11.298,8.971,18.079,21.876,24.55,34.395c5.448,10.542,10.826,23.425,4.234,33.369
			c-5.002,7.544-15.057,10.288-24.223,12.399c-10.495,2.417-21.124,4.795-31.927,4.778c-15.246-0.024-29.976-4.8-44.986-7.314
			c-29.557-4.95-60.733-0.895-87.766,11.416c-12.681,5.774-24.502,13.318-37.782,17.733c-22.712,7.549-47.535,5.335-71.615,5.394
			c-16.503,0.041-33.124,1.184-49.641,1.397c51.463,84.819,166.687,65.991,278.741,71.523
			c96.646,8.906,160.613,44.088,257.71,103.976c-0.937-27.809,1.737-54.447,6.177-79.772
			c-101.404-27.694-87.681-101.033,21.519-83.909c13.972-43.077,31.579-85.927,47.751-126.277
			c-4.623,45.309-8.526,89.367-11.651,132.53c9.514,1.866,19.03,3.776,28.549,5.447c4.992-70.162,11.888-138.913,17.96-192.809
			c296.26-119.512,141.072-450.587-187.615-400.171c-17.343-11.188-35.765-22.055-55.251-32.518
			c-134.749,102.691-157.093-10.98-197.803,158.901c-3.35,12.301-19.267,40.931-36.605,51.914
			c-19.119,13.244-36.351,11.183-49.695,18.122c-75.394,60.381-45.096,41.706-275.323,85.781
			C771.112,666.393,732.179,750.88,836.397,796.715z M1280.286,588.622c19.787-10.427,104.523-3.367,163.786-3.996
			c41.375,7.721,138.683-19.207,171.512,13.33c8.623,13.941,8.272,31.778,3.413,47.38c-57.636,20.861-122.111,2.103-183.152,1.375
			c-36.485-5.763-123.701,22.353-166.166-2.357C1248.078,628.527,1254.067,599.985,1280.286,588.622z"/>
		<path style="opacity:0.5;fill:#FFFFFF;" d="M1129.483,1182.016c4.09-17.502,20.019-30.559,39.061-30.559
			c3.496,0,6.886,0.443,10.118,1.269c9.398-19.76,29.795-33.451,53.446-33.451c6.114,0,12.012,0.916,17.558,2.613
			c12.732-20.729,35.864-34.588,62.291-34.588c31.44,0,58.22,19.619,68.366,47.083c7.183-3.937,15.451-6.188,24.258-6.188
			c27.559,0,49.9,21.964,49.9,49.059c0,1.607-0.085,3.193-0.238,4.761H1129.483z"/>
		<path style="opacity:0.5;fill:#FFFFFF;" d="M480.199,601.37c2.044-8.743,10.001-15.267,19.515-15.267
			c1.747,0,3.44,0.221,5.056,0.634c4.695-9.872,14.884-16.712,26.7-16.712c3.054,0,6.001,0.458,8.772,1.306
			c6.361-10.355,17.917-17.28,31.119-17.28c15.707,0,29.086,9.801,34.155,23.523c3.588-1.967,7.719-3.092,12.119-3.092
			c13.769,0,24.929,10.973,24.929,24.51c0,0.802-0.042,1.595-0.119,2.378H480.199z"/>
		<path style="opacity:0.5;fill:#FFFFFF;" d="M888.696,482.336c-4.99-21.354-24.426-37.285-47.661-37.285
			c-4.265,0-8.402,0.539-12.347,1.548c-11.467-24.11-36.353-40.815-65.212-40.815c-7.461,0-14.657,1.117-21.423,3.189
			c-15.537-25.293-43.762-42.205-76.006-42.205c-38.363,0-71.038,23.939-83.419,57.451c-8.764-4.804-18.853-7.551-29.599-7.551
			c-33.627,0-60.886,26.801-60.886,59.861c0,1.96,0.102,3.897,0.29,5.808H888.696z"/>
		<path style="opacity:0.4;fill:#FFFFFF;" d="M574.183,782.742c4.944,8.171,7.6,17.572,12.964,25.483
			c6.187,9.124,15.53,15.638,24.658,21.939c40.745,28.127,82.896,56.878,131.503,67.461c12.195,2.655,25.123,4.309,35.361,11.343
			c21.165,14.543,19.131,51.439-3.507,63.65c-25.905,13.972-64.942-2.392-84.008,19.801c-7.753,9.024-9.246,22.012-16.849,31.157
			c-10.158,12.221-28.028,14.337-44.046,15.364c-10.965,0.703-21.937,1.312-32.911,1.845
			c48.974-107.936-66.228-136.128-146.921-219.467c2.308-0.318,4.614-0.655,6.912-1.033c4.346-0.715,8.9-1.642,12.21-4.502
			c3.31-2.859,4.73-8.291,1.842-11.562c-15.977-6.708-32.238-13.471-49.155-16.922c-3.975-5.714-7.758-11.662-11.301-17.88
			c-7.626-8.264-17.135-19.577-26.532-33.012c35.772,1.677,71.451,4.384,107.039,8.622
			C522.758,748.759,558.056,756.087,574.183,782.742z"/>
		<g>
			<g>
				<path style="fill:#FEB546;" d="M1583.19,1821.876c0,0-246.689-101.114-196.811-173.151c0,0,0.797-25.795,93.573,13.037
					c0,0,37.386-7.765,17.681-42.986c-19.705-35.22-103.783-58.602-89.647-106.569c14.135-47.968,64.574-4.019,94.036-6.768
					s-67.148-133.096-44.314-165.613c22.833-32.518,65.349,16.448,87.219,12.723s-24.991-192.296,79.242-210.575
					c104.234-18.279,43.731,95.889,25.753,155.684c-17.979,59.793,53.973-8.147,92.407,34.008
					c38.433,42.154-136.824,88.767-94.344,126.915c42.479,38.149,69.489-12.186,99.059,17.513
					c47.806,48.019-135.622,78.614-108.326,114.811c21.769,28.865,63.636-21.488,84.173-1.247
					C1743.429,1609.896,1702.059,1746.642,1583.19,1821.876z"/>
				<path style="opacity:0.46;fill:#FFFFFF;" d="M1383.267,1654.025c0.366-0.751,0.767-1.499,1.192-2.245
					c7.141,5.831,15.301,11.995,24.385,18.078c33.368,22.346,86.33,48.094,149.588,44.481c-3.497-32.211-4.813-67.246-3.926-104.936
					c-56.286-61.955-106.251-86.226-138.258-95.677c-2.773-0.818-5.454-1.534-8.056-2.175c0.247-0.805,0.505-1.581,0.774-2.334
					c2.532,0.629,5.139,1.324,7.836,2.118c32.021,9.414,81.776,33.45,137.79,94.433c0.004-0.159,0.006-0.315,0.011-0.474
					c1.069-38.714,4.432-80.233,10.034-124.177c-1.46-3.309-15.543-34.792-37.733-69.6c-15.938-25-38.588-55.531-64.913-76.657
					c0.635-0.592,1.283-1.131,1.94-1.63c26.486,21.346,49.2,51.953,65.188,77.031c18.577,29.14,31.503,55.977,36.143,66.031
					c4.377-33.489,10.041-68.364,16.983-104.47c19.36-100.685,44.232-187.465,57.832-231.704c0.925-0.044,1.828-0.07,2.718-0.087
					c-13.526,43.934-38.551,131.043-58.006,232.228c-3.272,17.016-6.466,34.884-9.455,53.372
					c7.492-6.043,30.089-23.696,61.624-43.149c26.57-16.389,63.711-36.579,105.089-51.122c0.094,0.101,0.188,0.198,0.282,0.302
					c0.515,0.565,0.983,1.13,1.423,1.696c-41.464,14.479-78.726,34.726-105.339,51.141c-36.092,22.259-60.408,42.136-63.673,44.841
					c-6.539,41.008-12.032,84.975-15.105,129.466c48.819-35.621,143.51-65.356,190.854-78.759c0.535,0.713,1.021,1.424,1.457,2.131
					c-47.525,13.42-144.373,43.73-192.536,79.894c-4.201,63.317-3.426,127.559,6.28,185.704
					c48.357-17.864,89.119-65.555,114.9-102.641c15.948-22.941,28.264-44.723,36.007-59.432c0.802,0.276,1.583,0.619,2.345,1.026
					c-7.776,14.774-20.147,36.66-36.166,59.707c-26.087,37.534-67.438,85.858-116.676,103.809
					c4.291,24.976,10.253,48.799,18.201,70.91c-0.372,0.237-0.736,0.481-1.11,0.719c0,0-0.551-0.227-1.593-0.663
					c-10.854-30.402-18.5-65.315-22.899-104.438c-4.124,0.238-8.254,0.363-12.389,0.363c-24.094,0-48.337-4.04-72.249-12.055
					c-22.714-7.615-45.182-18.812-66.777-33.281C1398.362,1665.826,1390.331,1659.773,1383.267,1654.025z"/>
			</g>
			<path style="fill:#FEB546;" d="M532.127,1730.434c0,0,8.011-153.533-142.315-281.915l-8.944,55.853l-9.221-67.331
				c0,0-90.629-71.109-167.828-104.736c0,0,59.184,174.687,84.59,208.754l53.441,26.741l-52.779,8.384
				c0,0,30.627,97.974,107.625,155.097C473.694,1788.4,532.127,1730.434,532.127,1730.434z"/>
			<path style="fill:#07085B;" d="M291.615,1125.521c57.635-8.071,40.708,78.242,35.2,101.304
				c18.098,10.963,33.786,22.528,47.255,34.031c-4.745-28.411-26.661-45.959-24.099-64.674c2.873-20.983,19.831-41.054,42.529-9.576
				c17.985,24.942-3.518,63.746-13.229,78.795c22.921,20.389,39.041,40.246,49.758,55.759c-0.651-33.558-23.63-56.695-18.385-77.671
				c5.737-22.951,26.741-42.952,47.624-4.814c17.261,31.523-14.271,73.928-25.731,87.696c9.455,14.406,13.735,24.062,14.184,25.099
				c8.737,19.446,16.088,38.636,22.249,57.464c0.114-29.575-15.378-53.284-8.146-71.724c8.681-22.131,31.913-39.053,47.27,2.216
				c12.15,32.651-20.797,68.681-35.096,82.315c11.942,39.62,18.635,77.464,21.801,112.514c9.513-26.237,5.131-69.593,21.74-90.88
				c10.896-13.964,22.753-13.59,30.836-10.774c6.905,2.406,12.021,8.03,14.188,15.346c12.245,41.353-47.664,81.596-66.196,92.896
				c3.397,43.195,1.471,81.92-2.531,114.151c5.031-13.53,12.536-33.988,15.986-44.764c5.442-16.989,21.076-37.562,36.793-42.082
				c0.655-0.188,1.298-0.349,1.928-0.486c12.064-2.622,23.16,4.935,26.708,16.844c13.879,46.588-65.732,76.729-83.062,82.689
				c-0.032,0.221-0.062,0.453-0.095,0.674c-12,81.013-37.074,131.396-38.135,133.499l-7.107-3.524
				c0.246-0.488,24.081-48.47,36.215-124.111c-65.389-36.19-66.074-86.828-49.878-99.005c16.735-12.581,46.121-7.739,45.086,28.203
				c-0.603,20.846,3.375,42.514,6.822,57.051c4.354-32.404,6.664-71.994,3.274-116.439c-99.759-13.811-81.137-78.748-56.593-85.722
				c24.842-7.059,35.946,7.93,40.578,37.281c3.076,19.497,10.737,34.637,15.545,42.634c-2.985-34.39-9.435-71.578-20.995-110.54
				c-16.664,8.96-60.65,28.859-83.929,3.801c-29.094-31.318-5.784-48.112,16.338-48.294c20.339-0.166,35.455,29.906,65.885,38.843
				c-6.638-21.537-14.825-43.587-24.891-65.993c-0.156-0.367-8.742-19.74-29.664-45.664c-15.795,11.104-57.193,36.16-83.409,14.765
				c-32.925-26.872-11.591-46.472,10.553-49.603c19.759-2.792,38.02,23.037,67.933,28.878c-18.28-21.514-44.732-46.63-81.312-68.978
				c-16.464,11.407-56.768,35.072-82.462,14.102c-32.924-26.873-11.59-46.473,10.555-49.603
				c20.036-2.832,38.524,23.787,69.194,29.128l0.463-0.797c-7.804-8.517-24.424-26.525-32.832-34.676
				c-11.22-10.878-19.9-32.193-15.147-47.938C277.93,1129.421,291.615,1125.521,291.615,1125.521z"/>
			<path style="fill:#FF5B7E;" d="M1553.231,1807.059c0,0-19.64-156.687,124.731-298.107l13.319,56.602l4.428-69.56
				c0,0,87.507-78.818,164.055-118.366c0,0-47.593,182.801-71.071,219.368l-52.732,30.923l54.671,5.088
				c0,0-24.064,102.355-98.655,165.949C1617.385,1862.549,1553.231,1807.059,1553.231,1807.059z"/>
			<g>
				<path style="fill:#07085B;" d="M125.512,1518.71c8.426,52.36,28.154,93.865,54.463,126.761
					c23.042-5.815,50.616-12.23,50.616-12.23l-31.275,33.78c113.712,113.335,311.133,103.226,311.133,103.226
					c-16.478-115.42-61.264-182.901-114.726-221.265c-14.245,8.894-35.275,22.353-35.275,22.353l17.479-33.916
					c-27.769-16.232-57.197-25.597-85.776-30.491c-8.973,17.677-19.639,37.521-19.639,37.521l-8.089-40.979
					C188.758,1497.406,125.512,1518.71,125.512,1518.71z"/>
				<path style="fill:#55769F;" d="M395.723,1548.981c-14.245,8.894-35.275,22.353-35.275,22.353l17.479-33.916
					c-27.769-16.232-57.197-25.597-85.776-30.491c-8.973,17.677-19.639,37.521-19.639,37.521l-8.089-40.979
					c-75.664-6.062-138.911,15.242-138.911,15.242c120.601,144.034,384.937,251.536,384.937,251.536
					C493.97,1654.826,449.185,1587.345,395.723,1548.981z"/>
			</g>
			<g>
				<path style="fill:#FF5B7E;" d="M118.42,1745.511c27.028-21.128,55.546-34.373,83.95-42.004
					c10.034,8.783,22.272,19.053,22.272,19.053l-2.519-23.487c110.402-20.1,213.387,37.423,213.387,37.423
					c-58.439,47.137-111.715,65.258-157.225,68.042c-3.93-7.797-9.593-19.457-9.593-19.457l-5.038,19.844
					c-22.055-0.204-42.067-3.922-59.701-9.408c2.701-10.306,5.41-22.034,5.41-22.034l-21.965,16.134
					C143.669,1772.008,118.42,1745.511,118.42,1745.511z"/>
				<path style="fill:#E03268;" d="M278.286,1804.537c-3.93-7.797-9.593-19.457-9.593-19.457l-5.038,19.844
					c-22.055-0.204-42.067-3.922-59.701-9.408c2.701-10.306,5.41-22.034,5.41-22.034l-21.965,16.134
					c-43.73-17.607-68.979-44.104-68.979-44.104c127.309-31.964,317.091-9.016,317.091-9.016
					C377.072,1783.632,323.796,1801.753,278.286,1804.537z"/>
			</g>
			<path style="fill:#02CCC0;" d="M1863.381,1833.978c0,0-9.19-81.204-98.8-89.016c-89.61-7.812-98.801,48.681-232.066,24.768
				c-133.265-23.913-200.518-118.977-410.359-104.807c-209.841,14.17-178.225,89.774-388.273,97.251
				c-210.048,7.477-242.134-55.084-353.613-33.554c-111.479,21.531-157.432,101.261-157.432,101.261l36.764,8.697L1863.381,1833.978
				z"/>
			<rect x="222.837" y="1832.642" style="fill:#07085B;" width="1658.743" height="17.396"/>
		</g>
	</g>
	<g>
		<g>
			<g>
				<g>
					<path style="fill:#DAEEF7;" d="M752.669,1811.236l-116.418,0.386c-1.741,0.005-3.157-1.4-3.163-3.14l-0.022-6.044
						c-0.008-1.74,1.4-3.159,3.143-3.164l116.418-0.389c1.742-0.005,3.157,1.4,3.164,3.144l0.019,6.041
						C755.817,1809.815,754.411,1811.23,752.669,1811.236z"/>
					<path style="fill:#333333;" d="M638.55,1761.753l-3.951,34.358c-0.489,4.234,1.895,8.072,5.007,8.064l108.145-0.365
						c2.81-0.008,5.582-1.772,7.045-5.071c1.502-3.382,1.787-8.476-3.075-15.3c-9.727-13.651-41.552-16.883-57.151-28.513
						l-50.376,0.17C641.378,1755.104,638.991,1757.928,638.55,1761.753z"/>
					<g>
						<path style="fill:#DAEEF7;" d="M686.988,1774.896L686.988,1774.896c-0.786-0.479-1.074-1.795-0.625-2.799
							c2.108-4.713,8.706-16.188,22.218-13.881c0.78,0.133,1.314,1.168,1.184,2.239l-0.005,0.03
							c-0.124,1.035-0.824,1.715-1.58,1.591c-12.11-2.025-17.719,8.088-19.424,12.039
							C688.395,1774.958,687.639,1775.293,686.988,1774.896z"/>
					</g>
					<g>
						<path style="fill:#DAEEF7;" d="M698.235,1779.277L698.235,1779.277c-0.783-0.479-1.076-1.792-0.627-2.796
							c2.109-4.71,8.707-16.19,22.22-13.879c0.78,0.129,1.314,1.163,1.184,2.231l-0.005,0.036c-0.124,1.035-0.825,1.717-1.582,1.589
							c-12.109-2.026-17.718,8.092-19.421,12.041C699.639,1779.342,698.885,1779.674,698.235,1779.277z"/>
					</g>
					<g>
						<path style="fill:#DAEEF7;" d="M708.695,1783.367L708.695,1783.367c-0.785-0.479-1.075-1.794-0.625-2.798
							c2.108-4.711,8.706-16.19,22.219-13.879c0.78,0.134,1.313,1.163,1.184,2.233l-0.002,0.036
							c-0.126,1.035-0.828,1.715-1.583,1.586c-12.109-2.023-17.72,8.093-19.424,12.041
							C710.102,1783.432,709.343,1783.764,708.695,1783.367z"/>
					</g>
					<path style="opacity:0.3;fill:#E87B50;" d="M668.469,1804.075c-8.61-27.712-23.308-30.729-31.33-30.06l-2.541,22.096
						c-0.489,4.234,1.895,8.072,5.007,8.064L668.469,1804.075z"/>
				</g>
				<g>
					<path style="fill:#DAEEF7;" d="M497.259,1814.223l-116.418,0.386c-1.743,0.005-3.158-1.4-3.165-3.141l-0.021-6.044
						c-0.005-1.74,1.402-3.158,3.142-3.163l116.422-0.389c1.74-0.008,3.155,1.4,3.161,3.14l0.02,6.044
						C500.406,1812.796,499,1814.212,497.259,1814.223z"/>
					<path style="fill:#333333;" d="M383.138,1764.739l-3.951,34.357c-0.486,4.234,1.897,8.072,5.008,8.06l108.145-0.357
						c2.811-0.011,5.582-1.773,7.045-5.071c1.5-3.385,1.786-8.479-3.076-15.303c-9.729-13.649-41.551-16.883-57.151-28.513
						l-50.375,0.168C385.968,1758.09,383.578,1760.908,383.138,1764.739z"/>
					<g>
						<path style="fill:#DAEEF7;" d="M431.579,1777.879L431.579,1777.879c-0.784-0.473-1.074-1.791-0.627-2.795
							c2.109-4.713,8.705-16.193,22.22-13.885c0.781,0.135,1.314,1.169,1.183,2.24l-0.004,0.033
							c-0.124,1.035-0.826,1.715-1.582,1.586c-12.109-2.023-17.72,8.095-19.422,12.043
							C432.983,1777.943,432.228,1778.278,431.579,1777.879z"/>
					</g>
					<g>
						<path style="fill:#DAEEF7;" d="M442.824,1782.263L442.824,1782.263c-0.784-0.479-1.074-1.794-0.624-2.798
							c2.107-4.71,8.706-16.19,22.219-13.882c0.78,0.134,1.313,1.169,1.183,2.239l-0.002,0.031
							c-0.126,1.035-0.827,1.715-1.582,1.591c-12.108-2.023-17.72,8.093-19.425,12.041
							C444.229,1782.327,443.475,1782.659,442.824,1782.263z"/>
					</g>
					<g>
						<path style="fill:#DAEEF7;" d="M453.283,1786.351L453.283,1786.351c-0.784-0.477-1.072-1.792-0.623-2.796
							c2.107-4.71,8.704-16.19,22.218-13.879c0.78,0.134,1.313,1.164,1.184,2.236l-0.005,0.034c-0.125,1.034-0.825,1.714-1.58,1.588
							c-12.11-2.025-17.719,8.091-19.424,12.039C454.689,1786.415,453.936,1786.752,453.283,1786.351z"/>
					</g>
					<path style="opacity:0.3;fill:#E87B50;" d="M413.06,1807.061c-8.614-27.714-23.312-30.729-31.331-30.059l-2.542,22.095
						c-0.486,4.234,1.897,8.072,5.008,8.06L413.06,1807.061z"/>
				</g>
				<path style="fill:#224887;" d="M699.364,1205.329c-0.146-6.677-201.427,0.57-201.427,0.57l-44.414-7.274l-68.147,559.71
					c0,0,32.402,9.38,53.72,1.706l132.176-440.153l16.256-6.252C587.529,1313.636,654.738,1252.418,699.364,1205.329z"/>
				<path style="fill:#1F4275;" d="M700.075,1198.625c-44.627,47.087-112.546,115.011-112.546,115.011l-16.256,6.252l16.256-6.252
					l50.254,444.699c0,0,35.814,6.821,56.28-4.263C694.063,1754.072,702.989,1330.771,700.075,1198.625z"/>
				<path style="fill:#06BFAD;" d="M385.376,1758.335c0,0,13.956,4.038,29.573,4.646
					C399.332,1762.373,385.376,1758.335,385.376,1758.335L385.376,1758.335z"/>
				<path style="fill:#06BFAD;" d="M432.847,1761.771c-1.44,0.296-2.905,0.53-4.388,0.718
					C429.942,1762.302,431.406,1762.067,432.847,1761.771z"/>
				<path style="fill:#06BFAD;" d="M414.949,1762.98c3.721,0.146,7.533,0.096,11.273-0.249
					C422.483,1763.076,418.67,1763.127,414.949,1762.98z"/>
			</g>
			<path style="fill:#FFC0BB;" d="M521.14,454.011c-1.078,0.667-2.473-0.126-2.435-1.393c0.294-9.807,1.019-40.68-1.461-41.321
				c-2.947-0.765-4.268,26.803-6.976,27.622c-2.705,0.819-0.736-26.039-4.02-26.348c-3.282-0.309-4.255,24.242-5.686,24.592
				c-1.429,0.355-3.01-23.264-4.833-24.607c-1.823-1.339-3.204,24.082-4.815,25.004c-1.613,0.917-6.496-16.939-8.077-16.7
				c-1.581,0.242-2.675,0.139-3.208,43.493l0.522,17.079l7.954,13.712l18.865-2.741c0,0,34.116-44.165,33.379-46.343
				C539.648,443.98,537.762,443.8,521.14,454.011z"/>
			<path style="fill:#FFC0BB;" d="M742.267,731.875c1.08,0.664,2.474-0.127,2.434-1.393c-0.293-9.807-1.018-40.68,1.461-41.321
				c2.948-0.762,4.269,26.806,6.976,27.619c2.709,0.819,0.739-26.039,4.022-26.342c3.284-0.312,4.255,24.237,5.686,24.592
				c1.428,0.351,3.01-23.269,4.834-24.612c1.822-1.337,3.201,24.082,4.813,25.004c1.612,0.921,6.497-16.938,8.078-16.695
				c1.581,0.239,2.674,0.137,3.205,43.493l-0.52,17.074l-7.956,13.717l-18.862-2.747c0,0-28.089-44.318-28.551-47.249
				C727.544,720.852,725.645,721.664,742.267,731.875z"/>
			<polygon style="fill:#FFC0BB;" points="542.767,763.123 537.103,830.262 596.363,827.433 589.531,767.976 			"/>
			<path style="fill:#F99893;" d="M592.78,796.248l-3.249-28.273l-46.764-4.852l-1.961,23.249
				C550.103,795.634,566.825,805.234,592.78,796.248z"/>
			<path style="fill:#FEB546;" d="M392.723,676.811c2.263-33.943,73.939-205.17,73.939-205.17s39.987,3.017,57.339,29.416
				c0,0-46.776,138.791-49.794,162.179c-3.02,23.38,17.352,141.803,33.199,150.102l28.668-2.263c0,0,20.371,25.645,62.621,0.754
				c0,0,56.588,9.05,77.713,31.678c0,0,68.846,69.965,72.24,63.741c3.395-6.224-13.581-154.442-13.581-154.442l53.759,5.092
				c0,0,30.199,218.782,11.315,227.984c-33.668,16.407-123.157-44.754-123.157-44.754c-0.067,13.349-0.942,24.927-0.577,32.119
				c8.481,167.26,31.686,233.078,31.686,233.078s-141.9,41.565-270.915,13.658c0,0-20.31-227.874-8.995-339.514
				C428.183,880.468,390.461,710.752,392.723,676.811z"/>
			<path style="opacity:0.3;fill:#FEB546;" d="M428.183,880.469c0,0,50.501,223.863,266.232,266.386l0.001,0.006
				c7.294,41.346,13.677,59.464,13.677,59.464s-141.9,41.566-270.915,13.658C437.177,1219.982,416.867,992.109,428.183,880.469z"/>
			<g>
				<path style="fill:#07085B;" d="M629.659,665.563l4.62,39.056l-26.694-46.26c0,0,15.223-13.555,16.882-10.665
					C626.128,650.592,629.659,665.563,629.659,665.563z"/>
				<g>
					<path style="fill:#F99893;" d="M623.026,707.298c-1.423,8.057,2.654,15.513,9.102,16.649
						c6.45,1.137,12.831-4.474,14.251-12.533c1.422-8.06-2.653-15.514-9.103-16.651
						C630.827,693.625,624.447,699.236,623.026,707.298z"/>
					<path style="fill:#FFC0BB;" d="M632.718,739.958c1.492-10.296,1.099-20.798,0.051-29.81c-0.224-1.933-0.335-3.874-0.412-5.82
						c-0.307-7.851-2.066-15.866-5.625-23.735c-11.446-25.313-38.682-40.369-66.203-36.536
						c-37.075,5.164-61.026,40.469-53.345,76.078c-4.335-1.32-8.79-0.878-12.251,1.658c-6.637,4.865-7.086,15.534-1.005,23.828
						c6.082,8.293,16.394,11.074,23.032,6.211c0.919-0.677,1.709-1.473,2.392-2.35c9.625,29.632,39.503,47.661,69.177,40.747
						C611.086,784.972,629.449,765.852,632.718,739.958z"/>
					<path style="fill:#F99893;" d="M582.825,703.182c1.107,3.457,2.098,6.855,3.222,10.142c1.14,3.199,2.482,6.589,4.445,8.517
						l0.364,0.296c0.136,0.108,0.182,0.175,0.453,0.363c0.435,0.35,0.914,0.613,1.292,1.056c0.796,0.798,1.476,1.804,1.816,2.939
						c0.733,2.286,0.099,4.695-1.063,6.392c-2.371,3.498-6.333,4.888-9.908,5.011c3.238-1.565,6.171-3.665,7.443-6.425
						c0.566-1.353,0.8-2.754,0.269-3.853c-0.227-0.553-0.578-1.058-1.064-1.488c-0.193-0.247-0.533-0.397-0.782-0.61l-0.6-0.455
						l-0.68-0.54c-1.619-1.547-2.501-3.339-3.226-5.105c-0.688-1.781-1.165-3.563-1.496-5.378
						C582.655,710.441,582.434,706.804,582.825,703.182z"/>
					<path style="fill:#333333;" d="M563.92,713.515c0.694,2.973-1.154,5.943-4.129,6.636c-2.972,0.692-5.945-1.156-6.637-4.126
						c-0.692-2.973,1.153-5.941,4.129-6.636C560.256,708.693,563.227,710.541,563.92,713.515z"/>
					<path style="fill:#333333;" d="M610.854,705.772c0.693,2.973-1.156,5.943-4.128,6.635c-2.973,0.692-5.946-1.155-6.637-4.126
						c-0.694-2.973,1.155-5.946,4.127-6.636C607.188,700.953,610.161,702.804,610.854,705.772z"/>
					<path style="fill:#07085B;" d="M567.196,699.62c-2.943-0.072-5.671,0.013-8.303,0.334c-2.626,0.322-5.113,0.955-7.435,1.926
						c-2.298,0.996-4.556,2.19-6.571,3.895c-1.117,0.731-1.983,1.761-3.077,2.625c-1.027,0.938-1.924,2.008-3.097,2.976
						c0.32-1.423,0.759-2.852,1.357-4.216c0.721-1.287,1.36-2.688,2.398-3.805c1.834-2.44,4.486-4.291,7.343-5.503
						c2.882-1.2,6.054-1.627,9.07-1.308C561.884,696.889,564.815,697.831,567.196,699.62z"/>
					<path style="fill:#07085B;" d="M591.371,695.627c1.611-2.507,4.028-4.414,6.723-5.784c2.713-1.349,5.838-2.054,8.958-1.933
						c3.099,0.136,6.232,0.95,8.801,2.595c1.363,0.687,2.452,1.778,3.576,2.733c1.035,1.071,1.943,2.255,2.741,3.475
						c-1.439-0.495-2.651-1.19-3.941-1.704c-1.328-0.433-2.497-1.097-3.799-1.39c-2.481-0.896-5.014-1.228-7.518-1.362
						c-2.515-0.103-5.063,0.175-7.638,0.785C596.693,693.661,594.107,694.536,591.371,695.627z"/>
				</g>
				<path style="fill:#07085B;" d="M620.792,629.887c0,0,18.054-4.489-5.001-14.299c-23.055-9.812-78.479-13.284-105.958,12.914
					c0,0-10.348-11.905-18.759-5.982c-8.41,5.92,9.676,11.006,9.676,11.006s-12.035,2.991-14.018,9.869
					c-1.466,5.083,5.89,3.207,9.828,1.884c-6.463,3.074-27.838,26.873,0.077,75.646c4.355-2.332,19.956-48.175,19.956-48.175
					s70.02,16.484,56.472-8.546c0,0,73.756,21.372,55.716-8.417C628.781,655.787,653.523,650.706,620.792,629.887z"/>
				<path style="fill:#07085B;" d="M496.675,721.257c0,0,4.514-3.179,11.112-0.43c6.597,2.752,10.258,17.941,10.258,17.941
					s30.413,9.305,7.837-60.093c-24.018-73.831-19.761,12.057-19.761,12.057L496.675,721.257z"/>
				<path style="fill:#FFFFFF;" d="M600.241,744.529c-0.234,6.396-5.33,12.067-12.402,13.267
					c-7.071,1.199-13.745-2.476-16.062-8.438L600.241,744.529z"/>
			</g>
		</g>
		<g>
			
				<rect x="446.368" y="433.615" transform="matrix(-0.9787 -0.2054 0.2054 -0.9787 925.4493 984.349)" style="fill:#07085B;" width="134.877" height="21.069"/>
			<polygon style="fill:#D9D9D9;" points="549.894,459.835 553.688,441.753 581.97,447.688 578.176,465.77 577.644,468.308 
				549.361,462.374 445.642,440.61 446.174,438.072 			"/>
			<path style="fill:#1F4275;" d="M555.004,501.197l30.15,6.327c5.094,1.069,10.09-2.194,11.159-7.288l15.586-74.276
				c1.069-5.094-2.194-10.09-7.288-11.159l-30.15-6.327c-5.094-1.069-10.09,2.194-11.159,7.288l-15.586,74.276
				C546.648,495.132,549.91,500.128,555.004,501.197z"/>
			<path style="fill:#1F4275;" d="M423.002,473.499l30.15,6.327c5.094,1.068,10.09-2.194,11.159-7.288l15.586-74.277
				c1.069-5.094-2.194-10.09-7.288-11.159l-30.15-6.326c-5.094-1.069-10.09,2.194-11.159,7.288l-15.586,74.277
				C414.646,467.434,417.908,472.43,423.002,473.499z"/>
		</g>
		<g>
			
				<rect x="699.599" y="718.558" transform="matrix(-0.9787 -0.2054 0.2054 -0.9787 1368.0009 1600.1644)" style="fill:#07085B;" width="134.876" height="21.069"/>
			<polygon style="fill:#D9D9D9;" points="803.125,744.779 806.919,726.697 835.202,732.632 831.407,750.714 830.875,753.252 
				802.592,747.317 698.873,725.553 699.406,723.015 			"/>
			<path style="fill:#1F4275;" d="M808.235,786.14l30.15,6.327c5.094,1.069,10.09-2.194,11.159-7.288l15.586-74.276
				c1.068-5.094-2.194-10.09-7.288-11.159l-30.15-6.327c-5.094-1.069-10.09,2.194-11.159,7.288l-15.586,74.277
				C799.878,780.076,803.142,785.071,808.235,786.14z"/>
			<path style="fill:#1F4275;" d="M676.233,758.442l30.15,6.327c5.094,1.068,10.09-2.194,11.159-7.288l15.586-74.277
				c1.069-5.094-2.194-10.089-7.288-11.159l-30.15-6.326c-5.094-1.069-10.09,2.194-11.159,7.288l-15.586,74.277
				C667.877,752.377,671.14,757.373,676.233,758.442z"/>
		</g>
		<path style="fill:#FFC0BB;" d="M738.116,740.532c-6.631-10.785-9.185-13.778-8.66-15.149c0.524-1.372,11.136,1.296,18.527,12.285
			C746.518,743.323,738.116,740.532,738.116,740.532z"/>
		<path style="fill:#FFC0BB;" d="M518.295,467.515c4.801-0.853,8.472-1.278,8.472-1.278c5.581-6.629,11.337-17.291,11.053-17.927
			c-0.387-0.867-3.587-1.897-11.682,5.548c-5.669,5.456-9.794,9.795-9.794,9.795C513.89,469.2,518.295,467.515,518.295,467.515z"/>
	</g>
	<g>
		<g>
			<g>
				<g>
					<path style="fill:#DAEEF7;" d="M1196.715,1811.236l116.419,0.386c1.741,0.005,3.156-1.4,3.162-3.14l0.021-6.044
						c0.008-1.74-1.4-3.159-3.142-3.164l-116.419-0.389c-1.742-0.005-3.156,1.4-3.163,3.144l-0.02,6.041
						C1193.567,1809.815,1194.974,1811.23,1196.715,1811.236z"/>
					<path style="fill:#333333;" d="M1310.835,1761.753l3.951,34.358c0.489,4.234-1.894,8.072-5.007,8.064l-108.146-0.365
						c-2.809-0.008-5.581-1.772-7.045-5.071c-1.502-3.382-1.786-8.476,3.075-15.3c9.727-13.651,41.552-16.883,57.15-28.513
						l50.377,0.17C1308.006,1755.104,1310.394,1757.928,1310.835,1761.753z"/>
					<g>
						<path style="fill:#DAEEF7;" d="M1262.396,1774.896L1262.396,1774.896c0.785-0.479,1.073-1.795,0.624-2.799
							c-2.108-4.713-8.705-16.188-22.218-13.881c-0.779,0.133-1.314,1.168-1.184,2.239l0.005,0.03
							c0.124,1.035,0.824,1.715,1.581,1.591c12.109-2.025,17.718,8.088,19.423,12.039
							C1260.99,1774.958,1261.745,1775.293,1262.396,1774.896z"/>
					</g>
					<g>
						<path style="fill:#DAEEF7;" d="M1251.15,1779.277L1251.15,1779.277c0.784-0.479,1.076-1.792,0.627-2.796
							c-2.109-4.71-8.707-16.19-22.221-13.879c-0.779,0.129-1.313,1.163-1.184,2.231l0.005,0.036
							c0.124,1.035,0.825,1.717,1.582,1.589c12.109-2.026,17.718,8.092,19.421,12.041
							C1249.745,1779.342,1250.5,1779.674,1251.15,1779.277z"/>
					</g>
					<g>
						<path style="fill:#DAEEF7;" d="M1240.689,1783.367L1240.689,1783.367c0.785-0.479,1.075-1.794,0.626-2.798
							c-2.108-4.711-8.707-16.19-22.219-13.879c-0.78,0.134-1.313,1.163-1.184,2.233l0.003,0.036
							c0.126,1.035,0.827,1.715,1.583,1.586c12.109-2.023,17.72,8.093,19.424,12.041
							C1239.283,1783.432,1240.041,1783.764,1240.689,1783.367z"/>
					</g>
					<path style="opacity:0.3;fill:#E87B50;" d="M1280.915,1804.075c8.61-27.712,23.309-30.729,31.33-30.06l2.541,22.096
						c0.489,4.234-1.894,8.072-5.007,8.064L1280.915,1804.075z"/>
				</g>
				<g>
					<path style="fill:#DAEEF7;" d="M1452.126,1814.223l116.418,0.386c1.742,0.005,3.158-1.4,3.164-3.141l0.021-6.044
						c0.005-1.74-1.402-3.158-3.142-3.163l-116.423-0.389c-1.739-0.008-3.155,1.4-3.16,3.14l-0.021,6.044
						C1448.979,1812.796,1450.384,1814.212,1452.126,1814.223z"/>
					<path style="fill:#333333;" d="M1566.246,1764.739l3.951,34.357c0.487,4.234-1.896,8.072-5.008,8.06l-108.145-0.357
						c-2.812-0.011-5.582-1.773-7.046-5.071c-1.5-3.385-1.786-8.479,3.076-15.303c9.729-13.649,41.552-16.883,57.151-28.513
						l50.375,0.168C1563.416,1758.09,1565.807,1760.908,1566.246,1764.739z"/>
					<g>
						<path style="fill:#DAEEF7;" d="M1517.806,1777.879L1517.806,1777.879c0.784-0.473,1.073-1.791,0.627-2.795
							c-2.109-4.713-8.705-16.193-22.22-13.885c-0.781,0.135-1.314,1.169-1.184,2.24l0.004,0.033
							c0.124,1.035,0.826,1.715,1.582,1.586c12.109-2.023,17.72,8.095,19.422,12.043
							C1516.401,1777.943,1517.157,1778.278,1517.806,1777.879z"/>
					</g>
					<g>
						<path style="fill:#DAEEF7;" d="M1506.562,1782.263L1506.562,1782.263c0.783-0.479,1.073-1.794,0.624-2.798
							c-2.107-4.71-8.707-16.19-22.219-13.882c-0.78,0.134-1.313,1.169-1.183,2.239l0.003,0.031
							c0.126,1.035,0.826,1.715,1.582,1.591c12.108-2.023,17.72,8.093,19.425,12.041
							C1505.155,1782.327,1505.91,1782.659,1506.562,1782.263z"/>
					</g>
					<g>
						<path style="fill:#DAEEF7;" d="M1496.102,1786.351L1496.102,1786.351c0.784-0.477,1.072-1.792,0.623-2.796
							c-2.107-4.71-8.704-16.19-22.218-13.879c-0.78,0.134-1.313,1.164-1.184,2.236l0.005,0.034c0.125,1.034,0.824,1.714,1.58,1.588
							c12.109-2.025,17.719,8.091,19.424,12.039C1494.696,1786.415,1495.449,1786.752,1496.102,1786.351z"/>
					</g>
					<path style="opacity:0.3;fill:#E87B50;" d="M1536.324,1807.061c8.614-27.714,23.313-30.729,31.331-30.059l2.542,22.095
						c0.487,4.234-1.896,8.072-5.008,8.06L1536.324,1807.061z"/>
				</g>
				<path style="fill:#FFC0BB;" d="M1378.678,541.664c-0.972,0.381-1.984-0.466-1.771-1.485c1.667-7.902-2.528-12.59-4.84-12.325
					c-2.312,0.273-6.397-2.906-7.607-2.829c-1.209,0.077-6.431-1.596-7.874-1.083c-1.438,0.51-8.289-6.799-13.034,20.064
					c0,0-0.397,12.839-2.671,15.854l5.057,10.316l15.679,0.522c0,0,34.057-30.813,33.776-32.682
					C1395.127,536.229,1393.625,535.808,1378.678,541.664z"/>
				<path style="fill:#FFC0BB;" d="M1539.326,551.982c0.692,0.78,2.157,0.524,2.252-0.515c1.261-13.777,7.99-10.057,9.926-8.765
					c1.935,1.293,7.021,0.325,8.061,0.948c1.041,0.618,10.961,1.188,12.01,2.3c1.049,1.109,9.39-9.938-2.051,24.12
					c0,0-5.501,11.611-4.85,15.331l-9.204,6.88l-14.193-6.68c0,0-16.27-42.945-15.167-44.484
					C1527.162,539.65,1528.69,539.959,1539.326,551.982z"/>
				<polygon style="fill:#FFC0BB;" points="1416.874,831.71 1417.121,891.616 1358.912,882.646 1368.623,815.283 				"/>
				<path style="opacity:0.6;fill:#FC8D84;" d="M1364.151,846.295l4.472-31.012l48.303,22.105l0.027,11.825
					C1405.314,852.06,1383.533,854.606,1364.151,846.295z"/>
				<path style="fill:#224887;" d="M1244.942,1216.126c0.146-6.677-17.237,13.004-16.908,7.676
					c6.823-110.824,223.413-17.902,223.413-17.902l52.871,38.793l75.081,520.588c0,0-45.239,2.406-80.377-6.414l-120.91-438.979
					l-16.257-6.252C1361.855,1313.636,1289.568,1263.215,1244.942,1216.126z"/>
				<path style="fill:#06BFAD;" d="M1227.789,1228.327c-0.063,1.297-0.121,2.615-0.175,3.984
					C1227.668,1230.942,1227.726,1229.624,1227.789,1228.327z"/>
				<path style="fill:#06BFAD;" d="M1227.611,1232.379c-0.054,1.387-0.102,2.815-0.148,4.27
					C1227.51,1235.194,1227.558,1233.764,1227.611,1232.379z"/>
				<path style="fill:#06BFAD;" d="M1227.446,1237.215c-0.044,1.509-0.084,3.051-0.119,4.634
					C1227.362,1240.266,1227.402,1238.724,1227.446,1237.215z"/>
				<path style="fill:#06BFAD;" d="M1228.034,1223.802c-0.074,1.2-0.142,2.445-0.204,3.715
					C1227.895,1226.247,1227.96,1225.002,1228.034,1223.802z"/>
				<path style="fill:#1F4275;" d="M1228.061,1198.625c44.627,47.087,133.795,115.011,133.795,115.011l16.257,6.252l-16.257-6.252
					l-33.404,448.663c0,0-60.623,3.712-81.089-7.372C1247.362,1754.927,1225.146,1330.771,1228.061,1198.625z"/>
				<path style="fill:#FFC0BB;" d="M1243.848,1207.463c34.895-116.938,32.15-260.622,32.15-260.622s-102.039-187.854,71.771-396.624
					l16.877,13.033c0,0-42.803,117.194-46.555,172.202c-3.25,47.655-9.377,84.381,27.509,125.01
					c32.096,22.502,75.65,6.877,75.65,6.877s58.773-9.376,106.078-101.885c14.261-27.887,13.276-188.492,13.276-188.492
					l22.691-2.098c0,0,39.062,90.579,35.727,195.588c-3.334,105.013-103.369,194.19-103.369,194.19
					c-3.336,31.668-1.71,250.502-1.71,250.502C1422.766,1241.449,1285.546,1232.981,1243.848,1207.463z"/>
				<polygon style="fill:#07085B;" points="1338.789,725.913 1335.673,762.294 1341.423,765.913 1352.05,721.609 				"/>
				<path style="fill:#F99893;" d="M1346.521,758.536c1.58,8.242-2.484,15.946-9.076,17.21c-6.595,1.267-13.223-4.389-14.804-12.631
					c-1.58-8.239,2.482-15.946,9.076-17.21C1338.313,744.642,1344.94,750.294,1346.521,758.536z"/>
				<path style="fill:#FFC0BB;" d="M1339.786,803.548c-1.239-3.668-2.146-7.477-2.699-11.38c-1.689-10.53-1.446-21.308-0.512-30.559
					c0.2-1.984,0.284-3.979,0.334-5.972c0.192-8.057,1.874-16.301,5.402-24.425c11.348-26.124,39.039-41.975,67.311-38.469
					c38.088,4.728,63.185,40.551,55.856,77.174c4.426-1.415,9.001-1.03,12.587,1.516c6.879,4.888,7.503,15.815,1.396,24.412
					c-6.107,8.595-16.637,11.606-23.516,6.721c-0.957-0.68-1.778-1.482-2.491-2.373c-9.413,30.528-39.765,49.47-70.294,42.837
					c-14.933-3.248-27.277-12.047-35.524-23.887c-0.569-0.71-1.15-1.524-1.749-2.453
					C1343.268,812.616,1341.284,808.173,1339.786,803.548z"/>
				<path style="fill:#333333;" d="M1407.213,764.006c-0.664,3.058,1.275,6.075,4.333,6.739c3.058,0.664,6.077-1.274,6.743-4.333
					c0.663-3.058-1.275-6.075-4.334-6.739C1410.896,759.007,1407.878,760.948,1407.213,764.006z"/>
				<path style="fill:#333333;" d="M1358.976,756.786c-0.663,3.06,1.278,6.077,4.336,6.741c3.057,0.664,6.077-1.274,6.74-4.332
					c0.666-3.058-1.275-6.077-4.333-6.739C1362.66,751.787,1359.644,753.727,1358.976,756.786z"/>
				<path style="fill:#F99893;" d="M1399.991,802.704c-1.453,0.723-2.943,1.354-4.474,1.858c-1.517,0.527-3.066,0.96-4.636,1.264
					c-3.135,0.61-6.347,0.806-9.484,0.365c-3.139-0.43-6.161-1.521-8.917-3.109c-2.739-1.632-5.192-3.753-7.408-6.126
					c0.94,1.323,1.983,2.585,3.138,3.743c1.153,1.168,2.458,2.178,3.811,3.12c1.38,0.903,2.857,1.668,4.408,2.265
					c1.556,0.569,3.171,0.983,4.814,1.225c3.292,0.438,6.651,0.193,9.832-0.638C1394.25,805.839,1397.312,804.555,1399.991,802.704z
					"/>
				<path style="fill:#07085B;" d="M1402.917,751.571c2.952-0.525,5.735-0.86,8.47-0.903c2.726-0.049,5.364,0.244,7.876,0.934
					c2.492,0.711,4.97,1.648,7.241,3.141l0.892,0.509c0.298,0.175,0.55,0.407,0.841,0.597l1.725,1.21
					c1.153,0.829,2.19,1.82,3.481,2.667c-0.549-1.38-1.201-2.76-2.006-4.047c-0.936-1.169-1.751-2.523-2.966-3.495
					c-2.193-2.204-5.116-3.712-8.16-4.554c-3.065-0.832-6.32-0.857-9.332-0.157C1407.985,748.204,1405.13,749.498,1402.917,751.571z
					"/>
				<path style="fill:#07085B;" d="M1380.384,747.864c-1.433-2.675-3.72-4.813-6.322-6.466c-2.626-1.624-5.719-2.646-8.891-2.842
					c-3.151-0.175-6.404,0.314-9.189,1.699c-1.46,0.533-2.669,1.552-3.93,2.363c-1.174,0.96-2.234,2.054-3.194,3.186
					c1.494-0.389,2.791-0.993,4.151-1.41l2.021-0.592c0.336-0.087,0.65-0.227,0.988-0.296l1.008-0.196
					c2.632-0.687,5.275-0.779,7.866-0.656c2.599,0.157,5.193,0.718,7.76,1.643C1375.226,745.21,1377.754,746.42,1380.384,747.864z"
					/>
				<path style="fill:#F99893;" d="M1390.207,755.01c-2.661,2.486-5.089,5.189-7.387,8.005c-2.305,2.816-4.447,5.758-6.354,8.909
					c-0.918,1.596-1.802,3.231-2.432,5.079c-0.145,0.469-0.271,0.958-0.354,1.483c-0.038,0.263-0.043,0.556-0.059,0.834
					c0.035,0.319,0.029,0.613,0.157,0.958c0.065,0.175,0.135,0.345,0.213,0.51l0.209,0.314c0.143,0.201,0.273,0.414,0.427,0.605
					c0.311,0.368,0.612,0.749,0.95,1.081c1.301,1.377,2.766,2.504,4.276,3.544c1.525,1.017,3.091,1.957,4.748,2.724
					c-2.751-2.358-5.535-4.711-7.712-7.408c-0.278-0.329-0.503-0.687-0.745-1.029l-0.319-0.525l-0.154-0.263
					c-0.003-0.046-0.01-0.082-0.026-0.123c-0.119-0.396,0.092-1.282,0.381-2.019c0.596-1.555,1.441-3.12,2.356-4.628
					c1.796-3.058,3.832-6.021,5.826-9.012C1386.226,761.066,1388.259,758.083,1390.207,755.01z"/>
				<path style="fill:#07085B;" d="M1345.561,687.065c0,0-19.114-3.675,4.429-15.212c23.545-11.542,81.265-18.26,111.44,7.583
					c0,0,10.15-13.017,19.271-7.3c9.119,5.719-9.498,12.044-9.498,12.044s12.744,2.453,15.199,9.532
					c1.816,5.23-5.975,3.681-10.163,2.517c6.925,2.852,27.291,22.08,0.843,74.601c-4.683-2.195-34.95-45.354-34.95-45.354
					s-60.843,19.988-49.75,3.411c0,0-70.91,17.83-53.723-14.304C1338.658,714.582,1312.521,710.648,1345.561,687.065z"/>
				<path style="fill:#07085B;" d="M1477.081,770.83c0,0-4.59-3.511-11.602-0.911c-7.013,2.6-11.473,18.333-11.473,18.333
					s-22.959,18.8-11.762-63.128c10.999-80.495,26.233,13.4,26.233,13.4L1477.081,770.83z"/>
			</g>
			<g>
				<g>
					<path style="fill:#07085B;" d="M1045.244,517.037l834.641,52.501c4.019,0.253,7.482-2.8,7.734-6.818l0,0
						c0.252-4.018-2.8-7.481-6.818-7.733l-834.642-52.501c-4.018-0.253-7.481,2.8-7.733,6.818l0,0
						C1038.173,513.322,1041.226,516.785,1045.244,517.037z"/>
					<path style="fill:#07085B;" d="M1170.492,540.448l9.142,0.575c1.707,0.107,3.178-1.189,3.285-2.895l2.473-39.315
						c0.107-1.707-1.19-3.177-2.896-3.285l-9.142-0.575c-1.706-0.107-3.177,1.19-3.284,2.896l-2.473,39.315
						C1167.489,538.871,1168.785,540.341,1170.492,540.448z"/>
					<path style="fill:#07085B;" d="M1738.187,576.158l9.143,0.575c1.707,0.107,3.177-1.189,3.284-2.896l2.474-39.315
						c0.107-1.707-1.19-3.177-2.896-3.285l-9.143-0.575c-1.707-0.107-3.178,1.189-3.284,2.896l-2.474,39.315
						C1735.184,574.58,1736.48,576.051,1738.187,576.158z"/>
				</g>
				<g>
					<path style="fill:#1F4275;" d="M1071.287,602.797l12.311,0.774c3.37,0.212,6.273-2.348,6.485-5.718l10.689-169.929
						c0.212-3.37-2.349-6.274-5.719-6.485l-12.312-0.775c-3.37-0.212-6.273,2.348-6.485,5.718l-10.69,169.928
						C1065.356,599.681,1067.917,602.585,1071.287,602.797z"/>
					<path style="fill:#262626;" d="M1099.359,431.295c0.212-3.37-2.349-6.273-5.719-6.485l-12.311-0.774
						c-2.065-0.13-3.87,0.853-5.073,2.353l0.001-0.008c0.212-3.369,3.116-5.929,6.486-5.717l12.311,0.774
						c3.37,0.212,5.931,3.116,5.719,6.485l-10.689,169.93c-0.082,1.305-0.653,2.415-1.413,3.363L1099.359,431.295z"/>
				</g>
				<g>
					<path style="fill:#1F4275;" d="M1143.768,636.576l10.496,0.66c3.872,0.244,7.207-2.697,7.451-6.569l14.236-226.321
						c0.243-3.871-2.697-7.207-6.569-7.451l-10.496-0.66c-3.871-0.244-7.207,2.697-7.451,6.569l-14.235,226.321
						C1136.955,632.997,1139.896,636.332,1143.768,636.576z"/>
					<path style="fill:#262626;" d="M1160.301,634.039l14.236-226.323c0.243-3.871-2.698-7.206-6.57-7.45l-10.494-0.66
						c-2.39-0.15-4.569,0.918-5.95,2.663c0.507-3.598,3.676-6.266,7.364-6.034l10.494,0.66c3.872,0.244,6.813,3.579,6.57,7.45
						l-14.236,226.323c-0.094,1.482-0.646,2.823-1.502,3.905C1160.238,634.393,1160.289,634.223,1160.301,634.039z"/>
				</g>
				<g>
					<path style="fill:#1F4275;" d="M1119.252,635.034l10.496,0.66c3.871,0.244,7.207-2.697,7.451-6.569l14.235-226.321
						c0.244-3.872-2.697-7.207-6.568-7.451l-10.497-0.66c-3.871-0.244-7.206,2.697-7.45,6.569l-14.236,226.321
						C1112.439,631.454,1115.38,634.79,1119.252,635.034z"/>
					<path style="fill:#262626;" d="M1135.785,632.497l14.236-226.323c0.243-3.871-2.698-7.206-6.57-7.45l-10.494-0.66
						c-2.39-0.15-4.569,0.917-5.95,2.663c0.507-3.598,3.676-6.266,7.364-6.034l10.494,0.66c3.872,0.244,6.814,3.579,6.57,7.45
						l-14.236,226.323c-0.094,1.482-0.646,2.823-1.502,3.905C1135.723,632.852,1135.773,632.681,1135.785,632.497z"/>
				</g>
				<g>
					<path style="fill:#1F4275;" d="M1094.736,633.491l10.496,0.661c3.871,0.244,7.207-2.698,7.45-6.569l14.236-226.321
						c0.244-3.872-2.697-7.207-6.568-7.451l-10.497-0.66c-3.871-0.244-7.207,2.697-7.45,6.568l-14.236,226.322
						C1087.924,629.912,1090.864,633.248,1094.736,633.491z"/>
					<path style="fill:#262626;" d="M1111.27,630.955l14.236-226.323c0.243-3.871-2.698-7.207-6.57-7.45l-10.494-0.66
						c-2.39-0.15-4.569,0.917-5.95,2.662c0.507-3.597,3.676-6.266,7.363-6.034l10.495,0.66c3.872,0.244,6.813,3.579,6.569,7.45
						l-14.236,226.324c-0.093,1.482-0.646,2.822-1.501,3.905C1111.207,631.31,1111.258,631.139,1111.27,630.955z"/>
				</g>
				<g>
					<path style="fill:#1F4275;" d="M1825.771,650.256l12.312,0.774c3.37,0.212,6.274-2.348,6.486-5.718l10.688-169.929
						c0.212-3.37-2.348-6.273-5.718-6.485l-12.313-0.775c-3.37-0.212-6.273,2.349-6.485,5.718l-10.689,169.929
						C1819.841,647.14,1822.401,650.044,1825.771,650.256z"/>
					<path style="fill:#262626;" d="M1853.844,478.754c0.213-3.37-2.348-6.273-5.719-6.485l-12.31-0.774
						c-2.066-0.13-3.87,0.853-5.074,2.354l0.001-0.008c0.212-3.369,3.116-5.929,6.486-5.717l12.31,0.774
						c3.37,0.212,5.931,3.116,5.719,6.485l-10.69,169.93c-0.082,1.305-0.652,2.416-1.412,3.363L1853.844,478.754z"/>
				</g>
				<g>
					<path style="fill:#1F4275;" d="M1800.332,677.875l10.497,0.66c3.871,0.244,7.207-2.698,7.45-6.569l14.236-226.321
						c0.244-3.872-2.697-7.207-6.568-7.451l-10.497-0.66c-3.871-0.244-7.207,2.697-7.45,6.568l-14.236,226.322
						C1793.521,674.296,1796.461,677.632,1800.332,677.875z"/>
					<path style="fill:#262626;" d="M1816.865,675.339l14.236-226.323c0.244-3.871-2.697-7.206-6.569-7.45l-10.495-0.66
						c-2.389-0.15-4.569,0.917-5.949,2.663c0.506-3.598,3.676-6.266,7.363-6.034l10.495,0.66c3.871,0.244,6.813,3.579,6.569,7.45
						l-14.236,226.324c-0.093,1.482-0.646,2.822-1.502,3.905C1816.803,675.693,1816.854,675.523,1816.865,675.339z"/>
				</g>
				<g>
					<path style="fill:#1F4275;" d="M1775.817,676.333l10.497,0.66c3.871,0.244,7.207-2.697,7.45-6.568L1808,444.103
						c0.243-3.871-2.697-7.207-6.568-7.45l-10.497-0.661c-3.871-0.243-7.207,2.698-7.45,6.569l-14.236,226.322
						C1769.004,672.754,1771.945,676.09,1775.817,676.333z"/>
					<path style="fill:#262626;" d="M1792.35,673.797l14.236-226.324c0.243-3.871-2.698-7.206-6.569-7.45l-10.495-0.66
						c-2.389-0.15-4.569,0.917-5.949,2.663c0.506-3.598,3.676-6.266,7.363-6.034l10.494,0.66c3.872,0.244,6.813,3.579,6.57,7.45
						l-14.236,226.324c-0.093,1.482-0.646,2.822-1.502,3.905C1792.287,674.151,1792.338,673.981,1792.35,673.797z"/>
				</g>
				<g>
					<path style="fill:#1F4275;" d="M1751.301,674.791l10.496,0.66c3.872,0.244,7.207-2.697,7.451-6.568l14.236-226.322
						c0.243-3.871-2.697-7.207-6.569-7.451l-10.496-0.66c-3.871-0.243-7.207,2.697-7.451,6.569l-14.235,226.321
						C1744.488,671.212,1747.43,674.547,1751.301,674.791z"/>
					<path style="fill:#262626;" d="M1767.834,672.255l14.236-226.324c0.243-3.871-2.698-7.206-6.57-7.45l-10.494-0.66
						c-2.39-0.15-4.569,0.918-5.949,2.663c0.506-3.598,3.675-6.266,7.363-6.034l10.494,0.66c3.872,0.244,6.813,3.579,6.57,7.45
						l-14.236,226.324c-0.094,1.481-0.646,2.822-1.502,3.905C1767.771,672.609,1767.822,672.438,1767.834,672.255z"/>
				</g>
			</g>
			<g>
				<path style="fill:#FFC0BB;" d="M1574.96,534.998c0.274,4.118,0.321,7.994-0.975,8.214c-1.264,0.214-3.157-3.733-3.652-7.628
					C1570.333,531.69,1574.307,532.765,1574.96,534.998z"/>
				<path style="fill:#FFC0BB;" d="M1568.404,535.585c-1.471,7.896-2.342,9.923-3.338,9.601c-1.096-0.355-1.519-5.208-1.772-9.535
					C1563.395,531.64,1568.694,530.581,1568.404,535.585z"/>
				<path style="fill:#FFC0BB;" d="M1560.397,534.529l-0.024,0.321c-1.868,6.656-4.448,9.464-5.549,9.377
					c-1.274-0.101-0.961-4.001,0.373-10.403C1556.414,529.774,1561.172,530.581,1560.397,534.529z"/>
				<path style="fill:#FFC0BB;" d="M1546.997,532.083c1.852-2.526,5.8-1.78,5.004,2.221c-3.024,3.901-5.979,8.269-7.58,7.363
					C1543.125,540.932,1544.843,536.604,1546.997,532.083z"/>
			</g>
			<g>
				<path style="fill:#FFC0BB;" d="M1350.246,520.096c-0.973,4.011-1.682,7.821-0.441,8.26c1.208,0.427,3.748-3.139,4.9-6.892
					C1355.37,517.627,1351.272,518.007,1350.246,520.096z"/>
				<path style="fill:#FFC0BB;" d="M1356.605,521.793c0.101,8.031,0.612,10.178,1.649,10.03c1.14-0.163,2.386-4.872,3.374-9.092
					C1362.216,518.762,1357.175,516.814,1356.605,521.793z"/>
				<path style="fill:#FFC0BB;" d="M1364.676,522.12l-0.031,0.321c0.704,6.877,2.766,10.084,3.866,10.187
					c1.273,0.118,1.629-3.778,1.408-10.314C1369.412,518.116,1364.586,518.099,1364.676,522.12z"/>
				<path style="fill:#FFC0BB;" d="M1378.297,521.999c-1.393-2.806-5.411-2.744-5.311,1.334c2.314,4.36,4.48,9.169,6.211,8.549
					C1380.601,531.379,1379.646,526.822,1378.297,521.999z"/>
			</g>
		</g>
		<path style="fill:#3093BD;" d="M1338.442,851.94c0.552,0.628,13.524,8.691,19.645,15.287c0,0,0.002,0.001,0.003,0.002
			c-18.928,30.106-42.543,77.336,6.982,81.056c44.466,3.339,52.049-35.017,52.049-79.679l0.001-0.001
			c7.112-5.128,21.733-7.409,21.733-7.409s-1.676,118.793,62.342,117.513l28.695,269.727
			c-71.177,26.304-181.036,7.471-181.036,7.471c-0.104-0.011-0.209-0.023-0.313-0.035c-29.467-3.387-86.796-10.085-128.494-35.604
			c7.985-97.307,50.29-262.227,50.294-262.246C1270.343,958.021,1295.062,906.326,1338.442,851.94z"/>
	</g>
</g>
</svg>
