<svg version="1.2" xmlns="http://www.w3.org/2000/svg" viewBox="0 0 1000 1000" width="1000" height="1000">
	<title>3674660</title>
	<defs>
		<clipPath clipPathUnits="userSpaceOnUse" id="cp1">
			<path d="m170.56 615.44l317.2 121.77 306.69-121.77z"/>
		</clipPath>
		<clipPath clipPathUnits="userSpaceOnUse" id="cp2">
			<path d="m639.85 583.5c-45.92-42.11-109.59-15.92-127.32-7.31-8.74-8.21-30.42-25.37-60.58-27.02 0 0 12.31 38.12 32.16 43.73 0 0-30.88 12.38-40.13 34.01 0 0 45.4 6.09 73.59-16.28 49.65 38.29 99.72 14.88 114.77 1.76 16.42-14.33 7.51-28.89 7.51-28.89z"/>
		</clipPath>
	</defs>
	<style>
		tspan { white-space:pre } 
		.s0 { fill: #2aa14f } 
		.s1 { opacity: .5;fill: #f3f6d7 } 
		.s2 { fill: #96531e } 
		.s3 { mix-blend-mode: multiply;fill: #96531e } 
		.s4 { fill: #ff8400 } 
		.s5 { opacity: .35;mix-blend-mode: multiply;fill: #ff8400 } 
		.s6 { opacity: .14;fill: #061723 } 
		.s7 { opacity: .68;fill: #ffffff } 
		.s8 { opacity: .83;fill: #ffb001 } 
		.s9 { opacity: .5;mix-blend-mode: multiply;fill: #8dba37 } 
		.s10 { opacity: .43;mix-blend-mode: multiply;fill: #2aa14f } 
		.s11 { fill: #ffb001 } 
		.s12 { opacity: .34;fill: #ffffff } 
		.s13 { fill: #061723 } 
		.s14 { opacity: .41;mix-blend-mode: multiply;fill: #96531e } 
		.s15 { fill: #074530 } 
		.s16 { fill: #ffffff } 
		.s17 { opacity: .41;mix-blend-mode: multiply;fill: #f04340 } 
		.s18 { fill: #f3f6d7 } 
		.s19 { opacity: .45;mix-blend-mode: multiply;fill: #2aa14f } 
		.s20 { opacity: .47;fill: #061723 } 
		.s21 { fill: #22a8a8 } 
		.s22 { opacity: .28;fill: #f3f6d7 } 
		.s23 { opacity: .47;fill: #f3f6d7 } 
		.s24 { opacity: .43;fill: #044463 } 
		.s25 { opacity: .18;mix-blend-mode: multiply;fill: #96531e } 
		.s26 { opacity: .29;mix-blend-mode: multiply;fill: #96531e } 
		.s27 { fill: #044463 } 
		.s28 { opacity: .24;fill: #061723 } 
		.s29 { fill: #a0c659 } 
		.s30 { mix-blend-mode: multiply;fill: #f3f6d7 } 
		.s31 { opacity: .25;mix-blend-mode: overlay;fill: #88eefc } 
		.s32 { opacity: .41;mix-blend-mode: multiply;fill: #044463 } 
		.s33 { opacity: .32;fill: #88eefc } 
		.s34 { fill: #88eefc } 
		.s35 { opacity: .43;fill: #88eefc } 
		.s36 { opacity: .54;fill: #044463 } 
		.s37 { opacity: .39;fill: #044463 } 
		.s38 { fill: #188a63 } 
		.s39 { opacity: .48;fill: #188a63 } 
		.t40 { font-size: 24px;fill: #044463;font-weight: 700;font-family: "Inter-Bold", "Inter" } 
		.t41 { font-size: 12px;fill: #044463;font-weight: 700;font-family: "Inter-Bold", "Inter" } 
	</style>
	<g id="BACKGROUND">
	</g>
	<g id="OBJECTS">
		<g id="&lt;Group&gt;">
			<path id="&lt;Path&gt;" class="s0" d="m838.2 555.4c0 0 4.2-21.5-5.5-40.9-9.7-19.4 0.5-28.8 6.1-37.2 5.3-8.1 10-35.2-12.6-44.9l0.1-0.2q-1.2-0.3-2.3-0.7-0.4-0.1-0.8-0.3l-0.1 0.1c-24.2-6-40.3 17.9-40.9 27.6-0.6 10 1.9 23.6-17.5 33.2-19.4 9.5-29 29.1-29 29.1-18.2 54.2 28 72.7 32.1 74.2q0 0 0 0 0.2 0.1 0.2 0.1c4.2 1.2 52 14.4 70.2-40.1z"/>
			<path id="&lt;Path&gt;" class="s1" d="m831 552.4c0 0 4.1-20-3.8-37.8-7.9-17.7 1.2-26.7 6.2-34.6 4.8-7.6 9.5-32.9-9.8-41.4v-0.1q-0.9-0.4-1.9-0.6-0.4-0.1-0.7-0.3v0.1c-20.9-5-35.3 17.6-36.1 26.5-0.7 9.4 1.1 21.9-15.9 31.2-17 9.4-25.8 27.7-25.8 27.7-16.9 50.7 22.5 66.7 26 68q0 0 0.1 0.1 0.1 0 0.1 0c3.6 1.1 44.6 12.1 61.6-38.8z"/>
			<path id="&lt;Path&gt;" class="s2" d="m809.9 528.5c0 12-9.4 21.8-20.9 21.8-11.6 0-20.9-9.8-20.9-21.8 0-12 9.3-21.7 20.9-21.7 11.5 0 20.9 9.7 20.9 21.7z"/>
			<path id="&lt;Path&gt;" class="s3" d="m805.7 515.5q-0.1 0.6-0.2 1.1c1.6 6.1 0.5 12.9-4.2 17.8-7.3 7.6-20.2 7.4-28 0.8-2.7-2.3-4.3-4.9-5.2-7.7q0 0.5 0 1c0 12 9.3 21.8 20.9 21.8 11.5 0 20.9-9.8 20.9-21.8 0-4.9-1.5-9.4-4.2-13z"/>
		</g>
		<g id="&lt;Group&gt;">
			<g id="&lt;Group&gt;">
				<path id="&lt;Path&gt;" class="s0" d="m241.9 417.4c0 0 36.3 2.4 33.6-7.3-2.8-9.7-17-4.6-17-4.6 0 0 35.9-17.5 31.2-26.6-4.7-9.2-22.7 8.5-22.7 8.5 0 0 31.1-23.4 23.6-27.6-7.4-4.2-32.3 22.7-32.3 22.7 0 0 11.1-19.9 2.1-18.4-9 1.5-33.1 53.3-18.5 53.3z"/>
				<path id="&lt;Path&gt;" class="s4" d="m186.4 525.1c0 0-14.2 5.1-14.2-9.6 0.1-14.6 46.3-114.5 57.6-111.4 11.4 3.1 32.5 14.9 30.9 20.6-1.5 5.7-56.7 92.4-74.3 100.4z"/>
				<path id="&lt;Path&gt;" class="s5" d="m212.4 442.9c-12.3 26.3-30.1 52.3-37.6 80.8-1.5-1.6-2.6-4.1-2.6-8.2 0.1-14.6 46.3-114.5 57.6-111.4q0.2 0.1 0.4 0.1c-6.1 12.8-11.9 25.9-17.8 38.7z"/>
				<path id="&lt;Path&gt;" class="s6" d="m180.7 488.8c2-4.7 4.1-9.8 6.4-15 10.6 5.2 21 10.8 32 15q-1.6 2.2-3.1 4.3c-4.7-3.4-9.5-6.6-14.5-9.5-5.7-3.3-10.7 5.7-5 9 4.6 2.6 9 5.5 13.3 8.6-3.6 4.6-7.1 8.8-10.3 12.3l-13.7-7.6c-5.8-3.3-10.8 5.7-5 8.9l11.3 6.3c-2.2 1.9-4.1 3.3-5.7 4 0 0-14.2 5.1-14.2-9.6 0-2.9 1.8-9.1 4.8-17.2 4.4 1.8 8.8 3.6 13.3 5.3 6.1 2.4 8.5-7.6 2.4-10-4-1.5-8-3.1-12-4.8z"/>
				<path id="&lt;Path&gt;" class="s6" d="m194.3 458.7c9.9 6.7 20.1 13 29 20.9q-0.5-0.3-1.2-0.5c-10.6-4-20.6-9.4-30.8-14.4q1.4-3.1 2.9-6.1 0 0 0.1 0.1z"/>
				<path id="&lt;Path&gt;" class="s6" d="m259.9 421.6l-31.2-17.5q0.6-0.1 1.1 0c9.6 2.6 26.1 11.4 30.1 17.5z"/>
				<path id="&lt;Path&gt;" class="s6" d="m257 431.8q-1.2 2-2.8 4.6l-36.6-20.5q1.6-2.5 3.1-4.5z"/>
				<path id="&lt;Path&gt;" class="s6" d="m248.8 445.1q-1.8 2.8-3.7 5.8l-9.2-5.2c-5.8-3.2-10.8 5.7-5 9l8.5 4.8c-2.8 4.2-5.7 8.6-8.7 13-9.6-8.7-20.7-15.5-31.4-22.8-0.2-0.1-0.4-0.2-0.6-0.3q1.8-3.6 3.6-7.1 5.5 3 10.5 6.9c5.1 4 12.4-3.2 7.2-7.3-4.2-3.2-8.5-6-13-8.5q2.6-4.7 5.1-8.9z"/>
			</g>
			<g id="&lt;Group&gt;">
				<path id="&lt;Path&gt;" class="s4" d="m191.9 423.2c-4.8 2.5-5.5 10.5-1.7 17.9 3.8 7.4 10.8 11.4 15.5 9 4.8-2.5 5.5-10.5 1.7-17.9-3.8-7.4-10.8-11.4-15.5-9z"/>
				<path id="&lt;Path&gt;" class="s6" d="m191.9 423.2c-4.8 2.5-5.5 10.5-1.7 17.9 3.8 7.4 10.8 11.4 15.5 9 4.8-2.5 5.5-10.5 1.7-17.9-3.8-7.4-10.8-11.4-15.5-9z"/>
				<path id="&lt;Path&gt;" class="s4" d="m195.1 421.5c-2.9 1.5-2.2 8.8 1.7 16.2 3.8 7.4 9.3 12.2 12.2 10.7 3-1.6 2.2-8.8-1.6-16.2-3.8-7.4-9.3-12.2-12.3-10.7z"/>
				<path id="&lt;Path&gt;" class="s6" d="m200.3 431.1c-0.6 0.3-0.2 2.2 0.9 4.3 1.1 2.1 2.4 3.5 3 3.2 0.6-0.2 0.2-2.2-0.9-4.3-1.1-2.1-2.4-3.5-3-3.2z"/>
			</g>
			<g id="&lt;Group&gt;">
				<path id="&lt;Path&gt;" class="s4" d="m170.3 452.8c-2.3 4.9 2 11.7 9.6 15.2 7.6 3.5 15.5 2.4 17.8-2.4 2.2-4.9-2.1-11.7-9.7-15.2-7.5-3.5-15.5-2.4-17.7 2.4z"/>
				<path id="&lt;Path&gt;" class="s6" d="m170.3 452.8c-2.3 4.9 2 11.7 9.6 15.2 7.6 3.5 15.5 2.4 17.8-2.4 2.2-4.9-2.1-11.7-9.7-15.2-7.5-3.5-15.5-2.4-17.7 2.4z"/>
				<path id="&lt;Path&gt;" class="s4" d="m171.8 449.5c-1.4 3 3.6 8.3 11.2 11.8 7.6 3.5 14.8 3.9 16.2 0.9 1.4-3-3.6-8.3-11.2-11.8-7.5-3.5-14.8-3.9-16.2-0.9z"/>
				<path id="&lt;Path&gt;" class="s6" d="m181.7 453.9c-0.2 0.6 1.3 1.9 3.4 2.8 2.1 1 4.1 1.4 4.4 0.8 0.2-0.6-1.3-1.9-3.4-2.9-2.1-1-4.1-1.3-4.4-0.7z"/>
			</g>
		</g>
		<g id="&lt;Group&gt;">
			<path id="&lt;Path&gt;" class="s2" d="m595.2 403.5c-5.2 0-9.5-4.3-9.5-9.5v-37c0-5.2 4.3-9.5 9.5-9.5 5.2 0 9.5 4.3 9.5 9.5v37c0 5.2-4.3 9.5-9.5 9.5z"/>
			<path id="&lt;Path&gt;" class="s7" d="m628.9 444.4h-16.3v-59.8h0.6c3.8 0 6.8-3.4 6.8-7.6v-3.3c0-4.1-3-7.6-6.8-7.6h-36c-3.8 0-6.8 3.5-6.8 7.6v3.3c0 4.2 3 7.6 6.8 7.6h0.6v59.8h-16.3c-8.1 0-14.7 7.3-14.7 16.3v127.7c0 9 6.6 16.4 14.7 16.4h67.4c8.1 0 14.7-7.4 14.7-16.4v-127.7c0-9-6.6-16.3-14.7-16.3z"/>
			<path id="&lt;Path&gt;" class="s8" d="m611.8 592.8h-34.2c-13.2 0-24-10.8-24-24v-88.2c0-13.2 10.8-24 24-24h34.2c13.2 0 24 10.8 24 24v88.2c0 13.2-10.8 24-24 24z"/>
			<path id="&lt;Path&gt;" class="s9" d="m569.9 480.6c13.4-10.9 28.9-17.9 44.5-24h-46.1c-8.1 0-14.7 7.3-14.7 16.3v25.7c4.4-6.7 9.9-12.8 16.3-18z"/>
			<path id="&lt;Path&gt;" class="s9" d="m614.5 544.2c-15.6 18.6-38.7 24.4-60.9 25.2v7.1c0 9 6.6 16.3 14.7 16.3h52.8c8.1 0 14.7-7.3 14.7-16.3v-90c-2.6 20.9-8.1 42-21.3 57.7z"/>
			<path id="&lt;Path&gt;" class="s9" d="m579.2 504.2c0 5.4-3.9 9.8-8.8 9.8-4.9 0-8.8-4.4-8.8-9.8 0-5.5 3.9-9.9 8.8-9.9 4.9 0 8.8 4.4 8.8 9.9z"/>
			<path id="&lt;Path&gt;" class="s9" d="m591.5 492c0 3-2.2 5.3-4.8 5.3-2.6 0-4.7-2.3-4.7-5.3 0-2.9 2.1-5.3 4.7-5.3 2.6 0 4.8 2.4 4.8 5.3z"/>
			<path id="&lt;Path&gt;" class="s9" d="m616 519.3c0 5.4-4 9.8-8.9 9.8-4.9 0-8.8-4.4-8.8-9.8 0-5.4 3.9-9.9 8.8-9.9 4.9 0 8.9 4.5 8.9 9.9z"/>
			<path id="&lt;Path&gt;" class="s9" d="m595.6 529.1c0 3.4-2.5 6.1-5.5 6.1-3 0-5.4-2.7-5.4-6.1 0-3.3 2.4-6 5.4-6 3 0 5.5 2.7 5.5 6z"/>
			<path id="&lt;Path&gt;" class="s9" d="m620 480.7c0 3.3-2.4 6-5.4 6-3 0-5.4-2.7-5.4-6 0-3.4 2.4-6.1 5.4-6.1 3 0 5.4 2.7 5.4 6.1z"/>
		</g>
		<g id="&lt;Group&gt;">
			<path id="&lt;Path&gt;" class="s0" d="m246.3 603.4c0 0 19.7-23.5 21.1-53.9 1.4-30.4 20.3-34.9 32.8-41.5 12.1-6.2 36.4-36.2 15.3-63.6l0.2-0.1q-1.2-1.3-2.3-2.4c-0.3-0.3-0.5-0.6-0.8-1l-0.1 0.1c-25.6-23.9-61.6-5.5-69 5.9-7.6 11.9-13.8 30.2-44.1 28.7-30.3-1.5-55.4 15.9-55.4 15.9-59.2 54-15.3 108.1-11.3 112.7q0 0 0 0.1 0.2 0.3 0.2 0.3l0.1-0.1c4.2 4.4 53.8 53.1 113.3-1.1z"/>
			<path id="&lt;Path&gt;" class="s10" d="m320.5 452.8c-1.3-2.8-2.9-5.6-5-8.4l0.2-0.1q-1.2-1.3-2.3-2.4c-0.3-0.3-0.5-0.6-0.8-1l-0.1 0.1c-2.7-2.4-5.4-4.4-8.2-6z"/>
			<path id="&lt;Path&gt;" class="s10" d="m269.5 431.1c-3.4 0.9-6.6 2.1-9.6 3.5l54.6 59.9c1.8-2.6 3.5-5.5 4.9-8.5z"/>
			<path id="&lt;Path&gt;" class="s10" d="m285 515.8c4-2.5 8.2-4.4 12-6.2l-55-60.3c-2.1 3.6-4.3 7.7-7.1 11.4z"/>
			<path id="&lt;Path&gt;" class="s10" d="m267.2 552.5q0.1-1.5 0.2-3c0.3-6.2 1.3-11.3 2.8-15.6l-54.4-59.8c-4.6 1.2-9.9 1.8-16.4 1.5q-1.2-0.1-2.4-0.1z"/>
			<path id="&lt;Path&gt;" class="s10" d="m255.9 588.5c1.5-2.8 3-5.8 4.4-9.1l-90.8-99.7c-3.5 1-6.7 2.2-9.5 3.4z"/>
			<path id="&lt;Path&gt;" class="s10" d="m238.7 609.8q1.5-1.2 3.1-2.5l-102-111.9q-1.4 1.4-2.7 2.9z"/>
			<path id="&lt;Path&gt;" class="s10" d="m212.9 624.4c1.9-0.7 3.8-1.4 5.7-2.3l-95.6-105c-1.1 1.9-2 3.7-2.8 5.5z"/>
			<path id="&lt;Path&gt;" class="s10" d="m113.4 549.5c-1.3 29.5 16.8 51.8 19.3 54.7q0 0 0 0.1 0.2 0.3 0.2 0.3l0.1-0.1c2.6 2.8 23 22.8 52.5 24.2z"/>
			<path id="&lt;Path&gt;" class="s11" d="m239.5 594.8c0 0 18.7-21.8 21.1-48.9 2.5-27.2 19.6-32 31.2-38.3 11.1-6.1 34.1-33.8 16.2-57.3l0.2-0.2q-1-1-2-2-0.3-0.4-0.7-0.8l-0.1 0.1c-22.1-20.4-55.2-2.6-62.2 7.9-7.3 10.9-13.6 27.5-40.8 27.3-27.2-0.1-50.5 16.4-50.5 16.4-55.3 50.5-17.9 97-14.6 101q0 0 0.1 0.1 0.2 0.2 0.2 0.2c3.6 3.7 46.3 45.2 101.9-5.5z"/>
			<path id="&lt;Path&gt;" class="s12" d="m237.9 463.7c18.1-8.6 37.3-14.6 56.4-3.7 13 7.4 15.7 19 13.6 30.9 7-11.5 10.7-26.8 0.1-40.6l0.2-0.2q-1-1-2-2-0.3-0.4-0.7-0.8l-0.1 0.1c-22.1-20.4-55.2-2.6-62.2 7.9-1.7 2.6-3.4 5.5-5.3 8.4z"/>
			<path id="&lt;Path&gt;" class="s4" d="m237.4 594.9c-16.3 8.8-35 12.8-53.1 7.5-19.2-5.5-37.7-20.6-44.6-39.6-7.5-20.5-2.5-42.1 8.7-60.4-50.2 49.1-14.4 93.7-11.1 97.6q0 0 0.1 0.1 0.2 0.2 0.2 0.2c3.6 3.7 46.3 45.2 101.9-5.5 0 0 0.6-0.7 1.6-2q-1.8 1.1-3.7 2.1z"/>
			<path id="&lt;Path&gt;" class="s4" d="m225 540.8c-18.8 17.2-38.4 26.3-43.8 20.4-5.4-5.9 5.5-24.6 24.3-41.7 18.8-17.2 38.4-26.3 43.8-20.4 5.4 5.9-5.5 24.6-24.3 41.7z"/>
			<path id="&lt;Path&gt;" class="s13" d="m188.2 559.2c-1.7 1.4-4.2 1.3-5.6-0.3-1.5-1.6-1.4-4.1 0.2-5.6 1.6-1.4 4.1-1.3 5.6 0.3 1.5 1.6 1.4 4.1-0.2 5.6z"/>
			<path id="&lt;Path&gt;" class="s13" d="m201.6 558.7c-1.6 1.4-4.1 1.3-5.6-0.3-1.5-1.6-1.3-4.1 0.3-5.6 1.6-1.4 4.1-1.3 5.5 0.3 1.5 1.6 1.4 4.1-0.2 5.6z"/>
			<path id="&lt;Path&gt;" class="s13" d="m191.5 547.6c-1.6 1.5-4.1 1.3-5.6-0.3-1.5-1.6-1.3-4.1 0.3-5.5 1.6-1.5 4.1-1.4 5.5 0.2 1.5 1.6 1.4 4.1-0.2 5.6z"/>
			<path id="&lt;Path&gt;" class="s13" d="m202.7 545.9c-1.6 1.4-4.1 1.3-5.5-0.3-1.5-1.6-1.4-4.1 0.2-5.6 1.6-1.4 4.1-1.3 5.6 0.3 1.5 1.6 1.3 4.1-0.3 5.6z"/>
			<path id="&lt;Path&gt;" class="s13" d="m214.2 551.4c-1.6 1.5-4.1 1.4-5.6-0.2-1.4-1.6-1.3-4.1 0.3-5.6 1.6-1.5 4.1-1.3 5.6 0.3 1.4 1.6 1.3 4.1-0.3 5.5z"/>
			<path id="&lt;Path&gt;" class="s13" d="m197.1 535c-1.6 1.5-4.1 1.4-5.6-0.3-1.4-1.6-1.3-4.1 0.3-5.5 1.6-1.5 4.1-1.4 5.6 0.2 1.4 1.6 1.3 4.1-0.3 5.6z"/>
			<path id="&lt;Path&gt;" class="s13" d="m207.4 528.8c-1.6 1.5-4.1 1.3-5.5-0.3-1.5-1.6-1.4-4.1 0.2-5.6 1.6-1.4 4.1-1.3 5.6 0.3 1.5 1.6 1.4 4.1-0.3 5.6z"/>
			<path id="&lt;Path&gt;" class="s13" d="m213.8 536.9c-1.6 1.5-4.1 1.3-5.6-0.3-1.5-1.6-1.4-4.1 0.3-5.5 1.6-1.5 4.1-1.4 5.5 0.2 1.5 1.6 1.4 4.1-0.2 5.6z"/>
			<path id="&lt;Path&gt;" class="s13" d="m225.2 543.6c-1.6 1.4-4.1 1.3-5.6-0.3-1.5-1.6-1.3-4.1 0.3-5.6 1.6-1.4 4.1-1.3 5.5 0.3 1.5 1.6 1.4 4.1-0.2 5.6z"/>
			<path id="&lt;Path&gt;" class="s13" d="m225.2 530.7c-1.6 1.5-4.1 1.4-5.5-0.2-1.5-1.6-1.4-4.1 0.2-5.6 1.6-1.5 4.1-1.4 5.6 0.3 1.5 1.6 1.3 4.1-0.3 5.5z"/>
			<path id="&lt;Path&gt;" class="s13" d="m236.9 532.9c-1.7 1.5-4.2 1.4-5.6-0.2-1.5-1.6-1.4-4.1 0.2-5.6 1.7-1.5 4.1-1.3 5.6 0.3 1.5 1.6 1.4 4.1-0.2 5.5z"/>
			<path id="&lt;Path&gt;" class="s13" d="m223.2 513.3c-1.6 1.5-4.1 1.4-5.5-0.2-1.5-1.6-1.4-4.1 0.2-5.6 1.6-1.5 4.1-1.4 5.6 0.2 1.5 1.7 1.4 4.2-0.3 5.6z"/>
			<path id="&lt;Path&gt;" class="s13" d="m232.4 519.9c-1.6 1.5-4.1 1.3-5.5-0.3-1.5-1.6-1.4-4.1 0.2-5.5 1.6-1.5 4.1-1.4 5.6 0.2 1.5 1.6 1.3 4.1-0.3 5.6z"/>
			<path id="&lt;Path&gt;" class="s13" d="m246.3 521.1c-1.6 1.5-4.1 1.4-5.5-0.3-1.5-1.6-1.4-4.1 0.2-5.5 1.6-1.5 4.1-1.4 5.6 0.2 1.5 1.6 1.4 4.1-0.3 5.6z"/>
			<path id="&lt;Path&gt;" class="s13" d="m233.6 507.1c-1.6 1.5-4.1 1.4-5.6-0.3-1.5-1.6-1.3-4.1 0.3-5.5 1.6-1.5 4.1-1.4 5.5 0.2 1.5 1.6 1.4 4.1-0.2 5.6z"/>
			<path id="&lt;Path&gt;" class="s13" d="m245.9 506.6c-1.6 1.4-4.1 1.3-5.6-0.3-1.4-1.6-1.3-4.1 0.3-5.6 1.6-1.4 4.1-1.3 5.6 0.3 1.4 1.6 1.3 4.1-0.3 5.6z"/>
			<path id="&lt;Path&gt;" class="s13" d="m215.6 522.5c-1.7 1.4-4.1 1.3-5.6-0.3-1.5-1.6-1.4-4.1 0.2-5.6 1.7-1.4 4.2-1.3 5.6 0.3 1.5 1.6 1.4 4.1-0.2 5.6z"/>
		</g>
		<g id="&lt;Group&gt;">
			<path id="&lt;Path&gt;" class="s2" d="m833.2 651.1h-695.4c-9.8 0-17.8-8-17.8-17.8 0-9.8 8-17.9 17.8-17.9h695.4c9.8 0 17.8 8.1 17.8 17.9 0 9.8-8 17.8-17.8 17.8z"/>
			<path id="&lt;Path&gt;" class="s14" d="m147.2 615.4c24.5 12.5 49.4 24.2 74.4 35.7h518.3c24.6-11.7 49.1-23.5 73.5-35.7z"/>
			<g id="&lt;Clip Group&gt;" clip-path="url(#cp1)">
				<path id="&lt;Path&gt;" class="s15" d="m170.6 615.4l317.2 121.8 306.6-121.8z"/>
				<g id="&lt;Group&gt;" style="opacity: .35">
					<path id="&lt;Path&gt;" class="s16" d="m811 632.8h-646.5v-5.3h646.5z"/>
				</g>
				<g id="&lt;Group&gt;" style="opacity: .35">
					<path id="&lt;Path&gt;" class="s16" d="m811 655.3h-646.5v-5.3h646.5z"/>
				</g>
				<g id="&lt;Group&gt;" style="opacity: .35">
					<path id="&lt;Path&gt;" class="s16" d="m811 677.9h-646.5v-5.3h646.5z"/>
				</g>
				<g id="&lt;Group&gt;" style="opacity: .35">
					<path id="&lt;Path&gt;" class="s16" d="m811 700.4h-646.5v-5.3h646.5z"/>
				</g>
				<g id="&lt;Group&gt;" style="opacity: .35">
					<path id="&lt;Path&gt;" class="s16" d="m811 723h-646.5v-5.3h646.5z"/>
				</g>
				<g id="&lt;Group&gt;" style="opacity: .35">
					<path id="&lt;Path&gt;" class="s16" d="m326.6 756.6v-155.2h-5.4v155.2z"/>
				</g>
				<g id="&lt;Group&gt;" style="opacity: .35">
					<path id="&lt;Path&gt;" class="s16" d="m349.1 756.6v-155.2h-5.3v155.2z"/>
				</g>
				<g id="&lt;Group&gt;" style="opacity: .35">
					<path id="&lt;Path&gt;" class="s16" d="m371.7 756.6v-155.2h-5.4v155.2z"/>
				</g>
				<g id="&lt;Group&gt;" style="opacity: .35">
					<path id="&lt;Path&gt;" class="s16" d="m394.2 756.6v-155.2h-5.3v155.2z"/>
				</g>
				<g id="&lt;Group&gt;" style="opacity: .35">
					<path id="&lt;Path&gt;" class="s16" d="m416.8 756.6v-155.2h-5.4v155.2z"/>
				</g>
				<g id="&lt;Group&gt;" style="opacity: .35">
					<path id="&lt;Path&gt;" class="s16" d="m439.3 756.6v-155.2h-5.3v155.2z"/>
				</g>
				<g id="&lt;Group&gt;" style="opacity: .35">
					<path id="&lt;Path&gt;" class="s16" d="m461.9 756.6v-155.2h-5.4v155.2z"/>
				</g>
				<g id="&lt;Group&gt;" style="opacity: .35">
					<path id="&lt;Path&gt;" class="s16" d="m484.4 756.6v-155.2h-5.3v155.2z"/>
				</g>
				<g id="&lt;Group&gt;" style="opacity: .35">
					<path id="&lt;Path&gt;" class="s16" d="m507 756.6v-155.2h-5.4v155.2z"/>
				</g>
				<g id="&lt;Group&gt;" style="opacity: .35">
					<path id="&lt;Path&gt;" class="s16" d="m529.5 756.6v-155.2h-5.3v155.2z"/>
				</g>
				<g id="&lt;Group&gt;" style="opacity: .35">
					<path id="&lt;Path&gt;" class="s16" d="m552.1 756.6v-155.2h-5.4v155.2z"/>
				</g>
				<g id="&lt;Group&gt;" style="opacity: .35">
					<path id="&lt;Path&gt;" class="s16" d="m574.6 756.6v-155.2h-5.3v155.2z"/>
				</g>
				<g id="&lt;Group&gt;" style="opacity: .35">
					<path id="&lt;Path&gt;" class="s16" d="m597.2 756.6v-155.2h-5.4v155.2z"/>
				</g>
				<g id="&lt;Group&gt;" style="opacity: .35">
					<path id="&lt;Path&gt;" class="s16" d="m619.7 756.6v-155.2h-5.3v155.2z"/>
				</g>
				<g id="&lt;Group&gt;" style="opacity: .35">
					<path id="&lt;Path&gt;" class="s16" d="m642.3 756.6v-155.2h-5.4v155.2z"/>
				</g>
				<g id="&lt;Group&gt;" style="opacity: .35">
					<path id="&lt;Path&gt;" class="s16" d="m664.8 756.6v-155.2h-5.3v155.2z"/>
				</g>
				<g id="&lt;Group&gt;" style="opacity: .35">
					<path id="&lt;Path&gt;" class="s16" d="m687.4 756.6v-155.2h-5.4v155.2z"/>
				</g>
				<g id="&lt;Group&gt;" style="opacity: .35">
					<path id="&lt;Path&gt;" class="s16" d="m709.9 756.6v-155.2h-5.3v155.2z"/>
				</g>
				<g id="&lt;Group&gt;" style="opacity: .35">
					<path id="&lt;Path&gt;" class="s16" d="m732.5 756.6v-155.2h-5.4v155.2z"/>
				</g>
				<g id="&lt;Group&gt;" style="opacity: .35">
					<path id="&lt;Path&gt;" class="s16" d="m755 756.6v-155.2h-5.3v155.2z"/>
				</g>
				<g id="&lt;Group&gt;" style="opacity: .35">
					<path id="&lt;Path&gt;" class="s16" d="m777.6 756.6v-155.2h-5.4v155.2z"/>
				</g>
				<g id="&lt;Group&gt;" style="opacity: .35">
					<path id="&lt;Path&gt;" class="s16" d="m212.3 756.6v-155.2h-5.3v155.2z"/>
				</g>
				<g id="&lt;Group&gt;" style="opacity: .35">
					<path id="&lt;Path&gt;" class="s16" d="m304 756.6v-155.2h-5.3v155.2z"/>
				</g>
				<g id="&lt;Group&gt;" style="opacity: .35">
					<path id="&lt;Path&gt;" class="s16" d="m281.5 756.6v-155.2h-5.4v155.2z"/>
				</g>
				<g id="&lt;Group&gt;" style="opacity: .35">
					<path id="&lt;Path&gt;" class="s16" d="m258.9 756.6v-155.2h-5.3v155.2z"/>
				</g>
				<g id="&lt;Group&gt;" style="opacity: .35">
					<path id="&lt;Path&gt;" class="s16" d="m236.4 756.6v-155.2h-5.4v155.2z"/>
				</g>
				<path id="&lt;Path&gt;" class="s17" d="m535.7 688.1c-61.4-1.7-123.6-9.8-182.9-26.2-46.7-13-91.9-30.9-137.8-46.5h-44.4l317.2 121.8 127.8-50.7c-26.6 1.7-53.2 2.3-79.9 1.6z"/>
			</g>
		</g>
		<g id="&lt;Group&gt;">
			<path id="&lt;Path&gt;" class="s18" d="m307.6 506c0 0-35 77.9-47.4 92.5 0 0 2.5 7.9 7.9 5.5 5.4-2.3 49.5-81.5 51.5-94.6 2-13.2-7.1-11.8-12-3.4z"/>
			<path id="&lt;Path&gt;" class="s18" d="m328.2 518.9c0 0-51.9 67.8-67.3 79.2 0 0 0.6 8.2 6.4 7.2 5.7-1 66.9-68 71.8-80.4 5-12.3-4.2-13.1-10.9-6z"/>
			<g id="&lt;Group&gt;">
				<path id="&lt;Path&gt;" class="s0" d="m347.9 488.9l-11.2 1.3c0 0 17.9-21.2 15.7-42.5l-9.1 4.2c0 0 1.6-32.5-6.3-59.5l-1.5 3.9c-19.3 14.7-23.3 41.5-23.3 41.5l-5-10.5c-12.1 14.8-8.5 45.7-8.5 45.7l-8-10c-10.7 25.6 15.4 50.5 17.6 52.6q0 0 0.1 0 0.1 0.1 0.1 0.1v-0.1c2.7 0.2 35.2 1.9 39.4-26.7z"/>
				<path id="&lt;Path&gt;" class="s19" d="m340.2 492.8l-8.5 1c0 0 13.6-16.1 11.9-32.2l-6.9 3.2c0 0 1.2-24.7-4.8-45.2l-1.1 3c-14.7 11.1-17.7 31.5-17.7 31.5l-3.8-8c-9.2 11.2-6.4 34.7-6.4 34.7l-6.1-7.6c-8.1 19.4 11.7 38.3 13.4 39.8l-0.1 0.1q0 0 0.1 0 0.1 0 0.1 0c2 0.1 26.7 1.4 29.9-20.3z"/>
				<path id="&lt;Path&gt;" class="s20" d="m331.7 475.9c-0.1-0.3-0.5-0.5-0.8-0.4l-10.6 3.4c0.9-3.6 1.9-7.3 2.8-11 0.2-0.1 0.4-0.3 0.3-0.6l-0.1-0.2c1.3-5.3 2.6-10.6 3.9-15.9q0.1 0 0.1 0l10.7-3.7c0.3-0.1 0.4-0.4 0.2-0.7-0.2-0.3-0.5-0.5-0.8-0.4l-9.8 3.4c5.4-22.8 10-44.4 9.6-51.7 0-0.3-0.3-0.6-0.7-0.6-0.3-0.1-0.6 0.1-0.5 0.4 0.4 8.6-6.5 39-13.4 66.6l-4.1-14.7c-0.1-0.4-0.4-0.6-0.7-0.6-0.4 0-0.6 0.3-0.5 0.6l4.7 17c-1.1 4.4-2.2 8.6-3.2 12.8q0 0 0 0c-1.6 6.3-3.1 12.1-4.5 17.1l-3.9-18.5c-0.1-0.4-0.4-0.6-0.7-0.6-0.4-0.1-0.6 0.2-0.5 0.5l4.4 20.7q0 0.1 0.1 0.2c-2.5 9.7-4.3 16-4.3 16.2-0.1 0.3 0.1 0.7 0.4 0.8 0.3 0.2 0.7 0.1 0.8-0.2 0.4-1.6 4.5-16.6 9.3-35.5l11.6-3.7c0.3-0.1 0.4-0.4 0.2-0.7z"/>
			</g>
			<g id="&lt;Group&gt;">
				<path id="&lt;Path&gt;" class="s0" d="m379 531.9l-11.6-5.3c0 0 30.1-4.5 40.9-20.4l-11.3-2.2c0 0 21.3-21.4 30-44.4l-3.7 1.9c-27.6-0.8-47.7 15.4-47.7 15.4l1.6-10c-20.6 3.3-35.9 26.6-35.9 26.6l-1.7-11.4c-25.8 11.6-15.8 43.3-14.9 45.9l-0.1 0.1q0 0 0.1 0 0.1 0.1 0.1 0.1c2.5 1.6 32.8 21 54.2 3.7z"/>
				<path id="&lt;Path&gt;" class="s19" d="m369.2 530.3l-8.8-4.1c0 0 22.8-3.4 31-15.4l-8.6-1.7c0 0 16.1-16.2 22.8-33.6l-2.9 1.4c-20.9-0.6-36.1 11.7-36.1 11.7l1.2-7.6c-15.6 2.5-27.2 20.1-27.2 20.1l-1.3-8.6c-19.6 8.8-12 32.8-11.3 34.8q0 0 0 0.1 0.1 0.1 0.1 0.1v-0.1c1.9 1.3 24.9 16 41.1 2.9z"/>
				<path id="&lt;Path&gt;" class="s20" d="m371.3 513.9c0-0.3-0.2-0.6-0.6-0.7l-12.2-3.6c3-1.9 6.2-3.9 9.4-6 0.2 0.1 0.5 0 0.6-0.2v-0.2c4.5-2.9 9-5.8 13.5-8.7q0 0 0.1 0l12.5 3.5c0.3 0.1 0.6-0.1 0.6-0.4 0-0.3-0.2-0.6-0.6-0.7l-11.4-3.2c19-12.6 36.5-24.8 40.5-30 0.2-0.2 0.1-0.6-0.2-0.8-0.2-0.3-0.6-0.3-0.8 0-4.8 6.1-29.9 23-53.3 38.1l5.1-12.4c0.1-0.2-0.1-0.6-0.4-0.8-0.3-0.2-0.7-0.1-0.8 0.2l-5.8 14.3c-3.7 2.4-7.4 4.7-10.9 6.9q0 0 0 0.1c-5.3 3.3-10.3 6.5-14.7 9.2l7.5-15c0.1-0.2 0-0.6-0.3-0.8-0.4-0.2-0.7-0.1-0.8 0.1l-8.3 16.7q-0.1 0.1-0.1 0.2c-8.3 5.2-13.8 8.6-14 8.7-0.2 0.2-0.3 0.5 0 0.8 0.2 0.3 0.6 0.4 0.8 0.2 1.4-0.8 14.4-8.8 30.6-19l13.3 3.9c0.4 0.1 0.7 0 0.7-0.4z"/>
			</g>
		</g>
		<g id="&lt;Group&gt;">
			<g id="&lt;Group&gt;">
				<g id="&lt;Group&gt;">
					<path id="&lt;Path&gt;" class="s18" d="m437.8 486.1c-2.9-9.7-14-9.3-14-9.3-3 0.4-11.9 4.8-11.5 13.3 0.3 7.8 9.3 7.9 10.9 7.8-0.4 5.1 0.1 12.7 6.5 12.3 6.8-0.6 4.4-8.6 2-13.6 8.5-5.3 6.1-10.5 6.1-10.5z"/>
					<path id="&lt;Path&gt;" class="s2" d="m418.3 497.3c4.3-3.3 10.6-4.2 16.6-3.2 4.6-4.3 2.9-8 2.9-8-2.9-9.7-14-9.3-14-9.3-3 0.4-11.9 4.8-11.5 13.3 0.2 4.5 3.2 6.4 6 7.2z"/>
					<path id="&lt;Path&gt;" class="s3" d="m437.8 486.1c-2.1-7.1-8.7-8.8-12.1-9.2 2.2 1.8 4 3.9 5.2 6.3 1.5 2.9 2.4 6.9 2 10.7q1 0.1 2 0.2c4.6-4.3 2.9-8 2.9-8z"/>
				</g>
				<g id="&lt;Group&gt;">
					<path id="&lt;Path&gt;" class="s18" d="m532.6 494.4c-3-9.6-14.1-9.3-14.1-9.3-2.9 0.4-11.8 4.8-11.5 13.4 0.4 7.8 9.4 7.8 10.9 7.8-0.4 5.1 0.1 12.7 6.5 12.2 6.8-0.5 4.4-8.6 2-13.6 8.5-5.2 6.2-10.5 6.2-10.5z"/>
					<path id="&lt;Path&gt;" class="s2" d="m513.1 505.7c4.3-3.4 10.6-4.2 16.6-3.2 4.5-4.4 2.9-8.1 2.9-8.1-3-9.6-14.1-9.3-14.1-9.3-2.9 0.4-11.8 4.8-11.5 13.4 0.2 4.4 3.2 6.3 6.1 7.2z"/>
					<path id="&lt;Path&gt;" class="s3" d="m532.6 494.4c-2.2-7.1-8.8-8.8-12.1-9.2 2.1 1.8 3.9 4 5.2 6.4 1.5 2.8 2.3 6.9 1.9 10.6q1.1 0.1 2.1 0.3c4.5-4.4 2.9-8.1 2.9-8.1z"/>
				</g>
				<g id="&lt;Group&gt;">
					<path id="&lt;Path&gt;" class="s18" d="m459.4 487.1c3-9.6 14.1-9.3 14.1-9.3 3 0.4 11.8 4.9 11.5 13.4-0.4 7.8-9.4 7.8-10.9 7.8 0.4 5.1-0.1 12.7-6.5 12.2-6.8-0.5-4.4-8.6-2-13.5-8.5-5.3-6.2-10.6-6.2-10.6z"/>
					<path id="&lt;Path&gt;" class="s2" d="m479 498.4c-4.4-3.4-10.6-4.2-16.7-3.2-4.5-4.3-2.9-8.1-2.9-8.1 3-9.6 14.1-9.3 14.1-9.3 3 0.4 11.8 4.9 11.5 13.4-0.2 4.4-3.2 6.3-6 7.2z"/>
					<path id="&lt;Path&gt;" class="s3" d="m459.4 487.1c2.2-7.1 8.8-8.8 12.1-9.1-2.1 1.7-3.9 3.9-5.2 6.3-1.5 2.8-2.3 6.9-1.9 10.6q-1 0.1-2.1 0.3c-4.5-4.3-2.9-8.1-2.9-8.1z"/>
				</g>
				<g id="&lt;Group&gt;">
					<path id="&lt;Path&gt;" class="s18" d="m533.3 490.2c3-9.6 14.1-9.2 14.1-9.2 3 0.3 11.9 4.8 11.5 13.3-0.3 7.8-9.3 7.8-10.9 7.8 0.4 5.1-0.1 12.7-6.5 12.2-6.8-0.5-4.4-8.5-2-13.5-8.5-5.3-6.2-10.6-6.2-10.6z"/>
					<path id="&lt;Path&gt;" class="s2" d="m552.9 501.5c-4.3-3.4-10.6-4.2-16.6-3.2-4.6-4.3-3-8.1-3-8.1 3-9.6 14.1-9.2 14.1-9.2 3 0.3 11.9 4.8 11.5 13.3-0.2 4.4-3.2 6.4-6 7.2z"/>
					<path id="&lt;Path&gt;" class="s3" d="m533.3 490.2c2.2-7.1 8.8-8.7 12.1-9.1-2.1 1.7-3.9 3.9-5.1 6.3-1.5 2.8-2.4 6.9-2 10.6q-1 0.1-2 0.3c-4.6-4.3-3-8.1-3-8.1z"/>
				</g>
				<g id="&lt;Group&gt;">
					<path id="&lt;Path&gt;" class="s18" d="m467.5 489.6c4.2-13.5-9-21.7-9-21.7-3.7-1.9-17.5-3.8-23.8 6.4-5.7 9.2 4.7 16.4 6.5 17.5-4.4 5.6-9.9 14.8-2 19.3 8.2 4.7 11.8-6.5 12.9-14.1 13.9 0.5 15.4-7.4 15.4-7.4z"/>
					<path id="&lt;Path&gt;" class="s2" d="m436.1 487.3c7.6-0.5 15.5 3.5 21.7 9.4 8.7-1.5 9.7-7.1 9.7-7.1 4.2-13.5-9-21.7-9-21.7-3.7-1.9-17.5-3.8-23.8 6.4-3.2 5.2-1.3 9.8 1.4 13z"/>
					<path id="&lt;Path&gt;" class="s3" d="m467.5 489.6c3.1-9.9-3.2-17-6.8-20.1 1.1 3.7 1.5 7.6 1 11.4-0.5 4.5-2.7 9.8-6.1 13.8q1.2 1 2.2 2c8.7-1.5 9.7-7.1 9.7-7.1z"/>
				</g>
				<g id="&lt;Group&gt;">
					<path id="&lt;Path&gt;" class="s18" d="m512.2 499.8c11-8.9 4.7-23.1 4.7-23.1-2-3.7-12.4-12.9-23.3-8-9.9 4.5-5.3 16.2-4.4 18.2-6.9 2.2-16.5 6.8-12.5 14.8 4.2 8.6 13.4 1.3 18.6-4.4 11.3 8.2 16.9 2.5 16.9 2.5z"/>
					<path id="&lt;Path&gt;" class="s2" d="m487.4 480.3c6.7 3.8 11 11.6 12.8 19.9 8 3.6 12-0.4 12-0.4 11-8.9 4.7-23.1 4.7-23.1-2-3.7-12.4-12.9-23.3-8-5.6 2.6-6.6 7.5-6.2 11.6z"/>
					<path id="&lt;Path&gt;" class="s3" d="m512.2 499.8c8.1-6.5 6.8-15.9 5.6-20.5-1.2 3.7-3.1 7.1-5.5 10-2.9 3.5-7.7 6.7-12.8 8.1q0.4 1.4 0.7 2.8c8 3.6 12-0.4 12-0.4z"/>
				</g>
			</g>
			<path id="&lt;Path&gt;" class="s21" d="m419.5 505.3c-3.6 6.9-5.6 14.4-5.6 22.2 0 32.5 33.7 58.9 75.3 58.9 41.5 0 75.2-26.4 75.2-58.9 0-7.8-2-15.3-5.5-22.2z"/>
		</g>
		<g id="&lt;Group&gt;">
			<g id="&lt;Group&gt;">
				<path id="&lt;Path&gt;" class="s11" d="m839.6 616.2c-16 13.2-39.8 11-53-5.1-13.3-16-11-39.8 5-53 16.1-13.3 39.9-11 53.1 5 13.3 16.1 11 39.8-5.1 53.1z"/>
				<path id="&lt;Path&gt;" class="s4" d="m806 614.5c-14.2-12-19.2-33.3-11.9-50.3 2.1-4.8 5-9 8.4-12.4-3.9 1.4-7.5 3.5-10.9 6.3-16 13.2-18.3 37-5 53 12.4 15.1 34.1 18 50 7.4-9.7 4.5-20.6 4.5-30.6-4z"/>
				<path id="&lt;Path&gt;" class="s0" d="m836.4 563.3c0 0 37.4-24.2 50.3-14.6 0 0-0.9 9.1-5.7 11.4-4.8 2.3-26 1.2-40 12.8z"/>
				<path id="&lt;Path&gt;" class="s0" d="m859.5 562.7c0 0 21.2 1.1 22.2 18.7 0 0-33.1-1.3-22.2-18.7z"/>
				<path id="&lt;Path&gt;" class="s22" d="m842 600.7c-4.4 3.7-10.9 3.1-14.6-1.4-3.7-4.4-3-11 1.4-14.6 4.4-3.7 11-3 14.6 1.4 3.7 4.4 3.1 11-1.4 14.6z"/>
			</g>
			<g id="&lt;Group&gt;">
				<path id="&lt;Path&gt;" class="s11" d="m738.1 587.8c0 19.7 16 35.8 35.8 35.8 19.8 0 35.8-16.1 35.8-35.8 0-19.8-16-35.8-35.8-35.8-19.8 0-35.8 16-35.8 35.8z"/>
				<path id="&lt;Path&gt;" class="s11" d="m738.1 587.8c0 19.7 16 35.8 35.8 35.8 19.8 0 35.8-16.1 35.8-35.8 0-19.8-16-35.8-35.8-35.8-19.8 0-35.8 16-35.8 35.8z"/>
				<path id="&lt;Path&gt;" class="s4" d="m740 576.4c1.6 8.9 6.9 17.2 13.8 22.7 14.4 11.4 36.4 13.6 52.2 4.5-5.8 11.8-18 20-32.1 20-19.8 0-35.8-16.1-35.8-35.8 0-4 0.7-7.8 1.9-11.4z"/>
				<path id="&lt;Path&gt;" class="s23" d="m740.7 587.8c0 18.3 14.9 33.1 33.2 33.1 18.3 0 33.2-14.8 33.2-33.1 0-18.4-14.9-33.2-33.2-33.2-18.3 0-33.2 14.8-33.2 33.2z"/>
				<path id="&lt;Path&gt;" class="s24" d="m740.7 587.2h32.1l-20.4-24.7 0.8-0.7 20.2 24.4v-31.6h1v32l24.1-21.1 0.7 0.9-23.9 20.8h31.8v1.1h-32l20.3 24.7-0.8 0.7-20.2-24.4v31.6h-1v-32l-24.1 21.1-0.7-0.9 23.9-20.8h-31.8z"/>
			</g>
		</g>
		<g id="&lt;Group&gt;">
			<path id="&lt;Path&gt;" class="s18" d="m736.7 616.2h-95.9v-151.4h95.9z"/>
			<path id="&lt;Path&gt;" class="s25" d="m687.2 577.3c-20.2-5.2-37.1-18.4-46-39.6q-0.2-0.5-0.4-1v79.5h95.9v-45.3c-15.1 9.4-32.7 10.7-49.5 6.4z"/>
			<path id="&lt;Path&gt;" class="s26" d="m736.7 616.2h-32.4v-151.4h32.4z"/>
			<g id="&lt;Group&gt;" style="opacity: .58">
				<path id="&lt;Path&gt;" class="s2" d="m735.8 616.5l-32.4-151.5 1.8-0.4 32.4 151.4z"/>
			</g>
			<g id="&lt;Group&gt;" style="opacity: .58">
				<path id="&lt;Path&gt;" class="s2" d="m705.2 616.5l-1.8-0.5 32.4-151.4 1.8 0.4z"/>
			</g>
			<g id="&lt;Group&gt;">
				<path id="&lt;Compound Path&gt;" class="s27" d="m651.9 504.4c0-0.1 0-1.9 0-4 0-2 0-4.6 0-5.6-0.1-1.1-0.2-3.5-0.2-5.6l-0.1-3.6-2-0.1c-2.2-0.1-2.7-0.3-2.6-0.9 0-0.7 1.1-0.8 7.1-0.8h1.7c2.7 0 2.6 0 2.6 0.8 0 0.8-0.3 0.9-2.8 1-1.3 0-2.4 0.1-2.4 0.1-0.1 0-0.1 2 0 5.3 0 3 0 7.2 0 9.3 0 3.8 0 4-0.1 4.3-0.2 0.2-0.6 0.2-1 0.1-0.1-0.1-0.2-0.2-0.2-0.3z"/>
				<path id="&lt;Compound Path&gt;" fill-rule="evenodd" class="s27" d="m664.2 505.1c-1.3-0.3-2.8-1.7-3.2-3.3-0.5-1.6-0.8-4-0.8-6.8 0-3.9 0.5-6.8 1.6-9.1 0.4-0.8 1.6-2.3 2-2.5 0.3-0.1 0.6-0.1 1-0.1 0.5 0 1.1 0.1 1.4 0.3 1.7 0.7 2.7 2.3 3.1 5 0.4 2.4 0.5 9 0.1 10.9-0.5 3-1.7 5.2-3.1 5.7-0.4 0.1-1.7 0.1-2.1-0.1zm3.5-4.6c0.6-2.4 0.7-8.6 0.2-11.6-0.3-1.7-1.1-3.3-2-3.7-0.2-0.2-0.4-0.2-0.6-0.2-0.9 0-1.7 0.8-2.3 2.3-0.8 2-1.1 3.7-1.2 7.4 0 2.8 0.1 5 0.6 6.4 0.2 0.6 0.9 1.7 1.3 2 0.6 0.4 1.5 0.4 2.2 0.1 0.8-0.4 1.4-1.2 1.8-2.7z"/>
				<path id="&lt;Compound Path&gt;" class="s27" d="m673.2 504.3c-0.1-1 0-11.2 0.1-13.9 0.1-1.3 0.2-3 0.2-3.8 0-1.7 0.1-1.9 0.6-2.3 0.7-0.3 0.9-0.4 3.7-0.4h1.3c2.4 0 3 0.1 3.1 0.4 0.1 0.2 0 0.5-0.2 0.7-0.3 0.3-0.9 0.4-3.4 0.6-2.6 0.1-3.5 0.1-3.5 0.2 0 0.1-0.1 0.4-0.1 0.8-0.1 1-0.2 5.4-0.2 6.3v0.7h2.9c1.6-0.1 3 0 3.1 0 0.5 0.1 0.1 0.9-0.5 1.3-0.1 0-1.4 0.1-2.7 0.2-1.4 0.1-2.6 0.2-2.7 0.3-0.2 0.1-0.2 0.7-0.2 4.8 0.1 4.2 0.1 4.2-0.4 4.7-0.3 0.4-0.6 0.4-0.9 0.1-0.1-0.1-0.2-0.4-0.2-0.7z"/>
				<path id="&lt;Compound Path&gt;" class="s27" d="m685.3 502.9c-0.6-0.9-0.8-2.4-0.9-6.5-0.1-2.8-0.1-11.8 0-12.5 0.1-0.4 0.1-0.5 0.3-0.5 0.4 0 0.7 0.1 0.8 0.6 0 0.2 0 1.7 0.1 3.5 0.1 6.9 0.4 12.3 0.7 13.5 0.3 0.7 0.8 1.4 1.3 1.7 0.3 0.2 0.6 0.2 1.4 0.2 0.9 0 1 0 1.4-0.2 0.5-0.4 1-1.1 1.2-1.9 0.3-1.4 0.7-8.8 0.7-13.8 0-2.4 0-3.2 0.3-3.4 0.1-0.1 0.3-0.2 0.5-0.2 0.2 0 0.3 0 0.3 0.2 0.1 0.3 0.1 6.1 0.1 10-0.1 6.9-0.4 8.5-1.2 9.6-0.5 0.6-1.1 1.1-1.8 1.3-0.7 0.3-1.9 0.3-2.5 0.2-1.2-0.4-2.1-1-2.7-1.8z"/>
			</g>
		</g>
		<g id="&lt;Group&gt;">
			<path id="&lt;Path&gt;" class="s4" d="m449.3 530.5c-3.6 0-7.1 0.7-10.4 1.9-9.1-7.3-20.6-11.7-33.2-11.7-13.8 0-26.4 5.3-35.8 13.9-4.6-2.6-9.7-4.1-15-4.1-19.9 0-36.1 20.4-36.1 45.4 0 25.1 16.2 45.4 36.1 45.4 6.5 0 12.6-2.1 17.8-5.9 9.1 7.2 20.5 11.5 33 11.5 11 0 21.2-3.4 29.6-9.1 4.3 2.3 9 3.5 14 3.5 19.9 0 36-20.3 36-45.4 0-25-16.1-45.4-36-45.4z"/>
			<path id="&lt;Path&gt;" class="s5" d="m465.9 535.7c-1.1 14.5-4.7 28.4-15.5 39.6-14.6 15.1-36.4 21-56.8 22.2-17.7 1-36.5-0.7-51.5-11.2-10-6.9-17-16.1-21-26.3-1.5 5-2.3 10.3-2.3 15.9 0 25.1 16.2 45.4 36.1 45.4 6.5 0 12.6-2.1 17.8-5.9 9.1 7.2 20.5 11.5 33 11.5 11 0 21.2-3.4 29.6-9.1 4.3 2.3 9 3.5 14 3.5 19.9 0 36-20.3 36-45.4 0-17.5-7.8-32.7-19.4-40.2z"/>
			<path id="&lt;Path&gt;" class="s28" d="m372.6 615.8c-4-5.8-6.6-12.6-8.5-19.4-1.8-6.9-2.8-14-2.9-21.2-0.1-1.8 0-3.5 0.1-5.3v-2.7l0.3-2.7 0.6-5.3q0.5-2.6 1.1-5.2l0.5-2.6q0.3-1.3 0.7-2.6l1.5-5.1c1.1-3.4 2.5-6.6 3.8-9.9-0.7 3.5-1.8 6.8-2.5 10.3l-1 5.1-0.5 2.6-0.4 2.6q-0.3 2.6-0.7 5.2l-0.4 5.2-0.2 2.6-0.1 2.6c0 1.7-0.1 3.4 0 5.2l0.2 5.2c0 1.7 0.3 3.4 0.4 5.2 0.1 1.7 0.5 3.4 0.7 5.1 0.3 1.8 0.6 3.5 0.9 5.2 1.5 6.8 3.4 13.5 6.4 19.9z"/>
			<path id="&lt;Path&gt;" class="s28" d="m438.7 532.4c2.5 6.9 4.4 14 5.8 21.1 1.5 7.2 2.4 14.4 2.8 21.7 0.4 7.3 0.2 14.8-1.3 22-0.8 3.6-1.9 7.2-3.5 10.5-1.6 3.3-3.7 6.5-6.5 8.8 4.7-5.6 6.7-12.7 7.8-19.7 0.5-3.5 0.8-7.1 0.9-10.7q0.1-5.3-0.2-10.7c-0.1-3.6-0.4-7.2-0.8-10.8-0.4-3.6-0.8-7.1-1.3-10.7q-1.6-10.7-3.7-21.5z"/>
			<path id="&lt;Path&gt;" class="s28" d="m380.2 533.1c-0.5 3.2-1.5 6-2.4 8.8q-0.7 2.1-1.5 4.2c-0.5 1.4-1 2.7-1.6 4.3-0.6-1.6-0.7-3.2-0.6-4.8 0.1-1.6 0.5-3.1 1-4.6q0.8-2.2 2-4.2c0.9-1.4 1.8-2.6 3.1-3.7z"/>
			<path id="&lt;Path&gt;" class="s28" d="m418.1 529.7c1.1 1 1.9 2.3 2.7 3.6q1 1.9 1.5 4.1c0.4 1.4 0.6 2.9 0.5 4.5-0.1 1.5-0.4 3-1.3 4.3-0.3-1.5-0.6-2.8-0.9-4.2l-1-3.9c-0.6-2.7-1.3-5.4-1.5-8.4z"/>
			<path id="&lt;Path&gt;" class="s28" d="m398.8 545.5c0.8 1.5 1.2 3 1.6 4.6q0.6 2.3 0.7 4.6 0.2 2.4 0 4.7c-0.1 1.6-0.4 3.2-0.9 4.7-0.6-1.5-1-3-1.3-4.6q-0.4-2.3-0.6-4.6-0.2-2.3-0.1-4.6c0.1-1.6 0.2-3.1 0.6-4.8z"/>
			<path id="&lt;Path&gt;" class="s28" d="m429.8 555.2c0.6 1.1 0.9 2.3 1.1 3.4q0.3 1.8 0.3 3.5 0 1.7-0.3 3.4c-0.2 1.2-0.5 2.3-1.1 3.5-0.6-1.2-0.9-2.3-1.1-3.5q-0.3-1.7-0.3-3.4 0-1.7 0.3-3.5c0.2-1.1 0.5-2.3 1.1-3.4z"/>
			<path id="&lt;Path&gt;" class="s28" d="m380.2 566.2c0.6 1.7 0.8 3.5 1.1 5.2q0.3 2.6 0.3 5.1 0 2.6-0.3 5.2c-0.2 1.7-0.5 3.5-1.1 5.2-0.6-1.7-0.9-3.5-1.1-5.2q-0.3-2.6-0.3-5.2 0-2.5 0.3-5.1c0.2-1.7 0.5-3.5 1.1-5.2z"/>
			<path id="&lt;Path&gt;" class="s28" d="m413.3 575.9c0.9 1.4 1.5 2.9 2 4.5q0.7 2.3 1 4.7c0.2 1.6 0.2 3.3 0 4.9q-0.2 1.3-0.7 2.5c-0.4 0.8-0.9 1.6-1.7 2 0.3-0.8 0.4-1.6 0.3-2.3 0-0.8-0.1-1.5-0.2-2.3l-0.5-4.5q-0.3-2.3-0.4-4.6c0-1.6-0.1-3.2 0.1-4.9z"/>
			<path id="&lt;Path&gt;" class="s28" d="m397.4 597.2c0.5 1.6 0.7 3.2 0.8 4.8q0.1 2.3 0 4.7-0.2 2.3-0.5 4.6l-0.3 2.2c0 0.8-0.2 1.5 0 2.3-0.8-0.4-1-1.4-1.3-2.1q-0.4-1.2-0.6-2.4c-0.2-1.6-0.2-3.2-0.1-4.8 0.1-3.2 0.7-6.2 2-9.3z"/>
			<path id="&lt;Path&gt;" class="s28" d="m429.8 606.9c0.1-3 0.7-5.5 1.3-8.1 0.3-1.3 0.6-2.5 0.8-3.8 0.3-1.3 0.5-2.5 0.6-4 1.1 1.1 1.5 2.7 1.6 4.1 0.2 1.5 0 2.9-0.3 4.3q-0.5 2.1-1.5 4c-0.6 1.3-1.4 2.5-2.5 3.5z"/>
			<path id="&lt;Path&gt;" class="s28" d="m449.8 540c1.1 0.9 1.9 2 2.6 3.1q1 1.6 1.7 3.5 0.7 1.8 1 3.8c0.1 1.4 0.1 2.8-0.5 4.1l-1.7-3.5q-0.8-1.7-1.4-3.4-0.7-1.8-1.1-3.7c-0.3-1.2-0.6-2.5-0.6-3.9z"/>
			<path id="&lt;Path&gt;" class="s28" d="m468.4 550.4c1 1 1.7 2.1 2.4 3.3q0.9 1.8 1.5 3.7 0.6 1.9 0.8 4c0 1.3 0 2.8-0.6 4.1-0.6-1.3-1.1-2.4-1.6-3.6q-0.7-1.8-1.3-3.7-0.5-1.8-0.9-3.8c-0.2-1.3-0.4-2.6-0.3-4z"/>
			<path id="&lt;Path&gt;" class="s28" d="m458 565.5c1 0.9 1.6 2 2.2 3.1q0.8 1.6 1.2 3.4 0.4 1.8 0.4 3.6c0 1.3-0.2 2.6-1 3.7l-1.2-3.4q-0.5-1.6-0.9-3.3-0.4-1.6-0.6-3.4c-0.1-1.2-0.2-2.4-0.1-3.7z"/>
			<path id="&lt;Path&gt;" class="s28" d="m462.9 602c0.9-2.4 2.1-4.3 3.2-6.2 0.5-1 1.1-1.9 1.6-2.9 0.5-1 0.9-2 1.4-3.3 0.7 1.2 0.8 2.6 0.7 3.9-0.2 1.3-0.6 2.5-1.3 3.7-0.6 1.1-1.4 2.1-2.4 2.9-0.9 0.8-2 1.6-3.2 1.9z"/>
			<path id="&lt;Path&gt;" class="s28" d="m357.4 608.9c-1.4-1.1-2.6-2.5-3.6-3.9q-1.6-2.2-2.7-4.7c-0.8-1.6-1.3-3.4-1.6-5.2-0.3-1.8-0.4-3.7 0.3-5.5 0.5 1.8 1.1 3.4 1.8 4.9q1 2.3 2.1 4.7c1.3 3.1 2.8 6.2 3.7 9.7z"/>
			<path id="&lt;Path&gt;" class="s28" d="m336.8 593.8c-1-1.4-1.6-2.9-2-4.5q-0.7-2.3-0.8-4.7c-0.1-1.6 0-3.3 0.3-4.9 0.3-1.6 0.8-3.2 1.8-4.5 0.1 1.6 0.2 3.1 0.4 4.7q0.2 2.2 0.3 4.5c0.2 3.1 0.3 6.1 0 9.4z"/>
			<path id="&lt;Path&gt;" class="s28" d="m349.8 569.7c-0.6-1.4-0.9-2.8-1.1-4.2q-0.2-2.2 0.1-4.3c0.2-1.5 0.6-2.9 1.3-4.2 0.7-1.3 1.7-2.7 3.2-3.2-0.7 1.3-0.9 2.6-1.1 3.9q-0.3 1.9-0.6 3.9-0.3 1.9-0.6 3.9c-0.3 1.4-0.6 2.7-1.2 4.2z"/>
			<path id="&lt;Path&gt;" class="s28" d="m333.3 553.1c0.3-1.6 0.9-3.1 1.6-4.6q1.1-2.2 2.6-4.1c1-1.2 2.1-2.4 3.5-3.4q1-0.8 2.2-1.3c0.8-0.3 1.7-0.5 2.5-0.4-1.4 0.9-2.2 2.1-3.2 3.3l-2.8 3.6q-1.4 1.8-3 3.5c-1 1.2-2.1 2.4-3.4 3.4z"/>
			<path id="&lt;Path&gt;" class="s29" d="m387.8 524.2c0 0 4.8-40 19.9-47.6 0 0 13.1 1.4 15.9 8.3 0 0-11.7 27.6-8.3 35.1 0 0 13.1 3.5 20 11.1 0 0-18.6 0-25.5-5.6 0 0-1.4 13.8-6.2 20.7 0 0-8.3-13.1-9-17.9 0 0-17.9 13.1-24.8 5.5 0 0 9-11 18-9.6z"/>
			<path id="&lt;Path&gt;" class="s0" d="m415.3 520c-3.4-7.5 8.3-35.1 8.3-35.1-1-2.4-3.1-4.1-5.5-5.3-2.7 5.9-5.8 11.5-8.6 17.3-3.9 7.8-5.7 16.5-11.3 23.4-6.9 8.4-16.9 11.7-26.9 14.7 7.7 4.7 23.3-6.7 23.3-6.7 0.7 4.8 9 17.9 9 17.9 4.8-6.9 6.2-20.7 6.2-20.7 6.9 5.6 25.5 5.6 25.5 5.6-6.9-7.6-20-11.1-20-11.1z"/>
		</g>
		<g id="&lt;Group&gt;">
			<path id="&lt;Path&gt;" class="s18" d="m335.3 573.1v-10.6l-131.3-20v72.5h131.3v-28.7c-8.3-1.7-8.3-11.5 0-13.2z"/>
			<path id="&lt;Path&gt;" class="s30" d="m335.3 573.1v-10.6l-131.3-20v72.5h131.3v-28.7c-8.3-1.7-8.3-11.5 0-13.2z"/>
			<path id="&lt;Path&gt;" class="s30" d="m240.3 595.2c-12.5-4.3-25.4-10.2-36.3-17.6v37.4h131.3v-14.3c-32 4.2-64.6 5-95-5.5z"/>
			<path id="&lt;Path&gt;" class="s18" d="m204 542.5l71.4-8.6 59.9 28.6z"/>
			<g id="&lt;Group&gt;">
				<path id="&lt;Path&gt;" class="s26" d="m242.3 566.3c0 5.3-5.7 9.6-12.8 9.6-7 0-12.7-4.3-12.7-9.6 0-5.2 5.7-9.5 12.7-9.5 7.1 0 12.8 4.3 12.8 9.5z"/>
				<path id="&lt;Path&gt;" class="s26" d="m238.1 572.3c-4.5 0-9-1.5-12.1-3.9-3.2-2.6-4.8-6-4.6-9.4-2.8 1.7-4.6 4.4-4.6 7.3 0 5.3 5.7 9.6 12.7 9.6 4.1 0 7.8-1.5 10.1-3.7q-0.7 0-1.5 0.1z"/>
			</g>
			<g id="&lt;Group&gt;">
				<path id="&lt;Path&gt;" class="s26" d="m317.5 598.8c0 5.2-5.7 9.5-12.8 9.5-7 0-12.7-4.3-12.7-9.5 0-5.3 5.7-9.6 12.7-9.6 7.1 0 12.8 4.3 12.8 9.6z"/>
				<path id="&lt;Path&gt;" class="s26" d="m313.3 604.7c-4.5 0.1-9-1.5-12.1-3.9-3.2-2.6-4.8-5.9-4.6-9.4-2.8 1.8-4.6 4.4-4.6 7.4 0 5.2 5.7 9.5 12.7 9.5 4.1 0 7.7-1.5 10.1-3.7q-0.7 0.1-1.5 0.1z"/>
			</g>
			<g id="&lt;Group&gt;">
				<path id="&lt;Path&gt;" class="s26" d="m247.3 584.7c0 3.2-3.4 5.7-7.7 5.7-4.2 0-7.6-2.5-7.6-5.7 0-3.2 3.4-5.7 7.6-5.7 4.3 0 7.7 2.5 7.7 5.7z"/>
				<path id="&lt;Path&gt;" class="s26" d="m244.8 588.3c-2.7 0-5.4-0.9-7.3-2.4-1.9-1.5-2.9-3.5-2.7-5.6-1.7 1-2.8 2.6-2.8 4.4 0 3.2 3.4 5.7 7.6 5.7 2.5 0 4.7-0.9 6.1-2.2q-0.4 0-0.9 0.1z"/>
			</g>
			<g id="&lt;Group&gt;">
				<path id="&lt;Path&gt;" class="s26" d="m264.2 573.7c0 1.9-2 3.4-4.5 3.4-2.5 0-4.5-1.5-4.5-3.4 0-1.9 2-3.4 4.5-3.4 2.5 0 4.5 1.5 4.5 3.4z"/>
				<path id="&lt;Path&gt;" class="s26" d="m262.7 575.8c-1.6 0-3.2-0.5-4.3-1.4-1.1-0.9-1.7-2.1-1.6-3.3-1 0.6-1.6 1.5-1.6 2.6 0 1.9 2 3.4 4.5 3.4 1.4 0 2.7-0.5 3.5-1.3q-0.2 0-0.5 0z"/>
			</g>
			<g id="&lt;Group&gt;">
				<path id="&lt;Path&gt;" class="s26" d="m290.8 552c0 1.9-2 3.4-4.5 3.4-2.5 0-4.5-1.5-4.5-3.4 0-1.8 2-3.4 4.5-3.4 2.5 0 4.5 1.6 4.5 3.4z"/>
				<path id="&lt;Path&gt;" class="s26" d="m289.3 554.1c-1.6 0.1-3.2-0.5-4.2-1.4-1.2-0.9-1.8-2.1-1.7-3.3-1 0.6-1.6 1.6-1.6 2.6 0 1.9 2 3.4 4.5 3.4 1.4 0 2.7-0.5 3.6-1.3q-0.3 0-0.6 0z"/>
			</g>
			<g id="&lt;Group&gt;">
				<path id="&lt;Path&gt;" class="s26" d="m228.4 600.5c0 1.8-2 3.3-4.5 3.3-2.5 0-4.5-1.5-4.5-3.3 0-1.9 2-3.4 4.5-3.4 2.5 0 4.5 1.5 4.5 3.4z"/>
				<path id="&lt;Path&gt;" class="s26" d="m227 602.6c-1.6 0-3.2-0.5-4.3-1.4-1.2-0.9-1.7-2.1-1.7-3.3-1 0.6-1.6 1.5-1.6 2.6 0 1.8 2 3.3 4.5 3.3 1.5 0 2.8-0.5 3.6-1.3q-0.3 0.1-0.5 0.1z"/>
			</g>
			<g id="&lt;Group&gt;">
				<path id="&lt;Path&gt;" class="s26" d="m285 593.3c0 1.8-2 3.3-4.5 3.3-2.5 0-4.5-1.5-4.5-3.3 0-1.9 2-3.4 4.5-3.4 2.5 0 4.5 1.5 4.5 3.4z"/>
				<path id="&lt;Path&gt;" class="s26" d="m283.5 595.4c-1.6 0-3.2-0.5-4.3-1.4-1.1-0.9-1.7-2.1-1.6-3.3-1 0.6-1.6 1.5-1.6 2.6 0 1.8 2 3.3 4.5 3.3 1.4 0 2.7-0.5 3.5-1.3q-0.2 0.1-0.5 0.1z"/>
			</g>
			<g id="&lt;Group&gt;">
				<path id="&lt;Path&gt;" class="s26" d="m318.1 573.2c0 1.9-2 3.4-4.5 3.4-2.5 0-4.5-1.5-4.5-3.4 0-1.8 2-3.3 4.5-3.3 2.5 0 4.5 1.5 4.5 3.3z"/>
				<path id="&lt;Path&gt;" class="s26" d="m316.7 575.3c-1.6 0.1-3.2-0.5-4.3-1.3-1.2-1-1.8-2.1-1.7-3.4-1 0.7-1.6 1.6-1.6 2.6 0 1.9 2 3.4 4.5 3.4 1.5 0 2.8-0.5 3.6-1.3q-0.3 0-0.5 0z"/>
			</g>
			<g id="&lt;Group&gt;">
				<path id="&lt;Path&gt;" class="s26" d="m272.3 543.9c0 1.8-2 3.4-4.5 3.4-2.5 0-4.6-1.6-4.6-3.4 0-1.9 2.1-3.4 4.6-3.4 2.5 0 4.5 1.5 4.5 3.4z"/>
				<path id="&lt;Path&gt;" class="s26" d="m270.8 546c-1.6 0-3.2-0.5-4.3-1.4-1.1-0.9-1.7-2.1-1.6-3.3-1 0.6-1.7 1.5-1.7 2.6 0 1.8 2.1 3.4 4.6 3.4 1.4 0 2.7-0.6 3.5-1.4q-0.2 0.1-0.5 0.1z"/>
			</g>
		</g>
		<g id="&lt;Group&gt;">
			<g id="&lt;Group&gt;">
				<g id="&lt;Group&gt;">
					<path id="&lt;Path&gt;" class="s0" d="m651.5 593.8c-1.3 1.1-2.1 2.5-2.5 4-4.7-2.4-10.1-1.5-12.6 2.3-2.6 3.8-1.2 9.3 3 12.6q0 0 0 0.1c-3.5 3.5-2.8 9.4 1.5 13.3 4.3 3.9 10.7 4.2 14.2 0.7 1-1.1 1.6-2.3 1.9-3.6 4 2.1 8.8 1.8 11.7-1.1 3.5-3.5 2.8-9.4-1.5-13.3q-0.3-0.3-0.6-0.5c3.3-3.2 3-8.8-0.9-12.8-4-4.1-10.4-4.9-14.2-1.7z"/>
					<path id="&lt;Path&gt;" class="s19" d="m651.9 598.3c-1 0.8-1.6 1.8-1.8 2.9-3.4-1.7-7.4-1.1-9.3 1.7-1.8 2.8-0.8 6.8 2.3 9.2q-0.1 0.1-0.1 0.1c-2.5 2.5-2 6.9 1.1 9.7 3.2 2.8 7.8 3.1 10.4 0.5 0.7-0.7 1.2-1.6 1.4-2.6 3 1.6 6.5 1.3 8.6-0.8 2.5-2.5 2-6.9-1.1-9.7q-0.3-0.2-0.5-0.4c2.5-2.4 2.2-6.5-0.6-9.3-2.9-3.1-7.6-3.6-10.4-1.3z"/>
					<path id="&lt;Path&gt;" class="s19" d="m652.3 603.3c-0.5 0.5-0.9 1.1-1 1.7-2.1-1-4.4-0.6-5.5 1-1.1 1.7-0.5 4 1.3 5.5q0 0 0 0c-1.5 1.5-1.2 4.1 0.7 5.8 1.8 1.6 4.6 1.8 6.1 0.2q0.6-0.6 0.8-1.5c1.8 0.9 3.8 0.8 5.1-0.4 1.5-1.6 1.2-4.2-0.7-5.8q-0.1-0.1-0.2-0.2c1.4-1.4 1.3-3.9-0.4-5.6-1.7-1.8-4.5-2.1-6.2-0.7z"/>
				</g>
				<g id="&lt;Group&gt;">
					<path id="&lt;Path&gt;" class="s0" d="m674.4 558c-1.3 1-2.2 2.4-2.5 4-4.7-2.5-10.1-1.6-12.6 2.2-2.6 3.9-1.2 9.4 3 12.7q0 0 0 0c-3.5 3.5-2.9 9.5 1.5 13.4 4.3 3.8 10.7 4.1 14.1 0.6 1-1 1.7-2.2 2-3.5 4 2.1 8.8 1.8 11.7-1.1 3.5-3.5 2.8-9.5-1.5-13.4q-0.3-0.2-0.6-0.4c3.3-3.3 3-8.9-0.9-12.8-4-4.2-10.4-4.9-14.2-1.7z"/>
					<path id="&lt;Path&gt;" class="s19" d="m674.8 562.4c-1 0.8-1.6 1.9-1.9 3-3.4-1.8-7.3-1.1-9.2 1.6-1.8 2.8-0.8 6.9 2.2 9.3q0 0 0 0c-2.5 2.6-2 6.9 1.1 9.8 3.2 2.8 7.8 3 10.4 0.4 0.7-0.7 1.2-1.6 1.4-2.5 3 1.5 6.5 1.3 8.6-0.8 2.5-2.6 2-7-1.2-9.8q-0.2-0.2-0.4-0.3c2.4-2.4 2.2-6.5-0.6-9.4-3-3-7.6-3.6-10.4-1.3z"/>
					<path id="&lt;Path&gt;" class="s19" d="m675.2 567.4c-0.5 0.5-0.9 1.1-1.1 1.8-2-1.1-4.3-0.7-5.4 0.9-1.1 1.7-0.5 4.1 1.3 5.5q0 0 0 0c-1.5 1.6-1.2 4.1 0.6 5.8 1.9 1.7 4.7 1.8 6.2 0.3q0.6-0.7 0.8-1.5c1.8 0.9 3.8 0.7 5.1-0.5 1.5-1.5 1.2-4.1-0.7-5.8q-0.1-0.1-0.2-0.2c1.4-1.4 1.3-3.8-0.4-5.5-1.7-1.8-4.5-2.1-6.2-0.8z"/>
				</g>
				<path id="&lt;Path&gt;" class="s0" d="m661.8 604.4c0 0 36.5 27.1 44.4 13.9 0 0 7.7-11.6-3.4-17.1-11.1-5.6-31.6-19.2-31.6-19.2 0 0-18.4 13.7-9.4 22.4z"/>
				<path id="&lt;Path&gt;" class="s19" d="m685.7 603c1-3.6 1.1-7.4 0.8-11.2-8.1-5-15.3-9.8-15.3-9.8 0 0-18.4 13.7-9.4 22.4 0 0 6 4.5 13.6 8.9 4.8-1.7 8.8-4.8 10.3-10.3z"/>
				<path id="&lt;Path&gt;" class="s19" d="m683.6 615.2q-1 0.8-2 1.4 0.6 0.3 1.2 0.6 0.4-1 0.8-2z"/>
				<g id="&lt;Group&gt;" style="opacity: .52">
					<path id="&lt;Path&gt;" class="s27" d="m706.3 618.6c-5.3 0.4-13.3-2.2-23.8-7.6-7.7-4-14-8.2-14.1-8.2l0.4-0.6c0.3 0.2 25.1 16.6 37.4 15.7z"/>
				</g>
				<g id="&lt;Group&gt;" style="opacity: .52">
					<path id="&lt;Path&gt;" class="s27" d="m707.7 612.2c-10.2-1.3-30.3-15.4-31.2-16l0.4-0.6c0.2 0.1 20.8 14.7 30.9 15.9z"/>
				</g>
				<g id="&lt;Group&gt;">
					<path id="&lt;Path&gt;" class="s0" d="m657.6 561.5c-1.9 1.7-3.3 3.9-4 6.2-6.1-3.1-13.8-1.2-17.7 4.7-4 6-2.7 14 2.8 18.4q0 0.1 0 0.1c-5.3 5.6-5 14.4 0.6 19.6 5.6 5.2 14.3 4.9 19.6-0.6 1.5-1.6 2.5-3.5 3.1-5.5 5.3 2.7 12 1.7 16.3-2.9 5.2-5.6 5-14.3-0.6-19.6q-0.4-0.3-0.8-0.6c5-5.2 5.2-13.4 0.3-18.9-5.2-5.6-13.9-6.1-19.6-0.9z"/>
					<path id="&lt;Path&gt;" class="s19" d="m657.6 568.1c-1.4 1.3-2.3 2.8-2.8 4.5-4.5-2.2-10.1-0.8-13 3.5-2.9 4.4-2 10.2 2.1 13.5q-0.1 0-0.1 0c-3.8 4.1-3.6 10.5 0.5 14.3 4 3.9 10.5 3.7 14.3-0.4 1.1-1.2 1.8-2.6 2.3-4 3.9 1.9 8.8 1.2 11.9-2.1 3.8-4.1 3.6-10.5-0.5-14.4q-0.2-0.2-0.5-0.4c3.6-3.8 3.8-9.9 0.2-13.8-3.8-4.2-10.2-4.5-14.4-0.7z"/>
					<path id="&lt;Path&gt;" class="s19" d="m657.7 575.4c-0.8 0.8-1.4 1.7-1.7 2.7-2.7-1.3-6-0.5-7.7 2.1-1.7 2.6-1.1 6 1.3 7.9q-0.1 0-0.1 0.1c-2.2 2.4-2.1 6.2 0.3 8.4 2.4 2.3 6.2 2.2 8.5-0.2 0.6-0.7 1.1-1.5 1.3-2.4 2.3 1.2 5.2 0.7 7.1-1.2 2.3-2.5 2.1-6.3-0.3-8.5q-0.1-0.2-0.3-0.3c2.1-2.3 2.2-5.8 0.1-8.2-2.2-2.4-6-2.6-8.5-0.4z"/>
				</g>
			</g>
			<g id="&lt;Group&gt;">
				<g id="&lt;Group&gt;">
					<path id="&lt;Path&gt;" class="s0" d="m727 566.5c-1.2-1.2-2.7-1.9-4.2-2.1 1.9-4.8 0.5-10.2-3.6-12.3-4.1-2.1-9.4-0.2-12.2 4.4q-0.1-0.1-0.1-0.1c-3.8-3.1-9.7-1.8-13.1 2.9-3.4 4.7-3 11.1 0.8 14.2 1.1 0.9 2.4 1.4 3.7 1.6-1.6 4.2-0.8 8.9 2.3 11.4 3.9 3.2 9.8 1.9 13.1-2.8q0.3-0.4 0.5-0.7c3.5 3 9.1 2.1 12.6-2.1 3.7-4.5 3.8-10.9 0.2-14.4z"/>
					<path id="&lt;Path&gt;" class="s19" d="m722.6 567.4c-0.9-0.9-2-1.4-3.1-1.5 1.4-3.6 0.4-7.5-2.6-9-3-1.6-6.9-0.2-9 3.1q0 0 0 0c-2.8-2.3-7.1-1.3-9.6 2.1-2.5 3.5-2.2 8.1 0.6 10.4 0.8 0.6 1.7 1 2.7 1.1-1.2 3.1-0.6 6.6 1.7 8.4 2.8 2.3 7.1 1.4 9.6-2.1q0.1-0.2 0.3-0.4c2.6 2.1 6.6 1.5 9.2-1.6 2.7-3.3 2.8-8 0.2-10.5z"/>
					<path id="&lt;Path&gt;" class="s19" d="m717.7 568.3c-0.5-0.5-1.2-0.8-1.9-0.9 0.9-2.1 0.3-4.4-1.5-5.3-1.8-0.9-4.1-0.1-5.3 1.9q0 0 0 0c-1.7-1.4-4.2-0.8-5.7 1.2-1.5 2.1-1.3 4.8 0.4 6.2q0.7 0.5 1.6 0.7c-0.8 1.8-0.4 3.8 1 4.9 1.6 1.4 4.2 0.8 5.6-1.2q0.1-0.2 0.2-0.3c1.6 1.3 4 0.9 5.5-0.9 1.6-2 1.6-4.7 0.1-6.3z"/>
				</g>
				<g id="&lt;Group&gt;">
					<path id="&lt;Path&gt;" class="s0" d="m765.1 585.6c-1.3-1.2-2.7-1.9-4.3-2.1 1.9-4.9 0.5-10.2-3.5-12.3-4.1-2.2-9.5-0.2-12.3 4.3q0 0-0.1 0c-3.8-3.1-9.7-1.8-13.1 2.9-3.4 4.7-3 11 0.9 14.1 1.1 0.9 2.3 1.4 3.7 1.6-1.7 4.2-0.9 9 2.3 11.5 3.8 3.1 9.7 1.8 13.1-2.9q0.2-0.3 0.4-0.6c3.6 2.9 9.1 2.1 12.6-2.2 3.7-4.4 3.8-10.9 0.3-14.3z"/>
					<path id="&lt;Path&gt;" class="s19" d="m760.6 586.4c-0.9-0.8-1.9-1.3-3.1-1.5 1.4-3.5 0.4-7.4-2.6-9-3-1.6-6.9-0.1-9 3.2q0 0 0 0c-2.8-2.3-7.1-1.4-9.6 2.1-2.5 3.4-2.2 8.1 0.6 10.3 0.8 0.7 1.8 1.1 2.7 1.2-1.2 3.1-0.6 6.5 1.7 8.4 2.8 2.3 7.1 1.3 9.6-2.1q0.2-0.2 0.3-0.5c2.6 2.2 6.7 1.5 9.3-1.6 2.7-3.2 2.7-7.9 0.1-10.5z"/>
					<path id="&lt;Path&gt;" class="s19" d="m755.7 587.4c-0.5-0.5-1.2-0.8-1.8-0.9 0.8-2.1 0.2-4.4-1.6-5.3-1.7-1-4-0.1-5.3 1.9q0-0.1 0-0.1c-1.7-1.3-4.2-0.7-5.7 1.3-1.4 2-1.3 4.8 0.4 6.1q0.7 0.6 1.6 0.7c-0.7 1.8-0.4 3.9 1 5 1.7 1.3 4.2 0.8 5.7-1.3q0.1-0.1 0.1-0.2c1.6 1.2 4 0.8 5.5-1 1.6-1.9 1.7-4.7 0.1-6.2z"/>
				</g>
				<path id="&lt;Path&gt;" class="s0" d="m717.5 577.9c0 0-23.1 39.1-9.1 45.6 0 0 12.2 6.4 16.6-5.2 4.4-11.6 15.8-33.4 15.8-33.4 0 0-15.5-16.9-23.3-7z"/>
				<path id="&lt;Path&gt;" class="s19" d="m721.5 601.5c3.6 0.7 7.4 0.4 11.1-0.4 4.2-8.6 8.2-16.2 8.2-16.2 0 0-15.5-16.9-23.3-7 0 0-3.8 6.4-7.3 14.4 2.1 4.6 5.6 8.3 11.3 9.2z"/>
				<path id="&lt;Path&gt;" class="s19" d="m709 600.7q-0.8-0.9-1.5-1.9-0.2 0.6-0.5 1.3 1 0.3 2 0.6z"/>
				<g id="&lt;Group&gt;" style="opacity: .52">
					<path id="&lt;Path&gt;" class="s27" d="m708 623.6c-0.9-5.3 0.8-13.5 5.1-24.4 3.2-8.1 6.7-14.8 6.8-14.9l0.6 0.3c-0.2 0.3-13.9 26.7-11.8 38.8z"/>
				</g>
				<g id="&lt;Group&gt;" style="opacity: .52">
					<path id="&lt;Path&gt;" class="s27" d="m714.6 624.3c0.2-10.3 12.2-31.7 12.7-32.6l0.6 0.3c-0.1 0.2-12.5 22.2-12.7 32.3z"/>
				</g>
				<g id="&lt;Group&gt;">
					<path id="&lt;Path&gt;" class="s0" d="m759.8 569.2c-1.9-1.7-4.2-2.8-6.6-3.2 2.4-6.5-0.3-13.9-6.5-17.2-6.4-3.3-14.2-1.2-18 4.7q-0.1 0-0.1 0c-6.1-4.7-14.8-3.5-19.4 2.6-4.7 6.1-3.5 14.8 2.6 19.4 1.8 1.4 3.7 2.2 5.7 2.6-2.1 5.6-0.4 12.1 4.6 15.9 6.1 4.6 14.8 3.4 19.5-2.7q0.2-0.4 0.5-0.8c5.7 4.4 13.9 3.7 18.8-1.7 5.1-5.7 4.6-14.5-1.1-19.6z"/>
					<path id="&lt;Path&gt;" class="s19" d="m753.2 570c-1.4-1.3-3-2.1-4.8-2.4 1.8-4.7-0.2-10.1-4.8-12.5-4.6-2.5-10.3-0.9-13.1 3.4q-0.1 0-0.1-0.1c-4.4-3.3-10.8-2.5-14.2 2-3.4 4.4-2.5 10.8 1.9 14.2 1.3 1 2.8 1.6 4.2 1.9-1.5 4-0.3 8.8 3.4 11.6 4.4 3.4 10.8 2.5 14.2-2q0.2-0.2 0.4-0.6c4.2 3.3 10.2 2.8 13.7-1.2 3.8-4.2 3.4-10.6-0.8-14.3z"/>
					<path id="&lt;Path&gt;" class="s19" d="m746 570.8c-0.9-0.7-1.9-1.2-2.9-1.4 1.1-2.8-0.1-6-2.8-7.4-2.8-1.5-6.2-0.6-7.8 2q0 0-0.1 0c-2.6-2-6.4-1.5-8.4 1.1-2 2.7-1.5 6.4 1.2 8.4 0.7 0.6 1.6 1 2.5 1.1-0.9 2.5-0.2 5.3 1.9 6.9 2.7 2 6.4 1.5 8.5-1.1q0.1-0.2 0.2-0.4c2.5 1.9 6 1.6 8.1-0.7 2.2-2.5 2-6.3-0.4-8.5z"/>
				</g>
			</g>
		</g>
		<g id="&lt;Clip Group&gt;" clip-path="url(#cp2)">
			<path id="&lt;Path&gt;" class="s27" d="m639.8 583.5c-45.9-42.1-109.5-15.9-127.3-7.3-8.7-8.2-30.4-25.4-60.6-27 0 0 12.4 38.1 32.2 43.7 0 0-30.9 12.4-40.1 34 0 0 45.4 6.1 73.6-16.3 49.6 38.3 99.7 14.9 114.7 1.8 16.5-14.3 7.5-28.9 7.5-28.9z"/>
			<path id="&lt;Path&gt;" class="s31" d="m494 567.4c4.3 2.7 8.8 6.6 13.7 9 4.9 0.2 9.7 0.5 14.5 1.1 5-1.1 10-3.2 14.4-4.6 26.9-8.5 58.3-9.9 86.1-1.7-43.3-23.8-94.6-2.6-110.2 5-8.7-8.2-30.4-25.4-60.6-27q0.1 0 0.1 0.2c14.9 3.1 29.1 10.2 42 18z"/>
			<path id="&lt;Path&gt;" class="s32" d="m559.9 620.3c-10.7-1.4-21.4-4-30.6-9.8-2.7-1.8-6.4-5.5-9.2-5.4-4.8 0.3-11.9 4.6-16.6 6.2-18.4 6.3-39.3 15.3-59.4 15.3q-0.1 0.2-0.1 0.3c0 0 45.4 6.1 73.6-16.3 48 37.1 96.5 16.3 113.2 3.1-22.4 8.2-47.8 9.7-70.9 6.6z"/>
			<path id="&lt;Path&gt;" class="s33" d="m604.4 563.8c0 0-5.3 46.6 10.1 59 0 0 37.8-14.9 25.3-39.3 0 0-6.8-11.2-35.4-19.7z"/>
			<g id="&lt;Group&gt;">
				<path id="&lt;Path&gt;" class="s21" d="m591.6 597.5q0.3 3.2 0.8 6.2c0.4 2.1 0.8 4.1 1.5 5.9q1 2.9 2.7 5.3c1.3 1.6 2.8 2.9 4.6 4-2.1-0.4-4.1-1.5-5.6-3.1-1.6-1.6-2.7-3.5-3.4-5.6-0.8-2-1.1-4.2-1.2-6.3-0.1-2.1 0-4.3 0.6-6.4z"/>
				<path id="&lt;Path&gt;" class="s21" d="m585.6 599.8q0.3 3.2 0.8 6.2c0.3 2 0.7 4 1.5 5.9q0.9 2.8 2.7 5.3c1.2 1.5 2.8 2.8 4.6 4-2.1-0.5-4.1-1.5-5.7-3.1-1.5-1.6-2.6-3.6-3.3-5.6-0.8-2.1-1.1-4.2-1.2-6.4-0.1-2.1 0-4.2 0.6-6.3z"/>
			</g>
			<g id="&lt;Group&gt;">
				<g id="&lt;Group&gt;" style="opacity: .16">
					<path id="&lt;Path&gt;" class="s34" d="m601.2 631.5l-1.3-1.2c1.4-1.6 2-3.7 1.6-5.8-0.5-2.4-2.1-4.3-4.5-5.5-4.2-2.1-6.3-6.3-6.5-9.5-0.1-1.8 0.5-3.2 1.6-3.9 1-0.6 2.3-3.5 2.1-6.5-0.2-1.8-1.1-4.3-4.3-5.5-3.1-1.2-5.1-3.5-5.6-6.5-0.5-3.1 0.8-6.8 3-8.6 2.9-2.4 4.6-4.5 0-10.5-5.3-6.9 1.7-14.7 1.8-14.8l1.3 1.3c-0.2 0.2-6 6.7-1.7 12.4 5 6.5 3.6 9.8-0.2 13-1.5 1.2-2.9 4.1-2.4 6.9 0.2 1.7 1.2 3.9 4.5 5.1 3.1 1.2 5 3.7 5.3 7.1 0.4 3.6-1.2 7.1-2.9 8.1-0.5 0.3-0.7 1.2-0.7 2.3 0.2 2.7 2.1 6.3 5.5 8 2.9 1.4 4.9 3.9 5.4 6.8 0.5 2.6-0.2 5.4-2 7.3z"/>
				</g>
				<g id="&lt;Group&gt;" style="opacity: .16">
					<path id="&lt;Path&gt;" class="s34" d="m584.8 636.2l-1.4-1.2c1.4-1.5 2-3.6 1.6-5.7-0.4-2.4-2-4.4-4.4-5.6-4.2-2-6.3-6.3-6.5-9.4-0.1-1.8 0.5-3.3 1.6-3.9 1-0.7 2.3-3.5 2-6.5-0.1-1.9-1-4.3-4.2-5.5-3.1-1.2-5.1-3.5-5.6-6.5-0.5-3.2 0.7-6.8 3-8.7 2.9-2.3 4.6-4.4 0-10.5-5.3-6.9 1.7-14.6 1.8-14.7l1.3 1.2c-0.2 0.3-6 6.7-1.7 12.4 5 6.6 3.6 9.9-0.2 13-1.6 1.3-2.9 4.1-2.4 7 0.2 1.6 1.2 3.9 4.4 5.1 3.2 1.2 5.1 3.7 5.4 7 0.4 3.6-1.2 7.1-2.9 8.2-0.5 0.3-0.8 1.2-0.7 2.3 0.1 2.7 2.1 6.3 5.4 7.9 3 1.4 5 3.9 5.5 6.8 0.5 2.7-0.2 5.4-2 7.3z"/>
				</g>
				<g id="&lt;Group&gt;" style="opacity: .16">
					<path id="&lt;Path&gt;" class="s34" d="m567.6 636.1l-1.3-1.2c1.4-1.6 2-3.7 1.6-5.8-0.5-2.4-2.1-4.3-4.5-5.5-4.2-2.1-6.3-6.3-6.5-9.5-0.1-1.8 0.5-3.2 1.6-3.9 1-0.6 2.3-3.5 2.1-6.5-0.2-1.8-1.1-4.3-4.3-5.5-3.1-1.2-5.1-3.5-5.6-6.5-0.5-3.1 0.8-6.8 3-8.6 2.9-2.4 4.6-4.5 0-10.5-5.2-6.9 1.7-14.7 1.8-14.8l1.3 1.3c-0.2 0.2-6 6.7-1.7 12.4 5 6.5 3.6 9.8-0.2 13-1.5 1.2-2.9 4.1-2.4 6.9 0.2 1.7 1.2 3.9 4.5 5.1 3.1 1.2 5 3.7 5.4 7.1 0.3 3.6-1.3 7.1-3 8.1-0.5 0.3-0.7 1.2-0.7 2.3 0.2 2.7 2.1 6.3 5.5 8 2.9 1.4 4.9 3.9 5.4 6.8 0.5 2.6-0.2 5.4-2 7.3z"/>
				</g>
				<g id="&lt;Group&gt;" style="opacity: .16">
					<path id="&lt;Path&gt;" class="s34" d="m550.4 636.7l-1.3-1.2c1.4-1.5 2-3.6 1.6-5.7-0.5-2.4-2.1-4.4-4.5-5.6-4.2-2-6.3-6.3-6.5-9.4-0.1-1.8 0.5-3.3 1.6-3.9 1-0.7 2.4-3.5 2.1-6.5-0.2-1.9-1.1-4.3-4.3-5.5-3.1-1.2-5.1-3.5-5.6-6.5-0.5-3.2 0.8-6.8 3-8.7 2.9-2.3 4.6-4.4 0-10.5-5.2-6.9 1.8-14.6 1.8-14.7l1.4 1.2c-0.3 0.3-6.1 6.7-1.8 12.4 5.1 6.6 3.7 9.9-0.2 13-1.5 1.3-2.9 4.1-2.4 7 0.2 1.6 1.2 3.9 4.5 5.1 3.1 1.2 5 3.7 5.4 7 0.3 3.6-1.3 7.1-3 8.2-0.5 0.3-0.7 1.2-0.7 2.3 0.2 2.7 2.1 6.3 5.5 7.9 2.9 1.4 4.9 3.9 5.4 6.8 0.5 2.7-0.2 5.4-2 7.3z"/>
				</g>
				<g id="&lt;Group&gt;" style="opacity: .16">
					<path id="&lt;Path&gt;" class="s34" d="m531.6 636.6l-1.4-1.3c1.4-1.5 2-3.6 1.6-5.7-0.4-2.4-2-4.3-4.4-5.5-4.2-2.1-6.3-6.4-6.5-9.5-0.1-1.8 0.5-3.2 1.6-3.9 1-0.7 2.3-3.5 2-6.5-0.1-1.8-1-4.3-4.2-5.5-3.1-1.2-5.1-3.5-5.6-6.5-0.5-3.2 0.7-6.8 3-8.6 2.9-2.4 4.6-4.5 0-10.6-5.3-6.9 1.7-14.6 1.8-14.7l1.3 1.2c-0.2 0.3-6 6.7-1.7 12.4 5 6.6 3.6 9.9-0.2 13.1-1.5 1.2-2.9 4-2.4 6.9 0.2 1.7 1.2 3.9 4.4 5.1 3.2 1.2 5.1 3.7 5.4 7 0.4 3.6-1.2 7.2-2.9 8.2-0.5 0.3-0.8 1.2-0.7 2.3 0.1 2.7 2.1 6.3 5.4 7.9 3 1.5 5 3.9 5.5 6.9 0.5 2.6-0.2 5.3-2 7.3z"/>
				</g>
			</g>
			<path id="&lt;Path&gt;" class="s13" d="m629.8 584.2c0 2.4-1.8 4.4-4 4.4-2.2-0.1-4-2-4-4.4 0-2.5 1.9-4.4 4.1-4.4 2.2 0 3.9 2 3.9 4.4z"/>
			<path id="&lt;Path&gt;" class="s34" d="m625 583.1c0 0.5-0.4 0.9-0.9 0.9-0.4 0-0.8-0.4-0.8-0.9 0-0.5 0.4-0.9 0.9-0.9 0.5 0.1 0.8 0.5 0.8 0.9z"/>
			<g id="&lt;Group&gt;">
				<path id="&lt;Path&gt;" class="s13" d="m623.8 599.7q-0.8 0-0.9 0c-0.5 0-0.9-0.5-0.9-1 0-0.5 0.4-0.8 1-0.8 0.1 0 12.8 0.4 17.5-3.8 0.3-0.3 0.9-0.3 1.2 0.1 0.4 0.4 0.4 0.9 0 1.3-4.5 4-14.7 4.2-17.9 4.2z"/>
			</g>
			<path id="&lt;Path&gt;" class="s35" d="m513.7 607.4c-0.3-0.4-0.9-0.3-1.2 0.1-9 10.9-49.6 16.1-63.6 17.6 11.7-5.9 44.7-21.6 61.2-22.5 0.5 0 0.9-0.4 0.9-0.9-0.1-0.5-0.5-0.9-1-0.9-16.7 0.9-48.8 16.1-61.2 22.3 6.4-8.4 26.9-31.6 57.6-28.5q0.1 0 0.2 0 0.8 0 1.7 0 0.1 0 0.2 0 0-0.1 0-0.1c-9.5-13.7-37.9-32.8-49.1-40.1 9.7 1.1 38.2 6.4 51.9 33.8 0.2 0.4 0.7 0.6 1.1 0.4 0.4-0.2 0.5-0.7 0.3-1.2-16.3-32.7-53.1-34.9-56.5-35q-1.1-0.7-1.4-0.9c-0.3-0.2-0.8-0.2-1 0.2-0.3 0.2-0.3 0.6-0.1 1q0 0 0.1 0.1c1 1.4 19.7 26.7 35.9 40.4q1.1-0.3 2.2-0.4c-12.8-10.4-27.8-29.3-34-37.3 9.9 6.4 36.1 24 47.1 37.2-35.7-2.7-57.7 29.2-59.6 32.1-0.9 0.5-1.4 0.8-1.6 0.9-0.4 0.1-0.6 0.6-0.5 1 0.2 0.4 0.5 0.6 0.8 0.6q0.1 0.1 0.2 0c2.4-0.1 58.2-4.9 69.6-18.7 0.3-0.4 0.2-0.9-0.2-1.2z"/>
			<g id="&lt;Group&gt;">
				<path id="&lt;Path&gt;" class="s21" d="m578.3 589.3c0 0-15-6.6-30.5 3.9 0 0 12 18.4 31 7.6 0 0 6.5-4.4-0.5-11.5z"/>
				<path id="&lt;Path&gt;" class="s36" d="m550.9 594.5c4.8-0.5 9.6-0.5 14.4-0.3 4.7 0.2 9.5 0.6 14.2 1.5-4.8 0.5-9.5 0.5-14.3 0.3-4.8-0.2-9.5-0.6-14.3-1.5z"/>
				<path id="&lt;Path&gt;" class="s37" d="m552.5 592c4.2-1.7 8.7-2.5 13.3-2.8 2.3 0 4.6 0.1 6.9 0.6 2.3 0.4 4.7 1.5 5.9 3.5-1.8-1.5-4-1.9-6.1-2.1-2.2-0.2-4.4-0.3-6.6-0.2-4.4 0.2-8.9 0.7-13.4 1z"/>
				<path id="&lt;Path&gt;" class="s37" d="m553.2 597.1c4.2 1.1 8.2 2.3 12.3 2.8 4.1 0.6 8.3 0.6 12.1-1.6-1.4 1.7-3.5 2.7-5.7 3.2-2.2 0.6-4.4 0.5-6.6 0.2q-3.3-0.5-6.3-1.7c-2.1-0.7-4-1.7-5.8-2.9z"/>
			</g>
		</g>
		<g id="&lt;Group&gt;">
			<g id="&lt;Group&gt;">
				<path id="&lt;Path&gt;" class="s38" d="m316.9 482.6c-1.6 0-2.9-1.2-2.9-2.8v-142.9c0-1.6 1.3-2.8 2.9-2.8 1.5 0 2.8 1.2 2.8 2.8v142.9c0 1.6-1.3 2.8-2.8 2.8z"/>
			</g>
			<g id="&lt;Group&gt;">
				<path id="&lt;Path&gt;" class="s39" d="m360.7 290.4c0 24.2-19.6 43.8-43.8 43.8-24.3 0-43.9-19.6-43.9-43.8 0-24.3 19.6-43.9 43.9-43.9 24.2 0 43.8 19.6 43.8 43.9z"/>
				<g id="&lt;Group&gt;">
					<text id="B6
" style="transform: matrix(2,0,0,2,316.853,301.36)" >
						<tspan x="-12.1" y="0" class="t40">B</tspan><tspan  y="0" class="t41">6
</tspan>
					</text>
				</g>
			</g>
		</g>
		<g id="&lt;Group&gt;">
			<g id="&lt;Group&gt;">
				<path id="&lt;Path&gt;" class="s38" d="m194 452.5c-1.6 0-2.8-1.2-2.8-2.8v-112.8c0-1.6 1.2-2.8 2.8-2.8 1.5 0 2.8 1.2 2.8 2.8v112.8c0 1.6-1.3 2.8-2.8 2.8z"/>
			</g>
			<g id="&lt;Group&gt;">
				<path id="&lt;Path&gt;" class="s39" d="m236.8 290.4c0 24.2-19.6 43.8-43.8 43.8-24.3 0-43.9-19.6-43.9-43.8 0-24.3 19.6-43.9 43.9-43.9 24.2 0 43.8 19.6 43.8 43.9z"/>
				<g id="&lt;Group&gt;">
					<text id="B7
" style="transform: matrix(2,0,0,2,192.964,301.36)" >
						<tspan x="-11.7" y="0" class="t40">B</tspan><tspan  y="0" class="t41">7
</tspan>
					</text>
				</g>
			</g>
		</g>
		<g id="&lt;Group&gt;">
			<g id="&lt;Group&gt;">
				<path id="&lt;Path&gt;" class="s38" d="m440.7 482.6c-1.5 0-2.8-1.2-2.8-2.8v-142.9c0-1.6 1.3-2.8 2.8-2.8 1.6 0 2.8 1.2 2.8 2.8v142.9c0 1.6-1.2 2.8-2.8 2.8z"/>
			</g>
			<g id="&lt;Group&gt;">
				<path id="&lt;Path&gt;" class="s39" d="m484.6 290.4c0 24.2-19.6 43.8-43.9 43.8-24.2 0-43.8-19.6-43.8-43.8 0-24.3 19.6-43.9 43.8-43.9 24.3 0 43.9 19.6 43.9 43.9z"/>
				<g id="&lt;Group&gt;">
					<text id="B5
" style="transform: matrix(2,0,0,2,440.741,301.36)" >
						<tspan x="-12" y="0" class="t40">B</tspan><tspan  y="0" class="t41">5
</tspan>
					</text>
				</g>
			</g>
		</g>
		<g id="&lt;Group&gt;">
			<g id="&lt;Group&gt;">
				<path id="&lt;Path&gt;" class="s38" d="m564.6 482.6c-1.5 0-2.8-1.2-2.8-2.8v-142.9c0-1.6 1.3-2.8 2.8-2.8 1.6 0 2.8 1.2 2.8 2.8v142.9c0 1.6-1.2 2.8-2.8 2.8z"/>
			</g>
			<g id="&lt;Group&gt;">
				<path id="&lt;Path&gt;" class="s39" d="m608.5 290.3c0 24.3-19.7 43.9-43.9 43.9-24.2 0-43.8-19.6-43.8-43.9 0-24.2 19.6-43.8 43.8-43.8 24.2 0 43.9 19.6 43.9 43.8z"/>
				<g id="&lt;Group&gt;">
					<text id="E
" style="transform: matrix(2,0,0,2,564.63,301.36)" >
						<tspan x="-7.4" y="0" class="t40">E
</tspan>
					</text>
				</g>
			</g>
		</g>
		<g id="&lt;Group&gt;">
			<g id="&lt;Group&gt;">
				<path id="&lt;Path&gt;" class="s38" d="m688.5 482.6c-1.5 0-2.8-1.2-2.8-2.8v-142.9c0-1.6 1.3-2.8 2.8-2.8 1.6 0 2.8 1.2 2.8 2.8v142.9c0 1.6-1.2 2.8-2.8 2.8z"/>
			</g>
			<g id="&lt;Group&gt;">
				<path id="&lt;Path&gt;" class="s39" d="m732.4 290.3c0 24.3-19.7 43.9-43.9 43.9-24.2 0-43.8-19.6-43.8-43.9 0-24.2 19.6-43.8 43.8-43.8 24.2 0 43.9 19.6 43.9 43.8z"/>
				<g id="&lt;Group&gt;">
					<text id="D
" style="transform: matrix(2,0,0,2,688.519,301.36)" >
						<tspan x="-8.8" y="0" class="t40">D
</tspan>
					</text>
				</g>
			</g>
		</g>
		<g id="&lt;Group&gt;">
			<g id="&lt;Group&gt;">
				<path id="&lt;Path&gt;" class="s38" d="m812.4 482.6c-1.5 0-2.8-1.2-2.8-2.8v-142.9c0-1.6 1.3-2.8 2.8-2.8 1.6 0 2.8 1.2 2.8 2.8v142.9c0 1.6-1.2 2.8-2.8 2.8z"/>
			</g>
			<g id="&lt;Group&gt;">
				<path id="&lt;Path&gt;" class="s39" d="m856.3 290.3c0 24.3-19.7 43.9-43.9 43.9-24.2 0-43.8-19.6-43.8-43.9 0-24.2 19.6-43.8 43.8-43.8 24.2 0 43.9 19.6 43.9 43.8z"/>
				<g id="&lt;Group&gt;">
					<text id="B9
" style="transform: matrix(2,0,0,2,812.408,301.36)" >
						<tspan x="-12.1" y="0" class="t40">B</tspan><tspan  y="0" class="t41">9
</tspan>
					</text>
				</g>
			</g>
		</g>
		<g id="&lt;Group&gt;">
			<g id="&lt;Group&gt;">
				<path id="&lt;Path&gt;" class="s39" d="m335.5 786.3c0 24.2-19.6 43.8-43.9 43.8-24.2 0-43.8-19.6-43.8-43.8 0-24.2 19.6-43.9 43.8-43.9 24.3 0 43.9 19.7 43.9 43.9z"/>
				<g id="&lt;Group&gt;">
					<text id="B2
" style="transform: matrix(2,0,0,2,291.644,797.29)" >
						<tspan x="-11.9" y="0" class="t40">B</tspan><tspan  y="0" class="t41">2
</tspan>
					</text>
				</g>
			</g>
			<g id="&lt;Group&gt;">
				<path id="&lt;Path&gt;" class="s38" d="m291.6 741.6c-1.5 0-2.8-1.3-2.8-2.9v-129.6c0-1.6 1.3-2.8 2.8-2.8 1.6 0 2.8 1.2 2.8 2.8v129.6c0 1.6-1.2 2.9-2.8 2.9z"/>
			</g>
		</g>
		<g id="&lt;Group&gt;">
			<g id="&lt;Group&gt;">
				<path id="&lt;Path&gt;" class="s39" d="m203.3 786.3c0 24.2-19.6 43.8-43.8 43.8-24.2 0-43.9-19.6-43.9-43.8 0-24.2 19.7-43.9 43.9-43.9 24.2 0 43.8 19.7 43.8 43.9z"/>
				<g id="&lt;Group&gt;">
					<text id="A
" style="transform: matrix(2,0,0,2,159.489,797.29)" >
						<tspan x="-9.1" y="0" class="t40">A
</tspan>
					</text>
				</g>
			</g>
			<g id="&lt;Group&gt;">
				<path id="&lt;Path&gt;" class="s38" d="m159.5 741.6c-1.6 0-2.8-1.3-2.8-2.9v-129.6c0-1.6 1.2-2.8 2.8-2.8 1.5 0 2.8 1.2 2.8 2.8v129.6c0 1.6-1.3 2.9-2.8 2.9z"/>
			</g>
		</g>
		<g id="&lt;Group&gt;">
			<g id="&lt;Group&gt;">
				<path id="&lt;Path&gt;" class="s39" d="m467.7 786.3c0 24.2-19.7 43.8-43.9 43.8-24.2 0-43.9-19.6-43.9-43.8 0-24.2 19.7-43.9 43.9-43.9 24.2 0 43.9 19.7 43.9 43.9z"/>
				<g id="&lt;Group&gt;">
					<text id="B1
" style="transform: matrix(2,0,0,2,423.798,797.29)" >
						<tspan x="-11.1" y="0" class="t40">B</tspan><tspan  y="0" class="t41">1
</tspan>
					</text>
				</g>
			</g>
			<g id="&lt;Group&gt;">
				<path id="&lt;Path&gt;" class="s38" d="m423.8 741.6c-1.5 0-2.8-1.3-2.8-2.9v-129.6c0-1.6 1.3-2.8 2.8-2.8 1.5 0 2.8 1.2 2.8 2.8v129.6c0 1.6-1.3 2.9-2.8 2.9z"/>
			</g>
		</g>
		<g id="&lt;Group&gt;">
			<g id="&lt;Group&gt;">
				<path id="&lt;Path&gt;" class="s39" d="m599.8 786.3c0 24.2-19.6 43.8-43.8 43.8-24.3 0-43.9-19.6-43.9-43.8 0-24.2 19.6-43.9 43.9-43.9 24.2 0 43.8 19.7 43.8 43.9z"/>
				<g id="&lt;Group&gt;">
					<text id="B3
" style="transform: matrix(2,0,0,2,555.952,797.29)" >
						<tspan x="-12.1" y="0" class="t40">B</tspan><tspan  y="0" class="t41">3
</tspan>
					</text>
				</g>
			</g>
			<g id="&lt;Group&gt;">
				<path id="&lt;Path&gt;" class="s38" d="m556 741.6c-1.6 0-2.9-1.3-2.9-2.9v-129.6c0-1.6 1.3-2.8 2.9-2.8 1.5 0 2.8 1.2 2.8 2.8v129.6c0 1.6-1.3 2.9-2.8 2.9z"/>
			</g>
		</g>
		<g id="&lt;Group&gt;">
			<g id="&lt;Group&gt;">
				<path id="&lt;Path&gt;" class="s39" d="m732 786.3c0 24.2-19.7 43.8-43.9 43.8-24.2 0-43.8-19.6-43.8-43.8 0-24.2 19.6-43.9 43.8-43.9 24.2 0 43.9 19.7 43.9 43.9z"/>
				<g id="&lt;Group&gt;">
					<text id="K
" style="transform: matrix(2,0,0,2,688.109,797.29)" >
						<tspan x="-8.4" y="0" class="t40">K
</tspan>
					</text>
				</g>
			</g>
			<g id="&lt;Group&gt;">
				<path id="&lt;Path&gt;" class="s38" d="m688.1 741.6c-1.5 0-2.8-1.3-2.8-2.9v-129.6c0-1.6 1.3-2.8 2.8-2.8 1.6 0 2.8 1.2 2.8 2.8v129.6c0 1.6-1.2 2.9-2.8 2.9z"/>
			</g>
		</g>
		<g id="&lt;Group&gt;">
			<g id="&lt;Group&gt;">
				<path id="&lt;Path&gt;" class="s39" d="m864.1 786.3c0 24.2-19.6 43.8-43.8 43.8-24.3 0-43.9-19.6-43.9-43.8 0-24.2 19.6-43.9 43.9-43.9 24.2 0 43.8 19.7 43.8 43.9z"/>
				<g id="&lt;Group&gt;">
					<text id="C
" style="transform: matrix(2,0,0,2,820.263,797.29)" >
						<tspan x="-9.1" y="0" class="t40">C
</tspan>
					</text>
				</g>
			</g>
			<g id="&lt;Group&gt;">
				<path id="&lt;Path&gt;" class="s38" d="m820.3 741.6c-1.6 0-2.8-1.3-2.8-2.9v-129.6c0-1.6 1.2-2.8 2.8-2.8 1.5 0 2.8 1.2 2.8 2.8v129.6c0 1.6-1.3 2.9-2.8 2.9z"/>
			</g>
		</g>
	</g>
</svg>