<?xml version="1.0" encoding="utf-8"?>
<svg xmlns="http://www.w3.org/2000/svg" viewBox="0 0 500 364" xmlns:bx="https://boxy-svg.com">
  <text style="fill: rgb(7, 69, 48); font-family: &quot;Poppins Devanagari&quot;; font-size: 28px; white-space: pre;" transform="matrix(0.90692, 0, 0, 1.03088, 6.26857, 5.77089)" x="8.099" y="38.772">Krokante Muesli</text>
  <rect x="14.717" y="54.765" width="218.934" height="1.102" style="fill: rgb(216, 216, 216); stroke: rgb(0, 0, 0);"/>
  <text style="white-space: pre; fill: rgb(51, 51, 51); font-family: Arial, sans-serif; font-size: 28px;" x="15.819" y="87.853">400 g</text>
  <text style="white-space: pre; fill: rgb(51, 51, 51); font-family: Arial, sans-serif; font-size: 28px;" x="66.003" y="216.346" transform="matrix(0.740135, 0, 0, 0.701754, -34.135, -35.6889)">ca. 8 porties (50 g)</text>
  <rect x="14.169" y="130.592" width="218.934" height="0.551" style="fill: rgb(216, 216, 216); stroke: rgb(0, 0, 0);"/>
  <text style="fill: rgb(51, 51, 51); font-family: Arial, sans-serif; font-size: 28px; white-space: pre;" transform="matrix(0.390656, 0, 0, 0.419438, -32.3276, 69.1787)"><tspan style="font-weight: 700;" x="116.187" y="188.221">Ingedriënten:</tspan><tspan> 70% volkoren havervlok.</tspan><tspan x="116.187" dy="1em">​</tspan><tspan>15% honing, 7.5 zonnebloemolie, 4% zonne-</tspan><tspan x="116.187" dy="1em">​</tspan><tspan>bloempit, 3% pompoenpit, natuurlijk vanille-</tspan><tspan x="116.187" dy="1em">​</tspan><tspan>aroma, zout, karamelstroop,E306, E300, </tspan><tspan x="116.187" dy="1em">​</tspan><tspan>E101</tspan></text>
  <text style="fill: rgb(51, 51, 51); font-family: Arial, sans-serif; font-size: 28px; white-space: pre;" transform="matrix(0.37919, 0, 0, 0.413421, -23.4855, 108.824)"><tspan style="font-weight: 700;" x="100.746" y="405.5">Bereiden</tspan><tspan>: Doe 50 gram krokante muesli in een</tspan><tspan x="100.746" dy="1em">​</tspan><tspan>kom. Voeg halfvolle melk, halfvolle yoghurt,</tspan><tspan x="100.746" dy="1em">​</tspan><tspan>magere kwark, of karnemlek naar smaak toe.</tspan></text>
  <text style="fill: rgb(51, 51, 51); font-family: Arial, sans-serif; font-size: 28px; white-space: pre;" transform="matrix(0.37063, 0, 0, 0.419728, -59.591, 113.095)"><tspan style="font-weight: 700;" x="201.114" y="268.735">Allergie Informatie</tspan><tspan>: Bevat havergluten.</tspan><tspan x="201.114" dy="1em">​</tspan><tspan>Gemaakt in een bedrijf waar ook noten worden </tspan><tspan x="201.114" dy="1em">​</tspan><tspan>verwerkt</tspan></text>
  <rect x="14.441" y="208.901" width="218.934" height="0.551" style="fill: rgb(216, 216, 216); stroke: rgb(0, 0, 0);"/>
  <rect x="14.992" y="261.291" width="218.934" height="0.551" style="fill: rgb(216, 216, 216); stroke: rgb(0, 0, 0);"/>
  <text style="white-space: pre; fill: rgb(51, 51, 51); font-family: Arial, sans-serif; font-size: 28px;" x="275.562" y="356.971"> </text>
  <rect x="15.543" y="309.821" width="218.934" height="0.551" style="fill: rgb(216, 216, 216); stroke: rgb(0, 0, 0);"/>
  <text style="fill: rgb(51, 51, 51); font-family: Arial, sans-serif; font-size: 28px; white-space: pre;" transform="matrix(0.37919, 0, 0, 0.413421, -24.1387, 160.268)"><tspan style="font-weight: 700;" x="100.746" y="405.5">Ten minste houdbaar tot</tspan><tspan>: 6-12-25</tspan></text>
  <text style="fill: rgb(51, 51, 51); font-family: Arial, sans-serif; font-size: 28px; white-space: pre;" transform="matrix(0.37063, 0, 0, 0.419728, 191.532, -63.4853)" x="201.11399841308594" y="268.7349853515625">Koel, donker en droog bewaren</text>
  <rect x="266.463" y="54.213" width="218.934" height="1.102" style="fill: rgb(216, 216, 216); stroke: rgb(0, 0, 0);"/>
  <text style="fill: rgb(51, 51, 51); font-family: Arial, sans-serif; font-size: 28px; white-space: pre;" transform="matrix(0.37063, 0, 0, 0.419728, 191.496, -40.7037)" x="201.11399841308594" y="268.7349853515625">Na openen in een geslote trommel bewaren</text>
  <rect x="267.015" y="83.993" width="218.934" height="1.102" style="fill: rgb(216, 216, 216); stroke: rgb(0, 0, 0);"/>
  <text style="fill: rgb(51, 51, 51); font-family: Arial, sans-serif; font-size: 28px; font-weight: 700; white-space: pre;" transform="matrix(0.37063, 0, 0, 0.419728, 193.568, -11.4756)" x="201.114" y="268.735">Voedingswaarde per 100 g   Schaaltje (50 g)</text>
  <text style="fill: rgb(51, 51, 51); font-family: Arial, sans-serif; font-size: 28px; white-space: pre;" transform="matrix(0.37063, 0, 0, 0.419728, 194.221, 4.51701)"><tspan style="font-weight: 700;" x="201.114" y="268.735">energie</tspan><tspan>  1860 kJ / 445kcal    745 kJ / 175kcal</tspan></text>
  <text style="fill: rgb(51, 51, 51); font-family: Arial, sans-serif; font-size: 28px; white-space: pre;" transform="matrix(0.37372, 0, 0, 0.419728, 194.146, 21.9582)"><tspan style="font-weight: 700;" x="201.114" y="268.735">vetten</tspan><tspan>   ___________16 g   _________8 g</tspan></text>
  <text style="fill: rgb(51, 51, 51); font-family: Arial, sans-serif; font-size: 28px; white-space: pre;" transform="matrix(0.37474, 0, 0, 0.419728, 193.609, 37.8645)"><tspan x="201.114" y="268.735">waarvan verzadigde</tspan><tspan x="201.114" dy="1em">​</tspan><tspan>vetzuren ___________4 g   _________2 g</tspan></text>
  <text style="fill: rgb(51, 51, 51); font-family: Arial, sans-serif; font-size: 28px; white-space: pre;" transform="matrix(0.377905, 0, 0, 0.419728, 194.111, 70.9528)"><tspan style="font-weight: 700;" x="201.114" y="268.735">koolhydraten</tspan><tspan>  _____58 g   ________29 g</tspan></text>
  <text style="fill: rgb(51, 51, 51); font-family: Arial, sans-serif; font-size: 28px; white-space: pre;" transform="matrix(0.368612, 0, 0, 0.385462, 195.722, 99.7025)" x="201.114" y="268.735">waarvan suikers_____15 g   ________7.5 g</text>
  <text style="fill: rgb(51, 51, 51); font-family: Arial, sans-serif; font-size: 28px; white-space: pre;" transform="matrix(0.361817, 0, 0, 0.419728, 198.609, 109.022)"><tspan style="font-weight: 700;" x="201.114" y="268.735">vezels</tspan><tspan>____________8.5 g  ________4.25 g</tspan></text>
  <text style="fill: rgb(51, 51, 51); font-family: Arial, sans-serif; font-size: 28px; white-space: pre;" transform="matrix(0.364596, 0, 0, 0.419728, 196.061, 128.324)"><tspan style="font-weight: 700;" x="201.114" y="268.735">eiwit</tspan><tspan>______________13 g  _________6.5 g</tspan></text>
  <text style="fill: rgb(51, 51, 51); font-family: Arial, sans-serif; font-size: 28px; white-space: pre;" transform="matrix(0.363589, 0, 0, 0.419728, 197.12, 147.625)"><tspan style="font-weight: 700;" x="201.114" y="268.735">zout</tspan><tspan>______________0.2 g  _________0.1 g</tspan></text>
  <rect x="265.912" y="269.839" width="218.934" height="1.102" style="fill: rgb(216, 216, 216); stroke: rgb(0, 0, 0);"/>
  <path style="stroke: rgb(0, 130, 62); paint-order: fill; stroke-linejoin: round; stroke-linecap: round; fill: rgb(0, 130, 62);" d="M 282.806 297.419 H 305.137 V 338.228 H 282.806 A 8 8 0 0 1 274.806 330.228 V 305.419 A 8 8 0 0 1 282.806 297.419 Z" bx:shape="rect 274.806 297.419 30.331 40.809 8 0 0 8 1@bdf54110"/>
  <rect x="342.875" y="296.868" width="30.331" height="40.809" style="stroke: rgb(255, 204, 1); fill: rgb(255, 204, 1);"/>
  <rect x="371.596" y="296.897" width="30.331" height="40.809" style="fill: rgb(238, 129, 0); stroke: rgb(238, 129, 0);"/>
  <path style="stroke: rgb(231, 59, 9); fill: rgb(231, 59, 9);" d="M 401.412 296.721 H 423.743 A 8 8 0 0 1 431.743 304.721 V 329.53 A 8 8 0 0 1 423.743 337.53 H 401.412 V 296.721 Z" bx:shape="rect 401.412 296.721 30.331 40.809 0 8 8 0 1@cddc1f76"/>
  <rect style="fill: rgb(134, 187, 43); stroke: rgb(134, 187, 43);" x="304.7" y="291.282" width="37.5" height="52.817" rx="8" ry="8"/>
  <text style="fill: rgb(51, 51, 51); font-family: Arial, sans-serif; font-size: 28px; font-weight: 700; white-space: pre;" transform="matrix(0.363589, 0, 0, 0.419728, 197.763, 172.245)" x="201.114" y="268.735">NUTRI-SCORE</text>
  <text style="fill: rgb(190, 187, 187); font-family: Arial, sans-serif; font-size: 28px; font-weight: 700; paint-order: stroke; stroke: rgb(210, 199, 199); stroke-opacity: 0; white-space: pre; opacity: 0.46;" x="346.137" y="328.652">C</text>
  <text style="fill: rgb(190, 187, 187); font-family: Arial, sans-serif; font-size: 28px; font-weight: 700; paint-order: stroke; stroke: rgb(210, 199, 199); stroke-opacity: 0; white-space: pre; opacity: 0.46;" x="279.534" y="328.652">A</text>
  <text style="fill: rgb(190, 187, 187); font-family: Arial, sans-serif; font-size: 28px; font-weight: 700; paint-order: stroke; stroke: rgb(210, 199, 199); stroke-opacity: 0; white-space: pre; opacity: 0.46;" x="376.659" y="328.256">D</text>
  <text style="fill: rgb(190, 187, 187); font-family: Arial, sans-serif; font-size: 28px; font-weight: 700; paint-order: stroke; stroke: rgb(210, 199, 199); stroke-opacity: 0; white-space: pre; opacity: 0.46;" x="406.788" y="327.463">E</text>
  <text style="fill: rgb(255, 255, 255); font-family: Arial, sans-serif; font-size: 28px; font-weight: 700; paint-order: stroke; stroke: rgb(255, 255, 255); stroke-opacity: 0; white-space: pre;" transform="matrix(1.2744, 0, 0, 1.44266, -87.9335, -141.608)" x="313.231" y="328.256">B</text>
</svg>