<svg version="1.2" xmlns="http://www.w3.org/2000/svg" viewBox="0 0 1000 1000" width="1000" height="1000">
	<title>water (1)</title>
	<defs>
		<clipPath clipPathUnits="userSpaceOnUse" id="cp1">
			<path d="m0 0h1000v1000h-1000z"/>
		</clipPath>
	</defs>
	<style>
		.s0 { fill: #ebebeb } 
		.s1 { fill: #f0f0f0 } 
		.s2 { fill: #e0e0e0 } 
		.s3 { fill: #ffffff } 
		.s4 { fill: #f5f5f5 } 
		.s5 { fill: #e6e6e6 } 
		.s6 { fill: #fafafa } 
		.s7 { fill: #ff8b7b } 
		.s8 { fill: #263238 } 
		.s9 { fill: #074530 } 
		.s10 { fill: #188a63 } 
		.s11 { fill: #ff5652 } 
		.s12 { fill: #407bff } 
		.s13 { fill: #3cefb2 } 
	</style>
	<g id="Page 1" clip-path="url(#cp1)">
		<path id="Path 1" fill-rule="evenodd" class="s0" d="m887.8 703.6h-361.5c-6.4 0-11.7-5.3-11.7-11.7v-526.6c0-6.4 5.3-11.7 11.7-11.7h361.5c6.5 0 11.8 5.3 11.8 11.7v526.6c0 6.4-5.3 11.7-11.8 11.7zm-361.5-549.5c-6.1 0-11.2 5-11.2 11.2v526.6c0 6.2 5.1 11.2 11.2 11.2h361.5c6.2 0 11.3-5 11.3-11.2v-526.6c0-6.2-5.1-11.2-11.3-11.2zm-55.3 549.5h-361.5c-6.5 0-11.7-5.3-11.7-11.7v-526.6c0-6.4 5.2-11.7 11.7-11.7h361.5c6.5 0 11.7 5.3 11.7 11.7v526.6c0 6.4-5.2 11.7-11.7 11.7zm-361.5-549.5c-6.2 0-11.2 5-11.2 11.2v526.6c0 6.2 5 11.2 11.2 11.2h361.5c6.2 0 11.2-5 11.2-11.2v-526.6c0-6.2-5-11.2-11.2-11.2z"/>
		<path id="Path 2" class="s1" d="m888.7 441.3h-294.4v-19.5h294.4z"/>
		<path id="Path 3" fill-rule="evenodd" class="s2" d="m656 441.3l-5.2 16.5h-18.6l-7.9-16.5zm202.7 0l-7.8 16.5h-18.6l-5.3-16.5z"/>
		<path id="Path 4" fill-rule="evenodd" class="s1" d="m789.1 413l-9.7-35.9-0.2-0.8-1-3.6-0.2-0.8-1.1-4h57.1l-1.1 4-0.2 0.8-1 3.6-0.2 0.8-9.7 35.9-0.2 0.8-1 3.6-0.2 0.8-0.9 3.6h-28.1l-0.9-3.6-0.2-0.8-1-3.6zm20-95.9c-1.2 0.3-2.4-0.2-3.1-1.2q-0.3-0.4-0.5-1 0-0.4 0-0.7c0-0.7 0.2-1.3 0.6-1.9 3.9-4.7 23.7-27.6 33-18 11.2 11.5-19.2 20.2-30 22.8z"/>
		<path id="Path 5" class="s1" d="m805.5 325.6q0 0.3-0.1 0.6-0.2 0.6-0.5 1.1c-0.7 0.9-1.9 1.4-3.1 1.1-10.8-2.6-41.2-11.2-30-22.8 9.3-9.5 29.1 13.3 33 18.1 0.4 0.5 0.7 1.2 0.7 1.9z"/>
		<path id="Path 6" fill-rule="evenodd" class="s1" d="m807.7 302.4c-0.1 0.6-0.4 1.3-0.9 1.8q-0.2 0.2-0.5 0.3-0.5 0.4-1.1 0.4c-1.2 0.2-2.4-0.3-3-1.4-5.5-9.6-20.3-37.6-4.2-37.4 13.4 0.1 10.4 30.2 9.7 36.3zm1.4 39c-1.2 0.3-2.4-0.2-3.1-1.1-0.2-0.4-0.4-0.7-0.5-1.1q0-0.3 0-0.7c0-0.7 0.2-1.3 0.6-1.9 3.9-4.7 23.7-27.6 33-18 11.2 11.6-19.2 20.2-30 22.8z"/>
		<path id="Path 7" fill-rule="evenodd" class="s1" d="m805.5 349.8q0 0.4-0.1 0.7c-0.1 0.4-0.3 0.8-0.5 1.1-0.7 0.9-1.9 1.4-3.1 1.1-10.8-2.6-41.2-11.2-30-22.8 9.3-9.5 29.1 13.3 33 18.1 0.4 0.5 0.7 1.2 0.7 1.8zm3.6 14.5c-1.2 0.3-2.4-0.2-3.1-1.2-0.2-0.3-0.4-0.6-0.5-1.1q0-0.3 0-0.6c0-0.7 0.2-1.3 0.6-1.9 3.9-4.7 23.7-27.6 33-18 11.2 11.5-19.2 20.2-30 22.8z"/>
		<path id="Path 8" class="s2" d="m688.2 408.3h-1.8v-2.7h67.4c2.2 0 4.3 1 5.7 2.4 1.5 1.5 2.4 3.5 2.4 5.7 0 4.5-3.6 8.1-8.1 8.1h-67.4v-2.3h1.8z"/>
		<path id="Path 9" class="s3" d="m687.7 408.3v11.2h61.9c3 0 5.4-2.5 5.4-5.6 0-1.5-0.6-2.9-1.6-3.9-1-1.1-2.3-1.7-3.8-1.7z"/>
		<path id="Path 10" fill-rule="evenodd" class="s1" d="m748 411.1c0.4 0 0.8 0.4 0.8 0.9 0 0.5-0.4 0.9-0.8 0.9h-60.3v-1.8zm0 4.3c0.5 0 0.9 0.4 0.9 0.8 0 0.5-0.4 0.9-0.9 0.9h-60.2v-1.7z"/>
		<path id="Path 11" class="s2" d="m610.3 408.3h-1.8v-2.7h67.4c2.2 0 4.2 1 5.7 2.4 1.5 1.5 2.4 3.5 2.4 5.7 0 4.5-3.7 8.1-8.1 8.1h-67.4v-2.3h1.8z"/>
		<path id="Path 12" class="s3" d="m609.8 408.3v11.2h61.8c3.1 0 5.5-2.5 5.5-5.6 0-1.5-0.6-2.9-1.6-3.9-1-1.1-2.3-1.7-3.9-1.7z"/>
		<path id="Path 13" fill-rule="evenodd" class="s1" d="m670 411.1c0.5 0 0.9 0.4 0.9 0.9 0 0.5-0.4 0.9-0.9 0.9h-60.2v-1.8zm0 4.3c0.5 0 0.9 0.4 0.9 0.8 0 0.5-0.4 0.9-0.9 0.9h-60.2v-1.7z"/>
		<path id="Path 14" class="s2" d="m688.2 392.3h-1.8v-2.7h67.4c2.2 0 4.3 0.9 5.7 2.4 1.5 1.5 2.4 3.5 2.4 5.7 0 4.5-3.6 8.1-8.1 8.1h-67.4v-2.3h1.8z"/>
		<path id="Path 15" class="s3" d="m687.7 392.3v11.2h61.9c3 0 5.4-2.5 5.4-5.6 0-1.5-0.6-2.9-1.6-4-1-1-2.3-1.6-3.8-1.6z"/>
		<path id="Path 16" fill-rule="evenodd" class="s1" d="m687.7 395.1v1.8h60.3c0.4 0 0.8-0.4 0.8-0.9 0-0.5-0.4-0.9-0.8-0.9zm0 4.3v1.7h60.2c0.5 0 0.9-0.4 0.9-0.9 0-0.5-0.4-0.8-0.9-0.8z"/>
		<path id="Path 17" fill-rule="evenodd" class="s2" d="m806 367.9v-69.8c0-0.6-0.5-1.1-1.1-1.1-0.6 0-1.1 0.5-1.1 1.1v69.8zm-359.5-181.3h-319.8v400.5h319.8z"/>
		<path id="Path 18" class="s4" d="m134.7 579.1v-384.5h303.8v384.5z"/>
		<path id="Path 19" class="s5" d="m226 330.9v248.2h-91.2v-248.2h10.3l17.6-30.6 15.8-27.3v-50.5h3.8v50.5l15.8 27.3 17.6 30.6z"/>
		<path id="Path 20" fill-rule="evenodd" class="s6" d="m159.2 352.7h-14.1v-6.7h14.1zm28.3 0h-14.2v-6.6h14.2zm28.2 0h-14.1v-6.6h14.1zm-56.5 16.4h-14.1v-6.6h14.1z"/>
		<path id="Path 21" fill-rule="evenodd" class="s6" d="m187.5 369.1h-14.2v-6.6h14.2zm28.2 0h-14.1v-6.7h14.1zm-56.5 16.5h-14.1v-6.7h14.1z"/>
		<path id="Path 22" fill-rule="evenodd" class="s6" d="m187.5 385.6h-14.2v-6.7h14.2zm28.2 0h-14.1v-6.6h14.1zm-56.5 16.4h-14.1v-6.6h14.1z"/>
		<path id="Path 23" fill-rule="evenodd" class="s6" d="m187.5 402h-14.2v-6.7h14.2zm28.2 0h-14.1v-6.6h14.1zm-56.5 16.4h-14.1v-6.6h14.1z"/>
		<path id="Path 24" fill-rule="evenodd" class="s6" d="m187.5 411.8h-14.2v6.6h14.2zm28.2 0h-14.1v6.7h14.1zm-56.5 16.4h-14.1v6.6h14.1z"/>
		<path id="Path 25" fill-rule="evenodd" class="s6" d="m187.5 428.2h-14.2v6.7h14.2zm28.2 0h-14.1v6.6h14.1zm-56.5 16.4h-14.1v6.7h14.1z"/>
		<path id="Path 26" fill-rule="evenodd" class="s6" d="m187.5 451.3h-14.2v-6.7h14.2zm28.2 0h-14.1v-6.6h14.1zm-56.5 16.4h-14.1v-6.6h14.1z"/>
		<path id="Path 27" fill-rule="evenodd" class="s6" d="m187.5 467.7h-14.2v-6.6h14.2zm28.2 0h-14.1v-6.7h14.1zm-56.5 16.5h-14.1v-6.7h14.1z"/>
		<path id="Path 28" fill-rule="evenodd" class="s6" d="m187.5 477.5h-14.2v6.7h14.2zm28.2 0h-14.1v6.6h14.1zm-56.5 16.4h-14.1v6.7h14.1z"/>
		<path id="Path 29" fill-rule="evenodd" class="s6" d="m187.5 500.6h-14.2v-6.7h14.2zm28.2 0h-14.1v-6.6h14.1zm-56.5 16.4h-14.1v-6.6h14.1z"/>
		<path id="Path 30" fill-rule="evenodd" class="s6" d="m187.5 510.4h-14.2v6.6h14.2zm28.2 0h-14.1v6.7h14.1zm-56.5 16.4h-14.1v6.6h14.1z"/>
		<path id="Path 31" fill-rule="evenodd" class="s6" d="m187.5 526.8h-14.2v6.7h14.2zm28.2 0h-14.1v6.6h14.1z"/>
		<path id="Path 32" class="s5" d="m334.1 279.4v299.7h-102.1v-299.7h7.3v-60.2l72.7 32.9v-57.5h3.8v59.2l7.8 3.6v22z"/>
		<path id="Path 33" fill-rule="evenodd" class="s6" d="m261.9 298.1h-14.2v6.7h14.2zm28.2 0h-14.1v6.6h14.1zm28.3 0h-14.2v6.6h14.2zm-56.5 16.5h-14.2v6.6h14.2z"/>
		<path id="Path 34" fill-rule="evenodd" class="s6" d="m290.1 321.2h-14.1v-6.7h14.1zm28.3 0h-14.2v-6.6h14.2zm-56.5 16.4h-14.2v-6.6h14.2z"/>
		<path id="Path 35" fill-rule="evenodd" class="s6" d="m290.1 337.6h-14.1v-6.6h14.1zm28.3 0h-14.2v-6.7h14.2zm-56.5 16.5h-14.2v-6.7h14.2z"/>
		<path id="Path 36" fill-rule="evenodd" class="s6" d="m290.1 354.1h-14.1v-6.7h14.1zm28.3 0h-14.2v-6.6h14.2zm-56.5 16.4h-14.2v-6.6h14.2z"/>
		<path id="Path 37" fill-rule="evenodd" class="s6" d="m290.1 370.5h-14.1v-6.6h14.1zm28.3 0h-14.2v-6.7h14.2zm-56.5 16.4h-14.2v-6.6h14.2z"/>
		<path id="Path 38" fill-rule="evenodd" class="s6" d="m290.1 380.3h-14.1v6.6h14.1zm28.3 0h-14.2v6.7h14.2zm-56.5 16.4h-14.2v6.6h14.2z"/>
		<path id="Path 39" fill-rule="evenodd" class="s6" d="m290.1 403.4h-14.1v-6.7h14.1zm28.3 0h-14.2v-6.6h14.2zm-56.5 16.4h-14.2v-6.6h14.2z"/>
		<path id="Path 40" fill-rule="evenodd" class="s6" d="m290.1 419.8h-14.1v-6.6h14.1zm28.3 0h-14.2v-6.7h14.2zm-56.5 16.4h-14.2v-6.6h14.2z"/>
		<path id="Path 41" fill-rule="evenodd" class="s6" d="m290.1 436.2h-14.1v-6.6h14.1zm28.3 0h-14.2v-6.7h14.2zm-56.5 16.5h-14.2v-6.7h14.2z"/>
		<path id="Path 42" fill-rule="evenodd" class="s6" d="m290.1 452.7h-14.1v-6.7h14.1zm28.3 0h-14.2v-6.6h14.2zm-56.5 16.4h-14.2v-6.6h14.2z"/>
		<path id="Path 43" fill-rule="evenodd" class="s6" d="m290.1 462.5h-14.1v6.6h14.1zm28.3 0h-14.2v6.6h14.2zm-56.5 16.5h-14.2v6.6h14.2z"/>
		<path id="Path 44" fill-rule="evenodd" class="s6" d="m290.1 485.5h-14.1v-6.6h14.1zm28.3 0h-14.2v-6.7h14.2zm-56.5 14.7h-14.2v-6.6h14.2z"/>
		<path id="Path 45" fill-rule="evenodd" class="s6" d="m290.1 500.3h-14.1v-6.7h14.1zm28.3 0h-14.2v-6.6h14.2zm-56.5 16.4h-14.2v-6.6h14.2z"/>
		<path id="Path 46" fill-rule="evenodd" class="s6" d="m290.1 510h-14.1v6.7h14.1zm28.3 0h-14.2v6.6h14.2z"/>
		<path id="Path 47" class="s5" d="m438.5 346.1v233h-97.8v-233h7.2v-8h3.3v-2.3h9.9v2.3h10.7v-2.3h9.9v2.3h3.1v8h25.4v-7.9h22v7.9z"/>
		<path id="Path 48" fill-rule="evenodd" class="s6" d="m369.2 372.4h-14.2v-6.6h14.2zm28.2 0h-14.1v-6.6h14.1zm28.3 0h-14.2v-6.7h14.2zm-56.5 16.5h-14.2v-6.7h14.2z"/>
		<path id="Path 49" fill-rule="evenodd" class="s6" d="m397.4 388.9h-14.1v-6.7h14.1zm28.3 0h-14.2v-6.6h14.2zm-56.5 16.4h-14.2v-6.6h14.2z"/>
		<path id="Path 50" fill-rule="evenodd" class="s6" d="m397.4 405.3h-14.1v-6.6h14.1zm28.3 0h-14.2v-6.7h14.2zm-56.5 16.5h-14.2v-6.7h14.2z"/>
		<path id="Path 51" fill-rule="evenodd" class="s6" d="m397.4 421.7h-14.1v-6.6h14.1zm28.3 0h-14.2v-6.6h14.2zm-56.5 16.4h-14.2v-6.6h14.2z"/>
		<path id="Path 52" fill-rule="evenodd" class="s6" d="m397.4 431.5h-14.1v6.7h14.1zm28.3 0h-14.2v6.6h14.2zm-56.5 16.4h-14.2v6.7h14.2z"/>
		<path id="Path 53" fill-rule="evenodd" class="s6" d="m397.4 454.6h-14.1v-6.6h14.1zm28.3 0h-14.2v-6.7h14.2zm-56.5 16.4h-14.2v-6.6h14.2z"/>
		<path id="Path 54" fill-rule="evenodd" class="s6" d="m397.4 471h-14.1v-6.6h14.1zm28.3 0h-14.2v-6.6h14.2zm-56.5 16.4h-14.2v-6.6h14.2z"/>
		<path id="Path 55" fill-rule="evenodd" class="s6" d="m397.4 480.8h-14.1v6.7h14.1zm28.3 0h-14.2v6.6h14.2zm-56.5 16.4h-14.2v6.7h14.2z"/>
		<path id="Path 56" fill-rule="evenodd" class="s6" d="m397.4 503.9h-14.1v-6.6h14.1zm28.3 0h-14.2v-6.7h14.2zm-56.5 16.4h-14.2v-6.6h14.2z"/>
		<path id="Path 57" fill-rule="evenodd" class="s6" d="m397.4 520.3h-14.1v-6.6h14.1zm28.3 0h-14.2v-6.6h14.2zm-56.5 16.4h-14.2v-6.6h14.2z"/>
		<path id="Path 58" fill-rule="evenodd" class="s6" d="m397.4 530.1h-14.1v6.7h14.1zm28.3 0h-14.2v6.6h14.2zm-56.5 16.5h-14.2v6.6h14.2z"/>
		<path id="Path 59" fill-rule="evenodd" class="s6" d="m397.4 546.6h-14.1v6.6h14.1zm28.3 0h-14.2v6.7h14.2z"/>
		<path id="Path 60" fill-rule="evenodd" class="s4" d="m197.9 635.2h49.2c1.9 0 3.4-1.5 3.4-3.4v-18.4c0-1.9-1.5-3.4-3.4-3.4h-49.2c-1.9 0-3.4 1.5-3.4 3.4v18.4c0 1.9 1.5 3.4 3.4 3.4zm-59.8 0h49.1c1.9 0 3.4-1.5 3.4-3.4v-18.4c0-1.9-1.5-3.4-3.4-3.4h-49.1c-1.9 0-3.4 1.5-3.4 3.4v18.4c0 1.9 1.5 3.4 3.4 3.4zm31.8 28.1h49.2c1.9 0 3.4-1.5 3.4-3.4v-18.4c0-1.8-1.5-3.4-3.4-3.4h-49.2c-1.9 0-3.4 1.6-3.4 3.4v18.4c0 1.9 1.5 3.4 3.4 3.4zm635-453.2h49.2c1.9 0 3.4-1.5 3.4-3.4v-18.4c0-1.9-1.5-3.4-3.4-3.4h-49.2c-1.8 0-3.4 1.5-3.4 3.4v18.4c0 1.9 1.6 3.4 3.4 3.4z"/>
		<path id="Path 61" fill-rule="evenodd" class="s4" d="m745.1 210.1h49.2c1.8 0 3.4-1.5 3.4-3.4v-18.4c0-1.9-1.6-3.4-3.4-3.4h-49.2c-1.9 0-3.4 1.5-3.4 3.4v18.4c0 1.9 1.5 3.4 3.4 3.4zm31.9 28.1h49.1c1.9 0 3.4-1.5 3.4-3.4v-18.4c0-1.9-1.5-3.4-3.4-3.4h-49.1c-1.9 0-3.4 1.5-3.4 3.4v18.4c0 1.9 1.5 3.4 3.4 3.4zm5.3 287.2h49.2c1.8 0 3.4-1.6 3.4-3.4v-18.4c0-1.9-1.6-3.4-3.4-3.4h-49.2c-1.9 0-3.4 1.5-3.4 3.4v18.4c0 1.8 1.5 3.4 3.4 3.4z"/>
		<path id="Path 62" fill-rule="evenodd" class="s4" d="m719 522v-18.4c0-1.9 1.5-3.4 3.4-3.4h49.2c1.9 0 3.4 1.5 3.4 3.4v18.4c0 1.8-1.5 3.4-3.4 3.4h-49.2c-1.9 0-3.4-1.6-3.4-3.4zm31.9 28.1v-18.4c0-1.9 1.5-3.4 3.4-3.4h49.2c1.8 0 3.4 1.5 3.4 3.4v18.4c0 1.9-1.6 3.4-3.4 3.4h-49.2c-1.9 0-3.4-1.5-3.4-3.4z"/>
		<path id="Path 63" class="s2" d="m706.5 232.2c0 29.9-24.2 54.1-54 54.1-29.9 0-54.1-24.2-54.1-54.1 0-29.8 24.2-54 54.1-54 29.8 0 54 24.2 54 54z"/>
		<path id="Path 64" class="s6" d="m652.5 282.1c-27.5 0-49.9-22.4-49.9-49.9 0-27.4 22.4-49.8 49.9-49.8 27.4 0 49.8 22.4 49.8 49.8 0 27.5-22.4 49.9-49.8 49.9z"/>
		<path id="Path 65" fill-rule="evenodd" class="s2" d="m652.6 197.4h-1.9v-10.4h1.9zm0 79.9h-1.9v-10.4h1.9zm-35.7-46.1v1.9h-10.4v-1.9zm79.9 0v1.9h-10.4v-1.9z"/>
		<path id="Path 66" fill-rule="evenodd" class="s2" d="m684.2 200.9l-1.3-1.4-7.3 7.4 1.3 1.3zm-56.5 56.5l-1.3-1.3-7.4 7.3 1.4 1.3z"/>
		<path id="Path 67" fill-rule="evenodd" class="s2" d="m627.7 206.9l-1.3 1.3-7.3-7.3 1.3-1.4zm56.5 56.5l-1.3 1.4-7.4-7.4 1.4-1.3z"/>
		<path id="Path 68" class="s2" d="m668.3 239.3l-17.6-6.9 0.6-1.5 17.6 6.9z"/>
		<path id="Path 69" class="s2" d="m652.5 232.9h-29.1v-1.6h27.5v-22.5h1.6z"/>
		<path id="Path 70" class="s7" d="m434.8 455.8l-5.3 0.5-5.1 0.4q-5 0.4-10 0.6c-6.6 0.4-13.3 0.4-20 0.5-13.3-0.1-26.8-0.7-40.7-2.5-13.9-1.7-27.9-4.3-43.3-10-7.7-2.9-16-6.6-24.6-13.6-2.1-1.8-4.3-3.8-6.4-6.1q-1.6-1.7-3.1-3.6l-1.4-2.1-0.4-0.5-0.7-1c-0.7-1.2-1.4-2.3-2-3.5-2.2-4.6-3-8.7-3.2-11.9-0.3-3.3-0.1-5.9 0.1-8.1 0.6-4.4 1.6-7.4 2.5-10.1 1.9-5.2 3.9-9 5.9-12.5 2-3.5 4.1-6.6 6.1-9.6 4.1-5.9 8.3-11.3 12.5-16.5 4.3-5.2 8.7-10.2 13-15 4.4-4.9 8.8-9.6 13.4-14.3 4.5-4.6 9-9.2 13.6-13.7q7-6.6 14-13.2c9.5-8.6 19-17.1 29.2-25.2l19.4 18-42.2 61.8c-6.8 10.3-13.6 20.4-19.6 30.6-3.1 5-5.9 10-8.4 14.8-1.2 2.4-2.3 4.8-3.1 6.9-0.9 2.1-1.5 4-1.6 4.8 0 0.3 0.1 0.4 0.4-0.9 0.1-0.6 0.2-1.6 0.1-3.3-0.1-1.7-0.5-4.3-2.1-7.5-0.3-0.8-0.8-1.6-1.3-2.4l-0.4-0.6q0-0.1-0.1-0.2 0-0.1 0.1-0.1c0.1 0 0.2 0.1 0.6 0.2 1.3 0.8 4.7 2.3 8.9 3.5 4.1 1.3 9 2.3 14.2 3.1 5.2 0.7 10.6 1.4 16.2 1.9 11.2 0.8 22.9 1.3 34.6 1.2 5.9 0.1 11.8 0 17.8-0.1l8.8-0.2 4.4-0.1 4.1-0.2z"/>
		<path id="Path 71" class="s8" d="m378 307.6q-5.5 0-11.8-5.7c-5.6-5.2-8.4-10.5-8.3-15.7 0.1-6.5 4.8-10.4 5-10.6 0.4-0.3 1-0.3 1.4 0.1 0.3 0.5 0.3 1.1-0.2 1.4 0 0.1-4.1 3.6-4.2 9.2-0.1 4.6 2.5 9.3 7.6 14.1 4.5 4 8.5 5.7 12.1 5.1 4.5-0.9 6.8-5.5 6.8-5.6 0.3-0.5 0.9-0.7 1.4-0.4 0.5 0.2 0.7 0.8 0.4 1.3-0.1 0.2-2.7 5.6-8.3 6.6q-0.9 0.2-1.9 0.2z"/>
		<path id="Path 72" class="s9" d="m442.5 379.8c0 0-23.4 13-69.2 8.7-10.8-1-20.8 72-17.5 78 7.8 14.1 75.8 11.3 75.8 11.3 0 0 9.6-71.1 10.9-98z"/>
		<path id="Path 73" fill-rule="evenodd" class="s8" d="m494.1 216.8c0 0-15.4-5.5-22.4 3.7-7.1 9.2-1.2 24.4-1.2 24.4zm-23.9 618.1l15.7-103-102.8-37.5-23.6 140.5z"/>
		<path id="Path 74" class="s8" d="m600.5 834.9c-1-67-3.5-105.3 0.4-136.5l-140.4 14.4c6.2 39.7 5.4 84.3 12.4 122.1z"/>
		<g id="&lt;Group&gt;" style="opacity: .2">
			<path id="Path 76" class="s3" d="m581.8 786.9q1.7 0 3.6-0.1v48.1h2.1v-105.5h-2.1v55.2c-16.9 0.7-29.9-3.6-38.8-12.9-15.4-16.1-13.1-41.9-13.1-42.2l-2.2-0.2c-0.1 1.1-2.4 27.1 13.7 43.9 8.7 9.1 21.1 13.7 36.8 13.7z"/>
		</g>
		<g id="&lt;Group&gt;" style="opacity: .2">
			<path id="Path 79" class="s3" d="m373.4 754.6l-0.5-2.1c24.5-5.2 26.1-43 26.1-43.3h2.2c0 1.7-1.7 39.8-27.8 45.4z"/>
		</g>
		<g id="&lt;Group&gt;" style="opacity: .2">
			<path id="Path 82" class="s3" d="m482.7 723.2l-14.1 67-2.1-0.5 1.8-8.6c-4.3-0.6-7.7-2.7-10-6.2-10.4-15.8 2.2-56 2.8-57.7l2 0.7c-0.1 0.3-12.8 40.9-3 55.8 2 3.1 4.9 4.8 8.6 5.2l11.9-56.2z"/>
		</g>
		<path id="Path 84" class="s10" d="m620.8 572.1c-7.1 62.8-10.2 136.8-21.8 149.9-5.5 6.1-17.9 10.1-34.2 12.3q-0.5 0-1 0.1c-68.2 8.6-202.6-14.2-193.5-47 2.8-10.2 9.2-44.1 16.2-85q0.2-1.2 0.4-2.3 1.1-6.2 2.2-12.6c4.9-29.6 10-61.7 14.2-90.4q0.9-6.1 1.7-12 0.2-1.1 0.3-2.2c4.8-34 8-61.5 7.6-71.7-1.2-33.3 71.3-43.5 71.3-43.5l24.1-1.7c0 0 51.1 4.5 81.3 19.8q1.5 0.8 3 1.6c20.8 11.7 29.7 67.3 30.8 120.6 0.5 23-0.5 45.6-2.6 64.1z"/>
		<g id="&lt;Group&gt;" style="opacity: .2">
			<path id="Path 86" class="s9" d="m594.7 585.1c-3.3 41.6-11.5 93.1-29.9 149.2q-0.1 0.2-0.1 0.4l-0.9-0.3-1-0.3c12.1-37 19.8-72 24.6-103.5-11.2 3.7-21.3 5.3-30.9 5.3-21.6 0-40.6-8.1-64-18.1-9.4-4.1-20.2-8.7-32-13.2-37.4-14-63.2-6.8-74-2.2q0.2-1.2 0.4-2.3c11.8-4.7 37.7-11.1 74.3 2.7 11.9 4.4 22.6 9 32.1 13.1 33.6 14.4 58 24.9 94.4 12.5 1-6.3 1.8-12.4 2.5-18.4q-0.3 1.3-0.6 2.5c0 0-24.5 17.2-71.2 0-42.2-15.4-88.4-42.6-129.3-25 4.9-29.6 10-61.7 14.2-90.4 16-5.7 47.3-9.9 93.4 14.2 60.3 31.5 90.5 16.3 97.7 11.4q-0.2-5.8-0.4-10.8c-11.1 3.9-21.1 5.6-30.4 5.6-20.3 0-38-7.8-59.9-17.4-8.9-3.9-18.9-8.4-30-12.6-34.5-13.3-58.4-6.8-68.7-2.4q0.2-1.1 0.3-2.2c11.2-4.5 35.3-10.3 69.1 2.7 11.1 4.3 21.2 8.7 30.1 12.6 31.6 14 54.5 24.1 89.1 11.7l0.3 1c-0.8-16.9-2.3-26.5-2.3-26.8l2-0.3c0.1 0.4 2.6 17.6 3 46.7q0 0.2 0 0.3c0.4 11.8 0.6 33.2-1.9 54.3z"/>
		</g>
		<path id="Path 88" class="s8" d="m548.1 308.6c0 0 5.4 16.1 1.5 17.9-4 1.8-6.2-4.4-6.2-4.4 0 0-0.7 10-7.2 7.8-6.5-2.2-7.8-14.8-7.8-14.8z"/>
		<path id="Path 89" class="s7" d="m535.1 371.4c-2.6 6.5-23 23.2-38.4 26.2-16.3 3.1-22.7-14.2-16.3-24.2q1.7-3.5 2.9-7.3c1.2-3.9 2-8.1 2.2-12.5q0.2-2.1 0.1-4.3 0-2.6-0.4-5.3 0-0.1 0-0.2c-0.1-0.7-0.1-1.5-0.3-2.2-0.1-0.6-0.2-1.2-0.3-1.7l-1.2-8.3 9.1-3.8 23.8-9.6 21.8-15c-5.7 19.8-5.3 45.6-3 68.2z"/>
		<path id="Path 90" class="s3" d="m487 421.5q-3.3 0-6.8-0.7c-6.6-1.4-10.9-4.6-12.9-9.7-6.2-15.4 12.2-42.3 13-43.5l1.7 1.2c-0.2 0.2-18.7 27.1-12.9 41.6 1.8 4.3 5.7 7.2 11.5 8.4q3.2 0.6 6.2 0.6c31 0 50.1-49 50.3-49.5l1.9 0.7c-0.8 2.2-19.9 50.9-52 50.9z"/>
		<g id="&lt;Group&gt;" style="opacity: .2">
			<path id="Path 92" class="s3" d="m509.2 342.1c-6.8 3.1-16 4.1-24 1.9q0-0.1 0-0.2c-0.1-0.7-0.1-1.5-0.3-2.2-0.1-0.6-0.2-1.2-0.3-1.7l-1.2-8.3 9.1-3.8 25.5 2.7c1.5 2.6-1.7 8.4-8.8 11.6z"/>
		</g>
		<path id="Path 94" class="s7" d="m559 277.4c14.6-29.9-6-65.6-40.6-65.8-35.2-0.2-58.3 43.7-63.1 74-5.3 33.7 26.8 63.5 60 49.4 22-9.3 29.1-27.6 43.7-57.6z"/>
		<path id="Path 95" class="s8" d="m496.7 208.9c0 0-14.7 1.7-20 6.8-5.3 5 1.3 7 1.3 7 0 0-7.1 4.4-6.1 7.6 2.1 6.7 29-3.6 29-3.6 0 0-11.4 10.8-4.2 12.2 7.1 1.5 21.5-7.5 21.5-7.5 0 0-7.6 16.3 0 16.8 7.7 0.5 12.2-13.2 12.2-13.2 0 0 0 17 7.7 15.9 7.7-1.1 10.7-5.7 10.7-5.7 0 0-19.1 20.8-12.8 29.9 0 0-13.7 11.2-5.6 18.1 8.1 6.8 26.9-4.9 30.9-9.7 4-4.8 18.8-23.6-3.6-55.4-22.4-31.8-61-19.2-61-19.2z"/>
		<path id="Path 96" class="s10" d="m506.5 204.2c0 0 8.8-7.4 37-1.9 28.2 5.4 38.5 36.8 38.5 36.8 0 0 14.6 7.4 9.5 23.6-5.2 16.3-14.6 13.6-14.6 13.6 0 0-5.7 8.7-15.2 3.4 0 0 7.9-53.6-55.2-75.5z"/>
		<path id="Path 97" class="s9" d="m486.5 211c0 0 44.3 9.9 60 34.2 15.7 24.3 9.8 40 9.8 40 0 0 14.6-1 15.1-15.3 0.6-14.2-15-50-45.8-61.5-28.6-10.7-39.1 2.6-39.1 2.6z"/>
		<path id="Path 98" class="s11" d="m490.4 264.1c0 0-5.5 5.2-13.1 6.5-7.6 1.3-8.2 5.2-5.1 9.3 2.6 3.4 5.7 3.6 5.7 3.6 4.8-4.2 8.8-11.4 12.5-19.4z"/>
		<path id="Path 99" fill-rule="evenodd" class="s8" d="m481.8 262.7c0.4-0.4 0.4-1 0-1.4-0.5-0.4-1.1-0.3-1.5 0.1 0 0-3 3.3-6 1.7-3-1.5-2.9-4.3-2.9-4.4 0.1-0.6-0.3-1.1-0.9-1.1-0.5-0.1-1 0.3-1 0.9-0.1 0.2-0.4 4.3 3.9 6.4 0.9 0.5 1.8 0.7 2.6 0.7 3.2-0.1 5.7-2.7 5.8-2.9zm27.2 11.8c0.4-0.4 0.5-1 0.1-1.5-0.3-0.4-1-0.4-1.4-0.1-0.1 0.1-3.5 2.8-6.7 0.7-3.3-2.2-2.9-5.2-2.9-5.3 0.1-0.5-0.3-1.1-0.8-1.2-0.5 0-1.1 0.3-1.2 0.9 0 0.1-0.6 4.3 3.7 7.2 1.3 0.9 2.6 1.2 3.8 1.2 2.3 0 4.3-1.1 5.4-1.9z"/>
		<path id="Path 100" class="s3" d="m479.3 297.3c-1.3 3.6-4.8 5.5-7.8 4.4-2.9-1.1-4.2-4.9-2.8-8.5 1.4-3.6 4.9-5.5 7.8-4.4 2.9 1.1 4.2 4.9 2.8 8.5z"/>
		<path id="Path 101" class="s7" d="m563.7 303.4c-5.6 7-13.9 10.9-21.3 11.6-11 1.1-14.7-9.2-10-18.7 4.2-8.5 15-19.3 25.3-16 10.2 3.2 12.3 15 6 23.1z"/>
		<path id="Path 102" class="s3" d="m541.9 312.5c0 2.5-2.1 4.5-4.6 4.5-2.5 0-4.5-2-4.5-4.5 0-2.5 2-4.5 4.5-4.5 2.5 0 4.6 2 4.6 4.5z"/>
		<path id="Path 103" fill-rule="evenodd" class="s8" d="m474.1 246.8c0.4 0.2 0.9 0.1 1.3-0.2q2.6-2.1 5.2-1.7c2.7 0.3 4.6 2.8 4.6 2.8 0.5 0.6 1.3 0.7 1.9 0.3 0.6-0.5 0.7-1.3 0.3-1.9-0.1-0.1-2.6-3.3-6.5-3.8q-3.6-0.5-7.1 2.2c-0.6 0.5-0.7 1.3-0.2 1.9q0.2 0.3 0.5 0.4zm42.3 18.5q0.3 0.1 0.6 0.1c0.7-0.1 1.3-0.7 1.2-1.4 0-0.2-0.3-4.2-3.2-6.8q-2.8-2.4-7.3-2c-0.7 0.1-1.2 0.7-1.2 1.5 0.1 0.7 0.7 1.2 1.5 1.2q3.3-0.3 5.2 1.3c2.1 1.9 2.4 4.9 2.4 4.9 0 0.6 0.4 1 0.8 1.2z"/>
		<path id="Path 104" fill-rule="evenodd" class="s7" d="m740.8 539.1c-0.3 4.8-1.2 8.4-2.2 11.6-2.1 6.2-4.6 10.6-7 14.7-4.9 7.9-9.9 14.2-15.1 20.1-10.4 11.6-21 21.8-32 31.4-10.9 9.7-22.2 18.8-33.5 27.6-11.5 8.7-22.9 17.1-35.1 25.1l-1.3-1.6c-1.7-13.6-1.8-26.9 1.1-40.6q0-0.2 0-0.3c12.8-13.6 25.5-27.4 37.5-41.2 8.8-10.3 17.4-20.7 24.6-31.1 3.2-4.7 6.2-9.5 8.2-13.5q-0.2-0.3-0.4-0.6c-1.8-2.2-3.8-4.3-5.8-6.5-4.2-4.3-8.7-8.5-13.4-12.6-4.6-4.2-9.6-8.2-14.7-12.1-5-3.9-10.4-7.7-15.7-11.5-5.3-3.8-10.8-7.4-16.4-10.9q-8.3-5.4-16.9-10.5c-5.6-3.5-11.4-6.8-17.2-10.1q-4.3-2.5-8.7-4.8l-4.2-2.4-4.1-2.2 26.2-53.9 5.4 2.6 5.1 2.5q5 2.5 9.9 5.2c6.5 3.6 12.8 7.3 19.2 11.2q9.4 5.8 18.7 12.1 9.2 6.3 18.2 13.1c12 9.1 23.5 19.1 34.6 30.2 5.5 5.6 10.8 11.4 15.9 17.7 2.5 3.2 5.1 6.4 7.4 9.9 1.2 1.6 2.4 3.3 3.6 5.1l1.7 2.7 0.8 1.4q1.5 2.3 2.6 4.7c2.9 6.6 3.3 12.8 3 17.5zm-53.1-2.2q0 0.3 0 0.6c0.3-0.9 0.4-1.6 0.4-1.8 0-0.3-0.2-0.1-0.4 1.2z"/>
		<path id="Path 105" class="s9" d="m558.4 463.4l79.2 51.7c0 0 37.4-40.9 34.1-77.4 0 0-44.9-42.5-79.1-50.3-34.2-7.8-70.2 49.9-34.2 76z"/>
		<g id="&lt;Group&gt;" style="opacity: .2">
			<path id="Path 107" class="s9" d="m558.4 464.4l79.2 51.7c0 0 37.4-40.9 34.1-77.4 0 0-44.9-42.5-79.1-50.3-34.2-7.8-70.2 49.9-34.2 76z"/>
		</g>
		<path id="Path 109" class="s12" d="m330.2 257.2c-14.5-7.1 13.9-64.7 28.4-57.5 0 0 13.8 5.8 26.8 13.2 13 7.4 17.6 28.1 25.7 33 8 5 20.4-2.8 30.5 0.7 5.9 2 13.3 12.1 18.3 20 2.5 4 3.5 8.6 2.8 13.2l7.7 3.8-5.5 11.3-7.7-3.8q-1.4 1.3-2.9 2.4c-2.7 1.8-5.9 3-9.4 3.4-9.3 0.8-21.7 1.1-27-2.4-8.8-5.8-10.2-20.4-19.1-23.8-8.8-3.4-28 5.5-41.8-0.3-13.8-5.8-26.8-13.2-26.8-13.2z"/>
		<g id="&lt;Group&gt;" style="opacity: .5">
			<path id="Path 111" class="s3" d="m330.2 257.2c-14.5-7.1 13.9-64.7 28.4-57.5 0 0 13.8 5.8 26.8 13.2 13 7.4 17.6 28.1 25.7 33 8 5 20.4-2.8 30.5 0.7 5.9 2 13.3 12.1 18.3 20 2.5 4 3.5 8.6 2.8 13.2l7.7 3.8-5.5 11.3-7.7-3.8q-1.4 1.3-2.9 2.4c-2.7 1.8-5.9 3-9.4 3.4-9.3 0.8-21.7 1.1-27-2.4-8.8-5.8-10.2-20.4-19.1-23.8-8.8-3.4-28 5.5-41.8-0.3-13.8-5.8-26.8-13.2-26.8-13.2z"/>
			<g id="&lt;Group&gt;" style="opacity: .1">
				<path id="Path 113" class="s3" d="m454.6 269.9c-7.4-11.6-12.7-16.6-15.1-17.4-3.2-1.2-7.5-0.4-12.1 0.3-2.9 0.5-5.9 1-9 1.1-3.6 0-7.2-0.6-10.6-2.7-4.9-3-8.2-9-11.7-15.3-3.8-6.7-8-14.3-13.8-17.6-9.6-5.4-19.7-10-24-11.9-9.3 7.2-15.8 16.8-19.7 28.1-1.9 5.4-3.7 11.7-4.3 17.9 3.3 1.8 14 7.6 25.1 12.3 6.2 2.6 14.8 1.3 22.3 0.2 7.2-1.1 14-2.1 19.4 0 6.8 2.6 10.2 9 13.2 14.6 2.2 4.1 4.2 7.9 7.1 9.8 2 1.4 9.3 2.6 23 1.3 1.3-0.1 2.7-0.4 4-1q0.4-0.1 0.8-0.4l7.2-14.6c-0.3-1.6-0.9-3.2-1.8-4.7z"/>
			</g>
		</g>
		<path id="Path 116" class="s12" d="m444.9 285.5c-4.7-10.4-22.3-4.1-22.1-16.2 0-0.2-0.4-3.8-5-8.1-2.5-2.4-5.6-4.1-8.8-5.3-24.2-8.3-29.3-37.5-54.6-46.2-7.2 6.8-12.4 15.2-15.8 24.8-1.9 5.4-3.7 11.7-4.3 17.9 3.3 1.8 14 7.6 25.1 12.3 6.2 2.6 14.8 1.3 22.3 0.2 7.2-1.1 14-2.1 19.4 0 6.8 2.6 10.2 9 13.2 14.6 2.2 4.1 4.2 7.9 7.1 9.8 2 1.4 9.3 2.6 23 1.3 1.3-0.1 2.7-0.4 4-1-1.5-0.9-2.7-2.3-3.5-4.1z"/>
		<path id="Path 117" class="s12" d="m424.5 275.4c0 0 7.4 3.6 17 2.1 9.6-1.4 8 5.5 13.8 8.1 5.8 2.7 10.4 1.4 11.9 4.5 3.8 5.3 6.2 9.6 4.3 11.6-5.5-1.3-14.8-11.3-18.2-11-5.5 0.4-4.5 0.2-10.1 0-5.7-0.1-18.7-15.3-18.7-15.3z"/>
		<path id="Path 118" fill-rule="evenodd" class="s7" d="m398.3 282.8c0 0 18.3 4.6 22.2-1.4 4-6-3-8.3-6.7-11.8-3.8-3.5-15.5-11.2-17.5-7-2 4.3 4.6 9.2 4.6 9.2 0 0-9.1-4.4-18.1 0-9 4.3 15.5 11 15.5 11zm208.1 368.9c0 0-19 7.1-20.2 12.2-1.3 5.1 18.9 0.6 18.9 0.6 0 0-11.1 4.5-12.7 8.3-1.7 3.8 13.7 2 13.7 2 0 0-7.2 3.3-5.8 7.5 1.5 4.1 4.9 4.3 9.4 3.5 4.5-0.8 7.8-4.1 8.7-6.5 0.9-2.3-2.2-5.8-2.2-5.8 0 0 5.4-6.5 4.5-9.2-0.9-2.8-3.6-3.7-3.6-3.7 0 0 3.1-2 2.8-5.7-0.2-3.7-2.6-5-2.6-5 0 0 0.2-7.1-0.4-11-0.6-3.8-8-3.9-12.6-4.4-4.7-0.6-8 9.9-13.5 14 0 0-2.3 3.3 2 4.1 4.4 0.9 10-5.7 11.6-6.3 1.6-0.5 2 5.4 2 5.4z"/>
		<g id="&lt;Group&gt;" style="opacity: .2">
			<path id="Path 120" class="s7" d="m621.2 666.3q0 0-0.1 0c-0.2 0-0.4-0.3-0.3-0.6 0.7-3.6-2.9-5.6-2.9-5.6q-0.3-0.1-0.3-0.4 0-0.3 0.2-0.4c0 0 3-2.1 3-4.5 0-3.5-3.2-4.9-3.2-4.9q-0.2-0.1-0.3-0.4 0-0.2 0.1-0.4c0 0 1.5-1.8 1.1-6-0.5-4.3-4-6.7-4-6.7-0.2-0.2-0.3-0.5-0.1-0.7 0.1-0.2 0.4-0.3 0.7-0.1 0.1 0.1 3.8 2.7 4.4 7.4 0.3 3.4-0.5 5.4-1 6.2 1.1 0.7 3.3 2.3 3.3 5.6 0 2.2-1.9 4-2.8 4.8 1.1 0.9 3.4 3 2.7 6.3 0 0.3-0.2 0.4-0.5 0.4z"/>
		</g>
		<path id="Path 122" class="s7" d="m414.4 247.3c0 0-12 10.8-17.1 9.5-5-1.3 7.1-16.7 7.1-16.7 0 0-9.2 7.7-13.3 7.3-4.1-0.3 4.7-13.1 4.7-13.1 0 0-6.2 7.6-9.1 4.3-3-3.2 0.3-8.5 3.1-12.1 2.9-3.6 5.4-5.4 7.9-5.1 2.4 0.3 4 4.7 4 4.7 0 0 8.3-1.7 10.3 0.4 2 2.1 1.6 4.9 1.6 4.9 0 0 3.2-1.7 6.3 0.2 3.2 1.9 1.8 6.7 1.8 6.7 0 0 6.5-0.8 8.5 3.9 1.5 3.6-3.9 5.6-5.7 10-1.7 4.3-6.5 5.2-12.7 8.1 0 0-4 0.5-2.7-3.8 1.3-4.2 6.8-6.6 8.1-7.8 1.2-1.1-2.8-1.4-2.8-1.4z"/>
		<path id="Path 123" class="s2" d="m906.9 858.9h-816.5c-8.4 0-15.2-6.9-15.2-15.2v-0.5c0-8.4 6.8-15.2 15.2-15.2h816.5c8.4 0 15.2 6.8 15.2 15.2v0.5c0 8.3-6.8 15.2-15.2 15.2z"/>
		<path id="Path 124" class="s0" d="m881.4 876.9h-758.5c-10 0-18-8.1-18-18h794.5c0 9.9-8 18-18 18z"/>
		<path id="Path 125" fill-rule="evenodd" class="s12" d="m337.4 645.7c-7 0-12.7-5.7-12.7-12.8 0-7 5.7-12.8 12.7-12.8 7.1 0 12.8 5.8 12.8 12.8 0 7.1-5.7 12.8-12.8 12.8zm0-24.1c-6.2 0-11.2 5.1-11.2 11.3 0 6.3 5 11.3 11.2 11.3 6.3 0 11.3-5 11.3-11.3 0-6.2-5-11.3-11.3-11.3z"/>
		<g id="&lt;Group&gt;" style="opacity: .5">
			<path id="Path 127" fill-rule="evenodd" class="s3" d="m337.4 645.7c-7 0-12.7-5.7-12.7-12.8 0-7 5.7-12.8 12.7-12.8 7.1 0 12.8 5.8 12.8 12.8 0 7.1-5.7 12.8-12.8 12.8zm0-24.1c-6.2 0-11.2 5.1-11.2 11.3 0 6.3 5 11.3 11.2 11.3 6.3 0 11.3-5 11.3-11.3 0-6.2-5-11.3-11.3-11.3z"/>
		</g>
		<path id="Path 129" fill-rule="evenodd" class="s12" d="m607.7 349.3c-7.1 0-12.8-5.8-12.8-12.8 0-7.1 5.7-12.8 12.8-12.8 7 0 12.8 5.7 12.8 12.8 0 7-5.8 12.8-12.8 12.8zm0-24.1c-6.2 0-11.3 5.1-11.3 11.3 0 6.2 5.1 11.3 11.3 11.3 6.2 0 11.3-5.1 11.3-11.3 0-6.2-5.1-11.3-11.3-11.3z"/>
		<g id="&lt;Group&gt;" style="opacity: .5">
			<path id="Path 131" fill-rule="evenodd" class="s3" d="m607.7 349.3c-7.1 0-12.8-5.8-12.8-12.8 0-7.1 5.7-12.8 12.8-12.8 7 0 12.8 5.7 12.8 12.8 0 7-5.8 12.8-12.8 12.8zm0-24.1c-6.2 0-11.3 5.1-11.3 11.3 0 6.2 5.1 11.3 11.3 11.3 6.2 0 11.3-5.1 11.3-11.3 0-6.2-5.1-11.3-11.3-11.3z"/>
		</g>
		<path id="Path 133" class="s10" d="m765.1 800l2.4 20.5 0.2 1.3c0.4 3.8 3.7 6.7 7.6 6.7h51c3.9 0 7.1-2.9 7.6-6.7l0.2-1.7 0.2-1.5 0.6-5.3 0.1-1.6 0.2-1 0.1-1.4 1.4-12.2 0.2-1.3 2.7-24.1 0.2-1.4 1.3-11.2c0-4-80.9-4-80.9 0l1 8 0.1 1.3 1.8 14.7 0.1 1.2 1.2 9.6 0.1 1.4 0.4 3.5z"/>
		<path id="Path 134" class="s8" d="m836.1 760.6c0 1.1-16.5 1.9-36.9 1.9-20.4 0-36.9-0.8-36.9-1.9 0-1 16.5-1.9 36.9-1.9 20.4 0 36.9 0.9 36.9 1.9z"/>
		<path id="Path 135" class="s12" d="m801.6 729.5c0 0-11.3 1.8-26.6-16.4l10.4 1-15-7.1c-15.8-23.7-12.6-64.4-12.6-64.4 0 0 11.6 9.7 22.4 25.4l2.7 14.6 1.4-8.3c8.3 13.8 18.4 36.3 17.3 55.2z"/>
		<path id="Path 136" class="s12" d="m800.2 685.8c0 0 11.4-0.9 22.1-22l-9.8 3.2 13-10.3c9.9-26.6-2.5-65.6-2.5-65.6 0 0-9.1 12.1-16 29.9l0.7 14.8-3.3-7.7c-4.9 15.2-9.5 39.5-4.2 57.7z"/>
		<path id="Path 137" class="s12" d="m800.6 748.8c0 0 11.1 2.8 27.9-14l-10.4 0.1 15.6-5.8c17.8-22.2 18.2-63.1 18.2-63.1 0 0-12.5 8.7-24.6 23.4l-4 14.3-0.7-8.3c-9.4 12.9-21.4 34.5-22 53.4z"/>
		<g id="&lt;Group&gt;" style="opacity: .5">
			<path id="Path 139" class="s13" d="m801.6 729.5c0 0-11.3 1.8-26.6-16.4l10.4 1-15-7.1c-15.8-23.7-12.6-64.4-12.6-64.4 0 0 11.6 9.7 22.4 25.4l2.7 14.6 1.4-8.3c8.3 13.8 18.4 36.3 17.3 55.2z"/>
		</g>
		<g id="&lt;Group&gt;" style="opacity: .5">
			<path id="Path 142" class="s13" d="m800.2 685.8c0 0 11.4-0.9 22.1-22l-9.8 3.2 13-10.3c9.9-26.6-2.5-65.6-2.5-65.6 0 0-9.1 12.1-16 29.9l0.7 14.8-3.3-7.7c-4.9 15.2-9.5 39.5-4.2 57.7z"/>
		</g>
		<g id="&lt;Group&gt;" style="opacity: .5">
			<path id="Path 145" class="s13" d="m800.6 748.8c0 0 11.1 2.8 27.9-14l-10.4 0.1 15.6-5.8c17.8-22.2 18.2-63.1 18.2-63.1 0 0-12.5 8.7-24.6 23.4l-4 14.3-0.7-8.3c-9.4 12.9-21.4 34.5-22 53.4z"/>
		</g>
		<path id="Path 147" fill-rule="evenodd" class="s9" d="m797.6 761h3.4c5.4-38.3 2-70.8-1.9-91.6-4.3-23.3-10.1-37-10.3-37.6-0.4-0.8-1.3-1.2-2.2-0.8-0.8 0.3-1.2 1.3-0.9 2.1 0.1 0.2 5.9 13.9 10.2 36.9 3.8 20.6 7.2 52.9 1.7 91zm-610.2 67.2h68.3c5 0 9.8-2.1 12.9-5.9 9.1-11.2 14.3-25.7 13.5-41.5-1.5-30.4-25.9-55.3-56.3-57.3-35.4-2.5-64.9 25.5-64.9 60.5 0 14.5 5.1 27.8 13.7 38.3 3.1 3.8 7.8 5.9 12.8 5.9z"/>
		<path id="Path 148" class="s10" d="m290.2 754.9h-137.3l32.3-79.1h72.7z"/>
	</g>
</svg>