<svg version="1.2" xmlns="http://www.w3.org/2000/svg" viewBox="0 0 3200 2000" width="3200" height="2000">
	<title>6517</title>
	<style>
		.s0 { fill: #ebf3fa } 
		.s1 { fill: #d9e7fa } 
		.s2 { fill: #dce9fa } 
		.s3 { fill: #dceaf9 } 
		.s4 { opacity: .5;fill: #f8fbff } 
		.s5 { fill: #c7dcf9 } 
		.s6 { fill: #f8fbff } 
		.s7 { fill: #074530 } 
		.s8 { fill: #1d3d81 } 
		.s9 { fill: #233862 } 
		.s10 { fill: #ffb27d } 
		.s11 { fill: #2a4e96 } 
		.s12 { fill: #ed985f } 
		.s13 { fill: #2c3a64 } 
		.s14 { fill: #ffffff } 
		.s15 { fill: #a2c5f9 } 
		.s16 { fill: #afcdfb } 
		.s17 { fill: #d2e4f9 } 
		.s18 { fill: #ed975d } 
		.s19 { fill: #2e3552 } 
		.s20 { fill: #d36d1a } 
		.s21 { fill: #f49540 } 
		.s22 { fill: #ffa255 } 
	</style>
	<g id="Слой 1">
		<g id="&lt;Group&gt;">
			<path id="&lt;Path&gt;" class="s0" d="m370.6 1787c-66.8-178.1-118.2-385.4-110.9-575.1 6.3-146.7 44.2-304 236.4-484.7 377.5-353.2 810.3-12.4 1078.2-249.5 261.8-231.5 751.8-235 970.9-21.3 111.3 111.2 132.8 248.5 92.7 397.2-12.3 45.6-28.7 86.5-48.6 128.8-59.9 125.3-10.6 200.3 64.9 268.9 65.8 60 138 105.5 192.6 180.9 76.8 108.6 57.1 235.1-3.2 355.5z"/>
			<g id="&lt;Group&gt;">
				<path id="&lt;Path&gt;" class="s1" d="m1579.3 1686.1h155.8v-573h-155.8z"/>
				<path id="&lt;Path&gt;" class="s2" d="m1544.3 1686.1h155.8v-573h-155.8z"/>
				<path id="&lt;Path&gt;" class="s1" d="m1700.1 1191h-155.8v-41.4h155.8z"/>
				<path id="&lt;Path&gt;" class="s1" d="m1700.1 1280.6h-155.8v-41.3h155.8z"/>
				<path id="&lt;Path&gt;" class="s1" d="m1700.1 1370.3h-155.8v-41.3h155.8z"/>
				<path id="&lt;Path&gt;" class="s1" d="m1700.1 1460h-155.8v-41.3h155.8z"/>
				<path id="&lt;Path&gt;" class="s1" d="m1700.1 1549.7h-155.8v-41.3h155.8z"/>
				<path id="&lt;Path&gt;" class="s1" d="m1700.1 1639.4h-155.8v-41.3h155.8z"/>
				<path id="&lt;Path&gt;" class="s1" d="m1330.1 1686.1h155.9v-507.2h-155.9z"/>
				<path id="&lt;Path&gt;" class="s2" d="m1295.1 1686.1h155.9v-507.2h-155.9z"/>
				<path id="&lt;Path&gt;" class="s1" d="m1450.9 1261h-155.8v-35.5h155.8z"/>
				<path id="&lt;Path&gt;" class="s1" d="m1450.9 1338h-155.8v-35.5h155.8z"/>
				<path id="&lt;Path&gt;" class="s1" d="m1450.9 1415h-155.8v-35.5h155.8z"/>
				<path id="&lt;Path&gt;" class="s1" d="m1450.9 1492h-155.8v-35.5h155.8z"/>
				<path id="&lt;Path&gt;" class="s1" d="m1450.9 1569h-155.8v-35.5h155.8z"/>
				<path id="&lt;Path&gt;" class="s1" d="m1450.9 1646h-155.8v-35.5h155.8z"/>
				<path id="&lt;Path&gt;" class="s3" d="m1819.4 1754h-65.2v-89.9h65.2z"/>
				<path id="&lt;Path&gt;" class="s2" d="m2843.6 1787.7c60.3-120.4 80-246.9 3.2-355.5-54.6-75.4-126.7-120.9-192.5-180.8h-142.8v-155.5h-98.7v101h-22.6v-120.6h-98.6v226h-124.9v131.8h-46.6v33.2h-107.1v-57.2h-61.5v-155.3h-76v286.7h-76v245.9z"/>
				<path id="&lt;Path&gt;" class="s1" d="m2390.3 1114.6h-98.8v-23h98.7z"/>
				<path id="&lt;Path&gt;" class="s1" d="m2390.3 1157.9h-98.8v-23.1h98.7z"/>
				<path id="&lt;Path&gt;" class="s1" d="m2390.3 1196.8h-98.8v-23h98.7z"/>
				<path id="&lt;Path&gt;" class="s1" d="m2511.4 1196.8h-98.7v-23h98.7z"/>
				<path id="&lt;Path&gt;" class="s1" d="m2511.4 1157.9h-98.7v-23.1h98.7z"/>
				<path id="&lt;Path&gt;" class="s1" d="m2511.4 1119h-98.7v-23h98.7z"/>
				<path id="&lt;Path&gt;" class="s1" d="m2511.5 1234.5h-220v-23h220z"/>
				<path id="&lt;Path&gt;" class="s1" d="m2511.5 1272.2h-220v-23h220z"/>
				<path id="&lt;Path&gt;" class="s1" d="m1952.2 1290.3h-76.7v-35.5h76.7z"/>
				<path id="&lt;Path&gt;" class="s1" d="m1952.2 1343.2h-76.7v-35.5h76.7z"/>
				<path id="&lt;Path&gt;" class="s1" d="m1952.2 1396h-76.7v-35.5h76.7z"/>
				<path id="&lt;Path&gt;" class="s1" d="m1952.2 1451.4h-76.7v-35.5h76.7z"/>
				<path id="&lt;Path&gt;" class="s1" d="m1952.2 1505.1h-76.7v-35.5h76.7z"/>
				<path id="&lt;Path&gt;" class="s1" d="m1952.2 1558.8h-76.7v-35.5h76.7z"/>
				<path id="&lt;Path&gt;" class="s1" d="m1952.2 1615h-76.7v-35.6h76.7z"/>
				<path id="&lt;Path&gt;" class="s1" d="m2511.5 1300.7h-220v-14.6h220z"/>
				<path id="&lt;Path&gt;" class="s1" d="m1951.1 1254.8v155.3h28.3v-155.3z"/>
				<path id="&lt;Path&gt;" class="s1" d="m2013 1410.1h56.8v57.2h-56.8z"/>
				<path id="&lt;Path&gt;" class="s1" d="m2511.4 1096v23 92.5 23 16.9h19.6v-153.6q-1.3-0.9-2.6-1.8z"/>
				<path id="&lt;Path&gt;" class="s1" d="m2390.3 1076.3h12v120.5h-12.1z"/>
				<g id="&lt;Group&gt;">
					<g id="&lt;Group&gt;">
						<g id="&lt;Group&gt;">
							<g id="&lt;Group&gt;">
								<path id="&lt;Path&gt;" class="s1" d="m2203.9 1347.3h-16.8v-22.3h16.8z"/>
								<path id="&lt;Path&gt;" class="s1" d="m2235.2 1347.3h-16.8v-22.3h16.8z"/>
								<path id="&lt;Path&gt;" class="s1" d="m2265.7 1347.3h-16.7v-22.3h16.7z"/>
								<path id="&lt;Path&gt;" class="s1" d="m2294.7 1347.3h-16.7v-22.3h16.7z"/>
								<path id="&lt;Path&gt;" class="s1" d="m2324.3 1347.3h-16.7v-22.3h16.7z"/>
							</g>
							<g id="&lt;Group&gt;">
								<path id="&lt;Path&gt;" class="s1" d="m2354.2 1347.3h-16.7v-22.3h16.7z"/>
								<path id="&lt;Path&gt;" class="s1" d="m2385.5 1347.3h-16.8v-22.3h16.8z"/>
								<path id="&lt;Path&gt;" class="s1" d="m2416.1 1347.3h-16.8v-22.3h16.8z"/>
								<path id="&lt;Path&gt;" class="s1" d="m2445.1 1347.3h-16.8v-22.3h16.8z"/>
								<path id="&lt;Path&gt;" class="s1" d="m2474.6 1347.3h-16.7v-22.3h16.7z"/>
							</g>
						</g>
						<g id="&lt;Group&gt;">
							<g id="&lt;Group&gt;">
								<path id="&lt;Path&gt;" class="s1" d="m2505.4 1347.3h-16.7v-22.3h16.7z"/>
								<path id="&lt;Path&gt;" class="s1" d="m2536.7 1347.3h-16.7v-22.3h16.7z"/>
								<path id="&lt;Path&gt;" class="s1" d="m2567.3 1347.3h-16.7v-22.3h16.7z"/>
								<path id="&lt;Path&gt;" class="s1" d="m2596.3 1347.3h-16.7v-22.3h16.7z"/>
								<path id="&lt;Path&gt;" class="s1" d="m2625.9 1347.3h-16.8v-22.3h16.8z"/>
							</g>
							<g id="&lt;Group&gt;">
								<path id="&lt;Path&gt;" class="s1" d="m2655.8 1347.3h-16.8v-22.3h16.8z"/>
							</g>
						</g>
					</g>
					<g id="&lt;Group&gt;">
						<g id="&lt;Group&gt;">
							<g id="&lt;Group&gt;">
								<path id="&lt;Path&gt;" class="s1" d="m2203.9 1386.5h-16.8v-22.2h16.8z"/>
								<path id="&lt;Path&gt;" class="s1" d="m2235.2 1386.5h-16.8v-22.2h16.8z"/>
								<path id="&lt;Path&gt;" class="s1" d="m2265.7 1386.5h-16.7v-22.2h16.7z"/>
								<path id="&lt;Path&gt;" class="s1" d="m2294.7 1386.5h-16.7v-22.2h16.7z"/>
								<path id="&lt;Path&gt;" class="s1" d="m2324.3 1386.5h-16.7v-22.2h16.7z"/>
							</g>
							<g id="&lt;Group&gt;">
								<path id="&lt;Path&gt;" class="s1" d="m2354.2 1386.5h-16.7v-22.2h16.7z"/>
								<path id="&lt;Path&gt;" class="s1" d="m2385.5 1386.5h-16.8v-22.2h16.8z"/>
								<path id="&lt;Path&gt;" class="s1" d="m2416.1 1386.5h-16.8v-22.2h16.8z"/>
								<path id="&lt;Path&gt;" class="s1" d="m2445.1 1386.5h-16.8v-22.2h16.8z"/>
								<path id="&lt;Path&gt;" class="s1" d="m2474.6 1386.5h-16.7v-22.2h16.7z"/>
							</g>
						</g>
						<g id="&lt;Group&gt;">
							<g id="&lt;Group&gt;">
								<path id="&lt;Path&gt;" class="s1" d="m2505.4 1386.5h-16.7v-22.2h16.7z"/>
								<path id="&lt;Path&gt;" class="s1" d="m2536.7 1386.5h-16.7v-22.2h16.7z"/>
								<path id="&lt;Path&gt;" class="s1" d="m2567.3 1386.5h-16.7v-22.2h16.7z"/>
								<path id="&lt;Path&gt;" class="s1" d="m2596.3 1386.5h-16.7v-22.2h16.7z"/>
								<path id="&lt;Path&gt;" class="s1" d="m2625.9 1386.5h-16.8v-22.2h16.8z"/>
							</g>
							<g id="&lt;Group&gt;">
								<path id="&lt;Path&gt;" class="s1" d="m2655.8 1386.5h-16.8v-22.2h16.8z"/>
							</g>
						</g>
					</g>
					<g id="&lt;Group&gt;">
						<g id="&lt;Group&gt;">
							<g id="&lt;Group&gt;">
								<path id="&lt;Path&gt;" class="s1" d="m2203.9 1425.2h-16.8v-22.2h16.8z"/>
								<path id="&lt;Path&gt;" class="s1" d="m2235.2 1425.2h-16.8v-22.2h16.8z"/>
								<path id="&lt;Path&gt;" class="s1" d="m2265.7 1425.2h-16.7v-22.2h16.7z"/>
								<path id="&lt;Path&gt;" class="s1" d="m2294.7 1425.2h-16.7v-22.2h16.7z"/>
								<path id="&lt;Path&gt;" class="s1" d="m2324.3 1425.2h-16.7v-22.2h16.7z"/>
							</g>
							<g id="&lt;Group&gt;">
								<path id="&lt;Path&gt;" class="s1" d="m2354.2 1425.2h-16.7v-22.2h16.7z"/>
								<path id="&lt;Path&gt;" class="s1" d="m2385.5 1425.2h-16.8v-22.2h16.8z"/>
								<path id="&lt;Path&gt;" class="s1" d="m2416.1 1425.2h-16.8v-22.2h16.8z"/>
								<path id="&lt;Path&gt;" class="s1" d="m2445.1 1425.2h-16.8v-22.2h16.8z"/>
								<path id="&lt;Path&gt;" class="s1" d="m2474.6 1425.2h-16.7v-22.2h16.7z"/>
							</g>
						</g>
						<g id="&lt;Group&gt;">
							<g id="&lt;Group&gt;">
								<path id="&lt;Path&gt;" class="s1" d="m2505.4 1425.2h-16.7v-22.2h16.7z"/>
								<path id="&lt;Path&gt;" class="s1" d="m2536.7 1425.2h-16.7v-22.2h16.7z"/>
								<path id="&lt;Path&gt;" class="s1" d="m2567.3 1425.2h-16.7v-22.2h16.7z"/>
								<path id="&lt;Path&gt;" class="s1" d="m2596.3 1425.2h-16.7v-22.2h16.7z"/>
								<path id="&lt;Path&gt;" class="s1" d="m2625.9 1425.2h-16.8v-22.2h16.8z"/>
							</g>
							<g id="&lt;Group&gt;">
								<path id="&lt;Path&gt;" class="s1" d="m2655.8 1425.2h-16.8v-22.2h16.8z"/>
							</g>
						</g>
					</g>
					<g id="&lt;Group&gt;">
						<g id="&lt;Group&gt;">
							<g id="&lt;Group&gt;">
								<g id="&lt;Group&gt;">
									<path id="&lt;Path&gt;" class="s1" d="m2203.9 1466.4h-16.8v-22.3h16.8z"/>
									<path id="&lt;Path&gt;" class="s1" d="m2235.2 1466.4h-16.8v-22.3h16.8z"/>
									<path id="&lt;Path&gt;" class="s1" d="m2265.7 1466.4h-16.7v-22.3h16.7z"/>
									<path id="&lt;Path&gt;" class="s1" d="m2294.7 1466.4h-16.7v-22.3h16.7z"/>
									<path id="&lt;Path&gt;" class="s1" d="m2324.3 1466.4h-16.7v-22.3h16.7z"/>
								</g>
								<g id="&lt;Group&gt;">
									<path id="&lt;Path&gt;" class="s1" d="m2354.2 1466.4h-16.7v-22.3h16.7z"/>
									<path id="&lt;Path&gt;" class="s1" d="m2385.5 1466.4h-16.8v-22.3h16.8z"/>
									<path id="&lt;Path&gt;" class="s1" d="m2416.1 1466.4h-16.8v-22.3h16.8z"/>
									<path id="&lt;Path&gt;" class="s1" d="m2445.1 1466.4h-16.8v-22.3h16.8z"/>
									<path id="&lt;Path&gt;" class="s1" d="m2474.6 1466.4h-16.7v-22.3h16.7z"/>
								</g>
							</g>
							<g id="&lt;Group&gt;">
								<g id="&lt;Group&gt;">
									<path id="&lt;Path&gt;" class="s1" d="m2505.4 1466.4h-16.7v-22.3h16.7z"/>
									<path id="&lt;Path&gt;" class="s1" d="m2536.7 1466.4h-16.7v-22.3h16.7z"/>
									<path id="&lt;Path&gt;" class="s1" d="m2567.3 1466.4h-16.7v-22.3h16.7z"/>
									<path id="&lt;Path&gt;" class="s1" d="m2596.3 1466.4h-16.7v-22.3h16.7z"/>
									<path id="&lt;Path&gt;" class="s1" d="m2625.9 1466.4h-16.8v-22.3h16.8z"/>
								</g>
								<g id="&lt;Group&gt;">
									<path id="&lt;Path&gt;" class="s1" d="m2655.8 1466.4h-16.8v-22.3h16.8z"/>
								</g>
							</g>
						</g>
						<g id="&lt;Group&gt;">
							<g id="&lt;Group&gt;">
								<g id="&lt;Group&gt;">
									<path id="&lt;Path&gt;" class="s1" d="m2203.9 1505.7h-16.8v-22.3h16.8z"/>
									<path id="&lt;Path&gt;" class="s1" d="m2235.2 1505.7h-16.8v-22.3h16.8z"/>
									<path id="&lt;Path&gt;" class="s1" d="m2265.7 1505.7h-16.7v-22.3h16.7z"/>
									<path id="&lt;Path&gt;" class="s1" d="m2294.7 1505.7h-16.7v-22.3h16.7z"/>
									<path id="&lt;Path&gt;" class="s1" d="m2324.3 1505.7h-16.7v-22.3h16.7z"/>
								</g>
								<g id="&lt;Group&gt;">
									<path id="&lt;Path&gt;" class="s1" d="m2354.2 1505.7h-16.7v-22.3h16.7z"/>
									<path id="&lt;Path&gt;" class="s1" d="m2385.5 1505.7h-16.8v-22.3h16.8z"/>
									<path id="&lt;Path&gt;" class="s1" d="m2416.1 1505.7h-16.8v-22.3h16.8z"/>
									<path id="&lt;Path&gt;" class="s1" d="m2445.1 1505.7h-16.8v-22.3h16.8z"/>
									<path id="&lt;Path&gt;" class="s1" d="m2474.6 1505.7h-16.7v-22.3h16.7z"/>
								</g>
							</g>
							<g id="&lt;Group&gt;">
								<g id="&lt;Group&gt;">
									<path id="&lt;Path&gt;" class="s1" d="m2505.4 1505.7h-16.7v-22.3h16.7z"/>
									<path id="&lt;Path&gt;" class="s1" d="m2536.7 1505.7h-16.7v-22.3h16.7z"/>
									<path id="&lt;Path&gt;" class="s1" d="m2567.3 1505.7h-16.7v-22.3h16.7z"/>
									<path id="&lt;Path&gt;" class="s1" d="m2596.3 1505.7h-16.7v-22.3h16.7z"/>
									<path id="&lt;Path&gt;" class="s1" d="m2625.9 1505.7h-16.8v-22.3h16.8z"/>
								</g>
								<g id="&lt;Group&gt;">
									<path id="&lt;Path&gt;" class="s1" d="m2655.8 1505.7h-16.8v-22.3h16.8z"/>
								</g>
							</g>
						</g>
						<g id="&lt;Group&gt;">
							<g id="&lt;Group&gt;">
								<g id="&lt;Group&gt;">
									<path id="&lt;Path&gt;" class="s1" d="m2203.9 1544.4h-16.8v-22.3h16.8z"/>
									<path id="&lt;Path&gt;" class="s1" d="m2235.2 1544.4h-16.8v-22.3h16.8z"/>
									<path id="&lt;Path&gt;" class="s1" d="m2265.7 1544.4h-16.7v-22.3h16.7z"/>
									<path id="&lt;Path&gt;" class="s1" d="m2294.7 1544.4h-16.7v-22.3h16.7z"/>
									<path id="&lt;Path&gt;" class="s1" d="m2324.3 1544.4h-16.7v-22.3h16.7z"/>
								</g>
								<g id="&lt;Group&gt;">
									<path id="&lt;Path&gt;" class="s1" d="m2354.2 1544.4h-16.7v-22.3h16.7z"/>
									<path id="&lt;Path&gt;" class="s1" d="m2385.5 1544.4h-16.8v-22.3h16.8z"/>
									<path id="&lt;Path&gt;" class="s1" d="m2416.1 1544.4h-16.8v-22.3h16.8z"/>
									<path id="&lt;Path&gt;" class="s1" d="m2445.1 1544.4h-16.8v-22.3h16.8z"/>
									<path id="&lt;Path&gt;" class="s1" d="m2474.6 1544.4h-16.7v-22.3h16.7z"/>
								</g>
							</g>
							<g id="&lt;Group&gt;">
								<g id="&lt;Group&gt;">
									<path id="&lt;Path&gt;" class="s1" d="m2505.4 1544.4h-16.7v-22.3h16.7z"/>
									<path id="&lt;Path&gt;" class="s1" d="m2536.7 1544.4h-16.7v-22.3h16.7z"/>
									<path id="&lt;Path&gt;" class="s1" d="m2567.3 1544.4h-16.7v-22.3h16.7z"/>
									<path id="&lt;Path&gt;" class="s1" d="m2596.3 1544.4h-16.7v-22.3h16.7z"/>
									<path id="&lt;Path&gt;" class="s1" d="m2625.9 1544.4h-16.8v-22.3h16.8z"/>
								</g>
								<g id="&lt;Group&gt;">
									<path id="&lt;Path&gt;" class="s1" d="m2655.8 1544.4h-16.8v-22.3h16.8z"/>
								</g>
							</g>
						</g>
					</g>
				</g>
				<path id="&lt;Path&gt;" class="s1" d="m2457.6 1789.4h-387.8v-197.5h387.8z"/>
				<path id="&lt;Path&gt;" class="s1" d="m2163.6 1789.4h-387.8v-98.8h387.8z"/>
				<path id="&lt;Path&gt;" class="s2" d="m2168 1651.6h-72.3v-36.6h72.3z"/>
				<path id="&lt;Path&gt;" class="s2" d="m2260.7 1651.6h-72.2v-36.6h72.2z"/>
				<path id="&lt;Path&gt;" class="s2" d="m2351.7 1651.6h-72.3v-36.6h72.3z"/>
				<path id="&lt;Path&gt;" class="s2" d="m2440.9 1651.6h-72.2v-36.6h72.2z"/>
				<path id="&lt;Path&gt;" class="s3" d="m1892.8 1254.8h-2v-15.5h2z"/>
				<path id="&lt;Path&gt;" class="s3" d="m1965.2 1254.8h-2v-15.5h2z"/>
				<path id="&lt;Path&gt;" class="s2" d="m1566.9 1787.8h266.3v-169.1h-266.3z"/>
				<path id="&lt;Path&gt;" class="s1" d="m1566.9 1651.6h266.3v-55h-266.3z"/>
				<g id="&lt;Group&gt;">
					<g id="&lt;Group&gt;">
						<g id="&lt;Group&gt;">
							<path id="&lt;Path&gt;" class="s1" d="m1598.7 1686.1h-13.6v-18.2h13.6z"/>
							<path id="&lt;Path&gt;" class="s1" d="m1624.3 1686.1h-13.7v-18.2h13.7z"/>
							<path id="&lt;Path&gt;" class="s1" d="m1649.3 1686.1h-13.7v-18.2h13.7z"/>
							<path id="&lt;Path&gt;" class="s1" d="m1673 1686.1h-13.7v-18.2h13.7z"/>
							<path id="&lt;Path&gt;" class="s1" d="m1697.2 1686.1h-13.7v-18.2h13.7z"/>
						</g>
						<g id="&lt;Group&gt;">
							<path id="&lt;Path&gt;" class="s1" d="m1721.6 1686.1h-13.7v-18.2h13.7z"/>
							<path id="&lt;Path&gt;" class="s1" d="m1747.2 1686.1h-13.7v-18.2h13.7z"/>
							<path id="&lt;Path&gt;" class="s1" d="m1772.2 1686.1h-13.7v-18.2h13.7z"/>
							<path id="&lt;Path&gt;" class="s1" d="m1795.9 1686.1h-13.7v-18.2h13.7z"/>
							<path id="&lt;Path&gt;" class="s1" d="m1820 1686.1h-13.6v-18.2h13.6z"/>
						</g>
					</g>
					<g id="&lt;Group&gt;">
						<g id="&lt;Group&gt;">
							<path id="&lt;Path&gt;" class="s1" d="m1598.7 1718.2h-13.6v-18.2h13.6z"/>
							<path id="&lt;Path&gt;" class="s1" d="m1624.3 1718.2h-13.7v-18.2h13.7z"/>
							<path id="&lt;Path&gt;" class="s1" d="m1649.3 1718.2h-13.7v-18.2h13.7z"/>
							<path id="&lt;Path&gt;" class="s1" d="m1673 1718.2h-13.7v-18.2h13.7z"/>
							<path id="&lt;Path&gt;" class="s1" d="m1697.2 1718.2h-13.7v-18.2h13.7z"/>
						</g>
						<g id="&lt;Group&gt;">
							<path id="&lt;Path&gt;" class="s1" d="m1721.6 1718.2h-13.7v-18.2h13.7z"/>
							<path id="&lt;Path&gt;" class="s1" d="m1747.2 1718.2h-13.7v-18.2h13.7z"/>
							<path id="&lt;Path&gt;" class="s1" d="m1772.2 1718.2h-13.7v-18.2h13.7z"/>
							<path id="&lt;Path&gt;" class="s1" d="m1795.9 1718.2h-13.7v-18.2h13.7z"/>
							<path id="&lt;Path&gt;" class="s1" d="m1820 1718.2h-13.6v-18.2h13.6z"/>
						</g>
					</g>
					<g id="&lt;Group&gt;">
						<g id="&lt;Group&gt;">
							<path id="&lt;Path&gt;" class="s1" d="m1598.7 1749.8h-13.6v-18.2h13.6z"/>
							<path id="&lt;Path&gt;" class="s1" d="m1624.3 1749.8h-13.7v-18.2h13.7z"/>
							<path id="&lt;Path&gt;" class="s1" d="m1649.3 1749.8h-13.7v-18.2h13.7z"/>
							<path id="&lt;Path&gt;" class="s1" d="m1673 1749.8h-13.7v-18.2h13.7z"/>
							<path id="&lt;Path&gt;" class="s1" d="m1697.2 1749.8h-13.7v-18.2h13.7z"/>
						</g>
						<g id="&lt;Group&gt;">
							<path id="&lt;Path&gt;" class="s1" d="m1721.6 1749.8h-13.7v-18.2h13.7z"/>
							<path id="&lt;Path&gt;" class="s1" d="m1747.2 1749.8h-13.7v-18.2h13.7z"/>
							<path id="&lt;Path&gt;" class="s1" d="m1772.2 1749.8h-13.7v-18.2h13.7z"/>
							<path id="&lt;Path&gt;" class="s1" d="m1795.9 1749.8h-13.7v-18.2h13.7z"/>
							<path id="&lt;Path&gt;" class="s1" d="m1820 1749.8h-13.6v-18.2h13.6z"/>
						</g>
					</g>
				</g>
				<path id="&lt;Path&gt;" class="s2" d="m1299.9 1787.8h266.3v-169.1h-266.3z"/>
				<path id="&lt;Path&gt;" class="s1" d="m1299.9 1651.6h266.3v-55h-266.3z"/>
				<g id="&lt;Group&gt;">
					<g id="&lt;Group&gt;">
						<g id="&lt;Group&gt;">
							<path id="&lt;Path&gt;" class="s1" d="m1331.7 1686.1h-13.6v-18.2h13.6z"/>
							<path id="&lt;Path&gt;" class="s1" d="m1357.3 1686.1h-13.7v-18.2h13.7z"/>
							<path id="&lt;Path&gt;" class="s1" d="m1382.3 1686.1h-13.7v-18.2h13.7z"/>
							<path id="&lt;Path&gt;" class="s1" d="m1406 1686.1h-13.7v-18.2h13.7z"/>
							<path id="&lt;Path&gt;" class="s1" d="m1430.2 1686.1h-13.7v-18.2h13.7z"/>
						</g>
						<g id="&lt;Group&gt;">
							<path id="&lt;Path&gt;" class="s1" d="m1454.6 1686.1h-13.7v-18.2h13.7z"/>
							<path id="&lt;Path&gt;" class="s1" d="m1480.2 1686.1h-13.7v-18.2h13.7z"/>
							<path id="&lt;Path&gt;" class="s1" d="m1505.2 1686.1h-13.7v-18.2h13.7z"/>
							<path id="&lt;Path&gt;" class="s1" d="m1528.9 1686.1h-13.7v-18.2h13.7z"/>
							<path id="&lt;Path&gt;" class="s1" d="m1553 1686.1h-13.6v-18.2h13.6z"/>
						</g>
					</g>
					<g id="&lt;Group&gt;">
						<g id="&lt;Group&gt;">
							<path id="&lt;Path&gt;" class="s1" d="m1331.7 1718.2h-13.6v-18.2h13.6z"/>
							<path id="&lt;Path&gt;" class="s1" d="m1357.3 1718.2h-13.7v-18.2h13.7z"/>
							<path id="&lt;Path&gt;" class="s1" d="m1382.3 1718.2h-13.7v-18.2h13.7z"/>
							<path id="&lt;Path&gt;" class="s1" d="m1406 1718.2h-13.7v-18.2h13.7z"/>
							<path id="&lt;Path&gt;" class="s1" d="m1430.2 1718.2h-13.7v-18.2h13.7z"/>
						</g>
						<g id="&lt;Group&gt;">
							<path id="&lt;Path&gt;" class="s1" d="m1454.6 1718.2h-13.7v-18.2h13.7z"/>
							<path id="&lt;Path&gt;" class="s1" d="m1480.2 1718.2h-13.7v-18.2h13.7z"/>
							<path id="&lt;Path&gt;" class="s1" d="m1505.2 1718.2h-13.7v-18.2h13.7z"/>
							<path id="&lt;Path&gt;" class="s1" d="m1528.9 1718.2h-13.7v-18.2h13.7z"/>
							<path id="&lt;Path&gt;" class="s1" d="m1553 1718.2h-13.6v-18.2h13.6z"/>
						</g>
					</g>
					<g id="&lt;Group&gt;">
						<g id="&lt;Group&gt;">
							<path id="&lt;Path&gt;" class="s1" d="m1331.7 1749.8h-13.6v-18.2h13.6z"/>
							<path id="&lt;Path&gt;" class="s1" d="m1357.3 1749.8h-13.7v-18.2h13.7z"/>
							<path id="&lt;Path&gt;" class="s1" d="m1382.3 1749.8h-13.7v-18.2h13.7z"/>
							<path id="&lt;Path&gt;" class="s1" d="m1406 1749.8h-13.7v-18.2h13.7z"/>
							<path id="&lt;Path&gt;" class="s1" d="m1430.2 1749.8h-13.7v-18.2h13.7z"/>
						</g>
						<g id="&lt;Group&gt;">
							<path id="&lt;Path&gt;" class="s1" d="m1454.6 1749.8h-13.7v-18.2h13.7z"/>
							<path id="&lt;Path&gt;" class="s1" d="m1480.2 1749.8h-13.7v-18.2h13.7z"/>
							<path id="&lt;Path&gt;" class="s1" d="m1505.2 1749.8h-13.7v-18.2h13.7z"/>
							<path id="&lt;Path&gt;" class="s1" d="m1528.9 1749.8h-13.7v-18.2h13.7z"/>
							<path id="&lt;Path&gt;" class="s1" d="m1553 1749.8h-13.6v-18.2h13.6z"/>
						</g>
					</g>
				</g>
				<path id="&lt;Path&gt;" class="s2" d="m1016.3 1787.8h266.3v-169.1h-266.3z"/>
				<path id="&lt;Path&gt;" class="s1" d="m1016.3 1651.6h266.3v-55h-266.3z"/>
				<g id="&lt;Group&gt;">
					<g id="&lt;Group&gt;">
						<g id="&lt;Group&gt;">
							<path id="&lt;Path&gt;" class="s1" d="m1048.1 1686.1h-13.7v-18.2h13.7z"/>
							<path id="&lt;Path&gt;" class="s1" d="m1073.7 1686.1h-13.7v-18.2h13.7z"/>
							<path id="&lt;Path&gt;" class="s1" d="m1098.7 1686.1h-13.7v-18.2h13.7z"/>
							<path id="&lt;Path&gt;" class="s1" d="m1122.4 1686.1h-13.7v-18.2h13.7z"/>
							<path id="&lt;Path&gt;" class="s1" d="m1146.6 1686.1h-13.7v-18.2h13.7z"/>
						</g>
						<g id="&lt;Group&gt;">
							<path id="&lt;Path&gt;" class="s1" d="m1171 1686.1h-13.7v-18.2h13.7z"/>
							<path id="&lt;Path&gt;" class="s1" d="m1196.6 1686.1h-13.7v-18.2h13.7z"/>
							<path id="&lt;Path&gt;" class="s1" d="m1221.6 1686.1h-13.7v-18.2h13.7z"/>
							<path id="&lt;Path&gt;" class="s1" d="m1245.3 1686.1h-13.7v-18.2h13.7z"/>
							<path id="&lt;Path&gt;" class="s1" d="m1269.4 1686.1h-13.7v-18.2h13.7z"/>
						</g>
					</g>
					<g id="&lt;Group&gt;">
						<g id="&lt;Group&gt;">
							<path id="&lt;Path&gt;" class="s1" d="m1048.1 1718.2h-13.7v-18.2h13.7z"/>
							<path id="&lt;Path&gt;" class="s1" d="m1073.7 1718.2h-13.7v-18.2h13.7z"/>
							<path id="&lt;Path&gt;" class="s1" d="m1098.7 1718.2h-13.7v-18.2h13.7z"/>
							<path id="&lt;Path&gt;" class="s1" d="m1122.4 1718.2h-13.7v-18.2h13.7z"/>
							<path id="&lt;Path&gt;" class="s1" d="m1146.6 1718.2h-13.7v-18.2h13.7z"/>
						</g>
						<g id="&lt;Group&gt;">
							<path id="&lt;Path&gt;" class="s1" d="m1171 1718.2h-13.7v-18.2h13.7z"/>
							<path id="&lt;Path&gt;" class="s1" d="m1196.6 1718.2h-13.7v-18.2h13.7z"/>
							<path id="&lt;Path&gt;" class="s1" d="m1221.6 1718.2h-13.7v-18.2h13.7z"/>
							<path id="&lt;Path&gt;" class="s1" d="m1245.3 1718.2h-13.7v-18.2h13.7z"/>
							<path id="&lt;Path&gt;" class="s1" d="m1269.4 1718.2h-13.7v-18.2h13.7z"/>
						</g>
					</g>
					<g id="&lt;Group&gt;">
						<g id="&lt;Group&gt;">
							<path id="&lt;Path&gt;" class="s1" d="m1048.1 1749.8h-13.7v-18.2h13.7z"/>
							<path id="&lt;Path&gt;" class="s1" d="m1073.7 1749.8h-13.7v-18.2h13.7z"/>
							<path id="&lt;Path&gt;" class="s1" d="m1098.7 1749.8h-13.7v-18.2h13.7z"/>
							<path id="&lt;Path&gt;" class="s1" d="m1122.4 1749.8h-13.7v-18.2h13.7z"/>
							<path id="&lt;Path&gt;" class="s1" d="m1146.6 1749.8h-13.7v-18.2h13.7z"/>
						</g>
						<g id="&lt;Group&gt;">
							<path id="&lt;Path&gt;" class="s1" d="m1171 1749.8h-13.7v-18.2h13.7z"/>
							<path id="&lt;Path&gt;" class="s1" d="m1196.6 1749.8h-13.7v-18.2h13.7z"/>
							<path id="&lt;Path&gt;" class="s1" d="m1221.6 1749.8h-13.7v-18.2h13.7z"/>
							<path id="&lt;Path&gt;" class="s1" d="m1245.3 1749.8h-13.7v-18.2h13.7z"/>
							<path id="&lt;Path&gt;" class="s1" d="m1269.4 1749.8h-13.7v-18.2h13.7z"/>
						</g>
					</g>
				</g>
			</g>
			<path id="&lt;Path&gt;" class="s4" d="m2637.9 853.6c40.1-148.7 18.6-286-92.7-397.2q-2.2-2.1-4.4-4.2l-2260.7 612.7c-12.9 50.4-18.3 99.2-20.4 147q-0.9 24.3-0.6 49l2336.2-291.5c17.2-37.7 31.5-74.9 42.6-115.8z"/>
			<path id="&lt;Path&gt;" class="s5" d="m1746.2 1781.5h-1377.8c-4.4-11.3-15.3-39.7-28.5-80.2-9.5-29.2-20.3-64.7-30.8-104.7-7.3-27.9-14.5-58-21-89.6v-19.6l137.6-112c0 0 284.8-9.2 402.2 125.4 117.4 134.6 445.3 19.9 534.6 96.5 89.4 76.6 163.5 144.7 249 125.8 85.5-19 134.7 58.4 134.7 58.4z"/>
			<path id="&lt;Path&gt;" class="s6" d="m1060 676.7l-655.2 151.8c30-38.9 60.5-72.4 91.4-101.3z"/>
			<path id="&lt;Path&gt;" class="s6" d="m2018.7 456.3c0-20.3 16.4-36.7 36.6-36.7 20.3 0 36.7 16.4 36.7 36.7 0 20.2-16.4 36.7-36.7 36.7-20.2 0-36.6-16.5-36.6-36.7z"/>
			<path id="&lt;Path&gt;" class="s7" d="m2708.2 1780.8h-108.6c-5.9-5 4-16.2 14.3-16.9 4.4-0.4 10.1 0.6 16.5 1.9 1.5-19.8 10.1-109 42.2-105.5 36.2 4.1 0 39.3-10.2 60.2-7.6 15.5-15.6 37.7-19.2 48.1q4.4 1 9.1 1.9c4.8-14.7 22.6-64.2 45.3-61.4 26.6 3.4 15.9 23.3-3 35-13.8 8.7-30.8 21-38.9 27 6.9 1.1 14 1.8 21.2 1.7 18.6-0.5 27.7 5 31.3 8z"/>
			<path id="&lt;Path&gt;" class="s7" d="m1060.1 1778.8c-3.3-5.3-13.5-19.1-27-17.3-14.7 2 16.3 11.7 25.8 17.3-2.1 0.1-4-0.1-5.3-0.6-6.3-2.3-17.2 2.1-20.7 3.6h60.4c-0.4-1.4-1.5-3.8-4.3-5.5-1-0.6-3-0.7-5.5-0.5 3.5-4.2 6-17.8-4-14.3-7.3 2.5-7.2 10.8-6.5 15.7q-2.4 0.4-4.7 0.7c-3-15.3-13.7-60.2-35.2-61.4-21.9-1.3 18.5 46.6 32 61.8-1.8 0.3-3.4 0.4-5 0.5z"/>
			<g id="&lt;Group&gt;">
				<path id="&lt;Path&gt;" class="s8" d="m1795.1 1366.8c-12.6 13.8-31.5 27.9-1.5 59.3 38.5 40.2 98.1 213.5 98.1 213.5-2 6.7 0.1 15.8-4.7 18.5-7.6 4.4-27-8.9-27-8.9 0 0-176.9-183.2-191.3-224.5-10.5-30.4 43.6-177.7 76-255 11.5-27.3 20.3-45.9 22.4-47.3q0.5-0.3 1-0.6c19.1-12.1 37-10.6 53.1-1.3q5.1 3 10 6.9c39.5 32.1 64.9 108.3 62.3 124.1-1.8 11.1-21.1 34.4-42.3 57.4-4.4 4.7-8.9 9.5-13.3 14.1-19.3 20.2-37.4 38-42.8 43.8z"/>
				<path id="&lt;Path&gt;" class="s9" d="m1851.2 1308.9c-4.4 4.7-8.9 9.5-13.3 14.1l-93.2-153.3c11.5-27.3 20.3-45.9 22.4-47.3q0.5-0.3 1-0.6l53.1-1.3 9.5-0.2 0.5 7.1z"/>
				<path id="&lt;Path&gt;" class="s10" d="m1798.5 775.7c0 0 19.8 48.5 14.6 77.3-5.1 28.8-73.3 172.4-98.2 197-24.9 24.6-189.7-80-189.7-80l16.2-15.5c0 0 130.4 33.2 137.3 22.8 6.9-10.4 40.1-215 119.8-201.6z"/>
				<path id="&lt;Path&gt;" class="s8" d="m1794.6 1155.4c0 0 33.8 169.1 119.2 288.2 82.5 115 125.4 291.2 125.4 291.2 0 0 5.4 4.3 16.2-0.3 10.8-4.5 18 1 20.2-4.2 0 0-15.6-278.3-58.4-339.2-24.2-34.4-37.1-160.8-36.3-195.1 0.9-34.4-14.2-76.6-14.2-76.6z"/>
				<g id="&lt;Group&gt;">
					<path id="&lt;Path&gt;" class="s9" d="m2074.8 1780.3l-20 0.1c-6.7-1-11.6-2.9-18.5-3.7-10.4-1.3-15.2 3-16.1 4q-0.2 0.2-0.2 0.2l-84.8 0.5c-2.1-3-0.1-10.1 1.8-15.3 1.4-3.5 4.3-6.2 7.9-7.3 9-2.6 26.7-5.1 42.8-19.9 9.1-8.3 43.9-30.6 43.9-30.6l0.2-0.1c0.8 0 4.4 1.1 20.4 14.4 8.3 6.9 22.2-9.9 22.2-9.9 0 0 2.7 2.2 4.7 6.2 1.6 3.2 2.7 7.6 1.9 13-1.2 7.6 2.9 21.8 6.3 31.4 2 5.8 3.7 9.9 3.7 9.9 0 0 1 4.8-16.2 7.1z"/>
					<path id="&lt;Path&gt;" class="s9" d="m2079.1 1718.9c-4.8 3.4-14.8 10.1-21.5 11-9 1.2-26-21.6-26-21.6l0.2-0.1c0.8 0 4.4 1.1 20.4 14.4 8.3 6.9 22.2-9.9 22.2-9.9 0 0 2.7 2.2 4.7 6.2z"/>
					<path id="&lt;Path&gt;" class="s9" d="m2074.8 1780.3l-20 0.1c-6.7-1-11.6-2.9-18.5-3.7-10.4-1.3-15.2 3-16.1 4q-0.2 0.2-0.2 0.2l-84.8 0.5c-2.1-3-0.1-10.1 1.8-15.3 2.6-2.3 3.4 10 4.8 11.9 1.5 1.9 69.2 0.2 73.1-2.6 3.9-2.9 15.6-8 32-4.2 14.3 3.3 35.2-5.5 40.4-7.9 2 5.8 3.7 9.9 3.7 9.9 0 0 1 4.8-16.2 7.1z"/>
				</g>
				<path id="&lt;Path&gt;" class="s11" d="m1971.9 1013c0.1-94.8-17.3-231.7-41-242.2-20.2-8.9-64.1-21.7-109.5-21-35.7 0.5-112 17.2-119.7 76.3-4.9 37.5-6.9 68.3-6.9 68.3 0 0 8.2 23.9 30.8 30.3 2.8 10.5 4.1 21 7.5 29.9 37.5 98.9 19.1 197.8 19.1 197.8 34.5 28.8 206.5 11.9 223.8 0.6 28.3-18.4-4.2-45.1-4.1-140z"/>
				<g id="&lt;Group&gt;">
					<path id="&lt;Path&gt;" class="s9" d="m1932.7 1663.4l-14.3 13.9c-5.6 3.9-10.5 5.9-16 10.1-8.4 6.2-8.9 12.6-8.9 14q0 0.3 0 0.3l-60.8 59c-3.7-0.6-7.1-7.1-9.3-12.3-1.5-3.4-1.2-7.4 0.6-10.7 4.7-8.1 15.8-22.1 17.2-44 0.8-12.3 10.5-52.5 10.5-52.5l0.1-0.1c0.5-0.6 4-2.3 24.7-3.8 10.7-0.7 9.2-22.5 9.2-22.5 0 0 3.4-0.2 7.6 1.3 3.4 1.2 7.2 3.5 10.4 8.1 4.4 6.3 17.2 13.7 26.2 18.3 5.5 2.8 9.6 4.6 9.6 4.6 0 0 4 2.8-6.8 16.3z"/>
					<path id="&lt;Path&gt;" class="s9" d="m1891.3 1616.1c-1.1 5.7-3.7 17.5-7.9 22.7-5.6 7.2-33.7 2.4-33.7 2.4l0.1-0.1c0.5-0.6 4-2.3 24.7-3.8 10.7-0.7 9.2-22.5 9.2-22.5 0 0 3.4-0.2 7.6 1.3z"/>
					<path id="&lt;Path&gt;" class="s9" d="m1930.7 1663.4l-14.3 13.9c-5.6 3.9-10.5 5.9-16 10.1-8.4 6.2-8.9 12.6-8.9 14q0 0.3 0 0.3l-60.8 59c-3.7-0.6-7.1-7.1-9.3-12.3 0.2-3.4 9.3 4.9 11.7 5.3 2.3 0.4 50.1-47.7 50.9-52.5 0.8-4.7 5.8-16.5 20.3-25.1 12.5-7.5 21.5-28.3 23.6-33.6 5.5 2.8 9.6 4.6 9.6 4.6 0 0 4 2.8-6.8 16.3z"/>
				</g>
				<path id="&lt;Path&gt;" class="s10" d="m1881.6 783.3c0 0 52.3-0.6 77.2 14.8 24.9 15.4 133.3 131.8 146.9 164 13.7 32.2-112 123.9-112 123.9l-17.8-28.2c0 0 56.1-78.6 48.9-88.9-7.1-10.2-185.1-116.5-143.2-185.6z"/>
				<path id="&lt;Path&gt;" class="s10" d="m1982.5 1053.5l20.9 16c0 0-18.3 39.7-28.4 43.4l-1 0.2c-10.8 2.2-37.5-15.3-42-33.4q-0.6-2.8 0.2-5.2c4.2-10.9 29.3-17.1 42.4-19.7 4.8-0.9 7.9-1.3 7.9-1.3z"/>
				<path id="&lt;Path&gt;" class="s10" d="m1555.8 958l-10.5 24.2c0 0-42.9-8-49-16.8l-0.5-1c-4.7-9.9 5.7-40.2 22.1-48.9q2.6-1.3 5.1-1.1c11.6 1.3 23.8 24.1 29.5 36.2 2.1 4.4 3.3 7.4 3.3 7.4z"/>
				<path id="&lt;Path&gt;" class="s11" d="m1861.8 752.4c0 0 48.5 2.2 83.3 23.8 16.1 10 77.7 68.4 77.7 68.4 0 0-6.8 61-80.2 77.5-74.7 16.9-86.8-108-86.8-108z"/>
				<path id="&lt;Path&gt;" class="s10" d="m1848.5 753.3c2.3 3.4 2.4 7.9 0.2 11.4-6.5 10.3-24.8 28.2-72.3 24.9-16.3-1.1-20-13.4-9.7-26.1 2.5-3.1 1.6-20.8 1.4-27.9-1-16.4-0.4-25.7-0.4-25.7l33.7-23 32-22.1c-5.3 51.6 8.3 78.6 15.1 88.5z"/>
				<path id="&lt;Path&gt;" class="s12" d="m1832.2 690.7c0 0-23.5 36.9-64.1 44.9-1-16.4-0.4-25.7-0.4-25.7l33.7-23z"/>
				<path id="&lt;Path&gt;" class="s10" d="m1753.2 707.9c0 0 78.3 18.2 88.9-30 10.7-48.1 28-78.2-21.6-91.9-49.5-13.6-63.3 2.6-70.8 17.9-7.5 15.2-16.6 98 3.5 104z"/>
				<path id="&lt;Path&gt;" class="s13" d="m1877.3 583.9c0.7-0.7 2.4-1.3 6.1-1.3 0 0-2.8-2-6.7-2.4-0.5-5.1-2.6-14.4-11.3-17.2 0 0 4.6 2.9 4.9 8.4-9.6-11.2-30.9-20.3-91.9-19.5-80.3 1-57.4 53.9-47.5 60.7 10 6.8 37.1-8.2 56.3-5.4 19.2 2.8 21 30.9 27.3 35.1 6.3 4.3 4.2-2.6 13.3-6.1 9.1-3.4 9 11.3 5.8 20.7-3.2 9.4 8.1 22.8 8.1 22.8 0 0 0 0 13.2-12.5 13.1-12.4 28.4-67.7 23.6-80q-0.6-1.6-1.2-3.3z"/>
				<path id="&lt;Path&gt;" class="s14" d="m1746.5 677.4c0 0 2.1 7.2 10.1 8.1 7.9 0.9 13.1-4.7 13.1-4.7 0 0-13-6.1-23.2-3.4z"/>
			</g>
			<g id="&lt;Group&gt;">
				<path id="&lt;Path&gt;" class="s15" d="m2217.1 1096.8h-6.5l0.1-0.5 2-17.2c0-0.5 0.5-1 1-1q0.1 0 0.3 0.1 0.5 0 0.9 0.4c0.3 0.3 0.5 0.7 0.6 1.1z"/>
				<path id="&lt;Path&gt;" class="s16" d="m2211.3 1092.9h-0.3l1.7-13.8c0-0.5 0.5-1 1-1q0.1 0 0.3 0.1 0 0 0.1 0.1c0.3 0.3 0.5 0.7 0.5 1.2l0.1 9.9c0 1.9-1.5 3.5-3.4 3.5z"/>
				<path id="&lt;Path&gt;" class="s15" d="m2221.2 1173.5v549.6h-12.4v-549.6z"/>
				<path id="&lt;Path&gt;" class="s16" d="m2214.5 1173.5v549.6h-5.7v-549.6z"/>
				<path id="&lt;Path&gt;" class="s15" d="m2234.8 1635.4v145.4h-39.6v-145.4z"/>
				<path id="&lt;Path&gt;" class="s16" d="m2218.8 1635.4v145.4h-23.6v-145.4z"/>
				<path id="&lt;Path&gt;" class="s15" d="m2236.7 1105.1c0 6.8-10.2 12.3-22.8 12.3q-1.5 0-2.9-0.1c-11.2-0.7-19.9-5.9-19.9-12.2 0-6.2 8.7-11.4 19.9-12.2q1.4-0.1 2.9-0.1c12.6 0 22.8 5.6 22.8 12.3z"/>
				<path id="&lt;Path&gt;" class="s16" d="m2224.9 1105.1c0 5.5-5.7 10.2-13.9 12.2-11.2-0.7-19.9-5.9-19.9-12.2 0-6.2 8.7-11.4 19.9-12.2 8.2 2.1 13.9 6.8 13.9 12.2z"/>
				<path id="&lt;Path&gt;" class="s16" d="m2234.8 1184.3h-39.7l-14-67.3h65.5z"/>
				<path id="&lt;Path&gt;" class="s15" d="m2250.1 1111.9v6.5h-72.5v-6.5z"/>
				<path id="&lt;Path&gt;" class="s16" d="m2223.2 1111.9v6.5h-45.6v-6.5z"/>
				<path id="&lt;Path&gt;" class="s15" d="m2201.7 1635.4h25.3l-3.7-11.3c-0.3-1-1.3-1.7-2.3-1.7h-11.9c-1.3 0-2.4 0.8-2.9 2z"/>
				<path id="&lt;Path&gt;" class="s5" d="m2185.8 1120.3h55.9l-10.9 60.5h-32.1z"/>
				<path id="&lt;Path&gt;" class="s5" d="m2192.6 1105.9c0 0 4.3-9.3 12.7-9.1 0 0-5.4 4.8-4.9 9.1 0.5 4.2-7.8 0-7.8 0z"/>
				<path id="&lt;Path&gt;" class="s15" d="m2245.5 1111.9h-63.3l5.2-7.4h53.2z"/>
				<path id="&lt;Path&gt;" class="s16" d="m2229.9 1111.9h-47.7l5.2-7.4h37.6z"/>
				<path id="&lt;Path&gt;" class="s17" d="m2189.5 1122.4h12.9l3.7 56.5h-3.7z"/>
			</g>
			<g id="&lt;Group&gt;">
				<path id="&lt;Path&gt;" class="s15" d="m943.6 1096.8h-6.4v-0.5l2-17.2c0.1-0.5 0.5-1 1.1-1q0.1 0 0.2 0.1 0.5 0 0.9 0.4c0.4 0.3 0.6 0.7 0.6 1.1z"/>
				<path id="&lt;Path&gt;" class="s16" d="m937.8 1092.9h-0.2l1.6-13.8c0.1-0.5 0.5-1 1.1-1q0.1 0 0.2 0.1 0.1 0 0.2 0.1c0.2 0.3 0.4 0.7 0.4 1.2l0.1 9.9c0 1.9-1.5 3.5-3.4 3.5z"/>
				<path id="&lt;Path&gt;" class="s15" d="m947.8 1173.5v549.6h-12.5v-549.6z"/>
				<path id="&lt;Path&gt;" class="s16" d="m941.1 1173.5v549.6h-5.8v-549.6z"/>
				<path id="&lt;Path&gt;" class="s15" d="m961.4 1635.4v145.4h-39.7v-145.4z"/>
				<path id="&lt;Path&gt;" class="s16" d="m945.3 1635.4v145.4h-23.6v-145.4z"/>
				<path id="&lt;Path&gt;" class="s15" d="m963.2 1105.1c0 6.8-10.2 12.3-22.8 12.3q-1.4 0-2.8-0.1c-11.3-0.7-20-5.9-20-12.2 0-6.2 8.7-11.4 20-12.2q1.4-0.1 2.8-0.1c12.6 0 22.8 5.6 22.8 12.3z"/>
				<path id="&lt;Path&gt;" class="s16" d="m951.4 1105.1c0 5.5-5.7 10.2-13.8 12.2-11.3-0.7-20-5.9-20-12.2 0-6.2 8.7-11.4 20-12.2 8.1 2.1 13.8 6.8 13.8 12.2z"/>
				<path id="&lt;Path&gt;" class="s16" d="m961.3 1184.3h-39.6l-14-67.3h65.4z"/>
				<path id="&lt;Path&gt;" class="s15" d="m976.7 1111.9v6.5h-72.5v-6.5z"/>
				<path id="&lt;Path&gt;" class="s16" d="m949.7 1111.9v6.5h-45.5v-6.5z"/>
				<path id="&lt;Path&gt;" class="s15" d="m928.2 1635.4h25.3l-3.7-11.3c-0.3-1-1.2-1.7-2.3-1.7h-11.8c-1.3 0-2.5 0.8-3 2z"/>
				<path id="&lt;Path&gt;" class="s5" d="m912.4 1120.3h55.9l-10.9 60.5h-32.1z"/>
				<path id="&lt;Path&gt;" class="s5" d="m919.1 1105.9c0 0 4.3-9.3 12.7-9.1 0 0-5.3 4.8-4.9 9.1 0.5 4.2-7.8 0-7.8 0z"/>
				<path id="&lt;Path&gt;" class="s15" d="m972 1111.9h-63.2l5.2-7.4h53.1z"/>
				<path id="&lt;Path&gt;" class="s16" d="m956.5 1111.9h-47.7l5.2-7.4h37.5z"/>
				<path id="&lt;Path&gt;" class="s17" d="m916.1 1122.4h12.8l3.7 56.5h-3.7z"/>
			</g>
			<path id="&lt;Path&gt;" class="s10" d="m1309.1 929.5q0 0.1 0 0.1-0.3 0 0-0.1z"/>
			<g id="&lt;Group&gt;">
				<path id="&lt;Path&gt;" class="s8" d="m1310.2 1229.3q0 0 0 0.1 0 0.2 0 0.4c-0.4 16.1-1.5 32.9-3.2 49.9-2.4 24.5-5.8 49.3-9.6 72.7q-1 6.1-2 12.1-0.8 4.9-1.7 9.7-1.9 10.9-3.8 21.2c-1.1 5.6-2.2 11-3.2 16.2-6.7 33.4-12.7 58.2-14.5 65.5q0 0.1 0 0.1c-0.4 1.4 1.4 6.2 2 7.6 18.5 42.5 14.2 59.6 10.5 101.1-7.5 83.5-26.9 158.5-26.9 158.5l-32.8 30.8c0 0 10.4-57.4-2.4-160.5-4-32.2-10.3-68.8-19.9-109.5-10.6-45.4-36.3-163.3-39.5-250.1-0.3-9 2.4-99.6 19.9-136.3 4.5-9.5 40.1 13.1 40.1 13.1l36.6 0.2 36.5 0.3q0.4 0.9 0.8 1.7c6.2 12.8 10 29.7 11.8 49.2 1.4 14.2 1.7 29.7 1.3 46z"/>
				<path id="&lt;Path&gt;" class="s9" d="m1310.2 1229.3q0 0 0 0.1 0 0.2 0 0.4c-0.4 16.1-1.5 32.9-3.2 49.9-2.4 24.5-5.8 49.3-9.6 72.7q-1 6.1-2 12.1-0.8 4.9-1.7 9.7-1.9 10.9-3.8 21.2c-1.1 5.6-2.2 11-3.2 16.2 0 0-99.7-235.6-100.8-238.7l73.9-40.8 36.5 0.3q0.4 0.9 0.8 1.7c6.2 12.8 10 29.7 11.8 49.2 1.4 14.2 1.7 29.7 1.3 46z"/>
				<path id="&lt;Path&gt;" class="s9" d="m1221.4 1783.4q0 0 0.1-0.1c0.7-0.7 3.9-3.6 11-2.6 4.7 0.7 8 2 12.5 2.7l13.6 0.1c11.7-1.4 11-4.6 11-4.6 0 0-1.1-2.8-2.4-6.8-2.2-6.5-4.9-16.2-4-21.4 0.7-3.7-0.1-6.6-1.2-8.8-1.3-2.8-3.1-4.3-3.1-4.3 0 0-9.5 11.3-15.1 6.6-10.7-9.2-13.2-10-13.7-10h-0.2c0 0-23.8 14.9-30.1 20.4-11 10-23.1 11.5-29.2 13.2-2.5 0.7-4.5 2.5-5.4 4.9-1.4 3.5-2.8 8.3-1.4 10.4z"/>
				<path id="&lt;Path&gt;" class="s10" d="m1197 864.4c0 0-22.8 145.2-59.7 200.7-18.5 28-146.3-80.2-146.3-80.2l14.7-8.7c0 0 100.1 49 103.4 43.3 3.3-5.6 14.4-121.9 34.4-138.3 20.1-16.3 53.5-16.8 53.5-16.8z"/>
				<path id="&lt;Path&gt;" class="s9" d="m1206.7 797c0 0-28.9-1.7-41.9-48-10-35.8 10.1-79.9 61.7-75.9 0 0 34.2-3.4 45.9 24.6 5.2 12.4 13.7 17.3-1.3 62.9l-3.6 15.3z"/>
				<path id="&lt;Path&gt;" class="s9" d="m1264.8 754.5c0 0 17.6 20.5 37.5 16.6 19.9-3.8 59.5-16.7 74.7 1.5 15.3 18.2-6 59.6 9.1 75.1 15.1 15.5 2.9 63-66.1 47.2-69-15.8-66.6-92.1-65.4-102.6 1.3-10.4 10.2-37.8 10.2-37.8z"/>
				<path id="&lt;Path&gt;" class="s8" d="m1591.6 1532.8l-3.1 20.8c0 0-82.9-25.7-175.7-50.3-29.3-7.8-59.5-15.5-88.5-22.2-29.7-6.9-117.8-385.8-117.8-385.8 0 0 130.3-13 164 51 52.7 100.1-6.4 268.3 34.9 274.5 9.6 1.4 19.8 4.3 30.3 8.3 71.4 27.1 155.9 103.7 155.9 103.7z"/>
				<path id="&lt;Path&gt;" class="s11" d="m1166.9 863.7c0 0 39.9-19.2 78.7-22.1 38.8-2.8 84.7 1.8 94.8 12.1 5.3 5.3 22.3 47 15 80.2-8.2 37.5-11.1 55.7-11.7 79.4-1.3 46.4 12.6 71.2 31.3 123.5 12.2 34.4-114 106.2-205.8 37.8 2.9-38 16.6-129.6 6.6-146.5-28.8-48.9-27.8-150.9-8.9-164.4z"/>
				<path id="&lt;Path&gt;" class="s10" d="m1340.9 853.9c0 0 96.1 110 106.6 141.8 10.5 31.9-135.7 95.2-135.7 95.2l-6.1-23c0 0 84-67.6 81.5-73.6-2.5-6-64.5-61.7-65.3-87.6-0.8-25.8 19-52.8 19-52.8z"/>
				<path id="&lt;Path&gt;" class="s10" d="m1223.1 880.4c-38.3 1.2-23.7-17.7-18.8-24.4q1.1-1.4 1.6-3c2.7-8.1 2.4-24.3 1.7-35.2-0.9-11.7-2.4-24-2.9-28.1q0 0 0 0c-0.2-1-0.2-1.5-0.2-1.5l47.8-12.8 8.6 15.2 1.7 3.2c0.3 3.8 1.9 14.7 4.6 25.3 2.3 9 5.5 17.7 9.4 21.9 2.7 2.8 4.6 37.5-53.5 39.4z"/>
				<path id="&lt;Path&gt;" class="s18" d="m1267.2 819.1c-36.7-0.9-61.9-28.7-62.5-29.4q-0.1 0-0.1 0h0.1c15.1-4.7 37.2-2.8 56.2 0.9l1.7 3.2c0.3 3.8 1.9 14.7 4.6 25.3z"/>
				<g id="&lt;Group&gt;">
					<path id="&lt;Path&gt;" class="s10" d="m1265.2 807.3c0 0-64.2 5.3-66.9-34.7-2.7-40-12.8-66.3 28.1-71.4 40.8-5.1 49.8 9.7 54 22.8 4.1 13.1 1.4 80.9-15.2 83.3z"/>
					<path id="&lt;Path&gt;" class="s9" d="m1255.5 698.3c0 0-14.4 48.1-40.9 56.9-26.6 8.7-38.8 2.3-38.8 2.3 0 0 19.6-17.9 22-46.9 0 0 43-33.8 57.7-12.3z"/>
					<path id="&lt;Path&gt;" class="s9" d="m1251.4 702.4c0 0 13.9 9.6 17.8 19.6 3.8 10 6.7 30.9 12.7 29.7 0 0 11.2-32.8-4.9-49.8-17.1-18.1-25.6 0.5-25.6 0.5z"/>
					<path id="&lt;Path&gt;" class="s14" d="m1248 786.9c0 0 2.6 5.3 6.6 5.4 4.1 0.1 14.3-0.7 15.1-1.6 0.8-0.9 2.8-6.5 2.8-6.5 0 0-16.8-0.6-24.5 2.7z"/>
				</g>
				<path id="&lt;Path&gt;" class="s11" d="m1333.6 849.4c0 0 31.5 11.1 57.1 56 0 0-4.6 29.9-44 50.9-39.5 20.9-35.7-63.3-35.7-63.3z"/>
				<path id="&lt;Path&gt;" class="s11" d="m1172.5 861.2c0 0-30.7 12.7-35.8 25.5-7.8 19.4-16.8 51.6-16.8 51.6 0 0 12.5 30 54.9 37.6 39.8 7.1-2.3-114.7-2.3-114.7z"/>
				<path id="&lt;Path&gt;" class="s10" d="m1312.4 1065.1l14.4 13.4c0 0-16.4 28.3-24.1 30.3l-0.8 0.1c-8.1 0.9-26.8-14-28.9-27.7q-0.2-2.1 0.5-3.9c3.9-7.8 22.9-10.7 32.9-11.7 3.6-0.4 6-0.5 6-0.5z"/>
				<path id="&lt;Path&gt;" class="s10" d="m1014.1 980.3l-5.2 15.7c0 0-16.6-1.7-26.5-5.2-3.7-1.3-9.2-5.1-9.8-9-1.4-8.8-0.2-25.4 7.9-31.6q1.7-1.2 3.6-1.4c8.7-0.4 30 31.5 30 31.5z"/>
				<path id="&lt;Path&gt;" class="s9" d="m1619 1548.2q0 0-0.2-0.1c-0.7-0.6-3.9-3.5-3.8-10.6 0.1-4.7 1-8.2 1.3-12.8l-1.5-13.5c-2.7-11.4-5.9-10.4-5.9-10.4 0 0-2.7 1.4-6.5 3.2-6.2 2.9-15.5 6.7-20.7 6.4-3.8-0.2-6.6 0.9-8.7 2.2-2.6 1.6-3.8 3.6-3.8 3.6 0 0 12.3 8.2 8.2 14.3-7.9 11.7-8.4 14.3-8.3 14.8v0.1c0 0 17.5 22 23.8 27.5 11.1 9.9 14 21.7 16.4 27.6 1 2.3 3 4.1 5.5 4.8 3.7 0.9 8.6 1.8 10.5 0.1z"/>
			</g>
			<path id="&lt;Path&gt;" class="s7" d="m786.3 1787l-415.7-0.1c0 0-13.3-32.3-30.7-85.6 19.4-4.6 73-14.7 110.3 4.3 46.3 23.6 40.2 55 97.6 43.5 57.3-11.5 104.6-16.3 130.3 0 25.7 16.4 44.5 9.9 76.5 9.8 26.4-0.1 31 20.9 31.7 28.1z"/>
			<path id="&lt;Path&gt;" class="s19" d="m3033.8 1788.3h-2836c-1.8 0-3.2-1.4-3.2-3.2v-1.1c0-1.8 1.4-3.2 3.2-3.2h2836c1.8 0 3.2 1.4 3.2 3.2v1.1c0 1.8-1.4 3.2-3.2 3.2z"/>
			<g id="&lt;Group&gt;">
				<path id="&lt;Path&gt;" class="s20" d="m813.4 1669.2h-379.4l-17.5-89.2h378.7z"/>
				<path id="&lt;Path&gt;" class="s21" d="m819.9 1669.2h-379.4l-17.5-89.2h378.6z"/>
				<path id="&lt;Path&gt;" class="s20" d="m546 1680.1h-103.7c-4.6 0-8.3-3.7-8.3-8.3v-2.6h112z"/>
				<path id="&lt;Path&gt;" class="s22" d="m889.7 1680.1h-344.5v-10.9h344.5z"/>
				<g id="&lt;Group&gt;">
					<path id="&lt;Path&gt;" class="s22" d="m456.7 1680.1l-6.5 25.5q0 0 0 0.1l-19.3 75.6c-0.2 1-1.1 1.7-2.1 1.7-2 0-3.4-1.8-3.1-3.7l17.2-88.2 2.1-11z"/>
				</g>
				<path id="&lt;Path&gt;" class="s20" d="m450.2 1705.6c0.6-13-7.3-14.5-7.3-14.5l2.1-11h11.7z"/>
				<g id="&lt;Group&gt;">
					<path id="&lt;Path&gt;" class="s22" d="m539 1680.1l-6.5 25.5q0 0 0 0.1l-19.3 75.6c-0.2 1-1.1 1.7-2.1 1.7-2 0-3.4-1.8-3.1-3.7l17.2-88.2 2.1-11z"/>
				</g>
				<path id="&lt;Path&gt;" class="s20" d="m532.5 1705.6c0.6-13-7.3-14.5-7.3-14.5l2.1-11h11.7z"/>
				<g id="&lt;Group&gt;">
					<path id="&lt;Path&gt;" class="s22" d="m858.3 1680.1l6.4 25.5q0 0 0 0.1l19.3 75.6c0.2 1 1.1 1.7 2.1 1.7 2 0 3.5-1.8 3.1-3.7l-17.2-88.2-2.1-11z"/>
				</g>
				<path id="&lt;Path&gt;" class="s20" d="m864.7 1705.6c-0.6-13 7.3-14.5 7.3-14.5l-2.1-11h-11.6z"/>
				<g id="&lt;Group&gt;">
					<path id="&lt;Path&gt;" class="s22" d="m776 1680.1l6.5 25.5q0 0 0 0.1l19.2 75.6c0.2 1 1.1 1.7 2.1 1.7 2 0 3.5-1.8 3.1-3.7l-17.2-88.2-2.1-11z"/>
				</g>
				<path id="&lt;Path&gt;" class="s20" d="m782.5 1705.6c-0.7-13 7.2-14.5 7.2-14.5l-2.1-11h-11.6z"/>
			</g>
			<path id="&lt;Path&gt;" class="s7" d="m488.3 1096.4c-7.1 63.6-59.4 47.8-112.4 80.1-2.6 1.6-5.3 3.5-8.1 5.3-21.8 15.6-48.9 23.4-73.2 27.1-12.6 1.8-24.5 2.7-34.9 3 0.5-10.8 1.2-21.6 1.9-32.4 1.8-22.9 4.6-45.9 8.5-68.2 2.5-15.1 5.7-30.2 9.4-44.9 8.9-36.1 21.1-70.5 37.1-103.1 44.8 3.5 94.4 28.3 128.8 58.3 27.5 24.3 45.4 51.9 42.9 74.8z"/>
			<path id="&lt;Path&gt;" class="s7" d="m660.2 1405.1c-13.1 7.6-28.5 12.4-45.2 13.5-73.5 4.6-98.9 31.9-158.4 89.8-47.7 46.3-122.5 38.3-159.7 38.5-3-12.8-6-26.4-8.7-39.9-18.8-90.7-32.4-193.9-28.5-295.1 0.5-10.8 1.2-21.6 1.9-32.4 1.8-22.9 4.6-45.9 8.5-68.2 33 10.4 67.9 40 105.8 65.2 40.3 27.1 84.2 49.1 132.1 37.4 48.2-11.7 85.4-11 114.6-1.6 37.1 11.7 61.5 37.2 78.9 68.4 24.1 42.9 3.2 98.9-41.3 124.4z"/>
		</g>
	</g>
</svg>